<?xml version="1.0" encoding="utf-8"?>
<!-- Generator: Adobe Illustrator 21.0.0, SVG Export Plug-In . SVG Version: 6.00 Build 0)  -->
<svg version="1.1" id="Capa_1" xmlns="http://www.w3.org/2000/svg" xmlns:xlink="http://www.w3.org/1999/xlink" x="0px" y="0px"
	 viewBox="0 0 72.7 42.3" style="enable-background:new 0 0 72.7 42.3;" xml:space="preserve">
<style type="text/css">
	.st0{fill:#005DB4;}
	.st1{fill:#FFFFFF;}
	.st2{fill:#8EBB37;}
	.st3{fill:none;stroke:#FFFFFF;stroke-width:0.3739;stroke-miterlimit:3.864;}
	.st4{fill:#EC8213;}
	.st5{fill-rule:evenodd;clip-rule:evenodd;fill:#FFFFFF;}
</style>
<g>
	<rect x="1.1" y="20.5" class="st0" width="15.6" height="16.9"/>
	<path class="st1" d="M9.8,20.5l0,5.4h0c5,1.3,5.3,5.4,5.3,5.4c-1.7-1-3-1.3-3-1.3c0.3,2.7-0.1,3.9-0.1,3.9
		c-1.3-1.2-1.7-2.6-1.7-2.6c-0.2,1.3-0.4,1.6-0.4,1.6C9.3,32.3,9,31.6,9,31.6c-0.3,3.6-0.8,4.5-0.8,4.5c-0.5-0.5-0.8-4.8-0.8-4.8
		c-1,2.1-2.1,2.7-2.1,2.7c-0.2-2.2,0.5-4,0.5-4c-0.6,1-2.9,2.5-2.9,2.5C3.2,27.1,8.4,26,8.4,26l0-5.5H9.8z"/>
	<rect x="17.8" y="20.5" class="st0" width="54.9" height="16.9"/>
	<path class="st2" d="M9.8,15.1v5.5H8.4v-5.6h0l-0.3-0.1c0,0-7.7-1.6-8.1-9.5c0,0,3.3,2.2,4.2,3.6c0,0-1.1-2.6-0.7-5.9
		c0,0,1.6,0.9,3.1,4c0,0,0.4-6.4,1.2-7.1c0,0,0.8,1.3,1.2,6.6c0,0,0.5-1.1,1.2-1.8c0,0,0.4,0.5,0.6,2.4c0,0,0.6-2.1,2.6-3.9
		c0,0,0.5,1.8,0.1,5.7c0,0,2-0.4,4.5-2c0,0-0.3,6-7.8,8L9.8,15.1z"/>
	<path class="st0" d="M25.7,19.6l-0.3-1.8h-2.5l-0.3,1.8h-3.9l3.4-14h4.6l3,14H25.7z M25,14.8l-0.4-3.3c-0.1-0.9-0.2-1.8-0.3-2.6h0
		c-0.1,0.9-0.2,1.8-0.4,2.6l-0.5,3.3H25z"/>
	<path class="st0" d="M37,9.6c-0.5-0.5-1-0.8-1.8-0.8c-2,0-2.5,2.2-2.5,3.7c0,1.6,0.5,3.7,2.4,3.7c0.9,0,1.4-0.3,2-0.9L37,19.3
		c-0.8,0.3-1.5,0.5-2.3,0.5c-3.1,0-5.7-2.4-5.7-7.2c0-6.3,4.3-7.3,6.2-7.3c0.7,0,1.3,0.1,1.9,0.3V9.6z"/>
	<path class="st0" d="M45.4,9.6c-0.5-0.5-1-0.8-1.8-0.8c-2,0-2.5,2.2-2.5,3.7c0,1.6,0.5,3.7,2.4,3.7c0.9,0,1.4-0.3,2-0.9l-0.2,3.9
		c-0.8,0.3-1.5,0.5-2.3,0.5c-3.1,0-5.7-2.4-5.7-7.2c0-6.3,4.3-7.3,6.2-7.3c0.7,0,1.3,0.1,1.9,0.3V9.6z"/>
	<rect x="46.1" y="5.5" class="st0" width="3.8" height="14"/>
	<path class="st0" d="M55.5,5.3c3.8,0,5.4,3.8,5.4,7.3c0,3.4-1.5,7.3-5.4,7.3c-3.9,0-5.4-3.8-5.4-7.3C50.2,9.1,51.7,5.3,55.5,5.3
		 M55.5,16.3c1.4,0,1.5-2.8,1.5-3.7c0-0.9-0.1-3.7-1.5-3.7c-1.4,0-1.5,2.8-1.5,3.7C54,13.4,54.1,16.3,55.5,16.3"/>
	<path class="st0" d="M61.2,5.5h3.6l3,8.4l0,0c-0.1-1.6-0.4-3.2-0.4-4.8V5.5h3.6v14h-3.6l-2.8-8.1l0,0c0.1,1.3,0.3,2.6,0.3,3.9v4.1
		h-3.6V5.5z"/>
	<polygon class="st1" points="24.1,35.9 24.1,30.2 22.6,30.2 22.6,35.9 19.4,35.9 19.4,21.9 22.6,21.9 22.6,26.9 24.1,26.9 
		24.1,21.9 27.2,21.9 27.2,35.9 	"/>
	<path class="st1" d="M33.2,35.9L33,34.1h-2.1l-0.3,1.8h-3.2l2.8-14H34l2.5,14H33.2z M32.6,31.2l-0.3-3.3c-0.1-0.9-0.2-1.8-0.2-2.6
		h0c-0.1,0.9-0.2,1.8-0.3,2.6l-0.4,3.3H32.6z"/>
	<path class="st1" d="M44.8,35.9l-0.3-8.8h0c-0.1,1-0.2,2-0.4,3.1l-0.9,5.7h-2.6l-1.1-8.8h0c0,1,0,2.1,0,3.1l-0.3,5.7h-3.4l1.4-14
		h3.9l0.9,7.5h0c0.1-0.9,0.2-1.7,0.3-2.6l0.8-4.9H47l1.1,14H44.8z"/>
	<path class="st1" d="M48.3,21.9H52c1.8,0,4,1,4,4c0,1.6-0.8,2.8-2.2,2.8v0c1.5,0.1,2.4,1.3,2.4,3.2c0,1.7-0.9,4-3.7,4h-4.2V21.9z
		 M51.7,27.4c0.6,0,1.2-0.3,1.2-1.2c0-0.8-0.5-1.2-1.1-1.2h-0.3v2.4H51.7z M51.7,32.9c0.7,0,1.3-0.4,1.3-1.4c0-0.9-0.6-1.3-1.3-1.3
		h-0.2v2.7H51.7z"/>
	<path class="st1" d="M61.7,35.9l-1.7-5.8l0,0c0,0.7,0,1.4,0,2.1v3.7h-3.1v-14h3c2.7,0,4.7,1,4.7,4.7c0,1.5-0.6,2.9-1.8,3.5l2.3,5.8
		H61.7z M60.2,28.4c0.8,0,1.3-0.9,1.3-1.8c0-1.2-0.6-1.7-1.5-1.7v3.5L60.2,28.4z"/>
	<polygon class="st1" points="65.2,21.9 71,21.9 71,25.2 68.3,25.2 68.3,27.2 70.8,27.2 70.8,30.5 68.3,30.5 68.3,32.6 71,32.6 
		71,35.9 65.2,35.9 	"/>
	<rect x="35" y="17.7" class="st0" width="20.9" height="4.7"/>
	<rect x="35" y="17.7" class="st3" width="20.9" height="4.7"/>
	<path class="st1" d="M37.7,19.5c-0.1-0.2-0.4-0.3-0.6-0.3c-0.4,0-0.7,0.4-0.7,0.9c0,0.5,0.3,0.8,0.7,0.8c0.2,0,0.5-0.1,0.6-0.3v1
		c-0.2,0.1-0.4,0.1-0.6,0.1c-0.4,0-0.8-0.2-1-0.5c-0.3-0.3-0.4-0.7-0.4-1.2c0-0.4,0.1-0.8,0.4-1.1c0.3-0.3,0.7-0.5,1.1-0.5
		c0.2,0,0.4,0.1,0.7,0.2V19.5z"/>
	<path class="st1" d="M40.9,20c0,1-0.6,1.7-1.5,1.7c-0.9,0-1.5-0.7-1.5-1.7c0-0.9,0.7-1.6,1.5-1.6C40.2,18.4,40.9,19.1,40.9,20
		 M38.6,20c0,0.5,0.4,0.9,0.8,0.9s0.8-0.4,0.8-0.9c0-0.4-0.4-0.8-0.8-0.8S38.6,19.6,38.6,20"/>
	<polygon class="st1" points="41.1,18.5 41.8,18.5 43.1,20.4 43.1,20.4 43.1,18.5 43.8,18.5 43.8,21.6 43.1,21.6 41.8,19.7 
		41.8,19.7 41.8,21.6 41.1,21.6 	"/>
	<polygon class="st1" points="45.2,21.6 44.5,21.6 44.5,19.2 43.9,19.2 43.9,18.5 45.8,18.5 45.8,19.2 45.2,19.2 	"/>
	<path class="st1" d="M48.2,21.6h-0.9l-0.7-1.2h0v1.2h-0.7v-3.1H47c0.5,0,1,0.3,1,0.9c0,0.4-0.2,0.8-0.6,0.9L48.2,21.6z M46.6,19.9
		L46.6,19.9c0.3,0,0.6,0,0.6-0.4c0-0.3-0.3-0.4-0.5-0.4h-0.1V19.9z"/>
	<path class="st1" d="M48.9,21.1l-0.2,0.5H48l1.1-3.1h0.8l1,3.1h-0.8l-0.2-0.5H48.9z M49.4,19.5L49.4,19.5l-0.3,1h0.6L49.4,19.5z"/>
	<polygon class="st1" points="52.7,19.2 52.7,19.7 53.5,19.7 53.5,20.4 52.7,20.4 52.7,20.9 53.5,20.9 53.5,21.6 52,21.6 52,18.5 
		53.5,18.5 53.5,19.2 	"/>
	<polygon class="st1" points="54.5,20.9 55.4,20.9 55.4,21.6 53.8,21.6 53.8,18.5 54.5,18.5 	"/>
	<rect x="1.1" y="38.5" class="st4" width="71.6" height="3.8"/>
	<path class="st5" d="M6.3,40.7H5.8L6,40h0L6.3,40.7z M6.4,41.2l0.2,0.4h0.6l-0.9-2.3H5.7l-0.9,2.3h0.6l0.2-0.4H6.4z"/>
	<path class="st1" d="M11,39.3c-0.2-0.1-0.4-0.1-0.6-0.1c-0.3,0-0.7,0.1-0.9,0.4c-0.2,0.2-0.3,0.5-0.3,0.8c0,0.3,0.1,0.6,0.4,0.9
		c0.2,0.2,0.5,0.3,0.9,0.3c0.2,0,0.3,0,0.5-0.1v-0.7c-0.1,0.2-0.3,0.2-0.5,0.2c-0.4,0-0.6-0.3-0.6-0.6c0-0.4,0.2-0.6,0.6-0.6
		c0.2,0,0.4,0.1,0.5,0.3V39.3z"/>
	<polygon class="st1" points="14.6,39.8 14.6,39.3 13.3,39.3 13.3,41.6 13.9,41.6 13.9,40.7 14.6,40.7 14.6,40.2 13.9,40.2 
		13.9,39.8 	"/>
	<rect x="19.9" y="39.3" class="st1" width="0.6" height="2.3"/>
	<polygon class="st1" points="22.8,41.6 23.4,41.6 23.4,40.2 23.4,40.2 24.6,41.6 25.2,41.6 25.2,39.3 24.6,39.3 24.6,40.7 
		24.5,40.7 23.4,39.3 22.8,39.3 	"/>
	<polygon class="st1" points="28.4,39.8 28.9,39.8 28.9,39.3 27.3,39.3 27.3,39.8 27.8,39.8 27.8,41.6 28.4,41.6 	"/>
	<polygon class="st1" points="32.4,39.8 32.4,39.3 31.1,39.3 31.1,41.6 32.4,41.6 32.4,41.1 31.7,41.1 31.7,40.7 32.3,40.7 
		32.3,40.2 31.7,40.2 31.7,39.8 	"/>
	<path class="st5" d="M35.3,39.7L35.3,39.7c0.3,0,0.5,0,0.5,0.3c0,0.3-0.2,0.3-0.4,0.3h-0.1V39.7z M35.9,40.7
		c0.3-0.1,0.5-0.3,0.5-0.7c0-0.5-0.3-0.7-0.8-0.7h-0.9v2.3h0.6v-0.9h0l0.6,0.9h0.8L35.9,40.7z"/>
	<polygon class="st1" points="38.7,41.6 39.3,41.6 39.3,40.2 39.3,40.2 40.4,41.6 41,41.6 41,39.3 40.4,39.3 40.4,40.7 40.4,40.7 
		39.3,39.3 38.7,39.3 	"/>
	<path class="st5" d="M44.6,40.7h-0.5l0.2-0.7h0L44.6,40.7z M44.8,41.2l0.1,0.4h0.6l-0.9-2.3h-0.7l-0.9,2.3h0.6l0.2-0.4H44.8z"/>
	<polygon class="st1" points="48.4,39.8 48.9,39.8 48.9,39.3 47.3,39.3 47.3,39.8 47.8,39.8 47.8,41.6 48.4,41.6 	"/>
	<rect x="51.1" y="39.3" class="st1" width="0.6" height="2.3"/>
	<path class="st5" d="M55.2,39.8c0.4,0,0.7,0.3,0.7,0.6c0,0.4-0.3,0.7-0.7,0.7c-0.4,0-0.7-0.3-0.7-0.7
		C54.5,40.1,54.8,39.8,55.2,39.8 M55.2,39.2c-0.7,0-1.3,0.5-1.3,1.2c0,0.8,0.5,1.3,1.3,1.3c0.7,0,1.3-0.5,1.3-1.3
		C56.5,39.7,55.9,39.2,55.2,39.2"/>
	<polygon class="st1" points="58.7,41.6 59.3,41.6 59.3,40.2 59.3,40.2 60.4,41.6 61,41.6 61,39.3 60.4,39.3 60.4,40.7 60.4,40.7 
		59.3,39.3 58.7,39.3 	"/>
	<path class="st5" d="M64.6,40.7h-0.5l0.2-0.7h0L64.6,40.7z M64.8,41.2l0.2,0.4h0.6l-0.9-2.3H64l-0.9,2.3h0.6l0.2-0.4H64.8z"/>
	<polygon class="st1" points="68.3,39.3 67.7,39.3 67.7,41.6 69,41.6 69,41.1 68.3,41.1 	"/>
</g>
</svg>
