<?xml version="1.0" encoding="utf-8"?>
<!-- Generator: Adobe Illustrator 21.0.0, SVG Export Plug-In . SVG Version: 6.00 Build 0)  -->
<svg version="1.1" id="svg13668" xmlns:svg="http://www.w3.org/2000/svg"
	 xmlns="http://www.w3.org/2000/svg" xmlns:xlink="http://www.w3.org/1999/xlink" x="0px" y="0px" viewBox="0 0 500 289.3"
	 style="enable-background:new 0 0 500 289.3;" xml:space="preserve">
<style type="text/css">
	.st0{fill:#286BB6;}
	.st1{fill:#1375BB;}
	.st2{fill:#70BC38;}
	.st3{fill:#6FBE35;}
	.st4{fill:#FFFFFF;}
	.st5{fill:#D87C3F;}
</style>
<polygon id="rect18587" class="st0" points="62.2,91.1 63.6,91.1 63.6,91.1 "/>
<path id="path18593" class="st1" d="M124.4,131.8l23.1-94.2h31.7l20,94.6h-27l-1.2-10.9h-17.6l-1.6,10.9L124.4,131.8z M162.9,62.4
	l-4.6,37h9.3L162.9,62.4z"/>
<path id="path2324" class="st1" d="M248.6,38.2c0,0-53.4-9.3-53.4,47.1s54.2,50.9,54.2,50.9V110c0,0-28.6,9.3-28.6-22.4
	s27.9-30.9,27.9-23.9S249.4,38.9,248.6,38.2z"/>
<path id="path2326" class="st1" d="M309.5,37.6v23.9h-16.3V134h-24V60h-15.5V37.6H309.5z"/>
<path id="path2328" class="st1" d="M339.4,37.6v94.9H313V37.7L339.4,37.6z"/>
<path id="path4284" class="st1" d="M378.6,37.3c5.3,0,34.1,1.4,34.1,51.1c0,45-28.6,48.4-31.8,48.4c-2.8,0-38.9,2.6-38.9-48.4
	S373.6,37.3,378.6,37.3z"/>
<path id="path4288" class="st1" d="M416.6,37.6v94.7h25.2v-49l17.4,48h25V37.6H459v47.3l-17.2-47.1L416.6,37.6z"/>
<rect id="rect14683" x="120.7" y="140.2" class="st1" width="379.2" height="116.5"/>
<path id="path13695" class="st2" d="M64,139.7V104c0,0,45.3-9,54.8-52.3c-10,2.4-29.1,10-29.1,10V20.9c0,0-13.3,13.8-17.6,27.1
	c1.4,0-5.7-13.8-5.7-13.8s-6,10.1-7.6,13.1C59.2,24.6,49.3,0,49.3,0s-5.7,25.7-6.2,47.5c-0.5,1.9-21-24.2-21-24.2l0.5,34.2L0.2,39.9
	c0,0-6.2,43.7,52.9,60.3c0,12.4,0,39.9,0,39.9L64,139.7z"/>
<rect id="rect14681" x="3.5" y="140.2" class="st1" width="106.7" height="116.9"/>
<path id="path14685" class="st3" d="M64,140.2V104c0,0,45.3-9,54.8-52.3c-10,2.4-29.1,10-29.1,10V20.9c0,0-13.3,13.8-17.6,27.1
	c1.4,0-5.7-13.8-5.7-13.8s-6,10.1-7.6,13.1C59.2,24.6,49.3,0,49.3,0s-5.7,25.7-6.2,47.5c-0.5,1.9-21-24.2-21-24.2l0.5,34.2L0.2,39.9
	c0,0-6.2,43.7,52.9,60.3c0,12.4,0,39.9,0,39.9L64,140.2z"/>
<path id="path14687" class="st4" d="M62.7,140.2v36.5c0,0,34.9,7,42.3,40.3c-7.7-1.8-22.4-7.7-22.4-7.7v31.5
	c0,0-10.3-10.6-13.6-20.9c1.1,0-4.4,10.6-4.4,10.6s-4.7-7.8-5.8-10.1c0.3,17.5-7.4,36.5-7.4,36.5s-4.4-19.8-4.8-36.6
	c-0.4-1.5-16.2,18.7-16.2,18.7l0.4-26.4l-17.3,13.6c0,0-4.8-33.7,40.8-46.5c0-9.5,0-39.4,0-39.4L62.7,140.2z"/>
<rect id="rect15664" x="229.3" y="119.1" class="st4" width="154" height="33"/>
<rect id="rect15666" x="231.5" y="120.8" class="st1" width="149.8" height="29.4"/>
<rect id="rect18585" x="2.9" y="264" class="st5" width="497.1" height="25.3"/>
<path id="text5269" class="st4" d="M248.2,145.1c-0.8,0.5-1.6,0.9-2.5,1.2s-1.8,0.4-2.7,0.4c-2.8,0-5.1-1-6.8-3.1
	c-1.7-2-2.5-4.8-2.5-8.3s0.8-6.3,2.5-8.3s3.9-3.1,6.8-3.1c1,0,1.9,0.1,2.7,0.4c0.9,0.3,1.7,0.7,2.5,1.2v4.5
	c-0.8-0.7-1.6-1.2-2.4-1.6c-0.8-0.3-1.6-0.5-2.5-0.5c-1.6,0-2.8,0.6-3.7,1.9c-0.9,1.3-1.3,3.1-1.3,5.4c0,2.3,0.4,4,1.3,5.3
	c0.9,1.3,2.1,1.9,3.7,1.9c0.9,0,1.7-0.2,2.5-0.5s1.6-0.9,2.4-1.6V145.1 M259.7,128c-1.3,0-2.4,0.6-3.1,1.9c-0.7,1.3-1.1,3.1-1.1,5.4
	c0,2.3,0.4,4.1,1.1,5.4c0.7,1.3,1.8,1.9,3.1,1.9c1.3,0,2.4-0.6,3.1-1.9s1.1-3.1,1.1-5.4c0-2.3-0.4-4.1-1.1-5.4
	C262.1,128.7,261,128,259.7,128 M259.7,123.9c2.7,0,4.9,1,6.4,3c1.6,2,2.3,4.8,2.3,8.4c0,3.5-0.8,6.3-2.3,8.3c-1.6,2-3.7,3-6.4,3
	c-2.7,0-4.9-1-6.4-3c-1.6-2-2.3-4.8-2.3-8.3c0-3.6,0.8-6.3,2.3-8.4C254.8,125,256.9,123.9,259.7,123.9 M271.8,124.3h4.9l6.2,15.1
	v-15.1h4.2v21.9h-4.9l-6.2-15.1v15.1h-4.2V124.3 M289.3,124.3H305v4.3h-5.7v17.7H295v-17.7h-5.7V124.3 M313.6,134.1
	c0.9,0,1.6-0.2,2-0.7c0.4-0.4,0.6-1.2,0.6-2.2s-0.2-1.7-0.6-2.1c-0.4-0.4-1.1-0.6-2-0.6h-1.9v5.6H313.6 M311.7,138v8.3h-4.4v-21.9
	h6.7c2.2,0,3.9,0.5,4.9,1.5c1.1,1,1.6,2.5,1.6,4.6c0,1.5-0.3,2.6-0.8,3.6c-0.5,0.9-1.4,1.6-2.5,2.1c0.6,0.2,1.1,0.6,1.6,1.2
	c0.5,0.6,1,1.6,1.5,2.8l2.4,6.2H318l-2.1-5.5c-0.4-1.1-0.8-1.8-1.3-2.2c-0.4-0.4-1-0.6-1.7-0.6h-1.2 M325.3,124.3h11.9v4.3h-7.5v4.1
	h7v4.3h-7v5h7.7v4.3h-12.1V124.3"/>
<path id="text5273" class="st4" d="M345,123.9h4.8v18.3h8.4v4.4H345V123.9 M372.6,142.6H365l-1.2,4.1H359l6.9-22.8h5.7l6.9,22.8
	h-4.8L372.6,142.6 M366.2,138.3h5.1l-2.5-9.1L366.2,138.3"/>
<path id="path6250" class="st4" d="M129.6,150.8v96.1h38.7v-39H195v-20.5h-27.1v-13.9h31.3v-22.8h-69.6V150.8z"/>
<path id="path6252" class="st4" d="M184.2,246.9l35.6-95.7h46.8l28.3,95.7h-38.3l-1.2-11.6h-29l-0.4,11.6H184.2z M242.2,175.5
	l-8.5,36.7h15.1L242.2,175.5z"/>
<path id="path6256" class="st4" d="M299.5,247.3h38.4v-96.5h-38L299.5,247.3z"/>
<path id="path6258" class="st4" d="M343.1,248l14.1-96.9h49.2l10.4,45.9l11.2-46.3h52.2l13.2,97.4h-43.7v-61.9l-16.6,61.9h-32.3
	l-15.5-59.7l-0.4,59.6H343.1z"/>
<path id="text7243" class="st4" d="M35.2,284.8h-3l-1.2-3.7h-5.5l-1.1,3.7h-3l5.4-16.4h2.9L35.2,284.8 M30.1,278.3l-1.9-6.1
	l-1.9,6.1H30.1 M50.2,278.7l2.7,1c-0.4,1.8-1.1,3.1-2.1,4s-2.2,1.3-3.7,1.3c-1.8,0-3.3-0.7-4.5-2.2s-1.8-3.5-1.8-6.1
	c0-2.7,0.6-4.9,1.8-6.4s2.7-2.3,4.7-2.3c1.7,0,3.1,0.6,4.1,1.8c0.6,0.7,1.1,1.7,1.4,3l-2.8,0.8c-0.2-0.9-0.5-1.5-1-2
	s-1.1-0.7-1.9-0.7c-1,0-1.9,0.4-2.5,1.3s-1,2.3-1,4.2c0,2.1,0.3,3.6,0.9,4.4c0.6,0.9,1.4,1.3,2.4,1.3c0.7,0,1.4-0.3,1.9-0.8
	C49.6,280.8,50,279.9,50.2,278.7 M60.7,284.8v-16.4h9.5v2.8h-6.7v3.9h5.8v2.8h-5.8v7L60.7,284.8"/>
<path id="text8216" class="st4" d="M93.8,284.8V268h3v16.8H93.8 M105.4,284.8V268h2.9l6.1,11.2V268h2.8v16.8h-3l-6-10.9v10.9H105.4
	 M129.3,284.8v-13.9h-4.4V268h11.8v2.8h-4.4v13.9h-3 M144.3,284.8V268h11v2.8h-8v3.7h7.4v2.8h-7.4v4.6h8.3v2.8h-11.3 M163.9,284.8
	V268h6.3c1.6,0,2.7,0.2,3.4,0.5s1.3,0.8,1.7,1.6c0.4,0.8,0.6,1.7,0.6,2.6c0,1.3-0.3,2.3-1,3.1c-0.7,0.8-1.6,1.3-2.9,1.5
	c0.6,0.4,1.2,0.9,1.6,1.4c0.4,0.5,1,1.4,1.7,2.7l1.8,3.3h-3.6l-2.2-3.7c-0.8-1.3-1.3-2.1-1.6-2.5c-0.3-0.3-0.6-0.6-0.9-0.7
	c-0.3-0.1-0.8-0.2-1.5-0.2h-0.6v7h-2.8 M166.9,275.1h2.2c1.4,0,2.3-0.1,2.7-0.2s0.6-0.4,0.8-0.7c0.2-0.3,0.3-0.8,0.3-1.3
	c0-0.6-0.1-1-0.4-1.4c-0.3-0.4-0.6-0.6-1.1-0.7c-0.2,0-1-0.1-2.2-0.1h-2.3V275.1 M184.6,284.8V268h2.9l6.1,11.2V268h2.8v16.8h-3
	l-6-10.9v10.9H184.6 M217.8,284.8h-3.2l-1.3-3.8h-5.9l-1.2,3.8H203l5.8-16.8h3.2L217.8,284.8 M212.3,278.1l-2-6.2l-2,6.2H212.3
	 M227.7,284.8v-13.9h-4.4V268h11.8v2.8h-4.4v13.9h-3 M242.6,284.8V268h3v16.8H242.6 M253.5,276.5c0-1.7,0.2-3.1,0.7-4.3
	c0.3-0.9,0.8-1.6,1.4-2.3c0.6-0.7,1.2-1.2,1.9-1.5c0.9-0.4,2-0.7,3.2-0.7c2.2,0,3.9,0.8,5.2,2.3c1.3,1.5,2,3.7,2,6.4
	c0,2.7-0.6,4.8-1.9,6.4c-1.3,1.5-3,2.3-5.2,2.3s-3.9-0.8-5.2-2.3C254.2,281.3,253.5,279.2,253.5,276.5 M256.6,276.4
	c0,1.9,0.4,3.3,1.2,4.3c0.8,1,1.8,1.5,2.9,1.5c1.2,0,2.2-0.5,2.9-1.5c0.8-1,1.2-2.4,1.2-4.4c0-1.9-0.4-3.4-1.1-4.3s-1.7-1.4-3-1.4
	s-2.2,0.5-3,1.4C257,273,256.6,274.4,256.6,276.4 M276,284.8V268h2.9l6.1,11.2V268h2.8v16.8h-3l-6-10.9v10.9H276 M309.2,284.8H306
	l-1.3-3.8h-5.9l-1.2,3.8h-3.2l5.8-16.8h3.2L309.2,284.8 M303.7,278.1l-2-6.2l-2,6.2H303.7 M315.9,284.8v-16.6h3V282h7.4v2.8
	L315.9,284.8"/>
<path id="text8220" class="st4" d="M349.1,285.2v-16.8h2.8l5.8,11.2v-11.2h2.6v16.8h-2.9l-5.7-10.9v10.9H349.1 M368.7,285.2v-16.8
	h10.4v2.8h-7.6v3.7h7.1v2.8h-7.1v4.6h7.9v2.8h-10.7 M390.5,285.2v-13.9h-4.2v-2.8h11.2v2.8h-4.2v13.9H390.5 M406.8,285.2l-3.4-16.8
	h2.9l2.1,11.5l2.6-11.5h3.4l2.5,11.7l2.2-11.7h2.9l-3.4,16.8h-3l-2.8-12.5l-2.8,12.5H406.8 M428.3,276.9c0-1.7,0.2-3.1,0.6-4.3
	c0.3-0.9,0.8-1.6,1.3-2.3c0.6-0.7,1.2-1.2,1.8-1.5c0.9-0.4,1.9-0.7,3-0.7c2.1,0,3.7,0.8,5,2.3c1.2,1.5,1.9,3.7,1.9,6.4
	c0,2.7-0.6,4.8-1.9,6.4c-1.2,1.5-2.9,2.3-5,2.3s-3.8-0.8-5-2.3C428.9,281.6,428.3,279.5,428.3,276.9 M431.3,276.8
	c0,1.9,0.4,3.3,1.1,4.3s1.7,1.5,2.8,1.5c1.1,0,2.1-0.5,2.8-1.5c0.7-1,1.1-2.4,1.1-4.4c0-1.9-0.4-3.4-1.1-4.3s-1.6-1.4-2.8-1.4
	c-1.2,0-2.1,0.5-2.8,1.4C431.6,273.4,431.3,274.8,431.3,276.8 M449.7,285.2v-16.8h6c1.5,0,2.6,0.2,3.3,0.5c0.7,0.3,1.2,0.8,1.6,1.6
	c0.4,0.8,0.6,1.7,0.6,2.6c0,1.3-0.3,2.3-0.9,3.1c-0.6,0.8-1.6,1.3-2.8,1.5c0.6,0.4,1.1,0.9,1.5,1.4s0.9,1.4,1.6,2.7l1.7,3.3h-3.4
	l-2.1-3.7c-0.7-1.3-1.2-2.1-1.5-2.5c-0.3-0.3-0.6-0.6-0.9-0.7s-0.8-0.2-1.4-0.2h-0.6v7h-2.7 M452.5,275.5h2.1c1.4,0,2.2-0.1,2.6-0.2
	c0.3-0.1,0.6-0.4,0.8-0.7s0.3-0.8,0.3-1.3c0-0.6-0.1-1-0.4-1.4c-0.2-0.4-0.6-0.6-1.1-0.7c-0.2,0-0.9-0.1-2.1-0.1h-2.2L452.5,275.5
	 M469.4,285.2v-16.8h2.8v7.5l5.7-7.5h3.8l-5.3,6.5l5.6,10.2h-3.7l-3.9-7.9l-2.3,2.8v5.1L469.4,285.2"/>
<path class="st4" d="M376.5,60.7c1.8,0,11.4,2.8,11.4,27.4c0,24.4-10.2,24.6-10.4,24.5c-0.5-0.1-10.6-0.2-10.6-24.7
	C366.9,63.5,374.9,60.6,376.5,60.7z"/>
</svg>
