<?xml version="1.0" encoding="utf-8"?>
<!-- Generator: Adobe Illustrator 21.0.0, SVG Export Plug-In . SVG Version: 6.00 Build 0)  -->
<svg version="1.1" id="Capa_1" xmlns="http://www.w3.org/2000/svg" xmlns:xlink="http://www.w3.org/1999/xlink" x="0px" y="0px"
	 viewBox="0 0 439.7 241.6" style="enable-background:new 0 0 439.7 241.6;" xml:space="preserve">
<style type="text/css">
	.st0{fill:#F6B728;}
	.st1{fill:#BE2A2E;}
</style>
<g>
	<g>
		<circle class="st0" cx="123.5" cy="120.8" r="61.9"/>
		<path class="st1" d="M166.5,165.3c-11.1,10.8-26.3,17.4-43,17.4c-34.2,0-61.9-27.7-61.9-61.9c0-34.2,27.7-61.9,61.9-61.9
			c16.8,0,32,6.7,43.1,17.5l2.7-2.8l37.1-38.1C184.6,13.6,154.3,0,120.8,0C54.1,0,0,54.1,0,120.8c0,66.7,54.1,120.8,120.8,120.8
			c33.4,0,63.7-13.6,85.5-35.5l-37-37.9L166.5,165.3z"/>
	</g>
	<g>
		<path d="M279.9,132.2v8.2c-4.4,2.8-8.4,4.3-12.3,4.3c-4.1,0-6.5-1.8-7.3-5.3c-4.6,3.5-9.2,5.3-13.8,5.3c-3.3,0-6-1.2-8.3-3.5
			c-2.3-2.3-3.4-5-3.4-8.1c0-4.1,1.2-7.4,3.5-10c2.4-2.5,9.5-5.8,21.4-9.8c0.3-5.4-2.1-8-7.3-8c-5.6,0-10.7,2.7-15.4,8v-12.1
			c5.5-3.8,11.5-5.8,18.1-5.8c11.8,0,17.7,4.8,17.7,14.4v21.6c0,2.2,0.7,3.3,2.2,3.3C276.1,134.8,277.7,133.9,279.9,132.2z
			 M259.8,132.2v-11.5c-4.5,1.7-7.5,3.3-9.2,4.7c-1.7,1.4-2.5,3.2-2.5,5.3c0,1.4,0.4,2.6,1.3,3.6c0.8,1,1.9,1.5,3,1.5
			C254.9,135.8,257.4,134.6,259.8,132.2z"/>
		<path d="M324.1,128.9v9.4c-5,4.2-11.2,6.2-18.5,6.2c-7.3,0-13.1-2.2-17.5-6.7c-4.4-4.5-6.6-10.4-6.6-17.7c0-7.2,2.1-13.2,6.2-17.8
			c4.1-4.7,9.4-7,15.7-7c6.4,0,11.7,2.5,15.8,7.4c4.1,4.9,6,11.5,5.7,19.8H295c0.3,4.3,1.6,7.5,4,9.8c2.4,2.3,5.6,3.4,9.7,3.4
			C313.6,135.8,318.7,133.5,324.1,128.9z M295.2,114.7h18.1c-0.7-7-3.7-10.4-9-10.4C298.8,104.2,295.8,107.7,295.2,114.7z"/>
		<path d="M368,130.9v10.5c-5.1,2.1-9.8,3.1-14.1,3.1c-7.3,0-13.2-2.2-17.5-6.7c-4.4-4.5-6.6-10.4-6.6-17.7c0-7.2,2.2-13.1,6.6-17.8
			c4.4-4.7,10.1-7,16.9-7c4.4,0,9.1,1,14,3.1v11.1c-3.6-2.1-7.1-3.2-10.6-3.2c-3.9,0-7,1.2-9.4,3.7c-2.3,2.5-3.5,5.8-3.5,10
			c0,4.2,1.1,7.6,3.4,10.2c2.3,2.6,5.3,3.9,9,3.9C359.1,134.2,363,133.1,368,130.9z"/>
		<path d="M374.5,81.1c0-2.3,0.7-4.2,2.1-5.8c1.4-1.6,3.1-2.4,5.1-2.4c2,0,3.7,0.8,5.1,2.4c1.4,1.6,2.1,3.6,2.1,5.8
			c0,2.2-0.7,4.2-2.1,5.8c-1.4,1.6-3.1,2.4-5.1,2.4c-2,0-3.7-0.8-5.1-2.4C375.2,85.3,374.5,83.4,374.5,81.1z M388.4,96.4v47.2h-13.1
			V96.4H388.4z"/>
		<path d="M439.7,73.9v69.7h-13.1v-3.8c-3.3,3.2-7.1,4.8-11.4,4.8c-5.5,0-10.1-2.3-13.8-7c-3.7-4.7-5.5-10.6-5.5-17.6
			c0-7.2,1.9-13.1,5.6-17.7c3.7-4.6,8.5-6.9,14.4-6.9c3.6,0,7.2,1,10.7,3V73.9H439.7z M426.6,130.8V108c-2.3-1.9-4.7-2.8-7.2-2.8
			c-3.2,0-5.8,1.3-7.6,3.9c-1.8,2.6-2.7,6.3-2.7,11.1c0,4.4,0.9,7.9,2.7,10.5c1.8,2.6,4.2,4,7.2,4
			C421.6,134.8,424.1,133.4,426.6,130.8z"/>
	</g>
</g>
</svg>
