<?xml version="1.0" encoding="utf-8"?>
<!-- Generator: Adobe Illustrator 21.0.0, SVG Export Plug-In . SVG Version: 6.00 Build 0)  -->
<svg version="1.1" id="Livello_1" xmlns="http://www.w3.org/2000/svg" xmlns:xlink="http://www.w3.org/1999/xlink" x="0px" y="0px"
	 viewBox="0 0 324.4 105.7" style="enable-background:new 0 0 324.4 105.7;" xml:space="preserve">
<style type="text/css">
	.st0{fill:#E74136;}
</style>
<g>
	<path class="st0" d="M135.1,53.2c-6.1,5.1-14.5,9.4-25.3,9.4c-18.9,0-31.4-13.5-31.4-31.1v-0.2c0-17,12.9-31.3,31.2-31.3
		c10.5,0,17,2.9,23.3,8.2l-6.7,8c-4.7-4-9.3-6.5-17-6.5c-11.1,0-19.6,9.9-19.6,21.4v0.2c0,12.5,8.2,21.6,20.6,21.6
		c5.8,0,10.9-1.8,14.6-4.6V29h10.3V53.2z"/>
</g>
<rect x="160" y="0.9" class="st0" width="10.8" height="61.7"/>
<polygon class="st0" points="274.8,0.9 320.6,0.9 320.6,10.6 285.7,10.6 285.7,26.7 316.6,26.7 316.6,36.4 285.7,36.4 285.7,52.9 
	321,52.9 321,62.6 274.8,62.6 "/>
<g>
	<path class="st0" d="M246.7,21.8v-0.2c0-12.5-9-20.7-23.5-20.7h-24.4v9.9l13.5,18.4h9c1.6,0,3-0.2,4.3-0.6L212,10.8h10.3
		c8.1,0,13.4,3.7,13.4,11.1v0.2c0,4.7-2.8,8.4-7.5,10.1c-1.7,0.6-3.7,0.9-5.9,0.9h-23.5v29.5h10.9V42.9h12.3c0.2,0,0.3,0,0.5,0
		c4.4-0.1,8.5-0.9,12.1-2.4C241.8,37.3,246.7,31,246.7,21.8"/>
	<path class="st0" d="M237.2,44c-3.4,1.6-7.4,2.6-11.8,2.8l11.6,15.8h14.4L237.2,44z"/>
</g>
<polygon class="st0" points="27,0.9 0,62.6 11,62.6 31.8,13.8 42.4,38.3 25.6,38.3 21.6,47.9 46.3,47.9 52.5,62.6 63.9,62.6 
	36.9,0.9 "/>
<g>
	<path class="st0" d="M94.5,93.3c0,5.6-3.1,8.3-8,8.3c-4.8,0-7.9-2.8-7.9-8.2V82.7h3.3v10.6c0,3.5,1.8,5.3,4.7,5.3
		c2.9,0,4.7-1.8,4.7-5.2V82.7h3.3V93.3z"/>
	<path class="st0" d="M103.2,101.3H100v-14h3.2v2.2c0.9-1.3,2.2-2.5,4.4-2.5c3.2,0,5,2.1,5,5.4v8.9h-3.2v-8c0-2.2-1.1-3.4-3-3.4
		c-1.9,0-3.2,1.3-3.2,3.5V101.3z"/>
</g>
<path class="st0" d="M118,87.3h3.2v14H118V87.3z M117.9,82.1h3.5v3.1h-3.5V82.1z"/>
<g>
	<path class="st0" d="M130.6,97c0,1.2,0.6,1.8,1.7,1.8c0.7,0,1.4-0.2,2-0.5v2.6c-0.8,0.5-1.7,0.7-2.9,0.7c-2.4,0-4-1-4-4.1v-7.4
		h-1.8v-2.8h1.8v-3.9h3.2v3.9h3.8v2.8h-3.8V97z"/>
</g>
<path class="st0" d="M139.2,87.3h3.2v14h-3.2V87.3z M139,82.1h3.5v3.1H139V82.1z"/>
<g>
	<path class="st0" d="M164.5,89.8c-2.2,0-4.1,1.8-4.1,4.5c0,2.7,1.9,4.5,4.1,4.5c2.2,0,4-1.7,4-4.5
		C168.5,91.6,166.6,89.8,164.5,89.8 M165.2,101.6c-2.3,0-3.8-1.2-4.8-2.5v6.4h-3.2V87.3h3.2v2.3c1-1.5,2.5-2.6,4.8-2.6
		c3.3,0,6.5,2.6,6.5,7.3S168.6,101.6,165.2,101.6"/>
	<path class="st0" d="M186,93.3c-0.2-2.1-1.4-3.7-3.6-3.7c-2,0-3.3,1.5-3.6,3.7H186z M182.9,99c1.6,0,2.7-0.6,3.8-1.7l1.9,1.7
		c-1.3,1.6-3.2,2.6-5.7,2.6c-4.1,0-7.2-3-7.2-7.3c0-4,2.8-7.3,6.9-7.3c4.5,0,6.7,3.5,6.7,7.6c0,0.3,0,0.6-0.1,0.9h-10.3
		C179.2,97.8,180.8,99,182.9,99"/>
	<path class="st0" d="M197,101.3h-3.2v-14h3.2v3.2c0.9-2.1,2.5-3.5,5-3.4v3.4h-0.2c-2.8,0-4.8,1.8-4.8,5.6V101.3z"/>
	<path class="st0" d="M221.9,89.7c-2.2,0-4,1.5-4,3.9c0,2.3,1.8,3.9,4,3.9c2.2,0,4.1-1.6,4.1-3.9C226,91.3,224.1,89.7,221.9,89.7
		 M221.6,105.7c-2.3,0-4.5-0.6-6.3-1.7l1.2-2.4c1.5,0.9,3.1,1.5,5,1.5c2.9,0,4.4-1.5,4.4-4.3v-1.1c-1.2,1.5-2.6,2.6-4.9,2.6
		c-3.3,0-6.4-2.4-6.4-6.6c0-4.2,3.1-6.6,6.4-6.6c2.4,0,3.8,1.1,4.9,2.4v-2.1h3.2v11.2C229.2,103.4,226.5,105.7,221.6,105.7"/>
</g>
<rect x="234.7" y="81.9" class="st0" width="3.2" height="19.4"/>
<path class="st0" d="M243.7,87.3h3.2v14h-3.2V87.3z M243.5,82.1h3.5v3.1h-3.5V82.1z"/>
<g>
	<path class="st0" d="M270.4,95.4c-0.8-0.3-2-0.6-3.2-0.6c-2,0-3.2,0.8-3.2,2.3v0.1c0,1.3,1.2,2.1,2.7,2.1c2.1,0,3.7-1.2,3.7-3V95.4
		z M270.3,101.3v-1.7c-1,1.1-2.4,2-4.5,2c-2.7,0-5-1.5-5-4.3v-0.1c0-3,2.4-4.5,5.7-4.5c1.7,0,2.8,0.2,3.9,0.6V93c0-1.9-1.2-3-3.5-3
		c-1.6,0-2.7,0.3-4,0.9l-0.9-2.6c1.5-0.7,3.1-1.2,5.3-1.2c4.1,0,6.2,2.2,6.2,5.9v8.3H270.3z"/>
</g>
<rect x="278.8" y="81.9" class="st0" width="3.2" height="19.4"/>
<g>
	<path class="st0" d="M291.5,97c0,1.2,0.6,1.8,1.7,1.8c0.7,0,1.4-0.2,2-0.5v2.6c-0.8,0.5-1.7,0.7-2.9,0.7c-2.4,0-4-1-4-4.1v-7.4
		h-1.8v-2.8h1.8v-3.9h3.2v3.9h3.8v2.8h-3.8V97z"/>
	<path class="st0" d="M303,101.3h-3.2v-14h3.2v3.2c0.9-2.1,2.5-3.5,5-3.4v3.4h-0.2c-2.8,0-4.8,1.8-4.8,5.6V101.3z"/>
</g>
<path class="st0" d="M312.3,87.3h3.2v14h-3.2V87.3z M312.2,82.1h3.5v3.1h-3.5V82.1z"/>
<rect x="320.9" y="97.7" class="st0" width="3.5" height="3.6"/>
</svg>
