<?xml version="1.0" encoding="utf-8"?>
<!-- Generator: Adobe Illustrator 21.0.0, SVG Export Plug-In . SVG Version: 6.00 Build 0)  -->
<svg version="1.1" id="Layer_1" xmlns="http://www.w3.org/2000/svg" xmlns:xlink="http://www.w3.org/1999/xlink" x="0px" y="0px"
	 viewBox="0 0 731.5 731.5" style="enable-background:new 0 0 731.5 731.5;" xml:space="preserve">
<style type="text/css">
	.st0{fill-rule:evenodd;clip-rule:evenodd;fill:#0063B0;}
	.st1{fill-rule:evenodd;clip-rule:evenodd;fill:#FFFFFF;}
	.st2{fill-rule:evenodd;clip-rule:evenodd;fill:#ED1C24;}
	.st3{fill-rule:evenodd;clip-rule:evenodd;fill:#FAE42B;}
</style>
<g>
	<path class="st0" d="M365.8,0c202,0,365.8,163.8,365.8,365.8c0,202-163.8,365.8-365.8,365.8C163.8,731.5,0,567.7,0,365.8
		C0,163.8,163.8,0,365.8,0L365.8,0z"/>
	<path class="st1" d="M365.8,18c192,0,347.8,155.7,347.8,347.8c0,192-155.7,347.7-347.8,347.7S18,557.8,18,365.8
		C18,173.7,173.7,18,365.8,18L365.8,18z"/>
	<path class="st2" d="M365.8,35.2c182.6,0,330.6,148.1,330.6,330.6S548.3,696.4,365.8,696.4S35.2,548.3,35.2,365.8
		S183.2,35.2,365.8,35.2L365.8,35.2z"/>
	<path class="st3" d="M214.1,151.7c0,38.8,12.9,74.6,24.7,102.3c7.6,17.9,38.7,65.6,52.3,74.7c-7.3,10.9-20.2,22.3-28.8,35.2
		c-7.6,11.5-18.4,26.8-23.8,40.2c-11.8,29.5-25.4,62.7-25.4,103.6v10c0,3.4,0.7,3.9,1,7h31v-4c0-43.6,7.3-74.8,16-109
		c3.7-14.6,11.8-31.6,18-44c3.5-7,6.9-13.4,11.2-19.8c1.6-2.5,13.8-17.5,13.8-18.2c0-0.5-21.9-33.1-24.7-38.3
		c-6.1-11.6-14.1-31.5-17.9-45.1c-9.4-33.7-15.4-68.9-15.4-111.6h-32V151.7L214.1,151.7z"/>
	<path class="st3" d="M331.1,158.7c0,31,3,60.1,5,89c0.8,11.4,11.5,82.2,11.4,82.4c-11,40.8-17.4,120.5-17.4,171.6v23h30l-0.2-193
		l1.2-197h-30V158.7L331.1,158.7z"/>
	<path class="st3" d="M254.1,141.7c0,33.1,8.8,78.1,17.4,103.6c5.2,15.5,10,30.4,17,44c7.3,14.5,14.7,26.2,21.7,39.3
		c-14.6,27.5-26,44.8-37.1,77.9c-7.9,23.4-18.9,66.6-18.9,97.1v21h29v-17c0-28.1,4.5-76,10.9-97.1c4.5-14.8,7-27.7,11.8-42.2
		c2.3-7,4.8-13.2,7.4-19.6c1-2.6,9-18.6,9-19c0-0.2-13.6-33.2-15.4-38.6c-4.5-13.6-9.4-28-11.7-43.3c-2.1-14.1-5.6-29.8-7.8-46.2
		c-2.2-16-3.1-34-3.1-51.9v-15h-30V141.7L254.1,141.7z"/>
	<path class="st3" d="M404.1,169.7c0,27-1.5,58.6-5.6,82.4c-2.3,13-3.4,26.9-5.2,38.8c-1.3,8.8-6,32.8-5.8,37.8
		c0,0,6.2,34.9,6.8,36.8c2.3,7.5,3.8,29.2,4.9,39.1c3,26.8,5.9,52.8,5.9,83.1v37h29c0-63-15.6-155.5-37-196
		c20.8-39.4,36-132.6,36-194h-29V169.7L404.1,169.7z"/>
	<path class="st3" d="M330.1,328.7c-21.4,40.4-37,133.4-37,196h29v-44c0-27.1,4.2-52.7,6-77c1.1-14.8,6.7-60.9,10.7-72.3
		c1.6-4.7-7.8-60.2-9.4-70.9c-3.3-21.4-6.2-53.8-6.2-76.8v-49h-29C294.1,195.7,309.4,289.6,330.1,328.7L330.1,328.7z"/>
	<path class="st3" d="M173.1,159.7c0,34.4,17.7,79.9,30.7,102.3c8.1,14,18,26.9,29.1,37.9c6.7,6.7,29.5,26.4,38.2,28.8
		c-1.1,1.5-17,12-20.4,14.6c-7.1,5.2-12.8,10.1-18.8,16.2c-11.4,11.4-22.3,25.8-30.4,40.6c-16.1,29.4-29.3,66.5-29.3,111.7v13h31
		v-16c0-35.7,13-80.1,25-104c11.1-22.1,36.2-62.4,55-75c-4-5.9-11-10.6-15.7-16.3c-5.3-6.3-9.5-11.9-14.5-18.5
		c-9.5-12.4-16.7-26.3-24.1-40.9c-12.9-25.8-24.7-68.1-24.7-106.3v-13h-31V159.7L173.1,159.7z"/>
	<path class="st3" d="M367.3,331.7l-0.2,193h30c0-61.8-3.6-135-15.2-185.8c-3.7-16.1-0.3-24.3,3.1-41.3c2.9-14,3.7-30.9,5.9-45.1
		c2-13.5,2.6-32.7,3.2-46.8c0.6-15.7,2-31.8,2-49v-22l-30.2,0L367.3,331.7L367.3,331.7z"/>
	<path class="st3" d="M443.1,151.7c0,15.4-0.8,36.5-3,50c-1.3,8-2.1,15.5-3.1,23.9c-0.7,6.5-3.9,16.2-4.8,22.2
		c-2.2,14.4-7,29.7-11.5,42.5c-2,5.8-15.6,37.5-15.6,38.4c0,0.3,14.5,33.1,16.4,39.6c4.4,15.1,8.1,27.6,12.2,43.8
		c6.7,26.3,10.4,69.2,10.4,101.6v11h29v-11c0-40-8.6-71.1-17.4-102.6c-9.3-33.3-24.4-55.6-38.6-82.4c7-13.3,14.8-25.6,22-40
		c6.9-13.7,12.3-29.8,17.2-45.8c9.3-30.2,16.8-68.5,16.8-108.2h-30V151.7L443.1,151.7z"/>
	<path class="st3" d="M481.1,137.7c0,40.9-6.3,76.4-15.4,108.6c-4,14.2-11.5,32.5-17.6,44.4c-3.1,6.1-7.5,13.7-11.4,19.6
		c-1.7,2.5-13.6,17.7-13.6,18.4c0,1.7,11.2,15.3,13,18c4.4,6.6,7.8,12.7,11.7,20.3c6.6,13.2,14.7,30.1,18.5,45.5
		c9.1,36.7,15.8,65,15.8,112.2h32v-17c0-42.1-13.4-72.7-25.1-102.9c-5-13-16-28.9-23.7-40.3c-8.8-13.2-21.8-24.8-29.2-35.8
		c15.4-10.3,45.1-58.1,53.7-78.3c14.1-33.2,23.3-62.6,23.3-109.7v-1c0-2.7-0.5-2.8-1-5h-31V137.7L481.1,137.7z"/>
	<path class="st3" d="M523.1,148.7c0,37.6-12,80-24.7,105.3c-7.3,14.6-14.6,28.5-24.1,40.9c-4.9,6.4-9.2,11.7-14.1,17.9
		c-4.8,6.1-11.9,10.5-16.2,16.8c18.8,12.6,43.9,52.9,55,75c12.2,24.3,25,68.5,25,105v15h31v-19c0-41.9-15.7-79.8-30.3-107.7
		c-6.8-12.9-20-29.2-29.9-39.1c-6.9-6.9-37.5-28.5-38.8-30.2c9.2-2.5,32.3-22.8,39.2-29.8c12.7-12.7,19.9-24,29.6-39.4
		c15.1-24.2,29.2-70.5,29.2-109.8v-15h-31V148.7L523.1,148.7z"/>
	<path class="st0" d="M424.1,592.7c0-11.2,17.8-8.7,26-13c0,14.9-2.7,21-18,21C428,600.7,424.1,596.9,424.1,592.7L424.1,592.7z
		 M407.1,566.7h19c0.5-6.2,4.3-9,11-9h5c3.7,0,8,2.8,8,6v2c0,9.8-45-0.8-45,26v4c0,10.7,10.8,18,21,18h5c8.3,0,16.1-8,19.8-9l1.2,7
		h22c-0.4-5.3-5-4-5-21c0-8.7,0-17.3,0-26c0.1-17.4-13.2-22-30-22C420.7,542.7,408.5,549.7,407.1,566.7L407.1,566.7z"/>
	<path class="st0" d="M194.1,592.7c0-11.6,17.3-8.8,26-13c0,14.4-4.2,21-18,21C198.2,600.7,194.1,597.5,194.1,592.7L194.1,592.7z
		 M177.1,563.7v3h19c0.1-5.7,3.4-9,9-9h7c4.3,0,8,3.1,8,7c0,11.6-46,0.1-46,27c0,14.1,8.9,22,23,22h1c13.7,0,16.4-7.2,22.7-9l1.3,7
		h21c-0.5-5.9-2.8-2.9-3.9-8.1c-0.5-2.5-0.1-9.8-0.1-12.9c0-8.7,0-17.3,0-26c0.1-16.4-13.2-22-29-22
		C194.3,542.7,177.1,549,177.1,563.7L177.1,563.7z"/>
	<path class="st0" d="M505.1,553.7v-9h-19v67h20v-37c0-8.4,4-16,12-16h6c5.4,0,9,3.6,9,9v44h20v-46c0-14.3-10.9-23-25-23
		C513.4,542.7,512.7,548.6,505.1,553.7L505.1,553.7z"/>
	<path class="st0" d="M254.1,563.7v4c0,20.9,45,15.6,45,25v1c0,4.9-6.9,6-12,6h-3c-14.5,0-9.9-10-15-10h-18c0,17.4,18.4,24,36,24
		c16.9,0,32-6.9,32-24v-1c0-21.3-46-15.9-46-26c0-4.1,5.5-6,10-6h5c5.4,0,8.9,3.5,9,9h20c-4.1-17.5-12.7-23-34-23
		C269.3,542.7,254.1,550.2,254.1,563.7L254.1,563.7z"/>
	<path class="st0" d="M347.1,571.7c1.5-6.6,5-14,13-14h2c8.7,0,14.4,6.2,15,14H347.1L347.1,571.7z M327.1,578.7v2
		c0,20.1,14.6,33,35,33h1c16.5,0,29.9-8.5,33-22h-18c-3.6,0-3.8,7-12,7h-4c-9.1,0-14.8-6-15-15h50v-3c0-23.8-11.6-38-35-38
		C339.9,542.7,327.1,556.3,327.1,578.7L327.1,578.7z"/>
</g>
</svg>
