<?xml version="1.0" encoding="utf-8"?>
<!-- Generator: Adobe Illustrator 21.0.0, SVG Export Plug-In . SVG Version: 6.00 Build 0)  -->
<svg version="1.1" id="Layer_1" xmlns="http://www.w3.org/2000/svg" xmlns:xlink="http://www.w3.org/1999/xlink" x="0px" y="0px"
	 viewBox="0 0 286.8 129.1" style="enable-background:new 0 0 286.8 129.1;" xml:space="preserve">
<style type="text/css">
	.st0{fill:#232C64;}
	.st1{fill:#EA1C2D;}
</style>
<g>
	<path class="st0" d="M286.8,41.9V21c0-6.9-5-10.2-10.4-10.2c-4.6,0-7.7,1.6-9.9,4.6h-0.1v-3.9h-11.2v30.4h11.6v-16
		c0-4.9,2.6-5.9,4.6-5.9c3.4,0,3.8,2.5,3.8,6v15.9H286.8L286.8,41.9z M217.9,0.1h-11.6v8.1h11.6V0.1L217.9,0.1z M202.8,0.1h-11.6
		v41.8h11.6V0.1L202.8,0.1z M240.5,28.3c-1.4,0.7-3,1.1-4.6,1.5c-2.6,0.6-3.9,1.2-3.9,3.3c0,1.4,1.5,2.8,3.6,2.8
		c2.6,0,4.7-1.6,4.9-4.7V28.3L240.5,28.3z M251.6,35.1c0,2.3,0.1,4.9,1.4,6.8h-11.8c-0.3-0.8-0.5-2-0.4-2.9h-0.1
		c-2.5,2.8-6,3.6-9.8,3.6c-5.8,0-10.7-2.8-10.7-9.2c0-9.6,11.2-9.2,17.1-10.4c1.6-0.3,3.2-0.8,3.2-2.7c0-2-1.9-2.8-3.8-2.8
		c-3.6,0-4.3,1.8-4.3,3.1h-10.8c0.2-4.3,2.3-6.8,5.3-8.2c2.9-1.4,6.8-1.8,10.3-1.8c14.5,0,14.4,6,14.4,11.9V35.1L251.6,35.1z
		 M206.3,11.5h11.6v30.4h-11.6V11.5L206.3,11.5z M176.5,28.3c-1.4,0.7-3,1.1-4.6,1.5c-2.6,0.6-3.9,1.2-3.9,3.3
		c0,1.4,1.5,2.8,3.6,2.8c2.6,0,4.7-1.6,4.9-4.7V28.3L176.5,28.3z M187.6,35.1c0,2.3,0.1,4.9,1.4,6.8h-11.8c-0.3-0.8-0.5-2-0.4-2.9
		h-0.1c-2.5,2.8-6,3.6-9.8,3.6c-5.8,0-10.7-2.8-10.7-9.2c0-9.6,11.2-9.2,17.1-10.4c1.6-0.3,3.2-0.8,3.2-2.7c0-2-1.9-2.8-3.8-2.8
		c-3.6,0-4.3,1.8-4.3,3.1h-10.8c0.2-4.3,2.3-6.8,5.3-8.2c2.9-1.4,6.8-1.8,10.3-1.8c14.5,0,14.4,6,14.4,11.9V35.1L187.6,35.1z
		 M133,11.5h11.1v4.9h0.1c1.9-3.6,4.3-5.6,8.5-5.6c1.2,0,2.3,0.2,3.4,0.5v10.2c-1.2-0.4-2.2-0.8-4.6-0.8c-4.6,0-7,2.7-7,9.2v12H133
		V11.5L133,11.5z M124.6,11.5h6.2v7.1h-6.2v10.6c0,2.8,0.6,4,3.6,4c0.9,0,1.8-0.1,2.6-0.2v8.8c-2.3,0-5,0.4-7.4,0.4
		c-4.9,0-10.3-0.8-10.3-9.1V18.7h-5.1v-7.1h5.1V2.3h11.6V11.5L124.6,11.5z M96.1,20.4c-0.1-1-0.6-1.8-1.3-2.3
		c-0.7-0.6-1.6-0.9-2.6-0.9c-1.6,0-3.5,0.4-3.5,2.3c0,0.9,0.7,1.3,1.3,1.6c1.9,0.8,6.3,1.1,10.2,2.3c3.9,1.2,7.3,3.5,7.3,8.5
		c0,8.4-8.1,10.7-15.4,10.7c-7.1,0-15-2.9-15.1-10.7h11c0.1,1.1,0.5,1.9,1.4,2.7c0.6,0.5,1.7,0.9,3.1,0.9c1.5,0,3.9-0.6,3.9-2.3
		c0-1.8-1-2.3-6.4-3.2c-8.8-1.5-12.4-4.3-12.4-9.5c0-7.7,8.2-9.7,14.3-9.7c6.5,0,14.4,1.8,14.7,9.6H96.1L96.1,20.4z M74.8,41.9H63.6
		V38h-0.1c-2.2,3-5.3,4.6-9.9,4.6c-5.4,0-10.4-3.3-10.4-10.3V11.5h11.6v15.9c0,3.5,0.4,6,3.8,6c2,0,4.6-1,4.6-5.9v-16h11.6V41.9
		L74.8,41.9z M15.4,0h12.6l15.2,41.8H29.8l-1.8-6H14.8l-1.9,6H0L15.4,0L15.4,0z M25.5,26.8L21.7,14h-0.1l-4,12.9H25.5L25.5,26.8z"/>
	<path class="st0" d="M15.6,54.1h12.6l15.2,41.8H30l-1.8-6H15l-1.9,6H0.2L15.6,54.1L15.6,54.1z M25.7,80.9L22,68.1h-0.1l-4,12.9
		H25.7L25.7,80.9z M44.2,54.1h12.9v41.8H44.2V54.1L44.2,54.1z M61.7,54.1h21.1c13.9,0,18.8,10.3,18.8,20.8
		c0,12.8-6.8,20.9-21.3,20.9H61.7V54.1L61.7,54.1z M74.6,85.1h5c8,0,9.2-6.5,9.2-10.4c0-2.6-0.8-9.9-10.1-9.9h-4.1V85.1L74.6,85.1z"
		/>
	<path class="st1" d="M239.4,74.9c-2.2-2.5-8.1-7.2-9.5-7.7c-0.5-0.2-1.8-0.3-3.5-0.5c-0.7-0.1-1.3-0.2-1.8-0.2l-1.2-0.2l-0.3-1.2
		c-0.2-0.8-0.3-2.1-0.5-3.3c-0.2-2.3-0.4-3-0.8-3l0,0c-0.3,0-0.6,0.2-1,0.7c-0.8,0.9-1.8,2.5-1.7,4.2c0,0.6,0.5,1.5,1,2.3l0,0.1
		c0.1,0.3,0.3,0.6,0.5,0.9l0.4,0.8c0,0-1.1,4.3-5.6,4.1c-2.7-0.1-7.2-2.6-12.5-6.8c-8.4-6.6-16.3-12.6-26.7-12.6
		c-9.6,0-18.5,7.5-27.3,17.3c-3.4,3.8-11.5,13.1-21.6,14C116.9,84.6,114,79.1,109,75c-1.5-1.2-2.9-1.3-2.2-0.1
		c1.7,3,4.3,6.6,5.9,8.5c3.2,3.7,9.4,7.2,15.8,7.4c15.2,0.5,28.9-12,29.3-11.3c1.1,2.1,1.8,4.1,4.2,6c2.4,1.9,11.7,4.3,13.1,6.8
		c2.4,4.4,2.3,8.6,3.1,14.9c0.3,2.8,1.3,5.7,2.2,7.9c1,2.4,1.5,3.2,2,3.3c8.4,1.3,21.3,6.1,27.8,8.5c3.5,1.3,6.1,2.2,7,2.2l0.1,0
		h0.1c0.2,0,0.4-0.1,0.4-0.2c0.1-0.2,0.1-0.5,0-0.7c-0.5-1.5-3.7-3.8-5.1-4.5c-5.1-2.3-10.6-4-15-5.3c-3.9-1.2-9.8-3.1-11.1-4.5
		c-1-1.2-2.3-3.2-1.8-7.7c0.3-3.1,0.8-5.8,4.2-11.3c2.3-3.7,3.1-6.8,3.1-9.5c4,1.4,8.5,1.8,8.5,1.8c1,2.5,0.5,8.7-1.4,10.6l-0.3,0.3
		l-0.3,0.1c-0.2,0.1-0.4,0.2-0.6,0.2c-2.8,0.9-2.4,2-2.2,2.6c0.1,0.4,0.8,0.7,1.7,0.7c1.3,0,3.8-0.6,5.1-2.7c0.7-1.1,1.7-3.6,2.6-6
		c0.9-2.4,1.3-3.1,2-4.3l0.5-0.9c0,0,4.5,0.1,9-2.4c2.3-1.3,4.2-3.1,5.8-4.5c1.1-0.9,2-1.8,2.8-2.2c1.1-0.7,2.2-1,3.5-1
		c1.4,0,3,0.4,4.8,0.8l0.1,0c0.9,0.2,1.9,0.5,3,0.7c1.3,0.3,2.7-0.6,3.3-1.9C240,76.2,239.9,75.5,239.4,74.9L239.4,74.9z"/>
</g>
</svg>
