<?xml version="1.0" encoding="utf-8"?>
<!-- Generator: Adobe Illustrator 21.0.0, SVG Export Plug-In . SVG Version: 6.00 Build 0)  -->
<svg version="1.1" id="Layer_1" xmlns="http://www.w3.org/2000/svg" xmlns:xlink="http://www.w3.org/1999/xlink" x="0px" y="0px"
	 viewBox="0 0 225.9 330.9" style="enable-background:new 0 0 225.9 330.9;" xml:space="preserve">
<style type="text/css">
	.st0{fill:#0E2949;}
	.st1{fill:#87ADDB;}
	.st2{fill:#81D4F7;}
</style>
<path class="st0" d="M225.8,106.2C222.5,47.1,173.5,0,113.7,0c-0.3,0-0.5,0-0.8,0s-0.5,0-0.8,0C52.2,0,3.3,47.1,0,106.2
	c-0.1,0,0,8.8,0,8.8c33.4-0.1,52.3,35.1,109.4,36.5c0,0,0,0,0,0.1c0.8,0,1.5,0,2.3,0c0.4,0,0.8,0,1.2,0c0.4,0,0.8,0,1.2,0
	c0.7,0,1.5,0,2.3,0c0,0,0,0,0-0.1c57.1-1.4,76.1-36.6,109.4-36.5C225.8,114.9,225.9,106.2,225.8,106.2 M90.8,10.3
	c-13.5,9.2-23.2,24.6-29.4,39.3c-7-3.9-13.6-8.6-19.4-14C54.9,23.8,73.2,14.4,90.8,10.3 M36.1,41.4c6.7,6.2,14.2,11.6,22.3,16
	c-3.8,11.3-6,23.4-6,35.9c0,4.4,0.3,8.6,0.8,12.9h-45C9.8,81.2,20.1,58.6,36.1,41.4 M31.8,114.8h22.8c1,4.9,2.3,9.6,3.9,14.3
	C50,124.4,41.8,119.2,31.8,114.8 M107.8,141.8c-9.8,0-28.7-3.2-38.3-7.3c-2.7-6.3-4.9-12.8-6.4-19.7h44.7
	C107.8,114.8,107.8,141.8,107.8,141.8z M107.8,106.1H61.6c-0.5-4.2-0.9-8.5-0.9-12.9c0-11.3,1.8-22.1,5.2-32.2
	c12.9,5.9,27,9.4,41.9,10V106.1z M107.8,62.8c-13.9-0.6-27-4-39-9.5c7.5-18,20.8-37.9,39.5-44.6L107.8,62.8z M183.8,35.6
	c-5.9,5.4-12.4,10-19.4,14c-6.2-14.7-12.6-26.9-29.4-39.3C152.6,14.4,170.8,23.8,183.8,35.6 M117.5,8.8c19.5,6.9,32,26.6,39.5,44.6
	c-12,5.5-25.1,8.9-39,9.5L117.5,8.8z M156.3,134.5c-9.6,4.2-28.2,7.7-38.3,7.3v-27h44.7C161.3,121.7,159.1,128.2,156.3,134.5
	 M164.2,106.1H118v-35c14.9-0.6,29-4.2,41.9-10c3.3,10.2,5.2,21,5.2,32.2C165,97.6,164.7,101.9,164.2,106.1 M167.3,129.1
	c1.6-4.6,2.9-9.4,3.9-14.3H194C183.9,119.2,175.8,124.4,167.3,129.1 M172.5,106.1c0.5-4.2,0.8-8.5,0.8-12.9c0-12.6-2.1-24.6-6-35.9
	c8.1-4.4,15.6-9.8,22.3-16c16.1,17.2,26.4,39.8,27.9,64.8H172.5z"/>
<path class="st0" d="M213.7,133.4c3.1,0,5.6-2.5,5.6-5.6s-2.5-5.6-5.6-5.6s-5.6,2.5-5.6,5.6S210.6,133.4,213.7,133.4"/>
<path class="st1" d="M189.2,143.3c3.1,0,5.6-2.5,5.6-5.6s-2.5-5.6-5.6-5.6s-5.6,2.5-5.6,5.6S186.1,143.3,189.2,143.3"/>
<path class="st0" d="M113.1,166.5c3.1,0,5.6-2.5,5.6-5.6s-2.5-5.6-5.6-5.6s-5.6,2.5-5.6,5.6S110,166.5,113.1,166.5"/>
<path class="st1" d="M85.7,164.7c3.1,0,5.6-2.5,5.6-5.6s-2.5-5.6-5.6-5.6s-5.6,2.5-5.6,5.6C80.1,162.2,82.6,164.7,85.7,164.7"/>
<path class="st1" d="M140.1,164.9c3.1,0,5.6-2.5,5.6-5.6s-2.5-5.6-5.6-5.6s-5.6,2.5-5.6,5.6C134.5,162.4,137,164.9,140.1,164.9"/>
<path class="st0" d="M164.1,157.1c3.1,0,5.6-2.5,5.6-5.6s-2.5-5.6-5.6-5.6s-5.6,2.5-5.6,5.6C158.5,154.6,161,157.1,164.1,157.1"/>
<path class="st2" d="M174.4,163.6c0.1,0,0.1,0,0.2-0.1C174.5,163.6,174.5,163.6,174.4,163.6"/>
<path class="st2" d="M176.6,162.4c-0.1,0.1-0.2,0.1-0.3,0.2C176.4,162.5,176.5,162.5,176.6,162.4L176.6,162.4z"/>
<path class="st0" d="M12.5,133.5c-3.1,0-5.6-2.5-5.6-5.6s2.5-5.6,5.6-5.6s5.6,2.5,5.6,5.6S15.6,133.5,12.5,133.5"/>
<path class="st1" d="M37,143.4c-3.1,0-5.6-2.5-5.6-5.6s2.5-5.6,5.6-5.6s5.6,2.5,5.6,5.6C42.6,140.9,40.1,143.4,37,143.4"/>
<path class="st0" d="M62.1,157.1c-3.1,0-5.6-2.5-5.6-5.6s2.5-5.6,5.6-5.6c3.1,0,5.6,2.5,5.6,5.6S65.2,157.1,62.1,157.1"/>
<path class="st2" d="M36.9,145.3h0.4C37.2,145.3,37.1,145.3,36.9,145.3"/>
<path class="st2" d="M36.9,145.3h-1.4C36.1,145.4,36.6,145.4,36.9,145.3"/>
<path class="st2" d="M37.1,158l-0.6-0.9C36.8,157.4,36.9,157.8,37.1,158"/>
<path class="st0" d="M37.3,145.3h-0.4c-0.3,0-0.8,0-1.4,0c-3.3-0.1-10.2-1.3-13.6-9.9H3.3c-0.4,0.6-0.9,1.2-1.3,1.7
	c3.3,15.7,9.7,30.3,18.7,42.9v-18.1h1.9v-6.1c-0.2,0-0.4,0-0.6,0c-5.6,0.1-12.1-8.3-12.1-8.3l3.8-5.6c0.6-0.1,2.3,4.9,8.8,6
	c0.9,0.9,5.6,4,14.8,3.6V145.3z"/>
<path class="st2" d="M86.1,166.7h-1.9C84.8,166.7,85.5,166.7,86.1,166.7"/>
<path class="st2" d="M187,160.2c0.1-0.1,0.2-0.2,0.3-0.3C187.2,160.1,187.1,160.2,187,160.2"/>
<path class="st2" d="M187.9,159.4c-0.1,0.1-0.2,0.2-0.3,0.3C187.7,159.6,187.8,159.5,187.9,159.4"/>
<path class="st2" d="M185.1,161.5c0.1-0.1,0.2-0.1,0.3-0.2C185.3,161.4,185.2,161.4,185.1,161.5"/>
<path class="st2" d="M188.2,159.1c0.2-0.3,0.5-0.6,0.7-0.9C188.7,158.5,188.4,158.8,188.2,159.1"/>
<path class="st2" d="M186.4,160.7c0.1-0.1,0.2-0.1,0.3-0.2C186.6,160.6,186.5,160.6,186.4,160.7"/>
<path class="st2" d="M185.8,161.1c0.1-0.1,0.2-0.1,0.3-0.2C186,161,185.9,161.1,185.8,161.1"/>
<path class="st2" d="M164,159.3v-0.2C163.8,159.2,163.8,159.2,164,159.3"/>
<path class="st2" d="M184.8,161.6c-0.1,0-0.2,0.1-0.3,0.1c0.1,0,0.1,0,0.1,0C184.7,161.6,184.7,161.6,184.8,161.6"/>
<path class="st2" d="M184.8,161.6c0.1,0,0.2-0.1,0.3-0.1C185,161.5,184.9,161.6,184.8,161.6"/>
<path class="st2" d="M186.1,160.9c0.1-0.1,0.2-0.1,0.3-0.2C186.3,160.8,186.2,160.9,186.1,160.9"/>
<path class="st2" d="M185.4,161.3c0.1-0.1,0.2-0.1,0.3-0.2C185.7,161.2,185.5,161.2,185.4,161.3"/>
<path class="st0" d="M189.6,157.2v-0.1c-0.2,0.4-0.5,0.8-0.7,1.1s-0.5,0.6-0.7,0.9c-0.1,0.1-0.2,0.2-0.2,0.3
	c-0.1,0.1-0.2,0.2-0.3,0.3s-0.2,0.2-0.3,0.3s-0.2,0.2-0.3,0.3s-0.2,0.2-0.3,0.2c-0.1,0.1-0.2,0.2-0.3,0.2c-0.1,0.1-0.2,0.1-0.3,0.2
	c-0.1,0.1-0.2,0.1-0.3,0.2c-0.1,0.1-0.2,0.1-0.3,0.2c-0.1,0-0.2,0.1-0.3,0.2c-0.1,0-0.2,0.1-0.3,0.1c0,0-0.1,0-0.1,0.1h-0.1
	c-1.8,0.7-3.6,0.7-5.4,0.4c-0.6-0.1-1.2-0.2-1.8-0.4c-0.2,0.2-0.4,0.5-0.7,0.7l0,0c-0.1,0.1-0.2,0.1-0.3,0.2
	c-0.5,0.3-1.1,0.7-1.7,0.9c-0.1,0-0.1,0.1-0.2,0.1c-0.3,0.1-0.7,0.2-1,0.4c-3.6,1.3-7.8,1.5-9.3,1.7v-0.2l-0.1-6.2
	c-0.2,0-0.2-0.1,0-0.2H155c-3.1,4.4-7.9,8.2-14.6,7.8v6.7c1.2,0.3,10.8,0.7,14-3.8c6.7,6.5,13.1,5,13.6,5.1v6.5
	c-0.8,0.2-8.1-0.1-13.6-2.7v6.7v0.1h1.9v33.6c5.6-2.3,11.1-4.9,16.2-8v-25.7h1.4V168c2.1,0.7,4,0.9,5.6,1c2.1,0.1,3.8-0.3,5.3-0.9
	c3.2-1.2,4.8-3.2,5.3-3.3V163v-5.9C189.7,157.1,189.7,157.2,189.6,157.2"/>
<path class="st2" d="M188.2,159.1c-0.1,0.1-0.2,0.2-0.2,0.3C188,159.3,188.1,159.2,188.2,159.1"/>
<path class="st2" d="M184.5,161.7c-1.7,0.6-3.6,0.7-5.3,0.4c-0.6-0.1-1.2-0.2-1.8-0.4v0.1c0,0-0.1,0-0.2,0c0.6,0.2,1.2,0.3,1.8,0.4
	C180.9,162.4,182.7,162.4,184.5,161.7"/>
<path class="st2" d="M186.7,160.5c0.1-0.1,0.2-0.2,0.3-0.2C186.9,160.3,186.8,160.4,186.7,160.5"/>
<path class="st2" d="M187.3,160c0.1-0.1,0.2-0.2,0.3-0.3C187.5,159.8,187.4,159.9,187.3,160"/>
<path class="st1" d="M36.6,164.9V163v-5.9l0.6,0.9c0,0.1,0.1,0.1,0.1,0.2c0.2,0.3,0.5,0.7,0.8,1c0.1,0.1,0.2,0.2,0.2,0.3
	c0.1,0.1,0.2,0.2,0.3,0.3s0.2,0.2,0.3,0.3s0.2,0.2,0.3,0.3s0.2,0.1,0.3,0.2c0.1,0.1,0.2,0.2,0.3,0.2c0.1,0.1,0.2,0.1,0.3,0.2
	c0.1,0.1,0.2,0.1,0.3,0.2c0.1,0.1,0.2,0.1,0.3,0.2c0.1,0.1,0.2,0.1,0.3,0.2c0.1,0,0.2,0.1,0.3,0.1s0.2,0.1,0.3,0.1s0.2,0.1,0.3,0.1
	s0.2,0.1,0.3,0.1s0.2,0.1,0.3,0.1s0.2,0,0.3,0.1c0.1,0,0.2,0,0.3,0.1c0.1,0,0.2,0,0.3,0s0.2,0,0.3,0s0.2,0,0.3,0s0.2,0,0.4,0
	c0.1,0,0.2,0,0.3,0s0.2,0,0.4,0c0.1,0,0.2,0,0.3,0s0.3,0,0.4,0c0.1,0,0.2,0,0.2,0c0.2,0,0.4,0,0.7-0.1c0.6-0.1,1.3-0.2,1.8-0.4
	c0.2,0.2,0.4,0.5,0.7,0.7l0,0c0.1,0.1,0.2,0.1,0.3,0.2c0.5,0.3,1.1,0.7,1.7,0.9c0.1,0,0.1,0.1,0.2,0.1c0.3,0.1,0.7,0.2,1,0.4
	c3.6,1.3,7.8,1.5,9.3,1.7v-0.2l0.1-6.2v-0.2c-6.3-0.7-13.2-1.1-15.8-13.8h-9.1l0.1,6.2c-9.2,0.5-13.9-2.6-14.8-3.6
	c-6.5-1.1-8.3-6.1-8.8-6l-3.8,5.6c0,0,6.4,8.4,12.1,8.3c0.2,0,0.4,0,0.6,0c1.4-0.1,3.3-0.6,5-1.4v17.4h1.4v16.9
	c4.9,5.5,10.4,10.5,16.3,15v-31.9h1.9v-2.7C40.3,169.3,37.3,165.1,36.6,164.9"/>
<path class="st2" d="M37.1,158l-0.1-0.1C37.1,158,37.1,158,37.1,158"/>
<path class="st2" d="M37.1,157.9c-0.2-0.3-0.3-0.5-0.5-0.8C36.7,157.4,36.9,157.7,37.1,157.9"/>
<path class="st2" d="M46.2,162.3c-0.1,0-0.3,0-0.4,0C45.9,162.3,46,162.3,46.2,162.3"/>
<path class="st2" d="M45.5,162.3c-0.1,0-0.3,0-0.4,0C45.2,162.3,45.3,162.3,45.5,162.3"/>
<path class="st2" d="M38.9,160c-0.1-0.1-0.2-0.2-0.3-0.3C38.7,159.8,38.8,159.9,38.9,160"/>
<path class="st2" d="M42.1,161.9c-0.1,0-0.2-0.1-0.3-0.1C41.8,161.8,42,161.9,42.1,161.9"/>
<path class="st2" d="M44.8,162.3c-0.1,0-0.2,0-0.4,0C44.5,162.3,44.6,162.3,44.8,162.3"/>
<path class="st2" d="M40.1,161c-0.1-0.1-0.2-0.1-0.3-0.2C39.9,160.8,40,160.9,40.1,161"/>
<path class="st2" d="M38.3,159.4c-0.1-0.1-0.1-0.2-0.2-0.3C38.1,159.2,38.2,159.3,38.3,159.4"/>
<path class="st2" d="M47,162.2c-0.2,0-0.4,0.1-0.7,0.1C46.6,162.2,46.8,162.2,47,162.2"/>
<path class="st2" d="M72.6,169.2L72.6,169.2L72.6,169.2z"/>
<path class="st2" d="M86.1,166.7c-0.3,0-0.6,0-1,0C85.5,166.7,85.8,166.7,86.1,166.7"/>
<path class="st1" d="M154,169.9c-4,4.5-12.8,4-14,3.8V167h-9.1c-1.1,2.1-2.5,4.3-4.1,6.3c-1.3,1.6-2.7,3.1-4.2,4.4c0,0,0,0-0.1,0
	c-7.9,4.7-17.2,3.9-23.5-4.5c-1.4-1.8-2.8-3.9-4.2-6.4H86v7c-1.1,0.3-10.4,0-13.7-4.3l0,0c-0.6,0.4-1.2,0.7-1.8,1c0,0-0.1,0-0.1,0.1
	c-0.2,0.1-0.3,0.2-0.5,0.3c-0.1,0-0.1,0.1-0.2,0.1c-0.2,0.1-0.4,0.2-0.5,0.2c0,0-0.1,0-0.1,0.1c-0.8,0.4-1.6,0.7-2.3,1
	c0,0,0,0-0.1,0c-0.2,0.1-0.4,0.1-0.5,0.2h-0.1c-0.2,0.1-0.3,0.1-0.5,0.2h-0.1c-0.7,0.3-1.5,0.5-2.1,0.7l0,0c-0.2,0-0.3,0.1-0.5,0.1
	c0,0,0,0-0.1,0s-0.3,0.1-0.4,0.1h-0.1c-0.1,0-0.3,0.1-0.4,0.1c-0.6,0.2-1.2,0.3-1.6,0.4c0,0,0,0-0.1,0s-0.2,0-0.3,0.1c0,0,0,0-0.1,0
	s-0.2,0-0.3,0.1l0,0c-0.6,0.1-1,0.2-1.3,0.3l0,0h-0.1l0,0H58l0.4,7c1.1,0.3,7.9-0.2,13.8-2.7c1.2-0.5,2.3-1.1,3.4-1.8v16.1h1.9v28.1
	c5.3,1.8,10.6,3.3,16.2,4.3v-32.4h1.4V182v-6.2c1.3,1.8,2.6,3.3,3.9,4.7c1.3,1.3,2.6,2.5,4,3.2c6.7,3.6,12.9,3.5,19.5,0.5
	c1.7-0.8,3.1-2.1,4.5-3.5c1.4-1.4,2.6-2.9,3.6-4.7v6v11.4h1.4v32.4c5.6-0.9,11-2.2,16.2-3.9v-28.5h1.9v-17.3c1,1.1,2.4,2,3.9,2.7
	c5.5,2.7,12.8,2.9,13.7,2.7V175C167.1,174.8,160.7,176.4,154,169.9"/>
<path class="st2" d="M85.2,166.7c-0.3,0-0.6,0-0.9,0C84.5,166.7,84.8,166.7,85.2,166.7"/>
<path class="st0" d="M85.2,166.7c-0.3,0-0.6,0-0.9,0c-5.7-0.3-9.9-3.6-12.7-7.6h-9.3c0.2,0.1,0.1,0.2,0,0.2l-0.1,6.2v0.2
	c-1.5-0.2-5.7-0.4-9.3-1.7c-0.4-0.1-0.7-0.2-1-0.4c-0.1,0-0.1-0.1-0.2-0.1c-0.6-0.3-1.1-0.6-1.7-0.9c-0.1-0.1-0.2-0.1-0.3-0.2l0,0
	c-0.3-0.2-0.5-0.4-0.7-0.7c-0.6,0.2-1.2,0.3-1.8,0.4c-0.2,0-0.4,0.1-0.7,0.1c-0.1,0-0.2,0-0.2,0c-0.1,0-0.3,0-0.4,0
	c-0.1,0-0.2,0-0.3,0s-0.3,0-0.4,0c-0.1,0-0.2,0-0.3,0s-0.2,0-0.4,0c-0.1,0-0.2,0-0.3,0s-0.2,0-0.3,0s-0.2,0-0.3,0s-0.2,0-0.3-0.1
	c-0.1,0-0.2,0-0.3-0.1c-0.1,0-0.2-0.1-0.3-0.1s-0.2-0.1-0.3-0.1s-0.2-0.1-0.3-0.1c-0.1-0.1-0.2-0.1-0.3-0.1s-0.2-0.1-0.3-0.1
	s-0.2-0.1-0.3-0.2c-0.1-0.1-0.2-0.1-0.3-0.2c-0.1-0.1-0.2-0.1-0.3-0.2c-0.1-0.1-0.2-0.1-0.3-0.2c-0.1-0.1-0.2-0.2-0.3-0.2
	c-0.1-0.1-0.2-0.2-0.3-0.2c-0.1-0.1-0.2-0.2-0.3-0.3s-0.2-0.2-0.3-0.3s-0.2-0.2-0.3-0.3s-0.2-0.2-0.2-0.3c-0.3-0.3-0.5-0.6-0.8-1
	c0,0-0.1-0.1-0.1-0.2l-0.1-0.1c-0.2-0.2-0.3-0.5-0.5-0.8v5.9v1.9c0.8,0.2,3.7,4.3,10.5,4.2c1.6,0,3.5-0.3,5.6-1v17.4h1.4v24.7
	c5.1,3.2,10.6,6,16.2,8.3v-32.9h1.9v-0.1l0.1-6.7c-5.8,2.5-12.7,2.9-13.8,2.7l-0.4-7c0,0,0,0,0.1,0l0,0h0.1l0,0
	c0.3-0.1,0.7-0.1,1.3-0.3l0,0c0.1,0,0.2,0,0.3-0.1h0.1c0.1,0,0.2,0,0.3-0.1c0,0,0,0,0.1,0c0.5-0.1,1-0.2,1.6-0.4
	c0.1,0,0.3-0.1,0.4-0.1H63c0.1,0,0.3-0.1,0.4-0.1h0.1c0.2,0,0.3-0.1,0.5-0.1l0,0c0.7-0.2,1.4-0.4,2.1-0.7h0.1
	c0.2-0.1,0.3-0.1,0.5-0.2h0.1c0.2-0.1,0.4-0.1,0.5-0.2c0,0,0,0,0.1,0c0.8-0.3,1.5-0.6,2.3-1c0,0,0.1,0,0.1-0.1
	c0.2-0.1,0.3-0.2,0.5-0.2c0.1,0,0.1-0.1,0.2-0.1c0.2-0.1,0.3-0.2,0.5-0.3c0,0,0.1,0,0.1-0.1c0.6-0.3,1.2-0.6,1.8-1l0,0l0,0
	c3.3,4.3,12.5,4.6,13.7,4.3v-7C85.8,166.7,85.5,166.7,85.2,166.7 M72.6,169.2L72.6,169.2L72.6,169.2L72.6,169.2L72.6,169.2
	L72.6,169.2z"/>
<path class="st2" d="M66.3,172.2C66.3,172.3,66.3,172.3,66.3,172.2C66.3,172.3,66.3,172.3,66.3,172.2"/>
<path class="st2" d="M66.9,172L66.9,172L66.9,172"/>
<path class="st2" d="M70.7,170.3c0,0-0.1,0-0.1,0.1C70.6,170.4,70.6,170.3,70.7,170.3"/>
<path class="st2" d="M70,170.6c-0.1,0-0.1,0-0.2,0.1C69.9,170.7,70,170.7,70,170.6"/>
<path class="st2" d="M69.4,171c0,0-0.1,0-0.1,0.1C69.3,171,69.3,171,69.4,171"/>
<path class="st2" d="M60,174.1C60,174.1,59.9,174.2,60,174.1C59.9,174.2,60,174.1,60,174.1"/>
<path class="st2" d="M58.3,174.5L58.3,174.5L58.3,174.5"/>
<path class="st2" d="M58.2,174.5L58.2,174.5L58.2,174.5"/>
<path class="st2" d="M59.6,174.2L59.6,174.2L59.6,174.2z"/>
<path class="st2" d="M60.4,174.1C60.3,174.1,60.3,174.1,60.4,174.1C60.3,174.1,60.3,174.1,60.4,174.1"/>
<path class="st2" d="M62.5,173.5C62.5,173.5,62.4,173.5,62.5,173.5C62.4,173.5,62.5,173.5,62.5,173.5"/>
<path class="st2" d="M63,173.3C63,173.4,63,173.4,63,173.3C63,173.4,63,173.4,63,173.3"/>
<path class="st2" d="M63.5,173.2L63.5,173.2L63.5,173.2z"/>
<path class="st2" d="M65.7,172.5L65.7,172.5L65.7,172.5"/>
<path class="st2" d="M41.4,161.6c-0.1,0-0.2-0.1-0.3-0.1C41.2,161.6,41.3,161.6,41.4,161.6"/>
<path class="st2" d="M42.7,162.1c-0.1,0-0.2-0.1-0.3-0.1C42.5,162,42.6,162.1,42.7,162.1"/>
<path class="st2" d="M39.5,160.5c-0.1-0.1-0.2-0.2-0.3-0.2C39.3,160.4,39.4,160.5,39.5,160.5"/>
<path class="st2" d="M37.1,158c0,0.1,0.1,0.1,0.1,0.2C37.2,158.1,37.2,158.1,37.1,158"/>
<path class="st2" d="M43.4,162.2c-0.1,0-0.2,0-0.3-0.1C43.2,162.2,43.3,162.2,43.4,162.2"/>
<path class="st2" d="M44.1,162.3c-0.1,0-0.2,0-0.3,0C43.9,162.3,44,162.3,44.1,162.3"/>
<path class="st2" d="M40.8,161.3c-0.1-0.1-0.2-0.1-0.3-0.2C40.5,161.2,40.6,161.3,40.8,161.3"/>
<path class="st1" d="M213.6,150.5c1.6-1.6,2.7-3,2.7-3l-3.8-5.6c-0.6,0.1-2.4,4.9-8.8,6c-0.9,0.9-5.6,4.1-14.8,3.6l0.1-6.2h0.4
	c0.3,0,0.8,0,1.4,0c0.1,0,0.3,0,0.4,0h-11.4c-2.7,12.7-9.5,13-15.8,13.8v0.2l0.1,6.2v0.2c1.5-0.2,5.7-0.4,9.3-1.7
	c0.3-0.1,0.7-0.2,1-0.4c0.1,0,0.1,0,0.2-0.1c0.6-0.3,1.1-0.6,1.7-0.9c0.1-0.1,0.2-0.1,0.3-0.2l0,0c0.3-0.2,0.4-0.5,0.7-0.7
	c0.1,0,0.1,0,0.2,0v-0.1c0.6,0.2,1.2,0.3,1.8,0.4c1.7,0.3,3.5,0.3,5.3-0.4c0.1,0,0.2-0.1,0.3-0.1s0.2-0.1,0.3-0.1
	c0.1-0.1,0.2-0.1,0.3-0.2c0.1-0.1,0.2-0.1,0.3-0.2c0.1-0.1,0.2-0.1,0.3-0.2c0.1-0.1,0.2-0.1,0.3-0.2c0.1-0.1,0.2-0.2,0.3-0.2
	c0.1-0.1,0.2-0.2,0.3-0.2c0.1-0.1,0.2-0.2,0.3-0.3s0.2-0.2,0.3-0.3s0.2-0.2,0.3-0.3s0.2-0.2,0.2-0.3c0.2-0.3,0.5-0.6,0.7-0.9
	c0.3-0.3,0.5-0.7,0.7-1.1v0.1c0-0.1,0.1-0.1,0.1-0.2v5.9v1.9c-0.5,0.1-2.1,2.2-5.3,3.3c-1.4,0.5-3.2,0.9-5.3,0.9v2.7h1.9L181,205
	c5.9-4.3,11.2-9.2,16.2-14.6v-18.8h1.4v-17.4c1.6,0.8,3.4,1.3,4.9,1.4c0.2,0,0.4,0,0.6,0h0.1C207.5,155.9,211.2,152.9,213.6,150.5"
	/>
<path class="st0" d="M224.2,137.1c-0.5-0.5-0.9-1-1.3-1.7h-18.6c-3.2,8.3-9.7,9.7-13.1,9.9c-0.1,0-0.3,0-0.4,0c-0.6,0-1.1,0-1.4,0
	H189l-0.1,6.2c9.2,0.5,13.8-2.7,14.8-3.6c6.4-1.1,8.2-5.8,8.8-6h0.1l3.8,5.6c0,0-6.4,8.4-12.1,8.3h-0.1l0,0h-0.1c-0.1,0-0.3,0-0.4,0
	v6.1h1.9V180C214.5,167.4,221,152.8,224.2,137.1"/>
<path class="st2" d="M204.2,155.8h-0.1C204.1,155.8,204.1,155.8,204.2,155.8L204.2,155.8z"/>
<path class="st0" d="M104.9,226.9c2.9,0.2,5.9,0.4,8.9,0.4c2.5,0,4.9-0.2,7.3-0.3v-32h1.4v-10.8c-6.8,2.1-12.1,3-19.5-0.5V195h1.9
	C104.9,195,104.9,226.9,104.9,226.9z"/>
<path class="st0" d="M122.4,168.5h-18.6c-4,7.4-17.6,9.1-18.2,9.2v5.4c0.7,0.2,5.4-0.1,9.6-1.3l0,0c0.1,0,0.2-0.1,0.3-0.1
	c0.1,0,0.3-0.1,0.4-0.1l0,0c0.9-0.3,1.8-0.6,2.6-1l0,0c0.1,0,0.2-0.1,0.3-0.2c0.1,0,0.2-0.1,0.2-0.1l0,0c1.3-0.7,3.1-1.9,4.3-2.8
	c6.6,4.7,14.4,3.3,19.3,0.1l0,0c1.3,1.1,3.3,2.3,4.5,3l0,0c0.9,0.4,1.9,0.8,2.9,1v0.1c0.1,0,0.3,0.1,0.4,0.1c0.1,0,0.2,0.1,0.3,0.1
	l0,0c4.3,1.1,8.9,1.4,9.6,1.2v-5.4C139.8,177.5,126.6,176.4,122.4,168.5"/>
<path class="st0" d="M39.9,262.2c-0.8-3.5-3.9-5.4-7.3-5.4c-7.4,0-9.5,6.6-9.7,12.9c0,6.5,1.3,14.2,9.5,14.2c4.6,0,7.2-2.4,9.4-4.3
	l1.5,0.8c-0.6,1.9-1.1,3.9-1.6,5.9c-2.9,1-6.6,2.4-11.6,2.4c-10.6,0-19.1-6.8-19.1-17.9c0-11.9,9-18.5,20.3-18.5c4,0,8.2,1,11.9,2.4
	c-0.2,1.1-0.5,2.2-0.8,3.3c-0.3,1.4-0.5,2.7-0.7,4.1h-1.8V262.2z"/>
<path class="st0" d="M51,288.3c-1.1-0.3-2.2-0.5-3.4-0.5c-1.1,0-2.2,0.2-3.3,0.5l3.1-6.6c1.8-3.9,4.6-10.7,7.2-17.2
	c1.5-3.7,4-10.3,4.6-12c1.1,0.3,2.3,0.5,3.5,0.5s2.4-0.2,3.5-0.4c1.5,4.7,4.7,13.4,7.1,19.5c2.8,7,4.1,10.2,6.8,16.2
	c-1.9-0.4-4.5-0.5-6.5-0.5c-2.1,0-4.3,0.2-6.4,0.5c-0.6-2.5-1.3-4.8-2.2-7.1c-2.2,0-4.4,0-6.6,0c-1.7,0-3.5,0-5.2,0
	C52.4,283.5,51.7,285.9,51,288.3 M59.2,265.1l-4.5,11.6c1.5,0,2.9,0,4.4,0c1.4,0,2.9,0,4.4,0L59.2,265.1z"/>
<path class="st0" d="M86.2,278.5c0.6,3.4,4,5.6,7.8,5.6c2.3,0,5-0.9,5-3.6c0-2.4-1.9-3.5-8.5-6.3c-4.4-1.8-7.5-5.3-7.5-10.4
	c0-7.9,5.9-11.7,13.2-11.7c3.6,0,7.1,0.9,10.5,2.1c-1,2.2-1.7,5.1-1.9,7.4h-2c-0.6-2.9-2.9-5.3-6.4-5.3c-2.1,0-5.2,1-5.2,3.6
	c0,2.5,2.8,3.4,6.4,5l3.8,1.7c4.4,1.9,6.2,5.1,6.2,9.9c0,8.3-5.9,12.2-13.7,12.2c-4.3,0-6.9-0.7-10.9-2.1c0.6-2.8,0.9-4.4,1.2-8.1
	L86.2,278.5L86.2,278.5z"/>
<path class="st0" d="M140.5,262.2c-0.8-3.5-3.9-5.4-7.3-5.4c-7.4,0-9.5,6.6-9.7,12.9c0,6.5,1.3,14.2,9.5,14.2c4.6,0,7.2-2.4,9.4-4.3
	l1.5,0.8c-0.6,1.9-1.1,3.9-1.6,5.9c-2.9,1-6.6,2.4-11.6,2.4c-10.6,0-19.1-6.8-19.1-17.9c0-11.9,9-18.5,20.3-18.5c4,0,8.2,1,11.9,2.4
	c-0.2,1.1-0.5,2.2-0.8,3.3c-0.3,1.4-0.5,2.7-0.7,4.1h-1.8V262.2z"/>
<path class="st0" d="M186.4,270.3c0,12.4-9,18.4-20.5,18.4c-10.9,0-19.9-6.7-19.9-18.2c0-11.9,8.7-18.2,20.1-18.2
	C177.5,252.3,186.4,258.6,186.4,270.3 M174.5,270.4c0-5.7-1-14-8.4-14c-6.9,0-8.2,7.9-8.2,13.3c0,6.2,0.6,14.9,8.6,14.9
	C173.7,284.6,174.5,275.8,174.5,270.4"/>
<path class="st0" d="M194,278.5c0.6,3.4,4,5.6,7.8,5.6c2.3,0,5-0.9,5-3.6c0-2.4-1.9-3.5-8.5-6.3c-4.4-1.8-7.5-5.3-7.5-10.4
	c0-7.9,5.9-11.7,13.2-11.7c3.6,0,7.1,0.9,10.5,2.1c-1,2.2-1.7,5.1-1.9,7.4h-2c-0.5-2.9-2.9-5.3-6.4-5.3c-2.1,0-5.2,1-5.2,3.6
	c0,2.5,2.8,3.4,6.4,5l3.8,1.7c4.4,1.9,6.2,5.1,6.2,9.9c0,8.3-5.9,12.2-13.7,12.2c-4.3,0-6.9-0.7-10.9-2.1c0.6-2.8,0.9-4.4,1.2-8.1
	L194,278.5L194,278.5z"/>
<path class="st0" d="M26.6,313.9c1.8,0.3,7.6,1.3,7.6,7.7c0,5.4-4.6,8.7-11,8.7c-1.2,0-4.7-0.3-6.6-0.3c-1.4,0-2.9,0.1-4.4,0.3
	c0.3-3.7,0.4-8.5,0.4-12.3c0-4.3,0-8.5-0.1-12.8c-0.1-2.8-0.3-4.3-0.4-5.6c1,0.2,2.4,0.3,3.8,0.3c2.2,0,5.1-0.3,8-0.3
	c5.3,0,9.6,2.5,9.6,7.3C33.5,312.1,28.6,313.3,26.6,313.9L26.6,313.9L26.6,313.9z M19.8,312.7c0.3,0,0.6,0,0.9,0
	c2.6,0,5.2-1.4,5.2-5.3c0-3.5-1.6-5-5-5c-0.3,0-0.5,0-1,0c0,0.5,0,3.1,0,3.7v6.6H19.8z M19.8,315.6c0,7.2,0,8.7,0.1,11.6
	c0.4,0,0.8,0.1,1.3,0.1c3.6,0,5.1-2.7,5.1-6C26.3,316.6,23.9,315.6,19.8,315.6"/>
<path class="st0" d="M39.7,306.6c0-2.8-0.2-5.3-0.4-7c1.4,0.2,2.8,0.3,4.3,0.3c1.4,0,2.7-0.1,4-0.3c-0.3,3.2-0.5,7-0.5,8.8v14.4
	c0,1.3,0,2.6,0.1,3.9c2.9,0,7.7,0,10.4-0.6c-0.2,1.1-0.2,1.6-0.2,2.1c0,0.7,0.1,1.5,0.2,2.1c-2.2-0.2-5.1-0.4-7.6-0.4
	c-3.1,0-6.7,0.2-10.7,0.4c0.3-2.3,0.4-4.9,0.4-8.1V306.6z"/>
<path class="st0" d="M71.9,299.2c0.8,0.2,1.6,0.3,2.3,0.3c0.7,0,1.5-0.1,2.2-0.3c4.2,12.2,9.3,24.6,12,31.1
	c-1.4-0.2-2.8-0.3-4.2-0.3c-1.5,0-3.3,0-4.7,0.3c-1.3-4.6-2.3-7.4-2.8-8.7c-1.5,0-3-0.1-4.6-0.1s-3.4,0-5.1,0.1
	c-0.8,2.2-1.9,5.4-2.7,8.7c-0.8-0.1-1.5-0.3-2.4-0.3c-0.4,0-1.5,0-2.5,0.3C62.1,324.6,68.9,307.9,71.9,299.2 M72,308.5l-3.8,9.7
	c1.2,0.1,2.4,0.1,3.6,0.1s2.5-0.1,3.7-0.1L72,308.5z"/>
<path class="st0" d="M115.4,309.9c0-0.8-0.2-8.1-0.6-10.4c0.7,0.2,1.8,0.3,2.5,0.3c0.8,0,1.6-0.1,2.4-0.3
	c-0.6,3.8-0.8,16.3-0.8,21.2c0,3.2,0,6.4,0.4,9.6c-0.9-0.1-1.7-0.3-2.6-0.3s-1.8,0.1-2.6,0.3c-1.4-1.9-1.9-2.6-6.7-8.1l-11.3-12.8
	v11.1c0,2,0.4,8,0.5,9.8c-0.8-0.1-1.6-0.3-2.4-0.3c-0.9,0-1.5,0.1-2.3,0.3c0.7-8.1,0.7-10.1,0.7-17.4c0-8,0-10.2-0.3-13.3
	c1,0.1,2,0.3,3,0.3c0.9,0,1.8-0.1,2.6-0.3c4.3,5.7,13.9,16.3,17.6,20.4L115.4,309.9L115.4,309.9z"/>
<path class="st0" d="M151.1,306.4c-1.1-2.7-4.3-4.3-7.8-4.3c-6.8,0-10.1,5.8-10.1,12.8c0,7.4,3.7,12.7,10.6,12.7
	c3.5,0,6-1.5,8.3-3.5l0.8,0.4c-0.4,1-0.8,2.3-1.3,4.2c-3,1.4-6.2,2-9.5,2c-10.9,0-17-6.9-17-15.7c0-9.3,6.7-16,17.5-16
	c3.7,0,7.4,0.7,10.7,2.3c-0.8,1.7-1.2,4.2-1.3,5.1H151.1z"/>
<path class="st0" d="M172.6,330.9c-9.9,0-17-5.3-17-15.7c0-9.3,6.1-16.2,17.3-16.2c9.5,0,17.1,5.1,17.1,15.4
	C190.1,325.7,181.6,330.9,172.6,330.9 M173,302.1c-6.7,0-9.3,6.3-9.3,13.3c0,8.8,4.3,12.4,8.9,12.4c5.6,0,9.4-4.9,9.4-13.3
	C182,307.1,178.8,302.1,173,302.1"/>
<path class="st0" d="M211.6,306.6c-0.8-3.4-3.5-4.3-5.8-4.3c-0.9,0-5,0.1-5,3.9c0,2.8,2,3.6,8.5,6.2c1.3,0.5,3.1,1.6,4.3,3.4
	c1,1.5,1.3,3.3,1.3,5c0,5.8-4.1,10.1-11.8,10.1c-4.5,0-7-1.4-8.5-2.2c0.5-1.8,0.9-4.6,0.9-6.1h1.1c0.7,4,4.1,5.2,6.7,5.2
	c3.7,0,5.3-2.2,5.3-4.4c0-2.5-1.5-3.2-7-5.5c-4-1.8-6.8-4.1-6.8-8.9c0-6.1,4.1-9.6,10.8-9.6c4.2,0,6.5,1.2,8.2,2.1
	c-0.8,1.5-1.4,4.1-1.5,5.2h-0.7V306.6z"/>
</svg>
