<svg class="logo" xmlns="http://www.w3.org/2000/svg" width="137" height="55.06" viewBox="0 0 137 55.06">
  <title>Cesvi Onlus – Cooperazione e Sviluppo</title>
  <g class="logo__symbol">
    <path d="M211.72,391.1a3.21,3.21,0,0,1-2.91,0l-10.68-6.17-10.68-6.16a3.22,3.22,0,0,1-1.46-2.52V351.59a3.22,3.22,0,0,1,1.46-2.52l10.68-6.16,10.68-6.17a3.21,3.21,0,0,1,2.91,0l10.68,6.17,10.68,6.16a3.22,3.22,0,0,1,1.46,2.52v24.66a3.22,3.22,0,0,1-1.46,2.52l-10.68,6.16-10.68,6.17h0Z" transform="translate(-186 -336.39)" fill="#f0702b"></path>
    <path d="M212.61,351a49.73,49.73,0,0,1-.14,6.8c1.07-.32,2.56-0.6,3.18-1.45,1-1.43,3.84-2.8,5.52-3.34,2.06-2.77,2.28-3.48,5.18-1.5a0.78,0.78,0,0,1,.75,1.19c-0.3.79-4,3.86-4.82,4.28a11.59,11.59,0,0,1-2.39.66c-1.28,1.44-3,1.94-4.4,2.6-1.37.39-2.6,1.63-3.92,2.29l-0.13.06a2,2,0,0,1-1.64.29,13.54,13.54,0,0,1-2.59-1.23,3.83,3.83,0,0,1-1.33-.68c-1-1.18-7.55-3.94-9.93-6.18-0.59.05-3.09-1.28-1.86-2l2.48,0a1.73,1.73,0,0,0,1.19.56c0.51,0.07,1-.11,1.45,0a19.6,19.6,0,0,1,3.89,1.68,21.8,21.8,0,0,1,3.8,2,2.38,2.38,0,0,0,.46.28c0-.19.06-0.38,0.07-0.58,0.07-.67-0.29-2.5,0-3,0.43-.63-0.09-8.72,1.67-11.3a1.65,1.65,0,0,1,1.59-.84c1.29,0.36,1.44,3.05,1.52,3.93,0.15,1.83.21,3.68,0.36,5.5h0Z" transform="translate(-186 -336.39)" fill="#fff"></path>
    <path d="M210.78,365l0.17,0a0.65,0.65,0,0,1,.48.2l0.34,0.08a28.88,28.88,0,0,1,4.88,1.91c0.27,0.53,3.9,2,4.68,2.26a6.42,6.42,0,0,1,1.41.59s0.56,0.67,1,1.14a3.85,3.85,0,0,0,1.3.75l1.77,0.3,0,0.51c1.12,1.54-1.11,2.84-1.75,2.93s-0.71-.06-0.71-0.06c-3-1.13-4.1-2.51-5.92-3s-1.93-.77-1.93-0.77a2.45,2.45,0,0,0-1.24-.73,12.88,12.88,0,0,1-2.79-1.82,42.16,42.16,0,0,0,.2,5.64c0.25,0.44-.24,7.62-1.78,9.12s-2.08.26-2.08,0.26a3.5,3.5,0,0,0-.13-1.28c-0.19-.41-0.37-12.6-0.47-13a0.43,0.43,0,0,1,0-.26l-0.07-.3a3.31,3.31,0,0,0-1.43,0L204,371s-3.72,2.26-4.87,2.32a8.46,8.46,0,0,0-2.76.94l-2.47.32c-0.38-1.85,6-4.62,6.93-5a56.75,56.75,0,0,0,5.25-3.27,2,2,0,0,0,.26-0.1,3.69,3.69,0,0,1,1.43-.45l0.48-.22a5.2,5.2,0,0,1,2.56-.55h0Z" transform="translate(-186 -336.39)" fill="#fff"></path>
  </g>
  <g class="logo__typo">
    <path d="M260.22,364.21c-0.35-5.07-4.65-7.52-9.33-7.52-6.45,0-10.13,4.57-10.13,10.75,0,6,4,10.17,10,10.17,5.22,0,8.87-2.88,9.56-8.14h-5.26c-0.35,2.42-1.8,4-4.34,4-3.42,0-4.53-3.42-4.53-6.26s1.15-6.45,4.64-6.45a3.72,3.72,0,0,1,4,3.42h5.34Z" transform="translate(-186 -336.39)" fill="#667773"></path>
    <path d="M280.4,368.47c0.38-6.1-2.88-11.79-9.64-11.79-6,0-10.13,4.53-10.13,10.48,0,6.14,3.88,10.44,10.13,10.44,4.49,0,7.75-2,9.29-6.68h-4.8c-0.35,1.23-2.11,2.57-4.3,2.57-3,0-4.72-1.57-4.88-5H280.4ZM266.08,365a4.3,4.3,0,0,1,4.53-4.22c2.65,0,3.84,1.46,4.34,4.22h-8.87Z" transform="translate(-186 -336.39)" fill="#667773" fill-rule="evenodd"></path>
    <path d="M280.66,370.62c0.23,5.26,4.72,7,9.33,7s9.06-1.69,9.06-6.91c0-3.68-3.11-4.84-6.3-5.57s-6.18-1-6.18-3c0-1.61,1.8-1.84,3-1.84,2,0,3.57.58,3.72,2.69h5.18c-0.42-4.88-4.41-6.33-8.75-6.33s-8.64,1.31-8.64,6.37c0,3.49,3.15,4.61,6.3,5.3,3.92,0.84,6.18,1.42,6.18,3.07,0,1.92-2,2.53-3.57,2.53-2.15,0-4.15-1-4.18-3.34h-5.18Z" transform="translate(-186 -336.39)" fill="#667773"></path>
    <polygon points="125.73 20.83 121.55 34.38 121.47 34.38 117.29 20.83 111.57 20.83 118.36 40.68 124.43 40.68 131.15 20.83 125.73 20.83" fill="#667773"></polygon>
    <polygon points="131.55 40.68 137 40.68 137 20.83 131.55 20.83 131.55 40.68 131.55 40.68" fill="#667773"></polygon>
  </g>
</svg>
