<?xml version="1.0" encoding="utf-8"?>
<!-- Generator: Adobe Illustrator 21.0.0, SVG Export Plug-In . SVG Version: 6.00 Build 0)  -->
<svg version="1.1" id="Layer_1" xmlns="http://www.w3.org/2000/svg" xmlns:xlink="http://www.w3.org/1999/xlink" x="0px" y="0px"
	 viewBox="0 0 192.8 192.8" style="enable-background:new 0 0 192.8 192.8;" xml:space="preserve">
<style type="text/css">
	.st0{fill-rule:evenodd;clip-rule:evenodd;fill:#FFFFFF;}
	.st1{fill-rule:evenodd;clip-rule:evenodd;fill:#ED1C24;}
	.st2{fill-rule:evenodd;clip-rule:evenodd;fill:#3C8476;}
	.st3{fill-rule:evenodd;clip-rule:evenodd;}
</style>
<g>
	<polygon class="st0" points="0,0 192.8,0 192.8,192.8 0,192.8 0,0 	"/>
	<path class="st1" d="M27.6,158.9c-0.7,1.5-1.8,2.6-3.1,3.4c-1.3,0.8-2.8,1.2-4.6,1.2c-1.3,0-2.5-0.2-3.6-0.7
		c-1.1-0.5-2.1-1.2-2.9-2.2c-0.7-0.8-1.3-1.7-1.7-2.8c-0.4-1-0.6-2.1-0.6-3.3c0-1.2,0.2-2.3,0.7-3.4c0.5-1.1,1.1-2,2-2.9
		c0.8-0.8,1.8-1.4,2.8-1.8c1-0.4,2.1-0.6,3.3-0.6c1.8,0,3.3,0.4,4.6,1.2c1.3,0.8,2.3,2,3,3.5h-2.9c-0.5-0.8-1.2-1.3-2-1.7
		c-0.8-0.4-1.7-0.6-2.7-0.6c-0.8,0-1.6,0.2-2.3,0.5c-0.7,0.3-1.4,0.7-1.9,1.3c-0.6,0.6-1,1.3-1.4,2.1c-0.3,0.8-0.5,1.6-0.5,2.4
		c0,0.9,0.1,1.7,0.4,2.5c0.3,0.8,0.7,1.5,1.3,2.1c0.6,0.6,1.3,1.1,2,1.4c0.8,0.3,1.6,0.5,2.3,0.5c1,0,1.9-0.2,2.6-0.6
		c0.8-0.4,1.4-0.9,1.9-1.6H27.6L27.6,158.9z M32,154.6c0,0.9,0.1,1.7,0.4,2.5c0.3,0.8,0.7,1.5,1.3,2.1c0.6,0.6,1.3,1.1,2,1.4
		c0.8,0.3,1.6,0.5,2.3,0.5c1.8,0,3.2-0.6,4.4-1.9c1.2-1.3,1.8-2.8,1.8-4.7c0-0.8-0.1-1.5-0.4-2.3c-0.3-0.7-0.7-1.4-1.3-2
		c-0.6-0.7-1.3-1.2-2.1-1.5c-0.7-0.3-1.6-0.5-2.5-0.5c-0.8,0-1.6,0.2-2.3,0.5c-0.7,0.3-1.4,0.7-1.9,1.3c-0.6,0.6-1,1.3-1.4,2.1
		C32.1,152.9,32,153.8,32,154.6L32,154.6z M29.4,154.6c0-1.2,0.2-2.3,0.7-3.4c0.5-1.1,1.1-2,2-2.9c0.8-0.8,1.8-1.4,2.8-1.8
		c1-0.4,2.1-0.6,3.3-0.6c1.2,0,2.3,0.2,3.3,0.6c1,0.4,2,1,2.8,1.9c0.9,0.9,1.5,1.8,2,2.9c0.4,1.1,0.7,2.2,0.7,3.4
		c0,1.2-0.2,2.3-0.6,3.3c-0.4,1-0.9,1.9-1.7,2.8c-0.9,1-1.9,1.7-3,2.2c-1.1,0.5-2.3,0.7-3.6,0.7c-1.3,0-2.5-0.2-3.6-0.7
		c-1.1-0.5-2.1-1.2-2.9-2.2c-0.7-0.8-1.3-1.7-1.7-2.8C29.6,156.8,29.4,155.7,29.4,154.6L29.4,154.6z M50.9,154.6
		c0,0.9,0.1,1.7,0.4,2.5c0.3,0.8,0.7,1.5,1.3,2.1c0.6,0.6,1.3,1.1,2,1.4c0.8,0.3,1.6,0.5,2.3,0.5c1.8,0,3.2-0.6,4.4-1.9
		c1.2-1.3,1.8-2.8,1.8-4.7c0-0.8-0.1-1.5-0.4-2.3c-0.3-0.7-0.7-1.4-1.3-2c-0.6-0.7-1.3-1.2-2.1-1.5c-0.7-0.3-1.6-0.5-2.5-0.5
		c-0.8,0-1.6,0.2-2.3,0.5c-0.7,0.3-1.4,0.7-1.9,1.3c-0.6,0.6-1,1.3-1.4,2.1C51.1,152.9,50.9,153.8,50.9,154.6L50.9,154.6z
		 M48.3,154.6c0-1.2,0.2-2.3,0.7-3.4c0.5-1.1,1.1-2,2-2.9c0.8-0.8,1.8-1.4,2.8-1.8c1-0.4,2.1-0.6,3.3-0.6c1.2,0,2.3,0.2,3.3,0.6
		c1,0.4,2,1,2.8,1.9c0.9,0.9,1.5,1.8,2,2.9c0.4,1.1,0.7,2.2,0.7,3.4c0,1.2-0.2,2.3-0.6,3.3c-0.4,1-0.9,1.9-1.7,2.8
		c-0.9,1-1.9,1.7-3,2.2c-1.1,0.5-2.3,0.7-3.6,0.7c-1.3,0-2.5-0.2-3.6-0.7c-1.1-0.5-2.1-1.2-2.9-2.2c-0.7-0.8-1.3-1.7-1.7-2.8
		C48.5,156.8,48.3,155.7,48.3,154.6L48.3,154.6z M69.8,154.1h1.8c1.3,0,2.2-0.2,2.8-0.7c0.6-0.4,0.9-1.2,0.9-2.1
		c0-1-0.3-1.7-0.9-2.2c-0.6-0.5-1.5-0.7-2.7-0.7h-1.9V154.1L69.8,154.1z M69.8,163.2h-2.5v-17.1h4c1.1,0,2,0.1,2.6,0.2
		c0.6,0.1,1.1,0.3,1.5,0.6c0.7,0.4,1.3,1,1.7,1.8c0.4,0.8,0.6,1.6,0.6,2.5c0,1.6-0.5,2.9-1.6,3.8c-1.1,0.9-2.5,1.4-4.4,1.4h-2V163.2
		L69.8,163.2z M88.5,163.2h-8.9v-17.1h8.9v2.3h-6.4v5.1h6.4v2.2h-6.4v5.1h6.4V163.2L88.5,163.2z M94,155h1.3c1.7,0,3-0.3,3.8-0.8
		c0.8-0.6,1.3-1.4,1.3-2.5c0-1.1-0.4-1.9-1.1-2.4c-0.7-0.5-1.9-0.8-3.4-0.8H94V155L94,155z M94,163.2h-2.5v-17.1h4.9
		c2,0,3.6,0.5,4.7,1.4c1.1,0.9,1.6,2.3,1.6,4.1c0,1.4-0.5,2.6-1.4,3.5c-0.9,0.9-2.1,1.4-3.5,1.5l4.8,6.6h-3.1l-5.7-7.9V163.2
		L94,163.2z M113.9,155.8l-2.4-6.5l-2.5,6.5H113.9L113.9,155.8z M108.2,158.2l-1.9,5h-2.6l6.7-17.1h2.4l6.7,17.1h-2.7l-1.9-5H108.2
		L108.2,158.2z M129.8,163.2h-10.5v-2.4l7.5-12.3h-7v-2.4h9.9v2.2l-7.7,12.6h7.9V163.2L129.8,163.2z M134.2,163.2h-2.5v-17.1h2.5
		V163.2L134.2,163.2z M139,154.6c0,0.9,0.1,1.7,0.4,2.5c0.3,0.8,0.7,1.5,1.3,2.1c0.6,0.6,1.3,1.1,2,1.4c0.8,0.3,1.6,0.5,2.3,0.5
		c1.8,0,3.2-0.6,4.4-1.9c1.2-1.3,1.8-2.8,1.8-4.7c0-0.8-0.1-1.5-0.4-2.3c-0.3-0.7-0.7-1.4-1.3-2c-0.6-0.7-1.3-1.2-2.1-1.5
		c-0.7-0.3-1.6-0.5-2.5-0.5c-0.8,0-1.6,0.2-2.3,0.5c-0.7,0.3-1.4,0.7-1.9,1.3c-0.6,0.6-1,1.3-1.4,2.1
		C139.2,152.9,139,153.8,139,154.6L139,154.6z M136.5,154.6c0-1.2,0.2-2.3,0.7-3.4c0.5-1.1,1.1-2,2-2.9c0.8-0.8,1.8-1.4,2.8-1.8
		c1-0.4,2.1-0.6,3.3-0.6c1.2,0,2.3,0.2,3.3,0.6c1,0.4,2,1,2.8,1.9c0.9,0.9,1.5,1.8,2,2.9c0.4,1.1,0.7,2.2,0.7,3.4
		c0,1.2-0.2,2.3-0.6,3.3c-0.4,1-0.9,1.9-1.7,2.8c-0.9,1-1.9,1.7-3,2.2c-1.1,0.5-2.3,0.7-3.6,0.7c-1.3,0-2.5-0.2-3.6-0.7
		c-1.1-0.5-2.1-1.2-2.9-2.2c-0.7-0.8-1.3-1.7-1.7-2.8C136.6,156.8,136.5,155.7,136.5,154.6L136.5,154.6z M158.6,163.2h-2.5v-17.1
		h2.5l8.4,12.9l-0.1-12.9h2.4v17.1H167l-8.6-13.3L158.6,163.2L158.6,163.2z M181.3,163.2h-8.9v-17.1h8.9v2.3h-6.4v5.1h6.4v2.2h-6.4
		v5.1h6.4V163.2L181.3,163.2z"/>
	<path class="st2" d="M14.3,189.9h-2.4v-16.5h2.4V189.9L14.3,189.9z M33.5,189.9h-2.4v-14.3H28v-2.2h8.6v2.2h-3.1V189.9L33.5,189.9z
		 M56.8,182.8l-2.3-6.3l-2.4,6.3H56.8L56.8,182.8z M51.3,185.1l-1.9,4.8h-2.5l6.5-16.5h2.3l6.5,16.5h-2.6l-1.8-4.8H51.3L51.3,185.1z
		 M83,189.9h-7.8v-16.5h2.4v14.2H83V189.9L83,189.9z M99.4,189.9H97v-16.5h2.4V189.9L99.4,189.9z M122.1,182.8l-2.3-6.3l-2.4,6.3
		H122.1L122.1,182.8z M116.6,185.1l-1.9,4.8h-2.5l6.5-16.5h2.3l6.5,16.5h-2.6l-1.8-4.8H116.6L116.6,185.1z M142.8,189.9h-2.4v-16.5
		h2.5l8.1,12.5l-0.1-12.5h2.4v16.5H151l-8.3-12.9L142.8,189.9L142.8,189.9z M176,182.8l-2.3-6.3l-2.4,6.3H176L176,182.8z
		 M170.5,185.1l-1.9,4.8h-2.5l6.5-16.5h2.3l6.5,16.5h-2.6l-1.8-4.8H170.5L170.5,185.1z"/>
	<path class="st1" d="M35.9,42.4c1.5,0,2.7,1.2,2.7,2.7c0,1.5-1.2,2.7-2.7,2.7c-1.5,0-2.7-1.2-2.7-2.7
		C33.2,43.6,34.4,42.4,35.9,42.4L35.9,42.4z"/>
	<path class="st3" d="M172.9,69c4.9-5,11.7,2,6.9,6.9l-42.9,43.6c-5.8,5.9-12.7-1-6.9-6.9L172.9,69L172.9,69z M167.5,42.8
		c4.9-4.9,11.7,2,6.9,6.9l-35,35.3c-5.9,5.9-12.7-1-6.9-6.9L167.5,42.8L167.5,42.8z M156,23.1c4.9-5,11.7,2,6.9,6.9L123,70.5
		c-5.8,5.9-12.7-1-6.9-6.9L156,23.1L156,23.1z M140.8,6.5c4.9-5,11.7,2,6.9,6.9l-40.3,41.1c-5.8,5.9-12.7-1-6.9-6.9L140.8,6.5
		L140.8,6.5z M111,4.5c4.9-5,11.7,2,6.9,6.9L77.5,52.5c-1.5,1.5-4.6,3.3-8.9,4c-4,0.7-9,0.4-15.6-4.9c-0.9-0.7-3.6-3.5-5.7-5.6
		c-1.7-1.7-4.9-5.6-8.5-7.1c-8.6-3.5-12.2,2-15.8,1.4c-2.8-0.5-3.9-2.5-3.9-4.5c-0.1-2.2,2.2-3.7,4.8-4.9c4.7-2.2,12-3.6,18.3-0.4
		c7,3.6,12.2,9.7,16,14.1c4.7,5.4,11,2.3,12.3,1L111,4.5L111,4.5z M25.9,46.9c4.5,3,7.2,6.5,10.2,10.6c1.7,2.2,5.3,7.6,6.1,14.7
		c0.8,7.7,0.5,15.1,2.2,20.7c2.4,7.6,7.9,13.5,11.3,16.3c3.3,2.8,8.2,7.1,8.2,9.3c0,2.1-0.6,4.6-4.1,4.3c-4.8-0.5-10.8-7.8-14-11
		c-3.1-3.1-10.3-12.9-11.1-20c-0.8-7.1-1.3-16.8-2.6-22.2c-1.4-5.8-8.9-14-11.3-15.8c-1.8-1.4-2.3-4.1-1.1-5.8
		C20.8,46.1,23.5,45.2,25.9,46.9L25.9,46.9z"/>
</g>
</svg>
