<?xml version="1.0" encoding="utf-8"?>
<!-- Generator: Adobe Illustrator 21.0.0, SVG Export Plug-In . SVG Version: 6.00 Build 0)  -->
<svg version="1.1" id="Capa_1" xmlns="http://www.w3.org/2000/svg" xmlns:xlink="http://www.w3.org/1999/xlink" x="0px" y="0px"
	 viewBox="0 0 30.8 42.5" style="enable-background:new 0 0 30.8 42.5;" xml:space="preserve">
<style type="text/css">
	.st0{fill-rule:evenodd;clip-rule:evenodd;fill:#000004;}
	.st1{fill:#000004;}
	.st2{fill:#BC0033;}
	.st3{fill:#F4C53D;}
</style>
<g>
	<path class="st0" d="M4.1,32.5c-0.8,0-1.5,0.6-1.5,1.6c0,0.9,0.6,1.5,1.4,1.5c0.7,0,1.5-0.5,1.5-1.6C5.5,33.1,5,32.5,4.1,32.5
		 M4.1,32.9C4.7,32.9,5,33.5,5,34c0,0.7-0.4,1.1-0.9,1.1c-0.5,0-0.9-0.5-0.9-1.1C3.2,33.5,3.5,32.9,4.1,32.9"/>
	<path class="st0" d="M7.4,32.5c-0.8,0-1.5,0.6-1.5,1.6c0,0.9,0.6,1.5,1.4,1.5c0.7,0,1.5-0.5,1.5-1.6C8.9,33.1,8.3,32.5,7.4,32.5
		 M7.4,32.9c0.6,0,0.9,0.6,0.9,1.1c0,0.7-0.4,1.1-0.9,1.1c-0.5,0-0.9-0.5-0.9-1.1C6.5,33.5,6.8,32.9,7.4,32.9"/>
	<path class="st0" d="M9.5,36.7h0.5v-1.6h0c0.2,0.3,0.5,0.5,0.9,0.5c0.7,0,1.3-0.5,1.3-1.6c0-0.9-0.5-1.5-1.3-1.5
		c-0.5,0-0.8,0.2-1,0.6h0l0-0.5H9.5c0,0.3,0,0.6,0,1V36.7z M10.1,33.8c0-0.1,0-0.1,0-0.2c0.1-0.4,0.4-0.7,0.8-0.7
		c0.6,0,0.9,0.5,0.9,1.1c0,0.7-0.3,1.1-0.9,1.1c-0.4,0-0.7-0.3-0.8-0.6c0-0.1,0-0.1,0-0.2V33.8z"/>
	<path class="st0" d="M15.3,34.1c0-0.1,0-0.1,0-0.2c0-0.5-0.3-1.4-1.2-1.4c-0.8,0-1.4,0.7-1.4,1.6c0,0.9,0.5,1.5,1.4,1.5
		c0.5,0,0.8-0.1,1-0.2L15.1,35c-0.2,0.1-0.4,0.2-0.8,0.2c-0.5,0-1-0.3-1-1H15.3z M13.3,33.7c0-0.4,0.3-0.9,0.8-0.9
		c0.6,0,0.7,0.5,0.7,0.9H13.3z"/>
	<path class="st1" d="M16,35.5h0.5v-1.6c0-0.1,0-0.2,0-0.2c0.1-0.4,0.3-0.7,0.7-0.7c0.1,0,0.1,0,0.2,0v-0.5c-0.1,0-0.1,0-0.1,0
		c-0.4,0-0.7,0.2-0.8,0.6h0l0-0.6H16c0,0.3,0,0.6,0,0.9V35.5z"/>
	<path class="st0" d="M20,33.7c0-0.6-0.2-1.2-1.1-1.2c-0.4,0-0.7,0.1-1,0.3l0.1,0.4c0.2-0.1,0.5-0.2,0.8-0.2c0.6,0,0.7,0.4,0.7,0.7
		v0.1c-1.1,0-1.8,0.4-1.8,1.1c0,0.4,0.3,0.8,0.9,0.8c0.4,0,0.7-0.2,0.9-0.4h0l0,0.4h0.5c0-0.2,0-0.4,0-0.7V33.7z M19.5,34.5
		c0,0.1,0,0.1,0,0.2c-0.1,0.2-0.3,0.5-0.7,0.5c-0.3,0-0.5-0.2-0.5-0.5c0-0.6,0.7-0.7,1.2-0.7V34.5z"/>
	<path class="st1" d="M22.9,35c-0.2,0.1-0.4,0.1-0.7,0.1c-0.6,0-1-0.4-1-1.1c0-0.6,0.4-1.1,1-1.1c0.3,0,0.5,0.1,0.6,0.1l0.1-0.4
		c-0.2-0.1-0.4-0.2-0.7-0.2c-1,0-1.6,0.7-1.6,1.6c0,0.9,0.6,1.5,1.5,1.5c0.4,0,0.7-0.1,0.8-0.2L22.9,35z"/>
	<path class="st0" d="M24.1,32.6h-0.5v2.9h0.5V32.6z M23.9,31.4c-0.2,0-0.3,0.2-0.3,0.3c0,0.2,0.1,0.3,0.3,0.3
		c0.2,0,0.3-0.1,0.3-0.3C24.2,31.6,24.1,31.4,23.9,31.4"/>
	<path class="st0" d="M26.3,32.5c-0.8,0-1.5,0.6-1.5,1.6c0,0.9,0.6,1.5,1.4,1.5c0.7,0,1.5-0.5,1.5-1.6
		C27.7,33.1,27.1,32.5,26.3,32.5 M26.2,32.9c0.6,0,0.9,0.6,0.9,1.1c0,0.7-0.4,1.1-0.9,1.1c-0.5,0-0.9-0.5-0.9-1.1
		C25.3,33.5,25.6,32.9,26.2,32.9 M26.4,31.3l-0.5,0.9h0.4l0.7-0.9H26.4z"/>
	<path class="st1" d="M28.3,35.5h0.5v-1.8c0-0.1,0-0.2,0-0.2c0.1-0.3,0.4-0.5,0.7-0.5c0.5,0,0.7,0.4,0.7,0.9v1.7h0.5v-1.7
		c0-1-0.6-1.2-1-1.2c-0.5,0-0.8,0.3-1,0.5h0l0-0.5h-0.5c0,0.2,0,0.5,0,0.8V35.5z"/>
	<path class="st1" d="M2.2,35c-0.2,0.1-0.4,0.1-0.7,0.1c-0.6,0-1-0.4-1-1.1c0-0.6,0.4-1.1,1-1.1c0.3,0,0.5,0.1,0.6,0.1l0.1-0.4
		c-0.2-0.1-0.4-0.2-0.7-0.2c-1,0-1.6,0.7-1.6,1.6c0,0.9,0.6,1.5,1.5,1.5c0.4,0,0.7-0.1,0.8-0.2L2.2,35z"/>
	<rect x="22.9" y="37" class="st1" width="0.5" height="4.3"/>
	<path class="st1" d="M7.3,41.2c0.2,0.1,0.5,0.2,0.8,0.2c0.7,0,1.1-0.4,1.1-0.9c0-0.4-0.3-0.7-0.8-0.9c-0.4-0.2-0.5-0.3-0.5-0.5
		c0-0.2,0.2-0.4,0.5-0.4c0.3,0,0.5,0.1,0.6,0.2l0.1-0.4c-0.2-0.1-0.4-0.2-0.7-0.2c-0.6,0-1,0.4-1,0.9c0,0.4,0.2,0.6,0.8,0.8
		c0.4,0.1,0.5,0.3,0.5,0.5c0,0.2-0.2,0.4-0.6,0.4c-0.3,0-0.6-0.1-0.7-0.2L7.3,41.2z"/>
	<path class="st0" d="M9.9,42.5h0.5v-1.6h0c0.2,0.3,0.5,0.5,0.9,0.5c0.7,0,1.3-0.5,1.3-1.6c0-0.9-0.5-1.5-1.3-1.5
		c-0.5,0-0.8,0.2-1,0.6h0l0-0.5H9.9c0,0.3,0,0.6,0,1V42.5z M10.4,39.6c0-0.1,0-0.1,0-0.2c0.1-0.4,0.4-0.7,0.8-0.7
		c0.6,0,0.9,0.5,0.9,1.1c0,0.7-0.3,1.1-0.9,1.1c-0.4,0-0.7-0.3-0.8-0.6c0-0.1,0-0.1,0-0.2V39.6z"/>
	<path class="st0" d="M15.4,39.5c0-0.6-0.2-1.2-1.1-1.2c-0.4,0-0.7,0.1-1,0.3l0.1,0.4c0.2-0.1,0.5-0.2,0.8-0.2
		c0.6,0,0.7,0.4,0.7,0.7v0.1c-1.1,0-1.8,0.4-1.8,1.1c0,0.4,0.3,0.8,0.9,0.8c0.4,0,0.7-0.2,0.9-0.4h0l0,0.4h0.5c0-0.2,0-0.5,0-0.7
		V39.5z M14.9,40.3c0,0,0,0.1,0,0.2c-0.1,0.2-0.3,0.5-0.7,0.5c-0.3,0-0.5-0.2-0.5-0.5c0-0.6,0.7-0.7,1.3-0.7V40.3z"/>
	<path class="st0" d="M16.3,41.3h0.5v-1.8c0-0.1,0-0.2,0-0.2c0.1-0.3,0.4-0.5,0.7-0.5c0.5,0,0.7,0.4,0.7,0.9v1.7h0.5v-1.7
		c0-1-0.6-1.2-1-1.2c-0.5,0-0.8,0.3-1,0.5h0l0-0.5h-0.5c0,0.2,0,0.5,0,0.8V41.3z M17,37.9c0-0.2,0.1-0.3,0.2-0.3
		c0.1,0,0.1,0,0.3,0.1c0.1,0.1,0.2,0.1,0.4,0.1c0.3,0,0.4-0.2,0.4-0.6H18c0,0.2-0.1,0.2-0.2,0.2c-0.1,0-0.2,0-0.3-0.1
		c-0.1-0.1-0.2-0.1-0.4-0.1c-0.3,0-0.4,0.2-0.4,0.6H17z"/>
	<path class="st0" d="M20.9,38.3c-0.8,0-1.5,0.6-1.5,1.6c0,0.9,0.6,1.5,1.4,1.5c0.7,0,1.5-0.5,1.5-1.6
		C22.3,38.9,21.7,38.3,20.9,38.3 M20.9,38.7c0.6,0,0.9,0.6,0.9,1.1c0,0.7-0.4,1.1-0.9,1.1c-0.5,0-0.9-0.5-0.9-1.1
		C20,39.3,20.2,38.7,20.9,38.7"/>
	<path class="st0" d="M26.4,39.5c0-0.6-0.2-1.2-1.1-1.2c-0.4,0-0.7,0.1-1,0.3l0.1,0.4c0.2-0.1,0.5-0.2,0.8-0.2
		c0.6,0,0.7,0.4,0.7,0.7v0.1c-1.1,0-1.8,0.4-1.8,1.1c0,0.4,0.3,0.8,0.9,0.8c0.4,0,0.7-0.2,0.9-0.4h0l0,0.4h0.5c0-0.2,0-0.5,0-0.7
		V39.5z M25.9,40.3c0,0,0,0.1,0,0.2c-0.1,0.2-0.3,0.5-0.7,0.5c-0.3,0-0.5-0.2-0.5-0.5c0-0.6,0.7-0.7,1.2-0.7V40.3z"/>
	<path class="st0" d="M6.9,39.9c0-0.1,0-0.1,0-0.3c0-0.5-0.3-1.4-1.2-1.4c-0.9,0-1.4,0.7-1.4,1.6c0,0.9,0.5,1.5,1.4,1.5
		c0.5,0,0.8-0.1,1-0.2l-0.1-0.4c-0.2,0.1-0.4,0.2-0.8,0.2c-0.5,0-1-0.3-1-1H6.9z M4.9,39.5c0-0.4,0.3-0.9,0.8-0.9
		c0.6,0,0.7,0.5,0.7,0.9H4.9z"/>
	<path class="st2" d="M26.7,24.4c-2.6,2.6-6.2,4.2-10.2,4.2c-7.9,0-14.3-6.4-14.3-14.3S8.6,0,16.5,0c3.9,0,7.5,1.6,10.1,4.1l-5,5.1
		c-1.3-1.3-3.1-2.1-5.1-2.1c-4,0-7.2,3.2-7.2,7.2c0,4,3.2,7.2,7.2,7.2c2,0,3.8-0.8,5.1-2.1L26.7,24.4z"/>
	<path class="st3" d="M18.2,10.2c3.4,0,4,3,7.5,3c1.1,0,2-1.1,2.9-1.7c0,0.5-0.7,6.7-4.6,6.8c-4.1,0-5.1-3.1-8.3-3.1
		c-1.7,0-1.8,1-2.7,1.8C13.5,14.3,14,10.2,18.2,10.2"/>
</g>
</svg>
