<?xml version="1.0" encoding="utf-8"?>
<!-- Generator: Adobe Illustrator 21.0.0, SVG Export Plug-In . SVG Version: 6.00 Build 0)  -->
<svg version="1.1" id="Layer_1" xmlns="http://www.w3.org/2000/svg" xmlns:xlink="http://www.w3.org/1999/xlink" x="0px" y="0px"
	 viewBox="0 0 265.7 255.5" style="enable-background:new 0 0 265.7 255.5;" xml:space="preserve">
<style type="text/css">
	.st0{clip-path:url(#SVGID_2_);fill:#FFFFFF;}
	.st1{fill:none;stroke:#ED1D24;stroke-width:2.078;}
	.st2{fill:#ED1D24;}
	.st3{clip-path:url(#SVGID_4_);fill:#ED1D24;}
	.st4{clip-path:url(#SVGID_4_);}
	.st5{font-family:'Arial-BoldMT';}
	.st6{font-size:27.0084px;}
</style>
<g>
	<defs>
		<rect id="SVGID_1_" x="0" width="265.7" height="250.2"/>
	</defs>
	<clipPath id="SVGID_2_">
		<use xlink:href="#SVGID_1_"  style="overflow:visible;"/>
	</clipPath>
	<path class="st0" d="M235.2,106.9c0,56.5-45.8,102.4-102.4,102.4c-56.5,0-102.4-45.8-102.4-102.4C30.5,50.4,76.3,4.6,132.8,4.6
		C189.4,4.6,235.2,50.4,235.2,106.9"/>
</g>
<path class="st1" d="M200.4,106.9c0,37.2-30.3,67.3-67.6,67.3c-37.3,0-67.6-30.1-67.6-67.3c0-37.2,30.3-67.3,67.6-67.3
	C170.2,39.7,200.4,69.8,200.4,106.9z M235.2,106.9c0,56.5-45.8,102.4-102.4,102.4c-56.5,0-102.4-45.8-102.4-102.4
	C30.5,50.4,76.3,4.6,132.8,4.6C189.4,4.6,235.2,50.4,235.2,106.9z"/>
<polygon class="st2" points="182.3,90.3 149.5,90.3 149.5,57.5 116.2,57.5 116.2,90.3 83.4,90.3 83.4,123.6 116.2,123.6 
	116.2,156.4 149.5,156.4 149.5,123.6 182.3,123.6 "/>
<g>
	<defs>
		<rect id="SVGID_3_" x="0" width="265.7" height="250.2"/>
	</defs>
	<clipPath id="SVGID_4_">
		<use xlink:href="#SVGID_3_"  style="overflow:visible;"/>
	</clipPath>
	<path class="st3" d="M105.1,190.4l0.4,0.1c-0.4,1.8-0.4,3.4,0,4.6c0.4,1.2,1,2,2,2.3c1.3,0.4,2.5-0.3,3.6-1.9
		c1.1-1.6,2.2-4.2,3.1-7.6c0.9-3.1,1.1-5.6,0.8-7.3c-0.3-1.7-1.1-2.7-2.4-3.1c-0.8-0.2-1.6-0.1-2.4,0.4c-0.8,0.5-1.6,1.4-2.5,2.7
		l-0.3-0.3c1.9-3,3.9-4.2,6-3.6c0.7,0.2,1.4,0.6,2,1.3c0.6,0.6,1,1.5,1.4,2.5c0.3,1,0.5,2.3,0.4,3.7c0,1.4-0.3,2.9-0.7,4.6
		c-0.4,1.6-1,3.1-1.7,4.5c-0.7,1.3-1.5,2.4-2.3,3.3c-0.8,0.9-1.7,1.5-2.6,1.9c-0.9,0.4-1.8,0.4-2.6,0.2c-0.5-0.1-0.9-0.3-1.2-0.6
		c-0.3-0.3-0.6-0.6-0.9-1c-0.3-0.3-0.5-0.5-0.6-0.6c-0.1,0-0.3,0-0.4,0.2c-0.1,0.2-0.3,0.5-0.4,1l-0.4-0.1L105.1,190.4z"/>
	<path class="st3" d="M100.6,188.7c-0.8,1.1-1.6,2.1-2.5,2.9c-0.9,0.8-1.8,1.3-2.8,1.6c-0.9,0.3-1.8,0.2-2.7-0.2
		c-0.9-0.4-1.5-1-1.9-1.9c-0.4-0.9-0.6-1.9-0.6-3.1c0-1.2,0.2-2.5,0.5-3.8c0.3-1.3,0.8-2.6,1.4-3.9c0.6-1.3,1.3-2.5,2.1-3.7
		c0.8-1.1,1.6-2.1,2.5-2.9c0.9-0.8,1.8-1.3,2.8-1.6c0.9-0.3,1.8-0.2,2.7,0.2c0.8,0.4,1.5,1,1.9,1.9c0.4,0.9,0.7,1.9,0.7,3.1
		c0,1.2-0.1,2.4-0.5,3.8c-0.3,1.3-0.8,2.7-1.4,4.1C102.1,186.3,101.4,187.5,100.6,188.7 M102.9,176.6c0.2-1.7-0.3-2.8-1.4-3.3
		c-0.6-0.3-1.2-0.3-1.8-0.1c-0.6,0.2-1.2,0.7-1.8,1.4c-0.6,0.7-1.2,1.6-1.8,2.7c-0.6,1.1-1.3,2.4-1.9,3.9c-1.5,3.3-2.3,5.8-2.5,7.5
		c-0.2,1.7,0.3,2.8,1.4,3.3c1.1,0.5,2.3,0.1,3.5-1.2c1.2-1.3,2.5-3.5,3.9-6.7C101.9,180.7,102.7,178.3,102.9,176.6"/>
	<path class="st3" d="M79.9,185.3l3.1-17.2l0,0l-7.2,9.9c-0.7,0.9-1,1.6-1.1,2.1c0,0.4,0.3,0.9,0.9,1.4l-0.3,0.4l-3.5-2.5l0.3-0.4
		c0.5,0.3,0.9,0.4,1.3,0.3c0.4-0.1,0.8-0.6,1.3-1.2l11.3-15.6l0.2,0.2l-3.5,19.3l0,0l8.1-11.2c0.7-1,1.1-1.7,1.1-2.2
		c0-0.5-0.4-0.9-1.1-1.4l0.3-0.4l3.7,2.7l-0.3,0.4c-0.6-0.4-1-0.5-1.4-0.4c-0.4,0.1-0.8,0.6-1.4,1.3l-9.5,13l-0.2,1.3
		c-0.1,0.4-0.1,0.7,0,1c0.1,0.2,0.3,0.4,0.6,0.6l-0.3,0.4L79.9,185.3z"/>
	<path class="st3" d="M63.8,171.6l0.4-0.4c0.3,0.4,0.6,0.6,0.9,0.6c0.2,0,0.5-0.1,0.8-0.3l0.2-0.2c0.1-0.1,0.2-0.2,0.3-0.4l7.9-11.6
		l0,0l-11.9,7.2c-0.3,0.2-0.6,0.4-0.8,0.6c-0.2,0.2-0.4,0.5-0.4,0.7c0,0.3,0.2,0.6,0.5,0.9l-0.4,0.4l-2.5-2.7l0.4-0.4
		c0.4,0.3,0.8,0.4,1.3,0.3c0.4-0.1,1.1-0.4,2.1-1l16.5-9.9l0.3,0.3L68.2,172c-0.5,0.8-0.8,1.3-0.9,1.7c-0.1,0.4,0,0.7,0.3,1.1
		l-0.4,0.4L63.8,171.6z"/>
	<path class="st3" d="M54,150.6l0.2,0.3c-0.7,0.5-1.1,0.9-1.5,1.2c-0.3,0.4-0.5,0.7-0.6,1c-0.1,0.3-0.1,0.6,0,0.9
		c0.1,0.3,0.3,0.6,0.5,1l1.6,2.6l7.2-4.5l-1.3-2c-0.4-0.7-0.9-1-1.5-1s-1.3,0.3-2.4,1l-0.2-0.3l6.4-4l0.2,0.3
		c-1,0.6-1.6,1.2-1.9,1.6c-0.2,0.5-0.2,0.9,0.1,1.5l1.5,2.3l6.6-4.2c0.6-0.4,1-0.7,1.2-0.9c0.1-0.2,0.1-0.5-0.2-0.9l-1.1-1.8
		c-0.5-0.8-1.1-1.2-2-1.3c-0.8-0.1-2,0.1-3.6,0.7l-0.1-0.4l5.2-1.9l5.3,8.3l-0.5,0.3c-0.4-0.7-0.8-1-1.3-1c-0.4,0-1.2,0.3-2.2,1
		l-12.6,8c-1,0.6-1.6,1.1-1.8,1.5c-0.2,0.4-0.1,0.9,0.3,1.6l-0.5,0.3l-5.2-8.3L54,150.6z"/>
	<path class="st3" d="M45.8,144.6l11.8-12.9l0,0l-11.4,4.6c-1.1,0.4-1.8,0.8-2,1.2c-0.3,0.4-0.2,0.9,0.1,1.7l-0.5,0.2l-1.6-4
		l0.5-0.2c0.2,0.5,0.5,0.8,0.9,0.9c0.4,0.1,1,0,1.8-0.3l17.9-7.2l0.1,0.3l-13.2,14.4l0,0l12.9-5.1c1.1-0.4,1.8-0.9,2-1.3
		c0.2-0.4,0.2-1-0.1-1.8l0.5-0.2l1.7,4.3l-0.5,0.2c-0.3-0.6-0.6-1-1-1.1c-0.4-0.1-1,0-1.9,0.4l-14.9,6l-0.9,1
		c-0.3,0.3-0.5,0.6-0.5,0.8c0,0.2,0,0.5,0.1,0.8l-0.5,0.2L45.8,144.6z"/>
	<path class="st3" d="M41,126.1c0.2,0.9,0.6,1.5,1.2,1.7c0.6,0.3,1.7,0.3,3.4,0l0.1,0.4l-5.3,1l-1.8-8.5l21.6,3l-0.7-3.4
		c-0.1-0.6-0.3-1.2-0.6-1.5c-0.3-0.4-0.6-0.6-1-0.8c-0.4-0.2-0.9-0.3-1.5-0.3c-0.6,0-1.3,0-2.2,0.1l-0.1-0.4l5.8-0.5l1.9,9.1
		l-0.5,0.1l-21-2.9L41,126.1z"/>
	<path class="st3" d="M37.7,109.8l0.5,0c0.1,0.7,0.3,1.2,0.6,1.4c0.4,0.2,1.2,0.3,2.4,0.2l14.9-1c1.3-0.1,2-0.3,2.4-0.5
		c0.3-0.3,0.5-0.8,0.4-1.5l0.5,0l0.4,5.7l-0.5,0c-0.1-0.8-0.3-1.2-0.7-1.4c-0.4-0.2-1.2-0.3-2.3-0.2l-14.9,1c-1.2,0.1-2,0.3-2.3,0.5
		c-0.3,0.3-0.5,0.8-0.4,1.5l-0.5,0L37.7,109.8z"/>
	<path class="st3" d="M44.2,105.3c-1.3-0.3-2.5-0.8-3.6-1.4c-1-0.6-1.9-1.3-2.4-2c-0.6-0.8-0.8-1.7-0.8-2.6c0.1-1,0.4-1.8,1.1-2.5
		c0.7-0.7,1.6-1.3,2.7-1.7c1.1-0.4,2.4-0.7,3.7-0.8c1.4-0.1,2.8-0.2,4.2-0.1c1.4,0.1,2.8,0.3,4.2,0.7c1.3,0.3,2.5,0.8,3.6,1.4
		c1,0.6,1.8,1.3,2.4,2c0.6,0.8,0.8,1.7,0.7,2.6c-0.1,0.9-0.4,1.7-1.1,2.4c-0.7,0.7-1.5,1.3-2.6,1.7c-1.1,0.4-2.3,0.7-3.7,0.9
		c-1.4,0.2-2.8,0.2-4.3,0.1C46.9,105.9,45.5,105.7,44.2,105.3 M56.4,103.3c1.7-0.4,2.5-1.2,2.6-2.5c0-0.7-0.1-1.2-0.6-1.7
		c-0.4-0.5-1.1-0.9-1.9-1.2s-1.9-0.6-3.1-0.8c-1.2-0.2-2.7-0.4-4.3-0.5c-3.6-0.3-6.2-0.2-7.9,0.2c-1.7,0.4-2.5,1.2-2.6,2.5
		c-0.1,1.2,0.7,2.2,2.3,2.8s4.2,1.1,7.6,1.4C52.1,103.8,54.7,103.8,56.4,103.3"/>
	<path class="st3" d="M40,84.9l17.2-3.1l0,0l-11.8-3.3c-1.1-0.3-1.9-0.4-2.3-0.3c-0.4,0.1-0.7,0.6-1,1.4l-0.5-0.1l1.1-4.2l0.5,0.1
		c-0.2,0.5-0.1,1,0.2,1.3c0.3,0.3,0.8,0.6,1.6,0.8l18.6,5.1l-0.1,0.3l-19.3,3.5l0,0l13.4,3.7c1.2,0.3,2,0.4,2.4,0.2
		c0.4-0.2,0.7-0.7,1-1.5l0.5,0.1l-1.2,4.5l-0.5-0.1c0.2-0.7,0.1-1.1-0.2-1.4c-0.3-0.3-0.8-0.6-1.7-0.8l-15.5-4.3L41,87.1
		c-0.4,0.1-0.7,0.2-0.9,0.4c-0.2,0.2-0.3,0.4-0.4,0.7l-0.5-0.1L40,84.9z"/>
	<path class="st3" d="M53.6,62.7l-0.2,0.4c-0.8-0.3-1.4-0.5-1.8-0.6s-0.8-0.1-1.1,0c-0.3,0.1-0.5,0.2-0.7,0.5
		c-0.2,0.2-0.4,0.6-0.6,1l-1.3,2.7l7.6,3.8l1.1-2.1c0.4-0.7,0.4-1.3,0.1-1.8c-0.3-0.5-1-1-2.1-1.5l0.2-0.3l6.8,3.4l-0.2,0.3
		c-1.1-0.5-1.9-0.8-2.4-0.7c-0.5,0-0.9,0.3-1.2,0.9l-1.2,2.5l7,3.5c0.7,0.3,1.2,0.5,1.4,0.5c0.3,0,0.5-0.2,0.7-0.6l1-1.9
		c0.4-0.8,0.4-1.6,0.1-2.4c-0.4-0.8-1.2-1.7-2.4-2.7l0.3-0.3l4.4,3.4l-4.4,8.8L63.9,79c0.4-0.7,0.4-1.2,0.2-1.6
		c-0.2-0.4-0.9-0.8-2-1.4l-13.4-6.6c-1-0.5-1.8-0.8-2.2-0.7c-0.4,0-0.8,0.4-1.2,1.1l-0.5-0.2l4.4-8.8L53.6,62.7z"/>
	<path class="st3" d="M61.2,44.2c0.8-0.9,1.8-1.5,2.9-1.9c1.1-0.3,2.2-0.3,3.3-0.1s2.3,0.7,3.5,1.4c1.2,0.7,2.3,1.5,3.4,2.5
		c1.2,1.1,2.2,2.2,2.9,3.4c0.7,1.2,1.2,2.3,1.5,3.5c0.2,1.1,0.3,2.2,0,3.2c-0.2,1-0.7,1.9-1.3,2.6L73.5,63l-0.4-0.4
		c0.5-0.6,0.8-1.1,0.7-1.5c-0.1-0.4-0.6-1-1.5-1.9l-11.1-10c-0.9-0.8-1.5-1.2-2-1.3c-0.4-0.1-0.9,0.2-1.4,0.8l-0.4-0.4L61.2,44.2z
		 M75,59c0.6-0.1,1.2-0.5,1.7-1c1-1.1,1.2-2.6,0.5-4.3c-0.7-1.8-2.2-3.7-4.5-5.7c-2.3-2.1-4.4-3.4-6.3-3.9c-1.9-0.5-3.4-0.2-4.4,0.9
		c-0.2,0.2-0.4,0.5-0.5,0.7c-0.1,0.2-0.2,0.5-0.4,0.9L75,59z"/>
	<path class="st3" d="M74.2,31.9l0.3,0.4c-0.6,0.5-0.8,0.9-0.8,1.4c0,0.4,0.4,1.1,1.2,2l9.4,11.5c0.8,1,1.4,1.5,1.8,1.6
		c0.4,0.1,0.9-0.1,1.5-0.5l0.3,0.4l-4.4,3.6L83.2,52c0.6-0.5,0.9-0.9,0.8-1.4c-0.1-0.4-0.5-1.1-1.2-2L73.4,37
		c-0.8-0.9-1.4-1.5-1.8-1.6c-0.4-0.1-0.9,0.1-1.5,0.5l-0.3-0.4L74.2,31.9z"/>
	<path class="st3" d="M97.8,25.5l-0.3,0.2c-0.9-1.5-1.9-2.6-3-3.2c-1.2-0.6-2.2-0.7-3.1-0.2c-1.2,0.6-1.7,1.9-1.7,3.9
		c0.1,2,0.8,4.4,2.2,7.3c0.6,1.2,1.2,2.3,1.9,3.3c0.7,1,1.4,1.9,2.1,2.6c0.7,0.7,1.5,1.2,2.2,1.5c0.7,0.3,1.4,0.3,2.1-0.1
		c0.9-0.5,1.5-1.3,1.8-2.7l-2.8-5.8c-0.4-0.8-0.8-1.4-1.1-1.6c-0.4-0.2-0.8-0.2-1.3,0l-0.2-0.5L101,28l0.2,0.5
		c-0.5,0.3-0.8,0.6-0.8,1.1c0,0.5,0.2,1.2,0.7,2.2l2.8,5.7c-0.7,2.1-1.7,3.5-3.2,4.2c-0.9,0.4-1.8,0.6-2.8,0.5c-1-0.1-2-0.5-2.9-1.1
		c-1-0.6-1.9-1.5-2.8-2.5c-0.9-1.1-1.7-2.3-2.3-3.7c-0.6-1.3-1.1-2.7-1.5-4c-0.3-1.4-0.5-2.7-0.5-4c0-1.3,0.2-2.4,0.7-3.3
		c0.4-1,1.1-1.7,2-2.1c0.6-0.3,1.1-0.4,1.6-0.4c0.5,0,1,0,1.5,0.1c0.4,0.1,0.6,0.1,0.7,0c0.3-0.2,0.3-0.7-0.1-1.5l0.3-0.2L97.8,25.5
		z"/>
	<path class="st3" d="M106.3,15.9l0.2,0.5c-0.7,0.2-1.1,0.5-1.2,1c-0.1,0.4,0,1.2,0.4,2.3l4.5,14.2c0.4,1.2,0.7,1.9,1.1,2.2
		c0.3,0.3,0.9,0.3,1.6,0l0.2,0.5l-5.5,1.7l-0.2-0.5c0.7-0.2,1.1-0.6,1.2-1c0.1-0.4,0-1.2-0.4-2.3l-4.5-14.2c-0.4-1.2-0.7-1.9-1-2.1
		c-0.3-0.3-0.9-0.3-1.6-0.1l-0.2-0.5L106.3,15.9z"/>
	<path class="st3" d="M114.6,13.9l9.8,14.4l0,0l-1.8-12.2c-0.2-1.2-0.4-1.9-0.7-2.2c-0.3-0.3-0.8-0.4-1.6-0.3l-0.1-0.5l4.3-0.6
		l0.1,0.5c-0.6,0.1-0.9,0.3-1.1,0.7c-0.2,0.4-0.2,1-0.1,1.8l2.8,19.1l-0.3,0l-11-16.2l0,0l2,13.7c0.2,1.2,0.4,2,0.7,2.3
		c0.3,0.3,0.9,0.4,1.8,0.3l0.1,0.5l-4.6,0.7l-0.1-0.5c0.7-0.1,1.1-0.4,1.3-0.7c0.2-0.4,0.2-1,0.1-1.9l-2.4-15.9l-0.8-1.1
		c-0.2-0.4-0.5-0.6-0.7-0.7c-0.2-0.1-0.5-0.1-0.8-0.1l-0.1-0.5L114.6,13.9z"/>
	<path class="st3" d="M140.4,17.4l-0.4,0c0-0.8-0.1-1.4-0.2-1.9c-0.1-0.5-0.3-0.8-0.4-1.1c-0.2-0.2-0.4-0.4-0.7-0.5
		c-0.3-0.1-0.7-0.1-1.1-0.2l-3-0.1l-0.4,8.5l2.4,0.1c0.8,0,1.4-0.2,1.7-0.6c0.3-0.4,0.5-1.3,0.5-2.5l0.4,0l-0.3,7.6l-0.4,0
		c0-1.2,0-2-0.3-2.5c-0.2-0.5-0.7-0.7-1.3-0.7l-2.8-0.1l-0.3,7.8c0,0.8,0,1.3,0.1,1.5c0.1,0.2,0.4,0.4,0.9,0.4l2.1,0.1
		c0.9,0,1.6-0.3,2.2-0.9c0.5-0.6,1-1.7,1.5-3.3l0.4,0.2l-1.4,5.4l-9.9-0.4l0-0.5c0.8,0,1.3-0.1,1.6-0.5c0.3-0.4,0.4-1.1,0.5-2.3
		l0.6-14.9c0-1.1,0-1.9-0.2-2.3c-0.2-0.4-0.7-0.6-1.5-0.6l0-0.5l9.8,0.4L140.4,17.4z"/>
	<path class="st3" d="M151.6,14.4l-0.1,0.5c-0.5-0.1-0.8-0.1-1.1,0c-0.2,0.1-0.4,0.3-0.5,0.7c0,0.1,0,0.2,0,0.3c0,0.1,0,0.3,0,0.6
		l0.1,14.1l0,0l5.6-12.7c0.1-0.3,0.3-0.6,0.3-0.9c0.1-0.3,0-0.6-0.1-0.8c-0.2-0.2-0.5-0.4-0.9-0.5l0.1-0.5l3.6,0.8l-0.1,0.5
		c-0.5,0-0.9,0.1-1.2,0.4c-0.3,0.3-0.7,1-1.1,2l-7.9,17.6l-0.4-0.1l-0.2-19.9c0-0.9-0.1-1.5-0.2-1.9c-0.1-0.3-0.4-0.6-0.9-0.8
		l0.1-0.5L151.6,14.4z"/>
	<path class="st3" d="M160.8,36.2c-1,2.3-0.9,2.8,0.6,3.4l-0.2,0.5l-5.5-2.3l0.2-0.5c1.5,0.7,2,0.4,2.9-1.9l5.9-13.7
		c1-2.3,0.8-2.8-0.6-3.4l0.2-0.5l5.6,2.4c2.6,1.1,3.1,4.1,2,6.8c-1.1,2.5-3.2,4-5.5,3.7l-0.1,9.1c0,1.5,0.1,2,0.9,2.3l-0.2,0.5
		l-2.6-1.1l0.1-11.2l-0.9-0.4L160.8,36.2z M164.7,29.2c1.9,0.8,3.8-0.4,4.9-2.9c1.1-2.6,0.8-4.7-0.7-5.4c-0.5-0.2-1-0.2-1.5-0.1
		l-3.5,8.1L164.7,29.2z"/>
	<path class="st3" d="M172.5,42.7c-0.3,0.3-0.5,0.6-0.6,0.7c-0.2,0.4-0.3,0.7-0.3,1c0.1,0.3,0.3,0.6,0.8,0.9l-0.3,0.5l-3.4-2.3
		L169,43c0.4,0.3,0.9,0.4,1.3,0.2c0.4-0.2,1.1-0.7,2-1.6l13.6-13.4l0.3,0.2l-7,17.8c-0.3,0.7-0.5,1.2-0.6,1.6
		c-0.1,0.4-0.2,0.7-0.2,0.9c0,0.2,0.1,0.4,0.2,0.5c0.1,0.1,0.3,0.3,0.5,0.5l-0.3,0.5l-4.2-2.9l0.3-0.4c0.4,0.3,0.7,0.4,1,0.3
		c0.3,0,0.5-0.3,0.8-0.6c0.1-0.1,0.2-0.3,0.3-0.5c0.1-0.2,0.2-0.5,0.4-0.9l1.4-3.6l-3.1-2.1L172.5,42.7z M182.1,33.3L182.1,33.3
		l-5.6,5.6l2.7,1.8L182.1,33.3z"/>
	<path class="st3" d="M193.1,65.9l-4.7-6.1l0.4-0.3l5-0.6c2.1-0.2,4.1-0.7,5.8-1.2c1.7-0.6,3.2-1.3,4.5-2.3c1.1-0.8,1.8-1.7,2.2-2.6
		c0.4-0.9,0.3-1.6-0.2-2.3c-0.4-0.5-0.9-0.7-1.7-0.7c-0.7,0-1.6,0.3-2.5,0.8l-0.2-0.3c1.5-0.9,2.9-1.5,4.1-1.6
		c1.2-0.1,2.2,0.2,2.8,1c0.3,0.4,0.5,0.9,0.5,1.4c0.1,0.5,0,1.1-0.2,1.6c-0.2,0.6-0.5,1.1-1,1.7c-0.4,0.6-0.9,1.1-1.6,1.5
		c-0.6,0.5-1.4,0.9-2.2,1.3c-0.9,0.4-1.9,0.8-3,1.1c-1.2,0.3-2.6,0.6-4.2,0.9c-1.6,0.2-3.5,0.4-5.6,0.6l2.9,3.7
		c0.2,0.3,0.5,0.5,0.9,0.6c0.4,0.1,0.9,0,1.5-0.1l0.3,0.3L193.1,65.9z"/>
	<path class="st3" d="M198.5,74.9l-3.8-6.7l0.5-0.3l5,0.1c2.2,0.1,4.1-0.1,5.9-0.4c1.8-0.3,3.4-0.9,4.7-1.6c1.2-0.7,2-1.4,2.5-2.2
		c0.5-0.8,0.5-1.6,0.2-2.3c-0.3-0.5-0.8-0.9-1.5-0.9c-0.7-0.1-1.6,0.1-2.6,0.5l-0.2-0.3c1.6-0.7,3.1-1.1,4.3-1
		c1.3,0.1,2.1,0.5,2.6,1.4c0.2,0.4,0.4,0.9,0.3,1.4c0,0.5-0.2,1.1-0.5,1.6c-0.3,0.5-0.7,1.1-1.2,1.5c-0.5,0.5-1.1,0.9-1.8,1.3
		c-0.7,0.4-1.5,0.7-2.4,1c-0.9,0.3-2,0.5-3.2,0.6c-1.2,0.2-2.6,0.2-4.3,0.2c-1.6,0-3.5-0.1-5.6-0.2l2.3,4.1c0.2,0.3,0.5,0.6,0.8,0.7
		c0.4,0.1,0.9,0.2,1.5,0.1l0.2,0.4L198.5,74.9z"/>
	<path class="st3" d="M205.5,84.8c-0.5,0.1-0.8,0.1-1,0.1c-0.4,0.1-0.7,0.3-0.8,0.6c-0.1,0.3-0.1,0.6,0,1.2l-0.5,0.1l-1.1-3.9
		l0.5-0.1c0.1,0.5,0.4,0.9,0.9,1c0.5,0.1,1.3,0.2,2.5,0.1l19.1-1.2l0.1,0.3l-17,8.9c-0.7,0.3-1.2,0.6-1.5,0.9
		c-0.4,0.2-0.6,0.4-0.7,0.6c-0.1,0.2-0.2,0.4-0.2,0.5c0,0.2,0,0.4,0.1,0.7l-0.5,0.1l-1.3-4.9l0.5-0.1c0.1,0.4,0.3,0.7,0.5,0.9
		c0.2,0.1,0.6,0.2,1,0c0.2,0,0.3-0.1,0.5-0.2c0.2-0.1,0.4-0.2,0.8-0.4l3.4-1.8l-1-3.6L205.5,84.8z M219,83.9L219,83.9l-7.9,0.5
		l0.9,3.2L219,83.9z"/>
	<path class="st3" d="M221.8,105.1l0-0.4c1.8-0.3,3.1-0.8,4.1-1.7c1-0.9,1.4-1.8,1.3-2.8c-0.1-1.3-1.1-2.3-3.1-2.9
		c-1.9-0.6-4.4-0.8-7.6-0.6c-1.3,0.1-2.6,0.3-3.7,0.6c-1.2,0.3-2.2,0.6-3.2,1c-0.9,0.4-1.7,0.9-2.2,1.5c-0.5,0.6-0.8,1.3-0.7,2
		c0.1,1,0.7,1.9,1.8,2.7l6.4-0.5c0.9-0.1,1.5-0.2,1.9-0.5c0.4-0.2,0.5-0.7,0.5-1.2l0.5,0l0.4,5.1l-0.5,0c-0.1-0.6-0.3-1-0.7-1.1
		c-0.4-0.2-1.2-0.2-2.3-0.1l-6.3,0.5c-1.7-1.4-2.7-2.9-2.8-4.5c-0.1-1,0.1-1.9,0.6-2.8c0.5-0.9,1.2-1.7,2.1-2.4
		c0.9-0.7,2-1.3,3.3-1.7c1.3-0.4,2.7-0.7,4.3-0.9c1.4-0.1,2.9-0.1,4.3,0.1c1.4,0.2,2.7,0.5,3.9,1c1.2,0.5,2.1,1.1,2.9,1.8
		c0.7,0.8,1.1,1.6,1.2,2.6c0.1,0.6,0,1.1-0.2,1.6c-0.2,0.5-0.4,0.9-0.7,1.4c-0.2,0.3-0.3,0.5-0.3,0.6c0,0.3,0.5,0.5,1.4,0.4l0,0.3
		L221.8,105.1z"/>
	<path class="st3" d="M221.4,112.3c1.3,0.4,2.5,0.9,3.5,1.5c1,0.6,1.8,1.3,2.3,2.1c0.5,0.8,0.7,1.7,0.6,2.7c-0.1,1-0.5,1.8-1.2,2.4
		c-0.7,0.7-1.6,1.2-2.8,1.5c-1.1,0.4-2.4,0.6-3.8,0.7c-1.4,0.1-2.8,0.1-4.2-0.1c-1.4-0.2-2.8-0.5-4.1-0.9c-1.3-0.4-2.5-0.9-3.5-1.5
		c-1-0.6-1.8-1.3-2.3-2.1c-0.5-0.8-0.7-1.7-0.6-2.7c0.1-0.9,0.5-1.7,1.2-2.4c0.7-0.7,1.6-1.2,2.7-1.6c1.1-0.4,2.4-0.6,3.7-0.7
		c1.4-0.1,2.8-0.1,4.3,0.1C218.7,111.6,220.1,111.9,221.4,112.3 M209.1,113.8c-1.7,0.4-2.6,1.1-2.7,2.3c-0.1,0.7,0.1,1.3,0.5,1.8
		c0.4,0.5,1,0.9,1.9,1.3c0.8,0.4,1.9,0.7,3.1,0.9c1.2,0.3,2.6,0.5,4.3,0.7c3.6,0.4,6.2,0.4,7.9,0.1s2.6-1.1,2.7-2.3
		c0.1-1.2-0.6-2.2-2.2-2.9c-1.6-0.7-4.1-1.3-7.6-1.7C213.4,113.5,210.8,113.4,209.1,113.8"/>
	<path class="st3" d="M211.1,126.2l-0.1,0.4c-1.9-0.5-3.5-0.5-4.7-0.1c-1.2,0.4-2,1-2.2,1.9c-0.2,0.6,0,1.3,0.5,1.9
		c0.5,0.6,1.3,1.1,2.2,1.3c0.6,0.2,1.2,0.3,1.8,0.3c0.6,0,1.2-0.1,1.8-0.3c0.3-0.1,0.6-0.2,0.9-0.4c0.3-0.2,0.9-0.4,1.5-0.8
		c0.7-0.4,1.3-0.7,1.8-0.9c0.5-0.2,0.9-0.4,1.3-0.5c0.8-0.2,1.5-0.4,2.3-0.4c0.8,0,1.6,0.1,2.4,0.4c1.5,0.5,2.7,1.2,3.5,2.1
		c0.8,0.9,1,1.9,0.7,3c-0.1,0.4-0.3,0.8-0.5,1.1c-0.2,0.3-0.5,0.6-0.9,0.9c-0.3,0.3-0.4,0.4-0.5,0.5c-0.1,0.4,0.2,0.7,0.8,1.1
		l-0.1,0.4l-6.8-2l0.1-0.4c1,0.3,1.8,0.4,2.6,0.4c0.8,0,1.5-0.1,2-0.3c0.6-0.2,1-0.5,1.3-0.8c0.3-0.3,0.6-0.6,0.7-1
		c0.2-0.6,0.1-1.2-0.4-1.7s-1-0.9-1.8-1.2c-1.1-0.3-2.2-0.3-3.3,0c-0.5,0.2-1.4,0.6-2.7,1.3c-0.7,0.4-1.4,0.7-1.9,1
		c-0.5,0.2-1,0.4-1.5,0.6c-0.7,0.2-1.5,0.3-2.3,0.3c-0.8,0-1.6-0.1-2.4-0.4c-0.8-0.2-1.5-0.6-2.1-1c-0.6-0.4-1.2-0.9-1.6-1.4
		c-0.4-0.5-0.7-1.1-0.8-1.6c-0.1-0.6-0.1-1.1,0-1.7c0.1-0.4,0.3-0.7,0.5-1s0.5-0.5,0.8-0.8c0.4-0.3,0.6-0.6,0.6-0.8
		c0.1-0.4-0.2-0.8-0.8-1.1l0.1-0.4L211.1,126.2z"/>
	<path class="st3" d="M201.8,141.2c-1.1-0.6-1.9-0.8-2.3-0.7c-0.4,0.1-0.8,0.5-1.2,1.2l-0.5-0.2l2.6-5.3l0.5,0.2
		c-0.4,0.7-0.4,1.3-0.2,1.7c0.2,0.4,0.9,0.8,2,1.4l15.3,7.6l0.7-1.4c0.4-0.8,0.4-1.5,0.1-2.1c-0.3-0.6-1.1-1.2-2.3-1.8l0.2-0.3
		l4.4,2.2l-4.8,9.8l-4.4-2.2l0.2-0.3c1.2,0.6,2.2,0.9,2.9,0.8c0.7-0.1,1.2-0.5,1.6-1.4l0.7-1.4L201.8,141.2z"/>
	<path class="st3" d="M208,154.3c1,1,1.7,2,2.3,3.1c0.6,1,0.9,2,1,3c0.1,1-0.2,1.8-0.7,2.6c-0.6,0.8-1.3,1.3-2.3,1.5
		c-0.9,0.2-2,0.2-3.2,0c-1.2-0.2-2.4-0.7-3.6-1.3c-1.2-0.6-2.4-1.3-3.6-2.1c-1.2-0.9-2.2-1.8-3.2-2.8c-1-1-1.7-2-2.3-3
		c-0.6-1-0.9-2-1-3c-0.1-1,0.2-1.8,0.7-2.6c0.5-0.7,1.3-1.2,2.2-1.5c0.9-0.2,2-0.3,3.1,0c1.2,0.2,2.4,0.6,3.6,1.2
		c1.3,0.6,2.5,1.3,3.7,2.2C206,152.4,207,153.3,208,154.3 M196.5,149.6c-1.6-0.5-2.8-0.3-3.5,0.7c-0.4,0.5-0.5,1.1-0.4,1.8
		c0.1,0.6,0.5,1.3,1,2.1c0.6,0.7,1.3,1.5,2.3,2.3c0.9,0.8,2.1,1.7,3.4,2.7c2.9,2.1,5.2,3.4,6.8,3.9c1.6,0.5,2.8,0.3,3.5-0.7
		c0.7-1,0.6-2.2-0.5-3.6s-3-3.1-5.8-5.2C200.4,151.4,198.2,150.1,196.5,149.6"/>
	<path class="st3" d="M181.3,166.1c-0.6-0.7-1-1.1-1.5-1.2c-0.4-0.1-0.8,0-1.3,0.3l-0.3-0.4l3.7-3.1l0.3,0.4
		c-0.4,0.4-0.6,0.7-0.5,1.2c0.1,0.4,0.4,1,0.9,1.6l9.2,11.1c0.5,0.6,0.9,1,1.2,1.2c0.3,0.2,0.5,0.2,0.7,0c0.1-0.1,0.2-0.2,0.2-0.4
		c0.1-0.2,0.1-0.3,0.1-0.5l0.4,0.3l-0.7,4l-0.3,0.2L181.3,166.1z"/>
	<path class="st3" d="M182.6,179c0.8,0.6,1.5,1.3,2,2.2c0.8,1.3,1.2,2.5,1.1,3.7c-0.1,1.2-0.6,2-1.5,2.6c-0.9,0.6-1.9,0.6-3.1,0
		c-0.5-0.2-0.9-0.5-1.3-0.9c-0.4-0.4-0.8-0.8-1-1.3c-0.5-0.8-0.8-1.7-0.9-2.6c-0.1-0.9,0-2,0.3-3.4c-1.6-0.5-2.8-1-3.8-1.7
		c-0.9-0.6-1.7-1.5-2.4-2.5c-0.4-0.7-0.7-1.3-0.9-2c-0.2-0.7-0.3-1.3-0.3-2c0-0.6,0.2-1.2,0.4-1.7c0.2-0.5,0.6-0.9,1-1.2
		c0.9-0.6,2-0.6,3.1-0.1c1.2,0.5,2.2,1.4,3,2.7c1.1,1.8,1.5,4,1,6.5C180.8,177.9,181.8,178.4,182.6,179 M178.6,174.8
		c-0.2-0.8-0.6-1.7-1.2-2.6c-0.8-1.3-1.6-2.2-2.5-2.7c-0.8-0.5-1.6-0.6-2.2-0.2c-0.5,0.3-0.8,0.9-0.8,1.6c0,0.8,0.3,1.6,0.8,2.4
		c0.3,0.5,0.6,0.8,0.9,1.2c0.3,0.3,0.7,0.6,1.2,0.9c0.5,0.3,1,0.6,1.6,0.8c0.6,0.3,1.4,0.5,2.3,0.8
		C178.8,176.3,178.8,175.6,178.6,174.8 M180.2,184.6c0.6,0.9,1.2,1.6,1.9,2c0.7,0.4,1.3,0.4,1.8,0.1c0.5-0.3,0.7-0.8,0.7-1.5
		c0-0.7-0.2-1.5-0.7-2.3c-0.4-0.7-1-1.3-1.8-1.8c-0.8-0.5-1.8-1-3.1-1.5C178.7,181.2,179.1,182.9,180.2,184.6"/>
	<path class="st3" d="M168.6,194.8c0.6-0.3,1-0.8,1.4-1.5c0.3-0.7,0.6-1.5,0.7-2.5c0.1-1,0.1-2,0-3.2c-0.1-1.2-0.4-2.4-0.8-3.7
		l-0.1,0c-0.2,1.3-0.8,2.1-1.7,2.5c-0.9,0.4-1.8,0.2-2.9-0.6c-1-0.8-1.9-1.9-2.6-3.5c-0.4-0.9-0.7-1.8-0.9-2.7
		c-0.2-0.9-0.3-1.8-0.3-2.7c0-0.8,0.1-1.6,0.4-2.2c0.3-0.6,0.7-1.1,1.3-1.3c1.1-0.5,2.4-0.1,3.8,1.1c1.4,1.2,2.6,3.1,3.7,5.5
		c0.8,1.8,1.3,3.5,1.6,5.2c0.3,1.7,0.4,3.2,0.2,4.6c-0.2,1.4-0.5,2.6-1.1,3.5c-0.6,1-1.2,1.6-2.1,2l-0.2,0l-0.2,0.1L168.6,194.8z
		 M169,181.6c-0.1-0.4-0.3-0.8-0.6-1.4c-1-2.2-1.9-3.8-2.8-4.8s-1.7-1.4-2.4-1.1c-0.5,0.2-0.8,0.8-0.8,1.7c0,0.9,0.4,2,1,3.3
		c0.9,1.9,1.7,3.4,2.6,4.4c0.9,1,1.6,1.3,2.3,1c0.6-0.3,1-0.9,1.2-1.9C169.3,182.4,169.2,182,169,181.6"/>
	<path class="st3" d="M158.9,181.2l0.7,2.5l-2,15.2l-1.1,0.3l-3.8-13.8l-1.5,0.4l-0.6-2.3l1.5-0.4l-1.4-5.3l1.8-0.5l1.4,5.3
		L158.9,181.2z M157.2,194.9L157.2,194.9l1.4-11.2l-4.2,1.2L157.2,194.9z"/>
	<g class="st4">
		<text transform="matrix(1 0 0 1 0 245.38)" class="st2 st5 st6">Croce Rossa Italiana</text>
	</g>
	<polygon class="st3" points="132.8,179.6 134.9,188.3 141.5,188.3 136.1,193.7 138.2,202.4 132.8,197 127.5,202.4 129.6,193.7 
		124.2,188.3 130.8,188.3 	"/>
</g>
</svg>
