<?xml version="1.0" encoding="utf-8"?>
<!-- Generator: Adobe Illustrator 21.0.0, SVG Export Plug-In . SVG Version: 6.00 Build 0)  -->
<svg version="1.1" id="Layer_1" xmlns="http://www.w3.org/2000/svg" xmlns:xlink="http://www.w3.org/1999/xlink" x="0px" y="0px"
	 viewBox="0 0 298.8 195.4" style="enable-background:new 0 0 298.8 195.4;" xml:space="preserve">
<style type="text/css">
	.st0{fill:#00468B;}
</style>
<path class="st0" d="M13.6,179.5c-1.4-0.8-2.7-1.2-4.4-1.2c-4.1,0-6.8,3-6.8,7.7c0,4.5,2.9,7.8,7,7.8c1.6,0,2.9-0.4,4.5-1.5l0.1,2.4
	c-1.5,0.4-3,0.7-4.6,0.7c-5.5,0-9.2-3.7-9.2-9c0-5.5,4.3-9.6,9.9-9.6c1.4,0,2.6,0.2,3.8,0.7L13.6,179.5z"/>
<path class="st0" d="M20,188.8l-1.4,3.4c-0.3,0.6-0.4,1.2-0.4,1.8c0,0.3,0,0.6,0.2,1h-3.3c0.5-0.8,0.9-1.6,1.3-2.7l7-16.3l7.2,16.4
	c0.6,1.3,0.8,1.8,1.3,2.5h-3.4c0.1-0.4,0.2-0.7,0.2-1c0-0.4-0.2-1-0.5-1.7l-1.5-3.6H20z M23.4,180.8l-2.8,6.5h5.5L23.4,180.8z"/>
<path class="st0" d="M37.5,192.4c0,1.4,0.1,1.9,0.5,2.6h-3.2c0.5-0.8,0.5-1.2,0.5-2.6v-13.9H35c-2,0-3.1,0.2-4.9,0.9l0.9-2.4h12
	l-0.9,2.4c-1.1-0.7-2.3-0.9-4.7-0.9V192.4z"/>
<path class="st0" d="M48.5,186.5v5.9c0,1.4,0.1,1.9,0.5,2.6h-3.2c0.4-0.8,0.5-1.2,0.5-2.6v-12.7c0-1.4-0.1-1.8-0.5-2.6H49
	c-0.5,0.8-0.5,1.2-0.5,2.6v5.4H57v-5.4c0-1.4-0.1-1.8-0.5-2.6h3.2c-0.5,0.8-0.5,1.2-0.5,2.6v12.7c0,1.4,0.1,1.9,0.5,2.6h-3.2
	c0.4-0.8,0.5-1.2,0.5-2.6v-5.9H48.5z"/>
<path class="st0" d="M71.2,195.4c-5.2,0-8.8-3.7-8.8-9.1c0-5.5,4-9.6,9.6-9.6c5.2,0,8.6,3.6,8.6,9C80.7,191.4,76.7,195.4,71.2,195.4
	 M71.5,178.3c-4,0-6.8,3-6.8,7.4c0,4.5,3.1,8.1,7.1,8.1c3.8,0,6.5-3.1,6.5-7.5C78.4,181.7,75.5,178.3,71.5,178.3"/>
<path class="st0" d="M82.9,195c0.4-0.8,0.5-1.2,0.5-2.6v-12.7c0-1.4-0.1-1.8-0.5-2.6h3.2c-0.5,0.8-0.5,1.2-0.5,2.6v13.9h2.2
	c2,0,3.2-0.2,5-1.1l-1.2,2.6H82.9z"/>
<path class="st0" d="M95.3,195c0.4-0.8,0.5-1.2,0.5-2.6v-12.7c0-1.4-0.1-1.8-0.5-2.6h3.2c-0.5,0.8-0.5,1.2-0.5,2.6v12.7
	c0,1.4,0.1,1.8,0.5,2.6H95.3z"/>
<path class="st0" d="M115.1,179.5c-1.4-0.8-2.7-1.2-4.4-1.2c-4.1,0-6.8,3-6.8,7.7c0,4.5,2.9,7.8,7,7.8c1.6,0,2.9-0.4,4.5-1.5
	l0.1,2.4c-1.5,0.4-3,0.7-4.6,0.7c-5.5,0-9.2-3.7-9.2-9c0-5.5,4.3-9.6,9.9-9.6c1.4,0,2.6,0.2,3.8,0.7L115.1,179.5z"/>
<path class="st0" d="M128.2,192.4c0,1.4,0.1,1.8,0.5,2.6h-3.2c0.5-0.8,0.5-1.2,0.5-2.6v-12.7c0-1.4-0.1-1.8-0.5-2.6h3.5
	c2.3,0,3.7,0.3,4.9,1.2c1.2,0.9,1.8,2.1,1.8,3.4c0,2.2-1.6,4-4.5,5l0.5,0.6c2.3,3.1,4.3,5.4,5.7,6.9c0.1,0.1,0.3,0.2,0.5,0.5
	c-0.5,0.3-0.9,0.4-1.3,0.4c-0.7,0-1.9-1-3.9-3.2l-4.6-5.1V192.4z M133.4,181.9c0-1.6-1-2.8-2.6-3.2c-0.8-0.2-1.2-0.2-2.4-0.2h-0.2
	v7.3C131.3,185.8,133.4,184.2,133.4,181.9"/>
<path class="st0" d="M148.3,185l-1.3,2.2c-1-0.7-1.8-0.9-3.5-0.9h-1.6v7.3h2.5c2,0,3.1-0.2,5-0.8l-1,2.3h-9.1
	c0.4-0.8,0.5-1.2,0.5-2.6v-12.7c0-1.4-0.1-1.8-0.5-2.6h9.9l-1.2,2.1c-0.8-0.5-1.8-0.7-3.6-0.7h-2.4v6.5H148.3z"/>
<path class="st0" d="M151.9,195c0.4-0.8,0.5-1.2,0.5-2.6v-12.7c0-1.4-0.1-1.8-0.5-2.6h3.2c-0.5,0.8-0.5,1.2-0.5,2.6v13.9h2.2
	c2,0,3.2-0.2,5-1.1l-1.2,2.6H151.9z"/>
<path class="st0" d="M164.2,195c0.4-0.8,0.5-1.2,0.5-2.6v-12.7c0-1.4-0.1-1.8-0.5-2.6h3.2c-0.5,0.8-0.5,1.2-0.5,2.6v12.7
	c0,1.4,0.1,1.8,0.5,2.6H164.2z"/>
<path class="st0" d="M179.7,185l-1.3,2.2c-1-0.7-1.8-0.9-3.5-0.9h-1.6v7.3h2.5c2,0,3.1-0.2,5-0.8l-1.1,2.3h-9.1
	c0.4-0.8,0.5-1.2,0.5-2.6v-12.7c0-1.4-0.1-1.8-0.5-2.6h9.9l-1.2,2.1c-0.8-0.5-1.8-0.7-3.6-0.7h-2.4v6.5H179.7z"/>
<path class="st0" d="M186.2,192.4c0,1.4,0.1,1.9,0.5,2.6h-3.2c0.4-0.8,0.5-1.2,0.5-2.6v-12.7c0-1.4-0.1-1.8-0.5-2.6h9.9l-1.3,2.3
	c-0.8-0.6-1.8-0.9-3.1-0.9h-2.8v6.6h6.3l-1.2,2.1c-0.6-0.5-1.5-0.7-2.8-0.7h-2.3V192.4z"/>
<path class="st0" d="M210.9,179.4c-1.2-0.8-2.2-1.1-3.4-1.1c-1.8,0-2.9,1-2.9,2.7c0,0.7,0.2,1.5,0.7,2c0.5,0.6,1.1,1.1,2.6,2
	c1.6,1,2.1,1.3,2.6,1.9c0.8,0.8,1.3,2,1.3,3.2c0,3-2.6,5.3-5.9,5.3c-1.2,0-2.2-0.2-3.3-0.7V192c1.4,1.3,2.4,1.7,3.7,1.7
	c1.9,0,3.4-1.5,3.4-3.5c0-1.6-0.4-2-3.1-3.8c-1.4-0.9-2.1-1.5-2.7-2.2c-0.8-0.9-1.3-1.9-1.3-3c0-2.7,2.3-4.7,5.7-4.7
	c1,0,1.9,0.1,2.8,0.4V179.4z"/>
<path class="st0" d="M223.5,185l-1.3,2.2c-1-0.7-1.8-0.9-3.5-0.9h-1.6v7.3h2.5c2,0,3.1-0.2,5-0.8l-1.1,2.3h-9.1
	c0.4-0.8,0.5-1.2,0.5-2.6v-12.7c0-1.4-0.1-1.8-0.5-2.6h9.9l-1.2,2.1c-0.8-0.5-1.8-0.7-3.6-0.7H217v6.5H223.5z"/>
<path class="st0" d="M229.6,192.4c0,1.4,0.1,1.8,0.5,2.6h-3.2c0.5-0.8,0.5-1.2,0.5-2.6v-12.7c0-1.4-0.1-1.8-0.5-2.6h3.5
	c2.3,0,3.7,0.3,4.9,1.2c1.2,0.9,1.8,2.1,1.8,3.4c0,2.2-1.6,4-4.5,5l0.5,0.6c2.3,3.1,4.3,5.4,5.7,6.9c0.1,0.1,0.3,0.2,0.5,0.5
	c-0.5,0.3-0.9,0.4-1.3,0.4c-0.7,0-1.9-1-3.9-3.2l-4.6-5.1V192.4z M234.9,181.9c0-1.6-1-2.8-2.6-3.2c-0.8-0.2-1.2-0.2-2.4-0.2h-0.2
	v7.3C232.8,185.8,234.9,184.2,234.9,181.9"/>
<path class="st0" d="M244.8,195l-5.3-14.5c-0.6-1.6-1.1-2.5-1.7-3.5h3.2c0,0.3,0,0.4,0,0.6c0,0.7,0.2,1.5,0.6,2.7l4.1,11.5l4-11.3
	c0.4-0.9,0.5-1.7,0.5-2.4c0-0.4,0-0.6-0.1-1.1h3.1c-0.5,0.9-0.9,1.8-1.6,3.6l-5.3,14.3H244.8z"/>
<path class="st0" d="M255.2,195c0.4-0.8,0.5-1.2,0.5-2.6v-12.7c0-1.4-0.1-1.8-0.5-2.6h3.2c-0.5,0.8-0.5,1.2-0.5,2.6v12.7
	c0,1.4,0.1,1.8,0.5,2.6H255.2z"/>
<path class="st0" d="M274.4,179.5c-1.4-0.8-2.7-1.2-4.4-1.2c-4.1,0-6.8,3-6.8,7.7c0,4.5,2.9,7.8,7,7.8c1.6,0,2.9-0.4,4.5-1.5
	l0.1,2.4c-1.5,0.4-3,0.7-4.6,0.7c-5.5,0-9.2-3.7-9.2-9c0-5.5,4.3-9.6,9.9-9.6c1.4,0,2.6,0.2,3.8,0.7L274.4,179.5z"/>
<path class="st0" d="M286,185l-1.3,2.2c-1-0.7-1.8-0.9-3.5-0.9h-1.6v7.3h2.5c2,0,3.1-0.2,5-0.8L286,195h-9.1
	c0.4-0.8,0.5-1.2,0.5-2.6v-12.7c0-1.4-0.1-1.8-0.5-2.6h9.9l-1.2,2.1c-0.8-0.5-1.8-0.7-3.6-0.7h-2.4v6.5H286z"/>
<path class="st0" d="M297.6,179.4c-1.2-0.8-2.2-1.1-3.4-1.1c-1.8,0-2.9,1-2.9,2.7c0,0.7,0.2,1.5,0.7,2c0.5,0.6,1.1,1.1,2.6,2
	c1.6,1,2.1,1.3,2.6,1.9c0.8,0.8,1.3,2,1.3,3.2c0,3-2.6,5.3-5.9,5.3c-1.2,0-2.2-0.2-3.3-0.7V192c1.4,1.3,2.4,1.7,3.7,1.7
	c1.9,0,3.4-1.5,3.4-3.5c0-1.6-0.4-2-3.1-3.8c-1.4-0.9-2.1-1.5-2.7-2.2c-0.8-0.9-1.3-1.9-1.3-3c0-2.7,2.3-4.7,5.7-4.7
	c1,0,1.9,0.1,2.8,0.4V179.4z"/>
<path class="st0" d="M186.5,88.9c-7.1-4-14-5.6-22.6-5.6c-21,0-34.2,14.4-34.2,36.5c0,21.6,14.2,36.8,34.9,36.8c8.3,0,15-2,22.9-7
	V161c-7.6,2-15.3,3.2-23.3,3.2c-27.6,0-46.7-17.5-46.7-42.8c0-26.1,21.5-45.7,50.1-45.7c7.1,0,13.1,1.2,18.9,3.2V88.9z"/>
<path class="st0" d="M206.6,118.9V84.2h1.1c6.1,0,8.2,0.1,12.1,1c8.2,1.6,13.4,7.4,13.4,15.1C233.2,111.3,222.4,118.8,206.6,118.9
	 M238.6,145.4c-9.6-10-16.5-22.1-16.5-22.1c14.7-4.9,22.8-13.3,22.8-23.8c0-6.5-3.3-12.3-9.3-16.3c-6.3-4.1-13.2-5.7-24.9-5.7H193
	c2.3,3.7,2.7,5.9,2.7,12.4v60.3c0,6.6-0.4,8.7-2.7,12.4h16.3c-2.2-3.8-2.7-5.8-2.7-12.4v-26.8c0,0,16.1,20.4,19.8,24.3
	c6.7,7.1,19.6,19.2,41.7,17.7c16.9-1.1,29.8-10.9,29.8-25c0-5.6-2.3-11.1-6.4-15.1c-2.7-2.7-5.2-4.4-13.2-9
	c-7.5-4.5-10.3-6.6-12.9-9.7c-2.2-2.4-3.4-5.9-3.4-9.3c0-7.8,5.7-12.8,14.7-12.8c6.1,0,11.2,1.7,17.2,5.3V78.6
	c-4.5-1.2-9.1-1.8-14-1.8c-16.9,0-28.7,9.2-28.7,22.2c0,5.1,2.3,10.1,6.5,14.2c3.1,3.2,6.6,5.9,13.9,10.2
	c12.7,7.4,15.6,10.1,15.7,17.9c0,8.2-7.5,16.3-17,17.2C258.4,159.7,248.3,155.5,238.6,145.4"/>
<path class="st0" d="M97.2,0.6C96.8,1,95.6,1.4,94,2.3c-4.2,2.3-9.5,5.7-18.6,13.2C55.9,31.7,28.9,59.7,24.9,98.3
	c-4,38,7.1,52,18.3,54.7c11.2,2.7,34.9-7.4,46.6-29.8c12.8-24.6,7.2-55.5,5-64.4c-1.8-7.3-3.3-11.8-3.7-19
	c-0.6-10.6,5.9-24.9,9.5-29.9c2-2.7,5.7-3.8,7.5,1.5c7.6,23.2,12.8,73.3-10.5,111.7c-23,38-51.4,46.2-69.8,41.8
	C12,161.1-2.6,144.7,1.1,112.6c3.7-32.2,19.2-53.9,30.1-66.5C60.2,12.5,92.5,0.6,96.9,0C97.5-0.1,97.6,0.4,97.2,0.6"/>
<path class="st0" d="M60.2,114.7c-10.3,2.3-15.7,7.9-17.7,10.4c-4.8,5.8-7.8,15.5-1.7,20.7c5.9,5,13.5,1.1,18.3-2.6
	c4-3.1,9.7-9.7,14.3-18.4c3.8-7.2,6.4-13.2,7.2-16.5c0.3-1.4,0.5-2.5,0.2-3.2c-0.4-1.2-1.5-1.2-2.5-0.1c-0.3,0.4-0.7,0.8-1.1,1.3
	C74.9,109.4,70.4,112.4,60.2,114.7"/>
<path class="st0" d="M298.8,161.5c0,1-0.4,1.9-1.1,2.7c-0.7,0.7-1.6,1.1-2.7,1.1c-1,0-1.9-0.4-2.7-1.1c-0.7-0.7-1.1-1.6-1.1-2.7
	c0-1,0.4-1.9,1.1-2.7c0.7-0.7,1.6-1.1,2.7-1.1c1,0,1.9,0.4,2.7,1.1C298.4,159.6,298.8,160.5,298.8,161.5 M297.9,161.5
	c0-0.8-0.3-1.5-0.8-2.1c-0.6-0.6-1.2-0.9-2-0.9c-0.8,0-1.5,0.3-2,0.9c-0.6,0.6-0.8,1.3-0.8,2.1c0,0.8,0.3,1.5,0.8,2.1
	c0.6,0.6,1.2,0.9,2,0.9c0.8,0,1.5-0.3,2-0.9C297.6,163,297.9,162.3,297.9,161.5 M295.5,163.5v-0.7c0-0.3-0.1-0.5-0.2-0.7
	c-0.1-0.2-0.3-0.3-0.4-0.3h-0.3v1.8h-0.5h-0.5v-4h1.6c0.4,0,0.7,0.1,0.9,0.2c0.2,0.2,0.3,0.4,0.3,0.6v0.2v0.2c0,0.2-0.1,0.4-0.2,0.5
	c-0.1,0.1-0.3,0.2-0.5,0.3c0.3,0.1,0.5,0.4,0.6,0.6c0.1,0.3,0.2,0.5,0.2,0.7v0.7H295.5z M295.6,160.7L295.6,160.7v-0.2
	c0-0.1,0-0.2-0.1-0.3c-0.1-0.1-0.2-0.1-0.3-0.1h-0.3h-0.3v1.1h0.6c0.1,0,0.2,0,0.3-0.1C295.6,161,295.6,160.9,295.6,160.7"/>
</svg>
