<?xml version="1.0" encoding="utf-8"?>
<!-- Generator: Adobe Illustrator 21.0.0, SVG Export Plug-In . SVG Version: 6.00 Build 0)  -->
<svg version="1.1" id="Layer_1" xmlns="http://www.w3.org/2000/svg" xmlns:xlink="http://www.w3.org/1999/xlink" x="0px" y="0px"
	 viewBox="0 0 205.2 56.7" style="enable-background:new 0 0 205.2 56.7;" xml:space="preserve">
<style type="text/css">
	.st0{fill:#438AC9;}
</style>
<path class="st0" d="M28.3,56.7C12.7,56.7,0,44,0,28.3C0,12.7,12.7,0,28.3,0C44,0,56.7,12.7,56.7,28.3C56.7,44,44,56.7,28.3,56.7
	 M28.2,17.2c0,0,2.3,2.4,2.3,4.4c0,2.1-1.6,2.6-2.2,2.6c0,0-0.1,0-0.1,0h0c0,0-0.1,0-0.1,0c-0.6,0-2.2-0.5-2.2-2.6
	C25.9,19.6,28.2,17.2,28.2,17.2 M6.9,29.9h2.6v-4.8h4.3v-2H9.5v-2.7H14v-2H6.9V29.9z M30.6,17.5h2.7L30.1,6.1h-3.5l-3.3,11.4h2.5
	l0.7-2.6h3.3L30.6,17.5z M29.4,13h-2.4l1.1-5h0.2L29.4,13z M41.4,24.2c0,3.4,1.6,5.9,4.8,5.9c3.3,0,4.9-2.6,4.9-5.9
	c0-3.4-1.6-5.9-4.9-5.9C43,18.3,41.4,20.9,41.4,24.2 M44.2,24.2c0-2.2,0.5-4,2.1-4c1.6,0,2.1,1.8,2.1,4c0,2.2-0.6,4-2.1,4
	C44.7,28.2,44.2,26.4,44.2,24.2 M27.1,53.5c0.2-1.1,0.3-2.9,0.3-5v-0.4c0-2.9-0.1-3.9-2.1-4.6c-3-1-4.2-4.4-3.6-8.6L11.7,9.4
	c-5.2,4.6-8.6,11.4-8.6,18.9C3.1,41.8,13.8,52.9,27.1,53.5 M28.3,37.2c-4-0.9-5.5-4.6-5.5-7.8L14,7.6c-0.6,0.4-1.1,0.8-1.7,1.3
	C14.3,13.5,23,34.2,23,34.2c1.5,3.7,4.4,2.5,5,5.6c0.2,0.7,0.2,1.1,0.2,1.1h0.3c0,0,0-0.3,0.2-1.1c0.7-3.1,3.5-1.8,5-5.6
	c0,0,8.7-20.7,10.7-25.3c-0.5-0.4-1.1-0.9-1.7-1.3l-8.8,21.7C33.9,32.6,32.4,36.2,28.3,37.2L28.3,37.2z M28.3,30.6
	c-1.7-0.4-3.8-2.1-4.1-4.2c-0.1-0.8-0.2-1.1-0.1-2.7L16.4,6.1c-0.6,0.3-1.2,0.7-1.8,1.1c2.3,5.2,9.4,21.1,9.4,21.1
	c1.1,2.4,3.1,2.4,3.8,3.8c0.4,0.8,0.4,1.6,0.5,1.6h0.3c0-0.1,0-0.8,0.5-1.6c0.7-1.4,2.6-1.5,3.8-3.8c0,0,7.1-15.9,9.4-21.1
	c-0.6-0.4-1.2-0.8-1.8-1.1l-7.7,17.5c0.1,1.6,0,1.9-0.1,2.7C32.2,28.5,30.1,30.2,28.3,30.6L28.3,30.6z M28.4,27.6l0.1-1
	c0.5-2.2,2.1-1.9,3.2-4.1c0,0,0,0,0,0c0-0.1,5.5-11.8,7.8-16.7c-3.4-1.7-7.2-2.7-11.2-2.7c-4,0-7.9,1-11.2,2.7
	c2.3,4.9,7.8,16.7,7.8,16.7c0,0,0,0,0,0c1.1,2.2,2.7,1.9,3.2,4.1l0.1,1H28.4z M53.6,28.3c0-7.5-3.3-14.3-8.6-18.9L34.9,35.1
	c0.7,4.2-0.6,7.6-3.6,8.6c-2,0.6-2.1,1.6-2.1,4.6v0.4c0,2.1,0.2,3.9,0.3,5C42.9,52.9,53.6,41.8,53.6,28.3 M11.1,35.8
	c0,0,0.4,0.8,0.7,1.4c0.3,0.6,0.7,1.2,0.7,1.2l-0.7,0.4c0,0-0.5-0.8-1-1.8c-0.1,0.1-0.9,0.5-1.1,0.5c0.1,0.1,0.9,1.7,0.9,1.7
	L10,39.6c0,0-0.8-1.6-0.9-1.7c-0.1,0.1-1.9,1-1.9,1L6.8,38L11.1,35.8L11.1,35.8z M13.8,40.1l0.6,0.7l-3.7,3.1l-0.6-0.7L13.8,40.1
	L13.8,40.1z M17.2,43.3l0.7,0.5L17,48.9l-0.8-0.5c0,0,0.2-1,0.2-1.1c0,0-0.5-0.3-1-0.7c-0.5-0.3-0.9-0.7-1-0.8c-0.1,0.1-1,0.6-1,0.6
	l-0.7-0.6L17.2,43.3L17.2,43.3z M15,45.5c0.1,0.1,0.4,0.3,0.7,0.6c0.3,0.2,0.7,0.4,0.8,0.5c0-0.2,0.4-1.9,0.5-2.2
	C16.7,44.5,15.2,45.4,15,45.5 M20.2,45.2c0,0,0.8,0.4,1.9,0.8c0.8,0.3,1.4,0.5,2,0.6l-0.2,0.7c0,0-0.6-0.1-1.6-0.4
	c-0.1,0.2-1.3,3.8-1.3,3.8l-0.9-0.3c0,0,1.3-3.6,1.3-3.8c-0.9-0.3-1.5-0.7-1.5-0.7L20.2,45.2z M35.4,46.2c0.3,0.2,0.5,0.5,0.7,0.9
	c0.1,0.2,0.1,0.3,0.1,0.5c0,0.7-0.5,1.2-1.3,1.5c0,0-0.4,0.1-0.6,0.2c0.1,0.2,0.6,1.8,0.6,1.8L34,51.2l-1.4-4.6l1.3-0.4
	C34.4,46,35,46,35.4,46.2 M33.6,47c0,0.1,0.4,1.3,0.4,1.4c0.2-0.1,0.6-0.2,0.6-0.2c0.1,0,0.4-0.2,0.6-0.4c0-0.1,0.1-0.2,0.1-0.3
	c0-0.1,0-0.2,0-0.2c-0.1-0.2-0.2-0.3-0.3-0.4c-0.3-0.1-0.6-0.1-0.8,0C34.1,46.9,33.7,47,33.6,47 M38.2,44.2l4.2,3l-0.7,0.5
	c0,0-0.8-0.6-0.9-0.7c-0.1,0-0.5,0.3-0.9,0.6c-0.4,0.3-0.9,0.5-1,0.5c0,0.1,0.2,1.1,0.2,1.1l-0.8,0.4l-0.7-5.1L38.2,44.2z
	 M38.7,47.4c0.1-0.1,0.4-0.2,0.8-0.4c0.3-0.2,0.5-0.3,0.6-0.4c-0.2-0.1-1.5-1.1-1.7-1.3C38.4,45.6,38.7,47.2,38.7,47.4 M43,40
	l3.6,3.2L46,44c0,0-3.4-1-3.9-1.1c0.4,0.4,2.5,2.6,2.5,2.6L43.9,46l-3.4-3.5l0.8-0.7c0,0,3.3,1,3.8,1.1c-0.4-0.4-2.7-2.3-2.7-2.3
	L43,40z M44.6,37.5l4.2,2.4l-0.4,0.7l-4.2-2.4L44.6,37.5z M46.5,33.5l0.7,0.4L47.1,34c-0.2,0.3-0.3,0.4-0.5,0.8
	c-0.1,0.1-0.1,0.4,0,0.6c0.1,0.1,0.2,0.2,0.3,0.2c0.3,0.1,0.6-0.2,0.9-0.5c0.4-0.5,1-1,1.9-0.7c0.9,0.3,1.2,1.1,0.8,2.2
	c-0.1,0.3-0.3,0.6-0.5,0.9l0,0.1l-0.7-0.3l0.1-0.1c0.1-0.1,0.4-0.5,0.5-0.8c0.1-0.3,0.1-0.9-0.4-1c-0.4-0.1-0.7,0.2-1.1,0.5
	c-0.4,0.4-0.9,1-1.7,0.7c-0.4-0.1-0.6-0.3-0.8-0.6c-0.2-0.4-0.2-0.8,0-1.3C46,34.2,46.2,33.8,46.5,33.5L46.5,33.5z"/>
<polygon class="st0" points="67.2,6 72.8,6 72.8,7.6 69.2,7.6 69.2,10.6 72.7,10.6 72.7,12.3 69.2,12.3 69.2,17.1 67.2,17.1 "/>
<path class="st0" d="M77.3,8.8c1.7,0,3.6,0.9,3.6,4.2c0,3.5-1.9,4.3-3.6,4.3c-1.7,0-3.6-0.8-3.6-4.3C73.7,9.6,75.6,8.8,77.3,8.8
	 M77.3,15.8c1.3,0,1.6-1.5,1.6-2.8s-0.3-2.8-1.6-2.8c-1.3,0-1.6,1.5-1.6,2.8S76,15.8,77.3,15.8"/>
<path class="st0" d="M85.9,8.8c1.7,0,3.6,0.9,3.6,4.2c0,3.5-1.9,4.3-3.6,4.3c-1.7,0-3.6-0.8-3.6-4.3C82.3,9.6,84.2,8.8,85.9,8.8
	 M85.9,15.8c1.3,0,1.6-1.5,1.6-2.8s-0.3-2.8-1.6-2.8c-1.3,0-1.6,1.5-1.6,2.8S84.6,15.8,85.9,15.8"/>
<path class="st0" d="M97.8,5.1v10.6c0,0.6,0,1.1,0.1,1.4H96c0-0.2-0.1-0.7-0.1-1.3h0c-0.3,0.7-0.9,1.4-2.2,1.4c-2,0-2.9-2-2.9-4.2
	c0-2.7,1.1-4.3,2.8-4.3c1.2,0,1.8,0.7,2.1,1.3h0V5.1H97.8z M94.3,15.8c1.2,0,1.6-1.3,1.6-2.8c0-1.6-0.4-2.8-1.5-2.8
	c-1.1,0-1.5,1.1-1.5,2.7C92.8,14.8,93.1,15.8,94.3,15.8"/>
<path class="st0" d="M104.2,9.4c0.6-0.3,1.3-0.6,2.6-0.6c2.6,0,3.2,1.2,3.2,3.3v3.6c0,0.6,0.1,1.1,0.1,1.5h-1.8
	c-0.1-0.3-0.1-0.7-0.1-1.1h0c-0.5,0.7-1.1,1.2-2.3,1.2c-1.3,0-2.5-0.9-2.5-2.4c0-2.2,1.8-2.8,4.3-2.8h0.4v-0.3
	c0-0.8-0.4-1.6-1.5-1.6c-1,0-1.9,0.5-2.3,0.8L104.2,9.4z M108.1,13.1h-0.2c-1.7,0-2.7,0.4-2.7,1.6c0,0.8,0.5,1.3,1.3,1.3
	c1.2,0,1.6-0.9,1.6-2.3V13.1z"/>
<path class="st0" d="M111.8,10.2c0-0.5,0-1-0.1-1.4h1.9c0,0.4,0.1,0.8,0.1,1.3h0c0.3-0.5,0.8-1.4,2.2-1.4c1.9,0,2.4,1.4,2.4,3.1v5.3
	h-2v-4.9c0-1.3-0.3-1.8-1.1-1.8c-1,0-1.4,0.9-1.4,1.9v4.8h-2V10.2z"/>
<path class="st0" d="M126.9,5.1v10.6c0,0.6,0,1.1,0.1,1.4h-1.9c0-0.2-0.1-0.7-0.1-1.3h0c-0.3,0.7-0.9,1.4-2.2,1.4
	c-2,0-2.9-2-2.9-4.2c0-2.7,1.1-4.3,2.8-4.3c1.2,0,1.8,0.7,2.1,1.3h0V5.1H126.9z M123.3,15.8c1.2,0,1.6-1.3,1.6-2.8
	c0-1.6-0.4-2.8-1.5-2.8c-1.1,0-1.5,1.1-1.5,2.7C121.9,14.8,122.2,15.8,123.3,15.8"/>
<path class="st0" d="M137.8,14.4H134l-0.8,2.7h-2L134.9,6h2.2l3.6,11.2h-2.1L137.8,14.4z M137.4,12.9L136,7.7h0l-1.5,5.2H137.4z"/>
<path class="st0" d="M142,18.4c0.5,0.3,1.4,0.7,2.4,0.7c1.9,0,2.2-1.3,2.2-2.6v-0.8h0c-0.3,0.6-0.9,1.4-2.2,1.4
	c-1.2,0-2.9-0.8-2.9-4.1c0-2.3,0.8-4.3,3-4.3c1.2,0,1.8,0.7,2.2,1.4h0.1c0-0.4,0-0.8,0.1-1.3h1.8c0,0.4-0.1,0.9-0.1,1.3v6.1
	c0,2.6-0.8,4.4-3.8,4.4c-1.3,0-2.4-0.3-2.8-0.5L142,18.4z M144.8,15.7c1.2,0,1.7-0.9,1.7-2.8c0-1.7-0.7-2.7-1.6-2.6
	c-1,0-1.4,1-1.4,2.7C143.5,14.8,144.2,15.7,144.8,15.7"/>
<path class="st0" d="M150.4,10.2c0-0.5,0-1-0.1-1.4h1.8c0,0.5,0.1,1,0.1,1.5h0c0.2-0.6,0.9-1.6,2.1-1.6c0.1,0,0.2,0,0.3,0v1.9
	c-0.2,0-0.4-0.1-0.6-0.1c-0.8,0-1.7,0.5-1.7,2v4.5h-2V10.2z"/>
<path class="st0" d="M156.1,5.4h2v2h-2V5.4z M156.1,8.9h2v8.2h-2V8.9z"/>
<path class="st0" d="M165.7,16.9c-0.5,0.2-1.2,0.3-2,0.3c-2.7,0-3.9-1.9-3.9-4.2c0-2.3,1.2-4.3,4-4.3c0.6,0,1.4,0.2,1.7,0.3
	l-0.1,1.6c-0.4-0.2-0.8-0.4-1.4-0.4c-1.5,0-2.2,1-2.2,2.8c0,1.5,0.7,2.7,2.3,2.7c0.5,0,1.1-0.2,1.4-0.4L165.7,16.9z"/>
<path class="st0" d="M173.4,15.8c0,0.5,0,1,0.1,1.4h-1.9c0-0.4-0.1-0.8-0.1-1.3l0,0l0,0c-0.4,0.6-0.9,1.4-2.2,1.4
	c-1.9,0-2.4-1.4-2.4-3.1V8.9h2v4.9c0,1.3,0.4,1.8,1.2,1.8c1.1,0,1.4-1,1.4-2V8.9h2V15.8z"/>
<rect x="175.4" y="5.1" class="st0" width="2" height="12"/>
<path class="st0" d="M180.1,7.2l2-0.6v2.3h1.6v1.5h-1.6v4.3c0,0.9,0.3,1.1,0.9,1.1c0.4,0,0.6-0.1,0.8-0.2V17
	c-0.3,0.1-0.7,0.3-1.3,0.3c-1.5,0-2.3-0.7-2.3-2.4v-4.5h-1.3V8.9h1.3V7.2z"/>
<path class="st0" d="M191.5,15.8c0,0.5,0,1,0.1,1.4h-1.9c0-0.4-0.1-0.8-0.1-1.3l0,0l0,0c-0.4,0.6-0.9,1.4-2.2,1.4
	c-1.9,0-2.4-1.4-2.4-3.1V8.9h2v4.9c0,1.3,0.4,1.8,1.2,1.8c1.1,0,1.4-1,1.4-2V8.9h2V15.8z"/>
<path class="st0" d="M193.3,10.2c0-0.5,0-1-0.1-1.4h1.8c0,0.5,0.1,1,0.1,1.5h0c0.2-0.6,0.9-1.6,2.1-1.6c0.1,0,0.2,0,0.3,0v1.9
	c-0.2,0-0.4-0.1-0.6-0.1c-0.8,0-1.7,0.5-1.7,2v4.5h-2V10.2z"/>
<path class="st0" d="M204.8,16.7c-0.4,0.2-1.3,0.5-2.5,0.5c-2.7,0-3.8-1.9-3.8-4.1c0-2.5,1.3-4.4,3.4-4.4c1.8,0,3.3,1,3.3,4.4v0.4
	h-4.8c0,1.4,0.6,2.3,2.1,2.3c1.2,0,1.8-0.4,2.2-0.6L204.8,16.7z M203.3,12.3c0-1.5-0.5-2.2-1.4-2.2c-1,0-1.5,1.1-1.5,2.2H203.3z"/>
<path class="st0" d="M71.2,23.9c2.3,0,4.4,1.7,4.4,5.7c0,4-2.1,5.7-4.4,5.7s-4.4-1.7-4.4-5.7C66.7,25.6,68.9,23.9,71.2,23.9
	 M71.2,33.8c1.3,0,2.3-1.1,2.3-4.2s-1-4.2-2.3-4.2s-2.3,1.1-2.3,4.2S69.9,33.8,71.2,33.8"/>
<path class="st0" d="M77.3,28.3c0-0.5,0-1-0.1-1.4h1.8c0,0.5,0.1,1,0.1,1.5h0c0.2-0.6,0.9-1.6,2.1-1.6c0.1,0,0.2,0,0.3,0v1.9
	c-0.2,0-0.4-0.1-0.6-0.1c-0.8,0-1.7,0.5-1.7,2v4.5h-2V28.3z"/>
<path class="st0" d="M83,36.5c0.5,0.3,1.4,0.7,2.4,0.7c1.9,0,2.2-1.3,2.2-2.6v-0.8h0c-0.3,0.6-0.9,1.4-2.2,1.4
	c-1.2,0-2.9-0.8-2.9-4.1c0-2.3,0.8-4.3,3-4.3c1.2,0,1.8,0.7,2.2,1.4h0.1c0-0.4,0-0.8,0.1-1.3h1.8c0,0.4-0.1,0.9-0.1,1.3v6.1
	c0,2.6-0.8,4.4-3.8,4.4c-1.3,0-2.4-0.3-2.8-0.5L83,36.5z M85.8,33.7c1.2,0,1.7-0.9,1.7-2.8c0-1.7-0.7-2.7-1.6-2.6
	c-1,0-1.4,1-1.4,2.7C84.5,32.9,85.2,33.7,85.8,33.7"/>
<path class="st0" d="M91.7,27.4c0.6-0.3,1.3-0.6,2.6-0.6c2.6,0,3.2,1.2,3.2,3.3v3.6c0,0.6,0.1,1.1,0.1,1.5h-1.8
	c-0.1-0.3-0.1-0.7-0.1-1.1h0c-0.5,0.7-1.1,1.2-2.3,1.2c-1.3,0-2.5-0.9-2.5-2.4c0-2.2,1.8-2.8,4.3-2.8h0.4v-0.3
	c0-0.8-0.4-1.6-1.5-1.6c-1,0-1.9,0.5-2.3,0.8L91.7,27.4z M95.6,31.2h-0.2c-1.7,0-2.7,0.4-2.7,1.6c0,0.8,0.5,1.3,1.3,1.3
	c1.2,0,1.6-0.9,1.6-2.3V31.2z"/>
<path class="st0" d="M99.3,28.3c0-0.5,0-1-0.1-1.4h1.9c0,0.4,0.1,0.8,0.1,1.3h0c0.3-0.5,0.8-1.4,2.2-1.4c1.9,0,2.4,1.4,2.4,3.1v5.3
	h-2v-4.9c0-1.3-0.3-1.8-1.1-1.8c-1,0-1.4,0.9-1.4,1.9v4.8h-2V28.3z"/>
<path class="st0" d="M107.8,23.5h2v2h-2V23.5z M107.8,27h2v8.2h-2V27z"/>
<polygon class="st0" points="111.3,33.5 114.8,28.5 111.4,28.5 111.4,27 116.8,27 116.8,28.6 113.4,33.7 116.9,33.7 116.9,35.2 
	111.3,35.2 "/>
<path class="st0" d="M118.7,27.4c0.6-0.3,1.3-0.6,2.6-0.6c2.6,0,3.2,1.2,3.2,3.3v3.6c0,0.6,0.1,1.1,0.1,1.5h-1.8
	c-0.1-0.3-0.1-0.7-0.1-1.1h0c-0.5,0.7-1.1,1.2-2.3,1.2c-1.3,0-2.5-0.9-2.5-2.4c0-2.2,1.8-2.8,4.3-2.8h0.4v-0.3
	c0-0.8-0.4-1.6-1.5-1.6c-1,0-1.9,0.5-2.3,0.8L118.7,27.4z M122.6,31.2h-0.2c-1.7,0-2.7,0.4-2.7,1.6c0,0.8,0.5,1.3,1.3,1.3
	c1.2,0,1.6-0.9,1.6-2.3V31.2z"/>
<path class="st0" d="M127,25.3l2-0.6V27h1.6v1.5H129v4.3c0,0.9,0.3,1.1,0.9,1.1c0.4,0,0.6-0.1,0.8-0.2V35c-0.3,0.1-0.7,0.3-1.3,0.3
	c-1.5,0-2.3-0.7-2.3-2.4v-4.5h-1.3V27h1.3V25.3z"/>
<path class="st0" d="M132,23.5h2v2h-2V23.5z M132.1,27h2v8.2h-2V27z"/>
<path class="st0" d="M139.4,26.8c1.7,0,3.6,0.9,3.6,4.2c0,3.5-1.9,4.3-3.6,4.3c-1.7,0-3.6-0.8-3.6-4.3
	C135.8,27.7,137.8,26.8,139.4,26.8 M139.4,33.9c1.3,0,1.6-1.5,1.6-2.8s-0.3-2.8-1.6-2.8c-1.3,0-1.6,1.5-1.6,2.8
	S138.2,33.9,139.4,33.9"/>
<path class="st0" d="M144.6,28.3c0-0.5,0-1-0.1-1.4h1.9c0,0.4,0.1,0.8,0.1,1.3h0c0.3-0.5,0.8-1.4,2.2-1.4c1.9,0,2.4,1.4,2.4,3.1v5.3
	h-2v-4.9c0-1.3-0.3-1.8-1.1-1.8c-1,0-1.4,0.9-1.4,1.9v4.8h-2V28.3z"/>
<path class="st0" d="M160.5,26.8c1.7,0,3.6,0.9,3.6,4.2c0,3.5-1.9,4.3-3.6,4.3c-1.7,0-3.6-0.8-3.6-4.3
	C156.8,27.7,158.8,26.8,160.5,26.8 M160.5,33.9c1.3,0,1.6-1.5,1.6-2.8s-0.3-2.8-1.6-2.8c-1.3,0-1.6,1.5-1.6,2.8
	S159.2,33.9,160.5,33.9"/>
<path class="st0" d="M166.3,28.4h-1.4V27h1.4v-1.7c0-1.2,0.6-2.3,2.4-2.3c0.5,0,1,0.1,1.4,0.2l-0.1,1.4c-0.2-0.1-0.5-0.1-0.8-0.1
	c-0.6,0-0.9,0.4-0.9,1V27h1.5v1.5h-1.5v6.8h-2V28.4z"/>
<path class="st0" d="M175.9,25.3l2-0.6V27h1.6v1.5h-1.6v4.3c0,0.9,0.3,1.1,0.9,1.1c0.4,0,0.6-0.1,0.8-0.2V35
	c-0.3,0.1-0.7,0.3-1.3,0.3c-1.5,0-2.3-0.7-2.3-2.4v-4.5h-1.3V27h1.3V25.3z"/>
<path class="st0" d="M180.8,23.2h2V28h0c0.4-0.5,0.8-1.2,2-1.2c1.9,0,2.4,1.4,2.4,3.1v5.3h-2v-4.9c0-1.3-0.3-1.8-1.1-1.8
	c-1,0-1.4,0.9-1.4,1.9v4.8h-2V23.2z"/>
<path class="st0" d="M195.1,34.8c-0.4,0.2-1.3,0.5-2.5,0.5c-2.7,0-3.8-1.9-3.8-4.1c0-2.5,1.3-4.4,3.4-4.4c1.8,0,3.3,1,3.3,4.4v0.4
	h-4.8c0,1.4,0.6,2.3,2.1,2.3c1.2,0,1.8-0.4,2.2-0.6L195.1,34.8z M193.6,30.4c0-1.5-0.5-2.2-1.4-2.2c-1,0-1.5,1.1-1.5,2.2H193.6z"/>
<path class="st0" d="M69.1,42.1v7.2c0,1.9,0.6,2.5,1.8,2.5c1.2,0,1.7-0.6,1.7-2.5v-7.2h2v7.2c0,2.9-1.7,4.1-3.8,4.1
	c-2.1,0-3.8-1.2-3.8-4.1v-7.2H69.1z"/>
<path class="st0" d="M76.7,46.4c0-0.5,0-1-0.1-1.4h1.9c0,0.4,0.1,0.8,0.1,1.3h0c0.3-0.5,0.8-1.4,2.2-1.4c1.9,0,2.4,1.4,2.4,3.1v5.3
	h-2v-4.9c0-1.3-0.3-1.8-1.1-1.8c-1,0-1.4,0.9-1.4,1.9v4.8h-2V46.4z"/>
<path class="st0" d="M85.1,41.5h2v2h-2V41.5z M85.2,45h2v8.2h-2V45z"/>
<path class="st0" d="M89.9,43.3l2-0.6V45h1.6v1.5h-1.6v4.3c0,0.9,0.3,1.1,0.9,1.1c0.4,0,0.6-0.1,0.8-0.2v1.4
	c-0.3,0.1-0.7,0.3-1.3,0.3c-1.5,0-2.3-0.7-2.3-2.4v-4.5h-1.3V45h1.3V43.3z"/>
<path class="st0" d="M100.8,52.9c-0.4,0.2-1.3,0.5-2.5,0.5c-2.7,0-3.8-1.9-3.8-4.1c0-2.5,1.3-4.4,3.4-4.4c1.8,0,3.3,1,3.3,4.4v0.4
	h-4.8c0,1.4,0.6,2.3,2.1,2.3c1.2,0,1.8-0.4,2.2-0.6L100.8,52.9z M99.3,48.4c0-1.5-0.5-2.2-1.4-2.2c-1,0-1.5,1.1-1.5,2.2H99.3z"/>
<path class="st0" d="M109.5,41.3v10.6c0,0.6,0,1.1,0.1,1.4h-1.9c0-0.2-0.1-0.7-0.1-1.3h0c-0.3,0.7-0.9,1.4-2.2,1.4
	c-2,0-2.9-2-2.9-4.2c0-2.7,1.1-4.3,2.8-4.3c1.2,0,1.8,0.7,2.1,1.3h0v-4.9H109.5z M106,51.9c1.2,0,1.6-1.3,1.6-2.8
	c0-1.6-0.4-2.8-1.5-2.8c-1.1,0-1.5,1.1-1.5,2.7C104.5,51,104.8,51.9,106,51.9"/>
<polygon class="st0" points="115.7,42.1 118.2,42.1 121.9,50.9 121.9,50.9 121.9,42.1 123.8,42.1 123.8,53.3 121.3,53.3 117.6,44.6 
	117.6,44.6 117.6,53.3 115.7,53.3 "/>
<path class="st0" d="M126.2,45.5c0.6-0.3,1.3-0.6,2.6-0.6c2.6,0,3.2,1.2,3.2,3.3v3.6c0,0.6,0.1,1.1,0.1,1.5h-1.8
	c-0.1-0.3-0.1-0.7-0.1-1.1h0c-0.5,0.7-1.1,1.2-2.3,1.2c-1.3,0-2.5-0.9-2.5-2.4c0-2.2,1.8-2.8,4.3-2.8h0.4v-0.3
	c0-0.8-0.4-1.6-1.5-1.6c-1,0-1.9,0.5-2.3,0.8L126.2,45.5z M130.1,49.2H130c-1.7,0-2.7,0.4-2.7,1.6c0,0.8,0.5,1.3,1.3,1.3
	c1.2,0,1.6-0.9,1.6-2.4V49.2z"/>
<path class="st0" d="M134.6,43.3l2-0.6V45h1.6v1.5h-1.6v4.3c0,0.9,0.3,1.1,0.9,1.1c0.4,0,0.6-0.1,0.8-0.2v1.4
	c-0.3,0.1-0.7,0.3-1.3,0.3c-1.5,0-2.3-0.7-2.3-2.4v-4.5h-1.3V45h1.3V43.3z"/>
<path class="st0" d="M139.6,41.5h2v2h-2V41.5z M139.6,45h2v8.2h-2V45z"/>
<path class="st0" d="M147,44.9c1.7,0,3.6,0.9,3.6,4.2c0,3.5-1.9,4.3-3.6,4.3c-1.7,0-3.6-0.8-3.6-4.3C143.4,45.8,145.3,44.9,147,44.9
	 M147,52c1.3,0,1.6-1.5,1.6-2.8s-0.3-2.8-1.6-2.8c-1.3,0-1.6,1.5-1.6,2.8S145.7,52,147,52"/>
<path class="st0" d="M152.2,46.4c0-0.5,0-1-0.1-1.4h1.9c0,0.4,0.1,0.8,0.1,1.3h0c0.3-0.5,0.8-1.4,2.2-1.4c1.9,0,2.4,1.4,2.4,3.1v5.3
	h-2v-4.9c0-1.3-0.3-1.8-1.1-1.8c-1,0-1.4,0.9-1.4,1.9v4.8h-2V46.4z"/>
<path class="st0" d="M160.3,51.3c0.3,0.1,1.1,0.5,2.1,0.5c0.7,0,1.3-0.2,1.3-0.8c0-0.3-0.2-0.6-0.9-1l-0.8-0.5
	c-0.8-0.5-1.7-1-1.7-2.3c0-1.1,1.1-2.3,2.8-2.3c1.1,0,1.9,0.3,2.1,0.3l-0.1,1.5c-0.5-0.2-1-0.4-1.7-0.4c-0.8,0-1.1,0.3-1.1,0.8
	c0,0.4,0.4,0.7,0.9,1.1l1,0.6c1,0.7,1.5,1.1,1.5,2.1c0,1.5-1.3,2.4-3.1,2.4c-1,0-1.9-0.2-2.3-0.4L160.3,51.3z"/>
</svg>
