<?xml version="1.0" encoding="utf-8"?>
<!-- Generator: Adobe Illustrator 21.1.0, SVG Export Plug-In . SVG Version: 6.00 Build 0)  -->
<svg version="1.1" id="Layer_1" xmlns="http://www.w3.org/2000/svg" xmlns:xlink="http://www.w3.org/1999/xlink" x="0px" y="0px"
	 viewBox="0 0 87 74.4" style="enable-background:new 0 0 87 74.4;" xml:space="preserve">
<style type="text/css">
	.st0{fill:#272626;}
	.st1{fill:#519AC2;}
</style>
<g>
	<path class="st0" d="M11.2,5.7v6c-0.3,0.2-0.6,0.3-1,0.5c-0.4,0.1-0.8,0.3-1.2,0.4c-0.4,0.1-0.8,0.2-1.2,0.2
		c-0.4,0-0.8,0.1-1.2,0.1c-1,0-2-0.2-2.8-0.5C3,12,2.3,11.5,1.7,10.9c-0.6-0.6-1-1.3-1.3-2C0.1,8.1,0,7.3,0,6.4
		c0-0.9,0.2-1.8,0.5-2.5c0.3-0.8,0.8-1.5,1.3-2c0.6-0.6,1.2-1,2-1.4C4.6,0.2,5.4,0,6.4,0c1.1,0,2,0.1,2.8,0.4
		c0.7,0.3,1.3,0.7,1.8,1.2L9.8,2.9c-0.5-0.5-1-0.8-1.6-1C7.6,1.7,7,1.6,6.4,1.6C5.7,1.6,5,1.7,4.5,1.9C3.9,2.2,3.4,2.6,3,3
		c-0.4,0.4-0.7,1-0.9,1.5C1.9,5.1,1.8,5.8,1.8,6.4c0,0.7,0.1,1.3,0.4,1.9c0.2,0.6,0.6,1.1,1,1.5c0.4,0.4,0.9,0.8,1.5,1
		c0.6,0.2,1.2,0.4,1.9,0.4c0.6,0,1.1-0.1,1.7-0.2c0.5-0.1,1-0.3,1.3-0.5V7.3H6.8V5.7H11.2z"/>
	<polygon class="st0" points="13.5,0.3 15.2,0.3 15.2,11 20.8,11 20.8,12.5 13.5,12.5 	"/>
	<path class="st0" d="M27.1,12.9c-0.9,0-1.8-0.2-2.6-0.5c-0.8-0.3-1.5-0.8-2-1.4c-0.6-0.6-1-1.3-1.3-2c-0.3-0.8-0.5-1.6-0.5-2.5
		s0.2-1.8,0.5-2.5c0.3-0.8,0.8-1.5,1.3-2c0.6-0.6,1.2-1,2-1.4C25.3,0.2,26.1,0,27.1,0c0.9,0,1.8,0.2,2.6,0.5c0.8,0.3,1.5,0.8,2,1.4
		c0.6,0.6,1,1.3,1.3,2c0.3,0.8,0.5,1.6,0.5,2.5S33.3,8.2,33,9c-0.3,0.8-0.8,1.5-1.3,2c-0.6,0.6-1.2,1-2,1.4
		C28.9,12.7,28,12.9,27.1,12.9 M27.1,11.3c0.7,0,1.3-0.1,1.9-0.4s1-0.6,1.5-1c0.4-0.4,0.7-1,0.9-1.5c0.2-0.6,0.3-1.2,0.3-1.9
		s-0.1-1.3-0.3-1.9c-0.2-0.6-0.5-1.1-0.9-1.5c-0.4-0.4-0.9-0.8-1.5-1c-0.6-0.3-1.2-0.4-1.9-0.4c-0.7,0-1.3,0.1-1.9,0.4
		c-0.6,0.3-1,0.6-1.5,1c-0.4,0.4-0.7,1-0.9,1.5c-0.2,0.6-0.3,1.2-0.3,1.9s0.1,1.3,0.3,1.9c0.2,0.6,0.5,1.1,0.9,1.5
		c0.4,0.4,0.9,0.8,1.5,1S26.4,11.3,27.1,11.3"/>
	<path class="st0" d="M35.2,0.3h4.2c0.5,0,1,0.1,1.5,0.2c0.5,0.1,0.8,0.3,1.2,0.6c0.3,0.2,0.6,0.6,0.8,0.9s0.3,0.8,0.3,1.4
		c0,0.7-0.2,1.3-0.6,1.7c-0.4,0.4-0.9,0.8-1.5,1v0c0.4,0,0.7,0.1,1,0.3c0.3,0.2,0.6,0.4,0.8,0.7c0.2,0.3,0.4,0.6,0.6,0.9
		c0.1,0.4,0.2,0.7,0.2,1.2c0,0.6-0.1,1-0.3,1.5c-0.2,0.4-0.5,0.8-0.9,1.1c-0.4,0.3-0.8,0.5-1.4,0.7c-0.5,0.1-1.1,0.2-1.7,0.2h-4.2
		V0.3z M36.9,5.4h2.3c0.3,0,0.6,0,0.9-0.1c0.3-0.1,0.5-0.2,0.7-0.3c0.2-0.1,0.4-0.3,0.5-0.6s0.2-0.5,0.2-0.8c0-0.5-0.2-0.9-0.5-1.3
		c-0.3-0.4-0.8-0.5-1.5-0.5h-2.6V5.4z M36.9,11.1h2.4c0.3,0,0.5,0,0.8-0.1c0.3-0.1,0.6-0.2,0.9-0.3c0.3-0.2,0.5-0.4,0.7-0.6
		c0.2-0.3,0.3-0.6,0.3-1.1c0-0.7-0.2-1.3-0.7-1.6c-0.5-0.4-1.1-0.5-1.9-0.5h-2.5V11.1z"/>
	<path class="st0" d="M49.2,0.3h1.5l5.2,12.2H54l-1.2-3H47l-1.2,3h-1.9L49.2,0.3z M52.2,8.1l-2.3-5.6h0l-2.3,5.6H52.2z"/>
	<polygon class="st0" points="57,0.3 58.6,0.3 58.6,11 64.2,11 64.2,12.5 57,12.5 	"/>
	<path class="st0" d="M13.9,22.1c-0.5-0.7-1.1-1.2-1.8-1.5c-0.8-0.3-1.6-0.5-2.4-0.5c-0.5,0-1,0.1-1.5,0.2c-0.5,0.1-0.9,0.3-1.3,0.6
		c-0.4,0.3-0.7,0.6-0.9,1c-0.2,0.4-0.3,0.9-0.3,1.4c0,0.8,0.3,1.5,0.9,1.9c0.6,0.4,1.3,0.8,2.1,1.1c0.9,0.3,1.8,0.6,2.8,0.9
		c1,0.3,1.9,0.7,2.8,1.2c0.9,0.5,1.6,1.2,2.1,2.1c0.6,0.9,0.9,2,0.9,3.5c0,1.3-0.2,2.5-0.7,3.4c-0.5,1-1.1,1.8-2,2.4
		c-0.8,0.6-1.8,1.1-2.9,1.5C10.6,41.8,9.5,42,8.3,42c-1.5,0-3-0.3-4.4-0.8c-1.4-0.5-2.6-1.4-3.6-2.6l3.3-3.2
		c0.5,0.8,1.2,1.4,2.1,1.9C6.5,37.8,7.4,38,8.4,38c0.5,0,1-0.1,1.5-0.2c0.5-0.1,1-0.3,1.4-0.6c0.4-0.3,0.7-0.6,1-1.1
		c0.3-0.4,0.4-0.9,0.4-1.5c0-0.9-0.3-1.6-0.9-2.1c-0.6-0.5-1.3-0.9-2.1-1.2c-0.9-0.3-1.8-0.7-2.8-0.9c-1-0.3-1.9-0.7-2.8-1.2
		c-0.9-0.5-1.6-1.2-2.1-2.1c-0.6-0.9-0.9-2-0.9-3.5c0-1.3,0.3-2.4,0.8-3.3c0.5-0.9,1.2-1.7,2-2.3s1.8-1.1,2.9-1.4
		c1.1-0.3,2.2-0.5,3.3-0.5c1.3,0,2.5,0.2,3.7,0.6c1.2,0.4,2.3,1,3.3,1.9L13.9,22.1z"/>
	<path class="st1" d="M18.6,29.2c0-2,0.3-3.7,1-5.3c0.6-1.6,1.5-3,2.7-4.1c1.1-1.1,2.5-2,4.1-2.6c1.6-0.6,3.3-0.9,5.2-0.9
		c1.9,0,3.7,0.3,5.3,0.8c1.6,0.6,3,1.4,4.1,2.6c1.2,1.1,2,2.5,2.7,4.1c0.6,1.6,1,3.4,1,5.3c0,1.9-0.3,3.7-1,5.2
		c-0.6,1.6-1.5,2.9-2.7,4c-1.2,1.1-2.5,2-4.1,2.6c-1.6,0.6-3.3,1-5.3,1c-1.9,0-3.6-0.3-5.2-0.9s-2.9-1.5-4.1-2.6
		c-1.1-1.1-2-2.5-2.7-4C18.9,32.9,18.6,31.1,18.6,29.2 M23.2,28.9c0,1.3,0.2,2.5,0.6,3.6c0.4,1.1,1,2.1,1.7,2.9
		c0.7,0.8,1.6,1.4,2.6,1.9c1,0.5,2.2,0.7,3.4,0.7s2.4-0.2,3.5-0.7c1-0.5,1.9-1.1,2.7-1.9c0.7-0.8,1.3-1.8,1.7-2.9
		c0.4-1.1,0.6-2.3,0.6-3.6c0-1.2-0.2-2.4-0.6-3.4c-0.4-1.1-1-2-1.7-2.8c-0.7-0.8-1.6-1.4-2.7-1.9c-1-0.4-2.2-0.7-3.5-0.7
		s-2.4,0.2-3.4,0.7c-1,0.4-1.9,1.1-2.6,1.9c-0.7,0.8-1.3,1.7-1.7,2.8C23.4,26.6,23.2,27.7,23.2,28.9"/>
	<path class="st0" d="M54,16.9h3.8l10.5,24.5h-5L61,35.7H50.4l-2.2,5.6h-4.9L54,16.9z M59.5,32l-3.8-10l-3.8,10H59.5z"/>
	<path class="st0" d="M69.7,16.9h8.2c1.2,0,2.3,0.1,3.4,0.3c1.1,0.2,2.1,0.6,2.9,1.2c0.8,0.5,1.5,1.3,2,2.2c0.5,0.9,0.7,2,0.7,3.4
		c0,1.5-0.3,2.8-0.8,3.7c-0.5,0.9-1.2,1.7-2.1,2.2c-0.9,0.5-1.9,0.9-3.1,1.1c-1.2,0.2-2.4,0.3-3.7,0.3h-3.1v10.1h-4.4V16.9z
		 M76.7,27.5c0.6,0,1.3,0,1.9-0.1c0.7,0,1.3-0.2,1.8-0.4c0.6-0.2,1-0.6,1.4-1c0.4-0.5,0.5-1.1,0.5-1.9c0-0.8-0.2-1.4-0.5-1.8
		c-0.3-0.4-0.7-0.8-1.2-1c-0.5-0.2-1.1-0.4-1.7-0.5c-0.6-0.1-1.2-0.1-1.8-0.1h-3.1v6.9H76.7z"/>
	<path class="st0" d="M14.3,45.2h4.1c0.6,0,1.2,0.1,1.7,0.2c0.5,0.1,1,0.3,1.4,0.6c0.4,0.3,0.7,0.6,1,1.1c0.2,0.5,0.4,1,0.4,1.7
		c0,0.8-0.1,1.4-0.4,1.9c-0.3,0.5-0.6,0.8-1.1,1.1c-0.5,0.3-1,0.4-1.6,0.5c-0.6,0.1-1.2,0.1-1.9,0.1h-1.6v5.1h-2.2V45.2z M17.8,50.5
		c0.3,0,0.6,0,1,0c0.3,0,0.6-0.1,0.9-0.2c0.3-0.1,0.5-0.3,0.7-0.5c0.2-0.2,0.3-0.6,0.3-1c0-0.4-0.1-0.7-0.2-0.9
		c-0.2-0.2-0.4-0.4-0.6-0.5c-0.3-0.1-0.5-0.2-0.8-0.2c-0.3,0-0.6-0.1-0.9-0.1h-1.6v3.4H17.8z"/>
	<path class="st0" d="M24.1,45.2h4.2c0.6,0,1.2,0.1,1.7,0.2c0.5,0.1,1,0.3,1.5,0.6c0.4,0.3,0.8,0.6,1,1.1c0.3,0.4,0.4,1,0.4,1.7
		c0,0.9-0.2,1.6-0.7,2.2c-0.5,0.6-1.2,1-2.1,1.1l3.2,5.4h-2.6l-2.8-5.2h-1.6v5.2h-2.2V45.2z M27.9,50.4c0.3,0,0.6,0,0.9,0
		c0.3,0,0.6-0.1,0.9-0.2c0.3-0.1,0.5-0.3,0.6-0.5c0.2-0.2,0.2-0.5,0.2-0.9c0-0.4-0.1-0.6-0.2-0.9c-0.1-0.2-0.3-0.4-0.6-0.5
		c-0.2-0.1-0.5-0.2-0.8-0.2c-0.3,0-0.6-0.1-0.9-0.1h-1.9v3.3H27.9z"/>
	<path class="st1" d="M33.6,51.4c0-1,0.2-1.9,0.5-2.7c0.3-0.8,0.8-1.5,1.3-2c0.6-0.6,1.2-1,2-1.3c0.8-0.3,1.7-0.5,2.6-0.5
		c1,0,1.8,0.1,2.6,0.4c0.8,0.3,1.5,0.7,2.1,1.3c0.6,0.6,1,1.2,1.3,2c0.3,0.8,0.5,1.7,0.5,2.7c0,1-0.2,1.8-0.5,2.6
		c-0.3,0.8-0.8,1.5-1.3,2c-0.6,0.6-1.3,1-2.1,1.3c-0.8,0.3-1.7,0.5-2.6,0.5c-0.9,0-1.8-0.2-2.6-0.5c-0.8-0.3-1.5-0.7-2-1.3
		c-0.6-0.6-1-1.2-1.3-2C33.7,53.2,33.6,52.4,33.6,51.4 M35.9,51.3c0,0.7,0.1,1.3,0.3,1.8c0.2,0.6,0.5,1,0.9,1.4s0.8,0.7,1.3,1
		c0.5,0.2,1.1,0.3,1.7,0.3c0.6,0,1.2-0.1,1.7-0.3c0.5-0.2,1-0.5,1.3-1c0.4-0.4,0.7-0.9,0.9-1.4c0.2-0.6,0.3-1.2,0.3-1.8
		c0-0.6-0.1-1.2-0.3-1.7s-0.5-1-0.9-1.4c-0.4-0.4-0.8-0.7-1.3-0.9c-0.5-0.2-1.1-0.3-1.7-0.3c-0.6,0-1.2,0.1-1.7,0.3
		c-0.5,0.2-1,0.5-1.3,0.9c-0.4,0.4-0.7,0.9-0.9,1.4C36,50.1,35.9,50.7,35.9,51.3"/>
	<path class="st0" d="M53.9,54.1c0,0.5-0.1,1-0.2,1.4c-0.2,0.4-0.4,0.8-0.7,1.2c-0.3,0.3-0.7,0.6-1.1,0.8c-0.5,0.2-1,0.3-1.6,0.3
		c-1,0-1.8-0.2-2.4-0.7c-0.6-0.4-1-1.2-1.2-2.1l2-0.5c0.1,0.4,0.2,0.7,0.5,1c0.3,0.2,0.6,0.4,1,0.4c0.6,0,1-0.2,1.3-0.6
		c0.2-0.4,0.3-1,0.3-1.7v-8.2h2.2V54.1z"/>
	<polygon class="st0" points="56,45.2 64.1,45.2 64.1,47.2 58.2,47.2 58.2,50.2 63.8,50.2 63.8,52.2 58.2,52.2 58.2,55.5 64.4,55.5 
		64.4,57.5 56,57.5 	"/>
	<path class="st0" d="M74.1,48.1c-0.4-0.5-0.9-0.8-1.3-1c-0.4-0.2-0.8-0.2-1.3-0.2c-0.6,0-1.2,0.1-1.7,0.3c-0.5,0.2-1,0.5-1.3,0.9
		c-0.4,0.4-0.7,0.9-0.9,1.4c-0.2,0.5-0.3,1.1-0.3,1.7c0,0.7,0.1,1.3,0.3,1.8c0.2,0.6,0.5,1,0.9,1.4c0.4,0.4,0.8,0.7,1.3,0.9
		c0.5,0.2,1.1,0.3,1.7,0.3c0.5,0,1-0.1,1.4-0.4c0.5-0.2,0.9-0.6,1.3-1.1l1.8,1.3c-0.6,0.8-1.2,1.3-2,1.7c-0.8,0.3-1.6,0.5-2.5,0.5
		c-0.9,0-1.8-0.2-2.6-0.5c-0.8-0.3-1.5-0.7-2-1.3c-0.6-0.6-1-1.2-1.3-2c-0.3-0.8-0.5-1.7-0.5-2.6c0-1,0.2-1.9,0.5-2.7
		c0.3-0.8,0.8-1.5,1.3-2c0.6-0.6,1.2-1,2-1.3c0.8-0.3,1.7-0.5,2.6-0.5c0.8,0,1.6,0.1,2.3,0.4c0.7,0.3,1.4,0.8,2,1.5L74.1,48.1z"/>
	<polygon class="st0" points="80,47.2 76.2,47.2 76.2,45.2 85.9,45.2 85.9,47.2 82.1,47.2 82.1,57.5 80,57.5 	"/>
	<polygon class="st1" points="11.3,65.6 16.9,65.6 16.9,66.7 12.5,66.7 12.5,69.3 16.6,69.3 16.6,70.4 12.5,70.4 12.5,73.1 
		17.1,73.1 17.1,74.2 11.3,74.2 	"/>
	<path class="st1" d="M19.2,65.6v5.3c0,0.3,0,0.5,0.1,0.8c0.1,0.3,0.2,0.6,0.4,0.8c0.2,0.2,0.4,0.4,0.7,0.6c0.3,0.2,0.6,0.2,1,0.2
		c0.4,0,0.7-0.1,1-0.2c0.3-0.2,0.5-0.4,0.7-0.6c0.2-0.2,0.3-0.5,0.4-0.8c0.1-0.3,0.1-0.6,0.1-0.8v-5.3h1.2v5.5c0,0.5-0.1,1-0.3,1.4
		c-0.2,0.4-0.4,0.8-0.7,1.1c-0.3,0.3-0.7,0.5-1.1,0.7c-0.4,0.2-0.8,0.2-1.3,0.2c-0.5,0-0.9-0.1-1.3-0.2c-0.4-0.2-0.8-0.4-1.1-0.7
		c-0.3-0.3-0.5-0.7-0.7-1.1C18.1,72,18,71.6,18,71.1v-5.5H19.2z"/>
	<path class="st1" d="M26.4,65.6h3c0.6,0,1,0.1,1.4,0.2c0.4,0.2,0.6,0.3,0.8,0.6c0.2,0.2,0.4,0.5,0.4,0.8c0.1,0.3,0.1,0.6,0.1,0.8
		c0,0.3,0,0.5-0.1,0.8c-0.1,0.3-0.2,0.5-0.4,0.7c-0.2,0.2-0.4,0.4-0.7,0.5c-0.3,0.1-0.6,0.2-0.9,0.3l2.4,3.9h-1.5l-2.2-3.8h-1.3v3.8
		h-1.2V65.6z M27.6,69.4h1.5c0.2,0,0.5,0,0.7-0.1c0.2,0,0.4-0.1,0.6-0.2c0.2-0.1,0.3-0.2,0.4-0.4c0.1-0.2,0.2-0.4,0.2-0.7
		c0-0.3-0.1-0.5-0.2-0.7s-0.2-0.3-0.4-0.4c-0.2-0.1-0.4-0.2-0.6-0.2c-0.2,0-0.4-0.1-0.7-0.1h-1.5V69.4z"/>
	<path class="st1" d="M37.3,74.4c-0.7,0-1.3-0.1-1.8-0.3c-0.6-0.2-1-0.6-1.4-1c-0.4-0.4-0.7-0.9-0.9-1.4c-0.2-0.6-0.3-1.2-0.3-1.8
		s0.1-1.2,0.3-1.8c0.2-0.6,0.5-1,0.9-1.4c0.4-0.4,0.9-0.7,1.4-1c0.6-0.2,1.2-0.3,1.8-0.3c0.7,0,1.3,0.1,1.8,0.3c0.6,0.2,1,0.6,1.4,1
		c0.4,0.4,0.7,0.9,0.9,1.4c0.2,0.6,0.3,1.1,0.3,1.8s-0.1,1.2-0.3,1.8c-0.2,0.6-0.5,1-0.9,1.4c-0.4,0.4-0.9,0.7-1.4,1
		C38.6,74.3,38,74.4,37.3,74.4 M37.3,73.4c0.5,0,0.9-0.1,1.3-0.3c0.4-0.2,0.7-0.4,1-0.7c0.3-0.3,0.5-0.7,0.7-1.1
		c0.2-0.4,0.2-0.9,0.2-1.3c0-0.5-0.1-0.9-0.2-1.3c-0.2-0.4-0.4-0.8-0.7-1.1c-0.3-0.3-0.6-0.6-1-0.7c-0.4-0.2-0.8-0.3-1.3-0.3
		c-0.5,0-0.9,0.1-1.3,0.3c-0.4,0.2-0.7,0.4-1,0.7c-0.3,0.3-0.5,0.7-0.7,1.1c-0.2,0.4-0.2,0.9-0.2,1.3c0,0.5,0.1,0.9,0.2,1.3
		c0.2,0.4,0.4,0.8,0.7,1.1c0.3,0.3,0.6,0.6,1,0.7C36.4,73.3,36.9,73.4,37.3,73.4"/>
	<path class="st1" d="M43.1,65.6h3c0.6,0,1,0.1,1.4,0.2c0.4,0.2,0.6,0.3,0.8,0.6c0.2,0.2,0.4,0.5,0.4,0.8c0.1,0.3,0.1,0.6,0.1,0.8
		c0,0.3,0,0.5-0.1,0.8c-0.1,0.3-0.2,0.5-0.4,0.8c-0.2,0.2-0.5,0.4-0.8,0.6c-0.4,0.1-0.8,0.2-1.4,0.2h-1.9v3.8h-1.2V65.6z M44.3,69.4
		h1.5c0.2,0,0.5,0,0.7-0.1c0.2,0,0.4-0.1,0.6-0.2c0.2-0.1,0.3-0.2,0.4-0.4c0.1-0.2,0.2-0.4,0.2-0.7c0-0.3-0.1-0.5-0.2-0.7
		s-0.2-0.3-0.4-0.4c-0.2-0.1-0.4-0.2-0.6-0.2c-0.2,0-0.4-0.1-0.7-0.1h-1.5V69.4z"/>
	<polygon class="st1" points="49.8,65.6 55.4,65.6 55.4,66.7 51,66.7 51,69.3 55.1,69.3 55.1,70.4 51,70.4 51,73.1 55.6,73.1 
		55.6,74.2 49.8,74.2 	"/>
	<path class="st1" d="M56.5,71.8c0.1-0.4,0.2-0.7,0.3-1.1c0.2-0.3,0.4-0.6,0.7-0.8c0.3-0.2,0.6-0.4,0.9-0.5c0.3-0.1,0.7-0.2,1.1-0.2
		c0.4,0,0.7,0.1,1,0.2c0.3,0.1,0.6,0.3,0.8,0.5c0.2,0.2,0.3,0.5,0.4,0.8c0.1,0.3,0.1,0.7,0,1.1c-0.1,0.4-0.2,0.7-0.3,1
		c-0.2,0.3-0.4,0.6-0.6,0.8c-0.3,0.2-0.6,0.4-0.9,0.5c-0.3,0.1-0.7,0.2-1.1,0.2c-0.4,0-0.7-0.1-1-0.2c-0.3-0.1-0.5-0.3-0.7-0.5
		c-0.2-0.2-0.3-0.5-0.4-0.8C56.5,72.5,56.4,72.2,56.5,71.8 M57.4,71.7c0,0.3,0,0.5,0,0.7c0,0.2,0.1,0.4,0.3,0.6
		c0.1,0.2,0.3,0.3,0.5,0.4c0.2,0.1,0.4,0.1,0.7,0.1c0.3,0,0.5,0,0.7-0.1c0.2-0.1,0.4-0.2,0.6-0.4c0.2-0.2,0.3-0.4,0.4-0.6
		c0.1-0.2,0.2-0.5,0.2-0.7c0-0.2,0-0.5,0-0.7c0-0.2-0.1-0.4-0.3-0.6c-0.1-0.2-0.3-0.3-0.5-0.4C59.8,70,59.6,70,59.3,70
		c-0.3,0-0.5,0-0.7,0.1c-0.2,0.1-0.4,0.2-0.6,0.4c-0.2,0.2-0.3,0.3-0.4,0.6C57.5,71.3,57.4,71.5,57.4,71.7"/>
	<polygon class="st1" points="62.8,69.3 63.9,69.3 65.8,73 65.8,73 66.3,69.3 67.2,69.3 66.5,74.2 65.4,74.2 63.5,70.5 63.5,70.5 
		62.9,74.2 62.1,74.2 	"/>
	<polygon class="st1" points="68.2,69.3 69,69.3 68.5,73.4 70.5,73.4 70.4,74.2 67.5,74.2 	"/>
	<path class="st1" d="M74.8,72.4c0,0.3-0.1,0.6-0.3,0.8c-0.1,0.2-0.3,0.4-0.5,0.6c-0.2,0.2-0.4,0.3-0.7,0.4s-0.5,0.1-0.8,0.1
		s-0.5,0-0.8-0.1s-0.4-0.2-0.6-0.4c-0.2-0.2-0.3-0.4-0.3-0.6c-0.1-0.2-0.1-0.5,0-0.8l0.4-3.1h0.9l-0.4,3.1c0,0.1,0,0.2,0,0.4
		c0,0.1,0.1,0.3,0.1,0.4c0.1,0.1,0.2,0.2,0.3,0.3c0.1,0.1,0.3,0.1,0.5,0.1c0.2,0,0.4,0,0.5-0.1c0.2-0.1,0.3-0.2,0.4-0.3
		c0.1-0.1,0.2-0.2,0.2-0.4c0.1-0.1,0.1-0.3,0.1-0.4l0.4-3.1h0.9L74.8,72.4z"/>
	<path class="st1" d="M78.4,70.4c-0.1-0.1-0.2-0.2-0.3-0.3C77.9,70,77.7,70,77.5,70c-0.1,0-0.2,0-0.3,0c-0.1,0-0.2,0.1-0.3,0.1
		c-0.1,0.1-0.2,0.1-0.2,0.2c-0.1,0.1-0.1,0.2-0.1,0.3c0,0.2,0,0.3,0.1,0.4c0.1,0.1,0.2,0.2,0.4,0.2c0.2,0.1,0.3,0.1,0.5,0.2
		c0.2,0.1,0.4,0.1,0.5,0.2c0.2,0.1,0.3,0.2,0.4,0.4c0.1,0.2,0.1,0.4,0.1,0.7c0,0.3-0.1,0.5-0.2,0.7c-0.1,0.2-0.3,0.4-0.5,0.5
		c-0.2,0.1-0.4,0.2-0.6,0.3c-0.2,0.1-0.5,0.1-0.7,0.1c-0.3,0-0.6-0.1-0.9-0.2c-0.3-0.1-0.5-0.3-0.7-0.5l0.7-0.6
		c0.1,0.2,0.2,0.3,0.4,0.4c0.2,0.1,0.3,0.1,0.5,0.1c0.1,0,0.2,0,0.3,0c0.1,0,0.2-0.1,0.3-0.1c0.1-0.1,0.2-0.1,0.2-0.2
		c0.1-0.1,0.1-0.2,0.1-0.3c0-0.2,0-0.3-0.1-0.4c-0.1-0.1-0.2-0.2-0.4-0.2c-0.2-0.1-0.3-0.1-0.5-0.2c-0.2-0.1-0.4-0.1-0.5-0.2
		c-0.2-0.1-0.3-0.2-0.4-0.4c-0.1-0.2-0.1-0.4-0.1-0.7c0-0.3,0.1-0.5,0.2-0.7c0.1-0.2,0.3-0.3,0.5-0.5c0.2-0.1,0.4-0.2,0.6-0.3
		c0.2-0.1,0.5-0.1,0.7-0.1c0.3,0,0.5,0,0.7,0.1c0.2,0.1,0.4,0.2,0.6,0.4L78.4,70.4z"/>
</g>
</svg>
