<?xml version="1.0" encoding="utf-8"?>
<!-- Generator: Adobe Illustrator 21.0.0, SVG Export Plug-In . SVG Version: 6.00 Build 0)  -->
<svg version="1.1" id="Layer_1" xmlns="http://www.w3.org/2000/svg" xmlns:xlink="http://www.w3.org/1999/xlink" x="0px" y="0px"
	 viewBox="0 0 245.2 55.7" style="enable-background:new 0 0 245.2 55.7;" xml:space="preserve">
<style type="text/css">
	.st0{fill:#695B55;}
	.st1{fill:#89A130;}
</style>
<g>
	<path class="st0" d="M127.6,23.5c1.1,0,2.2-0.1,3.3-0.2c1.1-0.2,2.2-0.4,3.4-0.8v-9.7h-7.4v3.1h3.6v4.2l-0.3,0.1
		c-0.8,0.2-1.6,0.2-2.4,0.2c-1.7,0-2.9-0.6-3.8-1.7c-0.9-1.1-1.3-2.7-1.3-4.9c0-2,0.5-3.6,1.6-4.8c1.1-1.2,2.5-1.8,4.3-1.8
		c1.5,0,2.9,0.3,4.3,1l1.3-3c-1.8-0.7-3.6-1.1-5.5-1.1c-3.1,0-5.5,0.9-7.3,2.6c-1.7,1.7-2.6,4.1-2.6,7.2c0,3.1,0.8,5.6,2.3,7.2
		C122.6,22.7,124.8,23.5,127.6,23.5z"/>
	<path class="st0" d="M143.6,23.5c2.2,0,3.9-0.7,5.2-2c1.2-1.3,1.9-3.2,1.9-5.5c0-1.5-0.3-2.8-0.9-4c-0.6-1.1-1.4-2-2.4-2.6
		c-1.1-0.6-2.3-0.9-3.7-0.9c-2.2,0-4,0.7-5.2,2c-1.2,1.3-1.8,3.2-1.8,5.5c0,1.5,0.3,2.9,0.9,4c0.6,1.1,1.4,2,2.4,2.6
		C140.9,23.2,142.2,23.5,143.6,23.5z M141.2,12.7c0.5-0.8,1.3-1.1,2.4-1.1c1.1,0,1.9,0.4,2.4,1.1c0.5,0.7,0.7,1.9,0.7,3.3
		c0,1.5-0.2,2.6-0.7,3.4c-0.5,0.8-1.3,1.2-2.4,1.2c-1.1,0-1.9-0.4-2.4-1.2c-0.5-0.8-0.7-1.9-0.7-3.4
		C140.4,14.5,140.7,13.4,141.2,12.7z"/>
	<path class="st0" d="M165.5,12.1c-0.6-1.1-1.4-2-2.4-2.6c-1.1-0.6-2.3-0.9-3.7-0.9c-2.2,0-4,0.7-5.2,2c-1.2,1.3-1.8,3.2-1.8,5.5
		c0,1.5,0.3,2.9,0.9,4c0.6,1.1,1.4,2,2.4,2.6c1.1,0.6,2.3,0.9,3.7,0.9c2.2,0,3.9-0.7,5.2-2c1.2-1.3,1.9-3.2,1.9-5.5
		C166.4,14.5,166.1,13.2,165.5,12.1z M161.8,19.4c-0.5,0.8-1.3,1.2-2.4,1.2c-1.1,0-1.9-0.4-2.4-1.2c-0.5-0.8-0.7-1.9-0.7-3.4
		c0-1.5,0.2-2.6,0.7-3.3c0.5-0.8,1.3-1.1,2.4-1.1c1.1,0,1.9,0.4,2.4,1.1c0.5,0.7,0.7,1.9,0.7,3.3C162.5,17.5,162.3,18.6,161.8,19.4z
		"/>
	<path class="st0" d="M181.6,23.3V3.1h-3.8v4.6c0,0.7,0.1,1.4,0.2,2.2l0.2,1.2l-0.8-0.9c-0.9-1-2.2-1.6-3.7-1.6c-1.7,0-3.1,0.7-4,2
		c-1,1.3-1.5,3.2-1.5,5.6c0,2.3,0.5,4.2,1.5,5.5c1,1.3,2.3,2,4,2c1.7,0,3-0.6,3.9-1.9l0.4-0.5l0.9,2.2H181.6z M178.1,16.5
		c0,1.5-0.3,2.5-0.8,3.1c-0.5,0.6-1.3,0.9-2.4,0.9c-1,0-1.7-0.4-2.2-1.1c-0.5-0.7-0.8-1.9-0.8-3.3c0-1.5,0.3-2.6,0.8-3.4
		c0.5-0.8,1.2-1.2,2.2-1.2c1.1,0,2,0.3,2.5,1.1c0.5,0.7,0.8,1.9,0.8,3.5V16.5z"/>
	<path class="st0" d="M132.9,45.4l-8.5-14.6h-4.8v18.5h3.3v-8.7c0-0.9-0.1-2.5-0.2-4.6l-0.1-1.5l8.5,14.8h4.9V30.8h-3.3v8.8
		c0,0.9,0.1,2.4,0.2,4.4L132.9,45.4z"/>
	<path class="st0" d="M145.5,35c-2.1,0-3.7,0.7-4.9,1.9c-1.2,1.3-1.8,3.1-1.8,5.5c0,2.3,0.6,4.1,1.9,5.3c1.3,1.2,3.1,1.9,5.3,1.9
		c1.1,0,2.1-0.1,2.8-0.2c0.7-0.2,1.5-0.4,2.1-0.7v-2.8c-0.8,0.4-1.5,0.6-2.3,0.8c-0.8,0.2-1.6,0.3-2.5,0.3c-1.1,0-2-0.3-2.7-1
		c-0.6-0.6-0.9-1.4-1-2.4l0-0.4h9.3v-1.8c0-2-0.6-3.6-1.7-4.7C149,35.6,147.4,35,145.5,35z M142.6,40.8l0-0.4c0.1-0.9,0.4-1.5,0.8-2
		c0.5-0.6,1.2-0.8,2-0.8c0.9,0,1.5,0.3,2.1,0.8c0.5,0.5,0.7,1.2,0.8,2.1l0,0.4H142.6z"/>
	<rect x="154.4" y="35.3" class="st0" width="3.7" height="14.1"/>
	<path class="st0" d="M156.2,29.5c-1.4,0-2,0.6-2,1.8c0,1.2,0.6,1.8,2,1.8c0.7,0,1.2-0.2,1.5-0.5c0.3-0.3,0.5-0.8,0.5-1.3
		C158.3,30,157.6,29.5,156.2,29.5z"/>
	<path class="st0" d="M166,35c-1.7,0-3,0.6-3.9,1.9c-1,1.3-1.4,3.1-1.4,5.4c0,2.2,0.5,4,1.4,5.3c0.9,1.3,2.2,1.9,3.9,1.9
		c1.5,0,2.8-0.5,3.6-1.6l0.7-0.9l-0.1,2.3l0,0.3c0,2.2-1.1,3.4-3.1,3.4c-1.9,0-3.8-0.4-5.5-1v2.9c1.4,0.5,3.2,0.8,5.2,0.8
		c2.3,0,4.1-0.5,5.3-1.6c1.2-1,1.8-2.6,1.8-4.6V35.3h-3.1l-0.4,2.1l-0.5-0.6C168.9,35.6,167.6,35,166,35z M170.4,42.4v0.5
		c0,1.4-0.2,2.4-0.7,3c-0.5,0.6-1.3,1-2.4,1c-1,0-1.8-0.4-2.2-1.1c-0.5-0.7-0.7-1.8-0.7-3.3c0-3,0.9-4.5,2.9-4.5
		c1.1,0,1.9,0.3,2.4,1.1C170.1,39.7,170.4,40.8,170.4,42.4z"/>
	<path class="st0" d="M185,35c-1.7,0-3,0.6-3.8,1.7l-0.7,1l0.1-1.8c0.1-1.2,0.1-1.9,0.1-2.2v-3.9H177v19.7h3.7v-6.6
		c0-1.7,0.3-2.9,0.7-3.7c0.5-0.8,1.3-1.2,2.5-1.2c1.6,0,2.4,1.1,2.4,3.2v8.3h3.7v-9.2c0-1.7-0.4-2.9-1.3-3.8
		C187.9,35.4,186.6,35,185,35z"/>
	<path class="st0" d="M200.7,35c-1.6,0-2.8,0.6-3.7,1.7l-0.7,0.9l0.1-1.1c0.1-1,0.1-1.8,0.1-2.2v-4.5h-3.7v19.7h2.8l0.7-1.6h0.4
		l0.1,0.1c0.9,1.1,2.2,1.7,3.8,1.7c1.7,0,3-0.6,3.9-1.9c1-1.3,1.5-3.1,1.5-5.4c0-2.3-0.5-4.1-1.4-5.4C203.7,35.6,202.4,35,200.7,35z
		 M201.6,45.5c-0.5,0.8-1.2,1.2-2,1.2c-1,0-1.8-0.3-2.3-1.1c-0.5-0.7-0.7-1.8-0.7-3.4v-0.4c0-1.4,0.3-2.4,0.7-3
		c0.5-0.6,1.2-0.9,2.2-0.9c0.9,0,1.6,0.4,2.1,1.1c0.5,0.7,0.7,1.8,0.7,3.2C202.3,43.7,202,44.8,201.6,45.5z"/>
	<path class="st0" d="M218.4,35.9c-1-0.6-2.2-0.9-3.6-0.9c-2.2,0-3.9,0.6-5.1,1.9c-1.2,1.3-1.8,3.1-1.8,5.4c0,1.5,0.3,2.8,0.8,3.9
		c0.5,1.1,1.3,2,2.4,2.5c1,0.6,2.2,0.9,3.6,0.9c2.2,0,3.9-0.7,5.1-1.9c1.2-1.3,1.8-3.1,1.8-5.4c0-1.5-0.3-2.8-0.8-3.9
		C220.2,37.3,219.4,36.5,218.4,35.9z M217.2,45.6c-0.5,0.8-1.3,1.1-2.4,1.1c-1.1,0-1.9-0.4-2.4-1.1c-0.5-0.7-0.7-1.8-0.7-3.3
		c0-1.4,0.2-2.5,0.7-3.3c0.5-0.7,1.3-1.1,2.4-1.1c1.1,0,1.9,0.4,2.4,1.1c0.5,0.7,0.7,1.8,0.7,3.3C217.9,43.7,217.6,44.8,217.2,45.6z
		"/>
	<path class="st0" d="M229.5,35.7c-0.7,0.4-1.2,1-1.6,1.6l-0.4,0.7l-0.7-2.8h-2.7v14.1h3.7v-7.2c0-1.2,0.4-2.1,1.1-2.8
		c0.7-0.7,1.7-1,3-1c0.4,0,0.7,0,1,0.1l0.3-3.4c-0.3-0.1-0.7-0.1-1.2-0.1C231.1,35,230.3,35.2,229.5,35.7z"/>
	<path class="st0" d="M244.9,43.4c-0.2-0.5-0.6-0.9-1.1-1.3c-0.5-0.4-1.3-0.8-2.4-1.3c-1.3-0.5-2.1-0.9-2.5-1.2
		c-0.4-0.3-0.6-0.6-0.6-1c0-1.1,1.4-1.1,1.9-1.1c0.7,0,1.3,0.1,2,0.3c0.6,0.2,1.2,0.4,1.9,0.7l1.1-2.6c-1.6-0.7-3.2-1.1-4.9-1.1
		c-1.8,0-3.2,0.3-4.1,1c-1,0.7-1.4,1.6-1.4,2.9c0,0.7,0.1,1.3,0.3,1.8c0.2,0.5,0.6,0.9,1.1,1.3c0.5,0.4,1.3,0.8,2.4,1.3
		c0.7,0.3,1.4,0.6,1.9,0.9c0.5,0.2,0.8,0.5,1,0.7c0.2,0.2,0.3,0.5,0.3,0.8c0,0.9-0.8,1.4-2.3,1.4c-0.7,0-1.5-0.1-2.4-0.4
		c-0.8-0.2-1.6-0.5-2.3-0.8v3c0.6,0.3,1.3,0.5,2,0.6c0.7,0.1,1.6,0.2,2.6,0.2c2,0,3.5-0.4,4.5-1.1c1-0.7,1.5-1.8,1.5-3.3
		C245.2,44.5,245.1,43.9,244.9,43.4z"/>
	<path class="st1" d="M49.8,41.4c-1.9-4-0.5-8.2,2.8-12.1c2.1,6.9,6.4,12.6,12.9,17.2C57.9,48.3,52.1,46.3,49.8,41.4 M55.6,18.5
		c0.2-8.6,4.7-14,8.4-14.2c3.2-0.1,3.5,3.3,1.9,7.5c-1.8,4.5-5.7,7.7-9.9,11.2C55.7,21.5,55.6,20,55.6,18.5 M103.4,25.2
		c8.4-16-4.3-27-16.4-25C79.5,1.5,76.3,6,74.6,11.8c1.2-1,2.3-1.5,3.9-2.1c0.7-3.8,3.5-7.1,7.4-7.2c7.1-0.1,13.8,12.8,1.9,28.3
		c-4.1,5.4-8.9,9.2-13,11.6c-10.4-4.2-16.2-9.9-18.3-16.9c1.5-1.2,3.2-2.3,5-3.3c8.7-5,11.2-8.3,11.5-13c0.2-3.9-3.1-6.8-7-6.8
		c-8.2,0-14.4,7.9-14.7,18.2c-0.1,2.1,0.1,4,0.5,6c-15.6,14.3-9.3,26.2,6,26c4-0.1,8.6-0.9,13.4-2.5c6.2,3.2,12.2,5,20.1,5.7
		c1.8-4.1,5.8-7.5,8.2-9.5c-6.5,0.1-12.2-0.4-17.1-1.4C90.3,40.4,99.2,33.2,103.4,25.2"/>
	<rect y="52.5" class="st1" width="38.1" height="3.2"/>
</g>
</svg>
