<?xml version="1.0" encoding="utf-8"?>
<!-- Generator: Adobe Illustrator 21.1.0, SVG Export Plug-In . SVG Version: 6.00 Build 0)  -->
<svg version="1.1" id="Layer_1" xmlns="http://www.w3.org/2000/svg" xmlns:xlink="http://www.w3.org/1999/xlink" x="0px" y="0px"
	 viewBox="0 0 801.4 307.4" style="enable-background:new 0 0 801.4 307.4;" xml:space="preserve">
<style type="text/css">
	.st0{fill-rule:evenodd;clip-rule:evenodd;fill:#07793D;}
	.st1{fill-rule:evenodd;clip-rule:evenodd;fill:#FFFFFF;}
	.st2{fill:#FFFFFF;}
</style>
<rect y="-0.5" class="st0" width="801.4" height="307.8"/>
<g>
	<path class="st1" d="M626.2,72.4c2.6,0,4.8,2.1,4.8,4.8v148.3h74.4c2.6,0,4.8,2.1,4.8,4.8c0,2.6-2.1,4.8-4.8,4.8h-79
		c-2.8,0-5-1.9-5-4.8V77.1C621.5,74.5,623.6,72.4,626.2,72.4"/>
	<path class="st1" d="M463.2,180.2l-30.1,52.2c-1.3,2.3-4.2,3.1-6.5,1.7c-2.3-1.3-3.1-4.2-1.7-6.5l84.6-146.5
		c0.9-1.6,2.6-2.5,4.4-2.4c1.7-0.1,3.5,0.8,4.4,2.4l84.6,146.5c1.3,2.3,0.5,5.2-1.7,6.5c-2.3,1.3-5.2,0.5-6.5-1.7l-30.1-52.2H463.2z
		 M513.8,92.7l-45.1,78h90.1L513.8,92.7z"/>
	<path class="st2" d="M326,109.1c-3,12.6-4.7,27.6-4.7,43.7c0,16.1,1.7,31.1,4.7,43.7c7.7,1.2,15.9,1.9,24.3,1.9
		c8.5,0,16.6-0.7,24.3-1.9c3-12.6,4.7-27.6,4.7-43.7c0-16.1-1.7-31.1-4.7-43.7c-7.7-1.2-15.9-1.9-24.3-1.9
		C341.8,107.2,333.7,107.9,326,109.1 M326.7,106.3c7.5-1.2,15.4-1.8,23.6-1.8c8.2,0,16.1,0.6,23.6,1.8c-1-4-2.2-7.8-3.4-11.2
		c-5.3-14.3-12.4-23.2-20.2-23.2c-7.8,0-14.9,8.9-20.2,23.2C328.8,98.5,327.7,102.3,326.7,106.3z M373.9,199.3
		c-7.5,1.2-15.4,1.8-23.6,1.8c-8.2,0-16.1-0.6-23.6-1.8c1,4,2.2,7.8,3.4,11.2c5.3,14.3,12.4,23.2,20.2,23.2
		c7.8,0,14.9-8.9,20.2-23.2C371.8,207.1,372.9,203.3,373.9,199.3z M401.6,189.1c3.9-10.9,6.1-23.2,6.1-36.3
		c0-13.1-2.2-25.4-6.1-36.3c-7.2-2.9-15.3-5.3-24-6.9c2.8,12.6,4.5,27.4,4.5,43.2c0,15.8-1.6,30.6-4.5,43.2
		C386.3,194.4,394.4,192.1,401.6,189.1z M299,116.5c-3.9,10.9-6.1,23.2-6.1,36.3c0,13.1,2.2,25.4,6.1,36.3c7.2,2.9,15.3,5.3,24,6.9
		c-2.8-12.6-4.5-27.4-4.5-43.2c0-15.8,1.6-30.6,4.5-43.2C314.4,111.2,306.3,113.6,299,116.5z M404.9,118c3.5,10.6,5.4,22.4,5.4,34.9
		c0,12.4-2,24.3-5.4,34.9c2-0.9,3.9-1.9,5.8-2.9c15.2-8.3,24.6-19.6,24.6-32c0-12.4-9.4-23.8-24.6-32
		C408.8,119.8,406.9,118.9,404.9,118z M360,73c5,4.2,9.5,11.5,13.1,21.1c1.4,3.8,2.7,8.1,3.8,12.6c8.4,1.5,16.3,3.6,23.4,6.3
		c-2.6-6.5-5.8-12.5-9.6-17.7C382.5,83.9,371.9,75.9,360,73z M300.3,113.1c7.1-2.7,15-4.9,23.4-6.3c1.1-4.5,2.4-8.8,3.8-12.6
		c3.6-9.6,8-17,13.1-21.1c-11.9,2.9-22.5,10.9-30.7,22.4C306.2,100.7,302.9,106.6,300.3,113.1z M340.6,232.6
		c-5-4.2-9.5-11.5-13.1-21.1c-1.4-3.8-2.7-8.1-3.8-12.6c-8.4-1.5-16.3-3.6-23.4-6.3c2.6,6.5,5.8,12.5,9.6,17.7
		C318.1,221.7,328.8,229.7,340.6,232.6z M400.3,192.5c-7.1,2.7-15,4.9-23.4,6.3c-1.1,4.5-2.4,8.8-3.8,12.6c-3.6,9.6-8,17-13.1,21.1
		c11.9-2.9,22.5-10.9,30.7-22.4C394.4,205,397.7,199,400.3,192.5z M265.4,152.8L265.4,152.8L265.4,152.8c0,12.5,9.4,23.8,24.6,32.1
		c1.8,1,3.8,2,5.8,2.9c-3.5-10.6-5.4-22.4-5.4-34.9c0-12.4,2-24.3,5.4-34.9c-2,0.9-3.9,1.9-5.8,2.9
		C274.8,129.1,265.4,140.4,265.4,152.8z M371.1,74.4c8.3,4.3,15.7,11,21.8,19.5c4.3,6,8,13,10.8,20.6c2.9,1.2,5.7,2.5,8.2,4
		c9.9,5.4,17.5,12.1,21.9,19.7c-3.2-16.4-11.5-31.2-23.4-42.5C399.7,85.5,386.2,78,371.1,74.4z M266.8,138.1
		c4.3-7.5,11.9-14.3,21.9-19.7c2.6-1.4,5.4-2.7,8.3-4c2.8-7.6,6.5-14.6,10.8-20.6c6.1-8.5,13.5-15.3,21.8-19.5
		c-15.1,3.6-28.6,11.1-39.3,21.3C278.3,107,270,121.7,266.8,138.1z M262.7,152.9L262.7,152.9v-0.1c0-23.1,9.8-44,25.7-59.1
		c15.9-15.1,37.7-24.5,61.9-24.5c24.2,0,46.1,9.4,61.9,24.5c15.9,15.1,25.7,36,25.7,59.1c0,23.1-9.8,44-25.7,59.1
		c-15.9,15.1-37.7,24.5-61.9,24.5c-24.2,0-46.1-9.4-61.9-24.5C272.5,196.8,262.7,175.9,262.7,152.9z M329.5,231.3
		c-8.3-4.3-15.7-11-21.8-19.5c-4.3-6-8-13-10.8-20.6c-2.9-1.2-5.7-2.5-8.3-4c-9.9-5.4-17.5-12.1-21.9-19.7
		c3.2,16.4,11.5,31.2,23.4,42.5C300.9,220.2,314.4,227.7,329.5,231.3z M433.8,167.5c-4.3,7.5-11.9,14.3-21.9,19.7
		c-2.6,1.4-5.3,2.7-8.2,4c-2.8,7.6-6.5,14.6-10.8,20.6c-6.1,8.5-13.5,15.3-21.8,19.5c15.1-3.6,28.6-11.1,39.3-21.3
		C422.3,198.7,430.6,184,433.8,167.5z"/>
	<path class="st2" d="M281.5,160.4v9.6l2.5,7.6l4.3,9.9l9.7,12l10.5,13l12.2,6.5l11.1,8c0,0,6.3,5.9,6.3,2.9c0-2.9-1-3.9-1-3.9
		s-1.8-1-3-2.2c-1.3-1.2-11-7-11-7l-7.2-6.9v-6l-2.7-7.9v-4.1v-5.1l2.9-2.7V180l-2.9-2.8h-6.1l-3.1-2.9l-5.6-5.3l-5.6-5.3v-2.2
		l-2.1-2l-1.6-1.5l-3.5-3.4l-2.7,3.8L281.5,160.4z M350,134.8l2.3-2.2h3.3l4.5,0.8l1.8,1.7v3.4l2.3,2.2l5.2-1.5l2-1.9l5.8,1.6
		l3.3,3.1l3.2-3l2.3-2.2v-2.4l-5-1.7L378,131l-1.1-3.1h4.4l4.7-1.4h2.2v-2.4l-1.6-1.6l-3.1,0.2h-1.8l-1.6-1.5l-2.3,2.2l-1.7,1.6
		l-1.6,1.8h-2.9l-2-1.9l-2.9-2.7H363l1.1,2.6l2.5,2.4l2.9,2.7h-1.8l-2.2,2.1v-2.7l-5.4-5.1h-4.5l-2.3,1.4l-2.3,2.2l-2,1.9v2.7h-4.3
		l-2.3-2.2l2.3-5.3h5.1V121V118h3.9l2-4.1h3.4l5.1-1.4h3.2l2.7-2.6v-5.3l-2.3-2.1l-2.8,2.7v4.6h-3.4l-2.7,0.5l-2-1.9v-4.1l4.5-4.3
		l3.4-3.2l6.3,2l4.9,1.4h5l3.6-3.4l2.9-2.8l1.9-1.8h4.3h4.3l6.8-3.8c0.7-1.4,34,21.8,33.2,66.2c0,8.6-2.9,20.6-2.9,20.6v-9.6
		c0-3.4-0.4-8.2-0.4-8.2l-2.2-4.8c0,0-2.9-2-2.9,0c0,2.1-1.8,7.2-1.8,7.2l-1.1,7.9l-3.1-2.9v-6v-6.5l-5.6-2.4v-3.4l-1.1-2l-2.2,2
		l-2.8-1.8l-3.5,3.3l2,6.7H408l-2.2,3.8l-5,3.1l-5.8-9.3l-3.4-3.3l-3.6-3.4l-0.9-3.9l-2.5,0.7v3.4l4,3.8l2.3,5.1l3.2,4l3.5,3.2v4.1
		h3.2h2.5l-2.5,6.5l-8.1,7.7l-3.4,7.4v5.8l-2.7,2.6l-7.8,11.1l-9,7.6l-3.2-3.1l-4.6-2.4v-7.9v-9.3l-1.5-7.5l-2.2-4.8l-4.1-3.9
		l-5.6-0.5H341l-2.3-2.2l-4.7-3.2l-2.4-2.3l-1.7-6.3v-3.4v-3.1l3.7-4.8l3.5-6.8l6.9-6.5h3.9L350,134.8z M337.7,72.2l-4,3.8l-4.3,4.1
		l-7.6,0l-1.8,6.5l-3.8,3.5h-5.5H305l-4.2,4l-4.1,3.9l2.5,2.4l3.1-3l5.3-3.4l3.7,3.5l-5,8.5l-7.4,1.9l-9.6,4.9l-3.1,6l-4.9,4.7
		l-5.1,4.9v5.1v3.8l-2.9-2.7v-3.3l-3.2,3.1l-1.6,11.6l-2.4,6.4l-1.9-6.4C261.2,144.9,273.2,81,337.7,72.2z M343.4,112.1l-2.9-0.9
		l2.5-2.4l5.6-2.4l-2.5,2.4v3.3H343.4z M432.7,181.9h-3.8h-4.3l-2.2,4.6l-2.5-0.7v4.1l-2.2,2l2.9,2.7l1,6.7
		C421.6,201.3,430.5,188.6,432.7,181.9z"/>
	<path class="st1" d="M172.5,72.3c21.6,0,41.1,8.4,55.7,22.1c1.1,1.1,1.9,2.3,1.9,3.8c0,2.6-2.1,4.8-4.8,4.8c-1.6,0-2.8-0.8-3.7-1.6
		c-12.8-12.1-30.1-19.5-49.2-19.5c-39.6,0-71.8,32.1-71.8,71.8s32.1,71.8,71.8,71.8c31.4,0,58.1-20.1,67.8-48.2h-67.8
		c-2.6,0-4.8-2.1-4.8-4.8c0-2.6,2.1-4.8,4.8-4.8h70.4l0,0l0,0h3.8c2.6,0,4.7,2.1,4.8,4.7c0,1.2-0.5,2.6-0.6,3
		c-9.5,34.4-41,59.6-78.4,59.6c-44.9,0-81.3-36.4-81.3-81.3S127.6,72.3,172.5,72.3"/>
</g>
</svg>
