<?xml version="1.0" encoding="utf-8"?>
<!-- Generator: Adobe Illustrator 21.0.0, SVG Export Plug-In . SVG Version: 6.00 Build 0)  -->
<svg version="1.1" id="Layer_1" xmlns="http://www.w3.org/2000/svg" xmlns:xlink="http://www.w3.org/1999/xlink" x="0px" y="0px"
	 viewBox="0 0 149.1 54" style="enable-background:new 0 0 149.1 54;" xml:space="preserve">
<style type="text/css">
	.st0{fill:#00A1E1;}
	.st1{fill:#FFFFFF;}
	.st2{fill:none;}
</style>
<rect class="st0" width="149.1" height="54"/>
<path class="st1" d="M105.6,9.1c0.9,1.5,1.6,3.4,1.6,5.3l-5.3,0c-0.4-1.1-0.7-2.4-1.8-3c-1-0.6-2.5-0.3-3.4,0.3
	c-2.4,2.9-2.4,7.8-0.7,11c0.6,0.7,1.4,1.3,2.3,1.4c0.9,0.2,1.6-0.2,2.3-0.8c1-1,1.3-1.9,1.6-3.1l5.1,0c-0.1,3.5-1.5,6.9-4.6,8.9
	c-2.8,1.5-6.9,1.4-9.4-0.8c-4.2-4-4.9-10.5-3.3-15.9c1-3.3,4-6.9,7.7-7.2C101.1,4.8,104,6.6,105.6,9.1"/>
<polygon class="st1" points="12.3,13.7 18,13.7 18,5.7 23.4,5.7 23.4,29.5 17.9,29.5 17.9,20 12.3,20 12.3,29.5 6.7,29.5 6.7,5.7 
	12.3,5.7 "/>
<path class="st1" d="M50.5,5.7l6,12.5l0-12.5l5.3,0l0,23.8l-5.4,0c-1.9-4.4-6.1-12.6-6.1-12.6l0,12.6l-5.4,0l0-23.8L50.5,5.7z"/>
<polygon class="st1" points="88.1,29.5 82.4,29.5 82.4,5.7 88.1,5.7 "/>
<path class="st1" d="M75.5,6.4c4.3,1.9,5.7,6.8,5.7,11.2c0.2,4.5-1.3,9-5.3,11.2c-3.7,1.3-8.4,0.6-12.5,0.6c0,0,0-21.6,0-23.7
	C67.6,5.8,71.3,5.3,75.5,6.4 M69,11.7l0,11.9c2,0,4.5,0.4,5.6-1.6c1.3-2.7,1.3-5.8,0-8.5C73.5,11.3,70.7,11.5,69,11.7"/>
<path class="st1" d="M139.1,6.4c3.2,1.1,4,4.9,4.2,7.7c0.1,2.8-0.9,6.2-3.8,7.7c-2.5,0.9-4.2,0.3-6.7,0.5l-0.3,0v7.3l-5.6,0l0-23.8
	C130.7,5.7,135.5,5.4,139.1,6.4 M136.4,11.7c-1.2-0.1-3.6,0-3.6,0l0,5l3.7,0l0.9-0.5c0.8-0.8,0.9-2.3,0.6-3.2
	C137.6,12.5,137.1,11.7,136.4,11.7"/>
<path class="st1" d="M43.8,29.5l-5.6,0l-1-3.3l-6.2,0l-1,3.3l-5.7,0l7.1-23.8l5.5,0L43.8,29.5z M34.2,13.7L32.4,21l3.5,0
	C35.4,18.6,34.9,16.1,34.2,13.7"/>
<path class="st1" d="M125.9,29.5l-5.6,0l-1-3.3l-6.2,0l-1,3.3l-5.7,0l7.1-23.8l5.5,0L125.9,29.5z M116.3,13.7l-1.8,7.3l3.5,0
	C117.5,18.6,117,16.1,116.3,13.7"/>
<polygon class="st1" points="95.1,48.4 91.6,48.4 91.6,34.5 95.1,34.4 "/>
<polygon class="st1" points="138,44.9 143.2,44.9 143.3,48.4 134.4,48.4 134.4,34.5 138,34.4 "/>
<path class="st1" d="M52.8,34.4c1.3,0.1,2.7,1,3.2,2.3c0.3,1.4,0.5,3.1-0.5,4.3l-0.9,0.7c2.1,1.4,1.6,4.2,1.9,6.6l-3.3,0
	c-0.5-1.9,0.3-4.4-1.7-5.2l-2.4,0l0,0.3l0,4.8l-3.3,0l0-14L52.8,34.4z M49.2,37.5c0,2.9,0,2.9,0,2.9l2.7,0c0.7-0.3,1-1.1,0.9-1.9
	C52.3,37.2,51,37.5,49.2,37.5"/>
<path class="st1" d="M106.3,35.7c1.9,2,2.2,4.9,1.9,7.5c-0.3,2-1.5,4.1-3.5,5c-1.9,0.8-4.1,0.5-5.8-0.6c-2.2-1.6-2.8-4.2-2.8-6.7
	c0.3-2.3,0.9-4.5,3-5.9C101.2,33.7,104.4,33.9,106.3,35.7 M102,37.4c-0.8,0.2-1.5,0.8-1.8,1.6c-0.6,1.7-0.5,4.1,0.5,5.6
	c0.4,0.3,0.9,0.7,1.4,0.6c0.8,0.1,1.5-0.3,2-1c0.6-1.6,0.8-4,0.1-5.6C103.7,37.8,103,37.3,102,37.4"/>
<path class="st1" d="M132.9,48.4h-3.3l-0.6-1.9l-3.7,0l-0.6,1.9l-3.3,0l4.2-14l3.2,0L132.9,48.4z M127.2,39.1l-1.1,4.3l2.1,0
	C127.9,42,127.6,40.5,127.2,39.1"/>
<path class="st1" d="M81.2,48.4h-3.3l-0.6-1.9l-3.7,0l-0.6,1.9l-3.3,0l4.2-14l3.2,0L81.2,48.4z M75.5,39.1l-1.1,4.3l2.1,0
	C76.2,42,75.9,40.5,75.5,39.1"/>
<path class="st1" d="M61.3,34.4l3.5,7.4l0-7.4l3.1,0l0,14l-3.1,0c-1.1-2.5-3.5-7.3-3.5-7.3l0,7.3l-3.1,0l0-14L61.3,34.4z"/>
<path class="st1" d="M113.1,34.5l3.5,7.3l0-7.3l3.1,0l0,14l-3.1,0c-1.1-2.6-3.6-7.4-3.6-7.4l0,7.4l-3.2,0l0-14L113.1,34.5z"/>
<path class="st1" d="M15,34.5l3.5,7.3l0-7.3h3.1l0,13.9l-3.1,0c-1.1-2.6-3.6-7.3-3.6-7.3l0,7.3l-3.2,0V34.5L15,34.5z"/>
<rect x="6.4" y="34.4" class="st1" width="3.3" height="14"/>
<polygon class="st1" points="30.1,37.7 33.5,37.7 33.5,34.5 23.1,34.5 23.1,37.7 26.6,37.7 26.6,37.7 26.6,48.4 30.1,48.4 
	30.1,37.7 "/>
<polygon class="st1" points="34.5,48.4 34.5,34.4 44.3,34.4 44.3,37.7 38,37.7 38,39.6 43.7,39.6 43.7,42.7 38,42.7 38,45.1 
	44.3,45.1 44.3,48.4 "/>
<polygon class="st1" points="87.2,37.7 90.6,37.7 90.6,34.5 80.2,34.5 80.2,37.7 83.7,37.7 83.7,37.7 83.7,48.4 87.2,48.4 
	87.2,37.7 "/>
<rect class="st2" width="149.1" height="54"/>
</svg>
