<?xml version="1.0" encoding="utf-8"?>
<!-- Generator: Adobe Illustrator 21.0.0, SVG Export Plug-In . SVG Version: 6.00 Build 0)  -->
<svg version="1.1" id="Layer_1" xmlns="http://www.w3.org/2000/svg" xmlns:xlink="http://www.w3.org/1999/xlink" x="0px" y="0px"
	 viewBox="0 0 166.5 138.2" style="enable-background:new 0 0 166.5 138.2;" xml:space="preserve">
<style type="text/css">
	.st0{fill:#00ADEE;}
</style>
<g>
	<path class="st0" d="M83,47.2c-2.4-7.3-7.5-14.2-15.1-20.5c7.8,1.4,17.2,1.4,26.8-2.4C89.9,30.4,85.2,38.2,83,47.2 M73.5,14.6
		c0-2.6,2.1-4.7,4.8-4.7c2.6,0,4.8,2.1,4.8,4.7c0,2.6-2.1,4.7-4.8,4.7C75.7,19.3,73.5,17.2,73.5,14.6 M99.6,90.7
		c0.5-0.4,0.7-1,0.7-1.6c0-0.6-0.2-1.1-0.6-1.5c-9-9.3-13.6-19.3-13.6-29.8c0-0.9,0-1.8,0.1-2.7c1.4-18.5,16.3-33.7,22.5-39.3
		c0.9-0.8,1.9-1.5,2.8-2.4c0.5-0.4,0.7-1,0.7-1.6c0-0.5-0.2-1-0.6-1.5c-0.8-0.9-2.2-1-3.1-0.3c-0.2,0.2-1.6,1.3-3.6,3.1
		c-7.5,5.9-15.1,8.7-22.2,9.6c2.9-1.6,4.9-4.6,4.9-8c0-5.1-4.2-9.2-9.3-9.2c-5.2,0-9.4,4.1-9.4,9.2c0,3.7,2.3,6.9,5.5,8.3
		c-7.3-0.4-13.8-2.5-18.4-4.5c-2.5-1.5-5.2-2.9-8-4.3c-0.6-0.3-1.3-0.3-1.9,0c-0.6,0.3-1.1,0.8-1.3,1.5c-0.1,0.2-0.1,0.5-0.1,0.7
		c0,1.3,1.3,2.1,3.4,3.3c1.1,0.7,3.2,1.8,5.9,2.9c15.8,9.3,24.5,20,25.9,31.7c0.1,1.1,0.2,2.2,0.2,3.3c0,19.2-19.1,35-19.3,35.1
		c-0.5,0.4-0.8,1.1-0.8,1.7c0,0.5,0.2,1,0.5,1.4c0.8,0.9,2.2,1.1,3.2,0.3c0.7-0.6,14.5-11.9,19.3-27.8c2.1,7.8,6.5,15.3,13.4,22.4
		C97.2,91.5,98.7,91.6,99.6,90.7"/>
	<path class="st0" d="M3.8,51.5c0-26.3,35.6-47.7,79.4-47.7c43.8,0,79.4,21.4,79.4,47.7c0,26.3-35.6,47.7-79.4,47.7
		C39.4,99.1,3.8,77.8,3.8,51.5 M83.2,103c45.9,0,83.2-23.1,83.2-51.5C166.5,23.1,129.1,0,83.2,0C37.3,0,0,23.1,0,51.5
		C0,79.9,37.3,103,83.2,103"/>
	<path class="st0" d="M0,118.8c0-0.8,0.7-1.5,1.5-1.5c0.8,0,1.5,0.6,1.5,1.5v5.6h8v-5.6c0-0.8,0.6-1.5,1.5-1.5
		c0.8,0,1.5,0.6,1.5,1.5V133c0,0.8-0.6,1.5-1.5,1.5c-0.8,0-1.5-0.6-1.5-1.5v-5.7H3v5.7c0,0.8-0.6,1.5-1.5,1.5
		c-0.8,0-1.5-0.6-1.5-1.5V118.8z"/>
	<path class="st0" d="M28.6,133c0,0.8-0.7,1.4-1.5,1.4c-0.8,0-1.5-0.6-1.5-1.4v-0.6c-0.8,1.2-2,2.2-4,2.2c-2.9,0-4.5-1.9-4.5-4.9
		v-6.8c0-0.8,0.6-1.5,1.4-1.5c0.8,0,1.5,0.6,1.5,1.5v5.9c0,2,1,3.1,2.7,3.1c1.7,0,2.9-1.2,2.9-3.1v-5.8c0-0.8,0.6-1.5,1.5-1.5
		c0.8,0,1.5,0.6,1.5,1.5V133z"/>
	<path class="st0" d="M31.7,122.9c0-0.8,0.6-1.5,1.4-1.5c0.8,0,1.5,0.6,1.5,1.5v0.6c0.8-1.1,1.9-2.2,3.9-2.2c1.8,0,3.1,0.9,3.8,2.2
		c1-1.3,2.4-2.2,4.3-2.2c2.8,0,4.5,1.8,4.5,4.9v6.8c0,0.8-0.6,1.4-1.4,1.4c-0.8,0-1.5-0.6-1.5-1.4v-5.9c0-2-0.9-3.1-2.6-3.1
		c-1.6,0-2.7,1.1-2.7,3.1v5.8c0,0.8-0.6,1.4-1.4,1.4c-0.8,0-1.5-0.6-1.5-1.4v-5.9c0-2-1-3.1-2.6-3.1c-1.6,0-2.7,1.2-2.7,3.1v5.8
		c0,0.8-0.6,1.4-1.5,1.4c-0.8,0-1.4-0.6-1.4-1.4V122.9z"/>
	<path class="st0" d="M61.8,129.7v-0.9c-0.7-0.3-1.7-0.5-2.9-0.5c-1.9,0-3,0.8-3,2.1v0.1c0,1.2,1.1,1.9,2.5,1.9
		C60.3,132.5,61.8,131.4,61.8,129.7 M53.1,130.7L53.1,130.7c0-2.8,2.1-4.1,5.2-4.1c1.4,0,2.4,0.2,3.4,0.5v-0.3
		c0-1.8-1.1-2.8-3.2-2.8c-1.1,0-2,0.2-2.8,0.5c-0.2,0.1-0.3,0.1-0.5,0.1c-0.7,0-1.2-0.5-1.2-1.2c0-0.5,0.4-1,0.8-1.2
		c1.2-0.5,2.4-0.7,4.1-0.7c1.9,0,3.3,0.5,4.2,1.4c0.9,0.9,1.4,2.3,1.4,3.9v6.3c0,0.8-0.6,1.4-1.4,1.4c-0.8,0-1.4-0.6-1.4-1.2v-0.5
		c-0.9,1-2.2,1.8-4.1,1.8C55.2,134.6,53.1,133.2,53.1,130.7"/>
	<path class="st0" d="M67.4,122.9c0-0.8,0.6-1.5,1.4-1.5c0.8,0,1.5,0.6,1.5,1.5v0.6c0.8-1.2,2-2.2,4-2.2c2.9,0,4.5,1.9,4.5,4.9v6.8
		c0,0.8-0.6,1.4-1.4,1.4c-0.8,0-1.5-0.6-1.5-1.4v-5.9c0-2-1-3.1-2.7-3.1c-1.7,0-2.9,1.2-2.9,3.1v5.8c0,0.8-0.6,1.4-1.5,1.4
		c-0.8,0-1.4-0.6-1.4-1.4V122.9z"/>
	<path class="st0" d="M81.9,122.9c0-0.8,0.6-1.5,1.4-1.5c0.8,0,1.5,0.6,1.5,1.5v10c0,0.8-0.6,1.4-1.5,1.4c-0.8,0-1.4-0.6-1.4-1.4
		V122.9z M81.7,118.2c0-0.9,0.7-1.4,1.7-1.4c0.9,0,1.7,0.6,1.7,1.4v0.1c0,0.9-0.7,1.4-1.7,1.4c-0.9,0-1.7-0.6-1.7-1.4V118.2z"/>
	<path class="st0" d="M88.6,130.8v-6.7h-0.5c-0.7,0-1.2-0.6-1.2-1.2c0-0.7,0.6-1.3,1.2-1.3h0.5v-2.2c0-0.8,0.7-1.4,1.5-1.4
		c0.8,0,1.4,0.6,1.4,1.4v2.2h2.3c0.7,0,1.3,0.6,1.3,1.3c0,0.7-0.6,1.2-1.3,1.2h-2.3v6.2c0,1.1,0.6,1.6,1.6,1.6
		c0.3,0,0.6-0.1,0.7-0.1c0.7,0,1.2,0.5,1.2,1.2c0,0.5-0.4,1-0.8,1.1c-0.6,0.2-1.2,0.3-2,0.3C90.1,134.5,88.6,133.6,88.6,130.8"/>
	<path class="st0" d="M97.6,137.9c-0.4-0.1-0.9-0.5-0.9-1.2c0-0.7,0.6-1.2,1.2-1.2c0.2,0,0.4,0,0.5,0.1c0.3,0.1,0.6,0.2,1,0.2
		c0.9,0,1.3-0.4,1.8-1.3l0.1-0.3l-4.7-10.5c-0.1-0.2-0.2-0.5-0.2-0.7c0-0.8,0.6-1.4,1.4-1.4c0.7,0,1.2,0.4,1.4,1.1l3.4,8.4l3.2-8.4
		c0.2-0.6,0.6-1.1,1.4-1.1c0.8,0,1.4,0.6,1.4,1.4c0,0.2-0.1,0.6-0.1,0.7l-4.6,11.1c-1.1,2.6-2.2,3.6-4.3,3.6
		C98.8,138.2,98.2,138.1,97.6,137.9"/>
	<path class="st0" d="M117.8,119c0-0.8,0.7-1.5,1.5-1.5h9.8c0.7,0,1.3,0.6,1.3,1.3c0,0.7-0.6,1.3-1.3,1.3h-8.3v4.6h7.3
		c0.7,0,1.3,0.6,1.3,1.3c0,0.7-0.6,1.3-1.3,1.3h-7.3v5.5c0,0.8-0.6,1.5-1.5,1.5c-0.8,0-1.5-0.6-1.5-1.5V119z"/>
	<path class="st0" d="M132.8,122.9c0-0.8,0.6-1.5,1.4-1.5c0.8,0,1.5,0.6,1.5,1.5v10c0,0.8-0.7,1.4-1.5,1.4c-0.8,0-1.4-0.6-1.4-1.4
		V122.9z M132.5,118.2c0-0.9,0.7-1.4,1.7-1.4c0.9,0,1.7,0.6,1.7,1.4v0.1c0,0.9-0.7,1.4-1.7,1.4c-0.9,0-1.7-0.6-1.7-1.4V118.2z"/>
	<path class="st0" d="M138.9,122.9c0-0.8,0.6-1.5,1.4-1.5c0.8,0,1.5,0.6,1.5,1.5v1.3c0.7-1.6,1.9-2.8,3.2-2.8c0.9,0,1.4,0.6,1.4,1.4
		c0,0.8-0.5,1.3-1.2,1.4c-2.1,0.4-3.5,1.9-3.5,4.9v3.8c0,0.8-0.7,1.4-1.5,1.4c-0.8,0-1.4-0.6-1.4-1.4V122.9z"/>
	<path class="st0" d="M147.7,133c-0.3-0.2-0.6-0.5-0.6-1c0-0.7,0.5-1.2,1.2-1.2c0.2,0,0.5,0.1,0.6,0.2c1.2,0.8,2.5,1.2,3.7,1.2
		c1.3,0,2-0.5,2-1.4v0c0-1-1.3-1.3-2.8-1.8c-1.9-0.5-4-1.3-4-3.7v0c0-2.4,2-3.9,4.5-3.9c1.4,0,2.8,0.4,4,1c0.4,0.2,0.7,0.6,0.7,1.1
		c0,0.7-0.5,1.2-1.2,1.2c-0.2,0-0.4,0-0.6-0.1c-1-0.5-2.1-0.9-3-0.9c-1.1,0-1.8,0.5-1.8,1.2v0c0,0.9,1.4,1.3,2.9,1.8
		c1.9,0.6,3.9,1.4,3.9,3.7v0.1c0,2.7-2.1,4-4.7,4C150.9,134.6,149.2,134,147.7,133"/>
	<path class="st0" d="M160,130.8v-6.7h-0.5c-0.7,0-1.2-0.6-1.2-1.2c0-0.7,0.5-1.3,1.2-1.3h0.5v-2.2c0-0.8,0.7-1.4,1.5-1.4
		c0.8,0,1.4,0.6,1.4,1.4v2.2h2.3c0.7,0,1.3,0.6,1.3,1.3c0,0.7-0.6,1.2-1.3,1.2h-2.3v6.2c0,1.1,0.6,1.6,1.6,1.6
		c0.3,0,0.6-0.1,0.7-0.1c0.6,0,1.2,0.5,1.2,1.2c0,0.5-0.4,1-0.8,1.1c-0.6,0.2-1.2,0.3-2,0.3C161.5,134.5,160,133.6,160,130.8"/>
</g>
</svg>
