<?xml version="1.0" encoding="utf-8"?>
<!-- Generator: Adobe Illustrator 21.0.0, SVG Export Plug-In . SVG Version: 6.00 Build 0)  -->
<svg version="1.1" id="Layer_1" xmlns="http://www.w3.org/2000/svg" xmlns:xlink="http://www.w3.org/1999/xlink" x="0px" y="0px"
	 viewBox="0 0 237.8 50.4" style="enable-background:new 0 0 237.8 50.4;" xml:space="preserve">
<style type="text/css">
	.st0{fill:#0075AB;}
</style>
<g>
	<path class="st0" d="M198.6,10.4c0,0,0,0.2,0.1,0.2c0,0,0.1,0,0.2,0C198.8,10.5,198.8,10.5,198.6,10.4
		C198.6,10.4,198.6,10.4,198.6,10.4"/>
	<path class="st0" d="M194.8,15.9c0-0.3-0.4-0.4-0.6-0.7c-0.1-0.1-0.2-0.1-0.3-0.3c0,0,0.5-0.2,0.7-0.1c0.2,0,0.4,0.1,0.6,0.1
		c-0.3-0.3-0.4-0.5-1-0.6c-0.4,0-0.5,0-0.8,0.1c0,0-0.4,0.1-0.4,0.1c-0.1,0-0.2,0.3-0.2,0.4c0,0.1,0.3,0.3,0.3,0.3
		c0,0.3,0.5,0.8,0.8,1c-0.2,0.1-0.1,0.2-0.3,0.4c0,0-0.1,0-0.2,0c0,0.1,0.1,0.1,0.2,0.2c0.1,0.1,0,0.2,0.1,0.3
		c0.1,0.1,0.2,0.2,0.3,0.2c0.1,0,0.1,0.2,0.2,0.2c0.1,0.1,0.4,0.1,0.5,0.1c0.2,0,0.4,0,0.5,0c0-0.1,0-0.1,0-0.2c0,0,0-0.2,0-0.2
		c0-0.1,0-0.1,0-0.2c0-0.2-0.1-0.3-0.4-0.3c0-0.1,0.1-0.3,0.2-0.3c0.1,0,0.2,0,0.3,0c0-0.1-0.2-0.3-0.2-0.4
		C195.1,15.8,194.9,15.8,194.8,15.9"/>
	<path class="st0" d="M205.1,24.8c-0.1,0-0.1-0.1-0.1-0.2c0-0.1,0-0.2,0-0.3c0,0,0-0.1,0-0.1c-0.1-0.2-0.1-0.2-0.1-0.4
		c-0.1-0.1-0.1-0.2-0.2-0.3c-0.1-0.1,0-0.3-0.1-0.4c0-0.1-0.1-0.2-0.2-0.3c0,0.3-0.1,0.3-0.3,0.3c-0.1,0-0.1,0-0.1-0.1
		c0,0.2-0.1,0-0.2,0.1c0,0.1,0,0.3-0.1,0.4c-0.1,0.2-0.3,0.2-0.4,0.4c-0.1,0.2-0.2,0.4-0.4,0.6c-0.1,0.1-0.1,0.2-0.2,0.2
		c-0.1,0.1-0.3,0-0.3,0.2c0,0.2,0.1,0.4,0.1,0.6c0,0.3-0.1,0.4-0.1,0.6c0,0.1,0,0.2,0,0.3c0,0,0,0,0,0c0,0,0,0-0.1,0
		c-0.1,0.1-0.1,0.3-0.2,0.4c-0.1,0.1-0.1,0-0.1,0.1c0,0.1,0,0.2-0.1,0.2c-0.1,0-0.1,0-0.1-0.1c0,0-0.1-0.1-0.1-0.1
		c-0.1-0.3-0.1-0.5-0.2-0.7c0-0.2-0.1-0.3-0.2-0.3c-0.1-0.2,0-0.3-0.1-0.4c-0.1-0.1-0.1-0.2-0.1-0.3c0-0.2-0.1-0.5-0.2-0.7
		c-0.1-0.2-0.2-0.4-0.2-0.6c0,0,0-0.1,0-0.2c0,0,0,0,0,0c0-0.1,0-0.2,0-0.3c0-0.2-0.1-0.3-0.1-0.4c0,0,0.1-0.1,0-0.1c0,0,0,0-0.1,0
		c-0.1,0.1-0.1,0.4-0.4,0.4c-0.3,0-0.4-0.4-0.5-0.5c0.1-0.1,0.1,0,0.2,0c0.1,0,0.1-0.1,0.1-0.2c-0.1,0-0.1,0-0.2,0
		c-0.2,0-0.5-0.2-0.6-0.4c-0.1-0.1-0.1-0.4-0.3-0.5c-0.1,0-0.2,0-0.3,0c-0.1,0-0.2,0-0.3,0c-0.1,0-0.2-0.1-0.3-0.1
		c0,0-0.1,0-0.1,0.1c-0.1,0-0.1,0-0.2,0c0,0,0,0-0.1,0c-0.2,0-0.7-0.2-0.9-0.2c0,0-0.4-0.1-0.4-0.1c-0.1-0.1-0.1-0.5-0.4-0.5
		c-0.1,0-0.2,0.1-0.2,0.2c-0.2,0-0.4,0-0.6,0c-0.2-0.1-0.3-0.2-0.4-0.3c-0.1-0.1-0.3-0.1-0.5-0.2c-0.1-0.1,0-0.2-0.1-0.2
		c-0.1-0.3-0.4-0.6-0.7-0.6c-0.2,0-0.2,0.2-0.2,0.4c0,0.1,0,0.2,0,0.3c0.1,0.3,0.4,0.8,0.7,0.9c0,0.1,0.1,0.2,0.1,0.3
		c0.1,0,0.1-0.2,0.2-0.2c0,0,0,0.1,0,0.1c0,0.1-0.1,0.2-0.1,0.4c0,0.2,0.3,0.3,0.5,0.3c0.8,0,0.8-0.4,1.2-0.7c0,0.1,0,0.3,0,0.4
		c0.2,0.3,0.4,0.4,0.7,0.5c0.1,0,0.1,0.2,0.2,0.3c0,0,0,0,0,0c0.1,0.1,0.2,0.1,0.2,0.2c0,0.3-0.4,0.4-0.4,0.6c-0.2,0-0.3,0-0.3,0.2
		c0,0.1,0,0.3-0.2,0.3c-0.2,0-0.1,0.3-0.3,0.3c-0.1,0-0.3,0.2-0.3,0.3c-0.3,0.1-0.9,0.1-0.9,0.3c0,0,0,0.1,0,0.1
		c-0.3,0.1-0.5,0.2-0.8,0.3c-0.2,0-0.6,0.4-0.8,0.5c-0.2,0-0.3,0-0.5,0c-0.2,0.1-0.3,0.3-0.5,0.3c0,0-0.1,0-0.1,0
		c0,0-0.4-0.2-0.4-0.2c0,0,0.1,0,0-0.1c-0.1-0.2-0.1-0.4-0.1-0.7c-0.1,0,0-0.3,0-0.3c0.1-0.3-0.2-0.4-0.4-0.5
		c-0.1-0.1-0.4-0.5-0.4-0.8c-0.4-0.1-0.5-0.3-0.6-0.8c0-0.3-0.2-0.3-0.3-0.6c-0.1-0.1-0.1-0.1-0.2-0.2c0,0-0.2,0-0.3-0.1
		c-0.1-0.1-0.1-0.3-0.1-0.3c0-0.1-0.1-0.2-0.2-0.3c-0.2-0.2-0.3-0.3-0.4-0.5c0,0-0.2-0.3-0.2-0.3c0-0.1,0-0.2,0.1-0.4
		c-0.1,0.2-0.2,0.5-0.2,0.6c-0.3,0-0.5-0.6-0.7-0.8c0,0.1,0,0.1,0,0.2c0.4,0.7,0.8,1.4,1.2,2.1c-0.1,0.3,0.3,0.5,0.5,0.7
		c0,0.2,0,0.4,0,0.6c0.1,0.3,0.4,0.6,0.6,0.9c0.2,0.3,0.1,0.6,0.3,0.8c0.2,0.2,0.3,0.2,0.6,0.4c0.2,0.2,0.3,0.6,0.7,0.6
		c0,0.2,0.1,0.2,0,0.4c0.2,0.1,0.3,0.5,0.5,0.5c0.2,0,0.2-0.2,0.4-0.2c0.2-0.1,0.3,0,0.5,0c0.5-0.1,0.8-0.3,1.2-0.4
		c0,0.1,0.1,0.1,0.1,0.2c0,0.7-0.6,1.7-0.9,2.1c-0.4,0.5-0.5,0.8-1,1.2c-0.3,0.3-0.7,0.5-1,0.7c-0.1,0.1-0.2,0.5-0.3,0.6
		c-0.3,0.3-0.6,0.2-0.8,0.7c-0.1,0.3-0.4,0.4-0.4,0.7c0,0.4,0.2,0.7,0.2,1c0,0.4,0.5,0.6,0.5,0.9c0,0.1-0.1,0.2-0.1,0.2
		c0,0.1,0,0.2,0,0.3c0,0.2,0,0.5,0,0.7c0.1,0.1,0.1,0.1,0.1,0.2c-0.1,0.8-1.6,0.8-1.8,1.5c-0.2,0-0.4,0.2-0.4,0.3
		c0,0.3,0.3,0.2,0.3,0.6c0,0.2-0.1,0.6-0.2,0.7c-0.1,0.1-0.3,0.1-0.5,0.1c-0.5,0.2-0.3,0.1-0.4,0.4c0.1,0,0.2,0.1,0.2,0.2
		c0,0.3-0.2,0.5-0.4,0.6c-0.3,0.2-0.4,0.2-0.6,0.4c-0.3,0.3-0.5,0.6-1,0.7c-0.2,0.1-0.6,0-0.6,0.1c-0.2,0-0.2,0.1-0.4,0.1
		c-0.1,0-0.2-0.1-0.3-0.1c-0.5,0-0.6,0.3-1,0.3c-0.2,0-0.3-0.1-0.4-0.2c-0.1,0-0.1,0-0.1,0c0-0.2,0-0.3-0.1-0.4
		c0.1-0.1,0.1-0.2,0-0.3c-0.2-0.3-0.5-0.8-0.6-0.8c-0.4-0.3-0.7-0.6-0.8-1.5c0-0.1,0-0.2,0-0.3c0-0.1-0.2-0.2-0.3-0.3
		c-0.4-0.5-0.7-0.9-0.8-1.6c0-0.8,0.6-1,0.6-1.6c0-0.3-0.1-0.4-0.2-0.6c-0.1-0.5-0.2-0.7-0.3-1c-0.1-0.2-0.1-0.5-0.2-0.7
		c-0.3-0.4-1-1-1-1.5c0-0.1,0.2-0.4,0.3-0.5c-0.1-0.1,0-0.1,0-0.2c0-0.1,0-0.5,0.1-0.6c-0.1-0.3-0.4-0.5-0.8-0.5c-0.2,0-0.6,0-0.8,0
		c-0.4,0,0-0.8-0.5-0.8c-0.6,0-1.3,0.3-1.7,0.4c-0.2,0.1-0.2,0.2-0.4,0.2c-0.2,0-0.5-0.2-0.7-0.2c-0.5,0-0.7,0.2-1.1,0.2
		c-0.1,0-0.3-0.1-0.3-0.1c-0.5-0.7-0.9-0.7-1.1-1c-0.2-0.3-0.3-0.6-0.5-0.8c-0.1-0.1-0.6-0.6-0.6-0.6c0-0.1-0.1-0.1-0.1-0.2
		c0,0,0,0,0,0c0-0.2,0-0.3,0-0.4c0-0.2-0.2-0.4-0.2-0.5c0.2-0.1,0.4-0.7,0.4-1c0-0.5-0.2-0.8-0.2-1.3c0-0.2,0.2-0.4,0.3-0.5
		c0.1-0.4,0.3-0.9,0.6-1.2c0.2-0.2,0.5-0.4,0.7-0.5c0.2-0.1,0.3-0.4,0.5-0.6c0-0.2,0-0.5,0.2-0.7c0.3-0.4,0.6-0.4,0.9-0.8
		c0.1,0,0.1-0.1,0.2-0.1c0.1-0.1,0.2-0.4,0.3-0.5c0.3,0.2,0.4,0.2,0.8,0.2c0.2,0,0.5-0.1,0.6-0.2c0.5-0.2,1.2-0.5,1.8-0.6
		c0.2,0,0.3,0.1,0.4,0.1c0.1,0,0.3-0.2,0.5-0.2c0.2,0,0.2,0.1,0.4,0.1c0.2,0,0.3-0.2,0.5-0.2c0.2,0,0.2,0.2,0.4,0.2
		c0.1,0,0.1-0.1,0.2-0.1c0,0.2-0.2,0.2-0.2,0.3c0,0.1,0.2,0.2,0.2,0.2c0,0.2-0.2,0.3-0.2,0.4c0,0.3,0.3,0.5,0.5,0.5
		c0.1,0,0.2,0,0.4,0c0.8,0,1.3,0.7,2.3,0.7c0.1,0,0.3-0.1,0.3-0.2c0-0.1,0-0.2,0-0.2c0-0.4,0.3-0.4,0.7-0.5c0,0,0,0,0,0
		c0.1,0,0.2,0,0.3,0c0,0.2,0.2,0.2,0.2,0.3c0.1,0.1,0.4,0,0.6,0.1c0.4,0.1,1,0.3,1.4,0.3c0.4,0,0.2-0.1,0.6-0.1
		c0.3,0,0.5,0.1,0.8,0.1c0.2,0,0.2,0,0.4,0c0,0,0,0.1,0.1,0.1c0,0-0.1-0.1-0.1-0.2c0-0.1,0.1-0.1,0.1-0.1c0.1-0.3,0.1-0.4,0.2-0.6
		c0.1-0.2,0.3-0.3,0.3-0.5c0-0.2-0.1-0.4-0.1-0.5c0-0.1,0.1-0.1,0.1-0.1c0,0,0-0.1,0-0.1c-0.1,0-0.2,0.1-0.2,0.1
		c-0.1,0-0.2-0.1-0.3-0.1c-0.2,0.1-0.2,0.3-0.6,0.3c-0.3,0-0.5-0.3-0.8-0.3c-0.3,0-0.2,0.3-0.4,0.3c-0.2,0-0.4-0.3-0.6-0.2
		c0,0-0.1,0-0.1,0c0,0,0.1,0,0.1-0.1c-0.1-0.1-0.4-0.2-0.3-0.3c-0.1-0.2-0.3-0.2-0.4-0.3c0.1-0.1,0.3-0.1,0.3-0.2c0,0,0-0.1,0-0.1
		c-0.1,0-0.2,0-0.2,0c0-0.3,1.1-0.1,1.3-0.2c0-0.1-0.1-0.1-0.1-0.1c0-0.1,0.3,0,0.3,0c0.1,0,0.3,0,0.4,0c0.2,0,0.4-0.1,0.5-0.2
		c0.2-0.1,0.5-0.1,0.7-0.1c0.3,0,0.3,0.1,0.6,0.1c0,0.1,0.5,0.2,0.6,0.2c0.2,0,0.5,0,0.7,0c0.2,0,0.4-0.1,0.6-0.2h0c0,0,0,0,0,0
		c-0.1-0.7-1.4-0.8-1.7-1.2c0.7-0.1,0.4-0.3,0.3-0.4c0,0,0.2-0.1,0.2-0.1c-0.3,0.1-1.2,0.3-1.2,0.3c0,0.1,0.2,0.1,0.2,0.1
		c0,0,0.3,0,0.3,0c-0.1,0.1-0.7,0.2-0.8,0.2c-0.1,0-0.3-0.2-0.5-0.3c0,0,0.3-0.1,0.2-0.1c-0.4,0-0.7-0.2-0.7-0.2
		c-0.3,0-0.3,0.3-0.6,0.4c0,0,0,0.1,0,0.1c-0.1,0-0.3,0.1-0.3,0.1c0,0.1,0,0.1-0.1,0.1c0,0.1,0,0.2,0,0.2c-0.1,0.1-0.3,0.3-0.3,0.4
		c0,0.2,0.3,0.3,0.4,0.4c0,0-0.1,0-0.2,0c-0.1,0-0.3,0-0.5,0.1c-0.2,0.1-0.3,0-0.4,0c-0.2,0-0.2-0.1-0.4-0.1c-0.2,0-0.3,0.1-0.4,0.1
		c0,0.1,0,0.1,0,0.2c-0.2,0-0.2-0.1-0.3-0.1c0,0-0.1,0.1-0.1,0.1c0.1,0.1,0.2,0.1,0.2,0.2c0,0-0.1,0.1-0.1,0.1c0,0,0.4,0.2,0.4,0.2
		c0,0,0,0.1,0,0.1c0,0-0.2,0.1-0.2,0.2c0,0,0,0,0,0c-0.1,0-0.3-0.2-0.3-0.3c0,0,0,0.1,0,0.1c0,0,0.1,0.2,0.1,0.3
		c0,0.1-0.1,0.2,0,0.3c0,0-0.1,0-0.2,0c-0.2,0-0.5-0.2-0.5-0.4c0-0.1,0.1-0.2,0.2-0.3c-0.1,0-0.2,0-0.2,0c0,0-0.1-0.1-0.1-0.1
		c-0.1-0.1-0.1-0.2-0.3-0.3c-0.2-0.1-0.1-0.1-0.1-0.3c0-0.1,0-0.2,0-0.2c0-0.1-0.3-0.3-0.4-0.3c-0.2-0.1-0.4-0.1-0.4-0.2
		c0,0-0.1,0-0.2,0c-0.3,0-0.6-0.3-0.6-0.5c-0.1,0-0.2,0-0.4,0c-0.2,0-0.1-0.2-0.1-0.2c-0.1,0.1-0.4,0.1-0.4,0.2c0,0,0,0,0.1,0
		c0,0-0.1,0.1-0.1,0.1c0,0.1,0.1,0.2,0.2,0.2c0.2,0,0.3,0.2,0.3,0.2c0,0.1,0.2,0.3,0.2,0.3c0.2,0.1,0.3,0,0.5,0c0,0,0,0.1,0,0.1
		c0,0.1,0.3,0.1,0.3,0.2c0.3,0.1,0.6,0.2,0.6,0.4c-0.2,0-0.2-0.1-0.4-0.1c-0.2,0-0.2,0.2-0.2,0.2c0,0.1,0.1,0.1,0.1,0.2
		c0,0-0.1,0.1-0.1,0.1c-0.1,0.1-0.1,0.3-0.3,0.3c-0.1,0-0.1,0-0.1-0.1c0.2,0,0.2-0.2,0.2-0.2c0-0.1-0.1-0.2-0.1-0.2
		c0,0-0.6-0.4-0.6-0.5c0,0-0.2,0-0.2-0.1c-0.4,0-0.5-0.1-0.7-0.3c-0.1-0.1-0.3-0.1-0.3-0.1c0-0.3-0.3-0.5-0.7-0.5
		c-0.2,0-0.2,0.1-0.3,0.2c-0.2,0.1-0.4,0.2-0.7,0.3c-0.3,0-0.2-0.1-0.4-0.1c-0.2,0-0.4,0.1-0.4,0.2c0,0.1,0,0.1,0.1,0.2
		c-0.1,0.2-0.3,0.3-0.6,0.3c-0.2,0.1-0.6,0.4-0.6,0.6c0,0.1,0.1,0.1,0.1,0.1c-0.2,0.2-0.2,0.4-0.5,0.5c-0.1,0.1-0.2,0.4-0.4,0.3
		c0,0,0,0,0,0c-0.1,0-0.3,0-0.4,0c-0.3,0-0.4,0.2-0.7,0.3c-0.2,0-0.2-0.4-0.4-0.4c-0.2,0-0.3,0.1-0.5,0.1c-0.1,0-0.1,0-0.1-0.1
		c0-0.2,0-0.3,0-0.5c-0.1,0-0.2,0-0.2-0.1c0-0.1,0.1-0.2,0.1-0.2c0-0.2,0.1-0.4,0.2-0.6c0-0.1-0.1-0.2-0.1-0.3c0,0,0.4-0.3,0.4-0.3
		c0,0,0.1,0,0.2,0c0.2,0,0.3,0,0.5-0.1c0,0,0.1,0,0.2,0c0.2,0,0.3,0,0.5-0.1c0.1,0,0.2,0,0.3,0c0.1,0,0.3-0.1,0.3-0.1
		c0-0.2,0.2-0.2,0.2-0.3c0,0,0-0.2,0-0.2c0,0,0,0,0,0c0,0,0.1-0.1,0.1-0.1c0-0.1-0.1-0.1-0.1-0.1c-0.2,0-0.3-0.3-0.3-0.4
		c-0.1,0-0.1,0-0.1,0c-0.2,0-0.6,0-0.6-0.1c0,0,0,0,0,0c0-0.1,0.3-0.1,0.4-0.2c0,0,0.2,0,0.3,0c0.1,0,0.2-0.1,0.3-0.1c0,0,0,0,0-0.1
		c-0.1,0,0-0.1,0-0.1c0,0,0,0,0-0.1c0,0,0.1,0,0.1,0c0.1,0.1,0.2,0.1,0.3,0.1c0.1,0,0.2-0.1,0.2-0.1c0.3,0,0.2-0.1,0.3-0.3
		c0.1,0,0.1,0,0.2,0c0.1,0,0.5-0.2,0.6-0.2c0.1-0.1,0.1-0.2,0.1-0.2c0,0,0.1-0.1,0.1-0.1c0.2-0.1,0.6-0.4,0.9-0.4c0.1,0,0.1,0,0.2,0
		c0,0,0.1,0,0.1,0c0.1,0,0.2,0,0.3,0c0.1,0,0.2-0.1,0.3-0.1c0,0-0.1-0.1-0.1-0.1c0-0.2-0.2-0.2-0.2-0.3c0-0.3,0.5-0.3,0.8-0.4
		c0,0,0,0,0,0.1c-0.1,0.1-0.1,0.1-0.1,0.2c0,0.1,0.1,0.1,0.2,0.1c0,0,0,0,0,0c0,0-0.1,0.1-0.1,0.1c-0.1,0.1-0.3,0.1-0.3,0.2
		c0,0.1,0.1,0.1,0.1,0.1c0,0,0,0,0,0.1c0.1,0,0-0.2,0-0.2c0,0,0.3,0.3,0.3,0.3c0.3,0,0.5-0.2,0.8-0.2c0,0-0.1,0.1-0.1,0.1
		c0,0,0.2,0.1,0.2,0.1c0.1,0,0.2-0.1,0.2-0.1c0.2-0.1,0.3,0,0.5-0.1c0.1,0,0.3-0.1,0.4-0.1c0.2,0,0.3,0,0.4,0c0,0,0,0-0.1,0.1
		c0.1,0,0.3,0,0.4,0c0-0.2,0.5-0.1,0.5-0.3c0-0.1,0.2-0.5,0.4-0.5c0.2,0,0.2,0.1,0.5,0.1c0.1,0,0.3-0.1,0.2-0.3
		c-0.2-0.2-0.4,0-0.6-0.1c-0.2-0.1,0.5-0.3,0.8-0.3c0.3,0,0.7,0.1,0.9,0.1c0.2,0,0.3-0.1,0.4-0.2c-0.1-0.1-0.6-0.1-0.7-0.2
		c-0.1,0.1-0.3,0.2-0.6,0.1c-0.2,0-0.4,0-0.6,0c-0.2,0-0.2,0-0.2-0.1c-0.2,0-0.5-0.1-0.5-0.2c0-0.1,0.1-0.1,0.2-0.1
		c-0.1,0-0.1-0.1-0.1-0.1c0,0,0.1-0.2,0-0.2c0.5,0,0.4-0.1,0.7-0.2c0.2,0,0.6-0.2,0.7-0.3c0-0.1-0.4-0.1-0.7-0.1
		c-0.4,0-0.7,0.1-0.7,0.2c0,0.1,0,0.1,0,0.1c0,0.1-0.6,0.3-0.8,0.3c-0.2,0.1-0.4,0.1-0.5,0.2c-0.1,0.1,0,0.2-0.2,0.2
		c0.1,0,0.1,0.1,0.2,0.1c0.1,0,0.1,0.1,0.1,0.1c0.2,0,0.3,0.1,0.3,0.2c0,0.1-0.4,0.2-0.5,0.2c-0.2,0-0.2,0.2-0.2,0.3
		c0,0.1,0.1,0.1,0.2,0.1c0,0.1-0.3,0.2-0.4,0.3c-0.2,0-0.4,0-0.4,0c-0.2,0-0.3,0.3-0.6,0.3c-0.1,0-0.2-0.3-0.2-0.3c0,0,0,0,0-0.1
		c-0.2-0.1-0.2-0.2-0.2-0.3c-0.1-0.1-0.2-0.1-0.2-0.2c0,0,0-0.1,0.1-0.1c-0.1,0-0.1-0.1-0.2-0.1c-0.3,0.2-0.7,0.4-1.2,0.4
		c-0.1,0-0.5-0.1-0.5-0.1c0,0,0.2-0.1,0.2-0.1c0,0,0,0,0-0.1c-0.1,0-0.2,0-0.3,0.1c0,0,0.1-0.1,0.2-0.1c-0.2-0.1-0.3-0.3-0.2-0.4
		c0-0.1,0.1-0.1,0.2-0.2c0.1-0.1,0.3-0.2,0.5-0.2c0.2,0,0.2-0.1,0.6-0.2c-0.1,0-0.2,0-0.3,0c0.5-0.1,0.7-0.2,1.1-0.4
		c0.1-0.1,0.1-0.2,0.2-0.2c0,0,0.1-0.1,0.1-0.1c0.1-0.1,0.3-0.2,0.5-0.2c0.2-0.1,0.6-0.2,0.6-0.3c-0.3,0-0.6,0.1-0.9,0.1
		c0.1,0,0.2-0.1,0.2-0.1c0,0,0,0,0,0c0-0.1,0.1-0.1,0.2-0.1c0,0,0.1,0,0.1,0c0,0,0.1,0,0.1-0.1c0.1,0,0.1,0,0.1,0c0.2,0,0.1,0,0.2,0
		c0,0,0.2-0.1,0.2-0.1c-0.1,0-0.1,0-0.2,0c0.1,0,0.1-0.1,0.3-0.1c0.1,0,0.3,0,0.4,0c0,0-0.1,0-0.1,0c0.1,0,0.3,0,0.5-0.1
		c0,0,0,0,0,0c0.2,0,0.2-0.1,0.5-0.1c0,0,0,0,0,0.1c0.2-0.1,0.4-0.1,0.6-0.1c-0.1,0-0.2,0-0.2,0c0,0,0.2,0,0.3-0.1
		c0.1,0,0.1,0.1,0.3,0.1c0.2,0,0.7-0.1,0.7,0c0,0.1-0.2,0.1-0.3,0.1c0.3,0,0.3-0.1,0.5-0.1c0,0,0,0,0.1,0.1c0.2,0,0.3-0.1,0.5-0.1
		c0,0.1,0,0.1,0.1,0.1c0,0,0.1-0.1,0.2,0c0.1,0,0.3,0,0.4,0.1c-0.1,0.1-0.2,0-0.5,0.1c0.1,0,0.2,0,0.2,0.1c0.1,0,0.4,0,0.4,0
		c0.3,0,0.5,0.1,0.6,0.1c0.4,0,0.8,0.1,1.3,0.3c1.9,0.4,0.7,0.6,0.1,0.5c-0.5-0.1-0.7-0.1-1.2-0.1c0.1,0,0.3,0.2,0.4,0.3
		c0.1,0.1,0,0.1,0,0.2c0.1,0.1,0.2,0.1,0.3,0.1c0.2,0.1,0.3,0,0.6,0c-0.1,0-0.3-0.1-0.4-0.1c-0.1-0.1-0.1-0.1-0.2-0.2
		c0.7,0.2,1.1,0.3,1.2,0.2c0.1,0-0.2-0.2-0.1-0.2c0.1,0,0.5-0.1,0.8-0.1c0.1,0,0.1,0.1,0.1,0.1c0.1,0,0.4,0.1,0.4,0
		c0-0.1-0.3-0.2-0.2-0.2c0.2-0.2-0.1-0.2,0-0.3c0.2-0.2,0.8,0.1,0.9,0.3c0,0.1-0.5-0.1-0.5,0c0,0.1,0.3,0.2,0.4,0.2
		c0.5,0.1,0.3-0.1,0.6-0.1c0.2,0,0.3,0,0.5,0c0.5,0,0.9-0.1,1.1,0c0,0-0.2,0-0.2,0.1c0.5,0.2,1.1,0.1,1.4,0.2
		c0.2,0.1-0.1,0.2,0.5,0.2c0,0-0.6-0.4,0.7,0c0.2,0.1,0.5,0.2,0.8,0.4c0.2,0.1,0.3,0.2,0.4,0.2c0.2,0.1,0.2,0,0-0.2
		c-0.1-0.1-0.2-0.1-0.4-0.2c-0.1-0.1,0,0,0-0.1c0,0-0.2-0.1-0.2-0.1c0,0,0.1,0,0.1,0c-0.5-0.4-1-0.7-1.5-1c0,0-0.1,0-0.1,0
		c-0.2-0.1-0.2,0-0.4,0c-0.4-0.1-1,0-0.9,0.2c0,0.1,0.3,0.2,0.6,0.3c0,0,0,0,0,0c0,0,0,0-0.1,0c0,0,0,0,0.1,0c0,0,0,0,0,0
		c0,0,0,0,0,0c0,0,0,0,0,0c-0.2-0.1-0.5-0.1-0.7-0.2c0,0,0,0-0.1,0c-0.1,0-0.2,0-0.2,0c-0.1-0.1,0-0.1-0.2-0.1c0,0-0.3-0.1-0.3-0.1
		s-0.2,0-0.2-0.1c0-0.1,0.3,0,0.2-0.1c0,0,0,0,0,0c0-0.1,0.3,0,0.4,0c0,0-0.1-0.1-0.2-0.1c0-0.1,0.4,0,0.4-0.1c0,0-0.1,0-0.1-0.1
		c0,0,0,0,0.1,0c0.1,0,0.2,0,0.3,0.1c0.2,0.1,0.4,0,0.7,0.1c0,0,0.1,0,0.1,0c-0.8-0.5-1.7-1-2.6-1.3c0,0-0.1,0-0.2,0
		c0,0-0.1,0-0.1,0c0,0,0,0,0,0c-0.1,0-0.2-0.1-0.3-0.1c-0.1,0-0.1,0-0.2,0c0,0-0.1,0-0.1,0c-0.1,0-0.2,0-0.3-0.1c0.1,0,0.1,0,0.2,0
		c-0.1,0-0.1,0-0.2,0c0,0,0.1,0,0.1,0c-0.1,0-0.1,0-0.2-0.1c-0.1,0-0.3,0-0.4,0c-0.1,0-0.1,0-0.2,0c0.1,0,0.5,0,0.7,0.1
		c0.2,0,0.4,0.1,0.5,0.1c0.1,0,0.2,0,0.3,0c0,0,0,0,0,0c-2.4-1-4.9-1.5-7.6-1.5c-11.3,0-20.4,9.1-20.4,20.4s9.1,20.4,20.4,20.4
		c11.3,0,20.4-9.1,20.4-20.4c0-0.3,0-0.5,0-0.8C205.2,24.7,205.2,24.8,205.1,24.8 M188.8,17.5c0,0.1-0.1,0.1-0.2,0.1
		c0,0,0,0.1,0,0.1c0,0.1-0.3,0.1-0.4,0.1c0,0-0.1,0-0.1-0.1c0,0-0.1,0-0.1-0.1C188.3,17.6,188.6,17.5,188.8,17.5 M185.9,17.6
		c-0.2,0.1-0.3,0-0.3,0c-0.1,0-0.3,0-0.5-0.1C185.3,17.5,185.6,17.6,185.9,17.6 M181,16.7c0.3-0.1,0.4,0,0.5,0
		c0.2,0,0.2-0.1,0.4-0.1c0,0,0,0.1-0.1,0.1c0,0-0.1,0.1-0.1,0.1c0,0.1,0.1,0.1,0.1,0.2c0,0,0,0.1-0.1,0.1c0,0-0.1,0-0.1,0
		c-0.2,0-0.4-0.2-0.6-0.3C181.1,16.8,181,16.8,181,16.7C181,16.8,181,16.8,181,16.7 M179.8,15.2c0.1,0,0.2-0.1,0.2-0.1
		c0,0,0,0.1,0,0.1c0,0.1-0.1,0.3-0.1,0.4C179.8,15.6,179.8,15.3,179.8,15.2C179.8,15.2,179.8,15.2,179.8,15.2 M179.9,15.7
		c0.1,0,0.1,0,0.2,0.1c0.1,0.2,0.1,0.2,0.1,0.4c0,0.1-0.3,0.3-0.3,0.3c-0.1,0-0.1-0.1-0.1-0.2c0-0.1,0.1-0.1,0.1-0.2
		c0-0.1-0.1-0.1-0.1-0.2C179.8,15.8,179.8,15.7,179.9,15.7 M177.9,16.2c0,0,0.1,0.1,0.1,0.1c0,0-0.1,0.1-0.1,0.1
		c0,0-0.1-0.1-0.1-0.1C177.8,16.3,177.8,16.3,177.9,16.2 M183.4,10.8C183.4,10.8,183.3,10.8,183.4,10.8
		C183.3,10.7,183.4,10.7,183.4,10.8c0-0.1,0.1-0.1,0.1-0.1C183.5,10.8,183.4,10.8,183.4,10.8C183.4,10.8,183.4,10.8,183.4,10.8
		c0,0.1-0.1,0.1-0.1,0.1c-0.1,0-0.1,0-0.1-0.1C183.3,10.8,183.3,10.8,183.4,10.8 M180.9,11.5c0,0,0.1-0.1,0.2-0.1
		c0.2,0,0.2,0,0.2,0.1c-0.1,0-0.1,0.2-0.2,0.2c0,0-0.1,0-0.1,0c0,0,0,0,0,0c0,0,0,0,0,0c0,0,0.1,0,0.1-0.1
		C180.9,11.5,180.9,11.5,180.9,11.5 M180.8,11.6C180.8,11.6,180.8,11.6,180.8,11.6c-0.1,0-0.2,0-0.2-0.1c0,0,0,0,0,0
		c0,0,0.1,0,0.1,0C180.8,11.5,180.8,11.5,180.8,11.6C180.8,11.6,180.8,11.6,180.8,11.6 M195.7,9c0,0-0.1,0-0.1,0
		c-0.1,0-0.3-0.1-0.3-0.2C195.3,8.8,195.7,9,195.7,9 M192.6,6.6C192.5,6.6,192.5,6.6,192.6,6.6C192.5,6.6,192.5,6.6,192.6,6.6
		C192.5,6.6,192.5,6.6,192.6,6.6 M192.6,8.5c0,0,0.1,0,0.1,0c0.1,0,0.2,0.1,0.4,0.1c0,0,0,0,0,0c-0.1,0-0.2,0-0.4,0
		c-0.1,0-0.2,0-0.2-0.1C192.5,8.5,192.6,8.5,192.6,8.5 M183.7,6c0.1,0,0.1,0,0.2,0c0,0,0,0,0,0c0.1,0,0.1,0,0.2,0c0,0,0,0-0.1,0
		c0.1,0,0.2,0,0.3,0c0.1,0,0.4,0,0.4,0c0.1,0,0.2,0,0.3-0.1c0,0,0.1,0,0.1,0c0,0.1,0,0,0,0.1c0.1,0,0.2,0,0.3,0c0.1,0,0.2,0,0.3,0
		c0.2,0,0.4,0.1,0.5,0.1c-0.3,0-0.8,0.1-1.1,0.1c-0.2,0-0.3,0-0.4,0c-0.2,0-0.4,0-0.6,0c-0.1,0-0.1,0-0.1,0c0.1,0,0.2,0,0.2,0
		c0.1,0,0.2,0,0.3,0c0,0-0.5,0-0.5,0C183.8,6,183.6,6.1,183.7,6c-0.1,0-0.1,0.1-0.2,0C183.6,6,183.6,6,183.7,6 M181.8,6.2
		c0.2,0,0.3,0,0.5,0c-0.1,0-0.1,0-0.1,0c0.1,0,0.2,0,0.2,0c0,0,0,0,0,0c0,0,0.1-0.1,0.2-0.1c0.3,0,0.2,0.1,0.4,0.1
		c-0.1,0-0.1,0-0.1-0.1c0-0.1,0.1-0.1,0.2-0.1c0.1,0,0.4,0,0.4,0c0,0,0,0,0,0.1c0.1,0,0.1,0,0.2,0c0.2,0,0.2,0,0.1,0.1
		c0,0,0.1,0,0.1,0c0.2,0,0.7,0.1,0.8,0.1c0,0-0.1,0-0.1,0c0.1,0,0.1,0,0.2,0c0,0,0,0,0,0c0.1,0,0.2,0,0.3,0c0,0.1,0.3,0.1,0.4,0.1
		c-0.3,0-0.4,0.1-0.7,0.1c0,0,0,0,0-0.1c-0.1,0-0.3,0-0.5,0c0-0.1,0.1,0,0.2-0.1c-0.1,0-0.2-0.1-0.2-0.1c0,0,0.1,0,0.1,0
		c-0.2,0-0.2,0-0.2,0c-0.4,0-0.5,0.1-0.6,0.2c0,0-0.1,0-0.2,0c-0.2,0-0.2,0.1-0.3,0.2c-0.2,0-0.8,0-0.8-0.1c0.1,0,0.4,0,0.4,0
		c0.1,0,0.2,0,0.3,0c-0.1,0-0.4,0-0.5,0c-0.1,0-0.4,0.1-0.4,0c0,0,0.2-0.1,0.3-0.1c0.1,0,0.4-0.1,0.5-0.1c-0.1,0-0.2,0-0.3,0
		c0,0-0.1,0-0.2,0c0,0-0.1,0-0.1,0c-0.1,0-0.1,0.1-0.3,0.1c-0.2,0-0.3,0-0.3,0c0,0,0.1,0,0.1,0c-0.2,0-0.3,0-0.3-0.1
		c0,0-0.1,0-0.1,0c-0.1,0-0.2,0-0.2,0C181.4,6.2,181.7,6.2,181.8,6.2 M181.4,6.4L181.4,6.4C181.4,6.4,181.4,6.4,181.4,6.4
		C181.4,6.4,181.4,6.4,181.4,6.4L181.4,6.4C181.4,6.4,181.4,6.4,181.4,6.4C181.4,6.4,181.4,6.4,181.4,6.4
		C181.4,6.4,181.4,6.4,181.4,6.4C181.4,6.4,181.4,6.4,181.4,6.4c0.1,0,0.2,0,0.3,0.1C181.5,6.4,181.2,6.4,181.4,6.4 M175.7,11.5
		C175.7,11.5,175.7,11.5,175.7,11.5C175.7,11.5,175.7,11.4,175.7,11.5c0-0.1,0.1-0.2,0.2-0.2c0-0.1,0.1-0.1,0.1-0.1
		c0,0,0.1-0.1,0.2-0.1c0.1,0,0.2,0,0.3,0c0,0,0.1,0,0.1,0c0,0.1-0.2,0.1-0.3,0.2c0,0,0,0,0,0c0.2,0,0.4-0.1,0.6-0.1
		c0,0.2-0.3,0.3-0.4,0.4c0,0-0.1,0-0.1,0.1c0.1,0,0.2,0,0.2,0c0.2,0,0.1,0.2,0.3,0.2c0.2,0.1,0.4,0.1,0.4,0.3c0,0.1,0.1,0.1,0.1,0.1
		c0,0,0,0.1-0.1,0.1c0,0,0,0,0,0c0.1,0,0.1-0.1,0.1-0.1c0,0,0,0-0.1,0c0.1,0,0.1,0,0.1,0c0.1,0,0.2,0,0.2,0.1c0,0.1-0.3,0.2-0.4,0.3
		c0.1,0,0.2,0,0.2,0c0,0,0,0,0,0.1c-0.1,0.1-0.2,0.1-0.3,0.1c-0.2,0-0.3,0-0.5,0c-0.1,0-0.4,0.1-0.6,0.1c-0.1,0-0.1,0-0.2,0
		c-0.1,0-0.2,0.1-0.2,0.1c0,0-0.1,0-0.2,0c-0.1,0-0.1,0-0.2,0.1c0,0-0.1,0-0.1,0c0,0,0,0,0,0c0,0,0.4-0.3,0.4-0.3
		c0.2-0.1,0.4,0,0.4-0.1c0,0,0,0,0,0c-0.1,0.1-0.1,0.1-0.2,0.1c-0.2,0-0.2-0.1-0.3,0c-0.1,0-0.1,0-0.1,0c0,0,0,0,0,0
		c0-0.1,0.3-0.1,0.3-0.3c0-0.1-0.1-0.1-0.1-0.2c0.2,0,0.4-0.1,0.5-0.2c0,0,0-0.1,0-0.1c-0.1,0-0.3,0-0.2,0c0-0.1,0.1-0.1,0.1-0.1
		c0,0-0.1,0-0.1,0c-0.1,0-0.2,0.1-0.2,0.1c-0.1,0-0.2,0-0.2,0c0-0.1,0.1-0.1,0.1-0.2c0-0.1,0-0.1,0-0.1c-0.1,0-0.1,0-0.2,0
		c-0.1,0.1,0,0.1,0,0.1c0,0-0.1,0-0.1,0c0,0,0-0.1,0-0.1c0,0,0,0,0-0.1c0,0,0,0,0-0.1c-0.1,0-0.2,0-0.1,0c0,0,0.1-0.1,0.1-0.1
		C175.7,11.6,175.7,11.6,175.7,11.5c-0.2,0.1-0.2,0.1-0.2,0C175.5,11.5,175.6,11.5,175.7,11.5C175.6,11.5,175.7,11.5,175.7,11.5
		 M175.8,12.4C175.8,12.3,175.8,12.3,175.8,12.4c0.1-0.1,0.1-0.1,0.1-0.1c0,0,0,0.1,0,0.1C175.9,12.3,175.9,12.4,175.8,12.4
		 M175.6,11.3c0,0.1-0.1,0.2-0.2,0.2c0,0,0,0,0-0.1C175.3,11.3,175.5,11.3,175.6,11.3 M174.5,12.7c-0.1,0-0.2,0-0.2-0.1
		c0-0.1,0.1-0.1,0.1-0.1c0.1,0,0.2-0.1,0.3-0.1c0,0,0,0,0-0.1c0,0,0.2-0.2,0.3-0.2c0.1,0,0.1,0,0.2,0c0.2,0,0.3,0.1,0.3,0.2
		c0,0.1-0.2,0.1-0.2,0.1c0,0.1,0,0.2,0,0.2c0,0.1,0.1,0.1,0,0.2c-0.1,0.1-0.2,0.1-0.3,0.1c-0.2,0-0.3,0.2-0.4,0.2
		c0,0-0.1,0.1-0.2,0.1c-0.1,0-0.2,0-0.2-0.1C174.2,12.9,174.5,12.9,174.5,12.7 M167.3,33.4c0,0.2,0.1,0.6,0.1,0.7c0,0,0,0.1,0,0.1
		c0,0.1,0,0.1,0,0.2c0,0.1,0.1,0.2,0,0.3c0,0.1,0,0.2-0.1,0.3c0,0.1,0,0.1,0,0.2c0,0.1-0.1,0.1-0.2,0.1c0,0-0.1-0.1-0.1-0.1
		c-1.2-2.3-2-4.8-2.3-7.5c0.1,0.1,0.1,0.2,0.2,0.3c0,0.1,0.1,0.4,0.1,0.5c0,0.1,0.1,0.1,0.1,0.2c0,0.2-0.1,0.4-0.1,0.7
		c0,0.1,0,0.1,0.1,0.1c0,0.1,0.1,0.1,0.1,0.2c0.1,0,0,0,0.1,0c0,0,0,0.1,0,0.1c0,0,0,0,0-0.1c0,0,0-0.1,0-0.1c0,0,0,0.1-0.1,0
		c-0.1,0-0.2-0.2-0.2-0.3c0-0.1-0.1-0.2,0-0.2c0,0,0,0,0,0c0,0.1,0,0.1,0.1,0.1c0,0.1,0,0,0.1,0c0,0,0,0.1,0,0.1c0,0,0,0.1,0,0.1
		c0,0,0-0.1,0.1,0c0.1,0,0.2,0.2,0.3,0.3c0,0.1,0.1,0,0.1,0.1c0,0.1,0,0.1,0,0.2c0,0,0,0,0,0c0.1-0.1,0-0.1,0.1-0.1
		c0.1,0,0.1,0.2,0.2,0.2c0.1,0,0.1,0,0.2,0c0.1,0.1,0.2,0.1,0.3,0.2c0.1,0.2,0.3,0.4,0.4,0.5c0.1,0.1,0.1,0,0.2,0.1
		c0.1,0.1,0.2,0.3,0.2,0.5c0.1,0.7-0.1,1-0.2,1.3c0,0.1,0,0.1-0.1,0.1c0,0.1-0.1,0.1-0.1,0.2C167.1,33.1,167.2,33.2,167.3,33.4
		 M173.4,8.7c0,0,0.1,0,0.1,0C173.6,8.6,173.5,8.6,173.4,8.7c0.1,0,0.2,0,0.2-0.1C173.6,8.6,173.5,8.7,173.4,8.7
		c-0.1,0.1-0.1,0.1-0.1,0.1C173.4,8.7,173.4,8.7,173.4,8.7 M173.3,10.1C173.4,10.1,173.4,10.1,173.3,10.1c0.1-0.1,0.1-0.1,0.2-0.1
		c0,0.1,0.1,0.1,0.1,0c0.1,0,0.1-0.1,0.2-0.1c0,0-0.1,0-0.1,0.1c0,0.1,0.3,0,0.3,0.2c0,0,0,0,0,0c-0.1,0.1-0.4,0.2-0.5,0.3
		c-0.2,0.1-0.4,0.2-0.7,0.3c-0.3,0.1-0.5,0.1-0.7,0.1c-0.1,0-0.1,0-0.3,0c0,0,0.1,0,0.1-0.1c0-0.1,0.1-0.1,0.1-0.2
		c-0.1,0-0.2,0.2-0.3,0.1c0.1,0,0.3-0.1,0.4-0.2c0,0,0,0,0,0c-0.1,0-0.4,0.1-0.4,0c0.1,0,0.1,0,0.2,0c0,0,0,0,0,0
		c0.1,0,0.1-0.1,0.2-0.1c0,0,0,0,0.1,0c0,0,0,0,0,0.1c0,0,0,0.1,0.1,0.1c0.1,0,0.1-0.1,0.2-0.1c0,0,0,0,0-0.1c0,0,0,0,0.1,0
		c0.1,0,0.1-0.1,0.2-0.1c0.1,0,0.1,0,0.1,0c0,0,0,0,0,0c0.1,0,0.2,0,0.3-0.1C173.2,10.2,173.2,10.1,173.3,10.1 M173.1,8.9
		c0,0,0.1,0,0.1,0c-0.1,0.1-0.2,0.1-0.3,0.2C173,9,173,9,173.1,8.9 M172.8,9.1C172.9,9.1,172.9,9.1,172.8,9.1c0,0.1-0.1,0.1-0.2,0.2
		C172.7,9.2,172.8,9.2,172.8,9.1 M172.4,9.4C172.5,9.4,172.5,9.4,172.4,9.4c0,0,0,0.1-0.1,0.1c0,0-0.1,0-0.1,0
		C172.3,9.5,172.4,9.5,172.4,9.4 M172.2,9.6c0.2,0,0.3,0,0.3,0.1c0,0-0.1,0.1-0.2,0.1c-0.3,0.1-0.2,0-0.3,0
		C172,9.8,172.1,9.7,172.2,9.6 M171.6,10.1c0.2,0,0.5-0.2,0.6-0.2c-0.1,0.1-0.2,0.1-0.3,0.2c-0.3,0.1-0.4,0.3-0.6,0.4
		c-0.1,0-0.2,0.1-0.2,0.1C171.3,10.4,171.4,10.3,171.6,10.1 M194.1,35.4c0,0-0.2,0-0.2,0c-0.1,0.8-0.4,1.3-0.7,1.9
		c-0.2,0.5-0.4,1.1-1.1,1.2c-0.3,0-0.5-0.2-0.5-0.5c0-0.1,0-0.2,0-0.2c-0.1-0.1-0.1-0.2-0.1-0.4c0,0,0.2-0.2,0.2-0.2
		c0,0,0.3-0.5,0.3-0.5c0-0.1-0.1-0.4-0.1-0.5c0-0.5,0.4-0.5,0.8-0.7c0.3-0.2,0.6-0.6,0.8-0.8c0.1-0.1,0.1-0.3,0.1-0.3
		c0.4,0,0.3,0.7,0.4,1C194.1,35.3,194.1,35.4,194.1,35.4 M195.6,25.8c0,0-0.1,0-0.1-0.1c0.1,0,0.2-0.1,0.3-0.1
		C195.8,25.7,195.7,25.8,195.6,25.8"/>
	<rect x="0.1" y="9.5" class="st0" width="7.5" height="31.2"/>
	<path class="st0" d="M42.1,9.5v31.2h-7L28.7,32c-2.9-3.9-7-9.9-7.1-9.9h0c0,0,0,4.8,0,11.6v6.9h-7.5V9.5h7l6.6,8.9
		c2,2.7,6.8,9.4,6.8,9.4h0c0,0,0-5.5,0-11.2V9.5H42.1z"/>
	<polygon class="st0" points="71.7,9.5 71.7,16.5 62.2,16.5 62.2,40.7 54.7,40.7 54.7,16.5 45.3,16.5 45.3,9.5 	"/>
	<polygon class="st0" points="97.8,33.7 97.8,40.7 74.8,40.7 74.8,9.5 97.5,9.5 97.5,16.5 82.3,16.5 82.3,21.7 94.2,21.7 94.2,28.2 
		82.3,28.2 82.3,33.7 	"/>
	<path class="st0" d="M120.8,40.7L115,30.6h-3.8v10.2h-7.5V9.5h11.6c7.8,0,12.6,4.3,12.6,10.7c0,4.2-2,7.3-5.6,9l6.9,11.5H120.8z
		 M111.2,23.9h5.2c2.7,0,3.7-2,3.7-3.7c0-1.7-1.1-3.7-3.7-3.7h-5.2V23.9z"/>
	<path class="st0" d="M148.7,19.4c-0.8-2.8-3.2-4.1-5.4-4.1c-2.2,0-3.5,1.1-3.5,2.4c0,2.1,3.1,2.8,6.9,4.2c4.6,1.7,9.5,4.3,9.5,9.7
		c0,5.7-4.9,9.8-12.2,9.8c-6.5,0-11.1-3.6-13.2-9.5L138,30c0.8,2.4,3,4.7,6.3,4.7c2.7,0,3.9-1.2,3.9-2.8c0-2.5-3.7-3.1-8.1-4.8
		c-3.7-1.4-8.1-3.5-8.1-9c0-4.9,4.9-9.3,11.7-9.3c6,0,10.7,3.7,12.2,8.6L148.7,19.4z"/>
	<path class="st0" d="M230.4,19.4c-0.8-2.8-3.2-4.1-5.4-4.1c-2.2,0-3.5,1.1-3.5,2.4c0,2.1,3.1,2.8,6.9,4.2c4.6,1.7,9.5,4.3,9.5,9.7
		c0,5.7-4.9,9.8-12.2,9.8c-6.5,0-11.1-3.6-13.2-9.5l7.2-1.9c0.8,2.4,3,4.7,6.3,4.7c2.7,0,3.9-1.2,3.9-2.8c0-2.5-3.7-3.1-8.1-4.8
		c-3.7-1.4-8.1-3.5-8.1-9c0-4.9,4.9-9.3,11.7-9.3c6,0,10.7,3.7,12.2,8.6L230.4,19.4z"/>
	<path class="st0" d="M210.5,50.1h-50.1V0h50.1V50.1z M161.7,48.8h47.4V1.3h-47.4V48.8z"/>
	<path class="st0" d="M3.3,43.8c1.8,0,3.3,1.4,3.3,3.3c0,1.9-1.5,3.3-3.3,3.3C1.5,50.4,0,49,0,47.1C0,45.2,1.5,43.8,3.3,43.8
		 M3.3,50c1.6,0,2.9-1.2,2.9-3c0-1.8-1.3-3-2.9-3c-1.6,0-2.9,1.2-2.9,3C0.4,48.8,1.6,50,3.3,50"/>
	<path class="st0" d="M12.4,50.2l-1.6-2.5c-0.2,0-0.3,0-0.5,0H9v2.5H8.7v-6.3h1.7c1.4,0,2.3,0.7,2.3,1.9c0,0.9-0.5,1.6-1.4,1.8
		l1.6,2.6H12.4z M10.4,47.4c1.3,0,1.9-0.6,1.9-1.6c0-1-0.7-1.6-1.9-1.6H9v3.2H10.4z"/>
	<path class="st0" d="M20.3,49.1c-0.3,0.4-1.1,1.3-2.6,1.3c-1.8,0-3.3-1.4-3.3-3.3c0-1.9,1.5-3.3,3.3-3.3c1.3,0,2.3,0.7,2.9,1.6
		l-0.4,0.1c-0.5-0.9-1.4-1.4-2.5-1.4c-1.6,0-2.9,1.2-2.9,3c0,1.7,1.3,3,2.9,3c1.3,0,2.3-0.8,2.6-1.4v-1.2h-2.1v-0.3h2.4v3.1h-0.3
		C20.3,49.4,20.3,49.1,20.3,49.1L20.3,49.1z"/>
	<path class="st0" d="M27,48.2h-3.5l-0.9,2h-0.4l2.8-6.3h0.3l2.8,6.3h-0.4L27,48.2z M26.8,47.9L25.5,45c-0.1-0.3-0.3-0.7-0.3-0.7h0
		c0,0-0.2,0.4-0.3,0.7l-1.3,2.9H26.8z"/>
	<path class="st0" d="M35,43.9v6.3h-0.3l-3.6-4.8c-0.5-0.7-0.7-1-0.7-1h0c0,0,0,0.7,0,1.5v4.3H30v-6.3h0.3l3.5,4.8
		c0.5,0.7,0.7,1,0.7,1h0c0,0,0-0.7,0-1.5v-4.3H35z"/>
	<rect x="37.5" y="43.9" class="st0" width="0.3" height="6.3"/>
	<path class="st0" d="M44.8,44.2l-4.2,5.2c-0.2,0.3-0.4,0.5-0.4,0.5l0,0c0,0,0.3,0,0.7,0h3.9v0.3h-5.1v-0.3l4.2-5.2
		c0.2-0.2,0.4-0.4,0.4-0.5l0,0c0,0-0.2,0-0.7,0h-3.8v-0.3h5V44.2z"/>
	<path class="st0" d="M51.6,44.2l-4.2,5.2c-0.2,0.3-0.4,0.5-0.4,0.5l0,0c0,0,0.3,0,0.7,0h3.9v0.3h-5.1v-0.3l4.2-5.2
		c0.2-0.2,0.4-0.4,0.4-0.5l0,0c0,0-0.2,0-0.7,0h-3.8v-0.3h5V44.2z"/>
	<path class="st0" d="M58,48.2h-3.5l-0.9,2h-0.4l2.8-6.3h0.3l2.8,6.3h-0.4L58,48.2z M57.8,47.9L56.5,45c-0.1-0.3-0.3-0.7-0.3-0.7h0
		c0,0-0.2,0.4-0.3,0.7l-1.3,2.9H57.8z"/>
	<path class="st0" d="M65.9,44.2l-4.2,5.2c-0.2,0.3-0.4,0.5-0.4,0.5l0,0c0,0,0.3,0,0.7,0h3.9v0.3h-5.1v-0.3l4.2-5.2
		c0.2-0.2,0.4-0.4,0.4-0.5l0,0c0,0-0.2,0-0.7,0H61v-0.3h5V44.2z"/>
	<rect x="67.9" y="43.9" class="st0" width="0.3" height="6.3"/>
	<path class="st0" d="M73.6,43.8c1.8,0,3.3,1.4,3.3,3.3c0,1.9-1.5,3.3-3.3,3.3c-1.8,0-3.3-1.4-3.3-3.3
		C70.3,45.2,71.8,43.8,73.6,43.8 M73.6,50c1.6,0,2.9-1.2,2.9-3c0-1.8-1.3-3-2.9-3c-1.6,0-2.9,1.2-2.9,3C70.7,48.8,72,50,73.6,50"/>
	<path class="st0" d="M83.9,43.9v6.3h-0.3L80,45.4c-0.5-0.7-0.7-1-0.7-1h0c0,0,0,0.7,0,1.5v4.3H79v-6.3h0.3l3.5,4.8
		c0.5,0.7,0.7,1,0.7,1h0c0,0,0-0.7,0-1.5v-4.3H83.9z"/>
	<polygon class="st0" points="90.5,49.9 90.5,50.2 86.4,50.2 86.4,43.9 90.5,43.9 90.5,44.2 86.8,44.2 86.8,46.7 89.8,46.7 89.8,47 
		86.8,47 86.8,49.9 	"/>
	<path class="st0" d="M100.6,43.9v3.8c0,1.7-0.9,2.7-2.5,2.7c-1.6,0-2.5-0.9-2.5-2.7v-3.8H96v3.8c0,1.5,0.7,2.3,2.2,2.3
		c1.4,0,2.1-0.8,2.1-2.3v-3.8H100.6z"/>
	<path class="st0" d="M108.6,43.9v6.3h-0.3v-3.5c0-0.7,0-2.2,0-2.2h0c0,0-0.2,0.4-0.5,1l-1.9,3.2h-0.2l-1.9-3.2
		c-0.3-0.5-0.5-1-0.5-1h0c0,0,0,1.5,0,2.2v3.5H103v-6.3h0.3l1.8,3.1c0.6,1,0.7,1.3,0.7,1.3h0c0,0,0.1-0.3,0.7-1.3l1.8-3.1H108.6z"/>
	<path class="st0" d="M115.2,48.2h-3.5l-0.9,2h-0.4l2.8-6.3h0.3l2.8,6.3h-0.4L115.2,48.2z M115.1,47.9l-1.3-2.9
		c-0.1-0.3-0.3-0.7-0.3-0.7h0c0,0-0.2,0.4-0.3,0.7l-1.3,2.9H115.1z"/>
	<path class="st0" d="M123.2,43.9v6.3h-0.3l-3.6-4.8c-0.5-0.7-0.7-1-0.7-1h0c0,0,0,0.7,0,1.5v4.3h-0.3v-6.3h0.3l3.5,4.8
		c0.5,0.7,0.7,1,0.7,1h0c0,0,0-0.7,0-1.5v-4.3H123.2z"/>
	<rect x="125.7" y="43.9" class="st0" width="0.3" height="6.3"/>
	<polygon class="st0" points="132.6,43.9 132.6,44.2 130.4,44.2 130.4,50.2 130.1,50.2 130.1,44.2 127.9,44.2 127.9,43.9 	"/>
	<path class="st0" d="M137.7,48.2h-3.5l-0.9,2H133l2.8-6.3h0.3l2.8,6.3h-0.4L137.7,48.2z M137.6,47.9l-1.3-2.9
		c-0.1-0.3-0.3-0.7-0.3-0.7h0c0,0-0.2,0.4-0.3,0.7l-1.3,2.9H137.6z"/>
	<path class="st0" d="M144.6,50.2l-1.6-2.5c-0.2,0-0.3,0-0.5,0h-1.4v2.5h-0.3v-6.3h1.7c1.4,0,2.3,0.7,2.3,1.9c0,0.9-0.5,1.6-1.4,1.8
		l1.6,2.6H144.6z M142.5,47.4c1.3,0,1.9-0.6,1.9-1.6c0-1-0.7-1.6-1.9-1.6h-1.4v3.2H142.5z"/>
	<rect x="147" y="43.9" class="st0" width="0.3" height="6.3"/>
	<path class="st0" d="M153.9,48.2h-3.5l-0.9,2h-0.4l2.8-6.3h0.3l2.8,6.3h-0.4L153.9,48.2z M153.8,47.9l-1.3-2.9
		c-0.1-0.3-0.3-0.7-0.3-0.7h0c0,0-0.2,0.4-0.3,0.7l-1.3,2.9H153.8z"/>
</g>
</svg>
