<?xml version="1.0" encoding="utf-8"?>
<!-- Generator: Adobe Illustrator 21.0.0, SVG Export Plug-In . SVG Version: 6.00 Build 0)  -->
<svg version="1.1" id="Capa_1" xmlns="http://www.w3.org/2000/svg" xmlns:xlink="http://www.w3.org/1999/xlink" x="0px" y="0px"
	 viewBox="0 0 207.5 178.3" style="enable-background:new 0 0 207.5 178.3;" xml:space="preserve">
<style type="text/css">
	.st0{fill:#007EBD;}
</style>
<g>
	<polyline points="207.5,136.4 0,136.4 0,134.6 207.5,134.6 207.5,136.4 	"/>
	<polyline class="st0" points="176,142 31.2,142 31.2,129.2 176,129.2 176,142 	"/>
	<path class="st0" d="M154.1,0l-10.7,0c8.9,8.9,24,30.5,25.1,57h-20.7c-1.1-31.5-26.9-57-58.7-57C56.7,0,30.4,26.3,30.4,58.7
		c0,27,11.7,49.6,22.3,60.2l10.7,0c-9-9-24.3-30.9-25.1-57.7h20.7c0.7,31.8,26.7,57.7,58.7,57.7c32.4,0,58.7-26.3,58.7-58.7
		C176.3,33.2,164.7,10.6,154.1,0L154.1,0z M140.6,57h-11c0-0.1,0-0.2,0-0.3c0-6.4-1.5-12.5-4.2-17.9h11.1
		C138.9,44.4,140.4,50.6,140.6,57L140.6,57z M135.1,35.9h-11.3c-3.7-6-8.9-11-15.1-14.3c2.9-1.6,5.6-3.5,8.1-5.8
		C124.6,20.7,131,27.6,135.1,35.9L135.1,35.9z M91.8,26.3c4.4-0.2,8.6-1.2,12.5-2.7c6,2.7,11.2,6.9,15,12.3H91.8V26.3L91.8,26.3z
		 M113.5,13.8c-5.9,5.1-13.4,8.4-21.7,8.8V7.9C99.6,8.2,107,10.3,113.5,13.8L113.5,13.8z M88.9,22.7c-8.9-0.2-17-3.6-23.1-9.1
		c6.9-3.6,14.8-5.7,23.1-5.8V22.7L88.9,22.7z M88.9,26.4v9.5H60.2c3.8-5.3,8.9-9.6,14.9-12.2C79.4,25.3,84,26.3,88.9,26.4L88.9,26.4
		z M62.3,15.6c2.5,2.3,5.3,4.4,8.3,6c-6.2,3.4-11.4,8.3-15.1,14.3H43.7C47.9,27.5,54.4,20.5,62.3,15.6L62.3,15.6z M53.9,38.8
		c-2.7,5.4-4.2,11.4-4.2,17.9c0,0.6,0,1.1,0.1,1.7H38.2c0.1-6.9,1.6-13.5,4.1-19.5H53.9L53.9,38.8z M66.1,61.3h10.6
		c0,0.2,0,0.3,0,0.5c0,6.5,1.6,12.6,4.3,18H70C67.6,74.1,66.2,67.8,66.1,61.3L66.1,61.3z M71.4,82.7h11.2c3.7,5.9,8.8,10.9,15,14.2
		c-3,1.6-5.8,3.6-8.3,6C81.7,97.9,75.4,90.9,71.4,82.7L71.4,82.7z M115.3,111.1c-8.2-0.3-15.8-2.6-22.5-6.3c6-5.4,13.9-8.8,22.5-9.1
		V111.1L115.3,111.1z M115.3,92.1c-4.6,0.2-9.1,1.1-13.2,2.7c-6-2.6-11.1-6.9-14.8-12.1h28V92.1L115.3,92.1z M85.4,79.8
		c-3.1-5.3-4.9-11.5-4.9-18.1c0-1,0-2.1,0.1-3.1h0v-0.2H53.6c0-0.5-0.1-1.1-0.1-1.6c0-6.5,1.7-12.7,4.8-18h62.9
		c3,5.3,4.8,11.4,4.8,18c0,0.1,0,0.2,0,0.2h0v2.9h27c0,1.6,0,1.7,0,1.8c0,6.6-1.8,12.8-4.9,18.1H85.4L85.4,79.8z M146.2,82.7
		c-3.8,5.3-8.9,9.5-14.9,12.1c-4.1-1.6-8.5-2.6-13.2-2.7v-9.4H146.2L146.2,82.7z M118.2,111.2V95.8c8.9,0.3,16.9,3.9,23,9.5
		C134.3,108.9,126.5,111,118.2,111.2L118.2,111.2z M144.5,103.3c-2.6-2.5-5.5-4.7-8.7-6.4c6.1-3.3,11.3-8.3,15-14.2h12.5
		C159,91.2,152.5,98.3,144.5,103.3L144.5,103.3z M164.6,79.8h-12.2c2.7-5.4,4.3-11.5,4.3-18c0-0.1,0-0.3,0-1.8h11.9c0,0,0,0,0,0
		C168.6,67,167.1,73.7,164.6,79.8"/>
	<path class="st0" d="M125.2,61.6L120.4,48l-1.3,0l0,0h-2.3v-0.5c1.1-0.3,1.9-1.4,1.9-2.6c0-1.5-1.2-2.7-2.7-2.7
		c-1.5,0-2.7,1.2-2.7,2.7c0,1.2,0.8,2.2,1.8,2.5v0.5h-1.7v0l-1.4,0l-4.9,12.9h0v0h-1.9v-0.8c0.9-0.3,1.6-1.1,1.6-2.1
		c0-1.2-1-2.1-2.1-2.1c-1.2,0-2.2,1-2.2,2.1c0,1,0.7,1.8,1.6,2.1v0.8h-2v0L97.2,48l0,0v0h-3.9v-0.6c1.3-0.4,2.2-1.5,2.2-2.9
		c0-1.7-1.4-3.1-3.1-3.1c-1.7,0-3.1,1.4-3.1,3.1c0,1.4,1,2.6,2.3,3v0.6h-3.9v0h0l-4.8,13.7l2.2,0l3.1-8.7h0.2l0.4,10.5h0l-3.1,13.4
		l2.6,0l3.3-13.4h1.8l3.3,13.4l2.6,0l-3.1-13.4h0l0.5-10.5h0.2l3.8,10.5h1.4V70h0v6.8h1.7V70h1.8v6.8h1.7V70v-0.3v-6.4h1.3l4.8-12.8
		l-0.4,9l-2.7,17.1h11.6l-2.2-17.1l-0.3-9.1l3.9,11L125.2,61.6"/>
	<g>
		<path d="M32.3,177.8v-27.4h4.7v27.4H32.3z"/>
		<path d="M40.9,164.2c0-2.8,0.4-5.2,1.1-7.1c0.5-1.4,1.3-2.7,2.2-3.8c0.9-1.1,1.9-1.9,3-2.5c1.5-0.7,3.1-1.1,5-1.1
			c3.4,0,6.2,1.3,8.3,3.8c2.1,2.5,3.1,6,3.1,10.5c0,4.4-1,7.9-3.1,10.4c-2.1,2.5-4.8,3.8-8.2,3.8c-3.5,0-6.2-1.2-8.3-3.7
			C41.9,172,40.9,168.6,40.9,164.2z M45.7,164c0,3.1,0.6,5.5,1.8,7.1c1.2,1.6,2.8,2.4,4.7,2.4c1.9,0,3.4-0.8,4.6-2.4
			c1.2-1.6,1.8-4,1.8-7.2c0-3.2-0.6-5.5-1.8-7.1c-1.2-1.5-2.7-2.3-4.7-2.3c-2,0-3.5,0.8-4.7,2.4C46.3,158.5,45.7,160.9,45.7,164z"/>
		<path d="M67.5,177.8v-27.4h7.1l4.2,18.7l4.2-18.7h7.1v27.4h-4.4l0-21.6L81,177.8h-4.6l-4.6-21.6l0,21.6H67.5z"/>
	</g>
	<path d="M98.9,165.4v-5.3h8.2v5.3H98.9z"/>
	<g>
		<path d="M116.3,164.2c0-2.8,0.4-5.2,1.1-7.1c0.5-1.4,1.3-2.7,2.2-3.8c0.9-1.1,1.9-1.9,3-2.5c1.5-0.7,3.1-1.1,5-1.1
			c3.4,0,6.2,1.3,8.3,3.8c2.1,2.5,3.1,6,3.1,10.5c0,4.4-1,7.9-3.1,10.4c-2.1,2.5-4.8,3.8-8.2,3.8c-3.5,0-6.2-1.2-8.3-3.7
			C117.3,172,116.3,168.6,116.3,164.2z M121.1,164c0,3.1,0.6,5.5,1.8,7.1c1.2,1.6,2.8,2.4,4.7,2.4c1.9,0,3.4-0.8,4.6-2.4
			c1.2-1.6,1.8-4,1.8-7.2c0-3.2-0.6-5.5-1.8-7.1c-1.2-1.5-2.7-2.3-4.7-2.3c-2,0-3.5,0.8-4.7,2.4C121.7,158.5,121.1,160.9,121.1,164z
			"/>
		<path d="M142.8,177.8v-27.4h4.7v27.4H142.8z"/>
		<path d="M152.2,177.8v-27.4h7.1l4.2,18.7l4.2-18.7h7.1v27.4h-4.4l0-21.6l-4.7,21.6h-4.6l-4.6-21.6l0,21.6H152.2z"/>
	</g>
</g>
</svg>
