<svg xmlns="http://www.w3.org/2000/svg" width="216" height="288" viewBox="0 0 216 288"><path fill="#FDC82F" d="M0 0h216v288H0z"/><path d="M34.787 259.224c-.125.318-.36.883-.84 1.46-.69.8-1.78 1.5-3.364 1.5-2.578 0-4.55-1.887-4.55-5.14 0-3.31 2.138-5.084 4.62-5.084 3.03 0 3.748 2.33 3.97 3.004l-1.82.48c-.028-.18-.112-.59-.36-.964-.206-.305-.744-.855-1.75-.855-1.584 0-2.688 1.312-2.688 3.394 0 2.218 1.17 3.446 2.702 3.446.91 0 1.46-.443 1.862-.955.315-.424.438-.783.508-1.005l1.71.72zm16.156 2.96c-1.228 0-2.357-.343-3.35-1.484-.965-1.117-1.296-2.387-1.296-3.613 0-2.977 2.013-5.125 4.673-5.125 2.412 0 4.673 1.79 4.66 5.11-.014 2.784-1.696 5.113-4.687 5.113zm.014-8.56c-1.67 0-2.785 1.353-2.785 3.38 0 2.19 1.212 3.5 2.827 3.5 1.21 0 2.77-.88 2.81-3.225.042-1.902-.937-3.655-2.853-3.655zm26.04-1.416v9.73H75.22l.165-7.995-2.097 7.996h-1.64l-2.11-7.997.18 7.996H67.94v-9.732h2.646l1.903 7.22 1.86-7.22h2.647zm21.82 0v9.73H97.04l.165-7.995-2.095 7.996h-1.64l-2.11-7.997.18 7.996h-1.777v-9.732h2.646l1.9 7.22 1.863-7.22h2.645zm14.613 0v9.73h-1.792v-9.73h1.792zm19.216 1.654h-2.688v8.078h-1.817v-8.078h-2.633v-1.653h7.14v1.652zm18.378 0h-2.688v8.078h-1.82v-8.078h-2.632v-1.653h7.142l-.002 1.652zm13.782-.03v2.29h4.688v1.57h-4.688v2.605h5.475v1.644h-7.264v-9.73h6.92v1.625l-5.13-.002zm19.246 0v2.29h4.688v1.57h-4.688v2.605h5.473v1.644h-7.266v-9.73h6.92v1.625l-5.128-.002zM26.475 26.475h163.05v62.86h-54.96l54.96 54.962v45.227h-45.23l-54.96-54.958v54.958h-62.86V26.474zM28.267 202.76v9.734h-1.792v-9.733h1.792zm13.39 0h1.79v9.734h-1.583l-4.262-6.827.11 6.827h-1.778v-9.733h1.64l4.302 6.88-.22-6.88zm15.195 1.656h-2.69v8.078h-1.82v-8.078H49.71v-1.655h7.142v1.656zm7.983-.03v2.29h4.688v1.57h-4.688v2.604h5.473v1.644H63.04v-9.733h6.924v1.626h-5.13zm12.27-1.625h3.103c1.297.014 2.164.014 3.02.7.607.5 1.075 1.27 1.075 2.4 0 1.863-1.364 2.513-1.916 2.68l2.165 3.954H82.47l-1.93-3.61H78.91v3.61h-1.806v-9.733zm1.806 1.57v3.047h.636c.62 0 .854-.016 1.2-.025.4-.014 1.708-.083 1.708-1.505 0-.204-.013-.925-.772-1.308-.384-.194-.855-.21-1.93-.21h-.84zm18.243-1.57h1.792v9.734H97.36l-4.26-6.827.11 6.827h-1.78v-9.733h1.642l4.303 6.88-.222-6.88zm13.995 7.83h-3.652l-.564 1.904h-1.945l3.28-9.733h2.07l3.32 9.734h-1.944l-.565-1.905zm-.482-1.582l-1.337-4.484-1.352 4.484h2.688zm14.29-4.592h-2.688v8.078h-1.82v-8.078h-2.633v-1.655h7.143l-.002 1.656zm8.008-1.655v9.734h-1.79v-9.733h1.79zm11.266 9.982c-1.228 0-2.357-.35-3.352-1.49-.964-1.117-1.296-2.385-1.296-3.61 0-2.98 2.015-5.13 4.675-5.13 2.41 0 4.672 1.793 4.66 5.115-.013 2.782-1.697 5.115-4.687 5.115zm.014-8.562c-1.67 0-2.783 1.354-2.783 3.38 0 2.19 1.215 3.5 2.825 3.5 1.213 0 2.77-.882 2.812-3.226.043-1.902-.938-3.654-2.853-3.654zm16.987-1.42h1.795v9.734h-1.587l-4.262-6.827.11 6.827h-1.78v-9.733h1.644l4.3 6.88-.22-6.88zm13.994 7.83h-3.652l-.563 1.904h-1.946l3.282-9.733h2.065l3.326 9.734h-1.942l-.57-1.905zm-.48-1.582l-1.338-4.484-1.352 4.484h2.69zm10.92 1.83h3.86v1.656h-5.694v-9.75h1.835v8.095zM26.475 219.113h13.198c2.51 0 4.91.148 6.523.826 3.522 1.493 4.575 5.1 4.575 7.647 0 .98-.113 3.344-2.022 5.29-1.052 1.127-2.177 1.538-3.414 2.024l6.45 10.688h-9.3l-5.134-9.334h-2.476v9.334h-8.398v-26.475zm8.398 5.55v6.152h3.487c1.388 0 4.05-.07 4.05-3.04 0-3.04-2.625-3.112-4.085-3.112h-3.452zm20.4-5.55H76.23v5.818H63.653v3.915h11.75v5.745h-11.75v5.255h13.704v5.743H55.272v-26.475zM86.48 236.43c.75 1.16 1.39 2.138 3.68 2.888 1.087.377 2.44.604 3.716.604.676 0 3.98-.075 3.98-1.988 0-.19 0-1.165-1.466-1.654-.938-.34-5.818-1.202-6.907-1.467-2.44-.635-7.206-2.138-7.206-7.7 0-1.167.262-2.366.748-3.417 1.728-3.905 6.195-5.44 10.963-5.44 3.04 0 5.79.595 7.966 1.687 1.99.978 2.967 2.024 3.906 3.002l-5.255 4.395c-.414-.526-.865-1.125-2-1.728-1.537-.753-3.566-.974-4.917-.974-1.427 0-3.003.375-3.003 1.724 0 1.276 1.352 1.587 3.643 1.996 5.864 1.017 11.72 2.066 11.72 8.638 0 2.775-1.164 4.73-2.366 5.972-3.34 3.414-8.642 3.414-10.105 3.414-1.99 0-4.093-.188-6.16-.788-4.203-1.2-6.156-3.563-7.357-5.032l6.42-4.133zm48.965 2.327c-.673 1.277-1.312 2.48-2.588 3.756-2.706 2.664-6.498 3.903-10.287 3.903-9.463 0-13.744-7.137-13.744-13.93 0-7.103 4.77-14.352 13.744-14.352 4.017 0 7.848 1.43 10.623 4.28 1.13 1.165 1.653 2.063 2.217 3.114l-7.02 3.464c-.677-1.546-1.954-4.36-5.483-4.36-1.84 0-3.004.86-3.567 1.424-1.986 1.887-1.986 4.887-1.986 5.94 0 3.94 1.463 7.657 5.593 7.657 3.903 0 5.067-3.453 5.37-4.354l7.128 3.457zm3.306-19.644h8.38v16.526c0 1.127.036 2.292.975 3.187.676.72 1.69.98 2.667.98 1.315 0 2.18-.49 2.667-.94.974-.935 1.01-2.1 1.01-3.228v-16.527h8.447V233.2c0 3.042 0 6.982-3.113 9.95-1.916 1.803-4.994 3.15-9.086 3.15-3.906 0-7.286-1.275-9.234-3.15-2.6-2.555-2.64-5.52-2.71-8.3l-.003-15.737zm28.69 0h20.958v5.818H175.85v3.915h11.724v5.745H175.85v5.255h13.675v5.743H167.44v-26.475z"/></svg>