<?xml version="1.0" encoding="utf-8"?>
<!-- Generator: Adobe Illustrator 21.0.0, SVG Export Plug-In . SVG Version: 6.00 Build 0)  -->
<svg version="1.1" id="Layer_1" xmlns="http://www.w3.org/2000/svg" xmlns:xlink="http://www.w3.org/1999/xlink" x="0px" y="0px"
	 viewBox="0 0 577.8 305.7" style="enable-background:new 0 0 577.8 305.7;" xml:space="preserve">
<style type="text/css">
	.st0{fill:#03784C;}
	.st1{fill:#184780;}
	.st2{fill:none;}
</style>
<g>
	<path class="st0" d="M112.6,151.5v-3.6c5.5-0.5,9.5-1,10-3.1c0.4-2.3,0.4-4.1,0.3-7.3l0-55.5c0-3.1-0.1-4.9-0.4-7.2
		c-0.5-2.1-4.5-2.7-10-3V68l37.6-0.1l0,3.7c-5.3,0.5-9.4,1-9.9,3.2c-0.5,2.2-0.5,4-0.5,7.2l0.1,55.5c0,3.2,0,5,0.5,7.2
		c0.4,2.2,4.6,2.9,10.4,3.1c4.5-0.2,9.2-1,9.7-3.1c0.5-2.3,0.5-4.1,0.4-7.3v-31.5c0-6-3.2-6.8-9.3-6.8v-3.7c8.1-0.1,18.5-1.6,24.9-5
		l0.2,0.2l0,12.2h0.3l5-6.9c2.7-3.8,5.5-5.5,8.4-5.5c1.8,0,3.6,0.7,5.4,3.8l3.9,6.2c0.7,1.4,0,2.5-0.6,3.6l-3.1,3.4
		c-1.1,1.6-2,0.9-3.3,0.4l-5.7-2.6c-1.4-0.7-3.1-1.2-4.8-1.1c-3.3,0-5.4,4.3-5.4,16.7l0,16.7c0,3.2,0.1,5,0.5,7.2
		c0.5,2.2,4.6,2.8,10,3.1v3.6L112.6,151.5z"/>
	<path class="st0" d="M228.1,90.4l0,46.9c0,3.2,0.1,5,0.5,7.3c0.5,2.1,4.5,2.6,8.7,3l0.1,3.7l-34.4,0.1l-0.1-3.7
		c4.2-0.4,8.4-1,8.9-3.2c0.5-2.2,0.5-4.1,0.5-7.2v-31.6c-0.1-5.9-3.2-6.9-9.5-6.8v-3.6c8.2-0.2,18.6-1.7,25.1-5.1L228.1,90.4z"/>
	<path class="st0" d="M219.1,66.4c5.2,0,8.7,3.9,8.7,8.7c0,4.7-3.5,8.6-8.7,8.6c-4.8,0-8.8-3.7-8.8-8.6
		C210.3,70.3,214.2,66.4,219.1,66.4"/>
	<path class="st0" d="M242.2,134.8h3.3c1.1,7.7,6.9,13.4,13.7,13.4c6.7-0.1,9.6-5,9.6-9.6c-0.1-6.2-3.4-8.9-12.8-15.6
		c-10.4-7.2-13.2-10.5-13.2-17.5c0-9.7,9.3-15.3,21-15.3c4.8,0,10.4,0.5,16.4,2l0,13.3H277c-1.3-5.1-4.9-10.7-11.4-10.7
		c-4.8,0-7.7,2.9-7.7,7.6c0,4.9,5.3,8,14.6,15c9.8,7.3,11.4,12.2,11.4,17.6c0.1,13.3-12.2,17.6-23.6,17.7c-6.7,0-12.8-1.2-18-3.2
		L242.2,134.8z"/>
	<path class="st0" d="M312,63.6l0.1,36.9c5.1-5.9,13.6-10.5,23.4-10.5c13.4-0.1,17.1,8.5,17.1,21l0.1,25.9c0,3.2,0,5,0.5,7.3
		c0.5,2.2,4.7,2.6,8.9,3v3.6l-33.5,0.1v-3.6c3.4-0.3,7.4-0.9,7.9-3.1c0.4-2.3,0.4-4.1,0.4-7.3l0-22.8c0-8.2-1.1-16.6-10.4-16.5
		c-10,0-14.3,7.9-14.3,23.9l0,15.5c0,3.2,0,5,0.5,7.2c0.4,2.2,4.5,2.7,8,3.2v3.6l-33.8,0.1v-3.6c4.2-0.4,8.3-1,8.9-3.1
		c0.4-2.3,0.4-4.1,0.4-7.3l0-58.5c0-3.2-0.6-7.8-5.9-7.8h-3.5v-3.7c12.1-0.4,19.7-1.8,24.9-3.8L312,63.6z"/>
	<path class="st0" d="M436.5,118.9L424.5,84h-0.2l-12.8,35L436.5,118.9z M437.7,150.8v-3.6c6.5,0,7.5-3.7,5.7-9l-4.9-13.9l-29,0.1
		l-4.9,14.2c-1.6,5,0.1,8.8,5.6,8.7l0,3.6l-23.3,0.1v-3.6c3.5,0,7.7-2.1,10.3-7.4c4.3-8.8,18.8-47.7,28.7-73.9l7.8,0
		c7.2,19.7,21.7,58.9,26.1,70.3c2.4,6.3,6.1,10.8,11.1,10.9c4.2,0,8.1-1.2,8.7-3.2c0.3-2.3,0.3-4.1,0.3-7.3l0-31.5
		c0-5.9-3.1-6.8-9.4-6.8v-3.6c8.1-0.2,18.5-1.6,25-5.1l0.2,0.1l0.1,46.8c0.1,3.2,0,5,0.5,7.3c0.5,2.1,4.5,2.7,8.7,3.1l0.1,3.7
		L437.7,150.8z"/>
	<path class="st0" d="M486.8,65.9c5.1,0,8.8,3.9,8.8,8.6c-0.1,4.7-3.6,8.6-8.8,8.6c-5,0-8.8-3.7-8.8-8.5
		C478.1,69.7,481.9,65.9,486.8,65.9"/>
	<path class="st0" d="M554.8,152c-1.8-3.2-2-6.2-2.1-9.5l-7.8,5.7c-4.7,2.9-6.4,3.9-10.2,3.9c-18.9,0-27.7-16.8-27.7-30.9
		c-0.1-19.8,13.8-31.6,31.4-31.6c4.6,0,9.9,0.1,14.2,1.9V78.1c-0.1-3.3-0.7-7.8-5.9-7.8h-3.5v-3.7c12-0.3,19.7-1.8,24.9-3.7l0.3,0.2
		l0.1,69.9c0,8.5,2,12.4,8.5,10.4l0.8,3.9L554.8,152z M552.6,101.4c-2.7-5.4-6.9-7.3-12.5-7.3c-11,0-16.4,10.4-16.4,24.4
		c0.1,11.9,5.4,24.8,16.9,24.7c5.8,0,12-4.6,12-11.9L552.6,101.4z"/>
	<path class="st1" d="M42.7,0l2,0.5c7.8,13,18.1,21.7,27.7,21.7c3.5,0,9.5-4.6,16-4.5c9.7,0,17.3,8.7,12.9,19.3l-1.2-1.4
		c2.9-5.4,0.2-16.8-11.6-16.8c-7.3,0-11.4,4.5-16.2,4.5C59.9,23.3,49.4,10.4,44,1.5c-0.8,0.8-14.8,13.8-14.8,13.8
		c8.1,12.9,19.8,23.1,31.7,23.1c16.2,0,20.3-8.5,25.5-8.5c2.4,0,3.4,2.3,3.5,3.5l-1.3,0.5c-0.3-1.8-1-2.9-2.3-2.9
		c-4.7,0-8.6,8.7-25.5,8.7C50.5,39.8,39.4,32.1,29.7,18l-0.7,0.9l-2.7-3.7L42.7,0z"/>
	<path class="st1" d="M13.3,134.5c5.6,9.5,10.8,15.5,10.8,20.3c0,2.1-0.3,2.8-1,2.8c-0.5,0-1.4-1-3-1.1c-2.1,0.1-3.9,1.4-3.8,3.8
		c0,3,2.7,4.5,5.8,3.8c-0.7,2,0.3,4.2,3.8,4.2c8.2-0.1,22-10.7,26.3-20.8l-1.7-0.5c-3.8,10.6-18.1,20.1-24.9,20.1
		c-3.1,0-3.1-2.8-2-4.6c-0.5,0.3-2,0.5-2.5,0.5c-2.3,0-3.3-1.4-3.3-2.9c0-1.7,1.1-2.7,2.2-2.7c1.7,0,2.6,1.4,3.5,1.4
		c1.4,0,2.1-1.3,2.1-4.2c-0.1-5.1-5.5-11.2-11.2-20.8L13.3,134.5z"/>
	<path class="st1" d="M19.4,30.7c3.9-5.4,7.9-9.6,10.9-12.6l-0.5-0.8c-3.2,3.2-7.1,7.5-11,12.8L19.4,30.7z"/>
	<path class="st1" d="M15,35.6C7,47.9,0,64.6,0,84.6c0.1,19.3,4.1,31.7,10.1,44.1l0.7-0.8c-5.9-12-10-24.6-10.1-43.3
		c0-19.8,6.9-36.3,14.7-48.5L15,35.6z"/>
	<rect x="0" class="st2" width="577.7" height="305.7"/>
	<path class="st1" d="M39.9,29.6C27.1,42.7,17.4,59.5,17.5,86c0,30.7,15.2,49.5,27.1,60.3l0.8-1.4C29.1,131.8,18.8,110.1,18.7,86
		c-0.1-24.6,9.8-44.1,22.5-55.4L39.9,29.6z"/>
	<path class="st1" d="M84.9,39c2.9-5,5-7.2,9.6-7.2c4-0.1,7,2.8,7,7.1c1.7,2.3,0.8,6.1,0,8.6L64.6,150.5l-20-4.2l0.8-1.4l18.4,4
		l36.6-101.7c1-3.1,1.3-5.1,0-7.9c0-4-2-6.6-6.4-6.5c-4.8-0.1-6.4,2.9-8.5,6.5L84.9,39z"/>
	<path class="st1" d="M32.8,132.6L84.9,39c1-1.8,2-2.4,3.5-2.5c1.4,0.1,2,1.2,2,2.4c0,0.5-0.3,0.8-1.2,3.2L45.6,145.7l-1-0.2
		L88.6,41.9c0.7-1.8,1-2.4,1.1-2.9c0-1-0.6-1.8-1.4-1.8c-1.3,0.1-1.9,0.7-2.7,2.2l-52.3,93.7L32.8,132.6z"/>
	<path class="st1" d="M77.7,27.5c0.7,1,1.5,1.5,3.6,1.5c2.3,0,3.7-2.3,4-3.9c0.2,2.1,1.8,3.3,3.5,3.3c0.8,0,2.4-0.2,3.3-0.9
		c-0.2,0.2-0.5,1.3-0.5,2c0,1.2,1,2.3,2.4,3l3.8,1.1l-1.5-0.9c-1.8-0.5-3.7-1.4-3.7-3.2c0-1.4,0.4-2.9,1.5-4l-0.8-0.6
		c-0.9,1.5-2.4,2.7-4.2,2.7c-2,0-3.1-1.1-2.9-4.2L85,23.1c-0.3,2-1.2,5-3.8,5c-1.7,0.1-3.1-0.7-3.5-2.9l-1.2,0.4
		c0.5,2-0.7,5.3-4.2,5.2c-3.4,0-4-2.5-3.3-3.8l-2.9-0.8c-0.4,1.3-2,2.5-3.8,2.6c-1.6,0-3.7-1.4-3.7-3.5c0-0.7,0.4-1.6,1.2-2.2
		l-2.4-1.6c-0.4,0.9-1.9,1.7-4.2,1.7c-1.7,0-3.6-1.8-3.5-3.9c0-1.1,0.5-1.8,1.4-2.8l-3.6-3.5c-0.5,0.6-1.5,1.4-2.9,1.4
		c-1.5,0-2.4-1.2-3.7-3.4c-0.3,0.5-2.8,2.9-3.5,3.4c2,1.2,3,2,3,3.7c0,1.1-0.5,2-1.6,2.8l4.1,4.3c0.5-0.6,1.8-1.5,3.1-1.5
		c3.1,0,3.8,4.5,2.3,5.7l4.2,2.5c0.6-1.2,1.7-2.4,3.5-2.5c2,0,3.3,2.4,2.9,4.4l3.2,0.4c0-1.9,1.6-2.9,3-2.9c1.2,0.1,2.9,1,3.3,2.8
		l0.9-0.4c-0.6-2.2-2.6-3.1-4.1-3c-1.6-0.1-3.2,0.5-3.9,2.5l-1.3-0.1c0.2-1.9-1.5-4.5-3.7-4.5c-1.8,0-3.2,0.8-4,2.1l-2.8-1.7
		c1.1-1.2,0.5-6.1-3.5-6.1c-1,0-2.2,0.4-2.9,0.9L40,21c0.8-0.6,1.6-1.6,1.6-2.7c0.1-1.8-1-2.7-2.5-3.8l2.1-1.9
		c0.8,1.9,2.3,2.8,3.6,2.8c0.9,0,2-0.7,2.7-1.2l2.6,2.7c-0.6,0.7-1.2,1.7-1.2,2.8c0,2.1,2,4.7,4.5,4.7c1.3,0,3.4-0.5,4.3-1.6
		l0.9,0.8c-0.4,0.5-0.7,1.2-0.7,2.1c0,2.1,2.2,4,4.4,4c2,0,3.7-1,4.3-2.2l1.4,0.4c-0.4,2,1.8,3.9,4.4,3.9
		C75.9,31.7,77.4,29.1,77.7,27.5"/>
	<path class="st1" d="M44.4,9.5c0.4,0,1.2,0.4,1.2,1.1c0,0.5-0.3,0.7-0.7,0.8c-0.7-0.1-1.2-0.5-1.2-1.2C43.6,9.7,44,9.5,44.4,9.5"/>
	<path class="st1" d="M53,18.6c0.4-0.1,1.1,0.3,1.1,1.1c0,0.5-0.4,0.7-0.7,0.7c-0.6,0.1-1.2-0.4-1.2-1.1
		C52.2,18.8,52.6,18.6,53,18.6"/>
	<path class="st1" d="M62.6,24.8c0.4,0,1,0.1,1,1c0,0.5-0.3,0.8-0.8,0.8c-0.5,0-1.1-0.5-1.1-1.1C61.8,24.9,62.1,24.7,62.6,24.8"/>
	<path class="st1" d="M72.9,26.2c0.4,0,0.9,0.3,0.9,0.7c0,0.6-0.5,0.7-1,0.7c-0.3,0.1-0.8-0.2-0.8-0.7
		C71.9,26.5,72.3,26.2,72.9,26.2"/>
	<path class="st1" d="M80.9,23.6c0.5,0.1,0.9,0.3,0.9,0.6c0.1,0.6-0.3,0.9-0.9,0.9c-0.6,0.1-0.8-0.3-0.8-0.7
		C80.1,23.9,80.8,23.7,80.9,23.6"/>
	<path class="st1" d="M88.8,24c0-0.6,0.4-0.9,0.9-0.9c0.5,0,0.7,0.4,0.7,0.7c0,0.5-0.4,1-0.9,1C88.9,24.8,88.8,24.3,88.8,24"/>
	<path class="st1" d="M96.3,28.2c0.4,0,1,0.2,1,1c0.1,0.4-0.6,0.6-1,0.6c-0.5,0-1-0.3-1-0.7C95.3,28.6,95.9,28.2,96.3,28.2"/>
	<path class="st1" d="M36.9,16.8c0.5,0.1,0.9,0.5,0.9,1.3c0,0.5-0.4,0.8-0.8,0.7c-0.7,0-1-0.5-1-1C36,17,36.5,16.9,36.9,16.8"/>
	<path class="st1" d="M45.2,27.1c0.5,0,0.8,0.4,0.8,0.9c0,0.2-0.2,0.6-0.6,0.6c-0.6,0-0.9-0.4-0.9-0.8
		C44.4,27.3,44.9,27.1,45.2,27.1"/>
	<path class="st1" d="M55.6,32.9c0.4-0.1,0.9,0.3,0.9,0.7c0,0.5-0.4,0.6-0.8,0.6c-0.3,0-0.7-0.2-0.7-0.7
		C54.9,33.1,55.2,32.9,55.6,32.9"/>
	<path class="st1" d="M65.4,34.2c0.5-0.1,0.9,0.3,0.9,0.7c0,0.5-0.5,0.8-1,0.8c-0.4,0-0.7-0.4-0.7-0.7C64.6,34.5,65,34.2,65.4,34.2"
		/>
	<path class="st1" d="M36.6,143.9l-0.4,1c-2.8-1.9-6,1.5-3.1,3.9l-0.5,0.7c-2.9-2.1-5.1,1.6-2.5,3.7l-0.3,0.8
		c-4.2-3.4-1.1-6.9,1.5-6C29.6,145.1,32.9,142.2,36.6,143.9"/>
	<path class="st1" d="M38.8,151l-1.4-2.9L28,160.3c6.2-0.6,11.9-4.9,15.4-9.3C42,151.4,40.1,151.3,38.8,151l0.6-0.9
		c1.4,0.3,3.3,0.4,4.9-0.1l0.3,0.5c-5.8,7.9-11.4,10.1-17.8,10.9l-0.2-0.3L37,146.9l0.6-0.3l1.7,3.5L38.8,151z"/>
	<path class="st1" d="M7.6,132.6c0.1,2.3,1.6,3.3,3.6,3.3c4.1,0,6-6.6,5.9-10.5c0-6.1-7.3-20-7.3-40.1c-0.1-25.7,12.3-42,12.3-47.8
		c0-5.2-2.4-8.6-5.3-8.6c-2.6,0-3.9,1.6-3.9,3.6c0,3.7,6.7,4.6,5.9,14.2l0.8-2.5c-0.4-7.3-5.7-9.4-5.7-11.7c0.1-1.8,1.3-2.7,2.8-2.6
		c2.6,0,4.4,3.5,4.5,7.6c0.1,5.6-12.3,22.5-12.3,47.9c0.1,20.1,7.3,33.7,7.3,40c0,4.1-1.7,9.5-4.8,9.5c-1.8,0-2.6-0.9-2.6-2.4
		c0-3.1,6.3-6.2,6.3-14.3l-0.5-1.8C14.6,126.2,7.7,129,7.6,132.6"/>
	<polygon class="st1" points="9.3,87.8 19.4,97.4 12.9,110.2 12.6,109 18.1,97.6 9.4,89.1 	"/>
	<polygon class="st1" points="12,65.2 19,77.3 9.3,87.8 9.4,86.5 17.9,77.1 11.8,66.6 	"/>
	<polygon class="st1" points="19.8,43.3 23.6,56.6 12,64.8 12.3,63.6 22.5,56.3 19.3,44.6 	"/>
	<path class="st1" d="M32.4,38.7L32.4,38.7L31.5,39c-0.6,0.2-1.2,0.3-1.8,0.2c-1.9,0.1-3.8-1.2-4.8-4.5L24.2,35
		c0.6,3.4,2.8,4.7,4.7,5L20,43.1L19.7,44l12.5-4.4l0.7-1C32.8,38.6,32.6,38.7,32.4,38.7"/>
	<path class="st1" d="M13.2,110.3c1.3,0.5,9.3,4.8,11.1,5.3c-1.2,2.7-3.5,12.8-3.9,13.7c1.4-1.2,3.2-2.2,5.7-2.3
		c0.9,0,2.1,0.2,2.8,0.4l0.3,0.7c-1.1-0.2-1.8-0.4-3.1-0.4c-2.3,0-4.9,1.4-6.7,3.6l-0.6-0.5c0.6-2.4,3.7-13.9,4-14.7
		c-1.6-0.6-9-4.8-9.7-5L13.2,110.3z"/>
	<path class="st1" d="M5.3,115.4c4.2-1.6,6.1,1.6,6.1,3.4c0,2.2-1,3.2-3,4.1L7.9,122c1.5-0.5,2.6-1.3,2.6-3.2c0-1.8-1.8-3.9-4.8-2.5
		L5.3,115.4z"/>
	<path class="st1" d="M1.1,75.3c1.6,0.3,4.6,1.8,4.6,5c0,3.1-1.6,5.6-5,5.6l0-1c3,0.2,4.2-2.6,4.1-4.4C4.9,78,3.2,76.4,1.1,76V75.3z
		"/>
	<path class="st1" d="M12.9,39.6c1.7,0.9,2.7,2,2.7,4c0,2.4-1.8,3.9-4,3.9c-0.8,0-1.9-0.3-2.4-0.7L9.5,46c0.5,0.4,1.5,0.7,2,0.7
		c2.1,0,3.3-1.7,3.3-3.1c0-1.6-0.5-2.3-2.2-3.5L12.9,39.6z"/>
	<path class="st1" d="M32.1,30c0.1,2.2-1.6,3.5-3.6,3.5c-2.5-0.1-3.5-1.9-3.6-3.6l-0.5,0.2c0,1.9,1.2,3.8,4.2,3.8
		c1.5,0,4.3-0.9,4.3-4H32.1z"/>
	<path class="st1" d="M32.9,30c0-2.6-2.2-4-4.3-4c-1.8,0-4.2,1.2-4.2,4.1l0.5-0.2c0-1.9,1.7-3.3,3.7-3.4c2,0,3.6,1.2,3.5,3.4H32.9z"
		/>
	<path class="st1" d="M30.8,138.4c0,2.1-1.2,4.2-4.4,4.1c-2.7,0-5-1.9-4.9-5.1l-0.8-0.2c0.1,4.2,3.2,6.2,5.6,6.2
		c3.3,0,5.6-1.8,5.5-5.1H30.8z"/>
	<path class="st1" d="M31.8,138.4c0.1-3.5-2.5-5.9-6.1-5.8c-2.7-0.1-5,1.7-5,4.7l0.8,0.2c0-1.7,1-4.2,4.1-4.2c2.6,0,5.2,1.7,5.2,5.2
		H31.8z"/>
	<polygon class="st1" points="0.5,92.2 9.4,91 9.5,91.9 0.6,93.2 	"/>
	<polygon class="st1" points="3.8,111.2 12.8,109.1 12.9,109.9 3.9,112.1 	"/>
	<polygon class="st1" points="0.6,93.3 1.2,92.5 12.4,108.9 12,109.6 	"/>
	<polygon class="st1" points="2,68.8 10.7,70.5 10.4,71.4 1.9,69.9 	"/>
	<polygon class="st1" points="7.8,50.7 16.1,53.6 15.8,54.3 7.4,51.5 	"/>
	<polygon class="st1" points="1.7,68.8 15.3,53.7 15.8,54.3 2.1,69.4 	"/>
	<polygon class="st1" points="56.7,100.8 68.4,77.9 69.1,78.4 57.3,101.1 	"/>
	<polygon class="st1" points="66.6,72.3 80.4,61.5 80.1,62.5 66,73.5 	"/>
	<polygon class="st1" points="33.8,131.5 61,107.4 60.4,108.9 33.1,133.3 	"/>
	<polygon class="st1" points="46.2,143 51.2,100.1 50.1,102.3 45,145.2 	"/>
	<polygon class="st1" points="80.6,61.5 81.2,46 80.8,46.8 80.1,62.6 	"/>
	<path class="st1" d="M58.8,86.6c1.6,1.2,7.2,4.2,9.3,4.7l0.3-0.7c-2-0.5-7.7-3.5-9.2-4.7L58.8,86.6z"/>
	<path class="st1" d="M54.9,93.8c-0.3,2.4,0,5.9,2.4,6.8c2.2,0.9,6.8-0.8,7.4-2l-0.3,0.9c-1,1.6-5.5,2.6-7.6,1.8
		c-2.7-1.1-3.2-5.6-2.6-6.4L54.9,93.8z"/>
	<path class="st1" d="M62.7,79.8c1.1-1.7,4.5-1.9,5.5-1.4c2.7,1.1,3.5,4.6,2.6,6.6l0.8-1.7c0.7-2.1-0.8-4.8-3-5.7
		c-1.4-0.6-4.6-0.5-5.7,1.1L62.7,79.8z"/>
	<path class="st1" d="M34.1,134.2c1.8-1.7,5.9-2.3,7.7-0.9c3.1,2.7,2.4,7.5,1.1,10.2l-0.8-0.4c1.6-3.7,1.2-7.4-0.8-9.1
		c-1.7-1.4-5.4-0.4-6.7,0.9L34.1,134.2z"/>
	<path class="st1" d="M95.2,51c0,1.4-1.1,2.5-2.8,2.5c-1.6,0-2.7-1.1-2.7-2.7l0.7,0.1c0.1,1.1,1,1.8,2,1.8c1.3,0,2.2-0.7,2.2-1.8
		H95.2z"/>
	<path class="st1" d="M94.5,51c-0.1-1-1-1.9-2-1.9c-1.3,0-2.1,0.9-2.1,1.9l-0.7-0.1c0-1.3,1.1-2.5,2.8-2.5c1.4,0,2.7,1.3,2.7,2.7
		H94.5z"/>
	<path class="st1" d="M99.2,38.7c0,1.4-1.1,2.5-2.7,2.5c-1.7-0.1-2.7-1-2.8-2.6h0.7c0,1.1,1,2,1.9,2c1.5,0,2.3-0.8,2.2-1.8
		L99.2,38.7z"/>
	<path class="st1" d="M98.4,38.9c0-1.1-0.9-2.1-2-2.1c-1.2,0-2.1,1-2.1,1.9h-0.7c0-1.3,1.1-2.5,2.7-2.5c1.6,0.1,2.9,1.2,2.9,2.6
		L98.4,38.9z"/>
	<path class="st1" d="M88.4,43.6c0,1.3,0.7,2.2,1.7,2.3c1.4-0.1,2.1-1.1,2.1-2.1c0-1.1-0.6-2.1-1.8-2.1c-0.3,0-1,0.2-1.4,0.5
		l0.2-0.7c0,0,0.7-0.3,1-0.3c1.6,0,2.6,0.7,2.6,2.5c0,1.3-1,2.8-2.7,2.8c-1.3,0-1.7-0.7-2.2-2L88.4,43.6z"/>
	<path class="st1" d="M101,45.4c-0.2-0.8-1-1.4-1.7-1.3c-0.8,0-1.8,0.6-1.8,1.5c0,1.2,1,1.8,2,1.8c0.4,0,1-0.1,1.4-0.6l-0.1,0.9
		c-1.2,0.6-3.9,0.4-3.9-2c0-1,1-2.4,2.5-2.4c0.6-0.1,1.8,0.6,2.1,1.2L101,45.4z"/>
	<path class="st1" d="M76.8,99.1c-0.1,2.1-1.8,3-3.4,3c-1.6,0-2.8-1.1-2.8-2.8h0.8c0,1.1,0.9,2,2.1,2.1c1.1-0.1,2.5-0.9,2.5-2.2
		L76.8,99.1z"/>
	<path class="st1" d="M76,99.1c0-1.1-1-2.4-2.2-2.4c-0.9,0-2.4,0.8-2.4,2.5h-0.8c0-2,1.3-3.2,3.3-3.2c1.5-0.1,2.9,1.1,2.9,3L76,99.1
		z"/>
	<path class="st1" d="M73.9,91.2c0,2-1.7,3.1-3.2,3.1c-1.5,0-2.7-1.3-2.7-3l0.7-0.1c0,1.1,0.9,2.4,2.1,2.3c1.1,0,2.3-0.8,2.3-2.3
		L73.9,91.2z"/>
	<path class="st1" d="M73.1,91.2c0-1-0.9-2.4-2.3-2.2c-0.8-0.1-2.2,0.8-2.1,2.2L68,91.3c-0.1-1.6,1.3-3.2,3.2-3.2
		c1.3,0,2.7,1,2.7,3.1L73.1,91.2z"/>
	<polygon class="st1" points="74.5,75.7 99.4,51.7 98.4,53.2 74.6,76.2 	"/>
	<polygon class="st1" points="88.2,82.7 88.8,82.1 86.7,47.4 86.2,49 	"/>
	<polygon class="st1" points="50.9,131.2 79.5,107.4 79.1,108.8 50.5,132.7 	"/>
	<polygon class="st1" points="68.1,138.2 68.8,137.8 64.9,98.8 64.3,100.3 	"/>
	<path class="st1" d="M83.2,82c0.7-0.9,1.1-1.7,1.1-2.6c0-1.7-1-3.2-3.3-3.2c-1.7,0-3.8,1.4-3.3,4l-0.8,0.1c-0.5-2,1.1-4.9,4.3-4.9
		c2.3,0,4,1.5,4,3.7c0,1-0.6,2.4-1.4,3.2L83.2,82z"/>
	<path class="st1" d="M61.9,137.9c1-0.9,1.5-2,1.5-2.8c0-1.9-1.1-3.7-3.8-3.7c-2.4,0-4.2,1.5-3.9,4.6l-1-0.1
		c-0.3-2.9,1.5-5.4,4.9-5.4c2.8,0,4.7,1.6,4.7,4.2c0,1.6-0.6,2.5-1.7,3.7L61.9,137.9z"/>
	<path class="st1" d="M76,104.9c-0.3,2.7-2,4.5-4.5,4.5c-2.1,0-3.9-1.4-3.9-4.2c0-0.9,0.5-2.2,1.3-2.8l0.7,0.5c-0.6,0.6-1,1.3-1,2.2
		c0,2,1,3.4,3.2,3.4c2.4,0,3.3-2,3.3-3.5L76,104.9z"/>
	<path class="st1" d="M59.4,142.1c0-1.5-1.3-2.7-2.9-2.7c-1.3,0-2.7,0.7-2.7,2.4l-0.8,0c0-2,1.4-3.1,3.7-3.1c1.2,0,3.4,1.2,3.4,3.3
		L59.4,142.1z"/>
	<path class="st1" d="M60.2,142c0,1.8-1.2,3.2-3.6,3.3c-2.1,0-3.5-1.5-3.5-3.5l0.8,0c0,1.4,1.1,2.8,2.7,2.8c2.1,0,2.9-1.3,2.9-2.4
		L60.2,142z"/>
	<path class="st1" d="M80.8,86.5c0-1.3-1-2.1-2.3-2.1c-1,0-2,0.5-2,2.2h-0.9c0-1.7,1.1-2.9,3.1-2.9c1.3,0,3,1,3,2.9L80.8,86.5z"/>
	<path class="st1" d="M81.6,86.5c0,2-1.7,2.8-3.2,2.8c-1.6,0-2.8-1-2.8-2.8h0.9c0,1,0.8,2.1,2.1,2.1c1.1,0,2.2-0.7,2.3-2.2
		L81.6,86.5z"/>
	<path class="st1" d="M78.2,94.7c-0.1-1.8,1.4-3,3.3-3c1.4,0,2.7,1,2.7,2.9h-0.8c0-1.1-0.8-2.2-2.2-2.2c-0.9,0-2.3,0.8-2.3,2.2
		L78.2,94.7z"/>
	<path class="st1" d="M84.3,94.6c0,2-1.3,2.9-3.1,2.9c-1.5,0.1-3-1.3-2.9-2.8l0.8,0c0,1,1,2.1,2.3,2.1c1.1-0.1,2.1-0.8,2.2-2.2H84.3
		z"/>
	<polygon class="st1" points="35.7,128.1 35,129.3 34.8,24.2 35.5,24.2 	"/>
	<polygon class="st1" points="42,116.8 41.2,118.2 41,30.4 41.8,30.4 	"/>
	<polygon class="st1" points="48.2,105.6 47.4,107.1 47.2,35 48,35 	"/>
	<polygon class="st1" points="54.5,94.4 53.7,95.9 53.5,37.9 54.3,37.9 	"/>
	<polygon class="st1" points="60.7,83.2 59.9,84.9 59.8,38.9 60.5,38.9 	"/>
	<polygon class="st1" points="66.9,72.1 66,73.8 66,38.6 66.8,38.5 	"/>
	<polygon class="st1" points="73.1,60.8 72.3,62.6 72.2,37.3 73.1,37.2 	"/>
	<polygon class="st1" points="79.3,49.6 78.5,51.6 78.5,33.9 79.2,33.8 	"/>
	<path class="st1" d="M45.9,234.3l-7.5-14.5c-1.2-2.3-2.8-3.3-5.1-3.3h-3.6v17.8h-6.4v-40h11.1c3.1,0,4.3,0.1,6.2,0.4
		c5.6,0.8,9.1,4.6,9.1,9.8c0,5.1-3.7,9.2-9.1,10.1c1.8,0.5,2.9,1.4,3.9,3.2l8.9,16.4H45.9z M41.1,200.5c-1.4-1.1-3.1-1.5-6.2-1.5
		h-5.2v12.8h4.9c5.5,0,8.6-2.5,8.6-6.8C43.2,203.2,42.5,201.6,41.1,200.5"/>
	<path class="st1" d="M61.3,200.3c-1.9,0-3.5-1.5-3.5-3.4c0-1.9,1.6-3.5,3.5-3.5c1.9,0,3.4,1.6,3.4,3.5
		C64.8,198.8,63.3,200.3,61.3,200.3 M58.4,206.1h5.8v28.2h-5.8V206.1z"/>
	<path class="st1" d="M91.9,234.9c-2.9,0-4.9-1.7-5.2-4.6c-3.4,3.1-6.2,4.4-9.3,4.4c-3.8,0-6.8-3-6.8-7c0-5.4,5.2-9.2,15.7-11.4V215
		c0-3.5-1-4.9-3.6-4.9c-2.4,0-5,1.1-8.9,3.8l-2.4-3.5c1.2-1,1.6-1.3,3.1-2.2c3.9-2.2,6.7-3.1,9.8-3.1c3.1,0,5.4,1.2,6.7,3.4
		c0.8,1.4,1.1,3,1.1,6.7v1.9v8.6v1.7c0,0.8,0.1,1.6,0.4,2.1c0.3,0.5,1,0.9,1.7,0.9c0.4,0,0.8,0,1.5-0.2l0.6,3.7
		C94.3,234.7,93.6,234.9,91.9,234.9 M86.4,220.3c-6.7,1.9-9.9,4-9.9,6.8c0,1.6,1.1,2.8,2.7,2.8c2.2,0,4.7-1.4,7.2-4V220.3z"/>
	<rect x="100.8" y="191.4" class="st1" width="5.8" height="42.8"/>
	<path class="st1" d="M124.2,234.9c-2.5,0-4.3-0.5-5.7-1.6c-0.8-0.6-1.4-1.4-1.7-2.3c-0.4-1.3-0.5-1.7-0.5-5v-15.9h-4.9v-4h4.9v-8.2
		h5.8v8.2h7.4v4h-7.4V225c0,1.6,0.1,2.4,0.2,3c0.4,1.4,1.7,2.2,4.1,2.2c0.9,0,1.7-0.1,3.1-0.4v4.2
		C127.1,234.7,125.9,234.9,124.2,234.9"/>
	<path class="st1" d="M153,234.9c-2.9,0-4.9-1.7-5.2-4.6c-3.4,3.1-6.2,4.4-9.3,4.4c-3.8,0-6.8-3-6.8-7c0-5.4,5.2-9.2,15.7-11.4V215
		c0-3.5-1-4.9-3.6-4.9c-2.4,0-5,1.1-8.9,3.8l-2.4-3.5c1.2-1,1.6-1.3,3.1-2.2c3.9-2.2,6.7-3.1,9.8-3.1c3.1,0,5.4,1.2,6.7,3.4
		c0.8,1.4,1.1,3,1.1,6.7v1.9v8.6v1.7c0,0.8,0.1,1.6,0.4,2.1c0.3,0.5,1,0.9,1.7,0.9c0.4,0,0.8,0,1.5-0.2l0.6,3.7
		C155.4,234.7,154.6,234.9,153,234.9 M147.4,220.3c-6.7,1.9-9.9,4-9.9,6.8c0,1.6,1.1,2.8,2.7,2.8c2.2,0,4.7-1.4,7.2-4V220.3z"/>
	<path class="st1" d="M167.2,234.9c-3.4,0-4.6-0.2-7.6-1.1l1-4.3c2.7,0.6,3.8,0.7,6.1,0.7c4.8,0,7.7-1.5,7.7-4
		c0-1.7-1.3-2.9-4.7-4.4c-4.5-1.9-5.6-2.6-7.2-4c-1.2-1.1-1.9-2.8-1.9-4.6c0-5,4.6-8.2,11.6-8.2c2.6,0,4,0.2,7.2,0.9l-1,4.2
		c-2.8-0.6-4-0.7-5.9-0.7c-3.5,0-5.8,1.2-5.8,3.1c0,1.6,1.6,2.8,5.2,4.2c6.2,2.3,8.8,4.9,8.8,8.9
		C180.6,231.4,175.5,234.9,167.2,234.9"/>
	<path class="st1" d="M221.8,234.3v-16.3c0-1.2-0.1-2.6-0.1-3.5c-0.2-2.6-1.6-4-3.8-4c-2.6,0-5.8,1.8-8.8,5v18.8h-5.8v-28.2h5.6v4.3
		c3.8-3.6,7-5.2,10.7-5.2c2.5,0,4.6,0.9,6,2.5c1.4,1.7,1.9,3.7,1.9,8.2v18.4H221.8z"/>
	<path class="st1" d="M254.5,234.9c-2.9,0-4.9-1.7-5.2-4.6c-3.4,3.1-6.2,4.4-9.3,4.4c-3.8,0-6.8-3-6.8-7c0-5.4,5.2-9.2,15.7-11.4
		V215c0-3.5-1-4.9-3.6-4.9c-2.4,0-5,1.1-8.9,3.8l-2.4-3.5c1.2-1,1.6-1.3,3.1-2.2c3.9-2.2,6.7-3.1,9.8-3.1c3.1,0,5.4,1.2,6.7,3.4
		c0.8,1.4,1.1,3,1.1,6.7v1.9v8.6v1.7c0,0.8,0.1,1.6,0.4,2.1c0.3,0.5,1,0.9,1.7,0.9c0.4,0,0.8,0,1.5-0.2l0.6,3.7
		C256.9,234.7,256.1,234.9,254.5,234.9 M248.9,220.3c-6.7,1.9-9.9,4-9.9,6.8c0,1.6,1.1,2.8,2.7,2.8c2.2,0,4.7-1.4,7.2-4V220.3z"/>
	<path class="st1" d="M296.4,234.3v-17v-1.9c0-3.2-1.4-4.8-4.1-4.8c-2.8,0-5.8,1.7-9.1,5.2v18.5h-5.8v-42.8h5.8v18.8
		c1.9-1.6,2.7-2.2,4.1-3c2.3-1.3,4.6-2,6.7-2c1.9,0,3.6,0.5,4.9,1.4c2.3,1.6,3.2,3.7,3.2,7.7v19.9H296.4z"/>
	<path class="st1" d="M310.8,234.3l0.1-40h23.4v5h-17.1v11.7h16.2v4.9h-16.2V229h18.2v5.2H310.8z M318.9,191.2l11.9-5.2l-2.8-4.7
		l-11,6.7L318.9,191.2z"/>
	<path class="st1" d="M345,200.3c-1.9,0-3.5-1.5-3.5-3.4c0-1.9,1.6-3.5,3.5-3.5c1.9,0,3.4,1.6,3.4,3.5
		C348.4,198.8,346.9,200.3,345,200.3 M342,206.1h5.8v28.2H342V206.1z"/>
	<path class="st1" d="M371.5,211.2c-1-0.4-1.3-0.4-1.9-0.4c-2.5,0-5.7,3.2-7.8,7.9v15.7h-5.8v-28.2h5.6v5.6c2.2-4,5.2-6.2,8.4-6.2
		c1,0,1.5,0.1,2.7,0.5L371.5,211.2z"/>
	<path class="st1" d="M388.1,235c-7.6,0-12.6-5.7-12.6-14.3c0-9,5.8-15.5,13.9-15.5c7.3,0,11.4,5,11.4,13.8v1.5h-19
		c0.1,6.2,2.7,9.6,7.3,9.6c1.7,0,3.6-0.4,5.4-1.3c1.2-0.5,2-1,4.3-2.5l2.5,3.4C397.5,232.9,392.4,235,388.1,235 M389,209.4
		c-3.5,0-6.2,2.8-7,7.3l13-0.3C394.8,211.9,392.6,209.4,389,209.4"/>
	<path class="st1" d="M426.8,234.9c-2.9,0-4.9-1.7-5.2-4.6c-3.4,3.1-6.2,4.4-9.3,4.4c-3.8,0-6.8-3-6.8-7c0-5.4,5.2-9.2,15.7-11.4
		V215c0-3.5-1-4.9-3.6-4.9c-2.4,0-5,1.1-8.9,3.8l-2.4-3.5c1.2-1,1.6-1.3,3.1-2.2c3.9-2.2,6.7-3.1,9.8-3.1c3,0,5.4,1.2,6.6,3.4
		c0.8,1.4,1.1,3,1.1,6.7v1.9v8.6v1.7c0,0.8,0.1,1.6,0.4,2.1c0.3,0.5,1,0.9,1.7,0.9c0.4,0,0.8,0,1.5-0.2l0.6,3.7
		C429.2,234.7,428.4,234.9,426.8,234.9 M421.2,220.3c-6.7,1.9-9.9,4-9.9,6.8c0,1.6,1.1,2.8,2.7,2.8c2.1,0,4.7-1.4,7.2-4V220.3z"/>
	<path class="st1" d="M454.1,234.3v-16.3c0-1.2-0.1-2.6-0.1-3.5c-0.2-2.6-1.6-4-3.8-4c-2.6,0-5.8,1.8-8.8,5v18.8h-5.8v-28.2h5.6v4.3
		c3.8-3.6,7-5.2,10.7-5.2c2.5,0,4.6,0.9,6,2.5c1.4,1.7,1.9,3.7,1.9,8.2v18.4H454.1z"/>
	<path class="st1" d="M484.2,234.3v-16.3c0-1.2-0.1-2.6-0.1-3.5c-0.2-2.6-1.6-4-3.8-4c-2.6,0-5.8,1.8-8.8,5v18.8h-5.8v-28.2h5.6v4.3
		c3.8-3.6,7-5.2,10.7-5.2c2.5,0,4.6,0.9,6,2.5c1.4,1.7,1.9,3.7,1.9,8.2v18.4H484.2z"/>
	<path class="st1" d="M43,305.7c-12.6,0-21.4-8.4-21.4-20.4c0-12.4,9.7-21.3,23-21.3c4.6,0,6.7,0.4,11.8,2.2l-1.6,4.7
		c-4.2-1.5-5.9-1.8-9.5-1.8c-10.3,0-17,6.3-17,15.9c0,9.3,6.4,15.6,15.7,15.6c2.6,0,3.8-0.2,6.7-1.1v-13.8h6.2v17.1
		C50.7,305.2,48.3,305.7,43,305.7"/>
	<path class="st1" d="M75.9,305.4c-7.7,0-13.3-6.1-13.3-14.6c0-8.8,5.9-15.2,14-15.2c7.7,0,13.1,6.1,13.1,14.6
		C89.8,299,83.9,305.4,75.9,305.4 M76,280.4c-4.3,0-7.4,4-7.4,9.5c0,6.2,3.1,10.5,7.7,10.5c4.4,0,7.4-3.8,7.4-9.7
		C83.7,284.6,80.7,280.4,76,280.4"/>
	<polygon class="st1" points="107.7,304.7 101.8,304.7 90.5,276.5 97,276.5 105.1,298 113.6,276.5 119.3,276.5 	"/>
	<path class="st1" d="M133.4,305.4c-7.6,0-12.6-5.7-12.6-14.3c0-9,5.8-15.5,13.9-15.5c7.3,0,11.4,5,11.4,13.8v1.5h-19
		c0.1,6.2,2.7,9.6,7.3,9.6c1.7,0,3.6-0.4,5.4-1.3c1.2-0.5,2-1,4.3-2.4l2.5,3.4C142.8,303.4,137.6,305.4,133.4,305.4 M134.3,279.8
		c-3.5,0-6.2,2.8-7,7.3l13-0.3C140.1,282.4,137.9,279.8,134.3,279.8"/>
	<path class="st1" d="M168,281.6c-1-0.3-1.3-0.4-1.9-0.4c-2.5,0-5.7,3.2-7.8,7.9v15.6h-5.8v-28.2h5.7v5.6c2.2-4,5.2-6.2,8.4-6.2
		c1,0,1.5,0.1,2.7,0.5L168,281.6z"/>
	<path class="st1" d="M192.1,304.7v-16.3c0-1.2-0.1-2.6-0.1-3.5c-0.2-2.6-1.6-4-3.8-4c-2.6,0-5.8,1.8-8.8,5v18.8h-5.8v-28.2h5.6v4.3
		c3.8-3.6,7-5.2,10.7-5.2c2.5,0,4.6,0.9,6,2.5c1.4,1.7,1.9,3.7,1.9,8.2v18.4H192.1z"/>
	<path class="st1" d="M239.7,304.7v-17.2c0-2.5,0-3.1-0.2-4c-0.3-1.6-1.4-2.6-3-2.6c-1.3,0-2.8,0.5-4.2,1.6c-1.6,1.1-3,2.3-3.8,3.4
		v18.8h-5.6v-16.8c0-1.9-0.1-3.2-0.2-4c-0.2-1.8-1.4-2.9-3.1-2.9c-2.3,0-5.6,2-8,4.9v18.8H206v-28.2h5.6v4.1
		c3.4-3.3,6.5-4.9,9.8-4.9c3.5,0,5.7,1.7,6.7,5.1c3.8-3.7,6.7-5.2,10.1-5.2c1.9,0,3.5,0.5,4.8,1.6c1.3,1.1,2,2.8,2.2,4.8
		c0.1,1.1,0.2,2.8,0.2,4.6v18.1H239.7z"/>
	<path class="st1" d="M264.4,305.4c-7.6,0-12.6-5.7-12.6-14.3c0-9,5.8-15.5,13.9-15.5c7.3,0,11.4,5,11.4,13.8v1.5h-19
		c0.1,6.2,2.7,9.6,7.3,9.6c1.7,0,3.6-0.4,5.4-1.3c1.2-0.5,2-1,4.3-2.4l2.5,3.4C273.8,303.4,268.7,305.4,264.4,305.4 M265.3,279.8
		c-3.5,0-6.2,2.8-7,7.3l13-0.3C271.1,282.4,268.9,279.8,265.3,279.8"/>
	<path class="st1" d="M302.1,304.7v-16.3c0-1.2-0.1-2.6-0.1-3.5c-0.2-2.6-1.6-4-3.8-4c-2.6,0-5.8,1.8-8.8,5v18.8h-5.8v-28.2h5.6v4.3
		c3.8-3.6,7-5.2,10.7-5.2c2.5,0,4.6,0.9,6,2.5c1.4,1.7,1.9,3.7,1.9,8.2v18.4H302.1z"/>
	<path class="st1" d="M324.5,305.3c-2.5,0-4.3-0.5-5.7-1.6c-0.8-0.6-1.4-1.5-1.7-2.3c-0.4-1.3-0.5-1.7-0.5-5v-15.9h-4.9v-4h4.9v-8.2
		h5.8v8.2h7.4v4h-7.4v14.9c0,1.6,0.1,2.4,0.2,3.1c0.4,1.4,1.7,2.2,4.1,2.2c0.9,0,1.7-0.1,3.1-0.4v4.2
		C327.4,305.2,326.2,305.3,324.5,305.3"/>
	<path class="st1" d="M363.3,305.4c-7.7,0-13.3-6.1-13.3-14.6c0-8.8,5.9-15.2,14-15.2c7.7,0,13.1,6.1,13.1,14.6
		C377.1,299,371.3,305.4,363.3,305.4 M363.4,280.4c-4.3,0-7.4,4-7.4,9.5c0,6.2,3.1,10.5,7.7,10.5c4.4,0,7.4-3.8,7.4-9.7
		C371.1,284.6,368,280.4,363.4,280.4"/>
	<path class="st1" d="M398.2,266.2c-1.7-0.4-2.3-0.4-3.5-0.4c-2.3,0-4.1,0.9-5.1,2.5c-0.6,1-0.8,2.5-0.8,5.2v3.1h7.4v4.1h-7.4v24.1
		H383v-24.1h-4.9v-4.1h4.9v-2.9c0-3.8,0.4-5.8,1.5-7.8c1.6-2.9,5.2-4.6,9.6-4.6c2,0,2.9,0.2,5.2,0.8L398.2,266.2z"/>
	<rect x="418.4" y="264.7" class="st1" width="6.4" height="40"/>
	<path class="st1" d="M446.9,281.6c-1-0.3-1.3-0.4-1.9-0.4c-2.5,0-5.7,3.2-7.8,7.9v15.6h-5.8v-28.2h5.6v5.6c2.2-4,5.2-6.2,8.4-6.2
		c1,0,1.5,0.1,2.7,0.5L446.9,281.6z"/>
	<path class="st1" d="M461.3,305.4c-7.6,0-12.6-5.7-12.6-14.3c0-9,5.8-15.5,13.9-15.5c7.3,0,11.4,5,11.4,13.8v1.5h-19
		c0.1,6.2,2.7,9.6,7.3,9.6c1.7,0,3.6-0.4,5.4-1.3c1.2-0.5,2-1,4.2-2.4l2.5,3.4C470.7,303.4,465.5,305.4,461.3,305.4 M462.2,279.8
		c-3.5,0-6.2,2.8-7,7.3l13-0.3C468,282.4,465.8,279.8,462.2,279.8"/>
	<rect x="479.6" y="261.9" class="st1" width="5.8" height="42.8"/>
	<path class="st1" d="M513.2,305.4c-2.9,0-4.9-1.7-5.2-4.6c-3.4,3.1-6.2,4.4-9.3,4.4c-3.8,0-6.8-3-6.8-7c0-5.4,5.2-9.2,15.7-11.4
		v-1.3c0-3.5-1-4.9-3.6-4.9c-2.4,0-5,1.1-8.9,3.8l-2.4-3.6c1.2-1,1.6-1.3,3.1-2.1c3.9-2.2,6.7-3.1,9.8-3.1c3.1,0,5.4,1.2,6.7,3.4
		c0.8,1.4,1.1,2.9,1.1,6.7v1.9v8.6v1.7c0,0.8,0.1,1.5,0.4,2.1c0.3,0.5,1,0.9,1.7,0.9c0.4,0,0.8-0.1,1.5-0.2l0.6,3.7
		C515.6,305.2,514.9,305.4,513.2,305.4 M507.7,290.8c-6.7,1.9-9.9,4-9.9,6.8c0,1.6,1.1,2.8,2.7,2.8c2.2,0,4.7-1.4,7.2-4V290.8z"/>
	<path class="st1" d="M540.5,304.7v-16.3c0-1.2-0.1-2.6-0.1-3.5c-0.2-2.6-1.5-4-3.8-4c-2.6,0-5.8,1.8-8.8,5v18.8h-5.8v-28.2h5.6v4.3
		c3.8-3.6,7-5.2,10.7-5.2c2.5,0,4.6,0.9,6,2.5c1.4,1.7,1.9,3.7,1.9,8.2v18.4H540.5z"/>
	<path class="st1" d="M571.9,304.7v-4.4c-0.5,0.5-1,1-1.2,1.3c-2.5,2.4-5.9,3.8-9.2,3.8c-6.5,0-11-5.7-11-14
		c0-9.3,5.2-15.8,12.5-15.8c3.6,0,6.2,1.4,8.8,4.7v-18.5h5.8v42.8H571.9z M571.8,286.6c-2.4-4-5.1-5.9-8.3-5.9c-4,0-7,4.2-7,9.8
		c0,5.8,2.8,9.7,6.9,9.7c3.1,0,5.9-1.7,8.3-5V286.6z"/>
</g>
</svg>
