<?xml version="1.0" encoding="utf-8"?>
<!-- Generator: Adobe Illustrator 21.1.0, SVG Export Plug-In . SVG Version: 6.00 Build 0)  -->
<svg version="1.1" id="Layer_1" xmlns="http://www.w3.org/2000/svg" xmlns:xlink="http://www.w3.org/1999/xlink" x="0px" y="0px"
	 viewBox="0 0 56.3 94.9" style="enable-background:new 0 0 56.3 94.9;" xml:space="preserve">
<path d="M21,80.6h2.6v-1.3H21V78h3.1v-1.3H19v6.5h5.4v-1.3H21V80.6z M27.3,76.7h-2v6.5h5v-1.3h-3V76.7z M14.3,79.3
	c0-0.4,0-1.1,0-1.1c0.7,0,1.8-0.2,1.8,0.5C16.1,79.5,14.8,79.2,14.3,79.3 M17.7,80.3c-0.2-0.1,0.2,0.1-0.5-0.2c0,0,0.9-0.5,0.9-1.6
	c0-1.1-0.8-1.9-2.2-1.9h-3.5v6.5h2v-2.2h1.3c1,0.2,0.4,0.9,0.7,2.2c0,0,1.3,0,2,0C18,82.8,18.6,80.9,17.7,80.3 M5.2,39.6l0,18.7
	l0.1,0c1-2.6,2.3-4.7,5-7.4l0,0l0-11.2c0.8-0.4,1.2-1.1,1.4-1.7c0.2-0.6,0.3-1.2,0.3-1.5c0-0.1,0-0.2,0-0.2l0-0.1l-1.7,0l0-7.7
	c0.8-0.4,1.2-1.1,1.4-1.7c0.2-0.6,0.3-1.2,0.3-1.5c0-0.1,0-0.2,0-0.2l0-0.1l-1.7,0v-9.9L8.1,2.8c0.3-0.1,0.5-0.2,0.6-0.2
	c0.1,0,0.1-0.1,0.1-0.1s0.1-0.1,0.1-0.2c0.1-0.2,0.2-0.4,0.2-0.4l0,0L8.9,1.8l0,0l0,0l0,0C8.8,1.9,8.4,2.1,8,2.1
	C7.8,2.1,7.6,2.1,7.5,2C7.3,1.9,7.2,1.7,7.2,1.4l0,0c0-0.3,0.1-0.4,0.2-0.6c0.1-0.1,0.3-0.2,0.5-0.2l0,0c0.2,0,0.3,0.1,0.4,0.2
	c0.1,0,0.1,0.1,0.2,0.1c0,0,0,0,0,0l0,0l0,0L9,1.1l0-0.2l0,0l0,0c0,0-0.1-0.2-0.3-0.4C8.5,0.3,8.2,0,7.8,0c0,0,0,0-0.1,0
	c-0.3,0-0.6,0.1-0.9,0.3C6.6,0.5,6.4,0.9,6.3,1.4c0,0,0,0.1,0,0.1c0,0.3,0.2,0.6,0.4,0.9c0.2,0.2,0.5,0.3,0.8,0.4L5.2,15.1l0,9.9
	H3.5l0,0.1v0c0,0.1,0,0.6,0.2,1.3c0.2,0.7,0.7,1.4,1.5,2l0,7.9H3.5v0.1v0c0,0,0,0.6,0.2,1.3C3.9,38.3,4.4,39.1,5.2,39.6 M4.4,69.9
	L4.4,69.9l-0.1,0c0,0-0.1,0-0.2,0c0,0-0.1,0-0.1-0.1c0,0-0.1-0.1-0.1-0.2v-7.3c0-0.1,0-0.1,0.1-0.1C4,62.1,4.1,62,4.2,62
	c0,0,0.1,0,0.1,0l0,0l0,0l0.1,0v-0.7H0v0.1V62h0.1h0c0,0,0.1,0,0.2,0c0,0,0.1,0,0.1,0.1c0,0,0.1,0.1,0.1,0.1l0,7.3
	c0,0,0,0.1-0.1,0.1c-0.1,0.1-0.2,0.1-0.3,0.2c0,0-0.1,0-0.1,0l0,0l0,0l-0.1,0v0.7h4.4L4.4,69.9z M52.5,64.2c0.4-0.4,1-0.6,1.6-0.6
	h2.1v-2.4h-2.7c-1,0-2.2,0.2-3.2,0.9c-1,0.7-1.8,1.9-1.9,3.8c0,0.1,0,0.1,0,0.1c0,1.4,0.5,2.6,1.4,3.3c0.9,0.8,2.1,1.2,3.5,1.2h2.9
	v-2.4h-0.1c-0.6,0-1,0-1.5,0c-0.2,0-0.3,0-0.5,0c-0.6-0.1-1.2-0.3-1.6-0.6c-0.4-0.4-0.7-0.9-0.7-1.6c0,0,0-0.1,0-0.1
	C51.9,65.1,52.1,64.6,52.5,64.2 M40.2,83.1h2v-2.4h2.2v-1.3h-2.2V78h3v-1.3h-5V83.1z M30.8,83.1h2v-6.5h-2V83.1z M36.2,80.6h2.6
	v-1.3h-2.6V78h3.1v-1.3h-5.2v6.5h5.4v-1.3h-3.3V80.6z M39.9,64.1c0.1,0.1,0.2,0.2,0.3,0.6c0,1.8,0,5.9,0,5.9v0.1h3.3v-6.2
	c0-0.7-0.2-1.5-0.6-2.1c-0.4-0.6-1-1.1-1.9-1.1c-1.4,0-2.9,0-4.3,0c-2.7,0-5,0-5.3,0h-0.1v9.4h3V64c2.5,0,4.5,0,5.3,0
	C39.6,64,39.7,64,39.9,64.1 M38.7,64.4h-3v6.3h3V64.4z M44.5,36.3c0,0,0,0.1,0,0.2c0,0.3,0,0.9,0.3,1.5c0.2,0.6,0.7,1.3,1.4,1.7
	l0,11.2l0,0c2.7,2.6,4.4,5.6,5,7.9l0.1,0l0-19.3c0.9-0.6,1.3-1.4,1.5-2c0.2-0.7,0.2-1.2,0.2-1.3v-0.1h-1.7l0-7.9
	c0.8-0.6,1.3-1.3,1.5-2c0.2-0.7,0.2-1.2,0.2-1.3v0l0-0.1h-1.7l0-9.9L49.1,2.8c0.3,0,0.5-0.1,0.7-0.3C49.9,2.4,50,2.4,50,2.3
	c0.1-0.1,0.1-0.1,0.1-0.2c0-0.1,0-0.2,0-0.2c0,0,0-0.1,0-0.1l0,0l-0.1,0l0,0l0,0l0,0c-0.1,0.1-0.5,0.3-0.8,0.3
	c-0.2,0-0.4-0.1-0.5-0.2c-0.1-0.1-0.2-0.3-0.2-0.5c0,0,0,0,0-0.1c0-0.2,0.1-0.4,0.2-0.5c0.1-0.1,0.2-0.2,0.3-0.2c0,0,0.1,0,0.1,0
	c0.2,0,0.4,0.1,0.6,0.2C49.6,0.9,49.7,1,49.8,1c0,0,0.1,0,0.1,0l0,0l0,0h0.3l0-0.2l0,0l0,0c0,0-0.1-0.2-0.3-0.4
	c-0.2-0.2-0.5-0.4-1-0.4c0,0,0,0-0.1,0c-0.4,0-0.7,0.1-0.9,0.4c-0.2,0.2-0.4,0.6-0.5,1c0,0.1,0,0.1,0,0.2c0,0.3,0.2,0.6,0.4,0.8
	c0.2,0.2,0.5,0.3,0.8,0.4L46.3,15v9.9l-1.7,0l0,0.1c0,0,0,0.1,0,0.2c0,0.3,0,0.9,0.3,1.5c0.2,0.6,0.7,1.3,1.4,1.7l0,7.7L44.5,36.3
	L44.5,36.3z M24.7,44.3c0.2,0.1,0.6,0.2,1.2,0.3c0.6,0.1,1.3,0.1,2,0.1c1,0,2,0,2.7-0.1c0.4,0,0.7-0.1,0.9-0.2
	c0.1,0,0.2-0.1,0.3-0.1c0.1,0,0.1-0.1,0.1-0.1c0-0.1-0.1-0.1-0.2-0.2c-0.3-0.2-1.2-0.4-2.8-0.7v-1.1l-0.3-0.6l0-0.5
	c0.2-0.1,0.3-0.2,0.3-0.3c0-0.1,0-0.1,0-0.1c0,0,0,0,0,0l0,0l-0.1,0l0,0l0,0c0,0,0,0-0.1,0c-0.1,0.1-0.3,0.2-0.5,0.2
	c-0.1,0-0.3,0-0.4-0.1c-0.1-0.1-0.2-0.2-0.2-0.4v0c0-0.4,0.2-0.5,0.5-0.5l0,0c0.1,0,0.3,0.1,0.4,0.2c0.1,0,0.1,0.1,0.1,0.1
	c0,0,0.1,0.1,0.1,0.1l0,0H29l0-0.1l0,0l0,0c0,0-0.3-0.6-0.8-0.6l0,0c-0.4,0-1,0.4-1,0.9c0,0.4,0.2,0.7,0.5,0.8v0.5l-0.3,0.6v1.1
	c-1,0.2-1.7,0.4-2.2,0.5c-0.2,0.1-0.4,0.1-0.5,0.2c-0.1,0.1-0.2,0.1-0.2,0.2C24.6,44.2,24.6,44.3,24.7,44.3 M44.1,69.9
	c0,0-0.1,0-0.1,0l0,0l0,0l-0.1,0v0.7h4.4l0-0.7l-0.1,0h0c0,0-0.1,0-0.2-0.1c-0.1,0-0.1-0.1-0.1-0.1c0,0-0.1-0.1-0.1-0.2v-7.3
	c0-0.1,0-0.1,0.1-0.1c0.1-0.1,0.2-0.1,0.2-0.1c0,0,0.1,0,0.1,0l0,0l0,0l0.1,0v-0.7h-4.4V62H44h0c0,0,0.1,0,0.2,0c0,0,0.1,0,0.1,0.1
	c0,0,0.1,0.1,0.1,0.1l0,7.3c0,0,0,0.1-0.1,0.1C44.3,69.8,44.2,69.8,44.1,69.9 M8.5,68c-0.2,0.1-0.5,0.2-0.9,0.2H5.2l0,2.4h4.2
	c0.7,0,1.4-0.3,2-0.8c0.5-0.5,0.9-1.2,0.9-1.9c0,0,0-0.1,0-0.1c0-0.7-0.3-1.3-0.6-1.8c-0.5-0.8-1.3-1.6-2-2.3
	c-0.3-0.4-0.6-0.7-0.8-1.1c-0.2-0.4-0.3-0.8-0.3-1.1c0,0,0-0.1,0-0.1l0-0.1h-3l0,0.1c0,0.2,0,0.4,0,0.5s0,0.2,0,0.2
	c0,0.1,0,0.1,0,0.2c0,0.4,0.2,0.9,0.5,1.4c0.5,0.8,1.1,1.6,1.7,2.2c0.3,0.3,0.5,0.6,0.7,0.9c0.1,0.1,0.2,0.2,0.2,0.3
	c0.1,0.1,0.1,0.2,0.1,0.2c0,0,0,0,0,0.1C8.8,67.7,8.7,67.9,8.5,68 M12.6,61.2v9.4h7.2v-2.4h-4.1v-7H12.6z M25.3,64.6
	c0.2,0.7,0.8,2.4,1,2.9h-1.8C24.6,67.1,25.1,65.4,25.3,64.6 M20,70.4v0.3l3.6,0l0-0.1v0c0,0,0-0.2,0.1-0.5h3.4
	c0,0.1,0.1,0.3,0.2,0.5l0,0l3.8,0v-0.3l-3.5-9.1h-3.4l0.1,0.1c0.3,0.7,0.4,1,0.5,1.2c0.1,0.2,0.2,0.4,0.4,0.9h-2.5L20,70.4z
	 M43.6,87.3c-2.6,2.4-5.7,4.2-9.2,5.2c0.7-0.5,1.4-1.2,2-1.9c1.4-1.5,2.6-3.5,3.6-5.7l-1.4-0.6c-1.2,2.8-2.8,5.1-4.6,6.6
	c-0.9,0.8-1.9,1.3-2.9,1.7c-0.7,0.3-1.5,0.5-2.3,0.5l0-8.7l-1.5,0l0,8.8c-0.9-0.1-1.7-0.3-2.6-0.6c-1.5-0.6-2.9-1.6-4.2-3.1
	c-1.3-1.4-2.4-3.2-3.4-5.3l-1.4,0.6c1.3,3,3,5.4,5.1,7.1c0.2,0.1,0.3,0.3,0.5,0.4c-3.3-1-6.4-2.7-8.9-5C8.7,83.8,6,78.9,5.2,73.5
	l7.8,0c0,0.1,0,0.2,0,0.4c0,0.5,0,1.1,0.2,2l1.4-0.3c-0.2-0.7-0.2-1.2-0.2-1.6c0-0.1,0-0.2,0-0.4l12.8,0v2.2h1.5v-2.2l12.7,0
	c0,0.3,0,0.5-0.1,0.7c0,0.3-0.1,0.6-0.3,1.1l1.4,0.5c0.2-0.5,0.3-1,0.4-1.4c0-0.3,0.1-0.6,0.1-0.9l7.8,0
	C50.1,78.9,47.4,83.8,43.6,87.3 M3.5,71.9l0.1,0.9c0.6,6.2,3.6,11.8,8,15.8c4.4,4,10.2,6.4,16.6,6.4c6.4,0,12.1-2.5,16.5-6.5
	c4.3-4,7.2-9.5,7.9-15.7l0.1-0.9l-0.9,0L3.5,71.9z M6.1,59.6l-0.1,0.1h44.3l0-0.1c-2.1-5.8-6.4-9.3-10.2-11.5
	c-1.9-1.1-3.7-1.8-5-2.3c-0.7-0.2-1.2-0.4-1.6-0.5c-0.2-0.1-0.4-0.1-0.5-0.1c-0.1,0-0.1,0-0.1,0c0,0-0.1,0-0.1,0l-0.1,0.2
	c5.1,2.5,8.5,8,9.2,12.8h-0.9c-0.3-0.5-0.6-1.4-1-2.4c-0.6-1.5-1.4-3.5-3-5.4s-3.9-3.8-7.4-5.2l0,0h-1.2v13h-1.1V45.3h-1.2l0,0
	c-4.3,1.4-6.8,4.3-8.3,7c-0.8,1.3-1.3,2.6-1.6,3.6c-0.2,0.5-0.3,0.9-0.5,1.3c-0.1,0.3-0.2,0.6-0.3,0.7l-1.3,0c1.4-5,4.1-10,8.9-12.6
	L23,45.1c-4.3,1.7-7.7,3.5-10.5,5.8C9.7,53.2,7.7,56,6.1,59.6"/>
</svg>
