<?xml version="1.0" encoding="utf-8"?>
<!-- Generator: Adobe Illustrator 21.0.0, SVG Export Plug-In . SVG Version: 6.00 Build 0)  -->
<svg version="1.1" id="Layer_1" xmlns="http://www.w3.org/2000/svg" xmlns:xlink="http://www.w3.org/1999/xlink" x="0px" y="0px"
	 viewBox="0 0 368 181.7" style="enable-background:new 0 0 368 181.7;" xml:space="preserve">
<style type="text/css">
	.st0{fill:#40807E;}
</style>
<g>
	<rect x="139.6" y="1.3" class="st0" width="15.9" height="91.3"/>
	<polygon class="st0" points="55.5,92.7 26.4,45.3 51.3,1.3 35.5,1.3 16.2,35.6 16.2,1.3 0.6,1.3 0.6,92.7 16.2,92.7 16.2,57.1 
		38.5,92.7 	"/>
	<path class="st0" d="M110.8,4.4C106.1,0.8,100.4,0,91.2,0C82,0,76.4,0.8,71.7,4.4c-4.8,3.7-5.3,7.6-5.3,12.9v59.3
		c0,5.3,0.5,9.3,5.3,12.9C76.4,93.2,82,94,91.2,94c9.2,0,14.8-0.8,19.6-4.4c4.7-3.7,5.3-7.6,5.3-12.9V17.4
		C116.1,12.1,115.6,8.1,110.8,4.4 M100.7,78.2c0,6.2-2.9,8.7-9.4,8.7c-6.5,0-9.4-2.5-9.4-8.7V15.8c0-6.2,2.9-8.7,9.4-8.7
		c6.5,0,9.4,2.5,9.4,8.7V78.2z"/>
	<path class="st0" d="M209.9,80.1c0,3.7-2,6.8-7.4,6.8c-5.2,0-8-2.4-8-6.9V13.9c0-4.4,2.2-6.8,8-6.8c5.1,0,7.4,2.4,7.4,6.8v10.5
		h16.3v-6.7c0-5.3-0.5-9.7-5.3-13.3c-4.4-3.4-9.4-4.4-17.9-4.4c-8.8,0-14,0.8-18.8,4.4c-4.8,3.7-5.3,7.6-5.3,12.9v59.3
		c0,5.3,0.5,9.3,5.3,12.9c4.7,3.7,9.9,4.4,18.8,4.4c8.5,0,13.1-0.8,17.9-4.4c4.8-3.7,5.3-8,5.3-13.3v-8.5h-16.3V80.1z"/>
	<path class="st0" d="M319.8,50.7c0,0,5-0.3,9.6,2c4.6,2.2,7.2,6.2,7.2,6.2s-5,0.3-9.6-1.9C322.3,54.7,319.8,50.7,319.8,50.7"/>
	<path class="st0" d="M289.4,46.6c0,0,5.1,0.2,10-2c4.9-2.2,7.6-6.1,7.6-6.1s-5.1-0.2-10,2C292.1,42.7,289.4,46.6,289.4,46.6"/>
	<path class="st0" d="M290.2,48c0,0,4.8-0.7,9.5,1c4.6,1.7,7.3,5.2,7.3,5.2s-4.8,0.7-9.5-1C292.9,51.4,290.2,48,290.2,48"/>
	<path class="st0" d="M305.5,45.8c0,0,4.8,1.2,10,0c5.2-1.2,8.9-4.4,8.9-4.4s-4.8-1.2-10,0C309.2,42.6,305.5,45.8,305.5,45.8"/>
	<path class="st0" d="M305.7,47.1c0,0,1.4,4.2,5.2,7.1c3.7,2.9,8.4,3.5,8.4,3.5s-1.5-4.2-5.2-7.1C310.4,47.7,305.7,47.1,305.7,47.1"
		/>
	<path class="st0" d="M319.9,49.4c0,0,5.2,0.9,10.5-0.6c5.3-1.6,8.8-5,8.8-5s-5.2-0.9-10.5,0.6C323.3,45.9,319.9,49.4,319.9,49.4"/>
	<path class="st0" d="M338.7,50.2c0,0,4.5-0.9,8.1-3.9c3.6-3,5-6.8,5-6.8s-4.5,0.9-8.1,3.9C340.1,46.3,338.7,50.2,338.7,50.2"/>
	<path class="st0" d="M351,47.8c0,0,5.3-0.2,10-3.2c4.7-3,7-7.6,7-7.6s-5.3,0.5-10,3.5C353.3,43.5,351,47.8,351,47.8"/>
	<path class="st0" d="M337.1,52.3c0,0,3.8,2.6,8.6,3c4.8,0.4,8.9-1.5,8.9-1.5s-3.8-2.6-8.6-3C341.1,50.5,337.1,52.3,337.1,52.3"/>
	<path class="st0" d="M288.4,48.6c-5.7,1.3-10.4,3.4-14.3,5.8l-0.6-3.3h0c-3.9,1.8-8.3,4.3-12.5,7.8l6.8-35.1h0.5l-0.1,0.2l5.3,27.2
		c7.7-3.5,13.8-4.2,14.6-4.3l-8.8-45.3h-22.5l-17.7,91.1h15.4l3.8-19.6l0.2-0.6c0.8-2.1,4.8-11.3,15.7-18l7.4,38.4h15.4L288.4,48.6z
		"/>
	<path d="M0,138c1.5-0.1,2.4-0.3,2.7-0.7c0.4-0.4,0.5-1.3,0.5-2.7V120c0-1.2-0.2-2-0.6-2.4c-0.4-0.4-1.3-0.6-2.7-0.7v-0.6h10.2v0.6
		c-1.4,0.1-2.3,0.3-2.7,0.7c-0.4,0.4-0.6,1.2-0.6,2.4v6.9c2.2-1.8,4-3.3,5.4-4.5c2.5-2.2,3.8-3.7,3.8-4.3c0-0.5-0.2-0.7-0.6-0.9
		c-0.4-0.1-1-0.2-1.8-0.2v-0.6h9.4v0.6c-1.2,0.1-2.1,0.3-2.7,0.6c-0.7,0.3-1.6,1-2.8,2l-7,6.1l8.6,8.7c1.6,1.6,2.6,2.5,3.2,2.9
		c0.6,0.4,1.4,0.7,2.5,0.8v0.6h-11V138c1,0,1.7-0.1,2-0.2c0.4-0.1,0.5-0.3,0.5-0.7c0-0.2-0.1-0.5-0.3-0.9c-0.2-0.4-0.6-0.8-1.1-1.3
		l-6.9-7l-1.1,1v6.1c0,1.2,0.2,2,0.6,2.4c0.4,0.3,1.3,0.5,2.7,0.7v0.6H0V138z"/>
	<path d="M32.3,124.1c1.7,0,3,0.8,3.9,2.5c0.9,1.7,1.4,3.5,1.4,5.4c0,1.8-0.4,3.3-1.1,4.4c-0.7,1.1-1.7,1.7-3.1,1.7
		c-1.7,0-3-0.8-4-2.5c-0.9-1.7-1.4-3.5-1.4-5.4c0-2.4,0.6-4.2,1.8-5.1C30.5,124.4,31.3,124.1,32.3,124.1 M24.8,130.9
		c0,2.3,0.8,4.3,2.3,5.8c1.6,1.5,3.5,2.3,5.7,2.3c2.4,0,4.2-0.8,5.7-2.4c1.5-1.6,2.2-3.5,2.2-5.7c0-2.4-0.8-4.3-2.3-5.7
		c-1.5-1.4-3.5-2.1-5.8-2.1c-2.3,0-4.2,0.7-5.7,2.2C25.6,126.9,24.8,128.8,24.8,130.9"/>
	<path d="M42.1,138c1.1-0.1,1.8-0.3,2.2-0.5c0.3-0.3,0.5-0.8,0.5-1.7v-7.4c0-1.1-0.1-1.9-0.3-2.3c-0.2-0.5-0.6-0.7-1.2-0.7
		c-0.1,0-0.3,0-0.5,0c-0.2,0-0.4,0.1-0.6,0.1V125c0.7-0.2,1.4-0.5,2.1-0.7c0.7-0.2,1.2-0.4,1.4-0.5c0.6-0.2,1.2-0.4,1.8-0.7
		c0.1,0,0.1,0,0.1,0.1c0,0.1,0,0.2,0,0.3v2.7c0.7-1,1.5-1.7,2.2-2.3c0.7-0.6,1.4-0.8,2.2-0.8c0.6,0,1.1,0.2,1.5,0.5
		c0.4,0.3,0.6,0.7,0.6,1.2c0,0.5-0.2,0.8-0.4,1.1c-0.3,0.3-0.6,0.5-1.1,0.5c-0.4,0-0.9-0.2-1.3-0.6c-0.5-0.4-0.8-0.6-1.1-0.6
		c-0.4,0-0.9,0.3-1.5,0.9c-0.6,0.6-0.9,1.3-0.9,1.9v7.4c0,0.9,0.2,1.6,0.7,1.9c0.5,0.4,1.2,0.5,2.3,0.5v0.5h-8.6V138z"/>
	<path d="M62.5,124.4c1.3,0,2.3,0.5,2.9,1.5c0.3,0.5,0.5,1.4,0.7,2.5h-7.3c0.2-0.9,0.4-1.7,0.8-2.3
		C60.2,124.9,61.2,124.4,62.5,124.4 M63.5,123.2c-2.2,0-4,0.8-5.4,2.4c-1.4,1.6-2.1,3.5-2.1,5.7c0,2,0.6,3.8,1.8,5.4
		c1.2,1.6,2.9,2.3,5.1,2.3c1.9,0,3.5-0.6,4.8-1.8c1.3-1.2,2.2-2.5,2.7-3.9l-0.6-0.2c-0.7,1.1-1.5,2-2.3,2.6
		c-0.8,0.6-1.9,0.9-3.1,0.9c-1.5,0-2.8-0.6-3.9-1.7c-1.1-1.2-1.7-3-1.8-5.5h11.1c0-2-0.6-3.5-1.9-4.6
		C66.6,123.7,65.2,123.2,63.5,123.2"/>
	<path d="M82.3,134.7c0,0.6-0.4,1.1-1.1,1.5c-0.7,0.4-1.4,0.6-2.2,0.6c-0.6,0-1.1-0.1-1.5-0.5c-0.7-0.5-1.1-1.2-1.1-2.2
		c0-1.2,0.8-2.4,2.5-3.3c0.9-0.5,2-1,3.3-1.4V134.7z M73.3,135.3c0,1,0.4,1.8,1.1,2.5c0.7,0.7,1.6,1,2.6,1c1,0,2-0.3,3-0.9
		c0.6-0.3,1.4-0.9,2.3-1.6c0,0.7,0.2,1.3,0.6,1.7c0.4,0.5,0.9,0.7,1.7,0.7c0.7,0,1.4-0.2,2-0.6c0.4-0.3,0.8-0.6,1.2-1v-0.9
		c-0.4,0.3-0.7,0.5-0.9,0.6c-0.2,0.1-0.4,0.1-0.7,0.1c-0.5,0-0.8-0.2-1-0.7c-0.1-0.3-0.1-0.7-0.1-1.3v-6.6c0-1.4-0.2-2.5-0.6-3.3
		c-0.8-1.4-2.4-2.1-4.6-2.1c-2,0-3.4,0.4-4.4,1.2c-1,0.9-1.5,1.7-1.5,2.4c0,0.4,0.1,0.7,0.4,1.1c0.3,0.3,0.7,0.5,1.2,0.5
		c0.3,0,0.6-0.1,0.9-0.2c0.4-0.2,0.7-0.7,0.7-1.3c0-0.1,0-0.3-0.1-0.6c-0.1-0.3-0.1-0.5-0.1-0.7c0-0.5,0.3-0.9,0.8-1.2
		c0.5-0.3,1.1-0.4,1.7-0.4c1.3,0,2.1,0.4,2.5,1.1c0.2,0.4,0.4,1.2,0.4,2.3v1.4c-3.2,1.1-5.4,2-6.4,2.7
		C74.2,132.4,73.3,133.7,73.3,135.3"/>
	<path d="M101.5,137.9c1.5-0.1,2.4-0.3,2.8-0.6c0.4-0.3,0.7-1.1,0.7-2.4v-15c0-1.2-0.2-2-0.7-2.4c-0.4-0.4-1.4-0.6-2.8-0.6v-0.6
		h10.6v0.6c-1.5,0.1-2.4,0.3-2.8,0.6c-0.4,0.3-0.6,1.1-0.6,2.4v15c0,1.3,0.2,2.1,0.6,2.4c0.4,0.3,1.4,0.5,2.8,0.6v0.6h-10.6V137.9z"
		/>
	<path d="M114.3,138.1c0.8-0.1,1.4-0.3,1.7-0.6c0.3-0.3,0.5-0.9,0.5-1.9v-8.4c0-0.7-0.1-1.2-0.2-1.5c-0.2-0.4-0.7-0.6-1.4-0.6
		c-0.1,0-0.2,0-0.3,0c-0.1,0-0.2,0-0.4,0.1v-0.6c0.5-0.1,1.6-0.5,3.4-1l1.7-0.5c0,0,0.1,0,0.1,0.1c0,0,0,0.1,0,0.2v2.4
		c1.1-0.9,1.9-1.6,2.5-1.9c0.9-0.5,1.9-0.8,2.8-0.8c0.8,0,1.5,0.2,2.2,0.6c1.3,0.8,1.9,2.3,1.9,4.4v7.6c0,0.8,0.2,1.4,0.5,1.7
		c0.3,0.3,0.9,0.5,1.7,0.5v0.5h-7.5v-0.5c0.9-0.1,1.5-0.3,1.8-0.7c0.3-0.3,0.5-1.1,0.5-2.2v-7c0-0.9-0.2-1.7-0.6-2.3
		c-0.4-0.6-1.1-0.9-2.1-0.9c-0.7,0-1.4,0.2-2.1,0.6c-0.4,0.2-0.9,0.7-1.5,1.2v9.2c0,0.8,0.2,1.3,0.6,1.6c0.4,0.3,1,0.4,1.8,0.4v0.5
		h-7.7V138.1z"/>
	<path d="M141.2,123.4v1.1h-3.6l0,9.4c0,0.8,0.1,1.5,0.2,1.9c0.3,0.8,0.8,1.1,1.7,1.1c0.4,0,0.8-0.1,1.1-0.3
		c0.3-0.2,0.7-0.5,1.1-0.9l0.4,0.4l-0.4,0.5c-0.6,0.8-1.3,1.3-1.9,1.6c-0.7,0.3-1.3,0.5-2,0.5c-1.4,0-2.3-0.6-2.8-1.7
		c-0.3-0.6-0.4-1.5-0.4-2.6v-10h-1.9c0,0-0.1-0.1-0.1-0.1c0,0,0-0.1,0-0.1c0-0.1,0-0.2,0.1-0.2c0.1-0.1,0.2-0.2,0.5-0.4
		c0.8-0.6,1.4-1.2,1.7-1.5c0.3-0.4,1.2-1.4,2.5-3c0.2,0,0.2,0,0.3,0c0,0,0,0.1,0,0.2v4H141.2z"/>
	<path d="M150.8,124.4c1.3,0,2.3,0.5,2.8,1.5c0.3,0.5,0.6,1.4,0.7,2.5H147c0.2-0.9,0.4-1.7,0.8-2.3
		C148.5,124.9,149.5,124.4,150.8,124.4 M151.8,123.2c-2.2,0-4,0.8-5.4,2.4c-1.4,1.6-2.1,3.5-2.1,5.7c0,2,0.6,3.8,1.8,5.4
		c1.2,1.6,2.9,2.3,5.1,2.3c1.9,0,3.5-0.6,4.8-1.8c1.3-1.2,2.2-2.5,2.7-3.9l-0.6-0.2c-0.7,1.1-1.5,2-2.3,2.6
		c-0.8,0.6-1.9,0.9-3.1,0.9c-1.5,0-2.8-0.6-3.9-1.7c-1.1-1.2-1.7-3-1.8-5.5H158c0-2-0.6-3.5-1.9-4.6
		C154.9,123.7,153.4,123.2,151.8,123.2"/>
	<path d="M160.7,138c1.1-0.1,1.8-0.3,2.1-0.5c0.4-0.3,0.5-0.8,0.5-1.7v-7.4c0-1.1-0.1-1.9-0.3-2.3c-0.2-0.5-0.6-0.7-1.2-0.7
		c-0.1,0-0.3,0-0.5,0c-0.2,0-0.4,0.1-0.6,0.1V125c0.7-0.2,1.4-0.5,2.1-0.7c0.7-0.2,1.2-0.4,1.5-0.5c0.6-0.2,1.2-0.4,1.8-0.7
		c0.1,0,0.1,0,0.2,0.1c0,0.1,0,0.2,0,0.3v2.7c0.7-1,1.5-1.7,2.2-2.3c0.7-0.6,1.4-0.8,2.2-0.8c0.6,0,1.1,0.2,1.5,0.5
		c0.4,0.3,0.6,0.7,0.6,1.2c0,0.5-0.1,0.8-0.4,1.1c-0.3,0.3-0.6,0.5-1.1,0.5c-0.5,0-0.9-0.2-1.3-0.6c-0.5-0.4-0.8-0.6-1.1-0.6
		c-0.4,0-0.9,0.3-1.5,0.9c-0.6,0.6-0.9,1.3-0.9,1.9v7.4c0,0.9,0.2,1.6,0.7,1.9c0.5,0.4,1.2,0.5,2.3,0.5v0.5h-8.7V138z"/>
	<path d="M175.7,138.1c0.8-0.1,1.4-0.3,1.7-0.6c0.3-0.3,0.5-0.9,0.5-1.9v-8.4c0-0.7-0.1-1.2-0.2-1.5c-0.2-0.4-0.7-0.6-1.4-0.6
		c-0.1,0-0.2,0-0.3,0c-0.1,0-0.2,0-0.4,0.1v-0.6c0.5-0.1,1.6-0.5,3.4-1l1.7-0.5c0,0,0.1,0,0.1,0.1c0,0,0,0.1,0,0.2v2.4
		c1.1-0.9,1.9-1.6,2.5-1.9c0.9-0.5,1.9-0.8,2.8-0.8c0.8,0,1.5,0.2,2.2,0.6c1.3,0.8,1.9,2.3,1.9,4.4v7.6c0,0.8,0.2,1.4,0.5,1.7
		c0.3,0.3,0.9,0.5,1.7,0.5v0.5H185v-0.5c0.9-0.1,1.5-0.3,1.8-0.7c0.4-0.3,0.5-1.1,0.5-2.2v-7c0-0.9-0.2-1.7-0.6-2.3
		c-0.4-0.6-1.1-0.9-2.1-0.9c-0.7,0-1.4,0.2-2.1,0.6c-0.4,0.2-0.9,0.7-1.5,1.2v9.2c0,0.8,0.2,1.3,0.6,1.6c0.4,0.3,1,0.4,1.8,0.4v0.5
		h-7.7V138.1z"/>
	<path d="M205.1,134.7c0,0.6-0.4,1.1-1.1,1.5c-0.7,0.4-1.4,0.6-2.2,0.6c-0.6,0-1.1-0.1-1.5-0.5c-0.7-0.5-1.1-1.2-1.1-2.2
		c0-1.2,0.8-2.4,2.5-3.3c0.9-0.5,2-1,3.3-1.4V134.7z M196.1,135.3c0,1,0.4,1.8,1.1,2.5c0.7,0.7,1.6,1,2.6,1c0.9,0,2-0.3,3-0.9
		c0.6-0.3,1.4-0.9,2.3-1.6c0,0.7,0.2,1.3,0.6,1.7c0.4,0.5,0.9,0.7,1.7,0.7c0.7,0,1.4-0.2,2-0.6c0.4-0.3,0.8-0.6,1.2-1v-0.9
		c-0.4,0.3-0.7,0.5-0.9,0.6c-0.2,0.1-0.4,0.1-0.7,0.1c-0.5,0-0.8-0.2-0.9-0.7c-0.1-0.3-0.1-0.7-0.1-1.3v-6.6c0-1.4-0.2-2.5-0.7-3.3
		c-0.8-1.4-2.3-2.1-4.6-2.1c-2,0-3.4,0.4-4.4,1.2c-1,0.9-1.5,1.7-1.5,2.4c0,0.4,0.2,0.7,0.4,1.1c0.3,0.3,0.7,0.5,1.2,0.5
		c0.3,0,0.6-0.1,0.9-0.2c0.4-0.2,0.7-0.7,0.7-1.3c0-0.1,0-0.3-0.1-0.6c-0.1-0.3-0.1-0.5-0.1-0.7c0-0.5,0.3-0.9,0.8-1.2
		c0.5-0.3,1.1-0.4,1.7-0.4c1.3,0,2.1,0.4,2.5,1.1c0.2,0.4,0.4,1.2,0.4,2.3v1.4c-3.2,1.1-5.4,2-6.5,2.7
		C197,132.4,196.1,133.7,196.1,135.3"/>
	<path d="M220.9,123.4v1.1h-3.6l0,9.4c0,0.8,0.1,1.5,0.2,1.9c0.3,0.8,0.8,1.1,1.7,1.1c0.4,0,0.8-0.1,1.1-0.3
		c0.3-0.2,0.7-0.5,1.1-0.9l0.5,0.4l-0.4,0.5c-0.6,0.8-1.2,1.3-1.9,1.6c-0.7,0.3-1.3,0.5-2,0.5c-1.4,0-2.3-0.6-2.8-1.7
		c-0.3-0.6-0.4-1.5-0.4-2.6v-10h-1.9c0,0-0.1-0.1-0.1-0.1c0,0,0-0.1,0-0.1c0-0.1,0-0.2,0.1-0.2c0.1-0.1,0.2-0.2,0.5-0.4
		c0.8-0.6,1.4-1.2,1.7-1.5c0.4-0.4,1.2-1.4,2.5-3c0.2,0,0.2,0,0.3,0c0,0,0,0.1,0,0.2v4H220.9z"/>
	<path d="M226.6,116.1c0.4-0.3,0.8-0.5,1.3-0.5c0.5,0,0.9,0.2,1.3,0.5c0.4,0.3,0.5,0.7,0.5,1.2c0,0.5-0.2,0.9-0.5,1.2
		c-0.4,0.3-0.8,0.5-1.3,0.5c-0.5,0-1-0.2-1.3-0.5c-0.3-0.3-0.5-0.7-0.5-1.2C226.1,116.9,226.3,116.4,226.6,116.1 M223.9,138.1
		c1.3-0.1,2.1-0.3,2.4-0.6c0.3-0.3,0.5-1.1,0.5-2.4v-7.8c0-0.7-0.1-1.2-0.2-1.5c-0.2-0.4-0.6-0.7-1.1-0.7c-0.1,0-0.3,0-0.4,0
		c-0.1,0-0.5,0.1-1.1,0.3V125l0.7-0.2c2.1-0.6,3.5-1.1,4.3-1.4c0.3-0.1,0.5-0.2,0.6-0.2c0,0.1,0,0.2,0,0.2v11.8c0,1.3,0.2,2,0.5,2.4
		c0.3,0.3,1.1,0.5,2.2,0.6v0.5h-8.6V138.1z"/>
	<path d="M242.2,124.1c1.7,0,3,0.8,3.9,2.5c0.9,1.7,1.4,3.5,1.4,5.4c0,1.8-0.4,3.3-1.1,4.4c-0.7,1.1-1.7,1.7-3,1.7
		c-1.7,0-3-0.8-4-2.5c-0.9-1.7-1.4-3.5-1.4-5.4c0-2.4,0.6-4.2,1.8-5.1C240.4,124.4,241.2,124.1,242.2,124.1 M234.7,130.9
		c0,2.3,0.8,4.3,2.3,5.8c1.6,1.5,3.5,2.3,5.7,2.3c2.3,0,4.2-0.8,5.7-2.4c1.5-1.6,2.2-3.5,2.2-5.7c0-2.4-0.8-4.3-2.3-5.7
		c-1.5-1.4-3.5-2.1-5.8-2.1c-2.3,0-4.2,0.7-5.7,2.2C235.5,126.9,234.7,128.8,234.7,130.9"/>
	<path d="M252.9,138.1c0.8-0.1,1.4-0.3,1.7-0.6c0.3-0.3,0.5-0.9,0.5-1.9v-8.4c0-0.7-0.1-1.2-0.2-1.5c-0.2-0.4-0.7-0.6-1.4-0.6
		c-0.1,0-0.2,0-0.3,0c-0.1,0-0.2,0-0.4,0.1v-0.6c0.5-0.1,1.6-0.5,3.4-1l1.6-0.5c0.1,0,0.1,0,0.2,0.1c0,0,0,0.1,0,0.2v2.4
		c1.1-0.9,1.9-1.6,2.5-1.9c0.9-0.5,1.9-0.8,2.8-0.8c0.8,0,1.5,0.2,2.2,0.6c1.3,0.8,1.9,2.3,1.9,4.4v7.6c0,0.8,0.2,1.4,0.5,1.7
		c0.3,0.3,0.9,0.5,1.7,0.5v0.5h-7.5v-0.5c0.9-0.1,1.5-0.3,1.8-0.7c0.3-0.3,0.5-1.1,0.5-2.2v-7c0-0.9-0.2-1.7-0.6-2.3
		c-0.4-0.6-1.1-0.9-2.1-0.9c-0.7,0-1.4,0.2-2.1,0.6c-0.4,0.2-0.9,0.7-1.5,1.2v9.2c0,0.8,0.2,1.3,0.6,1.6c0.4,0.3,1,0.4,1.8,0.4v0.5
		h-7.7V138.1z"/>
	<path d="M282.5,134.7c0,0.6-0.4,1.1-1.1,1.5c-0.7,0.4-1.4,0.6-2.2,0.6c-0.6,0-1.1-0.1-1.5-0.5c-0.7-0.5-1.1-1.2-1.1-2.2
		c0-1.2,0.8-2.4,2.5-3.3c0.9-0.5,2-1,3.3-1.4V134.7z M273.5,135.3c0,1,0.4,1.8,1.1,2.5c0.7,0.7,1.6,1,2.6,1c0.9,0,2-0.3,3-0.9
		c0.6-0.3,1.4-0.9,2.3-1.6c0,0.7,0.2,1.3,0.6,1.7c0.4,0.5,0.9,0.7,1.7,0.7c0.7,0,1.3-0.2,2-0.6c0.4-0.3,0.8-0.6,1.2-1v-0.9
		c-0.4,0.3-0.7,0.5-0.9,0.6c-0.2,0.1-0.4,0.1-0.7,0.1c-0.5,0-0.8-0.2-1-0.7c-0.1-0.3-0.1-0.7-0.1-1.3v-6.6c0-1.4-0.2-2.5-0.6-3.3
		c-0.8-1.4-2.3-2.1-4.6-2.1c-2,0-3.4,0.4-4.4,1.2c-1,0.9-1.5,1.7-1.5,2.4c0,0.4,0.1,0.7,0.4,1.1c0.3,0.3,0.7,0.5,1.2,0.5
		c0.3,0,0.6-0.1,0.9-0.2c0.4-0.2,0.6-0.7,0.6-1.3c0-0.1,0-0.3-0.1-0.6c-0.1-0.3-0.1-0.5-0.1-0.7c0-0.5,0.3-0.9,0.8-1.2
		c0.5-0.3,1.1-0.4,1.7-0.4c1.3,0,2.1,0.4,2.5,1.1c0.2,0.4,0.4,1.2,0.4,2.3v1.4c-3.2,1.1-5.4,2-6.4,2.7
		C274.3,132.4,273.5,133.7,273.5,135.3"/>
	<path d="M289.2,138.1c1.1-0.1,1.8-0.3,2.2-0.6c0.4-0.3,0.6-0.9,0.6-1.8v-16c0-0.7-0.1-1.2-0.2-1.5c-0.2-0.5-0.7-0.7-1.4-0.7
		c-0.2,0-0.3,0-0.5,0c-0.2,0-0.4,0.1-0.7,0.2v-0.5c1.6-0.4,3.5-0.9,5.7-1.6c0.1,0,0.1,0,0.2,0.1c0,0.1,0,0.2,0,0.4v19.7
		c0,0.9,0.2,1.6,0.5,1.8c0.4,0.3,1.1,0.4,2.2,0.5v0.5h-8.5V138.1z"/>
	<path d="M16.7,152.3c1.4,0.4,2.1,0.6,2.3,0.6c0.3,0,0.7-0.1,1-0.3c0.3-0.2,0.5-0.5,0.6-0.8h0.7l0.3,7.6h-0.8
		c-0.5-1.5-1.1-2.7-1.9-3.6c-1.5-1.7-3.5-2.6-5.9-2.6c-2.5,0-4.6,0.9-6.2,2.8c-1.6,1.9-2.4,4.4-2.4,7.7c0,3,0.8,5.4,2.5,7.2
		c1.7,1.8,3.8,2.7,6.4,2.7c1.9,0,3.6-0.4,5.1-1.2c0.9-0.5,1.9-1.2,3-2.1l0.7,0.6c-0.8,0.9-1.8,1.8-3,2.5c-2,1.2-4.2,1.8-6.6,1.8
		c-3.9,0-6.9-1.1-9.2-3.4c-2.1-2.1-3.1-4.8-3.1-8c0-3.3,1.1-6,3.3-8.2c2.3-2.3,5.4-3.5,9.1-3.5C14,151.8,15.3,152,16.7,152.3"/>
	<path d="M31.7,160c1.7,0,3,0.8,3.9,2.5c0.9,1.7,1.4,3.5,1.4,5.4c0,1.8-0.4,3.3-1.1,4.4c-0.7,1.1-1.7,1.7-3,1.7c-1.7,0-3-0.8-4-2.5
		c-0.9-1.7-1.4-3.5-1.4-5.4c0-2.4,0.6-4.2,1.8-5.1C30,160.3,30.8,160,31.7,160 M24.3,166.8c0,2.3,0.8,4.3,2.3,5.8
		c1.6,1.5,3.5,2.3,5.7,2.3c2.3,0,4.2-0.8,5.7-2.4c1.5-1.6,2.2-3.5,2.2-5.7c0-2.4-0.8-4.3-2.3-5.7c-1.5-1.4-3.4-2.1-5.7-2.1
		c-2.3,0-4.2,0.8-5.7,2.3C25,162.8,24.3,164.6,24.3,166.8"/>
	<path d="M49.7,160c1.7,0,3,0.8,3.9,2.5c0.9,1.7,1.4,3.5,1.4,5.4c0,1.8-0.4,3.3-1.1,4.4c-0.7,1.1-1.7,1.7-3.1,1.7
		c-1.7,0-3-0.8-3.9-2.5c-1-1.7-1.4-3.5-1.4-5.4c0-2.4,0.6-4.2,1.8-5.1C48,160.3,48.8,160,49.7,160 M42.3,166.8
		c0,2.3,0.8,4.3,2.3,5.8c1.6,1.5,3.5,2.3,5.7,2.3c2.3,0,4.2-0.8,5.7-2.4c1.5-1.6,2.2-3.5,2.2-5.7c0-2.4-0.8-4.3-2.3-5.7
		c-1.5-1.4-3.4-2.1-5.8-2.1s-4.2,0.8-5.7,2.3C43,162.8,42.3,164.6,42.3,166.8"/>
	<path d="M64.3,171.4v-8.3c0-0.5,0.4-1,1.1-1.5c0.7-0.5,1.5-0.7,2.4-0.7c1.2,0,2.3,0.5,3.3,1.5c0.9,1,1.4,2.5,1.4,4.5
		c0,2.1-0.5,3.7-1.4,4.9c-0.9,1.2-2,1.8-3.3,1.8c-0.8,0-1.5-0.2-2.1-0.5C65.1,172.7,64.6,172.1,64.3,171.4 M58.8,181.7h8.6v-0.6
		c-1.3-0.1-2.1-0.3-2.5-0.5c-0.4-0.3-0.6-0.9-0.6-2v-5.4c0.6,0.6,1.3,1,2.1,1.3c0.5,0.2,1.1,0.2,1.7,0.2c2.1,0,3.9-0.9,5.3-2.7
		c1.4-1.8,2.1-3.8,2.1-5.9c0-2.2-0.6-4-1.7-5.3c-1.2-1.3-2.6-1.9-4.2-1.9c-1.1,0-2.2,0.3-3.3,0.9c-0.6,0.3-1.3,0.9-2,1.6v-2.2
		c0-0.1,0-0.1,0-0.2c0,0-0.1-0.1-0.1-0.1c-2.3,0.7-3.5,1.1-3.6,1.1l-1.7,0.5v0.5c0.2,0,0.4,0,0.5,0c0.1,0,0.2,0,0.4,0
		c0.6,0,1,0.1,1.2,0.3c0.2,0.2,0.3,0.8,0.3,1.6v15.7c0,0.8-0.1,1.4-0.4,1.8c-0.3,0.4-1,0.6-2.1,0.7V181.7z"/>
	<path d="M85.3,160.2c1.3,0,2.3,0.5,2.8,1.5c0.3,0.5,0.5,1.4,0.7,2.5h-7.3c0.2-0.9,0.4-1.7,0.8-2.3
		C82.9,160.8,83.9,160.2,85.3,160.2 M86.3,159c-2.2,0-4,0.8-5.4,2.4c-1.4,1.6-2.1,3.5-2.1,5.7c0,2,0.6,3.8,1.8,5.4
		c1.2,1.6,2.9,2.3,5.1,2.3c1.9,0,3.5-0.6,4.8-1.8c1.3-1.2,2.2-2.5,2.7-3.9l-0.6-0.2c-0.7,1.1-1.5,2-2.3,2.5
		c-0.8,0.6-1.9,0.9-3.1,0.9c-1.5,0-2.8-0.6-3.9-1.7c-1.1-1.1-1.7-3-1.8-5.5h11.1c0-2-0.6-3.5-1.8-4.6C89.3,159.6,87.9,159,86.3,159"
		/>
	<path d="M94.7,173.9c1.1-0.1,1.8-0.3,2.2-0.5c0.3-0.3,0.5-0.8,0.5-1.7v-7.4c0-1.1-0.1-1.9-0.3-2.3c-0.2-0.5-0.6-0.7-1.2-0.7
		c-0.1,0-0.3,0-0.5,0c-0.2,0-0.4,0.1-0.6,0.1v-0.5c0.7-0.2,1.3-0.4,2-0.7c0.7-0.2,1.2-0.4,1.4-0.5c0.6-0.2,1.2-0.4,1.8-0.7
		c0,0,0.1,0,0.1,0.1c0,0.1,0,0.2,0,0.3v2.7c0.7-1,1.5-1.7,2.2-2.3c0.7-0.6,1.4-0.8,2.2-0.8c0.6,0,1.1,0.2,1.5,0.5
		c0.4,0.3,0.6,0.8,0.6,1.3c0,0.4-0.1,0.8-0.4,1.1c-0.3,0.3-0.6,0.5-1.1,0.5c-0.5,0-0.9-0.2-1.3-0.6c-0.5-0.4-0.8-0.6-1.1-0.6
		c-0.4,0-0.9,0.3-1.5,0.9c-0.6,0.6-0.9,1.3-0.9,1.9v7.4c0,0.9,0.2,1.6,0.7,1.9c0.5,0.4,1.2,0.5,2.3,0.5v0.5h-8.7V173.9z"/>
	<path d="M117.5,170.5c0,0.6-0.4,1.1-1.1,1.5c-0.7,0.4-1.5,0.6-2.2,0.6c-0.6,0-1.1-0.2-1.5-0.5c-0.7-0.5-1.1-1.2-1.1-2.2
		c0-1.2,0.8-2.4,2.5-3.3c0.9-0.5,2-1,3.3-1.4V170.5z M108.6,171.2c0,1,0.4,1.8,1.1,2.5c0.7,0.7,1.6,1,2.6,1c1,0,2-0.3,3-0.9
		c0.6-0.4,1.4-0.9,2.3-1.6c0,0.7,0.2,1.2,0.6,1.7c0.4,0.5,0.9,0.7,1.7,0.7c0.7,0,1.4-0.2,2-0.6c0.4-0.3,0.8-0.6,1.2-1v-0.9
		c-0.4,0.3-0.7,0.5-0.9,0.6c-0.2,0.1-0.4,0.1-0.7,0.1c-0.5,0-0.8-0.2-1-0.7c-0.1-0.2-0.1-0.7-0.1-1.3v-6.6c0-1.4-0.2-2.5-0.7-3.3
		c-0.8-1.4-2.3-2.1-4.6-2.1c-1.9,0-3.4,0.4-4.4,1.3c-1,0.8-1.5,1.6-1.5,2.4c0,0.4,0.2,0.8,0.4,1.1c0.3,0.3,0.7,0.5,1.2,0.5
		c0.3,0,0.6-0.1,0.9-0.2c0.4-0.2,0.7-0.7,0.7-1.3c0-0.1,0-0.3-0.1-0.6c-0.1-0.3-0.1-0.5-0.1-0.7c0-0.5,0.3-0.9,0.8-1.2
		c0.5-0.3,1.1-0.4,1.7-0.4c1.2,0,2.1,0.4,2.5,1.1c0.2,0.4,0.4,1.2,0.4,2.3v1.4c-3.2,1.1-5.4,2-6.4,2.7
		C109.4,168.2,108.6,169.6,108.6,171.2"/>
	<path d="M132.5,159.3v1.1h-3.6l0,9.5c0,0.8,0.1,1.5,0.2,1.9c0.3,0.7,0.8,1.1,1.7,1.1c0.4,0,0.8-0.1,1.1-0.3
		c0.3-0.2,0.7-0.5,1.1-0.9l0.4,0.4l-0.4,0.5c-0.6,0.8-1.3,1.3-1.9,1.6c-0.7,0.3-1.3,0.5-2,0.5c-1.4,0-2.3-0.6-2.8-1.7
		c-0.3-0.6-0.4-1.5-0.4-2.6v-10H124c-0.1,0-0.1-0.1-0.1-0.1c0,0,0-0.1,0-0.1c0-0.1,0-0.2,0.1-0.2c0-0.1,0.2-0.2,0.5-0.4
		c0.8-0.6,1.4-1.1,1.7-1.5c0.3-0.4,1.2-1.4,2.5-3.1c0.2,0,0.2,0,0.3,0c0,0,0.1,0.1,0.1,0.2v4H132.5z"/>
	<path d="M136.8,152c0.4-0.3,0.8-0.5,1.3-0.5c0.5,0,0.9,0.2,1.3,0.5c0.4,0.3,0.5,0.7,0.5,1.2c0,0.5-0.2,0.9-0.5,1.2
		c-0.4,0.3-0.8,0.5-1.3,0.5c-0.5,0-0.9-0.2-1.3-0.5c-0.3-0.3-0.5-0.7-0.5-1.2C136.3,152.7,136.4,152.3,136.8,152 M134,174
		c1.3-0.1,2.1-0.3,2.4-0.6c0.3-0.3,0.5-1.1,0.5-2.3v-7.8c0-0.7-0.1-1.2-0.2-1.5c-0.2-0.5-0.6-0.7-1.1-0.7c-0.1,0-0.3,0-0.4,0
		c-0.1,0-0.5,0.1-1.1,0.3v-0.5l0.8-0.2c2-0.6,3.5-1.1,4.3-1.4c0.3-0.1,0.5-0.2,0.6-0.2c0,0.1,0,0.2,0,0.2V171c0,1.2,0.2,2,0.5,2.3
		c0.3,0.3,1,0.5,2.2,0.6v0.4H134V174z"/>
	<path d="M151.7,160c1.7,0,3,0.8,3.9,2.5c0.9,1.7,1.4,3.5,1.4,5.4c0,1.8-0.4,3.3-1.1,4.4c-0.7,1.1-1.7,1.7-3.1,1.7
		c-1.7,0-3-0.8-3.9-2.5c-0.9-1.7-1.4-3.5-1.4-5.4c0-2.4,0.6-4.2,1.8-5.1C150,160.3,150.8,160,151.7,160 M144.3,166.8
		c0,2.3,0.8,4.3,2.3,5.8c1.6,1.5,3.5,2.3,5.7,2.3c2.3,0,4.2-0.8,5.7-2.4c1.5-1.6,2.2-3.5,2.2-5.7c0-2.4-0.8-4.3-2.3-5.7
		c-1.5-1.4-3.4-2.1-5.8-2.1c-2.3,0-4.2,0.8-5.7,2.3C145,162.8,144.3,164.6,144.3,166.8"/>
	<path d="M162,174c0.8-0.1,1.4-0.3,1.7-0.6c0.3-0.3,0.5-0.9,0.5-1.9v-8.3c0-0.7-0.1-1.2-0.2-1.5c-0.2-0.4-0.7-0.6-1.4-0.6
		c-0.1,0-0.2,0-0.3,0c-0.1,0-0.2,0-0.4,0.1v-0.6c0.5-0.1,1.6-0.5,3.4-1l1.6-0.5c0.1,0,0.1,0,0.2,0.1c0,0.1,0,0.1,0,0.2v2.4
		c1.1-0.9,1.9-1.6,2.5-1.9c0.9-0.5,1.9-0.8,2.8-0.8c0.8,0,1.5,0.2,2.2,0.6c1.3,0.8,1.9,2.3,1.9,4.4v7.6c0,0.8,0.2,1.4,0.5,1.7
		c0.3,0.4,0.9,0.5,1.7,0.5v0.4h-7.5V174c0.9-0.1,1.5-0.3,1.8-0.7c0.3-0.3,0.5-1.1,0.5-2.2v-7c0-0.9-0.2-1.7-0.6-2.4
		c-0.4-0.6-1.1-0.9-2.1-0.9c-0.7,0-1.4,0.2-2.1,0.7c-0.4,0.2-0.9,0.7-1.5,1.2v9.2c0,0.8,0.2,1.3,0.6,1.6c0.4,0.3,1,0.4,1.8,0.4v0.4
		H162V174z"/>
	<path d="M197.7,165.8l4.1-9.2l4.1,9.2H197.7z M197.6,174.4v-0.6c-0.9-0.1-1.4-0.2-1.7-0.3c-0.5-0.2-0.7-0.6-0.7-1.2
		c0-0.3,0.1-0.6,0.3-1.1c0.2-0.5,0.7-1.8,1.7-4h9.4l1.5,3.2c0.2,0.5,0.4,0.9,0.5,1.3c0.1,0.4,0.2,0.7,0.2,0.9c0,0.5-0.2,0.8-0.5,0.9
		c-0.3,0.1-1,0.2-2,0.3v0.6h9.2v-0.6c-0.8-0.1-1.4-0.3-1.8-0.6c-0.4-0.3-0.8-1.1-1.4-2.3l-8.9-19h-0.7l-7.5,16.5
		c-1.1,2.5-1.9,4-2.4,4.5c-0.5,0.5-1.2,0.9-2.1,1v0.6H197.6z"/>
	<path d="M218,177.5c0-0.6,0.3-1.2,0.8-1.9c0.6-0.7,0.9-1,1.1-1c0.3,0,0.7,0.1,1.3,0.2c0.6,0.1,1,0.1,1.2,0.1c0.4,0,0.8,0,1.3,0.1
		c0.5,0,0.9,0,1.4,0c1.7,0,2.9,0.1,3.5,0.2c1,0.2,1.5,0.7,1.5,1.5c0,0.9-0.6,1.7-1.8,2.3c-1.2,0.6-2.8,0.9-4.7,0.9
		c-1.4,0-2.7-0.2-3.8-0.5C218.5,179,218,178.4,218,177.5 M220.3,169c-1.3,1.1-2.2,1.9-2.6,2.4c-0.4,0.5-0.6,0.9-0.6,1.3
		c0,0.4,0.2,0.8,0.7,1.2c0.3,0.2,0.6,0.4,1.2,0.6l-0.2,0.2l-1.2,1c-0.9,0.7-1.5,1.3-1.8,1.7c-0.3,0.4-0.5,0.8-0.5,1.2
		c0,0.8,0.6,1.5,1.7,2.3c1.1,0.7,2.6,1.1,4.6,1.1c2.1,0,4.2-0.5,6.3-1.5c2.1-1,3.1-2.4,3.1-4.1c0-1.7-0.9-2.8-2.6-3.3
		c-1.1-0.3-3.1-0.5-6.1-0.5c-0.6,0-1.2-0.1-1.8-0.2c-0.8-0.2-1.2-0.4-1.2-0.8c0-0.3,0.3-0.8,0.9-1.3c0.6-0.5,1-0.8,1.3-0.8
		c0.8,0.1,1.3,0.2,1.6,0.2c1.9,0,3.4-0.5,4.5-1.6c1.1-1,1.7-2.2,1.7-3.4c0-0.6-0.1-1.2-0.3-1.8c-0.1-0.3-0.3-0.7-0.5-1.2h3v-1.3
		h-0.2c-0.2,0-0.6,0-1.1,0c-0.5,0-0.9,0-1.1,0c-0.9,0-1.9-0.2-3-0.6c-1-0.4-2-0.6-2.8-0.6c-2,0-3.5,0.6-4.6,1.7
		c-1.1,1.1-1.6,2.4-1.6,3.6c0,1.1,0.3,2,0.9,2.8C218.4,168,219.2,168.6,220.3,169 M223.6,168.6c-1.1,0-2-0.5-2.7-1.6
		c-0.7-1.1-1-2.3-1-3.6c0-0.8,0.1-1.4,0.3-2c0.4-1,1.2-1.5,2.4-1.5c1.3,0,2.3,0.7,2.8,2c0.6,1.3,0.9,2.5,0.9,3.5
		c0,1.3-0.3,2.2-1,2.7C224.8,168.5,224.2,168.6,223.6,168.6"/>
	<path d="M239.6,160.2c1.3,0,2.3,0.5,2.9,1.5c0.3,0.5,0.5,1.4,0.7,2.5h-7.3c0.2-0.9,0.4-1.7,0.8-2.3
		C237.3,160.8,238.3,160.2,239.6,160.2 M240.7,159c-2.2,0-4,0.8-5.4,2.4c-1.4,1.6-2.1,3.5-2.1,5.7c0,2,0.6,3.8,1.8,5.4
		c1.2,1.6,2.9,2.3,5.1,2.3c1.9,0,3.5-0.6,4.8-1.8c1.3-1.2,2.2-2.5,2.7-3.9l-0.6-0.2c-0.7,1.1-1.5,2-2.3,2.5
		c-0.8,0.6-1.9,0.9-3.1,0.9c-1.5,0-2.8-0.6-3.9-1.7c-1.1-1.1-1.7-3-1.8-5.5h11.1c0-2-0.6-3.5-1.9-4.6
		C243.7,159.6,242.3,159,240.7,159"/>
	<path d="M249.1,174c0.8-0.1,1.4-0.3,1.7-0.6c0.3-0.3,0.5-0.9,0.5-1.9v-8.3c0-0.7-0.1-1.2-0.2-1.5c-0.2-0.4-0.7-0.6-1.4-0.6
		c-0.1,0-0.2,0-0.3,0c-0.1,0-0.2,0-0.4,0.1v-0.6c0.5-0.1,1.6-0.5,3.4-1l1.6-0.5c0.1,0,0.1,0,0.1,0.1c0,0.1,0,0.1,0,0.2v2.4
		c1.1-0.9,1.9-1.6,2.5-1.9c0.9-0.5,1.9-0.8,2.8-0.8c0.8,0,1.5,0.2,2.2,0.6c1.3,0.8,1.9,2.3,1.9,4.4v7.6c0,0.8,0.2,1.4,0.5,1.7
		c0.3,0.4,0.9,0.5,1.7,0.5v0.4h-7.5V174c0.9-0.1,1.5-0.3,1.8-0.7c0.3-0.3,0.5-1.1,0.5-2.2v-7c0-0.9-0.2-1.7-0.6-2.4
		c-0.4-0.6-1.1-0.9-2.1-0.9c-0.7,0-1.4,0.2-2.1,0.7c-0.4,0.2-0.9,0.7-1.5,1.2v9.2c0,0.8,0.2,1.3,0.6,1.6c0.4,0.3,1,0.4,1.8,0.4v0.4
		h-7.7V174z"/>
	<path d="M279.1,160.1c1,0.7,1.6,1.5,1.6,2.3c0,0.4-0.1,0.7-0.4,1c-0.3,0.3-0.7,0.5-1.2,0.5c-0.4,0-0.8-0.1-1.1-0.4
		c-0.3-0.3-0.5-0.6-0.7-1.2l-0.2-0.8c-0.2-0.6-0.4-1-0.8-1.2c-0.4-0.2-0.9-0.4-1.5-0.4c-1.3,0-2.5,0.5-3.4,1.6
		c-0.9,1.1-1.4,2.5-1.4,4.3c0,1.6,0.5,3.1,1.5,4.4c1,1.3,2.4,2,4.1,2c1.2,0,2.3-0.4,3.2-1.1c0.5-0.4,1.1-1.1,1.8-2l0.5,0.3
		c-0.7,1.3-1.4,2.4-2.1,3.1c-1.4,1.5-3,2.2-4.9,2.2c-1.8,0-3.4-0.7-4.8-2c-1.4-1.3-2.1-3.2-2.1-5.5c0-2.2,0.8-4.2,2.3-5.8
		c1.5-1.6,3.5-2.4,5.8-2.4C276.8,159,278,159.4,279.1,160.1"/>
	<path d="M281.6,159.3h7.4v0.4c-0.6,0-1,0.1-1.3,0.2c-0.5,0.2-0.8,0.4-0.8,0.9c0,0.2,0,0.3,0.1,0.5c0.1,0.2,0.2,0.4,0.3,0.7l4.1,8.2
		l3.4-8.3c0-0.1,0.1-0.3,0.2-0.6c0.1-0.3,0.1-0.5,0.1-0.6c0-0.3-0.1-0.5-0.3-0.6c-0.2-0.1-0.5-0.2-0.8-0.2l-0.5,0v-0.4h4.8v0.4
		c-0.5,0.1-0.8,0.2-1.1,0.5c-0.2,0.3-0.5,0.6-0.6,1.1l-5.5,13.7c-1,2.4-1.9,4.1-2.8,5.1c-0.9,1.1-2,1.6-3.3,1.6
		c-0.7,0-1.3-0.2-1.9-0.5c-0.6-0.3-0.9-0.8-0.9-1.4c0-0.4,0.2-0.8,0.5-1.1c0.3-0.3,0.8-0.4,1.3-0.4c0.3,0,0.8,0.1,1.3,0.3
		c0.6,0.2,1,0.3,1.3,0.3c0.6,0,1.3-0.7,2-2.2c0.7-1.5,1.1-2.5,1.1-3c0-0.1,0-0.2,0-0.4c0-0.1-0.1-0.3-0.1-0.4l-5.5-11.2
		c-0.4-0.8-0.7-1.3-1-1.6c-0.3-0.2-0.7-0.4-1.3-0.5V159.3z"/>
</g>
</svg>
