<?xml version="1.0" encoding="utf-8"?>
<!-- Generator: Adobe Illustrator 21.0.0, SVG Export Plug-In . SVG Version: 6.00 Build 0)  -->
<svg version="1.1" xmlns="http://www.w3.org/2000/svg" xmlns:xlink="http://www.w3.org/1999/xlink" x="0px" y="0px"
	 viewBox="0 0 508.3 158.1" style="enable-background:new 0 0 508.3 158.1;" xml:space="preserve">
<style type="text/css">
	.Arched_x0020_Green{fill:url(#SVGID_1_);stroke:#FFFFFF;stroke-width:0.25;stroke-miterlimit:1;}
	.st0{display:none;}
	.st1{display:inline;fill:#939598;}
	.st2{display:inline;}
	.st3{fill:#A6CE39;}
	.st4{fill:#00ADA1;}
</style>
<linearGradient id="SVGID_1_" gradientUnits="userSpaceOnUse" x1="149.6586" y1="367.6721" x2="150.3657" y2="366.965">
	<stop  offset="0" style="stop-color:#20AC4B"/>
	<stop  offset="0.9831" style="stop-color:#19361A"/>
</linearGradient>
<g id="Layer_2" class="st0">
	<rect x="-30.3" y="-28.3" class="st1" width="576" height="216"/>
</g>
<g id="Layer_1" class="st0">
	<g class="st2">
		<path d="M132.7,80.3V52h3v25.6h14.5v2.7H132.7z"/>
		<path d="M166.5,80.3v-2.2c-1.4,1.6-3.3,2.4-5.5,2.4c-2.1,0-3.9-0.6-5-1.8c-1.4-1.4-2-3.2-2-5.5V60.7h2.9v12c0,3.5,1.8,5.2,4.8,5.2
			c2.9,0,4.9-1.8,4.9-5.2v-12h2.9v19.6H166.5z"/>
		<path d="M181.1,80.3c-3.3,0-5-2.3-5-5.2V63h-2.5v-2.2h2.5v-6.1h2.9v6.1h4.2V63h-4.2V75c0,1.8,0.8,2.9,2.7,2.9h1.5v2.5H181.1z"/>
		<path d="M200.4,80.3V68.2c0-3.4-1.8-5.2-4.8-5.2c-2.9,0-4.9,1.8-4.9,5.2v12.1h-2.9V52h2.9v10.9c1.4-1.6,3.3-2.4,5.5-2.4
			c4.4,0,7,2.8,7,7.2v12.6H200.4z"/>
		<path d="M211.1,71.3c0,4.3,2,6.8,5.8,6.8c2.3,0,3.6-0.7,5.1-2.2l1.9,1.7c-2,2-3.8,3-7.2,3c-5.2,0-8.5-3.1-8.5-10
			c0-6.3,3.1-10,8-10c5.1,0,8,3.7,8,9.5v1.3H211.1z M220.9,65.9c-0.8-1.8-2.5-2.9-4.6-2.9c-2.1,0-3.8,1.2-4.6,2.9
			c-0.4,1.1-0.5,1.7-0.6,3.3h10.3C221.4,67.5,221.3,66.9,220.9,65.9z"/>
		<path d="M240.5,64.5c-1.1-1.1-1.9-1.4-3.4-1.4c-2.9,0-4.7,2.3-4.7,5.2v12h-2.9V60.7h2.9v2.4c1.1-1.6,3.2-2.6,5.5-2.6
			c1.9,0,3.3,0.4,4.7,1.8L240.5,64.5z"/>
		<path d="M256.1,80.3v-1.9c-1.6,1.6-3,2.1-5.6,2.1c-2.7,0-4.3-0.5-5.5-1.8c-1-1-1.5-2.4-1.5-4c0-3.4,2.4-5.6,6.8-5.6h5.9v-1.9
			c0-2.9-1.4-4.3-5-4.3c-2.5,0-3.8,0.6-4.9,2.2l-1.9-1.8c1.8-2.3,3.7-2.9,6.9-2.9c5.2,0,7.8,2.3,7.8,6.5v13.3H256.1z M256.1,71.3
			h-5.5c-2.9,0-4.4,1.2-4.4,3.5s1.4,3.3,4.5,3.3c1.7,0,3.1-0.1,4.4-1.3c0.7-0.6,1-1.8,1-3.4V71.3z"/>
		<path d="M277.5,80.3v-12c0-3.5-1.9-5.2-4.8-5.2c-2.9,0-4.9,1.8-4.9,5.2v12H265V60.7h2.9v2.1c1.4-1.6,3.3-2.4,5.5-2.4
			c2.1,0,3.8,0.6,5,1.8c1.4,1.4,2,3.2,2,5.4v12.5H277.5z"/>
		<path d="M318,80.3h-2.8l-6.3-22.7l-6.3,22.7h-2.8L292.5,52h3.2l5.5,22.8l6.2-22.8h2.7l6.2,22.8L322,52h3.2L318,80.3z"/>
		<path d="M339.5,78.3c-1.4,1.4-3.2,2.2-5.6,2.2c-2.4,0-4.3-0.9-5.6-2.2c-2-2-2.4-4.8-2.4-7.8c0-3,0.4-5.8,2.4-7.8
			c1.4-1.4,3.2-2.2,5.6-2.2c2.4,0,4.3,0.9,5.6,2.2c2,2,2.4,4.8,2.4,7.8C341.9,73.5,341.5,76.3,339.5,78.3z M337.5,64.5
			c-0.9-0.9-2.2-1.4-3.6-1.4c-1.4,0-2.6,0.5-3.5,1.4c-1.4,1.4-1.6,3.9-1.6,6c0,2.2,0.2,4.6,1.6,6c0.9,0.9,2.1,1.4,3.5,1.4
			c1.4,0,2.7-0.5,3.6-1.4c1.4-1.4,1.6-3.9,1.6-6C339,68.3,338.9,65.9,337.5,64.5z"/>
		<path d="M358.1,64.5c-1.1-1.1-1.9-1.4-3.4-1.4c-2.9,0-4.7,2.3-4.7,5.2v12h-2.9V60.7h2.9v2.4c1.1-1.6,3.2-2.6,5.5-2.6
			c1.9,0,3.3,0.4,4.7,1.8L358.1,64.5z"/>
		<path d="M367.9,80.3c-3.4,0-5-2.2-5-5.2V52h2.9v23c0,1.9,0.6,2.9,2.6,2.9h1.6v2.5H367.9z"/>
		<path d="M385.6,80.3v-2.3c-1.6,2.1-3.4,2.6-5.6,2.6c-2,0-3.7-0.7-4.8-1.7c-2-2-2.4-5.2-2.4-8.3c0-3.1,0.4-6.3,2.4-8.3
			c1-1,2.8-1.7,4.8-1.7c2.1,0,3.9,0.5,5.5,2.5V52h2.9v28.3H385.6z M380.7,63c-4.3,0-4.9,3.7-4.9,7.5c0,3.8,0.7,7.5,4.9,7.5
			c4.3,0,4.9-3.7,4.9-7.5C385.6,66.7,384.9,63,380.7,63z"/>
		<path d="M420.5,80.3L414,67.7h-6.8v12.6h-3V52h10.9c4.9,0,8.4,3,8.4,7.9c0,4.1-2.5,6.8-6.2,7.6l6.7,12.8H420.5z M414.8,54.7h-7.6
			v10.4h7.6c3.3,0,5.6-1.7,5.6-5.2C420.4,56.4,418.1,54.7,414.8,54.7z"/>
		<path d="M430.7,71.3c0,4.3,2,6.8,5.8,6.8c2.3,0,3.6-0.7,5.1-2.2l1.9,1.7c-2,2-3.8,3-7.2,3c-5.2,0-8.5-3.1-8.5-10
			c0-6.3,3.1-10,8-10c5.1,0,8,3.7,8,9.5v1.3H430.7z M440.4,65.9c-0.8-1.8-2.5-2.9-4.6-2.9c-2.1,0-3.8,1.2-4.6,2.9
			c-0.4,1.1-0.5,1.7-0.6,3.3H441C440.9,67.5,440.9,66.9,440.4,65.9z"/>
		<path d="M454,80.3c-3.4,0-5-2.2-5-5.2V52h2.9v23c0,1.9,0.6,2.9,2.6,2.9h1.6v2.5H454z"/>
		<path d="M459.9,55.2v-3.2h3.2v3.2H459.9z M460,80.3V60.7h2.9v19.6H460z"/>
		<path d="M471,71.3c0,4.3,2,6.8,5.8,6.8c2.3,0,3.6-0.7,5.1-2.2l1.9,1.7c-2,2-3.8,3-7.2,3c-5.2,0-8.5-3.1-8.5-10c0-6.3,3.1-10,8-10
			c5.1,0,8,3.7,8,9.5v1.3H471z M480.7,65.9c-0.8-1.8-2.5-2.9-4.6-2.9c-2.1,0-3.8,1.2-4.6,2.9c-0.4,1.1-0.5,1.7-0.6,3.3h10.3
			C481.3,67.5,481.2,66.9,480.7,65.9z"/>
		<path d="M492.9,63v17.3H490V63h-2.5v-2.2h2.5v-3.7c0-2.9,1.6-5.2,5-5.2h2.1v2.5h-1.6c-1.8,0-2.6,1.1-2.6,2.9v3.6h4.2V63H492.9z"/>
	</g>
	<g class="st2">
		<path d="M136.4,101.9c-1.8,0-2.9-0.4-4-1.5l0.9-0.9c1,1,1.9,1.3,3.2,1.3c1.7,0,2.8-0.8,2.8-2.2c0-0.6-0.2-1.1-0.6-1.5
			c-0.4-0.3-0.7-0.4-1.5-0.6l-1.4-0.2c-0.9-0.1-1.6-0.4-2.2-0.9c-0.6-0.5-0.9-1.3-0.9-2.2c0-2,1.4-3.3,3.8-3.3
			c1.5,0,2.5,0.4,3.5,1.3l-0.8,0.8c-0.7-0.7-1.5-1-2.7-1c-1.6,0-2.5,0.9-2.5,2.2c0,0.6,0.2,1,0.5,1.4c0.4,0.3,1,0.5,1.6,0.6l1.3,0.2
			c1.1,0.2,1.6,0.4,2.1,0.8c0.6,0.5,1,1.4,1,2.3C140.5,100.6,138.9,101.9,136.4,101.9z"/>
		<path d="M146.8,101.9c-2.4,0-4.1-1.6-4.1-4V90h1.3v7.8c0,1.8,1.1,3,2.8,3s2.9-1.2,2.9-3V90h1.3v7.9
			C150.9,100.2,149.2,101.9,146.8,101.9z"/>
	</g>
	<g class="st2">
		<path d="M156.9,101.9c-1.8,0-2.9-0.4-4-1.5l0.9-0.9c1,1,1.9,1.3,3.2,1.3c1.7,0,2.8-0.8,2.8-2.2c0-0.6-0.2-1.1-0.6-1.5
			c-0.4-0.3-0.7-0.4-1.5-0.6l-1.4-0.2c-0.9-0.1-1.6-0.4-2.2-0.9c-0.6-0.5-0.9-1.3-0.9-2.2c0-2,1.4-3.3,3.8-3.3
			c1.5,0,2.5,0.4,3.5,1.3l-0.8,0.8c-0.7-0.7-1.5-1-2.7-1c-1.6,0-2.5,0.9-2.5,2.2c0,0.6,0.2,1,0.5,1.4c0.4,0.3,1,0.5,1.6,0.6l1.3,0.2
			c1.1,0.2,1.6,0.4,2.1,0.8c0.6,0.5,1,1.4,1,2.3C160.9,100.6,159.3,101.9,156.9,101.9z"/>
	</g>
	<g class="st2">
		<path d="M166.8,91.2v10.6h-1.3V91.2h-3.4V90h8v1.1H166.8z"/>
		<path d="M178,101.8l-0.9-2.7h-5.1l-0.9,2.7h-1.3l4.3-11.7h1.1l4.3,11.7H178z M174.5,91.8l-2.2,6.2h4.4L174.5,91.8z"/>
		<path d="M181,101.8V90h1.3v11.7H181z"/>
		<path d="M192.9,101.8l-6.2-9.4v9.4h-1.3V90h1.2l6.2,9.4V90h1.3v11.7H192.9z"/>
		<path d="M204,101.8l-0.9-2.7H198l-0.9,2.7h-1.3L200,90h1.1l4.3,11.7H204z M200.6,91.8l-2.2,6.2h4.4L200.6,91.8z"/>
		<path d="M211.6,101.8H207V90h4.4c2,0,3.5,1.2,3.5,3.1c0,1.2-0.7,2.2-1.7,2.6c1.1,0.4,1.9,1.4,1.9,2.8
			C215.1,100.6,213.7,101.8,211.6,101.8z M211.4,91.2h-3.1v4.1h3.1c1.3,0,2.3-0.6,2.3-2C213.7,91.8,212.7,91.2,211.4,91.2z
			 M211.5,96.3h-3.2v4.3h3.2c1.5,0,2.4-0.8,2.4-2.2C213.9,97.2,212.9,96.3,211.5,96.3z"/>
	</g>
	<g class="st2">
		<path d="M217.7,101.8V90h1.3v10.6h6v1.1H217.7z"/>
	</g>
	<g class="st2">
		<path d="M226.9,101.8V90h7.3v1.1h-6v4.1h5.1v1.1h-5.1v4.2h6v1.1H226.9z"/>
		<path d="M247.4,100.7c-0.7,0.7-1.7,1.1-3,1.1h-4V90h4c1.2,0,2.3,0.4,3,1.1c1.2,1.2,1.2,3,1.2,4.6
			C248.6,97.4,248.7,99.5,247.4,100.7z M246.6,92c-0.6-0.6-1.4-0.9-2.3-0.9h-2.6v9.5h2.6c0.9,0,1.7-0.2,2.3-0.9
			c0.8-0.8,0.8-2.6,0.8-4C247.3,94.3,247.4,92.9,246.6,92z"/>
		<path d="M251.3,101.8V90h7.3v1.1h-6v4.1h5.1v1.1h-5.1v4.2h6v1.1H251.3z"/>
		<path d="M264.3,101.8h-1L259.4,90h1.3l3,9.5l3-9.5h1.3L264.3,101.8z"/>
		<path d="M269.7,101.8V90h7.3v1.1h-6v4.1h5.1v1.1H271v4.2h6v1.1H269.7z"/>
	</g>
	<g class="st2">
		<path d="M279.3,101.8V90h1.3v10.6h6v1.1H279.3z"/>
	</g>
	<g class="st2">
		<path d="M294.5,100.6c-0.8,0.8-1.8,1.2-3,1.2c-1.2,0-2.2-0.4-3-1.2c-1.1-1.1-1.1-2.3-1.1-4.7c0-2.5,0-3.6,1.1-4.7
			c0.8-0.8,1.8-1.2,3-1.2c1.2,0,2.2,0.4,3,1.2c1.1,1.1,1.1,2.3,1.1,4.7C295.7,98.4,295.7,99.5,294.5,100.6z M293.6,91.9
			c-0.5-0.5-1.3-0.8-2-0.8c-0.8,0-1.5,0.3-2,0.8c-0.7,0.8-0.8,1.5-0.8,4c0,2.5,0.1,3.2,0.8,4c0.5,0.5,1.3,0.8,2,0.8
			c0.8,0,1.5-0.3,2-0.8c0.7-0.8,0.8-1.5,0.8-4C294.4,93.4,294.3,92.7,293.6,91.9z"/>
		<path d="M302.7,96.9h-3.1v4.8h-1.3V90h4.4c2.1,0,3.6,1.3,3.6,3.4C306.3,95.6,304.9,96.9,302.7,96.9z M302.6,91.2h-3v4.7h3
			c1.5,0,2.5-0.8,2.5-2.3C305.1,91.9,304.1,91.2,302.6,91.2z"/>
		<path d="M317.3,101.8v-8.9l-3.2,7.1H313l-3.3-7.1v8.9h-1.3V90h1.3l3.8,8.3l3.7-8.3h1.3v11.7H317.3z"/>
		<path d="M321.7,101.8V90h7.3v1.1h-6v4.1h5.1v1.1H323v4.2h6v1.1H321.7z"/>
		<path d="M338.8,101.8l-6.2-9.4v9.4h-1.3V90h1.2l6.2,9.4V90h1.3v11.7H338.8z"/>
		<path d="M346.6,91.2v10.6h-1.3V91.2H342V90h8v1.1H346.6z"/>
		<path d="M350.4,101.8v-1.5h1.5v1.5H350.4z"/>
		<path d="M358.7,101.8V90h1.3v10.6h6v1.1H358.7z"/>
		<path d="M374.8,101.8l-0.9-2.7h-5.1l-0.9,2.7h-1.3l4.3-11.7h1.1l4.3,11.7H374.8z M371.3,91.8l-2.2,6.2h4.4L371.3,91.8z"/>
	</g>
	<g class="st2">
		<path d="M380.7,101.9c-1.8,0-2.9-0.4-4-1.5l0.9-0.9c1,1,1.9,1.3,3.2,1.3c1.7,0,2.8-0.8,2.8-2.2c0-0.6-0.2-1.1-0.6-1.5
			c-0.4-0.3-0.7-0.4-1.5-0.6l-1.4-0.2c-0.9-0.1-1.6-0.4-2.2-0.9c-0.6-0.5-0.9-1.3-0.9-2.2c0-2,1.4-3.3,3.8-3.3
			c1.5,0,2.5,0.4,3.5,1.3l-0.8,0.8c-0.7-0.7-1.5-1-2.7-1c-1.6,0-2.5,0.9-2.5,2.2c0,0.6,0.2,1,0.5,1.4c0.4,0.3,1,0.5,1.6,0.6l1.3,0.2
			c1.1,0.2,1.6,0.4,2.1,0.8c0.6,0.5,1,1.4,1,2.3C384.8,100.6,383.1,101.9,380.7,101.9z"/>
	</g>
	<g class="st2">
		<path d="M390.6,91.2v10.6h-1.3V91.2h-3.4V90h8v1.1H390.6z"/>
		<path d="M395.9,101.8V90h1.3v11.7H395.9z"/>
		<path d="M407.8,101.8l-6.2-9.4v9.4h-1.3V90h1.2l6.2,9.4V90h1.3v11.7H407.8z"/>
		<path d="M419,100.5c-0.8,0.9-1.9,1.4-3.1,1.4c-1.2,0-2.2-0.4-3-1.2c-1.1-1.1-1.1-2.3-1.1-4.7c0-2.5,0-3.6,1.1-4.7
			c0.8-0.8,1.8-1.2,3-1.2c2.2,0,3.8,1.5,4.1,3.5h-1.3c-0.3-1.5-1.4-2.4-2.9-2.4c-0.8,0-1.5,0.3-2,0.8c-0.7,0.8-0.8,1.5-0.8,4
			c0,2.5,0.1,3.3,0.8,4c0.5,0.5,1.3,0.8,2,0.8c0.9,0,1.7-0.3,2.2-1c0.5-0.6,0.7-1.2,0.7-2.1v-0.9h-2.9v-1.1h4.1v1.9
			C420,98.8,419.7,99.7,419,100.5z"/>
	</g>
	<g class="st2">
		<path d="M430.8,96.9h-3.1v4.8h-1.3V90h4.4c2.1,0,3.6,1.3,3.6,3.4C434.4,95.6,433,96.9,430.8,96.9z M430.7,91.2h-3v4.7h3
			c1.5,0,2.5-0.8,2.5-2.3C433.2,91.9,432.2,91.2,430.7,91.2z"/>
		<path d="M443.3,101.8l-2.7-5.2h-2.8v5.2h-1.3V90h4.5c2,0,3.5,1.2,3.5,3.3c0,1.7-1,2.8-2.6,3.1l2.8,5.3H443.3z M441,91.2h-3.1v4.3
			h3.1c1.4,0,2.3-0.7,2.3-2.1C443.3,91.9,442.3,91.2,441,91.2z"/>
	</g>
	<g class="st2">
		<path d="M453.8,100.6c-0.8,0.8-1.8,1.2-3,1.2c-1.2,0-2.2-0.4-3-1.2c-1.1-1.1-1.1-2.3-1.1-4.7c0-2.5,0-3.6,1.1-4.7
			c0.8-0.8,1.8-1.2,3-1.2c1.2,0,2.2,0.4,3,1.2c1.1,1.1,1.1,2.3,1.1,4.7C454.9,98.4,454.9,99.5,453.8,100.6z M452.8,91.9
			c-0.5-0.5-1.3-0.8-2-0.8c-0.8,0-1.5,0.3-2,0.8c-0.7,0.8-0.8,1.5-0.8,4c0,2.5,0.1,3.2,0.8,4c0.5,0.5,1.3,0.8,2,0.8
			c0.8,0,1.5-0.3,2-0.8c0.7-0.8,0.8-1.5,0.8-4C453.6,93.4,453.6,92.7,452.8,91.9z"/>
		<path d="M466.4,101.8v-8.9l-3.2,7.1h-1.1l-3.3-7.1v8.9h-1.3V90h1.3l3.8,8.3l3.7-8.3h1.3v11.7H466.4z"/>
		<path d="M470.8,101.8V90h1.3v11.7H470.8z"/>
	</g>
	<g class="st2">
		<path d="M478.2,101.9c-1.8,0-2.9-0.4-4-1.5l0.9-0.9c1,1,1.9,1.3,3.2,1.3c1.7,0,2.8-0.8,2.8-2.2c0-0.6-0.2-1.1-0.6-1.5
			c-0.4-0.3-0.7-0.4-1.5-0.6l-1.4-0.2c-0.9-0.1-1.6-0.4-2.2-0.9c-0.6-0.5-0.9-1.3-0.9-2.2c0-2,1.4-3.3,3.8-3.3
			c1.5,0,2.5,0.4,3.5,1.3L481,92c-0.7-0.7-1.5-1-2.7-1c-1.6,0-2.5,0.9-2.5,2.2c0,0.6,0.2,1,0.5,1.4c0.4,0.3,1,0.5,1.6,0.6l1.3,0.2
			c1.1,0.2,1.6,0.4,2.1,0.8c0.6,0.5,1,1.4,1,2.3C482.3,100.6,480.7,101.9,478.2,101.9z"/>
	</g>
	<g class="st2">
		<path d="M484.6,101.8V90h7.3v1.1h-6v4.1h5.1v1.1h-5.1v4.2h6v1.1H484.6z"/>
		<path d="M494.1,101.8v-1.5h1.5v1.5H494.1z"/>
	</g>
	<g class="st2">
		<g>
			<path class="st3" d="M53.9,32.9c-4.7,29,8,41.2,12.6,57c0.2,0.6,0.3,1.1,0.5,1.6c1.3,3.7,2.4,7.7,2.8,12.1c0.5,5,0.1,12-1.5,18.6
				c7.5-12.1,12.3-27.7,11.3-38.3c-0.4-4.2-1.4-8.1-2.7-11.7c-0.1-0.5-0.3-1-0.4-1.5c-4.7-16.2-18.1-23.9-11.8-58.9
				C60.2,17.6,56.5,25.2,53.9,32.9z"/>
		</g>
		<path class="st4" d="M65.4,127.5C70.7,94,58.6,86.7,53,67.2c-0.2-0.5-0.3-1-0.4-1.5c-1.3-3.7-2.4-7.8-2.8-12.2
			c-0.5-4.8,0.1-11,1.7-17.2C43.4,48.8,38.8,66,39.9,77.2c0.4,4.3,1.4,8.1,2.7,11.8c0.1,0.4,0.3,0.9,0.4,1.4
			c5.3,18.5,17.6,22.4,11.8,57.3C59.1,141.8,62.8,134.7,65.4,127.5z"/>
		<path class="st4" d="M99.3,89.6c-0.5,29.4-14.9,54.6-34.5,57.7c0.2,0.3,0.8,0.3,5.6-0.5c22.2-3.5,40.1-25.4,40.6-57.1
			c0.5-31.7-17.2-57.2-38.6-59.1c-1.6-0.1-3-0.4-4.6-0.2C87.3,34.2,99.8,60.2,99.3,89.6"/>
		<path class="st3" d="M20.7,72.4c0-29.4,14-54.9,33.6-58.3c-0.2-0.3-0.8-0.3-5.6,0.6c-22.1,3.9-39.7,26-39.7,57.7
			s18.1,56.9,39.6,58.5c1.6,0.1,3,0.4,4.6,0.1C33.5,127.6,20.7,101.8,20.7,72.4"/>
	</g>
</g>
<g id="Layer_1_copy">
	<g>
		<path d="M132.7,90.9V62.6h3v25.6h14.5v2.7H132.7z"/>
		<path d="M166.5,90.9v-2.2c-1.4,1.6-3.3,2.4-5.5,2.4c-2.1,0-3.9-0.6-5-1.8c-1.4-1.4-2-3.2-2-5.5V71.3h2.9v12c0,3.5,1.8,5.2,4.8,5.2
			c2.9,0,4.9-1.8,4.9-5.2v-12h2.9v19.6H166.5z"/>
		<path d="M181.1,90.9c-3.3,0-5-2.3-5-5.2v-12h-2.5v-2.2h2.5v-6.1h2.9v6.1h4.2v2.2h-4.2v11.9c0,1.8,0.8,2.9,2.7,2.9h1.5v2.5H181.1z"
			/>
		<path d="M200.4,90.9V78.8c0-3.4-1.8-5.2-4.8-5.2c-2.9,0-4.9,1.8-4.9,5.2v12.1h-2.9V62.6h2.9v10.9c1.4-1.6,3.3-2.4,5.5-2.4
			c4.4,0,7,2.8,7,7.2v12.6H200.4z"/>
		<path d="M211.1,81.9c0,4.3,2,6.8,5.8,6.8c2.3,0,3.6-0.7,5.1-2.2l1.9,1.7c-2,2-3.8,3-7.2,3c-5.2,0-8.5-3.1-8.5-10
			c0-6.3,3.1-10,8-10c5.1,0,8,3.7,8,9.5v1.3H211.1z M220.9,76.4c-0.8-1.8-2.5-2.9-4.6-2.9c-2.1,0-3.8,1.2-4.6,2.9
			c-0.4,1.1-0.5,1.7-0.6,3.3h10.3C221.4,78.1,221.3,77.5,220.9,76.4z"/>
		<path d="M240.5,75.1c-1.1-1.1-1.9-1.4-3.4-1.4c-2.9,0-4.7,2.3-4.7,5.2v12h-2.9V71.3h2.9v2.4c1.1-1.6,3.2-2.6,5.5-2.6
			c1.9,0,3.3,0.4,4.7,1.8L240.5,75.1z"/>
		<path d="M256.1,90.9V89c-1.6,1.6-3,2.1-5.6,2.1c-2.7,0-4.3-0.5-5.5-1.8c-1-1-1.5-2.4-1.5-4c0-3.4,2.4-5.6,6.8-5.6h5.9v-1.9
			c0-2.9-1.4-4.3-5-4.3c-2.5,0-3.8,0.6-4.9,2.2l-1.9-1.8c1.8-2.3,3.7-2.9,6.9-2.9c5.2,0,7.8,2.3,7.8,6.5v13.3H256.1z M256.1,81.9
			h-5.5c-2.9,0-4.4,1.2-4.4,3.5c0,2.3,1.4,3.3,4.5,3.3c1.7,0,3.1-0.1,4.4-1.3c0.7-0.6,1-1.8,1-3.4V81.9z"/>
		<path d="M277.5,90.9v-12c0-3.5-1.9-5.2-4.8-5.2c-2.9,0-4.9,1.8-4.9,5.2v12H265V71.3h2.9v2.1c1.4-1.6,3.3-2.4,5.5-2.4
			c2.1,0,3.8,0.6,5,1.8c1.4,1.4,2,3.2,2,5.4v12.5H277.5z"/>
		<path d="M318,90.9h-2.8l-6.3-22.7l-6.3,22.7h-2.8l-7.2-28.3h3.2l5.5,22.8l6.2-22.8h2.7l6.2,22.8l5.5-22.8h3.2L318,90.9z"/>
		<path d="M339.5,88.9c-1.4,1.4-3.2,2.2-5.6,2.2c-2.4,0-4.3-0.9-5.6-2.2c-2-2-2.4-4.8-2.4-7.8c0-3,0.4-5.8,2.4-7.8
			c1.4-1.4,3.2-2.2,5.6-2.2c2.4,0,4.3,0.9,5.6,2.2c2,2,2.4,4.8,2.4,7.8C341.9,84.1,341.5,86.9,339.5,88.9z M337.5,75.1
			c-0.9-0.9-2.2-1.4-3.6-1.4c-1.4,0-2.6,0.5-3.5,1.4c-1.4,1.4-1.6,3.9-1.6,6c0,2.2,0.2,4.6,1.6,6c0.9,0.9,2.1,1.4,3.5,1.4
			c1.4,0,2.7-0.5,3.6-1.4c1.4-1.4,1.6-3.9,1.6-6C339,78.9,338.9,76.5,337.5,75.1z"/>
		<path d="M358.1,75.1c-1.1-1.1-1.9-1.4-3.4-1.4c-2.9,0-4.7,2.3-4.7,5.2v12h-2.9V71.3h2.9v2.4c1.1-1.6,3.2-2.6,5.5-2.6
			c1.9,0,3.3,0.4,4.7,1.8L358.1,75.1z"/>
		<path d="M367.9,90.9c-3.4,0-5-2.2-5-5.2V62.6h2.9v23c0,1.9,0.6,2.9,2.6,2.9h1.6v2.5H367.9z"/>
		<path d="M385.6,90.9v-2.3c-1.6,2.1-3.4,2.6-5.6,2.6c-2,0-3.7-0.7-4.8-1.7c-2-2-2.4-5.2-2.4-8.3c0-3.1,0.4-6.3,2.4-8.3
			c1-1,2.8-1.7,4.8-1.7c2.1,0,3.9,0.5,5.5,2.5v-11h2.9v28.3H385.6z M380.7,73.6c-4.3,0-4.9,3.7-4.9,7.5c0,3.8,0.7,7.5,4.9,7.5
			c4.3,0,4.9-3.7,4.9-7.5C385.6,77.3,384.9,73.6,380.7,73.6z"/>
		<path d="M420.5,90.9L414,78.3h-6.8v12.6h-3V62.6h10.9c4.9,0,8.4,3,8.4,7.9c0,4.1-2.5,6.8-6.2,7.6l6.7,12.8H420.5z M414.8,65.3
			h-7.6v10.4h7.6c3.3,0,5.6-1.7,5.6-5.2C420.4,67,418.1,65.3,414.8,65.3z"/>
		<path d="M430.7,81.9c0,4.3,2,6.8,5.8,6.8c2.3,0,3.6-0.7,5.1-2.2l1.9,1.7c-2,2-3.8,3-7.2,3c-5.2,0-8.5-3.1-8.5-10
			c0-6.3,3.1-10,8-10c5.1,0,8,3.7,8,9.5v1.3H430.7z M440.4,76.4c-0.8-1.8-2.5-2.9-4.6-2.9c-2.1,0-3.8,1.2-4.6,2.9
			c-0.4,1.1-0.5,1.7-0.6,3.3H441C440.9,78.1,440.9,77.5,440.4,76.4z"/>
		<path d="M454,90.9c-3.4,0-5-2.2-5-5.2V62.6h2.9v23c0,1.9,0.6,2.9,2.6,2.9h1.6v2.5H454z"/>
		<path d="M459.9,65.8v-3.2h3.2v3.2H459.9z M460,90.9V71.3h2.9v19.6H460z"/>
		<path d="M471,81.9c0,4.3,2,6.8,5.8,6.8c2.3,0,3.6-0.7,5.1-2.2l1.9,1.7c-2,2-3.8,3-7.2,3c-5.2,0-8.5-3.1-8.5-10c0-6.3,3.1-10,8-10
			c5.1,0,8,3.7,8,9.5v1.3H471z M480.7,76.4c-0.8-1.8-2.5-2.9-4.6-2.9c-2.1,0-3.8,1.2-4.6,2.9c-0.4,1.1-0.5,1.7-0.6,3.3h10.3
			C481.3,78.1,481.2,77.5,480.7,76.4z"/>
		<path d="M492.9,73.6v17.3H490V73.6h-2.5v-2.2h2.5v-3.7c0-2.9,1.6-5.2,5-5.2h2.1V65h-1.6c-1.8,0-2.6,1.1-2.6,2.9v3.6h4.2v2.2H492.9
			z"/>
	</g>
	<g>
		<g>
			<path class="st3" d="M53.9,32.9c-4.7,29,8,41.2,12.6,57c0.2,0.6,0.3,1.1,0.5,1.6c1.3,3.7,2.4,7.7,2.8,12.1c0.5,5,0.1,12-1.5,18.6
				c7.5-12.1,12.3-27.7,11.3-38.3c-0.4-4.2-1.4-8.1-2.7-11.7c-0.1-0.5-0.3-1-0.4-1.5c-4.7-16.2-18.1-23.9-11.8-58.9
				C60.2,17.6,56.5,25.2,53.9,32.9z"/>
		</g>
		<path class="st4" d="M65.4,127.5C70.7,94,58.6,86.7,53,67.2c-0.2-0.5-0.3-1-0.4-1.5c-1.3-3.7-2.4-7.8-2.8-12.2
			c-0.5-4.8,0.1-11,1.7-17.2C43.4,48.8,38.8,66,39.9,77.2c0.4,4.3,1.4,8.1,2.7,11.8c0.1,0.4,0.3,0.9,0.4,1.4
			c5.3,18.5,17.6,22.4,11.8,57.3C59.1,141.8,62.8,134.7,65.4,127.5z"/>
		<path class="st4" d="M99.3,89.6c-0.5,29.4-14.9,54.6-34.5,57.7c0.2,0.3,0.8,0.3,5.6-0.5c22.2-3.5,40.1-25.4,40.6-57.1
			c0.5-31.7-17.2-57.2-38.6-59.1c-1.6-0.1-3-0.4-4.6-0.2C87.3,34.2,99.8,60.2,99.3,89.6"/>
		<path class="st3" d="M20.7,72.4c0-29.4,14-54.9,33.6-58.3c-0.2-0.3-0.8-0.3-5.6,0.6c-22.1,3.9-39.7,26-39.7,57.7
			s18.1,56.9,39.6,58.5c1.6,0.1,3,0.4,4.6,0.1C33.5,127.6,20.7,101.8,20.7,72.4"/>
	</g>
</g>
</svg>
