<?xml version="1.0" encoding="utf-8"?>
<!-- Generator: Adobe Illustrator 21.0.0, SVG Export Plug-In . SVG Version: 6.00 Build 0)  -->
<svg version="1.1" id="Layer_1" xmlns="http://www.w3.org/2000/svg" xmlns:xlink="http://www.w3.org/1999/xlink" x="0px" y="0px"
	 viewBox="0 0 400.6 69.5" style="enable-background:new 0 0 400.6 69.5;" xml:space="preserve">
<style type="text/css">
	.st0{fill:#ED1D24;}
	.st1{fill:#21409A;}
</style>
<g>
	<path class="st0" d="M107.3,64.4L107.3,64.4l-2.5-6.1c-0.5-1.2-1.3-1.7-3.1-1.7H100c-2,0-3.1,0.9-3.1,2.2v8.9c0,1.2,1,1.8,2.6,1.8
		c1.6,0,2.6-0.6,2.6-1.8v-6h0.1l2.7,6.7c0.3,0.8,0.9,1.1,2.3,1.1c1.4,0,2-0.3,2.3-1.1l2.7-6.7h0.1v6c0,1.2,1,1.8,2.6,1.8
		c1.6,0,2.6-0.6,2.6-1.8v-8.9c0-1.3-1-2.2-3.1-2.2h-1.7c-1.9,0-2.6,0.4-3.1,1.7L107.3,64.4z"/>
	<path class="st0" d="M144.3,67.5l0.4,0.9c0.3,0.7,1.5,1,2.4,1c1.3,0,2.7-0.7,2.7-1.6c0-0.6-0.5-1.5-0.9-2.3l-3.9-7.3
		c-0.6-1-1.3-1.6-2.8-1.6h-1.8c-1.5,0-2.3,0.6-2.8,1.6l-3.9,7.3c-0.4,0.8-0.9,1.7-0.9,2.3c0,0.9,1.4,1.6,2.7,1.6
		c0.9,0,2.1-0.3,2.4-1l0.4-0.9H144.3z M143.2,65h-4l2-4.5h0.1L143.2,65z"/>
	<path class="st0" d="M170.9,66v-7.3c0-1.3-1.1-2.1-2.9-2.1c-1.8,0-3,0.8-3,2.1v8.1c0,1.7,1.1,2.4,3.4,2.4h8.7
		c1.5,0,2.5-0.6,2.5-1.6c0-1-1-1.6-2.5-1.6H170.9z"/>
	<path class="st0" d="M204.9,67.5l0.4,0.9c0.3,0.7,1.5,1,2.4,1c1.3,0,2.7-0.7,2.7-1.6c0-0.6-0.5-1.5-0.9-2.3l-3.9-7.3
		c-0.6-1-1.3-1.6-2.8-1.6h-1.8c-1.5,0-2.3,0.6-2.8,1.6l-3.9,7.3c-0.4,0.8-0.9,1.7-0.9,2.3c0,0.9,1.4,1.6,2.7,1.6
		c0.9,0,2.1-0.3,2.4-1l0.4-0.9H204.9z M203.8,65h-4l2-4.5h0.1L203.8,65z"/>
	<path class="st0" d="M231,61.1l-2.4-3.3c-0.6-0.8-1.6-1.2-2.7-1.2c-1.6,0-2.8,0.9-2.8,1.9c0,0.4,0.3,0.8,0.7,1.4l4.2,4.9v2.5
		c0,1.3,1.1,2.1,2.9,2.1c1.8,0,2.9-0.8,2.9-2.1v-2.5l4.3-4.9c0.5-0.6,0.7-0.9,0.7-1.4c0-1-1.2-1.9-2.8-1.9c-1.2,0-2.1,0.4-2.7,1.2
		L231,61.1z"/>
	<path class="st0" d="M263.9,65.7c0,0.8-1.1,1-2.3,1c-2.9,0-3.2-1.8-5.2-1.8c-1.4,0-2.5,0.7-2.5,1.6c0,1.1,1.9,3,8.1,3
		c3.9,0,7.6-1.3,7.6-4.2c0-2.2-2.1-3.1-5.2-3.7l-3-0.6c-1.3-0.2-2-0.5-2-1c0-0.6,0.9-0.8,1.9-0.8c2.9,0,3,1.5,4.9,1.5
		c1.5,0,2.6-0.6,2.6-1.6c0-2.1-4.4-2.6-7.8-2.6c-5.1,0-7.2,1.9-7.2,4c0,1.7,1.6,2.9,4.6,3.5l3.9,0.8
		C263.4,64.9,263.9,65.2,263.9,65.7"/>
	<path class="st0" d="M286.1,67.3c0,1.3,1.1,2.1,2.9,2.1c1.8,0,2.9-0.8,2.9-2.1v-8.6c0-1.3-1.1-2.1-2.9-2.1c-1.8,0-2.9,0.8-2.9,2.1
		V67.3z"/>
	<path class="st0" d="M318.8,67.5l0.4,0.9c0.3,0.7,1.5,1,2.4,1c1.3,0,2.7-0.7,2.7-1.6c0-0.6-0.5-1.5-0.9-2.3l-3.9-7.3
		c-0.6-1-1.3-1.6-2.8-1.6h-1.8c-1.5,0-2.2,0.6-2.8,1.6l-3.9,7.3c-0.4,0.8-0.9,1.7-0.9,2.3c0,0.9,1.4,1.6,2.7,1.6
		c0.9,0,2.1-0.3,2.4-1l0.4-0.9H318.8z M317.8,65h-4l2-4.5h0L317.8,65z"/>
	<path class="st1" d="M162.4,23.8c0-6.1-2.1-8.2-6.5-8.2c-3.3,0-6.6,3.3-6.6,8.7v17.8c0,6.5-4.1,9.5-9.8,9.5c-5.7,0-9.8-3-9.8-9.5
		V23.8c0-6.1-2.1-8.2-6.5-8.2c-3.3,0-6.6,3.3-6.6,8.7v17.8c0,6.5-4.1,9.5-9.8,9.5c-5.7,0-9.8-3-9.8-9.5V9.6c0-5.9,3-9.1,9.4-9.1
		c5.8,0,8.1,3.3,8.8,9h0.2c3.2-5.8,8.7-9,16.2-9c6.4,0,13.1,2.8,14.8,9.4c4.2-6.8,9.6-9.4,16.6-9.4c13.5,0,19.1,8.2,19.1,18.8v22.8
		c0,6.5-4.1,9.5-9.8,9.5c-5.7,0-9.8-3-9.8-9.5V23.8z"/>
	<path class="st1" d="M223.3,20.8c0-6.7-4.3-9.1-9.2-9.1c-4.4,0-9,2.3-9.3,9.1H223.3z M213.2,51.6c-15.6,0-27.9-7.9-27.9-25.6
		c0-17.6,12.3-25.5,27.9-25.5c21.9,0,28.6,14.7,28.6,22c0,5.8-2.8,7.8-9.1,7.8h-27.9c0.5,6.1,4.1,10.1,10.5,10.1
		c7.2,0,11.4-6,17.4-6c3.4,0,6.1,3.3,6.1,6.3C238.9,46.1,232.2,51.6,213.2,51.6"/>
	<path class="st1" d="M244.1,10c0-6.5,4.1-9.5,8.9-9.5c4.9,0,8.8,2.6,8.8,9.9v3.7h0.2c3.3-8.8,7.2-13.6,12.8-13.6c6,0,8,4.7,8,8.8
		c0,4.7-2,7.7-5.3,8.6l-5.3,1.3c-5.3,1.3-8.3,3.2-8.3,9.6v13.3c0,6.5-4.1,9.5-9.8,9.5c-5.7,0-9.8-3-9.8-9.5V10z"/>
	<path class="st1" d="M308.8,0.5c13.7,0,22.8,6.4,22.8,13.1c0,4.4-3.1,7.1-7.1,7.1c-5.1,0-7.3-6.8-14.2-6.8c-8,0-9.8,6.5-9.8,11.7
		c0,6.3,2.1,12.6,9,12.6c6.6,0,9.5-6.8,15-6.8c4.7,0,7.3,3.7,7.3,7.1c0,3.9-5.5,13.1-23,13.1c-15.7,0-28-7.9-28-25.6
		C280.8,8.4,293.1,0.5,308.8,0.5"/>
	<path class="st1" d="M364.2,11.4c1.9-7.9,4.4-10.9,9.4-10.9c4.8,0,9.3,2.7,9.3,8.2c0,1.6-1.4,6-3.7,12.4l-11.4,32.7
		c-4.3,12.2-12.9,15-21.1,15c-7.8,0-11.6-3.1-11.6-8c0-4.6,3.1-6,7.5-6c4,0,5.1-0.9,5.1-2.3c0-0.8-0.4-2.2-1-3.7l-10.5-29.1
		c-2.4-6.5-3-9.4-3-10.9c0-4.7,4.1-8.2,9.6-8.2c4.5,0,7.2,2.2,8.4,7.2l7.2,27h0.2L364.2,11.4z"/>
	<path class="st0" d="M55.3,0h2.9H55.3z"/>
	<path class="st0" d="M73.6,7.7C61.2,10,54.6,18,54.1,31.7c-0.9,0-1.8,0.1-2.4,0.3c-2.7-4.1-6.2-9.3-9.2-13.8c-1.2-1.8-3-3.8-3.1-6
		c0-3.6,2.8-7.1,5.5-9.1C47.7,1,51.5,0.4,55.3,0h2.9c5.2,0.2,8.9,1.8,12.1,3.9C70.3,3.9,73.7,7.2,73.6,7.7"/>
	<path class="st0" d="M2,7c1.1-0.1,2.1,0.7,2.3,1.3c0.9,3.4-4.6,3.2-4.2,0.3C0.1,8,0.6,7.1,2,7"/>
	<path class="st0" d="M7,7c1.2-0.1,2.1,0.6,2.2,1.4c0.6,3.3-4.6,3-4.2,0.2C5.1,8,5.6,7.1,7,7"/>
	<path class="st0" d="M12,7c1.2-0.1,2.1,0.6,2.3,1.4c0.7,3.3-4.6,3-4.2,0.2C10.1,8,10.6,7.1,12,7"/>
	<path class="st0" d="M61.5,30.8c-1.2-0.1-2.1,0.2-3.2,0.2c-4.5-11,5.8-16.8,14.7-19.3c4.7-1.3,10.6-2.5,14.7,0.2
		c3.4,2.3,6.2,7.1,5.2,12.4c-0.9,0.5-1.8,0.4-2.7,0c0.1,1.7,0.6,3.1,0.6,4.9v2c0,3.4-2.6,5.7-6,4.7c-1,2.8-1.6,6-5.5,6
		c-1.1-7.5-6.6-10.7-15.1-11H61.5z"/>
	<path class="st0" d="M26.3,11.5c8.7,2.1,21,17.5,22.4,21.1c-0.6-0.2-1.3-0.4-1.8-0.8c-2.1-3.8-8.9-10.9-9.5-11.3
		c-3.1-3-6.4-5.8-11.1-7.2c-0.9-0.3-22.6,0-23.2,0c-1.1,0-2.1-0.1-1.7-1.6C2,11.6,25.5,11.4,26.3,11.5"/>
	<path class="st0" d="M20.7,13.1h1.9H20.7z"/>
	<path class="st0" d="M1.7,13.8c2-0.3,3,0.9,2.6,2.5c-0.5,1.7-3.9,1.5-4.2-0.1C-0.3,14.6,0.7,14,1.7,13.8"/>
	<path class="st0" d="M9.2,14.9c0.8,3.2-3.8,3.2-4.2,1.3C4.5,13.8,8.1,13.1,9.2,14.9"/>
	<path class="st0" d="M11.7,13.8c1.3-0.2,2.4,0.4,2.6,1.3c0.9,3.3-4.6,3.2-4.2,0.3C10.1,14.9,10.4,14,11.7,13.8"/>
	<path class="st0" d="M33.7,30c0,0-4.5,0.2-6,1.1c-1.6,1-2.7,3-4.4,4.2c-3.8,3-9.8,3.5-13.4-0.6c-0.2-8.4,4-13,10-15.9
		c2-1,4.9-2.3,7.4-2c3.4,0.4,6.8,4.1,9,6.3c2.2,2.2,4.5,4.5,6.3,7.1c0.2,0.3,0.3,0.8,0.3,0.8C41,30.2,35.5,30,35.5,30H33.7z"/>
	<path class="st0" d="M43.4,33.5l-1.6,1.2c-6.6,4.6-3.5,25.4-3.7,26.6c-0.2,1.1-2,2.9-3.1,3.8c-2,1.6-4.7,2.3-7.1,2.5h-2.3
		c-4.6-0.4-11.5-6.8-12.2-7.7C7.6,45.2,28.7,33,38.3,33L43.4,33.5z"/>
	<path class="st0" d="M49.1,36.3c1.3,0.1,2.2,0.7,3.1,1.4c1-2.2,2.7-3.8,5.8-4.1h1.9c3.6,0.7,7.9,1,10.5,3c1.5,1.2,3,4.7,4.4,7.4
		c1.8,3.4,4.6,8.7,2.4,12.7c-1.7,3-6.3,2.2-10.2,3.5c-2.5,3.5-3.9,9.1-9.7,8.8c-3.5-0.2-5.4-3-7.1-5.5c-1.2,2.3-5.1,1.2-6.6,0
		c-1.1-4.2-2-8.7-2.3-13.7v-4.1c0.4-4.8,1.5-8.8,6.1-9.4H49.1z"/>
	<path class="st0" d="M25.7,67.6h2.3H25.7z"/>
	<path class="st1" d="M399.1,7.7l-0.3-4.6c0-0.6,0-1.3-0.1-2.2h-0.1c-0.2,0.7-0.5,1.6-0.7,2.3l-1.4,4.3h-1.6l-1.4-4.4
		c-0.1-0.6-0.4-1.5-0.5-2.2h-0.1c0,0.7,0,1.4-0.1,2.2l-0.3,4.6H391l0.6-7.7h2.4l1.4,3.8c0.2,0.6,0.3,1.2,0.5,2h0
		c0.2-0.7,0.4-1.4,0.6-1.9l1.4-3.8h2.3l0.6,7.7H399.1z M390.5,0v1.3h-2.5v6.5h-1.6V1.3h-2.5V0H390.5z"/>
</g>
</svg>
