<?xml version="1.0" encoding="utf-8"?>
<!-- Generator: Adobe Illustrator 21.0.0, SVG Export Plug-In . SVG Version: 6.00 Build 0)  -->
<svg version="1.1" id="Layer_1" xmlns="http://www.w3.org/2000/svg" xmlns:xlink="http://www.w3.org/1999/xlink" x="0px" y="0px"
	 viewBox="0 0 395.1 151.4" style="enable-background:new 0 0 395.1 151.4;" xml:space="preserve">
<style type="text/css">
	.st0{fill:#610553;}
	.st1{fill:#FFFFFF;}
</style>
<g>
	<path d="M13.7,122.8l-7.7-12.1v12.1H0V98.7h5.2l7.7,12.1V98.7h5.9v24.1H13.7z"/>
	<path d="M38.9,120.3c-1.8,1.8-3.8,2.7-6.7,2.7s-5-0.9-6.7-2.7c-2.5-2.5-2.4-5.9-2.4-9.6c0-3.6-0.1-7,2.4-9.6
		c1.8-1.8,3.8-2.7,6.7-2.7s5,0.9,6.7,2.7c2.5,2.5,2.4,5.9,2.4,9.6C41.3,114.4,41.4,117.8,38.9,120.3z M34.5,104.8
		c-0.4-0.6-1.3-1.1-2.4-1.1s-1.9,0.5-2.4,1.1c-0.5,0.7-0.9,1.5-0.9,5.9c0,4.4,0.3,5.2,0.9,5.9c0.4,0.6,1.3,1.1,2.4,1.1
		s1.9-0.5,2.4-1.1c0.5-0.7,0.9-1.5,0.9-5.9C35.4,106.4,35,105.6,34.5,104.8z"/>
	<path d="M57.6,122.8l-4.3-9h-2v9h-5.9V98.7H55c5.4,0,8.2,3.8,8.2,7.8c0,3.3-2,5.4-3.9,6.3l5.2,10.1H57.6z M54.7,104h-3.4v4.9h3.4
		c1.6,0,2.6-1.2,2.6-2.4S56.3,104,54.7,104z"/>
	<path d="M89.2,122.8h-4.8l-3.9-11.9l-3.9,11.9h-4.8l-6.6-24.1h6.2l3.2,12.7l3.9-12.7h4.2l3.9,12.7l3.2-12.7h6.2L89.2,122.8z"/>
	<path d="M98.2,122.8V98.7h16.4v5.3h-10.5v4h8.9v5.3h-8.9v4.2h10.5v5.3H98.2z"/>
	<path d="M134.2,120.3c-2.1,2.1-4.4,2.7-7,2.7c-2.8,0-4.9-0.9-6.7-2.7c-2.5-2.5-2.4-5.9-2.4-9.6c0-3.6-0.1-7,2.4-9.6
		c1.8-1.8,3.8-2.7,6.7-2.7c6.2,0,8.8,4,9.4,8h-6c-0.5-1.8-1.4-2.7-3.5-2.7c-1.1,0-1.9,0.5-2.3,1.1c-0.5,0.7-0.9,1.5-0.9,5.9
		c0,4.4,0.3,5.3,0.9,6c0.4,0.6,1.3,1,2.3,1c1.3,0,2.1-0.4,2.6-0.9c0.7-0.7,0.9-1.7,0.9-2.6v-0.3h-3.6V109h9.5v3.4
		C136.6,116.2,136,118.5,134.2,120.3z"/>
	<path d="M140.7,122.8V98.7h5.9v24.1H140.7z"/>
	<path d="M165,122.8l-1.1-3.6h-7.4l-1.2,3.6h-6.2l8.8-24.1h4.6l8.8,24.1H165z M160.3,107.9l-2.2,6.4h4.2L160.3,107.9z"/>
	<path d="M187.3,122.8l-7.7-12.1v12.1h-5.9V98.7h5.2l7.7,12.1V98.7h5.9v24.1H187.3z"/>
	<path d="M213.3,123c-2.8,0-4.9-0.9-6.7-2.7c-2.5-2.5-2.4-5.9-2.4-9.6c0-3.6-0.1-7,2.4-9.6c1.8-1.8,3.9-2.7,6.7-2.7
		c4.6,0,8.3,2.5,9.2,7.9h-6c-0.4-1.4-1.1-2.6-3.1-2.6c-1.1,0-1.9,0.4-2.3,1c-0.5,0.7-0.9,1.6-0.9,6c0,4.4,0.4,5.3,0.9,6
		c0.4,0.6,1.3,1,2.3,1c2,0,2.7-1.2,3.1-2.6h6C221.5,120.5,217.8,123,213.3,123z"/>
	<path d="M237.8,122.8v-9.6h-6.3v9.6h-5.9V98.7h5.9v9.3h6.3v-9.3h5.9v24.1H237.8z"/>
	<path d="M257.3,123c-5,0-9.1-3.4-9.1-8.7V98.7h5.9v15.5c0,2.2,1.2,3.5,3.2,3.5c2,0,3.3-1.3,3.3-3.5V98.7h5.9v15.7
		C266.5,119.7,262.3,123,257.3,123z"/>
	<path d="M283.1,122.8l-4.3-9h-2v9h-5.9V98.7h9.6c5.4,0,8.2,3.8,8.2,7.8c0,3.3-2,5.4-3.9,6.3l5.2,10.1H283.1z M280.2,104h-3.4v4.9
		h3.4c1.6,0,2.6-1.2,2.6-2.4S281.9,104,280.2,104z"/>
	<path d="M301.4,123c-2.8,0-4.9-0.9-6.7-2.7c-2.5-2.5-2.4-5.9-2.4-9.6c0-3.6-0.1-7,2.4-9.6c1.8-1.8,3.9-2.7,6.7-2.7
		c4.6,0,8.3,2.5,9.2,7.9h-6c-0.4-1.4-1.1-2.6-3.1-2.6c-1.1,0-1.9,0.4-2.3,1c-0.5,0.7-0.9,1.6-0.9,6c0,4.4,0.4,5.3,0.9,6
		c0.4,0.6,1.3,1,2.3,1c2,0,2.7-1.2,3.1-2.6h6C309.7,120.5,306,123,301.4,123z"/>
	<path d="M325.9,122.8v-9.6h-6.3v9.6h-5.9V98.7h5.9v9.3h6.3v-9.3h5.9v24.1H325.9z"/>
	<path d="M357.7,122.8l-1.1-3.6h-7.4l-1.2,3.6h-6.2l8.8-24.1h4.6l8.8,24.1H357.7z M353,107.9l-2.2,6.4h4.2L353,107.9z"/>
	<path d="M366.4,122.8V98.7h5.9v24.1H366.4z"/>
	<path d="M392.6,120.5c-1.7,1.7-4,2.4-6.5,2.4h-8.9V98.7h8.9c2.5,0,4.8,0.7,6.5,2.4c2.8,2.8,2.5,5.9,2.5,9.7
		C395.1,114.6,395.4,117.7,392.6,120.5z M388.6,105.4c-0.5-0.8-1.4-1.4-2.8-1.4h-2.6v13.6h2.6c1.5,0,2.3-0.5,2.8-1.4
		c0.5-0.7,0.6-1.3,0.6-5.4C389.2,106.7,389,106,388.6,105.4z"/>
</g>
<g>
	<path class="st0" d="M148.6,138v1.6c-0.9-1.3-2.2-1.9-4.1-1.9c-2,0-3.5,0.6-4.8,2c-1.2,1.3-1.9,3-1.9,4.8c0,3.9,2.9,6.9,6.8,6.9
		c2,0,3.3-0.6,4.1-1.9v1.6h2.9v-13H148.6z M144.7,148.3c-2,0-3.8-1.6-3.8-3.9c0-2.1,1.7-3.7,3.7-3.7c1.9,0,3.7,1.7,3.7,3.9
		C148.3,146.6,146.6,148.3,144.7,148.3z"/>
	<path class="st0" d="M159.4,151.4c2.8,0,4.9-1.4,6-3.7l-2.8-1.4c-0.5,1.4-1.6,2.1-3.3,2.1c-2.1,0-3.7-1.7-3.7-3.9
		c0-2.3,1.6-3.9,3.6-3.9c1.5,0,2.7,0.7,3.4,2l2.7-1.4c-1.1-2.3-3.3-3.6-6-3.6c-2,0-3.7,0.8-5.1,2.2c-1.2,1.3-1.9,2.9-1.9,4.7
		c0,1.7,0.7,3.5,2,4.8C155.8,150.7,157.4,151.4,159.4,151.4"/>
	<polygon class="st0" points="169.2,151 172.2,151 172.2,140.7 175.7,140.7 175.7,138 172.2,138 172.2,133.8 169.2,133.8 169.2,138 
		165.5,138 165.5,140.7 169.2,140.7 	"/>
	<path d="M186,138v1.6c-0.9-1.3-2.2-1.9-4.1-1.9c-2,0-3.5,0.6-4.8,2c-1.2,1.3-1.9,3-1.9,4.8c0,3.9,2.9,6.9,6.8,6.9
		c2,0,3.3-0.6,4.1-1.9v1.6h2.9v-13H186z M182.1,148.3c-2,0-3.8-1.6-3.8-3.9c0-2.1,1.7-3.7,3.7-3.7c1.9,0,3.7,1.7,3.7,3.9
		C185.7,146.6,184,148.3,182.1,148.3z"/>
	<polygon points="193.2,135 191.7,135 190.2,135 190.2,151 193.2,151 	"/>
	<polygon points="197.3,135 195.9,135 194.4,135 194.4,151 197.3,151 	"/>
	<path d="M213.2,138v1.6c-0.9-1.3-2.2-1.9-4.1-1.9c-2,0-3.5,0.6-4.8,2c-1.2,1.3-1.9,3-1.9,4.8c0,3.9,2.9,6.9,6.8,6.9
		c2,0,3.3-0.6,4.1-1.9v1.6h2.9v-13H213.2z M209.2,148.3c-2,0-3.8-1.6-3.8-3.9c0-2.1,1.7-3.7,3.7-3.7c1.9,0,3.7,1.7,3.7,3.9
		C212.8,146.6,211.1,148.3,209.2,148.3z"/>
	<path d="M223.8,137.7c-1.5,0-2.6,0.6-3.5,1.8V138h-3v13h2.9v-5.6c0-3.2,0.6-4.8,2.8-4.8c2.2,0,2.7,1.5,2.7,4.6v5.8h3v-6.9
		c0-1.7-0.1-3.1-0.8-4.3C227.1,138.4,225.7,137.7,223.8,137.7"/>
	<path d="M236.6,148.3c-2.1,0-3.7-1.7-3.7-3.9c0-2.3,1.6-3.9,3.6-3.9c1.6,0,2.7,0.7,3.4,2l2.7-1.4c-1.1-2.3-3.3-3.7-6-3.7
		c-2,0-3.7,0.8-5.1,2.2c-1.2,1.3-1.9,2.9-1.9,4.7c0,1.7,0.7,3.5,2,4.8c1.3,1.3,3,2,4.9,2c2.8,0,4.9-1.4,6-3.7l-2.8-1.4
		C239.3,147.6,238.2,148.3,236.6,148.3"/>
	<path d="M256.5,144.8c0-1.7-0.4-3.1-1.2-4.3c-1.4-1.9-3.4-2.9-5.7-2.9c-1.8,0-3.5,0.8-4.9,2.2c-1.2,1.3-1.8,2.9-1.8,4.7
		c0,1.8,0.7,3.5,1.9,4.8c1.3,1.4,3,2,4.9,2c2.4,0,4.4-1.1,5.7-3.2l-2.6-1.3h0c-0.6,1-1.8,1.6-3.1,1.6c-2.1,0-3.4-1.2-3.6-3h10.4
		C256.5,145.2,256.5,145,256.5,144.8z M246.1,143c0.5-1.6,1.9-2.7,3.5-2.7c1.8,0,3.1,0.9,3.6,2.7H246.1z"/>
	<path d="M198.5,151h3v-11.6h-1.4h-1.6V151z M199.8,135h-1.3v3h3v-3H199.8z"/>
</g>
<g>
	<circle class="st1" cx="197.3" cy="43" r="43"/>
	<path class="st0" d="M213.9,80.8c14.5-6.4,24.6-20.9,24.6-37.8c0-22.8-18.5-41.3-41.3-41.3C174.5,1.8,156,20.2,156,43
		c0,16.9,10.1,31.4,24.6,37.8l0,0c0.9-3.9,2.6-11.5,2.8-12.4c-1.2-0.7-13.3-8.4-13.3-8.4l-7.9-25.7c2.8-0.8,6.8,0.3,8.3,3.1l0,0
		l5.8,12.5c0.2-0.1,0.4-0.2,0.7-0.3c1-0.4,2.1-0.3,3.1,0.1c0,0,15.8,7.5,15.8,7.5c0.7,0.3,1.4,0.9,1.4,1.9c0-1,0.7-1.5,1.4-1.9
		c0,0,15.8-7.5,15.8-7.5c1-0.5,2.1-0.5,3.1-0.1c0.2,0.1,0.4,0.2,0.7,0.3l5.8-12.5l0,0c1.5-2.9,5.5-4,8.3-3.1L224.4,60
		c0,0-12.1,7.7-13.3,8.4C211.3,69.3,213,77,213.9,80.8z"/>
	<path class="st0" d="M196.2,84.3V61.8c0-0.9-0.3-2.2-1.5-2.7c0,0-15.5-7.4-15.5-7.4c-0.4-0.2-0.9-0.2-1.4-0.1c-0.4,0.2-0.8,0.5-1,1
		c-0.4,1,0.1,2.1,1.1,2.7c0,0,5.2,2.9,9.6,5.3l-0.5,2.2l-10.1-5.7c-2-1.1-2.9-3.4-2-5.4c0,0,0,0,0,0c-1.3-2.8-6.2-13.4-6.2-13.4
		c-0.8-1.5-2.3-2.2-3.5-2.3c0.7,2.4,6.7,21.8,6.9,22.5c0.6,0.4,13.9,8.8,13.9,8.8l-3.3,14.3l0,0C186.9,83.3,191.4,84.2,196.2,84.3
		L196.2,84.3z"/>
	<path class="st0" d="M211.9,81.6l-3.3-14.2c0,0,13.3-8.4,13.9-8.8c0.2-0.7,6.2-20.1,6.9-22.5c-1.2,0.1-2.7,0.7-3.5,2.3
		c0,0.1-4.9,10.7-6.2,13.4c0,0,0,0,0,0c0.8,2,0,4.3-2,5.4l-10.1,5.7l-0.5-2.2c4.4-2.4,9.6-5.3,9.6-5.3c1-0.6,1.5-1.7,1.1-2.7
		c-0.2-0.5-0.5-0.8-1-1c-0.4-0.2-0.9-0.2-1.4,0.1c0,0-15.5,7.4-15.5,7.4c-1.3,0.6-1.5,1.8-1.5,2.7v22.5v0
		C203.1,84.2,207.6,83.3,211.9,81.6L211.9,81.6z"/>
	<path class="st1" d="M222.3,18.2c-2.5,0.6-3.4,2.5-4.4,5.8c-2,6.4-5.8,12-12.7,14.3l1.4,6.4c-2.6,1.9-5.8,3-9.3,3
		c-3.5,0-6.7-1.1-9.3-3l1.4-6.4c-6.9-2.2-10.8-7.8-12.7-14.3c-1-3.3-2-5.3-4.4-5.8v-0.5h11.3c2.1,0,3.6,1.7,4.4,3.2
		c1.3,2.3,2.5,3.5,4.5,4.1l1.3-5.7c0.5-1.9,1.7-3.3,3.7-3.3c1.5,0,2.6,0.8,3.2,2.1l2.6,0.7V19l-2,1l1.1,5c1.9-0.6,3.2-1.8,4.5-4.1
		c0.8-1.4,2.3-3.2,4.4-3.2h11.3V18.2z"/>
	<path class="st0" d="M197.1,18.9c0-0.5,0.4-0.8,0.8-0.8c0.5,0,0.8,0.4,0.8,0.8c0,0.5-0.4,0.8-0.8,0.8
		C197.5,19.8,197.1,19.4,197.1,18.9z"/>
</g>
</svg>
