<?xml version="1.0" encoding="utf-8"?>
<!-- Generator: Adobe Illustrator 21.0.0, SVG Export Plug-In . SVG Version: 6.00 Build 0)  -->
<svg version="1.1" id="Layer_1" xmlns="http://www.w3.org/2000/svg" xmlns:xlink="http://www.w3.org/1999/xlink" x="0px" y="0px"
	 viewBox="0 0 414.2 577.9" style="enable-background:new 0 0 414.2 577.9;" xml:space="preserve">
<style type="text/css">
	.st0{fill:#407CCA;}
</style>
<g>
	<path class="st0" d="M142,156.7c0,1-0.3,2-0.1,3.1c0.2,0.8,1.2,2.2,1.7,1.3c0.6-1.1,1.5-2.6,0.8-3.9c-0.6-1.2-0.2-2.7-1.4-3.4
		c-0.6-0.4-1-0.1-1.4,0.3c-0.4,0.4-0.4,0.9-0.2,1.2C141.6,155.7,141.9,156.3,142,156.7 M141.4,163.6c0.3,0.8,1.6,0.4,2.1-0.1
		c0.1-0.3,0-0.9-0.4-1.2c-0.4-0.4-1-0.3-1.3-0.6c-0.2-0.1-0.5-0.3-0.7-0.3c-0.3,0.3-0.3,0.8-0.2,1.1
		C141.1,162.9,141.3,163.2,141.4,163.6 M144.4,170.7c0.2-0.5,0.4-0.7,0.7-1.2c0.4-1.1-0.2-3-1.7-3c0-1.5-1.3-2-2.4-1.1
		c-1.3,1.1,0.2,3,1.2,4.4c0.1,0.3,0.4,0.8,0.5,1.1C143.2,171.4,144.1,171.3,144.4,170.7 M140.3,158.5c0-0.2-0.4-0.2-0.5-0.2
		c-0.6,0.2-0.8,0.7-0.9,1.2c-0.2,0.8,0.1,1.6,0.7,2.1c0.2,0.4,0.7-0.1,0.9-0.6C140.9,160.3,140.4,159.4,140.3,158.5 M144.5,164.6
		c0.2-0.2,0.7-0.6,0.5-1.1c0.4,0.1,0.8,0,1.1-0.5c0.2-0.2-0.3-0.5-0.1-0.8c-0.8-0.2-1.4,0.6-2.1,1.2
		C143.4,164,144.2,164.8,144.5,164.6 M144.7,174.7c0.1-0.5,0.4-0.9,0.1-1.3c-0.1-0.1-0.3,0-0.3,0c-0.5-0.3-0.6,0.4-1,0.1
		c-0.1,0.8,0,1.3,0.5,1.5C144.2,175,144.7,175.1,144.7,174.7 M144.9,179c0,0.9,0.5,1.6,1.1,1.8c0.2-0.6,0.7-1.2-0.2-1.8
		C145.7,179,145.2,179,144.9,179 M82.6,205.7c-0.2,0.1-0.3,1.1,0,1.3c0.3,0.3,1,0.2,1.5,0.2C83.7,206.5,83.8,205.1,82.6,205.7
		 M89.1,212.4c-0.6,1,0.7,2.1,2.2,2.3c0-0.5,0.2-1.1-0.1-1.5C90.7,212.4,89.4,211.8,89.1,212.4 M92,216.3c-0.2,1.8,0.5,3,2.4,3.3
		C94.7,217.7,93.9,216.6,92,216.3 M210.5,157.5c0.5-0.5-0.2-1.1-0.7-1.4c0.5-0.5,1.1-0.8,0.9-1.7c-0.6,0.2-1.3,0.4-1.6,0.8
		c-0.3,0.6-0.4,1.7,0,2.3C209.3,157.7,210.3,157.8,210.5,157.5 M197.7,167.3c-1,0.3,1.8,1.5-0.2,2.2c1.4,1.7,5,1.1,4.6-0.5
		C201.6,167.6,199.3,166.8,197.7,167.3 M220.3,156c0.2-0.1,0.3-1.1,0-1.4c-0.3-0.2-0.9,0-1.5-0.1c-0.7-0.3-0.9-0.8-1-1.5
		c0-0.9-0.8-1.5-0.6-2.5c-1.1,0.5-1,1.7-0.7,2.2C217.5,154.2,218.2,156.5,220.3,156 M196.3,143.6c-0.7-0.3-1.2,0.1-0.7,0.7
		c0.2,0.3,1,0.1,1.5,0.1C196.9,144.2,196.7,143.8,196.3,143.6 M78.6,181.9c0.2-0.4-0.3-0.7-0.6-1c-0.4-0.4-1,0.1-1.3-0.4
		c0,0.4-0.1,0.9,0.1,1.1C77.2,182.1,78,182.5,78.6,181.9 M85.5,181.9c0.7-0.4,1.6-0.6,1.2-1.7c0-0.1-0.2,0-0.3,0
		c-1.1-0.6-2.5-0.4-2.3,0.9C84.1,181.7,84.8,182.4,85.5,181.9 M199.1,111.8c0.3-0.7,1.4-0.8,1.2-1.5c-0.1-0.3-0.8-0.3-1.1-0.3
		c-0.5,0-0.4,0.7-0.4,1.3c-0.2-0.1-0.4,0-0.4,0.2C198.5,111.8,199,111.9,199.1,111.8 M202.6,110.5c0.2-0.2,0.8-0.6,0.3-1.1
		c-0.4-0.4-1.1-0.4-1.3-0.2C201.1,109.7,201.9,111,202.6,110.5 M194.2,136.5c-0.7-0.4-2.1-0.2-2.3,0.5c-0.4,1.1,1.6,2.6,2.7,1.9
		C195.4,138.3,195,136.9,194.2,136.5 M193.9,143.4c-0.4-0.4-1.2-0.2-1.8,0c-0.1,0.1-0.3-0.1-0.5-0.2c-0.1,0.5,0.3,0.7,0.5,0.7
		c0.8,0,1.5,1.2,2.2,0.7C194.8,144.2,194.3,143.6,193.9,143.4 M191.2,146.8c-0.6,0.4-0.5,1.4,0.1,1.9c0.6,0.3,1.5,0.2,1.8-0.6
		c0.2-0.7,0.7-1.6,0-2.1C192.3,145.4,191.9,146.3,191.2,146.8 M190.3,144.2c-0.3-0.4-0.7-0.3-1.2-0.3c0.1,1.1-0.5,2.1-0.2,3.1
		c0.2,0.6,1,0.4,1.1,0c0.3-0.9,0-1.7,0.7-2.4c-0.1,0-0.3-0.2-0.4-0.1C190.3,144.4,190.3,144.3,190.3,144.2 M202.6,199.7
		c0,0,0.1,0,0.1,0c0,0,0.1,0,0.1,0H202.6z M214.3,195.2c0.6-0.5,0.7-1.3,0.4-1.8c-0.2-0.4-1.1-0.4-1.2,0.2c-0.2,0.6,0.1,1.1,0.4,1.6
		C213.8,195.3,214.2,195.3,214.3,195.2 M214.7,192.3c0.6-0.1,0.2-0.7-0.1-1.1c-0.2-0.2-0.7-0.3-0.8-0.1
		C213.4,191.7,213.9,192.6,214.7,192.3 M218.2,196.1c0.9,0.1,1.8,0.1,2.4-0.8c-0.1,0-0.3-0.2-0.2-0.3c-0.5,0-1-0.4-1.7-0.2
		c-0.2,0-0.6-0.1-0.9-0.1C217.7,195.2,217.6,195.9,218.2,196.1 M230.9,194.4c0.2,0,0.1-0.9-0.1-1c-0.9-0.2-1.6,0.8-2.6,0.4
		c0,0.4-0.1,0.7-0.3,0.8c-0.1,0.1-0.4,0.1-0.6,0.1C228.3,195.9,229.8,194.7,230.9,194.4 M237.1,190.6c0-0.8-1.1-0.8-1.4-0.2
		c0.1-0.1,0.2-0.3,0.3-0.5c-0.5,0.4-1.3,0.4-1.2,1C235.1,192.4,236.9,191.7,237.1,190.6 M286.9,159.6c0.4-1.5-1.3-3-2.8-2.8
		c-1.3,0.1-1.3,1.3-1.7,2.3c-0.4,0.8,1.2,1,1.9,1.3C285.2,160.6,286.7,160.5,286.9,159.6 M267.9,190.4c0.5,0,1-0.4,1.4-0.7
		c0.4-0.5,0.4-1.2-0.1-1.3c-0.5-0.2-1.1-0.5-1.6-0.2C266.8,188.6,266.7,190.4,267.9,190.4 M286.8,140.8c0.6-0.2,1-1.2,0.4-1.4
		c-0.4-0.2-1.2-0.2-1.5,0.4C285.3,140.5,286.2,141.1,286.8,140.8 M224.9,110.5c1-0.2,1.9-0.2,2.9-0.1v-0.2c-0.1-1.7-1.7-1.5-2.7-0.8
		c-0.1,0,0,0.2,0,0.2c-0.3,0.2-0.8-0.1-1,0.1C223.8,110.2,224.4,110.6,224.9,110.5 M227.7,118.2c0.4,0.2,0.6-0.7,0.8-1.1
		c1.1-1.4,2.6-2.3,4.2-3.1c0.1,0,0-0.4,0-0.6c-0.1,0.1-0.1,0.2-0.2,0.5c-0.3-0.8-0.9-1.3-1.6-1.6c-0.1,0.7-0.8,1.1-1.1,1.4
		c-0.8,0.6-1.9,1.3-2.2,2.2C227.3,116.6,227.1,117.7,227.7,118.2 M213.2,107.3c-0.1,0.5-0.2,1,0.4,1.1c0.8,0.2,0.8-1,0.4-1.2
		C213.8,107,213.3,106.9,213.2,107.3 M179.6,83.1l-0.6-0.1c-1-0.3-1.3,0.6-1.9,1.2c-0.3,0.4,0.4,0.5,0.4,0.5
		c1.2,0.6,2.6,0.6,3.8,0.6c0.2,0,0.9-0.7,0.6-1.2C181.3,83.5,180.3,83.9,179.6,83.1 M266.3,103.1c0.8,1.1,1.7,0.5,2.8,0.2
		c-0.3,0.4,0.3,0.4,0.4,0.5c0.5,0.3,0.7-0.8,1.2-0.5c0.1,0.1,0.1,0.8,0,0.9c-0.7,0.4-0.7,1.1-1.3,1.4c-0.4,0.3-1.2,0.3-1.6-0.5
		c-0.1-0.1-0.4,0-0.6,0h0.2c-0.3,0.5,0,1.4-0.3,1.7c-1.2,1.1-3.9,1.9-2.7,3.6c0.9,1.2,2.9,0.9,4.6,0.7c0.2,0,0.4-0.3,0.3-0.5
		c-0.2-1.5,0.7-1.8,1.7-2.6c0.4-0.4-0.3-0.8-0.8-1.3c-0.4-0.2,0-1.2,0.5-1.2c0.6,0,0.6-0.8,1.2-0.6v-1c1,0.1,1.8-0.5,1.6-1.4
		c-0.3-1.1-1.3-2-0.9-3.2c0.1-0.4,0.4-0.9,1.1-1.1c0.3-0.1,0.5-0.5,0.2-0.7c-0.1-0.1-0.4-0.1-0.5-0.1c0,0.4-0.6,0.2-0.4,0.6
		c-1,0.2-2.1,0-3,0.6c-1.1,0.5-0.6,1.9-1.3,2.8c-0.4,0.6-1.3,0.3-2.1,0.6C266,102,266.1,102.8,266.3,103.1 M259.6,111.1
		c-0.6-0.1-1.1,0.2-1.6,0.2c0.1,1.2,1.4,0.6,2,0.2C259.6,111.7,259.9,111.1,259.6,111.1 M272.8,109c-0.7,1,1.2,1,2,0.6
		c0,0,0-0.2,0-0.4v0.2c0-0.2,0-0.3-0.2-0.4C273.9,108.5,273,108.6,272.8,109 M276.1,104.9c0-0.1-0.1-0.2-0.1-0.5
		c-0.1-0.1,0.1-0.4-0.1-0.5c-0.2-0.1-0.6,0-1,0C275.4,104.1,275.4,105,276.1,104.9 M227.8,17.8c-3,1.9-6.3,2.4-9.3,3.1
		c-2.4,0.6-8.6,0.1-8.9,3.7c3.3,0,7,0.3,9,3.3c0.3,0.4,1.5,0.2,2.3,0.2c-1.1-2.1-2.8-3.9-2.3-6.6c3.1,1.1,5.9,0.6,9-0.4
		c2.3-0.6,5,0.5,7.2-1c0.3-0.2,0-1,0-1.6C232.3,19.7,230.1,16.3,227.8,17.8 M234.6,43.7c-1-0.8-2.1-0.9-3.4-0.8
		c0.9,1.6,2.5,1.9,4,2.5C235.5,44.5,235.1,44.2,234.6,43.7 M228.9,47.8c-0.5,0.2,0.1,1.1,0.6,1.5C229.4,48.6,230.3,47.2,228.9,47.8
		 M225.1,43c0,0.2-0.1,0.7,0.1,0.8c0.5,0.3,0.7,0.7,1.3,1.1c0.2,0,0.5,0,0.6,0c0-0.1,0-0.2,0-0.4C227.1,43.4,226,43.1,225.1,43
		 M236.2,55.6c-0.2-0.4,0.3-0.9-0.2-1.2c-0.2-0.1-0.4-0.1-0.5,0c-0.6,0.6-0.1,1.2-0.1,1.8c0.1,0.2,0.4,0.3,0.6,0.1
		c0.2-0.2,0.4-0.5,0.2-0.9V55.6z M239.5,57.3c-0.3-0.2-0.3-0.4-0.3-0.7c0.1-0.7-0.4,0-0.5-0.3c-0.1,0.5,0,0.8,0.3,1.1
		C239.2,57.5,239.4,57.5,239.5,57.3 M238.2,57.8C238.2,57.7,238.2,57.7,238.2,57.8c-0.5-0.6-1.3-1-1.8-0.5c-0.5,0.6,0.6,0.6,0.9,1.5
		c0.1,0.5,0.6-0.2,0.7-0.7C238.1,58,238.2,57.9,238.2,57.8c0,0.2,0.1,0.2,0.2,0.3C238.4,57.9,238.3,57.9,238.2,57.8 M238.9,59.1
		h-0.4c0.3,0.2-0.4,0.1-0.2,0.4c0.6,0.8,1.7,1.2,2.4,1c0.4-0.3,0.8-1,0.4-1.3C240.5,58.9,239.7,59.1,238.9,59.1 M243.2,61.2
		c0.4-0.2,0-0.6,0-0.8c-0.2-0.6-0.5-1.1-0.9-0.7c-0.4,0.2-0.6,1.1-0.1,1.4C242.4,61.2,242.9,61.4,243.2,61.2 M244.7,64
		c0.2,0.2,0.8-0.2,1-0.4c0.2,0,0.1-0.4,0.1-0.6c0.2,0.1,0.3,0,0.3-0.2c0.2-0.3,0.1-0.8-0.3-0.9c-0.3-0.1-0.7,0.4-1,0.1
		c-0.1,0,0.1-0.2,0-0.3c-0.3-0.2-0.7-0.4-1-0.2c-0.4,0.3-0.4,1-0.2,1.3C243.9,63.2,244.3,63.6,244.7,64 M237.7,15.9
		c0.4,0.6,1,1.1,1.7,0.6c-0.1,0-0.2-0.1-0.2-0.2c0,0,0.2-0.1,0.2-0.2C238.9,15.6,238.3,16,237.7,15.9 M273.1,41
		c0.5,0.5,1.7-0.1,2.3,0.5c0.6,0.6,1,1.7,2,1.7c0.6,0,1.1-0.3,1.2-0.9c0.2-1.6-0.5-3.5-2.1-4.2c-1.5-0.5-3.1-0.5-4.6-0.4
		c-1,0-1,1.1-0.6,1.6C271.8,39.8,272.4,40.4,273.1,41 M274.1,88.1c0.1,0,0.2,0.1,0.4,0.1c0,0,0.1,0,0.1,0L274.1,88.1z M295,114.4
		c-0.2-1-0.7-1.6-0.9-2.6c-0.2-0.7,0-1.6-0.1-2.5c-0.1-1.5-1.7-1.7-3-1.7c-0.6,0-1.3-0.2-1.4,0.4c-0.1,0.6-0.1,1.2,0.4,1.9
		c2.3,2.6,2.1,6.4,3.1,9.5c0.4,1.3,2.5,0.3,2.9-1.1c0.2-0.7,0.2-1.5,0.1-2.1C295.9,115.6,295.2,115.1,295,114.4 M290.7,106h0.4
		c0.6,0.3,0.6-0.5,0.8-0.8c-1.2,0.1-1-1.2-0.9-1.9c-0.1,0-0.3-0.1-0.4,0C289.5,104.1,290.9,104.9,290.7,106 M290.5,100.5
		c0-0.1-0.3,0-0.5,0c0.1-0.7-0.1-1.3-0.8-1.4c-0.1,1-1.2,0.8-1.7,1.3c-0.7,0.5,0.1,1.5,0.8,1.8c0.2,0,0.2,0.3,0.3,0.3
		C290,103.1,291.1,101.9,290.5,100.5 M288.8,98.3c0.5-0.4,0-1.3-1-1.4c-0.4-0.1-0.4-0.8-0.3-1.3c-0.3,0-0.5-0.2-0.6-0.3
		c-1-0.7,0.9-1.2,0.3-2.1c-0.2-0.2-0.1-0.6-0.3-0.6c-0.4-0.2-0.8,0-0.9,0.5c-0.3,0.4,0.3,0.9,0,1.4c-0.3,0.6-1.4,1-0.9,1.4
		c1.3,0.7,0,2.1,1,2.5C286.8,98.7,288.2,99,288.8,98.3 M284.9,91.1c-0.3,0.2-0.1-0.6-0.4-0.2c0.1-0.5,0.4-1.2-0.1-1.4
		c-0.6-0.3-1.5,0.3-2-0.7c-0.1-0.1-0.5-0.1-0.7,0c-0.2,0.1-0.2,0.3-0.2,0.4c-0.3,0.5-0.7,0.8-0.3,1.2c0.5,0.4,0.7,0.8,0.9,1.2
		c0.4,0.7,1.3,0,1.5,0.6c0.2,0.6,0.7,0.7,1.1,0.5C285.1,92.4,284.7,91.6,284.9,91.1 M213.6,134.5c-0.1,0.3-0.1,0.7,0.2,1.1h0.4
		c0-0.2,0-0.4,0.2-0.7c0.3-0.3-0.1-0.8-0.3-1.1c-0.3-0.4-1.1,0-0.8,0.7H213.6z M243.7,311.4c-12.4,0-24.9,2.2-36.5,5.8
		c-11.7-3.6-24.1-5.8-36.6-5.8c-38.2,0-79.7,22.1-96.1,10.4c0,0,16.7,14.5,50.6,14.5c33.7,0,46.7-17,70.1-17c1.6,0,3.3,0.1,4.9,0.3
		c-21,7.7-38.5,19.7-46.3,31.3l6.7,3.4c8.6-13.3,27.2-28.6,46.7-33.4c19.4,4.8,38,20.1,46.6,33.4l6.7-3.4
		c-7.8-11.6-25.2-23.6-46.3-31.3c1.6-0.2,3.3-0.3,4.9-0.3c23.5,0,36.3,17,70.1,17c33.8,0,50.5-14.5,50.5-14.5
		C323.4,333.5,282,311.4,243.7,311.4 M364.4,282.1c-5.3,5.3-25.2,9.8-33.2,11.2c-8.1,1.4-31,9.8-36.1,10.7c-5.1,0.8-2.2-0.9-2.2-0.9
		c17.9-2.5,35.2-57.3,35.2-57.3c-15.5,12-30.8,31.6-36.7,43.9c-5.8,12.3-17,19-17,19c16.2,4.7,35.7,6.4,35.7,6.4
		c39.7,0,61.8-36.8,61.8-36.8S368.9,277.6,364.4,282.1 M381.5,240.7c-29.4,19.9-43,36.3-45.8,39.1c-2.8,2.8-1.5-1-1.5-1
		c21.6-26.6,18.8-69.9,18.8-69.9c-19,27.4-25.7,52.5-26.6,63.4c-0.8,11-5,17.4-5,17.4c64.3-4.2,76.3-65.7,76.3-65.7
		C396.8,228.1,381.5,240.7,381.5,240.7 M396,192.4c-11.5,11.4-19,22.3-22.1,28.2c-3.1,5.8-5.9,7.5-5.9,7.5
		c3.9-8.1,4.5-23.2,4.5-25.4c0-2.2-2.5-20.1-4.7-24.5c-2.2-4.5-2.2-14.5-2.2-14.5c-6.9,11.3-7.8,28-7.8,37c0,9,2.5,29.1,2.5,35
		c0,5.9-1.6,12.8-1.6,12.8c1,0.6,10.3-10.6,10.3-10.6c8.1-8.7,14.2-5,29.1-26.3c14.8-21.1,12-41.2,12-41.2S407.5,181,396,192.4
		 M410.8,108.9c0.8,9.8-8.1,23.8-14.8,38.6c-6.7,14.8-8.2,30.9-8.2,32.4c0,1.4-1.3-0.3-1.3-0.3s0-5.1-2-17c-1.9-12-7.9-15.6-12-27.7
		c-4.2-12-6.4-10-6.4-10c-2.8,31,10.5,55.2,12.9,59.2c2.2,3.9,2.7,16.2,2.7,16.2c27.7-31.5,31.9-59.2,32.4-75.2
		C414.7,109.2,410.8,108.9,410.8,108.9 M385.6,110c2.2,22.4,1.1,21,1.1,21c-1.1-13.4-12.8-25.9-14.8-27.6
		c-1.9-1.7-13.1-12.8-15.4-16.8c-2.2-3.8-4.2-2.8-4.2-2.8c1.9,15.4,25.1,49.2,28.5,52.8c3.3,3.7,8.2,14.8,8.2,14.8
		c1.3,0,4.1-10.3,4.1-10.3c8.4-19.8,8.6-36,8.6-36c-5.8-45.8-16.7-47.5-16.7-47.5C392.9,73.2,383.4,87.7,385.6,110 M370.3,75.9
		c0,0,1.7,4.5,0.6,4.7c-1.1,0.4-3.4-4.1-3.4-4.1c-16-20.2-21.5-16.7-26.8-23.8c-7-9.1-8.4-7.3-8.4-7.3c3.9,16.8,25.7,38.3,32.6,42.5
		c7,4.2,15.7,13.1,15.7,13.1c1.1-1.5,2-26.6,2-26.6C379.5,39.9,358,27.6,358,27.6c2.2,3.1,8.7,26.8,8.9,31.3
		C367.2,63.4,370.3,75.9,370.3,75.9 M347.9,53.6c10.3,6.8,14.2,10.6,14.2,10.6s1.5-30.2-38.4-45.5C323.8,18.6,337.6,46.9,347.9,53.6
		 M139.9,308.6c0,0-11.2-6.7-17.1-19c-5.8-12.3-21.2-31.9-36.6-43.9c0,0,17.3,54.8,35.3,57.3c0,0,2.8,1.7-2.2,0.9
		c-5-0.9-28-9.3-36.1-10.7c-8.1-1.4-27.9-5.8-33.3-11.2c-4.4-4.5-7.6-3.9-7.6-3.9S64.3,315,104.1,315
		C104.1,315,123.6,313.4,139.9,308.6 M87.8,272.3c-0.8-10.9-7.5-36-26.5-63.4c0,0-2.8,43.3,18.7,69.9c0,0,1.5,3.9-1.3,1
		c-2.8-2.8-16.5-19.2-45.9-39.1c0,0-15.3-12.6-16.1-16.7c0,0,12,61.5,76.2,65.7C92.9,289.7,88.7,283.3,87.8,272.3 M45.4,237.9
		c0,0,9.2,11.2,10.3,10.6c0,0-1.7-7-1.7-12.8c0-5.9,2.5-26,2.5-35c0-9-0.8-25.7-7.8-37c0,0,0,10-2.2,14.5
		c-2.3,4.4-4.8,22.3-4.8,24.5c0,2.2,0.5,17.4,4.5,25.4c0,0-2.8-1.6-5.9-7.5c-3.1-6-10.6-16.8-22-28.2c-11.4-11.5-14-22-14-22
		s-2.8,20.1,12,41.2C31.1,233,37.2,229.2,45.4,237.9 M35.3,184c2.2-4,15.7-28.2,12.8-59.2c0,0-2.2-2-6.4,10
		c-4.2,12-10,15.6-12.1,27.7c-2,11.9-2,17-2,17s-1.3,1.7-1.3,0.3c0-1.5-1.5-17.6-8.1-32.4c-6.7-14.8-15.7-28.8-14.8-38.6
		c0,0-3.9,0.3-3.4,16.2c0.6,16,4.8,43.6,32.5,75.2C32.5,200.2,33.1,187.9,35.3,184 M25.2,151.3c0,0,4.8-11.1,8.2-14.8
		c3.4-3.6,26.5-37.4,28.5-52.8c0,0-2-1-4.2,2.8c-2.2,4-13.4,15.1-15.4,16.8c-2,1.7-13.6,14.3-14.8,27.6c0,0-1,1.4,1.2-21
		c2.2-22.3-7.3-36.8,0.6-52.5c0,0-10.9,1.7-16.8,47.5c0,0,0.3,16.2,8.7,36C21,141.1,23.8,151.3,25.2,151.3 M49.3,88
		c7-4.3,28.7-25.7,32.7-42.5c0,0-1.4-1.9-8.4,7.3c-5.3,7-10.9,3.6-26.8,23.8c0,0-2.3,4.5-3.4,4.1c-1.2-0.2,0.5-4.7,0.5-4.7
		s3.1-12.5,3.3-17.1c0.3-4.5,6.7-28.2,9-31.3c0,0-21.6,12.3-24.6,46.9c0,0,0.8,25.1,1.9,26.6C33.6,101.1,42.3,92.2,49.3,88
		 M52.1,64.2c0,0,3.9-3.8,14.2-10.6c10.3-6.7,24-34.9,24-34.9C50.6,34,52.1,64.2,52.1,64.2 M207.1,293.5
		c81,0,146.7-65.7,146.7-146.7C353.8,65.8,288.1,0,207.1,0c-81,0-146.7,65.8-146.7,146.8C60.4,227.9,126.1,293.5,207.1,293.5
		 M64.6,148.9H91c0.2,11.5,2.1,22.7,5.4,33.2c-0.4,0-0.8,0.1-1.1,0.2c-0.1,0.1-0.5,0.3-0.7,0.5c-1,0.4-1.4-0.7-1.9-1.2
		c-0.6-0.6-0.7-1.6-1.3-2c-1.2-0.6-2.8,0.1-3.7,1.3c0.5-0.1,0,0.6,0.4,0.6c-1.3,0.1-2.3,1.2-3.3,1.7c-1.3,0.7-1.6-1.6-1.8-3
		c-0.1-0.7-1.3-1.2-2.2-0.6c-0.2,0.2-0.4,0.4-0.4,0.8c-0.3,0-0.5-0.4-0.8-0.1c-0.9,1,0.7,0.9,1.1,1.5c0.3,0.3-0.1,0.6-0.4,0.9
		c-0.4,0.4-1.1-0.4-1.2,0c-0.2,0.7-0.6,1-1.1,0.8c0,0.2-0.1,0.3,0,0.4c0,0.2,0.1,0.3,0.3,0.2c-0.5,0.2-1,0.5-1.4,0.3
		c-0.5-0.3-0.3-1-0.5-1.6c-0.1-0.1-0.6,0-0.6,0.2c-0.2,1,0.1,1.3-1,1.4c0.1,0.4-0.3,1,0.2,1.1c0.6,0.3,1.2-0.4,1.7,0
		c0.8,0.8,0.7,2.1,1,3.2c0,0.1-0.2,0.2-0.4,0.2c0.2,0.6,0.4,2.1-0.5,1.5c-1-0.6,0.2-2.1-0.4-3.1c-0.1-0.2-0.8-0.1-1.3-0.1
		c0.6,1.5-0.7,3.2,0.6,4.6c0.5,0.7-1.6,1.6-0.8,2.4c0.5,0.4,1.2,0.9,1.9,1c0.4,0,0-0.8,0.1-1c0.1-0.4,1.2-0.7,1.5-0.2
		c0.1,0.3,0.3,0.8,0.3,1.3c-0.5-0.1-1,0.1-1.5,0.3c0.4,1-0.2,1.7-0.4,2.6c0,0.2,0.3,0.6,0.4,0.8c0.3,0.8,1.5,0.1,1.9,0.7
		c0.3,0.5-0.6,1.1-0.3,1.8c0.2,0.4,0.9,0.2,1.3,0.6c0.5,0.3,0.3,0.9,0.3,1.5c0.5-0.1,1.2,0.5,1,1.1c0.6,0.2,0.7-0.4,0.6-0.8
		c1.2,0,0.7-1.1,0.8-2.1c-0.4,0.2-0.4-0.7-0.8-0.3c-0.3-0.7,0-1.4-0.2-2c-0.4-0.7-1.3-0.8-1.5-1.8c0.9,0.2,1.5-0.1,2-1
		c0.3-0.5,1,0.2,1.3,0.8c0.2,0.1,0.1,0.3,0.1,0.6c0.8-0.3,0.8,0.5,1.1,0.9c0.6,0.4,0.8,1.2,1.5,1.5c1.1,0.3,2.2,0.3,3.3,0.1
		c-0.1-0.5,0-1,0.3-1.2c0.5-0.4,0.7,0.5,1.3,0.6c-0.3,1.1,0.3,2,1.2,2.5c0.2,0,0.6-0.1,0.8,0c0.4,0.3,0.5,0.8,1,1
		c0.4,0.1,0.7-0.2,1-0.1c0.6,0.1,0.6,0.6,0.6,1.2c0.1,0,0.4,0.2,0.4,0.4c1-0.2,2.1,0.1,2.4,1c0.5,1.3,1.5,2.3,2,3.5
		c0.2,0.6,1.3,0.8,1.4,1.3c0.1,0.5,0.4,0.7,0.5,0.8c0.7,0.8,1.7,1,2.7,1.3c0.3,0.1,0.9-0.6,1.5-0.8c0.3-0.1,0.7,0.2,0.7,0.3
		c0.9,1.5,1.2,3.6,2.7,4.5c0.8,0.4,1,1.4,1.8,1.6c0.5,0.1,1.1-0.4,1.6,0c0.3,0.2,0.4,0.9,0.7,0.9c1.1,0.5,2,1.2,2.2,2.4
		c0,0.2,0.2,0.6,0.5,0.6c0.5,0.1,1-0.1,1.4-0.2c1.7,2,3.4,3.9,5.2,5.7L104.9,246C80.5,220.8,65.2,186.7,64.6,148.9 M197,112.9
		c-1.2,0.6-1.8,1.9-3,2.6c-0.2,0.2-0.2,0.4-0.1,0.6c0,0.1,0.1,0.1,0.1,0.2c-3.3,1.4-6.2,3.3-8.9,5.6l-15.7-15.7
		c9.4-8.8,21.8-14.2,35.6-14.8v22.3c-2.7,0.2-5.3,0.6-7.8,1.4c0-0.4,0-0.8,0.1-1.1c0-0.2,0.1-0.3,0.3-0.2c0.4,0,0.4-0.4,0.5-0.8
		C197.7,112.9,197.2,112.8,197,112.9 M143.9,199.4c0.5-0.5,0.4-1.4,0.2-1.9c0-0.2-0.2-0.6-0.7-0.6c0.1-1.2,0.8-2.1,0.1-3.2
		c-0.8-1-1.8-1.6-2.1-2.9c0-0.1-0.6-0.4-0.6-0.6c0-1.5,0.4-3.1,0.2-4.6c-0.2-0.6-0.9-1.4-0.4-1.8c0.2-0.2,0.8-0.6,1.3-0.7
		c1-0.4,1.4-1.1,0.9-1.8c-0.5-0.7-1.6,0-2.3-0.3c-0.4-0.1-0.4-0.3-0.4-0.7c-0.2-0.6,0.4-1.6-0.1-1.9c-0.5-0.2-0.9-0.6-1.1-0.9
		c-0.5-0.8-0.1-1.6,0.5-2.4c-0.3,0.1-0.2-0.6-0.6-0.4c-0.1-0.8,0.5-1.7,0.1-2.3c-0.3-0.7-0.8-1.6-1.7-1.2c-0.1,0,0,0.2-0.1,0.2
		c-0.5,0.5-1.1,0.6-1.5,0.1c-0.1-0.1-0.1-0.6,0-0.9c0.4-0.4,1.1-0.2,1.4-0.6c0.7-0.7,0.1-1.7-0.2-2.1c-1.1-0.9-1.5-1.8-1.3-3.1
		c-1.2-0.2-3.1-0.3-3-2c0.1-1.5-0.3-2.9-0.6-4.4c-0.3-1.1-0.2-2.2,0.4-3c0.2-0.2,0.4-0.7,0.7-0.7c1.6-0.2,3.5,0.1,4.4-1.4
		c0.6-1.1-0.6-2.7,0.3-3.4c1.3-0.9,3-0.7,4.6-1h5.4c0.1,1.9,0.2,3.8,0.5,5.7c-0.8,0.2-1-0.5-2.2-0.3c-0.7,0.1-1.3-0.1-1.2,0.5
		c0.1,0.4,0.6,1.3,1,1.4c1.1,0.3,2,0.5,2.8,0.7c2,11.7,7.4,22.2,15.2,30.6l-17,17c0-0.2-0.3-0.4-0.4-0.4c-0.3-0.1-0.6-0.1-0.9-0.2
		c-0.8-0.8-1.6-1.7-2.3-2.5c0.4-0.2,0.7-0.5,1.1-0.6C143.6,200.2,143.6,199.5,143.9,199.4 M130.1,159.6c0.9,0.7-0.5,2.4-1.7,2.5
		c-1.6,0.1-3.7-0.3-4.3-2c-0.1-0.2-0.2-0.3-0.4-0.5c-0.5-3.5-0.9-7.1-1-10.7h9.8c-0.6,1.1-1.3,2.3-2.1,3.6
		C129.6,154.2,128.4,158.3,130.1,159.6 M128.7,222.3l-2.2,2.2c-0.8-0.8-1.6-1.6-2.3-2.4c0.1,0,0.2,0,0.3,0c0.7-0.3,0.7-1.5,1.5-1.6
		C127.2,220.2,127.7,221.7,128.7,222.3 M146.9,124.1c0.4,1.2-0.2,2.6-1.3,3c-1.3,0.5-2.8,0.4-4,0.9c-0.6,0.2-1.4,0.8-1.7,1.4
		c-2,3.6-4,7.3-4.1,11.5v0.5c0,0.2,0.4,0.5,0.4,0.6c-0.5,1-0.9,1.9-1.3,2.7h-12.1c0.6-21.7,9.3-41.4,23.3-56l17.4,17.4
		c-3.9,4.2-7.3,9-9.9,14.3c-0.4-0.1-0.7-0.1-1,0.1c-0.7,0.6-1.5,0.7-2.1,1c-0.2,0.2-0.2,0.7-0.3,1.2c0,0.3-0.6,0.2-0.8,0.2
		c-1,0.3-2.6-0.2-2.8,1.3H146.9z M147.7,140.7c-0.1,1.3-0.2,2.7-0.2,4h-4.5c-0.1-0.2-0.2-0.4-0.3-0.5c-0.7-1-2.2-0.5-2.7-1.6
		c-0.2-0.6-0.2-1.2,0-1.6c0.4-0.8,1-1.5,1.8-1.9c1.8-0.7,3.4-0.2,5,0.7C147.1,140,147.4,140.4,147.7,140.7 M152.7,157.7
		c0.6,0.1,1.2,0.2,1.9,0.3c0.8,0.2,1.4,1.1,2.3,1.3c0.7,0.1,1.5,0.5,2.2-0.4c0.2-0.3,1,0,1,0.2c0.2,0.7,0.6,0.7,1.1,1
		c1.2,0.6,0.8,3.5,2.3,2.5c0.8-0.5,1.5,0.1,2.4-0.1c-0.9,1.2-0.4,2.5,0.4,3.4c0.7,0.9,1.7,1.3,2.6,2.1c0.7,0.8,1.7,0.6,1.9-0.5
		c0.2-1.1-1.1-2.4,0.4-3.4c1.4,2-0.4,4.5,1.1,6.3c0.1,0.2,0.2,0.3,0.3,0.4c0.7,0.8,1.2,1.7,2.1,1.6c0.6-0.2,0.9-0.8,1.2-1.5
		c0-0.2,0.1-0.5,0.2-0.6c0.1-0.7,0.4-1.1,0.5-1.7c0.3-0.9,1.4-1.6,1.2-2.6c0-0.3-0.1-0.7-0.1-1c0-0.5,0.3-0.9,0.6-1.3
		c1.1,1.9,2.4,3.6,3.8,5.2l-15.7,15.7C159.6,177.2,154.7,168,152.7,157.7 M171.9,151.1c0.8-0.5,1.5-1.1,2.1-1.8
		c0.1,0.7,0.1,1.4,0.2,2.2c-0.5,0.6-1.1,1.1-1.7,0.9C172.1,152.1,171.5,151.3,171.9,151.1 M174.9,122.2c-1.2-0.2-1.5,0.8-2.1,1.7
		c0-0.2-0.1-0.3-0.3-0.3c-0.1-0.6,0.3-1.1,0.2-1.8c-0.1-0.5-0.9-0.4-1.1-0.8c-2.1-3.9-7-3.4-10.8-2.7c-0.7,0.1-1,0.8-1.4,1.2
		c-0.2,0.2-0.4,0.3-0.7,0.3c2.2-3.9,4.8-7.4,7.8-10.6l13.4,13.5C178.2,122.8,176.6,122.6,174.9,122.2 M166.4,103.1L149,85.7
		c14.6-13.9,34.3-22.6,55.9-23.2v24.6C190.1,87.6,176.6,93.6,166.4,103.1 M146,82.7l-16.6-16.6c19.6-18.9,46.2-30.7,75.5-31.3v23.5
		C182.1,58.9,161.5,68,146,82.7 M143.1,85.7c-14.8,15.4-24,36.1-24.5,59H95.2c0.6-29.4,12.4-55.9,31.3-75.6L143.1,85.7z
		 M118.6,148.9c0.1,3.4,0.4,6.7,0.8,10c-0.7,0-1.3,0-1.9,0.2c-1.8,0.5-1.9,2.5-2.7,4c-0.6,1.3-2.6,0.9-3.2,2.2
		c-0.3,0.5,0.3,1.4-0.2,2.1c-0.3,0.5-1,0.5-1.2,1.1c-0.1,0.3-0.2,0.8-0.4,1.1c-0.5,1.7-0.8,3.2-0.4,4.8c0,0.5,0,1,0.2,1.3
		c0.4,1.7-0.1,3.2-0.9,4.6c-1.1,1.6-3.1,1.6-4.9,2.2c-0.8,0.3-1.7-0.5-2.6-0.2c-0.1,0-0.2,0-0.4,0c-3.5-10.5-5.5-21.6-5.7-33.2
		H118.6z M205,289.2c-37.7-0.6-71.9-15.8-97.1-40.3l18.5-18.5c20.4,19.7,48,32,78.5,32.5V289.2z M205,258.7
		c-29.3-0.6-55.9-12.4-75.5-31.3l2-2c1.3,0.2,2.1,1.3,3.3,1.5c1,0.3,1.9,0.6,2.8,1.1c0.3,0.2,0.8,0.2,1.2,0.1
		c0.6-0.2,1.1-0.5,1.6-0.8c1.3-0.8,3-0.9,4.3-1.8c0.3-0.2,0.5-0.6,0.9-0.7c2.2-0.9,4.6,0.8,6.9-0.4c0.6-0.2,1.3-0.2,2-0.7
		c1.4-1,1.8-2.9,1.3-4.4c-0.1-0.2-0.2-0.4-0.2-0.6c14,10,31,16.1,49.4,16.5V258.7z M205,231c-21.7-0.6-41.3-9.3-55.9-23.2l17.4-17.4
		c7,6.5,15.6,11.4,25.1,13.9c-1.7,0.6-3.3,2.7-4.3,4.6c-0.3,0.5,0.1,1.3-0.2,1.7c-0.9,1.5-1.4,2.9-2.7,4.1c-0.1,0.1-0.1,0.5-0.1,0.8
		c1.4,2,3.1,3.3,4.6,5.3c0.4,0.5,1.1,0.5,1.3,1.1c0.6,1.3,1.3,2.4,2,3.6c0.9,1.7,3.4,2.3,5.5,1.7c0.8-0.2,1.7,0.5,2.4,0.7
		c1.6,0.1,3.3,0.4,4.9,0.2V231z M205,185.5c-0.7,0.1-1.6-0.3-1.8,0.5c-0.4,1,1,1.6,1.4,2.6c0.3,0.6,0.1,1.4-0.8,1.5
		c-1.3,0.3-2.5,0.2-3.8-0.1c0,0.4-0.3,0.3-0.3,0.5c-0.2,1.1,0,2.1-0.9,3.1c-0.6,0.7,0.3,1.6,0.8,2.3c0.6,0.8,0.8,1.8,1.5,2
		c0.6,0.1,1,0.7,1.6,0.6c1.1-0.3,1.9-0.7,2.3-1.9c0-0.1,0.1-0.1,0.1-0.1v3c-0.7,0.3-1.5,0.5-2.3,0.2c-1.1,0.4-2.1,0.5-3.1,0.7
		c-0.8,0.2-1.5,0.6-2.1,1.1c-10.7-1.9-20.4-6.9-28-14l15.7-15.7c4.8,4.2,10.7,7,17.3,7.9c-1.1,0.7-1.7,1.5-1.9,2.8
		c0.6,0,1.1,0.2,1.6,0c1.2-0.5,0.9-1.6,0.9-2.7c0.6,0.1,1.2,0.1,1.8,0.2c-0.2,0.5-0.4,1-0.3,1.5c-0.2,0.2-0.5,0.6-1,1.3
		c-0.1,0.1-0.5,0.8-0.3,1.1c0.4,0.5,1.1,0,1.7-0.5V185.5z M209.2,289.2V263c10.1-0.2,19.8-1.6,29.1-4.2c0.2,0.2,0.3,0.3,0.5,0.5
		c1.2,1.1,2.8,0.8,4.2,1.1c0.3,0.2,0.7,0.5,1.1,0.6c1.3,0.4,2.8,0.6,3.9-0.3c0.7-0.5,1.2-1.6,1.9-1.9c1-0.8,2.5-0.8,3.9-1
		c0.3-0.1,0.7-0.2,0.9-0.5c0.2-0.8,0.9-1.2,0.8-2c1,0,1.8-0.6,2.7-1c1.7-0.9,2.9-2.5,4.5-3.9c1.6-1.5,4.2-0.8,5.1-2.5
		c0.3-0.6,0.3-1.2,0.3-1.9c7.2-4.4,13.8-9.6,19.8-15.4l18.5,18.5C281.1,273.4,247,288.6,209.2,289.2 M212.1,190.5
		c0.5-0.4,1.3-0.9,2.1-0.6c0.6,0.2,1.1,0.6,1.8,0.8c0.6,0.3,1.1,0.7,1.7,1.1c0.1,0.1,0.6,0.3,0.9,0.4c1,0.5,1.7,1.8,2.8,2.4
		c0.3,0.2,0.1-0.4,0.4-0.2c0-1.1-0.2-2.1-0.7-2.7c-0.7-1-1.8-1.5-2.6-2.3c-0.3-0.3-0.3-1,0.1-1.4c0.1-0.2,0.5-0.2,0.5,0
		c0.6,0.5,1.2,0.5,1.9,0.9c1.3,0.6,1,2.5,2.3,3.1c0.7,0.4,1,1.3,1.8,1.5c0.9,0.3,2.4,0,2.9-1.1c0.4-0.7-0.4-1-0.8-1.5
		c-0.9-0.7,0.5-1,0.9-1.6c0.8-1,0-1.8-0.1-2.7c-0.1-0.4,0.2-0.6,0.4-0.8c0,0,0.1-0.1,0.2-0.2c0.5-1.1,0-2.4,0.5-3.5
		c0.2-0.2,0.5-0.2,0.5-0.1c0.3,0.5,1,0.9,1.6,0.8c0.9-0.2,1.7-0.7,2.3-1.6c0.8-1,2.5-0.5,2.9,0.5c0.2,0.8-0.1,1.8-0.7,2
		c-2,0.3-3.7,1-5.2,2.1c-0.2,0.2-0.4,0.3-0.6,0.5c-0.8,0.6-1.1,1.2-0.7,2.5c0.1,0.5-0.5,1-1,1.4c0.8,0.3,0.8,1.2,1.5,1.3
		c1.3,0.3,2.5,0.4,3.4-0.5c0.2-0.3,0.5-1,0.3-1.6c0.8-0.1,1.4-0.9,2.3-1.1c1.8-0.3,2.8,1.7,2.3,3.2c-0.1,0.3-0.5,0.3-0.7,0.4
		c-0.6,1-1.2,2-1.9,2.7c-0.5,0.3-1,0.7-1.6,1c-2.1,0.9-4.6,0.8-6.4,1.8c-0.5,0.4-0.8,1.1-1.3,1.6c-0.8,0.3-1.6,0.6-2.4,0.9
		c-0.5,0.1-1.1,0-1.6-0.4v0.2c0,0.7-2.3,0.2-3.4-0.2c-0.4-0.1-0.1-1.2-0.6-1.6c-0.4-0.3-1.1,0.1-1.3-0.3c-0.2-0.2,0-0.8-0.3-0.9
		c-2.5-0.4-4.8,0.3-7.3,0.1v-3.9C210.1,191.9,211,191.1,212.1,190.5 M209.2,181.5V180c0.4,0,0.8,0,1.2-0.1
		C210,180.4,209.6,181,209.2,181.5 M218.2,173c0.1,0.2,0.2,0.4,0.3,0.6c-0.6,0.2-1.2,0.5-1.8,0.7c0-0.2,0.1-0.4,0.1-0.6
		c0.3-1.1-0.8-1.8-1.1-2.8c-0.3-1,0.2-1.8,0.8-2.4c0.4-0.4,1,0.1,1.2,0.6c0.2,0.6,0.2,1.3,0.4,2C218.3,171.7,217.8,172.5,218.2,173
		 M216.9,178.6c-0.2,0.3-0.3,0.6-0.8,0.6c-0.4,0-0.9,0-1.3-0.1C215.6,178.9,216.3,178.8,216.9,178.6 M217.1,228.5
		c0.6,0.2,0.6,1.1,1,1.8c-2.9,0.4-5.9,0.6-8.8,0.7v-3.2C211.9,228,214.6,227.4,217.1,228.5 M220.9,234.2c1.1,0.8,2.6,1.2,4.1,1.4
		c0.4,0,0.5,1.1,0.9,1.5c0.4,0.6,0.2,1.5,0.8,1.9c0.7,0.7,1.4,1.2,1.3,2.2c0,1.2-1.5,2.3-0.6,3.8c0.2,0.5-0.1,1.3,0.2,1.7
		c1.9,1.9,3.7,3.7,6,5.4c0.2,0.2,0.6,0.5,0.4,1c0.9,0.3,1,1.1,1.6,1.6c0.1,0.1,0.1,0.3,0.1,0.5c-8.5,2.2-17.4,3.5-26.5,3.7v-23.5
		C213.2,235.2,217.1,234.8,220.9,234.2 M282.7,210c-0.5-0.1-1.5-0.1-1.5,0c-0.4,1.8-1.3,3.9-2,6l-8.1-8c14.7-15.4,23.9-36.1,24.4-59
		h23.5c-0.6,29.3-12.4,55.9-31.4,75.5l-1.5-1.5c0.2-0.3,0.4-0.7,0.4-0.9C287.6,218.2,287.2,212.2,282.7,210 M269.3,234.2
		c-0.1-1-1.1-1.9-1-2.9c0.1-0.7,1.2-0.7,1.5-1.3c0.6-1.3,1.1-2.7,1.8-4c0.1-0.2,0.6-0.4,1-0.6c0.6-0.5,0.1-1.1,0.2-1.8
		c-0.5-0.1-0.7-0.7-0.9-1c-1.4-2-2.7-3.9-5.1-4.9c-0.6-0.2-0.6-0.8-0.9-1.3c-0.2-0.2,0.1-0.8-0.1-1c-0.6-0.4-0.4-0.9-0.5-1.4h0.5
		c0,0.2-0.2,0.3-0.4,0.2c0.2,0,0.4,0.1,0.4,0c0.1-0.1,0-0.3,0-0.3c-0.2,0-0.3-0.2-0.3-0.3c0.1-0.4,0.3-0.7,0.5-1
		c0.7-0.6,1.4-1.3,2.1-1.9l10.3,10.3c0.2,1.5,0.8,2.9,2.5,3.9c0.6,0.4,1.2,0.5,1.8,0.4l2.1,2.1c-4.9,4.7-10.2,9-15.9,12.7
		c0.1-0.4,0.3-0.7,0.3-1.1C269.3,237.5,269.4,235.8,269.3,234.2 M262.4,192.8c0.2-0.4,0.8-0.7,1-1.2c0.3-1.2,0.1-2.5,0.1-3.7
		c0.7,0.1,1.2-0.7,1-1c-0.2-0.2-0.2-0.5-0.3-0.7c0-0.7,0.1-1.5,0.3-2.2c0.4-1.8-0.2-3.5-0.9-5.1c-0.4-0.8-1.4-1-2.3-0.8
		c-0.2,0.2-0.3,0.6-0.6,0.8c-0.9,0.1-1.6,0.5-2.1,0.9c-0.7,0.6-0.7,1.8-1.3,2.4c-1.1,0.9-2.1,1.9-3.6,2.4c-0.1,0.1-0.2,0-0.3,0.1
		c1.7-2.1,3.2-4.3,4.7-6.6c0.4-0.1,0.9-0.1,1.3,0c0.6,0.1,1-0.7,1.6-1c0.4-0.2,0.4-1.1,0.6-1.6c0.3-1,1.3-1.4,1.8-2.3
		c1-1.8,1-4.4,2.4-5.8c1-0.7,0.5,1.3,0.8,1.7c0.6,0.8,2.3,0.8,2.9,0.1c0.5-0.5-0.1-1.8,0.8-2.3c0.4-0.1,0.9-0.1,1.2,0
		c0.7,0.4,1.5,1.2,2.2,0.8c0.5-0.3,1-1,1.5-1.2c0.8-0.3,1.8,0,2.6-0.4c2-0.9,6.4,0.4,6.1-1.6c-0.4-3.2-3-5.8-5.8-7.2
		c-2.3-1.1-1.4-4.2-3.4-6c-0.5-0.4-0.2-1.2-0.7-1.7c-0.1-0.2-0.4-0.4-0.7-0.6c0,0,0,0-0.1,0h18.3c-0.6,21.6-9.2,41.1-23,55.7
		c0-0.9,0.2-1.9,0.1-2.8c-0.2-2.7-0.2-5.2-1.5-7.7c-0.3-0.8-1-1.3-1.9-1.1c-0.5,0.1-0.4,0.7-0.7,1.1c-0.3,0.4-0.4,0.9-0.6,1.6
		c-0.4,0.9-1.6,1.2-1.9,2.1c-0.1,0.2-0.1,0.3-0.2,0.5l-1.1-1.1c0.5-0.7,1.2-1.2,1.5-1.9C262.4,194.7,261.9,193.6,262.4,192.8
		 M277.1,136.1c0.1-0.4,0.9-0.8,1.4-0.8c2.4-0.1,4.9,0.6,7.1-0.8c0.5-0.5,0.6-1.2,1-1.6c1-1.4,2.1-2.6,3-4c0.1,0.4,0.2,0.7,0.3,1.1
		c-1.6,2.6-2.8,5.2-1.4,8.2c0,0.1,0.4,0.1,0.4,0c0.8-0.6,1.4-1.2,1.9-1.9c0.4,2.8,0.6,5.6,0.6,8.4h-18.9c0.1-0.3,0.2-0.7,0.4-1
		c0.5-0.7,1.5-1,2-1.5c0.7-0.6,2-1,2-2C277,138.9,276.8,137.5,277.1,136.1 M295.6,144.7c-0.1-5.1-0.6-10.2-1.6-15.1
		c0.6-1.6,1.2-3.2,1.7-4.9c0.2-1.1-0.2-2.6-1.6-2.7c-0.7-0.1-0.9,0.1-1.1,0.5c-0.2,0.6,0,1.3-0.2,2c-0.4-1.8-0.9-3.5-1.5-5.3
		c0.5-1,0.3-2.4-0.4-3.2c-0.6-0.6-1.1-1.3-1.1-2c-0.1-2.7-0.9-5.3-2.3-7.6c-0.7-1.1-1.9-1.8-2.8-2.6c-0.3-0.5-0.6-1-0.9-1.4
		c0-0.1,0-0.1,0-0.2c0.3-0.6,1-1,1.2-1.8c0.1-1.4-1.4-1.9-1.8-3.3c0-0.1-0.5,0-0.7,0l0.8,0.2c-0.8-0.3-1.8-0.3-2.4,0
		c-0.7-1-1.5-2-2.2-3c0.7-1.1-0.2-2.7-1.2-3.7c-0.9-0.8-1.5-2.2-2.8-2.5c-0.3,0-0.6,0-0.8,0.2c-0.6-0.7-1.3-1.4-1.9-2.1
		c0.1-0.5,0.1-1,0.2-1.4l5.2-5.2c0.4,0.3,0.7,0.7,1.1,0.9c0.4,0.2,0.5,1.3,0.8,2.1c0.2,0.4,0.6,1,1.3,0.5c0.4-0.3,0.2-1.1,0.8-1.3
		c0.5-0.2,1.1,0.2,1.4,0.4c1.5,1.9,1.9,5.8,5,5.6c-0.1,0.5,0.3,0.8,0.6,0.9c0.7,0.2,1.1-0.7,1.5,0.1c0.5,0.7,0.7,1.6,1.4,2
		c1.1,0.3,2.2-0.1,3.3,0.2c0.7,0.2,1.3,1,1.8,1.7c0.3,0.5,0.7,1,1.1,1.5c2.1,2,2.9,5.1,5.4,6.7c0.8,0.5,1.5,1.5,2.6,1.2
		c0.3,0,0.1-0.5,0.4-0.6c1.1-0.1,1.7-1,2.1-1.6c0.2-0.2,0.5-0.5,0.7-0.7c6.5,13.8,10.2,29.2,10.6,45.5H295.6z M272.3,93.3
		c0,0.2-0.1,0.3-0.1,0.4c0.2,0.4,0.6,0.6,0.9,0.8c2.3,2.9,4.4,6,6.3,9.2c0,0.2,0,0.4,0,0.6c-0.2,1-1.6,0.8-2.3,1.6
		c-0.4,0.5-0.5,1.3-0.4,1.9c0.2,1.3,1.7,1.2,2.6,1.7c2.2,1.1,4.2,2.7,5.6,4.8c1.3,3,2.3,6.2,3.2,9.4c-0.1,0-0.1,0.1-0.2,0.1
		c-2.4,1.3-2.7,4.5-4.2,6.2c-1,1.2-2.2,1.8-3.7,1.7c-0.2,0-0.7-0.2-0.8-0.7c0-0.7-0.2-1.4,0.3-2c0.5-0.4,1-0.7,1.4-1.3
		c0.7-1.1,0.1-2.4-0.1-3.4c-0.6-2.2-2.9-3.5-5-3.1c-2.1,0.4-3.3,2.6-4.5,4.5c0,0-0.4,0.1-0.4,0c-0.8-1-1.8-1.5-2.4-2.6
		c-0.1-0.1-0.1-0.3,0-0.5c0.8,0.4,1.6,1.7,2.5,1.2c0.9-0.5,0.1-1.7-0.5-1.9c-0.7-0.2-1.4-1-2.4-0.9c-0.6,0.1-1.4-0.9-1.7-1.7
		c-0.3-1.2-0.4-2.7-1.4-3c-1.1-0.4-2.1-0.5-3.1-1.2c-0.5-0.3-1.1,0.2-1.6,0.2c0.3-0.3,0.1-1.1,0.2-1.1c1.3-0.1,2.9-0.1,2.1-1.6
		c-0.3-0.7-1-1.4-1.9-0.8c-0.2,0.1-0.7,0.1-0.8,0.5c-0.2,0.2-0.2,0.6-0.4,0.8c-0.2,0.5,0.4,1.6,0,1.9c-0.5,0.3-1.1,0.4-1.7,0.6
		c-2.1-3.4-4.5-6.5-7.2-9.4l17.4-17.4C269.6,90.2,271,91.7,272.3,93.3 M253,115.6c-0.4,0.7-0.7,1.4-1.3,1.8
		c-0.6,0.3-1.5,0.4-2.2,0.7c-1.2,0.5-0.5,2,0,3.1c0.2,0.4,0.1,1-0.3,1.3c-0.9,0.5-1-0.6-1.2-1c-0.3-1.1-0.7-2.3-0.7-3.4
		c-0.1-1.2,1.4-1.9,1.7-3.1c0.3-0.7,0.5-1.5,0-2.2c-0.5-0.8-1.4-1.2-2.2-1c-2.1,0.6-2.7,4.3-4.8,3.3c0,0-0.1-0.1-0.1-0.1l5.9-5.9
		C249.7,111.1,251.5,113.3,253,115.6 M242.2,195.1c0.5,0.3,1,0.6,1.6,0.8c2.4,0.8,4.7,1.1,7.2,1.6c2,0.4,3.3,1.8,5.2,2.3
		c0.4,0.1,0.7,0.1,1,0.1l1.2,1.2c-0.4,0.1-0.9,0.3-1.3,0.4c-1,0.2-2.1,0.2-3.2-0.1c-4.8-1.4-9.1-3.1-13.8-4.6
		C240.7,196.2,241.5,195.6,242.2,195.1 M309.3,246l-18.5-18.5c19.7-20.4,32-48.1,32.6-78.5h26.2C349,186.7,333.8,220.8,309.3,246
		 M349.6,144.7h-26.2c-0.3-17.3-4.3-33.7-11.4-48.3c0.7-0.4,1.5-0.7,2.2-1.3c0.8-0.6,0.4-1.9,0-2.3c-1.1-1.3-1.2-2.8-1.9-3.9
		c-0.7-1-2.2-1.1-3.1-2.3c-0.4-0.6,0.4-1.6-0.3-2.1c-0.4-0.3-0.8-0.6-0.8-0.9c-0.5-1.4-1.2-2.3-2.5-3c0.4-1.6-1.1-2.5-2.6-2.9
		c-0.1-0.1,0.1-0.5,0.1-0.7c-0.1-0.6-0.8-0.8-1.4-1c-0.2-0.1-0.6,0-0.7-0.1c-0.8-1-1.9-1.9-2.2-2.7c-0.5-1.5-1.9-2.3-3.1-3.1
		c-0.5-0.2-0.8-1.5-1.1-1.5c-0.6,0-1.3,0-1.7-0.3c-0.1-0.1-0.2-0.2-0.3-0.3c-0.1-0.1-0.2-0.2-0.2-0.4c-0.1-0.9-0.5-1.6-1-2.3
		l17.8-17.8C333.7,72.8,349,106.9,349.6,144.7 M209.2,4.3c37.8,0.6,71.9,15.9,97.1,40.3l-17.7,17.7c-0.4-1.6,0.5-3.7,0-5.3
		c-0.2-0.9-1.2-0.9-2.1-0.9c-0.3,0-0.6-0.3-0.8-0.6c-0.8-1.4-0.2-2.9-1.1-4.2c-1.4-2-2.9-3.5-4.5-5.4c-0.9-1-2.1-0.8-3.2-0.9
		c-0.3,0-0.5-0.2-0.8-0.4c-0.4-0.2-0.5-0.7-0.8-1.1c-0.6-1.1-1.9-1.6-3.1-2.1c-2.1-0.9-4.3-0.4-6.5-0.7c-1.7-0.1-3.6,0.5-4.9,1.5
		c-0.5,0.4-1,0.6-1.6,0.9c-15.1-7.6-32.1-12-50.1-12.3V4.3z M209.2,34.8c16.6,0.3,32.4,4.2,46.4,11c-0.4,0.7-1.5,1.5-1,2.2
		c0.2,0.2-0.4,0-0.2,0.3c0.4,0.4,1.2,0.1,1.8,0.1c0.7,0.1,0.9,0.8,1.3,1.2c0.9,0.9,1.8,1.7,2.3,2.8c0.2,0.4-0.6,1.2-0.2,1.6
		c1.1,1.1,0.9,2.1,0.9,3.4c0,0.6,1.2,0,1.4,0.2c1.6,0.8,1.9,2.8,1.4,4.4c-0.2,0.9-0.2,2.1,0.2,2.8c0.8,1.5,1,3.7,2.4,4.9
		c0.3-0.5,0.7-1.2,1-1.1c1.2,0.2,1.3-0.8,2-1.3c2.4-1.6,4.4,1.5,5,3.3c0.6,1.7,0.1,3.8,0.7,5.5l-4.8,4.8c-0.1-0.5,0-1.1,0-1.5
		c0-0.8-1.1-0.5-1.3-0.9c-0.5-1-0.8-2.7,1.1-2.5c0.1,0-0.3-0.4-0.2-0.7c-0.6,0-1.2,0.1-1.9,0c-0.5-0.1-0.5-0.7-0.5-0.9
		c-0.2-1.1,0.4-2.4-0.6-3.1c-0.8-0.5-1.9-0.7-2.7-1.2c-0.7-0.6-1.3-1-2.1-1.5c-0.5-0.3-1.3,0.5-1.7,0c-1.6-1.8-2.7-3.8-4.2-5.9
		c-0.6-0.6-1.7-0.6-2.7-0.5c-0.3,0.1-0.1,0.4-0.2,0.6c0.1,0,0.3,0,0.4,0.1c0.3,0.2,0.1,0.6,0.3,0.7c0.9,0.6,1.5,1.3,1.8,2.1
		c0.4,1.1-0.3,2.5,0.4,3.5c0.1,0.5,0.6,0.8,0.8,1c0.4,0.5,0,1.5,0.1,2.1c0.1,0.4,0.2,0.8,0.2,1.2c-2.5-1.7-5.1-3.3-7.7-4.8
		c0.1-0.2,0.3-0.4,0.4-0.6c0.7-1,2.4-0.4,3.7-0.9c-0.2,0.8,0.4,0.7,0.8,1.1c-0.1-0.9-0.1-2.1-0.6-2.5c-1.2-0.7-1.2-1.7-1.8-2.7
		c-0.1-0.4-0.8,0.2-0.8,0.4c0.1,1.8-1.4,1.5-2.6,1.9c-0.1,0.1,0.1,0.5-0.1,0.6c0,0.1-0.2,0.1-0.4,0c-0.2-0.3-0.4-0.4-0.3-0.8
		c-0.6,0-1.5,0-1.7,0.4c-0.3,0.5-0.7,0.7-1,1c-0.8-0.4-1.6-0.8-2.4-1.1c0.1-0.3,0.1-0.6,0-1c0-0.3-0.3-0.3-0.5-0.1
		c-0.3,0.1-0.3,0.5-0.6,0.7c-9.9-4.2-20.8-6.5-32.2-6.8V34.8z M209.2,62.5c21.7,0.6,41.3,9.3,56,23.2l-17.4,17.4
		c-10.2-9.5-23.7-15.5-38.6-16V62.5z M209.2,91.3c13.7,0.5,26.2,6,35.6,14.8l-1.2,1.2c0,0-0.1,0-0.2,0c-0.8-0.5-1.4-1.2-2.2-1.5
		c-2.9-0.8-4.6,1.7-6.3,3.3c-0.6-1.8-2-0.1-3.2-0.3c-0.5,0-0.7-0.7-1-0.7c-0.4,0.1-0.9,0.2-1.1,0.5c-0.8,0.5-0.2,1.7,0.6,1.5
		c0.6,0,1-0.9,1.3-0.3c0.6,1,0.2,2.7,1.7,2.3c1-0.2,1.6-0.9,2.7-1c1.1-0.1,1.2-1.2,1.1-2c1.1-0.1,2.4-1,3.1-0.1
		c0.3,0.3,0.4,1,0.7,1.4l-2.4,2.4c-0.5-0.3-1-0.5-1.6,0c-1.5,1.1-3.3,1.8-4.9,2.5c-1.4,0.7-2.7,2.3-3.5,3.9c-0.2,0.5-0.7,1-1.2,1.3
		c-2.5-1.9-5.2-3.4-8.1-4.5c0.5-0.3,1.1-0.6,1.7-0.8c1-0.3,1.2-1.5,0.8-2.5c0-0.2-0.1-0.5-0.2-0.7c-0.1-0.5-0.2-1.4-0.4-1.4
		c-2.5,0.2-4.5,1.9-5.8,4.1c-1.9-0.5-3.9-0.8-5.9-0.9V91.3z M217.2,119.6c-0.1,0.1-0.2,0.1-0.3,0.2c-0.9,0.2-1.4-0.2-1.8-0.9v0
		C215.8,119.1,216.5,119.3,217.2,119.6 M206.5,121.1c-0.3,0.6-1.8,0.6-2.8,0.8c-0.5,0.2-0.5,1-0.5,1.6c0.1,0.5,0.6,0.4,1,0.6
		c1,0.9,1.1,2.6,2.3,3.2c1.5,0.7,3.3,0.2,5.1,0.7c1.2,0.3,2.1,1.1,2.5,2.2c0.3,0.7,1.2,1,1.3,2c0.1,0.3,0.5,0.6,1,0.9
		c0.5,0.2,1.2-0.4,1.8-0.1c0.8,0.2,0.5,1.2,0.7,1.9c0.4,1.2-0.3,2.5,1,3.7c0.5,0.4-0.5,1.6-1,2.3c-0.2,0.2-1,0.2-1.1,0.6
		c-0.3,1-0.1,2,0.5,2.8c0.4,0.5,1,0,1.2,0.3c0.9,1.2,1.3,2.5,2.1,3.5c0.3,0.4,0.7,0.9,1.2,1.1c-0.6,0.1-0.7,0.8-0.6,1.1
		c0.3,0.4,1.1,0.7,1.5,0.3c0.6-0.4,1.3-0.6,1.9-1.1c0.4-0.4,1-0.3,1.4-0.7c0.4,0.4,0.8,1.3,0.5,1.7c-0.9,0.9-2.6,0.3-3.6,1
		c-0.7,0.3-1.5,0.2-1.9,0.7c-0.4,0.4,0,1.2,0.7,1.3c2.3,0.5,0.5,3.9-0.6,5.6c-0.3,0.4,0,1-0.1,1.7c-0.1,0.3-0.5,0.5-0.8,0.5
		c-2.3,0.2-4.5-0.6-6.6,0.1c-0.7,0.2-1,1.2-1.4,2h0.4c-0.6,0.1-0.6,0.7-0.7,1.1c-0.1,0.4-0.1,1.2-0.3,1.5c-2,2.2-2.2,4.9-2.6,7.5
		c-0.1,0.8,0.9,1.3,1.4,1.3c0.5,0,1.3-0.6,1.8-0.6c0.5,0.1,0.7,0.5,0.8,1c-2.1,0.5-4.2,0.8-6.4,0.8c0,0,0-0.1,0-0.1
		c-0.4-0.4-0.7-0.4-0.8-0.9c-0.4-0.7-1,0.5-1.7,0.4c-0.1,0-0.2,0.2-0.2,0.4c-6.8-0.6-12.9-3.5-17.6-8c2.1-0.5,3.8-2.2,5.8-2.6
		c1.7-0.5,3.7-1,5.7-1c4.4-0.1,4.1-5.7,6.4-9.2c0.5-0.9-0.3-2.8-0.9-3.7c-1.5-2.4-6.2,0.3-7.2-2.2c-0.6-1.4,3.1,0.9,3.5-1.3
		c0.1-0.6-0.3-1.3-0.7-1.6c-0.6-0.3-1.8-0.4-2.2,0c-2.4,2-2.8,5.4-4,7.6c-2.3,4-6.3,7-8.8,11.2c-1-1.3-1.9-2.6-2.8-4.1
		c0.1-0.4,0.2-0.8,0.4-1c0.4-0.5,0.9-1.1,1.2-1.7c0.2-0.4,0.6-0.8,0.5-1.3c0.5,0,0.5-0.7,1-0.7c1.3-0.2,1.1,1,1.5,1.7
		c0,0,0.4,0,0.5,0c1.9-2.1,3.1-4.5,3.6-7.4c0-0.2,0.5-0.5,0.5-0.6c-0.3-1.3-1.7-1.7-2.3-2.8c-0.7,1.9-2.7,0.4-4.1,1.3
		c0,0-0.1,0.6,0.2,0.7c0.5,0.3,1.3,0,1.5,0.4c0.3,0.5,0.3,1.4-0.2,2c-0.1,0.1-0.5,0.1-0.5,0c-0.7-1.5-1.9-1.3-3.3-1.3
		c0.6,0.5-0.4,0.4-0.2,0.6c-1.3-0.3-2.5,0-3.7,0.2c-0.2-1.4-0.4-2.9-0.4-4.4c0-0.8,0.1-1.7,0.1-2.5c1.1,0.2,2.5,0.6,3.2-0.4
		c0.4-0.3,1.1,0.7,1.5,1.2c0.2,0.2-0.1,0.4-0.2,0.6c-0.7,0.7-1.7,0.7-2.2,1.8c-0.3,0.7,0.1,1.3,0.6,1.5c0.9,0.4,1.1-0.8,1.5-1.4
		c0.5-0.6,1-0.1,1.5,0c0-0.2-0.1-0.5,0-0.5c1-0.3,2.2-0.1,3.2-0.1c1.3,0,0.6-2.6,0.5-4.1c0-0.3,0-0.8,0-1.1c0-0.2,0-0.4,0.1-0.6
		c0.4-0.8,2-1.1,2.3-0.2c0,0.3,0.1,0.6,0.2,0.9c0.1,0.4,0.3,0.7,0.9,0.4c0.1-0.1,0.3-0.2,0.3-0.4c0.2-0.5,0.1-1.3,0.5-1.5
		c0.5-0.5,1.2,0.8,1.9,0.9c0.8,0.2,1.7,0.2,2.3-0.3c0.5-0.3,0.5-1,0.1-1.7c-0.2-0.3-0.6-0.3-0.7-0.2c-0.7,0.8-1.7,0.6-2.5,0.6
		c-0.7,0-1.1-0.9-1.7-1.3c-0.7-0.5-1.6,0.5-2.3,0.2c-0.8-0.4-1.1-1.1-0.7-1.8c0.2-0.3,0.7-0.7,1.2-0.9c0.9-0.5,2-0.5,2.5-1.3
		c0.4-0.7,0.6-1.6,0.7-2.4c0.1-0.4,0.5-0.4,0.8-0.5c1.1-0.4,2.3-0.1,3.3-0.6c1.1-0.4,1.9-1.4,3-2.1c0.5-0.3,1-0.6,1.6-0.7
		c0.3-0.1,0.5-0.6,0.5-0.8c0.2-1.8-0.3-3.5,0-5.4c0.1-0.5,0.9-0.8,0.5-1.4c-0.1-0.2-0.9,0.1-1.1-0.1c-0.4-0.4-0.8-1.1-0.2-1.5
		c0.5-0.4,1.5-0.1,1.8-0.7c0,0,0-0.1,0.1-0.2c0.9-0.1,1.8-0.2,2.7-0.2C205.8,119,206.9,120.1,206.5,121.1 M205,4.3v26.3
		c-30.5,0.5-58.1,12.8-78.5,32.5l-18.5-18.6C133.1,20.1,167.2,4.9,205,4.3 M105,47.5l18.5,18.6c-19.7,20.4-32,48.1-32.5,78.6H64.6
		C65.3,106.9,80.5,72.7,105,47.5"/>
	<path class="st0" d="M0,432.2c0-29.7,21.6-52.5,52.1-52.5c30.5,0,52.1,22.9,52.1,52.5c0,29.6-21.6,52.5-52.1,52.5
		C21.6,484.7,0,461.8,0,432.2 M89.8,432.2c0-21.9-14.8-39.8-37.7-39.8c-22.9,0-37.7,17.9-37.7,39.8c0,21.9,14.8,39.8,37.7,39.8
		C75,472,89.8,454.1,89.8,432.2"/>
	<path class="st0" d="M193.3,403.8c-5.6-7.3-15-11.4-24.1-11.4c-22.5,0-37.3,17.9-37.3,40.7c0,21,14,39,37.3,39
		c11.4,0,20.2-5.1,26.1-13.4l11.4,8.6c-3,4.1-15,17.5-37.8,17.5c-31.8,0-51.4-26.6-51.4-51.7c0-31.1,21.3-53.4,52.1-53.4
		c13.1,0,27,4.9,35,15.5L193.3,403.8z"/>
	<polygon class="st0" points="223.1,382.2 236.7,382.2 236.7,423.7 288.5,423.7 288.5,382.2 302.1,382.2 302.1,482.2 288.5,482.2 
		288.5,436.4 236.7,436.4 236.7,482.2 223.1,482.2 	"/>
	<path class="st0" d="M359.1,382.2h12.3l42.8,100h-15.8l-10-24.7h-47.6l-9.9,24.7h-15.8L359.1,382.2z M383.4,445.6l-18.6-45.9h-0.3
		l-18.9,45.9H383.4z"/>
	<path class="st0" d="M0,524.3c0-7.3,5.3-12.7,12.7-12.7c7.4,0,12.7,5.4,12.7,12.7c0,7.3-5.3,12.7-12.7,12.7
		C5.3,537.1,0,531.7,0,524.3 M22.2,524.3c0-5.6-3.9-10.1-9.6-10.1c-5.7,0-9.6,4.5-9.6,10.1c0,5.6,3.9,10.1,9.6,10.1
		C18.3,534.4,22.2,529.9,22.2,524.3"/>
	<path class="st0" d="M30.8,522.7h-3.5v-2.3h3.5v-3.6c0-3.9,1.4-6.7,5.7-6.7c0.7,0,1.5,0.1,2.1,0.4l-0.4,2.4
		c-0.6-0.2-1.2-0.4-1.8-0.4c-2.8,0-2.9,2-2.9,4.8v3h3.9v2.3h-3.9v13.8h-2.7V522.7z"/>
	<path class="st0" d="M47.6,522.7h-3.9v13.8H41v-13.8h-3.5v-2.3H41v-3.6c0-3.9,1.4-6.7,5.7-6.7c0.7,0,1.5,0.1,2,0.4l-0.4,2.4
		c-0.6-0.2-1.2-0.4-1.8-0.4c-2.8,0-2.9,2-2.9,4.8v3h3.9V522.7z M51.4,512.2c1.1,0,1.9,0.9,1.9,1.9c0,1.1-0.8,1.9-1.9,1.9
		c-1.1,0-1.9-0.8-1.9-1.9C49.4,513.1,50.3,512.2,51.4,512.2 M50,520.5h2.7v16H50V520.5z"/>
	<path class="st0" d="M69.4,524.5c-1.1-1.4-2.4-1.9-4-1.9c-3.6,0-5.4,2.7-5.4,5.9c0,3.3,2.2,5.9,5.4,5.9c1.7,0,3.1-0.6,4.1-2l2,1.9
		c-1.5,1.8-3.7,2.6-6,2.6c-5,0-8.3-3.5-8.3-8.4c0-4.8,3.3-8.4,8.3-8.4c2.4,0,4.5,0.8,6.2,2.5L69.4,524.5z"/>
	<path class="st0" d="M88.8,533.5c-1.9,2.4-4.1,3.3-7.1,3.3c-5,0-8.1-3.8-8.1-8.4c0-5,3.5-8.4,8.2-8.4c4.5,0,7.6,3.1,7.6,8.4v0.9
		H76.5c0.2,2.8,2.3,5.1,5.2,5.1c2.3,0,3.8-0.8,5.1-2.4L88.8,533.5z M86.5,527c-0.1-2.7-1.9-4.5-4.8-4.5c-2.9,0-4.9,1.8-5.2,4.5H86.5
		z"/>
	<path class="st0" d="M105.2,522.7h-3.5v-2.3h3.5v-3.6c0-3.9,1.4-6.7,5.7-6.7c0.7,0,1.5,0.1,2.1,0.4l-0.4,2.4
		c-0.6-0.2-1.2-0.4-1.8-0.4c-2.8,0-2.9,2-2.9,4.8v3h3.9v2.3h-3.9v13.8h-2.7V522.7z"/>
	<path class="st0" d="M122.2,520c4.9,0,8.5,3.4,8.5,8.4s-3.6,8.4-8.5,8.4c-4.9,0-8.6-3.4-8.6-8.4S117.3,520,122.2,520 M122.2,534.4
		c3.4,0,5.7-2.6,5.7-5.9s-2.2-5.9-5.7-5.9c-3.5,0-5.7,2.6-5.7,5.9S118.8,534.4,122.2,534.4"/>
	<path class="st0" d="M134.9,524.2c0-1.5-0.1-2.7-0.1-3.8h2.5c0,0.8,0.1,1.7,0.1,2.6h0.1c0.7-1.6,2.7-3,5.3-3c0.3,0,0.7,0,1.1,0.2
		l-0.2,2.7c-0.4-0.1-1-0.2-1.4-0.2c-3.3,0-4.7,2.3-4.7,6v7.8h-2.7V524.2z"/>
	<path class="st0" d="M167.1,522.7h-4.7v8c0,2,0,3.7,2.4,3.7c0.8,0,1.6-0.2,2.4-0.5l0.1,2.4c-0.9,0.4-2.1,0.6-3.1,0.6
		c-3.8,0-4.4-2.1-4.4-5.4v-8.8h-3.5v-2.3h3.5v-4.5h2.7v4.5h4.7V522.7z"/>
	<path class="st0" d="M170.4,510.6h2.7v12.1h0.1c0.7-1.3,2.6-2.6,5.1-2.6c4.2,0,6.1,2.7,6.1,6.5v9.9h-2.7v-9.6
		c0-2.7-1.2-4.3-3.7-4.3c-3.5,0-5,2.5-5,6.2v7.8h-2.7V510.6z"/>
	<path class="st0" d="M203.7,533.5c-1.9,2.4-4.1,3.3-7.1,3.3c-5,0-8.1-3.8-8.1-8.4c0-5,3.5-8.4,8.2-8.4c4.5,0,7.6,3.1,7.6,8.4v0.9
		h-12.9c0.2,2.8,2.3,5.1,5.2,5.1c2.3,0,3.8-0.8,5.1-2.4L203.7,533.5z M201.4,527c-0.1-2.7-1.9-4.5-4.8-4.5c-2.9,0-4.9,1.8-5.2,4.5
		H201.4z"/>
	<path class="st0" d="M235,517.2c-1.4-2-3.7-2.9-6.1-2.9c-5.4,0-9.2,4.8-9.2,10.1c0,5.6,3.8,10,9.2,10c2.9,0,5.3-1.2,7-3.4l2.2,1.8
		c-2.2,2.9-5.3,4.2-9.2,4.2c-6.9,0-12.3-5.4-12.3-12.7c0-7.1,5.1-12.7,12.3-12.7c3.3,0,6.5,1.1,8.5,3.8L235,517.2z"/>
	<path class="st0" d="M249.3,520c4.9,0,8.5,3.4,8.5,8.4s-3.6,8.4-8.5,8.4c-4.9,0-8.6-3.4-8.6-8.4S244.3,520,249.3,520 M249.3,534.4
		c3.4,0,5.7-2.6,5.7-5.9s-2.2-5.9-5.7-5.9c-3.5,0-5.7,2.6-5.7,5.9S245.8,534.4,249.3,534.4"/>
	<path class="st0" d="M269.6,520c4.9,0,8.5,3.4,8.5,8.4s-3.6,8.4-8.5,8.4c-4.9,0-8.6-3.4-8.6-8.4S264.7,520,269.6,520 M269.6,534.4
		c3.4,0,5.7-2.6,5.7-5.9s-2.2-5.9-5.7-5.9c-3.5,0-5.7,2.6-5.7,5.9S266.1,534.4,269.6,534.4"/>
	<path class="st0" d="M282.3,524.2c0-1.5-0.1-2.7-0.1-3.8h2.5c0,0.8,0.1,1.7,0.1,2.6h0.1c0.7-1.6,2.7-3,5.3-3c0.3,0,0.7,0,1.1,0.2
		l-0.2,2.7c-0.4-0.1-1-0.2-1.4-0.2c-3.3,0-4.7,2.3-4.7,6v7.8h-2.7V524.2z"/>
	<path class="st0" d="M307,533.6L307,533.6c-1.1,1.8-3.3,3.3-6.2,3.3c-4.5,0-8-3.6-8-8.4c0-4.9,3.4-8.4,8.4-8.4c2.3,0,4.3,1,5.7,2.7
		h0.1v-12.2h2.7v25.9H307V533.6z M301.3,522.5c-3.5,0-5.7,2.6-5.7,5.9s2.2,5.9,5.7,5.9c3.4,0,5.7-2.6,5.7-5.9
		S304.8,522.5,301.3,522.5"/>
	<path class="st0" d="M316.2,512.2c1.1,0,2,0.9,2,1.9c0,1.1-0.8,1.9-2,1.9c-1.1,0-2-0.8-2-1.9C314.2,513.1,315.1,512.2,316.2,512.2
		 M314.9,520.5h2.7v16h-2.7V520.5z"/>
	<path class="st0" d="M322.8,524.2c0-1.5-0.1-2.7-0.1-3.8h2.5c0,0.8,0.1,1.7,0.1,2.6h0.1c0.7-1.6,2.7-3,5.3-3c4.2,0,6.1,2.7,6.1,6.5
		v9.9h-2.7v-9.6c0-2.7-1.2-4.3-3.7-4.3c-3.5,0-5,2.5-5,6.2v7.8h-2.7V524.2z"/>
	<path class="st0" d="M341.7,522.5c1.6-1.7,4-2.5,6.4-2.5c4.7,0,6.7,2.3,6.7,6.8v6.9c0,0.9,0.1,2,0.2,2.8h-2.6
		c-0.2-0.7-0.2-1.7-0.2-2.4h-0.1c-1.1,1.6-2.8,2.8-5.3,2.8c-3.3,0-5.9-1.7-5.9-4.8c0-5.3,6.2-5.6,10.1-5.6h1V526
		c0-2.3-1.5-3.5-4-3.5c-1.7,0-3.5,0.6-4.8,1.7L341.7,522.5z M349.4,528.8c-3.4,0-5.6,0.9-5.6,3.1c0,2,1.5,2.8,3.5,2.8
		c3.1,0,4.7-2.2,4.7-4.8v-1H349.4z"/>
	<path class="st0" d="M368.4,522.7h-4.7v8c0,2,0,3.7,2.4,3.7c0.8,0,1.6-0.2,2.4-0.5l0.1,2.4c-0.9,0.4-2.1,0.6-3.1,0.6
		c-3.8,0-4.4-2.1-4.4-5.4v-8.8h-3.5v-2.3h3.5v-4.5h2.7v4.5h4.7V522.7z"/>
	<path class="st0" d="M373.3,512.2c1.1,0,1.9,0.9,1.9,1.9c0,1.1-0.8,1.9-1.9,1.9c-1.1,0-1.9-0.8-1.9-1.9
		C371.3,513.1,372.2,512.2,373.3,512.2 M371.9,520.5h2.7v16h-2.7V520.5z"/>
	<path class="st0" d="M387.5,520c4.9,0,8.5,3.4,8.5,8.4s-3.6,8.4-8.5,8.4c-4.9,0-8.6-3.4-8.6-8.4S382.6,520,387.5,520 M387.5,534.4
		c3.5,0,5.7-2.6,5.7-5.9s-2.2-5.9-5.7-5.9c-3.5,0-5.7,2.6-5.7,5.9S384.1,534.4,387.5,534.4"/>
	<path class="st0" d="M400.2,524.2c0-1.5-0.1-2.7-0.1-3.8h2.5c0,0.8,0.1,1.7,0.1,2.6h0.1c0.7-1.6,2.7-3,5.3-3c4.2,0,6.1,2.7,6.1,6.5
		v9.9h-2.7v-9.6c0-2.7-1.2-4.3-3.7-4.3c-3.5,0-5,2.5-5,6.2v7.8h-2.7V524.2z"/>
	<path class="st0" d="M8.6,561.1c4.9,0,8.6,3.4,8.6,8.4c0,5-3.6,8.4-8.6,8.4c-4.9,0-8.6-3.4-8.6-8.4C0,564.5,3.6,561.1,8.6,561.1
		 M8.6,575.5c3.4,0,5.7-2.6,5.7-6c0-3.3-2.2-5.9-5.7-5.9c-3.5,0-5.7,2.6-5.7,5.9C2.9,572.9,5.1,575.5,8.6,575.5"/>
	<path class="st0" d="M25.4,563.8h-3.5v-2.3h3.5v-3.6c0-3.9,1.4-6.7,5.7-6.7c0.7,0,1.5,0.1,2,0.4l-0.4,2.4c-0.6-0.2-1.2-0.3-1.8-0.3
		c-2.8,0-2.9,2-2.9,4.8v3h3.9v2.3H28v13.7h-2.7V563.8z"/>
	<polygon class="st0" points="52.7,553.3 55.5,553.3 55.5,563.6 68.4,563.6 68.4,553.3 71.3,553.3 71.3,577.5 68.4,577.5 
		68.4,566.2 55.5,566.2 55.5,577.5 52.7,577.5 	"/>
	<path class="st0" d="M93.6,573.7c0,1.5,0.1,2.7,0.1,3.8h-2.5c0-0.8-0.1-1.7-0.1-2.6H91c-0.7,1.6-2.7,3-5.3,3
		c-4.2,0-6.1-2.7-6.1-6.5v-9.9h2.7v9.6c0,2.7,1.2,4.3,3.7,4.3c3.5,0,5-2.5,5-6.2v-7.8h2.7V573.7z"/>
	<path class="st0" d="M101.4,565.3c0-1.5-0.1-2.8-0.1-3.8h2.5c0,0.8,0.1,1.7,0.1,2.6h0.1c0.7-1.6,2.7-3,5.3-3c3.5,0,4.5,1.9,5.1,3
		c1.2-1.9,2.6-3,5.1-3c4.6,0,6.1,2.6,6.1,6.7v9.7h-2.7v-9.6c0-2.2-0.8-4.4-3.9-4.4c-2.3,0-4.1,1.8-4.1,4.7v9.2h-2.7v-9.1
		c0-3.5-0.9-4.9-3.1-4.9c-3.5,0-5,2.5-5,6.2v7.8h-2.7V565.3z"/>
	<path class="st0" d="M133.1,563.6c1.6-1.7,4-2.5,6.4-2.5c4.7,0,6.7,2.3,6.7,6.8v6.9c0,0.9,0.1,2,0.2,2.8h-2.6
		c-0.2-0.7-0.2-1.7-0.2-2.4h-0.1c-1.1,1.7-2.8,2.8-5.3,2.8c-3.3,0-6-1.7-6-4.8c0-5.3,6.2-5.6,10.1-5.6h1v-0.5c0-2.3-1.5-3.5-4-3.5
		c-1.7,0-3.5,0.6-4.8,1.7L133.1,563.6z M140.8,569.8c-3.4,0-5.6,0.9-5.6,3.1c0,2,1.5,2.8,3.5,2.8c3.1,0,4.7-2.2,4.7-4.8v-1H140.8z"
		/>
	<path class="st0" d="M153.8,565.3c0-1.5-0.1-2.8-0.1-3.8h2.5c0,0.8,0.1,1.7,0.1,2.6h0.1c0.7-1.6,2.7-3,5.3-3c4.2,0,6.1,2.7,6.1,6.5
		v9.9h-2.7v-9.6c0-2.7-1.2-4.3-3.7-4.3c-3.5,0-5,2.5-5,6.2v7.8h-2.7V565.3z"/>
	<path class="st0" d="M177.1,553.3c1.1,0,1.9,0.9,1.9,1.9c0,1.1-0.8,1.9-1.9,1.9c-1.1,0-1.9-0.8-1.9-1.9
		C175.2,554.2,176,553.3,177.1,553.3 M175.8,561.5h2.7v16h-2.7V561.5z"/>
	<path class="st0" d="M195.2,563.8h-4.7v8c0,2.1,0,3.7,2.4,3.7c0.8,0,1.6-0.2,2.4-0.5l0.1,2.4c-0.9,0.4-2.1,0.6-3.1,0.6
		c-3.8,0-4.4-2-4.4-5.4v-8.8h-3.5v-2.3h3.5V557h2.7v4.6h4.7V563.8z"/>
	<path class="st0" d="M201.1,563.6c1.6-1.7,4-2.5,6.4-2.5c4.7,0,6.7,2.3,6.7,6.8v6.9c0,0.9,0.1,2,0.2,2.8h-2.6
		c-0.2-0.7-0.2-1.7-0.2-2.4h-0.1c-1.1,1.7-2.8,2.8-5.3,2.8c-3.2,0-5.9-1.7-5.9-4.8c0-5.3,6.2-5.6,10.1-5.6h1v-0.5
		c0-2.3-1.5-3.5-4-3.5c-1.7,0-3.5,0.6-4.7,1.7L201.1,563.6z M208.8,569.8c-3.4,0-5.6,0.9-5.6,3.1c0,2,1.5,2.8,3.5,2.8
		c3.1,0,4.7-2.2,4.7-4.8v-1H208.8z"/>
	<path class="st0" d="M221.8,565.3c0-1.5-0.1-2.8-0.1-3.8h2.5c0,0.8,0.1,1.7,0.1,2.6h0.1c0.7-1.6,2.7-3,5.3-3c0.3,0,0.7,0,1.1,0.2
		l-0.2,2.7c-0.4-0.1-1-0.2-1.4-0.2c-3.3,0-4.7,2.3-4.7,6v7.8h-2.7V565.3z"/>
	<path class="st0" d="M238.1,553.3c1.1,0,1.9,0.9,1.9,1.9c0,1.1-0.8,1.9-1.9,1.9c-1.1,0-2-0.8-2-1.9
		C236.2,554.2,237,553.3,238.1,553.3 M236.8,561.5h2.7v16h-2.7V561.5z"/>
	<path class="st0" d="M247.3,563.6c1.6-1.7,4-2.5,6.4-2.5c4.7,0,6.7,2.3,6.7,6.8v6.9c0,0.9,0.1,2,0.2,2.8H258
		c-0.2-0.7-0.2-1.7-0.2-2.4h-0.1c-1.1,1.7-2.8,2.8-5.3,2.8c-3.2,0-5.9-1.7-5.9-4.8c0-5.3,6.2-5.6,10.1-5.6h1v-0.5
		c0-2.3-1.5-3.5-4-3.5c-1.7,0-3.5,0.6-4.8,1.7L247.3,563.6z M255,569.8c-3.4,0-5.6,0.9-5.6,3.1c0,2,1.5,2.8,3.5,2.8
		c3.1,0,4.7-2.2,4.7-4.8v-1H255z"/>
	<path class="st0" d="M268,565.3c0-1.5-0.1-2.8-0.1-3.8h2.5c0,0.8,0.1,1.7,0.1,2.6h0.1c0.7-1.6,2.7-3,5.3-3c4.2,0,6.1,2.7,6.1,6.5
		v9.9h-2.7v-9.6c0-2.7-1.2-4.3-3.7-4.3c-3.5,0-5,2.5-5,6.2v7.8H268V565.3z"/>
	<path class="st0" d="M312.2,553.3h2.7l10.3,24.2h-3.4l-2.5-5.9h-12.1l-2.5,5.9h-3.3L312.2,553.3z M313.5,557L313.5,557l-5.1,11.9
		h9.9L313.5,557z"/>
	<path class="st0" d="M332,563.8h-3.5v-2.3h3.5v-3.6c0-3.9,1.4-6.7,5.7-6.7c0.7,0,1.5,0.1,2.1,0.4l-0.4,2.4
		c-0.6-0.2-1.2-0.3-1.8-0.3c-2.8,0-2.9,2-2.9,4.8v3h3.9v2.3h-3.9v13.7H332V563.8z"/>
	<path class="st0" d="M345,563.8h-3.5v-2.3h3.5v-3.6c0-3.9,1.4-6.7,5.7-6.7c0.7,0,1.5,0.1,2.1,0.4l-0.4,2.4
		c-0.6-0.2-1.2-0.3-1.8-0.3c-2.8,0-2.9,2-2.9,4.8v3h3.9v2.3h-3.9v13.7H345V563.8z"/>
	<path class="st0" d="M356.9,563.6c1.6-1.7,4-2.5,6.4-2.5c4.7,0,6.7,2.3,6.7,6.8v6.9c0,0.9,0.1,2,0.2,2.8h-2.6
		c-0.2-0.7-0.2-1.7-0.2-2.4h-0.1c-1.1,1.7-2.8,2.8-5.3,2.8c-3.2,0-5.9-1.7-5.9-4.8c0-5.3,6.2-5.6,10.1-5.6h1v-0.5
		c0-2.3-1.5-3.5-4-3.5c-1.7,0-3.5,0.6-4.8,1.7L356.9,563.6z M364.6,569.8c-3.4,0-5.6,0.9-5.6,3.1c0,2,1.5,2.8,3.5,2.8
		c3.1,0,4.7-2.2,4.7-4.8v-1H364.6z"/>
	<path class="st0" d="M379.2,553.3c1.1,0,1.9,0.9,1.9,1.9c0,1.1-0.8,1.9-1.9,1.9c-1.1,0-1.9-0.8-1.9-1.9
		C377.2,554.2,378.1,553.3,379.2,553.3 M377.8,561.5h2.7v16h-2.7V561.5z"/>
	<path class="st0" d="M388.5,565.3c0-1.5-0.1-2.8-0.1-3.8h2.5c0,0.8,0.1,1.7,0.1,2.6h0.1c0.7-1.6,2.7-3,5.3-3c0.3,0,0.7,0,1.1,0.2
		l-0.2,2.7c-0.4-0.1-1-0.2-1.4-0.2c-3.3,0-4.7,2.3-4.7,6v7.8h-2.7V565.3z"/>
	<path class="st0" d="M403.7,573.3c1.1,1.3,2.2,2.2,4.1,2.2c1.7,0,3.5-0.7,3.5-2.5c0-1.7-1.7-2.2-3.4-2.5c-3-0.7-5.6-1.3-5.6-4.6
		c0-3.1,3-4.7,6-4.7c2.3,0,4.3,0.8,5.4,2.9l-2.2,1.5c-0.7-1.1-1.8-1.9-3.4-1.9c-1.5,0-3.1,0.7-3.1,2.2c0,1.3,1.9,1.9,4,2.3
		c2.8,0.5,5.2,1.6,5.2,4.8c0,3.6-3.2,5-6.4,5c-2.7,0-4.7-0.7-6.2-3L403.7,573.3z"/>
</g>
</svg>
