<?xml version="1.0" encoding="utf-8"?>
<!-- Generator: Adobe Illustrator 21.1.0, SVG Export Plug-In . SVG Version: 6.00 Build 0)  -->
<svg version="1.1" id="Layer_1" xmlns="http://www.w3.org/2000/svg" xmlns:xlink="http://www.w3.org/1999/xlink" x="0px" y="0px"
	 viewBox="0 0 368.5 412.9" style="enable-background:new 0 0 368.5 412.9;" xml:space="preserve">
<style type="text/css">
	.st0{fill:#75C044;}
</style>
<path class="st0" d="M311.8,127.6c0,70.5-57.1,127.6-127.6,127.6c-70.5,0-127.6-57.1-127.6-127.6C56.7,57.1,113.8,0,184.3,0
	C254.7,0,311.8,57.1,311.8,127.6z M133.5,99h23.3c0.7,0,1.2-0.6,1.3-1.3c1.9-12.8,12.9-22.6,26.2-22.6c13.3,0,24.3,9.8,26.2,22.6
	c0.1,0.7,0.7,1.3,1.4,1.3h23.2c0.7,0,1.3-0.6,1.3-1.3c-2-27-24.6-48.3-52.1-48.3s-50.1,21.3-52.1,48.3C132.2,98.4,132.7,99,133.5,99
	z M209.3,147.4c15.1-8.3,25.7-23.8,27-41.9c0-0.7-0.6-1.3-1.3-1.3h-23.3c-0.7,0-1.2,0.6-1.3,1.3c-1.9,12.8-12.9,22.6-26.2,22.6
	c-13.3,0-24.3-9.8-26.2-22.6c-0.1-0.8-0.6-1.3-1.3-1.3h-23.3c-0.7,0-1.3,0.6-1.3,1.3c1.3,18.1,11.9,33.6,27,41.9
	c-15.8,8.7-26.7,25.3-27.2,44.5c0,0.7,0.6,1.3,1.3,1.3h23.1c0.7,0,1.3-0.6,1.3-1.3c0.7-14,12.3-25.2,26.5-25.2
	c14.2,0,25.8,11.2,26.5,25.2c0,0.7,0.6,1.3,1.3,1.3h23.2c0.7,0,1.3-0.6,1.3-1.3C236,172.7,225.1,156.1,209.3,147.4z"/>
<g>
	<path class="st0" d="M45.1,382.4c0,7.7-7.9,10.3-12.5,10.3s-12.5-2.6-12.5-10.3v-41.8c0-7.7,7.9-10.3,12.5-10.3s12.5,2.6,12.5,10.3
		V382.4z M32.7,310C10.4,310.1,0,325.7,0,339v44.9c0,13.3,10.4,28.9,32.7,29c22.3-0.1,32.7-15.7,32.7-29V339
		C65.3,325.7,55,310.1,32.7,310z"/>
	<polygon class="st0" points="175.8,411.1 175.8,371.9 205.9,371.9 205.9,351.9 175.9,351.9 175.9,332 210.8,332 210.8,311.8 
		155.6,311.8 155.6,411.1 	"/>
	<path class="st0" d="M245,342.8L253,374h-16.3L245,342.8z M262.6,411.1h20.1l-26.3-99.2h-23.5L207,411.1h20.2l4.6-17.6h26.3
		L262.6,411.1z"/>
	<polygon class="st0" points="119.7,361.4 145.3,311.8 122,311.8 108,340.7 93.9,311.8 70.6,311.8 96.3,361.4 70.5,411.1 
		94.1,411.1 108,382.2 121.9,411.1 145.5,411.1 	"/>
	<polygon class="st0" points="347.6,311.8 329.8,350 311.8,311.8 291.2,311.8 291.2,411.1 310.9,411.1 310.9,354.6 323.6,381 
		336.2,381 348.8,354.7 348.8,411.1 368.5,411.1 368.5,311.8 	"/>
</g>
</svg>
