<!DOCTYPE svg PUBLIC "-//W3C//DTD SVG 1.1//EN" "http://www.w3.org/Graphics/SVG/1.1/DTD/svg11.dtd" [
	<!ENTITY ns_flows "http://ns.adobe.com/Flows/1.0/">
]><svg xmlns="http://www.w3.org/2000/svg" xmlns:xlink="http://www.w3.org/1999/xlink" width="166" height="64" viewBox="-4 -2 166 64" overflow="visible"><defs><path id="a" d="M0 0h158v60H0z"/></defs><clipPath id="b"><use xlink:href="#a" overflow="visible"/></clipPath><path clip-path="url(#b)" fill-rule="evenodd" clip-rule="evenodd" fill="#0072CE" d="M3.5 57.9c0 .5-.7.5-.7.9l-.2.1c-1.3-.3-1.8-.9-2-2.2 0-.2.2-.5-.4-.5-.3 0-.2-.4-.1-.5.7-.2.7-.9 1.3-1.1.4-.2.1-.2-.1-.3-1.2-.6-1.2-1.4-.1-2.2.4-.3.5-.7 0-.9-.6-.2-.4-.6-.3-.8.1-.3.4-.5 0-.8-.1-.1 0-.3.3-.3.8-.2.8-.8.2-1.4-.3-.3-.8-.9-.1-1.3.3-.2.3-.4.3-.6 0-.8-.3-1.5-.2-2.3 0-.1 0-.2-.2-.3-.8-.5-.4-.9.1-1.3-.8-.6-.9-1.4-.3-2.1 0 0 .1 0 .1-.1-.4-1 .5-1.8.4-2.7 0-.9-1-1.6-.7-2.5.1-.3-.1-.6.4-.7.2-.1.3-.3.1-.5-.2-.4-.1-.8.5-.9-.7-.4-.8-.8-.4-1.4.2-.2.2-.5 0-.7-.6-.6-.6-1.1-.1-1.6.1-.1.2 0 .1-.2-.4-1.3.2-2.6.2-3.9 0-1.1-1-1.9-.7-3 0-.2-.1-.2-.3-.3-.2 0-.3-.2-.3-.3.6-.2.4-.9.9-1.1.8-.4 1-.8.3-1.4-.3-.3-.6-.3.1-.6s.7-1.6.2-2.2c-.3-.3-.3-.7 0-1 .3-.4.4-.6-.1-.9-.1 0-.1-.1-.2-.2.8-.6-.7-1.3.2-2.1.6-.6-.2-1.6.4-2.4.3-.3-.2-.3-.3-.4-.2-.2-.5-.7.4-.8.2 0 .4.2.5-.2 0-.3 0-.6-.3-.6-.5-.1-.4-.4-.4-.6 0-.4.4-.3.7-.3.9 0 1.7 0 1.9-1 0-.3.4-.2.6-.2 3.1-.1 6.2-.2 9.4-.2 1.1 0 2.2-.3 3.4-.1.3.1.8-.6 1.4-.5.4.1.8-.2 1 .4.2.3 1.2.3 1.3.1.4-.5.8-.3 1.2-.3h2.9c.2 0 .3 0 .4-.2.3-.3.7-.4.9.1.1.3.5.3.6.2 1.3-.7 2.8-.2 4.2-.3.6-.1 1.3.1 1.9-.3.2-.1.5-.1.8.1.4.3.7.6 1.1 0 .1-.2.5-.1.6.1.3.4.6.4.9.1.2-.2.4-.1.6-.1h2.9c.2 0 .5.2.6-.2 0-.2.4-.2.5-.1 1.1.7 2.1-.4 3.2 0 1.2.3 2.5.2 3.7.2.5 0 1.2.2 1.6-.3.1-.1.4-.1.5 0 .8.7 1.6-.2 2.4 0 1 .1 2 .1 3 .1.3 0 .8.2.9-.4.1-.3 1.7-.1 2 .2.4.4 1.3.4 1.7 0 .2-.2.4-.1.6-.1.9 0 1.7 0 2.6.1.5.1 1.1.3 1.6-.4.2-.3 1.1-.2 1.7-.1.4.1.8.1 1.2.1 2.5-.1 5 .3 7.6.2.3 0 .8.2.9-.4 0-.2.3-.2.5 0 .5.5.8.5 1.2 0 .1-.1.2-.1.3 0 .8.2 1.7-.3 2.3.5 0 .1.2.1.3.1.9-.9 2.1-.3 3.2-.4.7-.1 1.8.2 2.3 0 .7-.3 1-.2 1.4.1.1.1.4 0 .4-.1.3-.5.5-.8.7 0 0 0 .3.1.3 0 .7-1 1.8-.5 2.6-.4 2.7.2 5.3.2 8 .4.9 0 1.8.1 2.7.1.4 0 .9.2 1.1-.4 0-.1.7-.3.9.2.2.4.6.4 1 .2.7-.5.9-.5 1.3.2.5-.3.9-1.1 1.5-.1.1.1.5.3.8.1.7-.5 1.5-.7 2.1.1.1.1.3.1.4 0 .9-.6 2.4-.6 3.2 0 .3.2.4.1.6-.1.4-.2 1-.5 1.1.3.1.4.4.3.6.3h6.9c.5-.5 1.2-.2 1.8-.2.2 0 .8.2.8-.4 0-.1.5-.2.7-.1.7.4 1.4.3 2-.2.1 0 .2-.2.4 0 .4.4.9.3 1.1-.2.1-.1.9-.2 1-.1.1.3.5.3.5.3.7 1.2.9 0 1-.2.4-.8 1.1-.5 1.5-.3.4.2.9.2 1.2.1 1.3-.8 2.8-.6 4.2-.7 2.9-.2 5.9-.6 8.8-.7.2 0 .4 0 .4-.1.2-1.2 1.4-.4 2-.7.4-.2.8-.3 1.2-.4 1.2-.4 2.5-.4 3.8-.3.4 0 .1.4.2.6.1.2.4-.2.5.1.1.4-.5.2-.5.4-.1.7-1 1-1.1 1.5-.1.5-.2 1.3.3 1.8.6.6.5 1.3.3 1.8-.1.4-.1.7-.1 1-.1.7.4 1.4-.1 2.2-.1.1-.6 1 .5 1.1 0 0 .1.3.1.4-.2.6-.3 1.3-.4 1.9-.2 1-.3 1 .4 1.9.1.1.1.5 0 .6-.5.4-.1 1.1-.7 1.4v.1c-.4.5.7.6.4 1.1-.3.4-.4.8.2 1 .1.1.2.2.2.3-.8.4 0 1.3-.6 1.7-.1 0-.1.1-.1.2 1 .2.3.9.6 1.3.1.2.1.5-.2.6-.2.1-.3.3-.2.5.2.8.4 1.7.1 2.5-.1.3.3.8.4 1.2.3 1.1 0 2.1-.1 3.2-.1.7.1 1.4.2 2 .1.4.3.7-.3.9-.2.1-.1.4-.1.6.3 1.4.8 2.8.5 4.1-.2 1 .4 2.1-.5 2.9-.1.1-.2.8.3.9.4.1.3.3.4.6.2.6.1 1-.5 1.3-.3.1-.5.3 0 .4.3.1.3.2.3.4 0 .5-.5 1.1.2 1.6.1.1.1.4-.1.4-.9 0-.7.5-.6 1.1 0 .3 0 .7-.3 1-.2.3-.2.8.3 1.3.5.4.6 1.2.3 1.8-.2.3-.3.6-.3.9 0 .9-.5 1.8-.1 2.7.1.2-.8.5-1.1.4-.6-.3-1.4-.1-1.5.3-.2.6-.5.5-.9.5-1 0-2 0-3 .1-1.1.1-2.2-.3-3.3-.2-.7.1-1.3 0-1.8.5 0 0-.4.4-.7 0-.2-.3-2-.2-2.3 0-.8.6-.9.5-2.2.2-.3-.1-1.2-.3-1.4.4-.1.3-.3.4-.6.4-.5 0-1 .1-1.5.1-.4 0-.8.2-1.1-.3-.3-.5-1.2 0-1.7.1-.7.1-1 .2-1-.5 0-.4-.4-.4-.7-.4h-10c-.3 0-.7-.1-.6.3.1.6-.4.5-.8.5-4.4-.2-8.8-.2-13.2-.5-.4 0-.9-.3-1.2.4-.1.2-.9.3-1.2 0-.6-.6-1.2-.5-1.8-.2-.1.1-.2.1-.3 0-1.1-.6-1.1-.5-2.4 0-.4.2-1 .3-1.3-.2-.3-.4-.7-.4-.9-.2-.8.6-1.6.1-2.4.3-.5.1-.3-.5-.7-.5-1-.3-1.3.1-1.7.1h-5.2c-.4 0-.9 0-1.2-.4-.2-.3-.4.3-.8.3-1.1 0-2.3.1-3.4 0-1.4-.2-2.9-.2-4.3-.1-.6.1-1.3.3-2 .3-.4 0-.8.1-1-.4-.1-.2-.5-.2-.5 0 0 .8-.7.4-.9.4-1.1-.2-2.2-.1-3.2-.1-.2 0-.4-.1-.6.1-.2.3-.4.3-.5-.1 0 0-.3-.1-.3 0-1.1.7-2.3.1-3.5.3-.2 0-.4 0-.4-.2-.1-.4-.5-.4-.7-.3-.8.6-1.7.2-2.6.3-.4 0-.8-.1-1 .3 0 .1-.2.1-.2.1-1.3-.8-2.7.3-4-.1-.2-.1-.3 0-.4.3-.1.4-.3.2-.5 0-.4-.5-.5-.5-.6-.1-.2.4-.4.2-.7.2-1.7-.2-3.5-.3-5.1 0-1.2.2-2.4.3-3.5.2-1.4-.2-2.8-.3-4.1-.1-1.1.2-2.2.3-3.4.3-.6 0-1.2.1-1.7-.1-.2-.1-.5 0-.6.1-.8.8-1.9.3-2.8.4-.5 0-1.1-.3-1.6.2-.1.1-.3.1-.4 0-.2-.3-.4-.4-.7 0 0 .1-.3.1-.4.1-1.1-.4-2.2.2-3.2 0s-1.9-.6-3-.5c-2.3.4-4.7.7-7.1.6-1.4.9-3.1.6-4.6.8-1.7.2-3.3.1-5 .2-.4 0-1.6-.6-1.9-.9-.4-.4-1.1-.5-1.7-.6-.4-.1-.5-.3-.8-.6"/><path fill="#FFF" d="M74 25h2.4c2 0 3.1-1 3.1-2.8s-1.1-2.8-3.2-2.8H74V25zm-6.6-6.9c0-2.4 1.2-3.7 3.4-3.7h5.7c6.1 0 9.5 2.7 9.5 7.8s-3.2 7.6-9.3 7.6h-2.6v6h-6.7V18.1zm20.4-.7c0-2.1 1-3.1 2.8-3.1h1c1.9 0 2.9 1 2.9 3.1v12.8h6.5c2.1 0 3.1.9 3.1 2.8s-1 2.9-3.1 2.9H87.8V17.4zm25.8 9.3h4.6l-2.3-6.2-2.3 6.2zm5.8 4.8h-6.9l-1.7 4.4h-6.6l7.7-19.8c.3-1.1 1.2-1.8 4.2-1.8s3.8.8 4.1 1.8l8 19.8h-6.9l-1.9-4.4zm9.6-14.1c0-2.1 1-3.1 2.7-3.1h.6c1.6 0 2.1.5 3 1.6l7.7 10V14.4h6.2V33c0 2.1-1 3.1-2.7 3.1h-.5c-1.6 0-2.1-.4-3-1.5l-7.9-10.2v11.5H129V17.4zM67.9 43c0-.5.3-.8.8-.8h.3c.5 0 .8.3.8.8v5.5h-1.9V43zm3.4 0c0-.6.3-.9.8-.9h.2c.5 0 .6.1.9.5l2.2 2.9v-3.3h1.8v5.4c0 .6-.3.9-.8.9h-.2c-.5 0-.6-.1-.9-.4l-2.3-3v3.3h-1.8V43h.1zm6.9 0c0-.6.3-.8.9-.8h4c.6 0 .9.3.9.8 0 .6-.3.9-.9.9h-1v4.6h-1.9v-4.6h-1.1c-.6 0-.9-.3-.9-.9m6.8 4.5v-4.2c0-.7.3-1.1 1-1.1h4.2v1.7H87v.6h2.4v1.6H87v.7h3.3v1.7H86c-.6 0-1-.4-1-1m8.4-2.4h.8c.6 0 .9-.3.9-.7 0-.5-.3-.7-.9-.7h-.8v1.4zm1.3 2.6l-.9-1.2h-.3v2h-1.9v-5.2c0-.7.3-1.1 1-1.1h1.9c1.7 0 2.6.7 2.6 2.1 0 .9-.5 1.6-1.4 1.8l1.4 1.8c.1.1-.3.7-1.1.7-.6-.1-.9-.4-1.3-.9m3.6-4.7c0-.6.3-.9.8-.9h.2c.5 0 .6.1.9.5l2.2 2.9v-3.3h1.8v5.4c0 .6-.3.9-.8.9h-.2c-.5 0-.6-.1-.9-.4l-2.3-3v3.3h-1.8V43h.1zm9.4 2.8h1.3l-.7-1.8-.6 1.8zm1.7 1.4h-2l-.5 1.3H105l2.2-5.8c.1-.3.4-.5 1.2-.5.9 0 1.1.2 1.2.5l2.3 5.8h-2l-.5-1.3zm3-4.2c0-.6.3-.8.9-.8h4c.6 0 .9.3.9.8 0 .6-.3.9-.9.9h-1v4.6h-1.9v-4.6h-1.1c-.6 0-.9-.3-.9-.9m6.9 0c0-.5.3-.8.8-.8h.3c.5 0 .8.3.8.8v5.5h-1.9V43zm7.8 2.3c0-.9-.6-1.5-1.4-1.5-.9 0-1.4.6-1.4 1.5s.6 1.5 1.4 1.5c.9.1 1.4-.5 1.4-1.5m-4.7 0c0-1.9 1.4-3.3 3.3-3.3s3.3 1.4 3.3 3.3-1.4 3.3-3.3 3.3-3.3-1.4-3.3-3.3m7.8-2.3c0-.6.3-.9.8-.9h.2c.5 0 .6.1.9.5l2.2 2.9v-3.3h1.8v5.4c0 .6-.3.9-.8.9h-.2c-.5 0-.6-.1-.9-.4l-2.3-3v3.3h-1.8V43h.1zm9.5 2.8h1.3l-.7-1.8-.6 1.8zm1.7 1.4h-2l-.5 1.3H137l2.2-5.8c.1-.3.4-.5 1.2-.5.9 0 1.1.2 1.2.5l2.3 5.8h-2l-.5-1.3zm3.2-4.2c0-.6.3-.9.8-.9h.3c.6 0 .8.3.8.9v3.7h1.9c.6 0 .9.3.9.8 0 .6-.3.9-.9.9h-3.8V43zM14.5 16.7c-.5.3-2.5 2.4-2.7 2.8-.1.2-.5.8-.5.9-.1.1-.4.5-.4.5s-.3.7-.3.8l-.5.5s.2.4-.3.9c-.3.3-.6 1.4-.6 1.5-.1.2-.5.7-.4 1.2 0 .2-.1.4-.2.6-.1.2 0 .7-.4.8-.3.1-.2.6-.1.7.2.4 0 .8 0 .8s-.1.4.1.6c.2.3 0 .9 0 1.1-.1 1 .6 1.3.4 1.9-.1.4.1.7.1 1 0 .3.2.4.2.5-.1.2.1.7.1.7-.1.5.7 1.3.7 2.1 0 .7.8 1 .8 1 .4.5.4 1 .8 1.3 0 0 .5.4.6.4.3.1 0 .3.1.4.3.8 1.1 1.2 1.1 1.2 1.7 2 5.9 4.6 6.3 4.6.4.1.8.1 1.1.4.3.3 1.8.8 1.8.8.2.1.4.1.7.1.2.1 1.5.5 1.7.6.3.1.6.3 1.5.5.4.1.8.3 1.3.4.5.1.9-.3 1.3-.1.2.6.9.8 1.2.8 2.1.4 5 .5 7.1.5 0 0 .7.1 1.4 0 .7 0 1.6-.3 2.3-.3 1.1-.3 2.3-.5 3.3-1 .3-.1.7-.5.9-.5.5-.2 1.2-.8 1.2-.9.1 0 .7-.4.7-.4s.2-.1.4-.3c.1-.1 1.9-1.5 1.9-1.5.1-.3.5-.4.7-.6l.1-.1c.1-.1.2-.2.3-.2.1 0 .1-.1.2-.1l.1-.1v-.1h.1v-.1s0-.1.1-.1v-.1l-.1-.1c0-.1.1-.1.1-.2h.2l.1.1c.1 0 .1-.1.1-.1v-.1c0-.1-.1-.1-.1-.1v-.1c0-.1-.1-.1-.1-.1-.1 0-.1 0-.2.1 0 0 0 .1-.1.1h-.1v.1h-.5c-.1 0-.2.1-.3.1-.1 0-.2.1-.2.1h-.2l-.1.1s-.1 0-.1.1c0 0 0 .1-.1.1l-.1.1c-.1 0-.3 0-.4-.1-.1-.1-.2-.3-.2-.4 0-.1 0-.1-.1-.1l-.1.1c-.1.2-.3.3-.5.3h-.5c-.1 0-.1.1-.1.1v.1c0 .1-.1.1-.2.1l-.1-.1s.2-.1.1-.2h-.1c-.1 0-.1.1-.2.1s-.2 0-.2-.1V43h.1s.1 0 .1-.1v-.1l.1-.1c0-.1.1-.1.2-.2.1 0 .2 0 .2-.1s0-.2.1-.3c.1-.1.1-.1.1-.2-.1-.1-.3 0-.4.1-.1 0-.1.1-.2.1s-.1-.1 0-.1c0-.1.1-.1.2-.2s.1-.2.2-.2h.2c.1-.1 0-.2-.1-.2s-.2 0-.3.1c-.1.1-.2.1-.2.2-.1.1-.1.1-.2.1h-.1c-.1 0-.1.1-.2.1-.1.1-.2.1-.3 0l.1-.1h.3c.1 0 .2-.1.3-.1v-.1c.1-.1 0-.3-.2-.2l-.3.3c-.1.1-.1.1-.2.1s-.2-.1-.2-.2.1-.1.2-.1.1-.1.2-.1c.1-.1.2-.1.3-.2.1 0 .2 0 .2-.1 0 0 0-.1-.1-.1h-.2c-.1 0-.2 0-.3-.1-.1 0 0-.2-.1-.2s0 .1-.1.2c0 .1-.3.1-.3 0s.1-.2.2-.2.2-.1.3-.1h.1s0-.1.1-.1c0 0 .1-.1 0-.1H46c-.1 0-.1.1-.2.2 0 .1-.1.1-.2.1s-.1-.1-.2-.1c-.1-.1-.1.1-.1.2s-.1.1-.2.1-.1.1-.2.2c-.2.1-.4.1-.6.2-.2.1-.1.1-.2.1-.1.1-.3-.1-.5 0l-.1.1H43c-.1 0-.1.1-.2.1-.1.1-.3.2-.3.2-.1 0-.1-.1-.1-.1-.1-.1-.1 0-.2 0s-.1.2-.1.2-.1 0-.1-.1c0 0 0-.1.1-.1 0 0 0-.1-.1-.1l-.1.1h-.5c-.1 0-.1.1-.1.1h-.4l-.1.1h-1c-.3.1-.6.2-.9.2-.3 0-1.7.1-1.9.1-.2 0-1.1 0-1.2.1h-.3c-.1 0-.1-.1-.2-.1-.2-.1 0 .1-.3 0-.2-.1-.4-.1-.6-.1-.4 0-1.1-.1-1.2-.1-.3 0-.5-.1-.7-.3-.1-.1-.3-.2-.4-.4-.1-.5.1-1.3.2-1.5 0-.2.1-1 .2-1.1v-.1c.3-.3.2-.3.2-.6.1-.5.3-1.2.8-1.3.3-.1.6-.2.7-.3.2-.1.6 0 1-.2.1 0 .1-.1.2-.1.3 0 .6.1 1 0 .3 0 .6-.1.7-.1.1 0 0-.1.1-.1.1-.1.1.1.3.2.1 0 .7.1.8.1v-.1c.1-.1.2.1.2.1.1.1 2.4.4 2.6.4.3.1.6 0 1-.1.1-.1.6-.3.7-.4V36c.1-.1.2-.3.1-.5V35c0-.1 0-.2.1-.3.1-.1.1-.3.1-.4-.1-.2-.3-.3-.3-.3-.1-.1 0 0 0-.1s-.2 0-.2 0-.3 0-.4-.1c-.3-.1-.6-.1-1-.2-.5 0-1-.2-1.5-.2-.1 0-.3.1-.3.1-.1 0 0-.2-.3-.1-.3 0-.6-.1-.9-.1-.3-.1-1 0-1.1-.1h-.2c-.1 0-.2-.2-.4-.2l-.1-.1h-.3c-.1-.1-.3-.1-.3-.3-.1-.3.5-.6.6-.7.2-.1.3-.3.6-.3.1 0 .2-.1.3-.2.2-.2.9-1.2 1.1-1.3.2-.2.1-.4.4-.7.1-.1.2-.4.3-.5.2-.3.1-.7.4-.9 0 0 .1-.1.1-.2s-.1-.2-.1-.2v-1.1c0-.2.1-.3.3-.3.1 0 0-.3 0-.4-.1-.2-.3-.6-.7-.6-.4 0-.8.3-1.1.6-.2.2-.7 1-.8 1-.1.1 0 .2-.2.4-.1.1-.2.1-.2.1-.1.1-.2.3-.2.4v.2c-.2.2-.2-.1-.3 0-.1 0-.1.1-.1.2-.2.2-.3.3-.5.3-.1 0-.4.1-.5.2-.1.1-.3.1-.3-.1 0-.1.1-.6.1-.7.1-.2-.3-.4-.1-.6.1-.1.1-.3 0-.4 0-.1-.1-.3-.1-.4-.1-.1 0-.2-.1-.4-.1-.1-.2.1-.2-.2 0-.2-.2-.2-.3-.3-.1-.1-.3-.2-.4-.3-.4-.3-.8-.4-1.2-.5-.4-.1-.9-.1-1.4 0-.1 0-.3 0-.3-.1l-.1-.1c-.1-.1-.3 0-.4.1-.3.1 0 .2-.2.3-.2.1-.7.2-.9.3-.1 0-.2.1-.3.1-.1 0-.2.1-.3.2-.4.2-.3 1-.3 1.2 0 0 0 .1.1.1s.2.1.2.3c0 .2 0 .3-.1.5s.1.1.1.3c0 .2.2.7.2.9 0 0 0 .1.1.1h.1c.1 0 .1.2.2.4.1.1.1.3.2.4.1.1.1.1.1.2.1.1.1.1 0 .2 0 .1-.2.2-.3.2-.1 0-.4-.1-.5-.1-.2-.1-.5 0-.5 0-.1-.1-.2-.1-.3-.1-.1 0-.1.1-.1.1-.1 0-.1-.1-.2-.2-.1-.2-.3-.2-.5-.2-.3-.1-.5-.2-.7-.3-.2-.2-1-.5-1.1-.6 0-.1-.3-.1-.3-.1 0-.1-.3-.1-.3-.2s-.2-.1-.2-.1c-.1 0-.2-.1-.3-.1-.1 0-.2.1-.2 0l-.1-.1c-.2 0-.3 0-.4.1-.1.1-.3.2-.4.4-.1.1-.1.2-.1.3 0 .1-.1.1-.2.2s0 .2.1.3c.1 0 0 .1.1.2.2.1.2.4.4.6.2.2.3.6.4.7.1.2.5 0 .5.3 0 .1.2.3.6.6.1.1.7.4 1 .5.6.1.9.4 1.1.5.1.1.3 0 .6.5.1.2.2.8.2 1.2.1.7.4.6.3.8-.2.3.1.7.1 1.5 0 .2-.1.5-.2.7-.2.5.1 1.1 0 1.2-.1.3-.2 1.3-.4 1.5-.1.1-.3.1-.4 0-.2-.1-.9.1-1.1-.1-.3-.3-.6-.2-.9-.3-.2 0-.4-.2-.6-.2-.3-.1-1.5-.6-1.9-.8-1.1-.6-2.6-1.2-2.7-1.8 0-.2-1.7-1.3-2-1.7-.1-.2-.4-.5-.5-.6-.1-.1-.1-.4-.2-.6-.2-.3-.5-.3-.6-.9 0-.2-.2-.1-.4-.7-.6-1.5-.5-3.3-.5-3.9 0-.6.5-1.8.7-2.2.1-.3.4-.4.5-.9 0-.1.7-.6 1-1 .2-.4.7-.8 1.1-1 .2-.1 2.8-2 3-2.3.1-.1.3-.5.9-.5.1 0 .4-.2.4-.3 0-.3 2.7-.9 3.1-1.4.1-.1.9-.4 1.3-.5.1 0 .1.1.3-.1.2-.2.6.1.9-.1.3-.3.4-.4 1-.4s.5-.3 1-.4c.3 0 .7-.2.8-.4.1-.2 1.3-.3 1.5-.5.6-.4 1 0 1.6-.1.1 0 .4.1.5.1.2 0 .4-.2.5 0 .1.1 1.1.1 1.4.1.1 0 .2-.1.2 0s.7.1.8.2c.2.2.5.3.8.2.2-.1 1 .1 1.3.2.2.1-.2.2.6.2.5 0 2.1 1 2.5 1.1.4 0 .5.5 1 .6.8.3 1.7.9 3.6 2.4.1.1.2.4.3.4.5 0 .9.9 1.2 1.2.1.1.4-.1.3.4 0 .1.2 0 .3.3 0 .4.8.7 1 1.6 0 .1.1.2.2.3.1.3.7 1.9.7 2.5 0 .2.1 1.2-.1 2-.1.7-.4 1.4-.7 2-.2.4-.5.9-.6 1.1 0 .1-.1.3-.1.4 0 .1 0 .2-.1.3-.1 0-.3.1-.3.3 0 .1-.2.1-.2.2s-.3.1-.3.3c0 .1-.2.2-.2.3 0 .1-.1.1-.2.1s-.3.4-.3.5c0 .1-.1 0-.1.2 0 .1-.1.1-.2.3-.1.1-.2.1-.2.1 0 .1-.1.2-.1.3 0 .1-.2.4 0 .4.1 0 .1-.1.2-.2s.2-.1.3-.2c.1-.1.3-.1.4-.2 0-.1.1-.2.2-.2h.1s.1 0 .1-.1c.1-.1.1-.2.2-.2 0 0 .1 0 .2-.1V36h.1l.1-.1c.1-.1.1-.1.2 0s-.3.4-.3.4c-.1.1-.1.2-.2.3-.1.1-.1.2-.2.2 0 0-.1 0-.1.1 0 0 0 .1-.1.1 0 .1-.1.1-.2.1-.1.1-.1.1-.1.2-.1.1-.1.1-.1.3 0 .1.1.1.1.1.1 0 .1-.1.1-.2s.1-.1.1-.1c.1 0 .1-.1.2-.1l.1-.1.3-.3.2-.2s.1 0 .1-.1c0 0 0-.1.1-.1s.1.1.1.1c0 .1 0 .1.1.1s.1 0 .1-.1.1-.1.1-.2c.1 0 .1 0 .2-.1s.2-.1.2-.2l.2-.2.1-.1h.2s0-.1.1-.1.1.1.1.2v.1h.1c.1 0 .1 0 .1.1 0 0 0 .1-.1.1-.1.1-.2.1-.2.2l-.1.1-.3.3c-.1.1-.2.2-.2.3 0 .1-.1.1-.1.2-.1.1-.1.1-.1.2l-.2.2v.1c0 .1 0 .1-.1.1-.1.1-.2.2-.2.4 0 .1 0 .2.1.1l.1-.1s.1 0 .1-.1c.1 0 .1-.1.2-.1 0-.1 0-.2.1-.2h.6v-.3s0-.1-.1-.1l-.1-.1V37s0-.1.1-.1.1.1.2.1h.4v-.1c0-.1-.1-.1-.1-.1v-.1s.1-.1.1 0c.1 0 .2.1.3.1 0 0 .1-.1 0-.1v-.2c0-.1 0-.1.1-.2 0-.1.1-.1.2-.1h.1l.1.1v.1c0 .1-.1.1 0 .2s.1.1.2 0h.2l.1.1c0 .1-.1.1-.1.2s-.1.1-.2.2h-.1c-.1 0-.1 0-.1.1s0 .1.1.1.1.1.1.1c0 .1-.1.2-.2.3-.1 0-.1.1-.1.1l-.1.1v.1c-.1 0-.1-.1-.1-.1h-.2v.3c0 .1.1 0 .1 0s0-.1.1-.1.1.1.1.1 0 .1-.1.1c0 0 0 .1.1.1s.2-.1.2-.1c0-.1-.1-.1 0-.1h.1l.1.1.1-.1c.1-.1.1-.1.2-.1.1-.1.2-.1.3-.2.1-.1.1-.2.2-.3 0-.1 0-.1.1-.2s.2 0 .3-.1l.1-.1s0-.1.1-.1V37s0-.1.1-.1h.1c.1.1.2 0 .2 0 .1.1 0 .2-.1.2-.2.1-.1.4-.3.5-.1 0-.1 0-.2.1s0 .2-.1.3h-.1v.2l-.1.1h.4v-.1h.2s.1 0 .1-.1.1-.1.1-.2.1-.1.2-.1h.1l.1-.1c.1-.1.2-.1.2-.1s.1-.1.1 0v.1c0 .1-.2.1-.2.2v.1c0 .1-.1.1-.2.1-.1.1-.2.2-.2.3v.1s.1.1 0 .1h-.1c-.1 0 0 .1-.1.2 0 .1-.1 0-.1.1v.2c0 .1-.1.1-.2.1h-.1v.2l-.1.1h.3l.3-.3c.1-.1.2-.3.3-.4 0 0 .1-.1.2-.1s.1.1 0 .1c0 0 0 .1-.1.1h-.1l-.1.1c0 .1-.1.2-.1.2s-.1 0-.1.1-.1.1-.1.2v.1c.1 0 .1-.1.1-.1 0-.1.1-.1.2-.1s.1-.1.1-.2l.1-.1c0-.1.1-.1.1-.1v-.1c.1 0 .2 0 .2.1s-.1.1-.1.2c-.1.1-.2.3-.3.4-.1.1-.1.3-.1.4 0 .1-.1.2-.2.2-.1.1-.1.1-.2.1-.1.1-.1.1-.1.2-.1.1-.2.1-.3.2l-.1.1c0 .1-.1.1-.2.2 0 .1-.1.1-.1.2-.1.1-.1.1-.1.2h-.2s0 .1-.1.1l-.1.1c0 .1.3-.2.4-.2l.3-.3.7-.7c.2-.2.4-.4.6-.7.1-.1.2-.2.2-.3 0-.1.1-.2.1-.3h.2c.3-.1.4-.5.6-.7.5-.6 1.2-2.1 1.2-2.2 0-.1.1-.4.4-.5.2 0 .1-.4.2-.6.1-.2.1-.5.2-.6.2-.3.3-.8.3-1 .1-.3.7-2.6.6-4.4 0-.4 0-2.5-.6-3.1-.4-.4 0-.9-.2-1.6-.1-.2.2-.2.2-.4.2-.5-.2-1-.4-1s-.6 0-.7-.3c0-.1.2-.6-.1-1.1-.1-.2-.3-.8-2-2.1-.6-.4-1-1-1.5-1.5-.1-.3-1-1-1.2-1.2-.2-.1-.4-.6-1.1-.9-.2-.1-1.8-1.4-2-1.4-.7-.2-1.9-1.1-2.1-1.1-1.2-.3-1.6-1-2.1-1-.3 0-1.3-.1-1.8-.7-.3-.3-.7-.4-1.1-.2-.2.1-1-.5-2.1-.4-.2 0-.4-.4-1.3-.3-.8.1-1.3-.4-1.6-.5-.3-.1-2-.5-2.7-.5H35c-1.6-.8-3-.8-4.6-.6-.4.1-5.1 1.3-5.6 1.6-.4.2-1.4.5-1.6.6-.5.2-2.5.9-2.6 1.1 0 .1-.4.1-.4.2-.1.1-.5.6-1.2.8-.4.2-2.4 1.6-2.8 1.9-.3.3-1.4 1.2-1.7 1.3m45.6 5.8c0 .2 0 .3-.2.4h-.2c-.1 0-.1-.1-.2-.1 0 0 0-.1-.1-.1l-.1-.1v-.2s0-.1.1-.1h.1c.3 0 .5 0 .6.2"/><path fill="#FFF" d="M48.2 37.2c0 .1-.1.2-.2.2 0 .1-.1.2-.2.1 0-.1.1-.3.2-.4.1 0 .2 0 .2.1m.5.2s-.1.1 0 0c-.1.2-.2.2-.2.3l-.1.1c-.1.1-.2.3-.4.4l-.2.2s-.2.2-.2.1v-.2l.1-.1c0-.1 0-.1.1-.2 0-.1 0-.1.1-.2.1 0 .2-.1.2-.1.1 0 .1-.1.2-.1v-.1s0-.1.1-.1l.1-.1c0 .1.1 0 .2.1 0-.1 0 0 0 0m5.4.6v.1c0 .1-.1.1-.1.1-.1 0-.1 0-.2.1h-.2s-.2 0-.1.1c.1 0 0 .1 0 .1h-.2s0-.2.1-.2c0 0 .1-.1.2-.1s.1-.1.2-.1.1-.1.2-.1c0-.1 0 0 .1 0m-3.5.2h-.1c0-.1.1-.1.1-.1v.1"/><path fill="#FFF" d="M50.7 38.3s-.1 0 0 0l-.1.1c-.1 0-.1.1-.2.1l-.1.1c-.1 0-.1 0-.1-.1s.1-.1.1-.1.1 0 .1-.1c0 0 .1-.1 0-.1h.2c0 .1 0 .1.1.1-.1 0 0 0 0 0m-3.5.7c-.2.2-.4.4-.6.2-.2-.1-.1-.3 0-.4.2-.2.6-.4.7-.3.1.2-.1.4-.1.5m5.9-.1v-.3h.1s.1 0 0 .1c0 0 0 .1-.1.1v.1m-3.3 0s-.1-.1-.1-.2h.1v.2m-.3.3c0-.1 0-.1 0 0 .1-.1.1-.1.1-.2s-.1-.1-.1-.1c-.1 0-.1.1-.1.1-.1 0-.2.1-.3.1h-.3v.1c0 .1.2.1.3.1.1 0 .2 0 .2-.1.1.1.1 0 .2 0m4.7 0s.1 0 0 0c.1 0 0 0 0 0 0 .1-.1.1-.1.1H54s-.1-.1 0-.1h.2m-5.5.5c-.1 0-.1-.1-.1-.1s.1-.1.2 0c0 0 0 .1-.1.1m-3 .8s.1.1 0 0c-.1.1-.1 0-.2-.1v-.1c.1 0 .1-.1.2-.1h.1l-.1.1v.2m8 .5c.1 0 0 .2-.1.2s0-.2.1-.2m-.6.2c.1.1 0 .3-.2.4-.1 0-.1.1-.2.1s-.1-.1-.2-.1c0-.1 0-.2.1-.3.1 0 .1-.1.2-.1.2-.1.3-.1.3 0m-.5.7l-.1.1h-.1.1c0-.2 0-.2.1-.1 0-.1 0-.1 0 0M38.4 17.8c0 .1-.1.3-.2.4 0 .1-.1.1-.1.2 0 0-.1.1-.2.1-.1.1-.2.1-.3 0-.1-.1 0-.2 0-.4-.1-.2 0-.4.1-.5.1-.1.1-.3.3-.4.1 0 .1-.1.2-.1.2.2.2.5.2.7m-2.4.9c.1.1.1.3.2.4.1.1.1.4.1.4-.1 0-.1.1-.2.1s-.5 0-.6-.3v-.9c0-.2.2-.2.3-.1 0 .1.2.3.2.4m4.8.3c0 .2-.3.2-.2.4 0 .1-.1.2-.2.2-.2.1-.4.3-.7.2-.1-.2-.4-.2-.4-.4.1-.2.3-.2.5-.3 0-.2.9-.3 1-.1zm-5.6 1.5c0 .1 0 .2-.1.3-.1.1-.3.1-.4.1h-.4s-.3-.1-.3-.2l-.1-.3c0-.1.2-.2.3-.2h.4c.2.1.5.1.5.1.1.1.1.2.1.2m3.2.1c0-.1-.2-.3-.3-.3-.1-.1-.3 0-.4-.1-.3-.1-.4.2-.7.2-.1 0-.1.1-.2.2-.2.1-.4.7-.4.8-.1.3.2.5.3.5.2 0 .4 0 .5-.1.3-.1.5-.3.7-.5.1-.2.2-.3.3-.5.3-.1.2-.2.2-.2m1.1 1.1c-.1.4-.8 1.2-1.8 1.4-.4.1-.9.2-1.2 0 0 0-.2-.2-.3-.2-.2-.1-.2 0-.4-.1 0 0-.1-.2-.1-.3 0-.1 0-.2-.1-.2 0-.1-.2-.2-.1-.4 0-.1-.1-.3.1-.6 0-.1.2-.4 0-.4-.1 0-.1-.2 0-.3.2-.1.2-.7.8-.8.4-.1.7-.6 1.1-.6.2 0 .4 0 .6.1.2.1.4.1.5.3.1.1.4.3.5.5.1.2.3.3.3.5 0 .1.1.4.1.5.1-.1 0 .4 0 .6m1.5 0c.1 0 .2.1.2.2s-.1.1-.2.1-.1.2-.2.2-.2 0-.2.1c-.2 0-.4 0-.6-.1 0 0-.1 0-.1-.1 0 0-.2-.1-.2-.2 0 0 0-.1-.1-.1-.1-.1 0-.2.1-.2h.2c.2-.1.3 0 .5 0h.2c.2.1.4.1.4.1m-5.9 1.1c.1.2 0 .3-.1.3-.1.1-.2.1-.2.1s-.2.1-.3.1h-.3c-.1 0-.2-.1-.2-.2.1-.4.5-.5.8-.6.2 0 .3.1.3.3m3.9.6c.1.1.2.2.2.3.1.1.1.2.1.4s-.1.2-.2.3c0 0 0 .1-.1.1h-.2c-.1 0-.1 0-.2-.1 0-.1-.1-.1-.1-.2v-.3s0-.1-.1-.1v-.1c0-.1.1-.1 0-.2 0-.1 0-.1.1-.1h.5m-2 .4c.1.2.1.3 0 .5-.1.1-.1.3-.2.4l-.1.1c-.1.1-.2-.1-.3-.1l-.1-.1c0-.4.3-.9.4-1 .1 0 .2.2.3.2m12.3 19c-.1.1 0 .3-.1.4-.1.1-.2.1-.3.1-.1 0-.1-.1 0-.2v-.5h.1s.1 0 .1.1c0 0 .1 0 .2.1-.1-.1 0-.1 0 0v-.1h.1v.1h-.1m-2.7-2.1c-.1 0-.1.1-.1 0v-.2c.1-.1.2 0 .2-.1 0 0 .1-.3.2-.1.1.1 0 .2 0 .2v.1l-.1.1h-.2m2.5-3.7s-.1 0 0 0c-.1.1 0 .1 0 0 0 0 .1 0 0 0 .1-.1 0 0 0 0m2.6.6s-.2 0-.2.1.3 0 .2-.1m.3-.8s-.1-.1-.1 0c0 0-.1.1 0 .1h.2s.1-.1-.1-.1c.1 0 0 0 0 0m-1.1-.3c-.1 0-.2.1-.2.1-.1.1-.2.2-.3.4 0 .1-.1.1-.2.2v.1h.2s.1 0 .1-.1c0 0 .1 0 .1-.1l.1-.1s0-.1.1-.1l.1-.1.1-.1c-.1-.1-.1-.2-.1-.2m2-.1h-.1c-.1 0-.1-.1-.1.1v.3c.1 0 .2-.1.2-.2-.1 0 .1-.2 0-.2m.3.7c.1 0 0 .1-.1.2h-.3v-.1l.1-.1s.1 0 .1-.1c.1 0 .1 0 .2.1m-3.7.4c.1 0 0 .1 0 .1l-.1.1c-.1.1 0-.2.1-.2m-.4.4c-.1-.1-.2.1-.2.2-.1 0-.2.1-.1.2s.2-.1.2-.1c.1-.1.2-.3.1-.3m3.3 0c0 .1 0 .1 0 0-.1.1 0 .1 0 .1h.1s.1 0 .1-.1c-.1.1-.1.1-.2 0 .1.1 0 0 0 0m0 .4c-.2 0-.5 0-.6.2-.1.1 0 .3.1.3h.3c.1 0 .1-.2.1-.2s.1-.1.2-.1c.1-.2 0-.2-.1-.2m2.4.8c-.1 0-.3.2-.3.3.2 0 .5-.4.3-.3m-2.9-.2c-.1 0-.2-.1-.2 0s.2 0 .2 0c.1 0 .1 0 0 0m-7.5 1.8c0-.1-.2 0-.2 0H44c-.1.1 0 .1.1.1h.1c.1 0 .2 0 .2-.1.1.1.1.1 0 0m-.7.3s-.1.1 0 0h-.3v.1h.2c.1.1.1 0 .1-.1m3.3-.4l-.1.1v.1h.2s.1 0 .1-.1c.1 0 .2-.1.2-.2s-.1 0-.2 0c-.1.1-.1.1-.2.1m.1.7c0 .1.1.1.2.2.1 0 .2 0 .2-.1v-.1h-.2c-.1 0-.1-.1-.2-.1v.1m.4-.2s0 .1.1.1c.2.1.1 0 .2-.2l.1-.1c-.1-.1-.4.1-.4.2m.4.4c0-.1 0-.1 0 0 .1-.1.2-.1.3-.2v-.1c-.1 0-.1.1-.2.1s-.3.2-.3.2h.2c-.1 0-.1 0 0 0m.1 0c-.1 0-.1.1 0 0-.1.1-.2.1-.2.1l-.1.1s0 .1.1.1h.1s.1-.1 0-.1l.1-.2c0 .1 0 .1 0 0 0 .1 0 0 0 0m-.3.3h-.1s-.1.1 0 .1h.2c-.1 0-.1 0-.1-.1 0 .1 0 0 0 0m2.2 1c-.1 0-.1 0-.1.1v.1c.1 0 .2-.1.3-.1l.2-.1c-.2-.1-.3 0-.4 0m-2.5-.1c0 .1-.1.1-.2.2 0 .1.1.1.2.1.2 0 .5.1.7-.1.1-.1.1-.2.1-.3-.1-.1-.2 0-.3 0-.2 0-.4-.2-.5.1m3.6-.4c0 .1 0 .1 0 0 0 .1 0 .1.1.1s.2.1.2.1l.1.1c.1 0 .1 0 .1-.1v-.2c0-.1-.1-.1-.2-.1H51c.1.1.1.1 0 .1"/></svg>