<?xml version="1.0" encoding="utf-8"?>
<!-- Generator: Adobe Illustrator 21.0.0, SVG Export Plug-In . SVG Version: 6.00 Build 0)  -->
<svg version="1.1" id="Layer_1" xmlns="http://www.w3.org/2000/svg" xmlns:xlink="http://www.w3.org/1999/xlink" x="0px" y="0px"
	 viewBox="0 0 238.1 249.7" style="enable-background:new 0 0 238.1 249.7;" xml:space="preserve">
<style type="text/css">
	.st0{fill:#A47400;}
	.st1{fill:#802245;}
</style>
<g>
	<path class="st0" d="M95.5,178.8c1.8,0,3.4-1.5,3.4-3.4c0-1.8-1.5-3.4-3.4-3.4c-1.9,0-3.4,1.5-3.4,3.4
		C92.2,177.3,93.7,178.8,95.5,178.8 M67.7,201c-1.9,0-3.4,1.5-3.4,3.4c0,1.8,1.5,3.4,3.4,3.4c1.8,0,3.4-1.5,3.4-3.4
		C71,202.5,69.5,201,67.7,201 M75.9,201c-1.8,0-3.4,1.5-3.4,3.4c0,1.8,1.5,3.4,3.4,3.4c1.9,0,3.4-1.5,3.4-3.4
		C79.2,202.5,77.7,201,75.9,201 M38,201c-1.9,0-3.4,1.5-3.4,3.4c0,1.8,1.5,3.4,3.4,3.4c1.8,0,3.4-1.5,3.4-3.4
		C41.4,202.5,39.9,201,38,201 M218.2,193.3c0.4-1.4,1.1-2.6,2.1-3.7c1.5-1.5,3.6-2.3,5.7-2.3c2.2,0,4.2,0.8,5.7,2.3
		c1,1,1.7,2.3,2.1,3.7H218.2z M162.3,193.3c0.4-1.4,1.1-2.6,2.1-3.7c1.5-1.5,3.5-2.3,5.7-2.3h19.2c2.1,0,4.2,0.8,5.7,2.3
		c1,1,1.8,2.3,2.1,3.7H162.3z M237.1,190.6c-0.6-1.4-1.5-2.7-2.6-3.8c-1.1-1.1-2.4-2-3.8-2.6c-1.5-0.6-3.1-1-4.7-1
		c-1.6,0-3.2,0.3-4.7,1c-1.4,0.6-2.7,1.5-3.8,2.6c-1.1,1.1-2,2.4-2.6,3.8c-0.4,0.9-0.6,1.8-0.8,2.7h-12.9c-0.1-0.9-0.4-1.8-0.8-2.7
		c-0.6-1.4-1.5-2.7-2.6-3.8c-1.1-1.1-2.4-2-3.8-2.6c-1.5-0.6-3.1-1-4.7-1h-19.2c-1.6,0-3.2,0.3-4.7,1c-1.2,0.5-2.3,1.2-3.3,2.1
		v-14.2h-4v21.2h-17.4v-10.1h-4v12.5c0,2.2-0.8,4.2-2.3,5.7c-1.5,1.5-3.5,2.4-5.7,2.4v4c1.6,0,3.2-0.3,4.7-0.9
		c1.4-0.6,2.7-1.5,3.8-2.6c1.1-1.1,2-2.4,2.6-3.8c0.4-1,0.7-2,0.8-3.1h97.6v-2C238.1,193.7,237.7,192.1,237.1,190.6 M124.3,197.4h4
		v-25.3h-4V197.4z M117,193.3h-6.4c-0.2-0.9-0.4-1.8-0.8-2.7c-0.6-1.4-1.5-2.7-2.6-3.8c-1.1-1.1-2.4-2-3.8-2.6c-1.5-0.6-3.1-1-4.7-1
		H88.7v4h10.1c2.1,0,4.2,0.8,5.7,2.3c1,1,1.8,2.3,2.1,3.7H79.2v-10.1h-4v10.1H59.8v-10.1h-4v12.5c0,2.2-0.8,4.2-2.4,5.7
		c-1.5,1.5-3.5,2.4-5.7,2.4v4c1.6,0,3.2-0.3,4.7-0.9c1.4-0.6,2.7-1.5,3.8-2.6c1.1-1.1,2-2.4,2.6-3.8c0.4-1,0.7-2,0.9-3.1h61.4v-25.3
		h-4V193.3z M4.3,193.3c0.4-1.4,1.1-2.6,2.1-3.7c1.5-1.5,3.5-2.3,5.7-2.3c2.2,0,4.2,0.8,5.7,2.3c1,1,1.8,2.3,2.1,3.7H4.3z
		 M47.7,197.3v-14.1h-4v10.1H24.2v-10.1h-4v3.1c-1-0.9-2.1-1.6-3.3-2.1c-1.5-0.6-3.1-1-4.7-1c-1.6,0-3.2,0.3-4.7,1
		c-1.4,0.6-2.7,1.5-3.9,2.6c-1.1,1.1-2,2.4-2.6,3.8c-0.6,1.5-1,3.1-1,4.7v2H47.7z M222.1,178.8c1.8,0,3.3-1.5,3.3-3.4
		c0-1.8-1.5-3.4-3.3-3.4c-1.9,0-3.4,1.5-3.4,3.4C218.7,177.3,220.2,178.8,222.1,178.8 M16.2,178.8c1.8,0,3.3-1.5,3.3-3.4
		c0-1.8-1.5-3.4-3.3-3.4c-1.9,0-3.4,1.5-3.4,3.4C12.9,177.3,14.4,178.8,16.2,178.8 M230.3,178.8c1.8,0,3.4-1.5,3.4-3.4
		c0-1.8-1.5-3.4-3.4-3.4c-1.9,0-3.3,1.5-3.3,3.4C227,177.3,228.4,178.8,230.3,178.8 M29.8,201c-1.8,0-3.4,1.5-3.4,3.4
		c0,1.8,1.5,3.4,3.4,3.4c1.9,0,3.4-1.5,3.4-3.4C33.2,202.5,31.7,201,29.8,201 M8,178.8c1.8,0,3.4-1.5,3.4-3.4c0-1.8-1.5-3.4-3.4-3.4
		c-1.9,0-3.4,1.5-3.4,3.4C4.6,177.3,6.1,178.8,8,178.8"/>
	<path class="st1" d="M18.6,237.9l4.1,4.1c1.8-1.9,2.7-4.2,2.7-7c0-3.1-1-5.6-3-7.7c-2-2.1-4.5-3.1-7.5-3.1c-3.1,0-5.5,1-7.5,3.1
		c-2,2-3,4.6-3,7.8c0,3.1,1,5.6,3.1,7.5c2.1,2,4.5,3,7.3,3c1.8,0,3.5-0.4,5-1.3l-6.7-6.5H18.6z M30.5,249.7h-5.4l-2.2-2.3
		c-2.4,1.5-5,2.3-7.9,2.3c-3.8,0-7.1-1.3-10-3.8c-3.2-2.8-4.8-6.4-4.8-10.8c0-4.3,1.5-7.9,4.5-10.7c2.9-2.8,6.4-4.2,10.3-4.2
		c3.6,0,6.9,1.2,9.7,3.6c3.4,2.9,5.2,6.7,5.2,11.4c0,3.7-1.3,7-4.1,9.8L30.5,249.7z"/>
	<path class="st1" d="M37.8,240.1c0,1.7,0.5,3.1,1.4,4.2c0.9,1.1,2.1,1.6,3.6,1.6c1.5,0,2.8-0.5,3.7-1.6c0.9-1.1,1.4-2.5,1.4-4.1
		c0-1.7-0.5-3.1-1.4-4.1c-0.9-1.1-2.2-1.6-3.7-1.6c-1.4,0-2.6,0.5-3.6,1.6C38.3,237.2,37.8,238.5,37.8,240.1 M47.7,231.2h4.2v18
		h-4.2v-1.9c-1.7,1.6-3.5,2.4-5.5,2.4c-2.5,0-4.5-0.9-6.1-2.7c-1.6-1.8-2.4-4.1-2.4-6.8c0-2.7,0.8-4.9,2.4-6.7
		c1.6-1.8,3.6-2.7,6-2.7c2.1,0,3.9,0.8,5.6,2.5V231.2z"/>
	<polygon class="st1" points="61.3,235.1 61.3,249.2 57.2,249.2 57.2,235.1 55.4,235.1 55.4,231.2 57.2,231.2 57.2,224.6 
		61.3,224.6 61.3,231.2 64.5,231.2 64.5,235.1 	"/>
	<path class="st1" d="M71.1,240.1c0,1.7,0.5,3.1,1.4,4.2c0.9,1.1,2.2,1.6,3.6,1.6c1.6,0,2.8-0.5,3.7-1.6c0.9-1.1,1.4-2.5,1.4-4.1
		c0-1.7-0.5-3.1-1.4-4.1c-1-1.1-2.2-1.6-3.7-1.6c-1.4,0-2.6,0.5-3.6,1.6C71.6,237.2,71.1,238.5,71.1,240.1 M80.9,231.2h4.2v18h-4.2
		v-1.9c-1.7,1.6-3.5,2.4-5.5,2.4c-2.5,0-4.5-0.9-6.1-2.7c-1.6-1.8-2.4-4.1-2.4-6.8c0-2.7,0.8-4.9,2.4-6.7c1.6-1.8,3.6-2.7,6-2.7
		c2.1,0,4,0.8,5.6,2.5V231.2z"/>
	<path class="st1" d="M90.4,231.2h4.1v1.6c0.8-0.8,1.4-1.3,2-1.6c0.6-0.3,1.3-0.4,2.1-0.4c1.1,0,2.2,0.4,3.4,1.1l-1.9,3.8
		c-0.8-0.6-1.6-0.8-2.3-0.8c-2.3,0-3.4,1.7-3.4,5.1v9.3h-4.1V231.2z"/>
	<path class="st1" d="M137.9,222.2v5.1c-2.5-2.1-5-3.1-7.7-3.1c-2.9,0-5.4,1-7.4,3.2c-2,2.1-3,4.6-3,7.7c0,3,1,5.5,3,7.6
		c2,2,4.5,3.1,7.4,3.1c1.5,0,2.8-0.2,3.9-0.7c0.6-0.2,1.2-0.6,1.8-1c0.6-0.4,1.3-0.9,2-1.5v5.2c-2.5,1.4-5,2.1-7.7,2.1
		c-4.1,0-7.5-1.4-10.4-4.3c-2.9-2.9-4.3-6.3-4.3-10.3c0-3.6,1.2-6.9,3.6-9.7c3-3.5,6.8-5.2,11.5-5.2
		C133.1,220.1,135.6,220.8,137.9,222.2"/>
	<path class="st1" d="M142.6,218h4.1v14.7c1.5-1.3,3.1-2,4.9-2c2,0,3.6,0.7,4.9,2c1,1.1,1.5,3,1.5,5.5v11h-4.1v-10.6
		c0-1.4-0.3-2.5-0.8-3.1c-0.5-0.6-1.3-1-2.5-1c-1.4,0-2.5,0.5-3.1,1.3c-0.6,0.9-0.9,2.5-0.9,4.7v8.7h-4.1V218z"/>
	<path class="st1" d="M166.6,240.1c0,1.7,0.5,3.1,1.4,4.2c1,1.1,2.1,1.6,3.6,1.6c1.5,0,2.8-0.5,3.7-1.6c0.9-1.1,1.4-2.5,1.4-4.1
		c0-1.7-0.5-3.1-1.4-4.1c-1-1.1-2.2-1.6-3.7-1.6c-1.4,0-2.6,0.5-3.6,1.6C167.1,237.2,166.6,238.5,166.6,240.1 M176.5,231.2h4.2v18
		h-4.2v-1.9c-1.7,1.6-3.5,2.4-5.5,2.4c-2.5,0-4.5-0.9-6.1-2.7c-1.6-1.8-2.4-4.1-2.4-6.8c0-2.7,0.8-4.9,2.4-6.7
		c1.6-1.8,3.6-2.7,6-2.7c2.1,0,4,0.8,5.6,2.5V231.2z"/>
	<path class="st1" d="M185.9,231.2h4.1v1.6c0.8-0.8,1.5-1.3,2-1.6c0.6-0.3,1.3-0.4,2.1-0.4c1.1,0,2.2,0.4,3.4,1.1l-1.9,3.8
		c-0.8-0.6-1.5-0.8-2.3-0.8c-2.3,0-3.4,1.7-3.4,5.1v9.3h-4.1V231.2z"/>
	<path class="st1" d="M204.7,249.2h-4.1v-18h4.1V249.2z M199.9,223.7c0-0.7,0.3-1.4,0.8-1.9c0.5-0.5,1.2-0.8,1.9-0.8
		c0.7,0,1.4,0.3,1.9,0.8c0.5,0.5,0.8,1.1,0.8,1.9c0,0.7-0.3,1.4-0.8,1.9c-0.5,0.5-1.1,0.8-1.9,0.8c-0.7,0-1.4-0.3-1.9-0.8
		C200.2,225.2,199.9,224.5,199.9,223.7"/>
	<polygon class="st1" points="214.2,235.1 214.2,249.2 210.1,249.2 210.1,235.1 208.3,235.1 208.3,231.2 210.1,231.2 210.1,224.6 
		214.2,224.6 214.2,231.2 217.4,231.2 217.4,235.1 	"/>
	<path class="st1" d="M111.5,0C92.2,0,74.8,8.5,62.9,21.9c10.6-10,24.8-16.1,40.6-16.1c32.6,0,59.1,26.4,59.1,59.1
		c0,32.6-26.5,59.1-59.1,59.1c-15.7,0-30-6.1-40.6-16.1c11.9,13.4,29.3,21.9,48.6,21.9c35.8,0,64.9-29,64.9-64.9
		C176.4,29,147.3,0,111.5,0"/>
	<path class="st1" d="M59.8,134.1c0,0,25.9-11.2,53-2.7c26.9,8.3,50.5,22.1,66.8,21.2c-11.5,3.5-30,10.4-71.6-7.1
		C73.9,131.2,59.8,134.1,59.8,134.1"/>
	<path class="st0" d="M117.3,97c-18.8,8.2-40.6-0.5-48.8-19.2C60.4,59,69,37.1,87.8,29c7.3-3.2,15.1-3.8,22.4-2.3
		c-9.1-3-19.3-2.9-28.7,1.3c-20.3,8.8-29.6,32.4-20.8,52.8c8.8,20.3,32.5,29.6,52.8,20.8c7.5-3.2,13.5-8.5,17.6-14.8
		C127.4,91,122.8,94.6,117.3,97"/>
</g>
</svg>
