<?xml version="1.0" encoding="utf-8"?>
<!-- Generator: Adobe Illustrator 21.0.0, SVG Export Plug-In . SVG Version: 6.00 Build 0)  -->
<svg version="1.1" id="Layer_1" xmlns="http://www.w3.org/2000/svg" xmlns:xlink="http://www.w3.org/1999/xlink" x="0px" y="0px"
	 viewBox="0 0 362.4 73.6" style="enable-background:new 0 0 362.4 73.6;" xml:space="preserve">
<style type="text/css">
	.st0{fill-rule:evenodd;clip-rule:evenodd;}
	.st1{fill-rule:evenodd;clip-rule:evenodd;fill:#E92A34;}
</style>
<g>
	<path class="st0" d="M96.6,42.6c-3.5-1.6-5.7-2.2-7.7-2.2c-2.2,0-3.6,0.8-3.6,2.1c0,3.7,12.3,2.6,12.3,11.1c0,4.7-3.9,7.4-9.3,7.4
		c-4.3,0-6.4-1.1-8.7-2.4v-5.3c3.5,2.4,5.6,3.2,8.3,3.2c2.4,0,3.6-0.8,3.6-2.3c0-4-12.3-2.5-12.3-11.2c0-4.3,3.6-7.1,9.2-7.1
		c2.7,0,5.2,0.6,8.2,2V42.6L96.6,42.6z"/>
	<path class="st0" d="M115.4,57.5c-0.5,0-0.9-0.3-0.9-1.1v-7.6c0-3.6-2.8-5-7-5c-2.6,0-5,0.7-7.1,2V50c1.6-1.6,4-2.7,6.1-2.7
		c2.2,0,2.9,1.2,2.8,2.7c-6.9,2.2-9.7,3-9.7,6.9c0,2.1,2,4.1,4.6,4.1c1.8,0,3.5-0.5,5.5-1.9c0.3,1.4,1.2,1.9,2.9,1.9
		c1.4,0,3.4-0.6,4.9-1.5v-2.9C116.2,57.4,115.8,57.5,115.4,57.5L115.4,57.5z M109.3,56.7c-0.8,0.7-1.9,1.2-2.8,1.2
		c-1,0-1.7-0.8-1.7-1.7c0-1.7,1.4-2.4,4.5-3.5V56.7L109.3,56.7z"/>
	<polygon class="st0" points="116.7,44.2 122.2,44.2 125.7,53.2 129.3,44.2 134.7,44.2 127.2,61 124.3,61 116.7,44.2 	"/>
	<path class="st0" d="M140.8,53.2h11.8c0.2-6-3.8-9.3-8.5-9.3c-5.1,0-8.6,3.6-8.6,8.7c0,5.1,3.8,8.4,9.5,8.4c1.3,0,4.4,0,7.4-2.2
		v-3.3c-2.5,1.8-4.1,2.4-6.2,2.4C143,57.9,141,56.2,140.8,53.2L140.8,53.2z M144.5,47c2,0,3.4,1.3,3.6,3.6h-7.2
		C141.1,48.3,142.4,47,144.5,47L144.5,47z"/>
	<path class="st0" d="M176.3,47.8h-6v6.8c0,1.6,0.9,2.7,2.5,2.7c1.1,0,2.1-0.3,3.5-1V60c-1.8,0.7-3.2,1-4.8,1
		c-3.5,0-6.5-1.6-6.5-6.2v-7.1h-2.3v-1l6.9-7.8h0.7v5.2h6V47.8L176.3,47.8z"/>
	<path class="st0" d="M183.5,46.7L183.5,46.7c1.6-1.9,3.3-2.8,5.4-2.8c3,0,6,1.8,6,6.3v10.5h-5.2v-9.4c0-2.5-1-3.6-2.7-3.6
		c-1.2,0-2.2,0.8-3.5,2.5v10.5h-5.2V36.3h5.2V46.7L183.5,46.7z"/>
	<path class="st0" d="M202.9,53.2h11.8c0.2-6-3.8-9.3-8.5-9.3c-5.1,0-8.6,3.6-8.6,8.7c0,5.1,3.7,8.4,9.5,8.4c1.3,0,4.4,0,7.4-2.2
		v-3.3c-2.5,1.8-4.1,2.4-6.2,2.4C205,57.9,203,56.2,202.9,53.2L202.9,53.2z M206.6,47c2,0,3.3,1.3,3.6,3.6H203
		C203.2,48.3,204.5,47,206.6,47L206.6,47z"/>
	<path class="st0" d="M249.9,58.6c-3.4,1.7-6,2.4-9.5,2.4c-9.5,0-14.2-6.2-14.2-12.4c0-6.5,5.4-12.6,14.6-12.6
		c3.5,0,6.5,0.8,8.9,2.2v5.5c-2.7-1.5-5.4-2.6-8.4-2.6c-5.2,0-8.8,3.1-8.8,7.5c0,4.4,3.6,7.5,8.6,7.5c3.2,0,5.4-1,8.8-2.7V58.6
		L249.9,58.6z"/>
	<path class="st0" d="M258.6,46.7L258.6,46.7c1.6-1.9,3.3-2.8,5.4-2.8c3,0,6,1.8,6,6.3v10.5h-5.2v-9.4c0-2.5-1.1-3.6-2.7-3.6
		c-1.2,0-2.2,0.8-3.5,2.5v10.5h-5.2V36.3h5.2V46.7L258.6,46.7z"/>
	<polygon class="st0" points="273.6,44.2 278.8,44.2 278.8,60.7 273.6,60.7 273.6,44.2 	"/>
	<path class="st0" d="M279.1,38.8c0,1.6-1.3,2.9-2.9,2.9c-1.6,0-2.9-1.3-2.9-2.9c0-1.6,1.3-2.9,2.9-2.9
		C277.8,35.9,279.1,37.2,279.1,38.8L279.1,38.8z"/>
	<polygon class="st0" points="282.6,36.3 287.7,36.3 287.7,60.7 282.6,60.7 282.6,36.3 	"/>
	<path class="st0" d="M302.8,36.3v8.5c-1.4-0.7-2.8-1-4.3-1c-4.8,0-8.1,3.5-8.1,8.6c0,4.9,3.3,8.5,7.8,8.5c1.8,0,3.1-0.5,4.6-1.6
		v1.3h5.2V36.3H302.8L302.8,36.3z M302.8,56.2c-1.1,0.9-2,1.3-3.1,1.3c-2.4,0-4-2-4-5c0-3.3,1.6-5.2,4.2-5.2c0.9,0,2.1,0.4,2.9,0.9
		V56.2L302.8,56.2z"/>
	<path class="st0" d="M316.9,48.9L316.9,48.9c1.6-3.5,3.4-5.1,5.4-5.1c1,0,1.9,0.4,3.4,1.5l-1.4,4.6c-1.4-0.9-2.3-1.2-3.1-1.2
		c-1.9,0-3.1,1.8-4.3,4.8v7.2h-5.2V44.2h5.2V48.9L316.9,48.9z"/>
	<path class="st0" d="M331.4,53.2h11.8c0.3-6-3.7-9.3-8.5-9.3c-5.1,0-8.7,3.6-8.7,8.7c0,5.1,3.8,8.4,9.5,8.4c1.3,0,4.4,0,7.4-2.2
		v-3.3c-2.4,1.8-4,2.4-6.1,2.4C333.6,57.9,331.6,56.2,331.4,53.2L331.4,53.2z M335.1,47c2,0,3.4,1.3,3.6,3.6h-7.2
		C331.7,48.3,333.1,47,335.1,47L335.1,47z"/>
	<path class="st0" d="M351.1,46.6c1.6-1.9,3.2-2.7,5.4-2.7c2.5,0,6,1.5,6,6.3v10.5h-5.2v-10c0-2.4-1.1-3.3-2.6-3.3
		c-1.3,0-2.3,0.7-3.6,2.7v10.6h-5.2V44.2h5.2V46.6L351.1,46.6z"/>
	<path class="st1" d="M65.5,20c3.3-3.4,4.8-4.9,4.6-5.9c-0.2-0.7-0.9-1.3-1.9-1.8c-1.1-0.5-2.7-0.8-3.5-0.4
		c-0.3,0.1-0.8,0.6-1.9,1.7l-1,1l0,0c-0.6-0.7-1.2-1.3-1.8-1.9c-4.4-4.4-9.8-7.5-16-8.8c-2.3-2.8-5.4-4.2-8.5-3.9
		c-2.7,0.2-5.2,1.6-7,4c-6.4,1.5-12.2,4.7-17.1,9.2l0,0c-0.9-0.4-3.2-0.1-4.6,0.5c-0.8,0.4-1.3,0.9-1.4,1.4c-0.2,0.5,0,1.1,1.6,3.2
		l0,0c-4.9,6.7-7.4,14.8-7,23c0.4,8.2,3.8,16,9.5,21.8c2.1,2.1,4.3,3.9,6.8,5.3c3.6,2.1,7.7,3.6,11.9,4.5c9.1,1.9,18.1,0.5,25.6-3.2
		v-0.1c1-0.4,1.4-1.5,1-2.6l-0.1-0.3c-1.6-4.4-6.5-17.7-2.5-29.1c1.7-4.9,6-9.8,9.5-13.7l0,0c3.2,5.8,4.6,12.4,3.9,18.9
		c-0.7,6.1-3.1,11.6-7.1,16.1l0,0c-0.1,0.1-0.1,0.3-0.1,0.5c0,0.1,0,0.1,0,0.2l0.3,0.9c0.1,0.3,0.4,0.4,0.7,0.4c0.2,0,0.3,0,0.5-0.2
		l0,0C70.3,49.3,72.5,32.9,65.5,20L65.5,20L65.5,20z M21.9,45c-1,4.4-2.5,10.3-2.2,19.5l0,0c-2.4-1.4-4.6-3.1-6.5-5
		C8,54.1,4.6,47.3,3.8,39.9c-0.7-7,0.9-14,4.7-19.7l0,0l0,0l0,0c1.1,1.4,2.6,3,4.1,4.7c3.6,4.2,7.8,8.8,9.6,12.1
		C23.4,38.9,22.8,41.2,21.9,45L21.9,45z M58,18.2c-7.8,6.7-14.8,10.1-21.1,10.2c-4.8,0-9.7-1.8-14.6-5.3c-4.2-2.9-7.3-6.3-9-8.2
		l-0.2-0.2l0,0l0,0c3.8-3.6,8.5-6.1,13.5-7.2l0,0l0,0l0,0c-0.6,1.9-0.9,4-0.7,6.1c0.3,3.9,2,7.3,4.7,9.5c2.1,1.7,4.6,2.5,7.1,2.3
		c2.5-0.2,4.8-1.5,6.6-3.5c2.2-2.7,3.3-6.4,3-10.1c-0.1-0.7-0.2-1.4-0.3-2.1l0,0c3.5,1.6,6.7,3.9,9.4,6.7
		C56.9,16.9,57.4,17.5,58,18.2L58,18.2L58,18.2z"/>
</g>
</svg>
