<?xml version="1.0" encoding="utf-8"?>
<!-- Generator: Adobe Illustrator 21.0.0, SVG Export Plug-In . SVG Version: 6.00 Build 0)  -->
<svg version="1.1" id="Layer_1" xmlns="http://www.w3.org/2000/svg" xmlns:xlink="http://www.w3.org/1999/xlink" x="0px" y="0px"
	 viewBox="0 0 591.8 144.7" style="enable-background:new 0 0 591.8 144.7;" xml:space="preserve">
<style type="text/css">
	.st0{fill:#EC1C24;}
	.st1{fill:#FFFFFF;}
</style>
<g>
	<path d="M113.7,24.2c1.2,0.7,2.5,1.2,4.4,1.2c2.4,0,4.5-1.3,4.5-4.1c0-3.9-9.1-4.4-9.1-9.6c0-3.2,2.8-5.2,6.3-5.2
		c1,0,2.5,0.1,3.9,0.7L123.3,9c-0.9-0.5-2.3-0.7-3.6-0.7c-2,0-4.3,0.9-4.3,3.4c0,4,9.1,4,9.1,9.8c0,4-3.4,5.6-6.5,5.6
		c-1.9,0-3.4-0.4-4.5-0.9L113.7,24.2z"/>
	<path d="M139.9,14.2c-1-0.4-2.1-0.7-3.1-0.7c-3.5,0-5.5,2.5-5.5,6.1c0,3.3,2,6,5.3,6c1.1,0,2.2-0.3,3.3-0.7l0.2,1.7
		c-1.2,0.4-2.4,0.5-3.7,0.5c-4.7,0-6.9-3.6-6.9-7.6c0-4.5,2.9-7.6,7.2-7.6c1.7,0,3,0.4,3.5,0.6L139.9,14.2z"/>
	<path d="M145.3,5.4h1.8v9.3h0.1c0.8-1.6,2.4-2.8,4.5-2.8c3.9,0,4.9,2.6,4.9,6.2v8.7h-1.8v-8.6c0-2.5-0.5-4.7-3.4-4.7
		c-3.2,0-4.3,3-4.3,5.5v7.8h-1.8V5.4z"/>
	<polygon points="178.2,26.7 176.1,26.7 172.1,14.2 172.1,14.2 168.1,26.7 165.9,26.7 161.3,12.2 163.3,12.2 167.1,24.8 167.1,24.8 
		171.1,12.2 173.3,12.2 177.1,24.8 177.2,24.8 181.2,12.2 183,12.2 	"/>
	<path d="M196.5,18.5c0-2.5-1-5-3.7-5c-2.6,0-4.3,2.6-4.3,5H196.5z M197.4,26.3c-1.2,0.5-2.9,0.8-4.2,0.8c-4.8,0-6.6-3.2-6.6-7.6
		c0-4.4,2.4-7.6,6.1-7.6c4.1,0,5.8,3.3,5.8,7.2V20h-9.9c0,3.1,1.6,5.5,4.8,5.5c1.3,0,3.2-0.5,4.1-1.1V26.3z"/>
	<path d="M204.1,12.2h1.8v14.5h-1.8V12.2z M205.9,8.4h-1.8V6h1.8V8.4z"/>
	<polygon points="211.3,25.2 220,13.8 211.6,13.8 211.6,12.2 222,12.2 222,13.8 213.3,25.2 222,25.2 222,26.7 211.3,26.7 	"/>
	<path d="M236.2,18.5c0-2.5-1-5-3.7-5c-2.6,0-4.3,2.6-4.3,5H236.2z M237.1,26.3c-1.2,0.5-2.9,0.8-4.2,0.8c-4.8,0-6.6-3.2-6.6-7.6
		c0-4.4,2.4-7.6,6.1-7.6c4.1,0,5.8,3.3,5.8,7.2V20h-9.9c0,3.1,1.6,5.5,4.8,5.5c1.3,0,3.2-0.5,4.1-1.1V26.3z"/>
	<path d="M243.8,15.5c0-1.6,0-2.2-0.1-3.2h1.8V15h0.1c0.7-1.6,1.9-3.1,3.7-3.1c0.4,0,0.9,0.1,1.3,0.2v1.9c-0.4-0.1-0.9-0.2-1.3-0.2
		c-2.8,0-3.6,3.2-3.6,5.8v7.2h-1.8V15.5z"/>
	<path d="M255.5,12.2h1.8v14.5h-1.8V12.2z M257.3,8.4h-1.8V6h1.8V8.4z"/>
	<path d="M262.9,24.6c1.1,0.5,2.4,0.9,3.8,0.9c1.7,0,3.2-0.9,3.2-2.6c0-3.4-7-2.9-7-7.1c0-2.9,2.3-3.9,4.7-3.9
		c0.8,0,2.3,0.2,3.6,0.7l-0.2,1.6c-0.9-0.4-2.2-0.7-3.2-0.7c-1.8,0-3.1,0.6-3.1,2.4c0,2.7,7.1,2.4,7.1,7.1c0,3.1-2.9,4.1-5.1,4.1
		c-1.4,0-2.8-0.2-4.1-0.7L262.9,24.6z"/>
	<path d="M286.7,14.2c-1-0.4-2.1-0.7-3.1-0.7c-3.5,0-5.5,2.5-5.5,6.1c0,3.3,2,6,5.3,6c1.1,0,2.2-0.3,3.3-0.7l0.2,1.7
		c-1.2,0.4-2.4,0.5-3.7,0.5c-4.7,0-6.9-3.6-6.9-7.6c0-4.5,2.9-7.6,7.2-7.6c1.7,0,3,0.4,3.5,0.6L286.7,14.2z"/>
	<path d="M292.1,5.4h1.8v9.3h0.1c0.8-1.6,2.4-2.8,4.5-2.8c3.9,0,4.9,2.6,4.9,6.2v8.7h-1.8v-8.6c0-2.5-0.5-4.7-3.4-4.7
		c-3.2,0-4.3,3-4.3,5.5v7.8h-1.8V5.4z"/>
	<path d="M319,18.5c0-2.5-1-5-3.7-5c-2.6,0-4.3,2.6-4.3,5H319z M319.8,26.3c-1.3,0.5-2.9,0.8-4.2,0.8c-4.8,0-6.6-3.2-6.6-7.6
		c0-4.4,2.4-7.6,6.1-7.6c4.1,0,5.8,3.3,5.8,7.2V20H311c0,3.1,1.6,5.5,4.8,5.5c1.3,0,3.2-0.5,4.1-1.1V26.3z"/>
	<polygon points="336.9,6.9 346.6,6.9 346.6,8.6 338.8,8.6 338.8,15.7 346.2,15.7 346.2,17.4 338.8,17.4 338.8,25 346.9,25 
		346.9,26.7 336.9,26.7 	"/>
	<path d="M353.1,12.2h1.8v14.5h-1.8V12.2z M354.9,8.4h-1.8V6h1.8V8.4z"/>
	<path d="M367,25.5c3.2,0,4.3-3.4,4.3-6.1c0-2.6-1.1-6-4.3-6c-3.4,0-4.3,3.2-4.3,6C362.7,22.3,363.6,25.5,367,25.5 M373.1,26.7h-1.8
		v-2.3h-0.1c-1,1.8-2.4,2.6-4.5,2.6c-4,0-6-3.3-6-7.6c0-4.4,1.7-7.6,6-7.6c2.8,0,4.3,2.1,4.5,2.8h0.1V5.4h1.8V26.7z"/>
	<path d="M384.9,25.2c3.2,0,4.4-3.1,4.4-5.7c0-3.5-1-6.1-4.3-6.1c-3.4,0-4.3,3.2-4.3,6.1C380.7,22.3,381.8,25.2,384.9,25.2
		 M391.1,25.5c0,4-1.8,7.3-6.8,7.3c-1.9,0-3.6-0.5-4.4-0.8l0.1-1.8c1.1,0.6,2.7,1,4.3,1c4.6,0,5-3.3,5-7.4h-0.1
		c-1,2.1-2.6,2.8-4.4,2.8c-4.6,0-6.1-4-6.1-7.2c0-4.4,1.7-7.6,6-7.6c1.9,0,3.2,0.3,4.5,2h0.1v-1.6h1.8V25.5z"/>
	<path d="M406.5,18.5c0-2.5-1-5-3.7-5c-2.6,0-4.3,2.6-4.3,5H406.5z M407.3,26.3c-1.3,0.5-2.9,0.8-4.2,0.8c-4.8,0-6.6-3.2-6.6-7.6
		c0-4.4,2.4-7.6,6.1-7.6c4.1,0,5.8,3.3,5.8,7.2V20h-9.9c0,3.1,1.6,5.5,4.8,5.5c1.3,0,3.2-0.5,4.1-1.1V26.3z"/>
	<path d="M414,15.6c0-1.1,0-2.2-0.1-3.4h1.7v2.6h0.1c0.6-1.3,1.7-2.9,4.7-2.9c3.6,0,4.9,2.4,4.9,5.6v9.3h-1.8v-8.8
		c0-2.7-1-4.5-3.4-4.5c-3.3,0-4.3,2.9-4.3,5.3v8H414V15.6z"/>
	<path d="M437.7,25.5c3.1,0,4.8-2.7,4.8-6.1c0-3.3-1.7-6-4.8-6c-3.1,0-4.8,2.7-4.8,6C432.9,22.8,434.6,25.5,437.7,25.5 M437.7,11.9
		c4.7,0,6.8,3.6,6.8,7.6c0,4-2.1,7.6-6.8,7.6c-4.7,0-6.8-3.6-6.8-7.6C430.9,15.5,433,11.9,437.7,11.9"/>
	<path d="M448.9,24.6c1.1,0.5,2.4,0.9,3.8,0.9c1.7,0,3.2-0.9,3.2-2.6c0-3.4-7-2.9-7-7.1c0-2.9,2.3-3.9,4.7-3.9
		c0.8,0,2.3,0.2,3.6,0.7l-0.2,1.6c-0.9-0.4-2.2-0.7-3.2-0.7c-1.8,0-3.1,0.6-3.1,2.4c0,2.7,7.1,2.4,7.1,7.1c0,3.1-2.9,4.1-5.1,4.1
		c-1.4,0-2.8-0.2-4.1-0.7L448.9,24.6z"/>
	<path d="M462.2,24.6c1.1,0.5,2.4,0.9,3.8,0.9c1.7,0,3.2-0.9,3.2-2.6c0-3.4-7-2.9-7-7.1c0-2.9,2.3-3.9,4.7-3.9
		c0.8,0,2.3,0.2,3.6,0.7l-0.2,1.6c-0.9-0.4-2.2-0.7-3.2-0.7c-1.9,0-3.1,0.6-3.1,2.4c0,2.7,7.1,2.4,7.1,7.1c0,3.1-2.9,4.1-5.1,4.1
		c-1.4,0-2.8-0.2-4.1-0.7L462.2,24.6z"/>
	<path d="M485.4,18.5c0-2.5-1-5-3.7-5c-2.6,0-4.3,2.6-4.3,5H485.4z M486.3,26.3c-1.3,0.5-2.9,0.8-4.2,0.8c-4.8,0-6.6-3.2-6.6-7.6
		c0-4.4,2.4-7.6,6.1-7.6c4.1,0,5.8,3.3,5.8,7.2V20h-9.9c0,3.1,1.6,5.5,4.8,5.5c1.3,0,3.2-0.5,4.1-1.1V26.3z"/>
	<path d="M493,15.6c0-1.1,0-2.2-0.1-3.4h1.7v2.6h0.1c0.6-1.3,1.7-2.9,4.7-2.9c3.6,0,4.9,2.4,4.9,5.6v9.3h-1.8v-8.8
		c0-2.7-1-4.5-3.4-4.5c-3.3,0-4.3,2.9-4.3,5.3v8H493V15.6z"/>
	<path d="M509.9,24.6c1.1,0.5,2.4,0.9,3.8,0.9c1.7,0,3.2-0.9,3.2-2.6c0-3.4-7-2.9-7-7.1c0-2.9,2.3-3.9,4.7-3.9
		c0.8,0,2.3,0.2,3.6,0.7l-0.2,1.6c-0.9-0.4-2.2-0.7-3.2-0.7c-1.8,0-3.1,0.6-3.1,2.4c0,2.7,7.1,2.4,7.1,7.1c0,3.1-2.9,4.1-5.1,4.1
		c-1.4,0-2.8-0.2-4.1-0.7L509.9,24.6z"/>
	<path d="M533.7,14.2c-1-0.4-2.1-0.7-3.1-0.7c-3.5,0-5.5,2.5-5.5,6.1c0,3.3,2,6,5.3,6c1.1,0,2.2-0.3,3.3-0.7l0.2,1.7
		c-1.2,0.4-2.4,0.5-3.7,0.5c-4.7,0-6.9-3.6-6.9-7.6c0-4.5,2.9-7.6,7.2-7.6c1.7,0,3,0.4,3.5,0.6L533.7,14.2z"/>
	<path d="M539.1,5.4h1.8v9.3h0.1c0.8-1.6,2.4-2.8,4.5-2.8c3.9,0,4.9,2.6,4.9,6.2v8.7h-1.8v-8.6c0-2.5-0.5-4.7-3.4-4.7
		c-3.2,0-4.3,3-4.3,5.5v7.8h-1.8V5.4z"/>
	<path d="M565.3,19.4h-0.5c-3.1,0-6.8,0.3-6.8,3.5c0,1.9,1.4,2.6,3,2.6c4.2,0,4.3-3.7,4.3-5.2V19.4z M565.4,24.4L565.4,24.4
		c-0.9,1.7-2.9,2.7-4.7,2.7c-4.1,0-4.8-2.8-4.8-4.1c0-4.9,5.2-5.1,8.9-5.1h0.3v-0.7c0-2.5-0.9-3.7-3.3-3.7c-1.5,0-2.9,0.3-4.3,1.2
		v-1.7c1.1-0.5,3-1,4.3-1c3.6,0,5.1,1.6,5.1,5.4v6.4c0,1.2,0,2,0.1,3h-1.8V24.4z"/>
	<path d="M574.7,13.8h-2.9v-1.5h2.9v-1.1c0-3,0.1-6.1,3.8-6.1c0.6,0,1.3,0.1,1.7,0.3l-0.1,1.6c-0.4-0.2-0.9-0.3-1.4-0.3
		c-2.4,0-2.2,2.6-2.2,4.4v1.3h3.3v1.5h-3.3v12.9h-1.8V13.8z"/>
	<path d="M591.4,13.8h-3.3v9.4c0,1.3,0.5,2.4,1.9,2.4c0.7,0,1.1-0.1,1.6-0.3l0.1,1.5c-0.4,0.2-1.3,0.4-2.2,0.4
		c-3.2,0-3.3-2.2-3.3-4.8v-8.5h-2.8v-1.5h2.8V8.7l1.8-0.6v4.1h3.3V13.8z"/>
	<path d="M127.9,48.3c-1.2-0.7-3-0.9-4.4-0.9c-5.1,0-8,3.6-8,8.6c0,5,2.8,8.6,8,8.6c1.3,0,3.3-0.2,4.4-0.9l0.1,1.7
		c-1.1,0.7-3.3,0.9-4.5,0.9c-6.2,0-10-4.1-10-10.3c0-6,3.9-10.3,10-10.3c1.2,0,3.5,0.2,4.5,0.7L127.9,48.3z"/>
	<path d="M140.9,64.7c3.1,0,4.8-2.7,4.8-6.1c0-3.4-1.7-6.1-4.8-6.1c-3.1,0-4.8,2.7-4.8,6.1C136.1,62,137.8,64.7,140.9,64.7
		 M140.9,51.1c4.7,0,6.8,3.6,6.8,7.6c0,3.9-2.1,7.6-6.8,7.6c-4.7,0-6.8-3.6-6.8-7.6C134.1,54.7,136.2,51.1,140.9,51.1"/>
	<path d="M153.3,54.8c0-1.1,0-2.2-0.1-3.4h1.7V54h0.1c0.6-1.3,1.7-2.9,4.7-2.9c3.6,0,4.9,2.4,4.9,5.6v9.3h-1.8v-8.8
		c0-2.7-1-4.5-3.4-4.5c-3.3,0-4.3,2.9-4.3,5.3v8h-1.8V54.8z"/>
	<path d="M172.5,53h-2.9v-1.5h2.9v-1.1c0-3,0.1-6.1,3.8-6.1c0.6,0,1.3,0.1,1.7,0.3l-0.1,1.6c-0.4-0.2-0.9-0.3-1.4-0.3
		c-2.4,0-2.2,2.6-2.2,4.4v1.3h3.3V53h-3.3v13h-1.8V53z"/>
	<path d="M188.8,45.8h2.2l-3.6,4.1h-1.3L188.8,45.8z M191.8,57.7c0-2.5-1-5-3.7-5c-2.6,0-4.3,2.6-4.3,5H191.8z M192.7,65.5
		c-1.2,0.5-2.9,0.8-4.2,0.8c-4.8,0-6.6-3.2-6.6-7.6c0-4.4,2.4-7.6,6.1-7.6c4.1,0,5.8,3.3,5.8,7.2v0.9h-9.9c0,3.1,1.6,5.5,4.8,5.5
		c1.3,0,3.2-0.5,4.1-1.1V65.5z"/>
	<path d="M204.7,64.7c3.2,0,4.3-3.4,4.3-6.1c0-2.6-1.1-6.1-4.3-6.1c-3.4,0-4.3,3.2-4.3,6.1C200.5,61.5,201.3,64.7,204.7,64.7
		 M210.8,65.9H209v-2.3H209c-1,1.8-2.4,2.6-4.5,2.6c-4,0-6-3.3-6-7.6c0-4.4,1.7-7.6,6-7.6c2.8,0,4.3,2.1,4.5,2.8h0.1v-9.3h1.8V65.9z
		"/>
	<path d="M223.2,45.8h2.2l-3.6,4.1h-1.3L223.2,45.8z M226.2,57.7c0-2.5-1-5-3.7-5c-2.6,0-4.3,2.6-4.3,5H226.2z M227.1,65.5
		c-1.2,0.5-2.9,0.8-4.2,0.8c-4.8,0-6.6-3.2-6.6-7.6c0-4.4,2.4-7.6,6.1-7.6c4.1,0,5.8,3.3,5.8,7.2v0.9h-9.9c0,3.1,1.6,5.5,4.8,5.5
		c1.3,0,3.2-0.5,4.1-1.1V65.5z"/>
	<path d="M233.8,54.7c0-1.6,0-2.2-0.1-3.2h1.8v2.8h0.1c0.7-1.6,1.9-3.1,3.7-3.1c0.4,0,0.9,0.1,1.3,0.2v1.9c-0.4-0.1-0.9-0.2-1.3-0.2
		c-2.8,0-3.6,3.2-3.6,5.8v7.2h-1.8V54.7z"/>
	<path d="M253.6,58.6h-0.5c-3.1,0-6.8,0.3-6.8,3.5c0,1.9,1.4,2.6,3,2.6c4.2,0,4.3-3.7,4.3-5.2V58.6z M253.8,63.6L253.8,63.6
		c-0.9,1.7-2.9,2.7-4.7,2.7c-4.1,0-4.8-2.8-4.8-4.1c0-4.9,5.2-5.1,8.9-5.1h0.3v-0.7c0-2.5-0.9-3.7-3.3-3.7c-1.5,0-2.9,0.3-4.3,1.2
		v-1.7c1.1-0.5,3-1,4.3-1c3.6,0,5.1,1.6,5.1,5.4v6.4c0,1.2,0,2,0.1,3h-1.8V63.6z"/>
	<path d="M268.1,53h-3.3v9.4c0,1.3,0.5,2.4,1.9,2.4c0.7,0,1.1-0.1,1.6-0.3l0.1,1.5c-0.4,0.2-1.3,0.4-2.2,0.4c-3.2,0-3.3-2.2-3.3-4.8
		V53h-2.8v-1.5h2.8v-3.5l1.8-0.6v4.1h3.3V53z"/>
	<path d="M273.5,51.4h1.8v14.5h-1.8V51.4z M275.3,47.6h-1.8v-2.4h1.8V47.6z"/>
	<path d="M287.7,64.7c3.1,0,4.8-2.7,4.8-6.1c0-3.4-1.7-6.1-4.8-6.1c-3.1,0-4.8,2.7-4.8,6.1C282.9,62,284.6,64.7,287.7,64.7
		 M287.7,51.1c4.7,0,6.8,3.6,6.8,7.6c0,3.9-2.1,7.6-6.8,7.6c-4.7,0-6.8-3.6-6.8-7.6C281,54.7,283,51.1,287.7,51.1"/>
	<path d="M300.1,54.8c0-1.1,0-2.2-0.1-3.4h1.7V54h0.1c0.6-1.3,1.7-2.9,4.7-2.9c3.6,0,4.9,2.4,4.9,5.6v9.3h-1.8v-8.8
		c0-2.7-1-4.5-3.4-4.5c-3.3,0-4.3,2.9-4.3,5.3v8h-1.8V54.8z"/>
	<path d="M327.1,63.8c1.1,0.5,2.4,0.9,3.8,0.9c1.7,0,3.2-0.9,3.2-2.6c0-3.4-7-2.9-7-7.1c0-2.9,2.3-3.9,4.7-3.9
		c0.8,0,2.3,0.2,3.6,0.7l-0.2,1.6c-0.9-0.4-2.2-0.7-3.2-0.7c-1.8,0-3.1,0.6-3.1,2.4c0,2.7,7.1,2.4,7.1,7.1c0,3.1-2.9,4.1-5.1,4.1
		c-1.4,0-2.8-0.2-4.1-0.7L327.1,63.8z"/>
	<path d="M352.8,62.5c0,1.1,0,2.2,0.1,3.4h-1.7v-2.6h-0.1c-0.6,1.3-1.7,2.9-4.7,2.9c-3.6,0-4.9-2.4-4.9-5.6v-9.3h1.8v8.8
		c0,2.7,1,4.5,3.4,4.5c3.3,0,4.3-2.9,4.3-5.3v-8h1.8V62.5z"/>
	<path d="M359.5,51.4h1.8v14.5h-1.8V51.4z M361.3,47.6h-1.8v-2.4h1.8V47.6z"/>
	<path d="M366.9,63.8c1.1,0.5,2.4,0.9,3.8,0.9c1.7,0,3.2-0.9,3.2-2.6c0-3.4-7-2.9-7-7.1c0-2.9,2.3-3.9,4.7-3.9
		c0.8,0,2.3,0.2,3.6,0.7l-0.2,1.6c-0.9-0.4-2.2-0.7-3.2-0.7c-1.9,0-3.1,0.6-3.1,2.4c0,2.7,7.1,2.4,7.1,7.1c0,3.1-2.9,4.1-5.1,4.1
		c-1.4,0-2.8-0.2-4.1-0.7L366.9,63.8z"/>
	<path d="M380.1,63.8c1.1,0.5,2.4,0.9,3.8,0.9c1.7,0,3.2-0.9,3.2-2.6c0-3.4-7-2.9-7-7.1c0-2.9,2.3-3.9,4.7-3.9
		c0.8,0,2.3,0.2,3.6,0.7l-0.2,1.6c-0.9-0.4-2.2-0.7-3.2-0.7c-1.8,0-3.1,0.6-3.1,2.4c0,2.7,7.1,2.4,7.1,7.1c0,3.1-2.9,4.1-5.1,4.1
		c-1.4,0-2.8-0.2-4.1-0.7L380.1,63.8z"/>
	<path d="M403.4,57.7c0-2.5-1-5-3.7-5c-2.6,0-4.3,2.6-4.3,5H403.4z M404.2,65.5c-1.2,0.5-2.9,0.8-4.2,0.8c-4.8,0-6.6-3.2-6.6-7.6
		c0-4.4,2.4-7.6,6.1-7.6c4.1,0,5.8,3.3,5.8,7.2v0.9h-9.9c0,3.1,1.6,5.5,4.8,5.5c1.3,0,3.2-0.5,4.1-1.1V65.5z"/>
	<path d="M127.9,87.5c-1.2-0.7-3-0.9-4.4-0.9c-5.1,0-8,3.6-8,8.6c0,5,2.8,8.6,8,8.6c1.3,0,3.3-0.2,4.4-0.9l0.1,1.7
		c-1.1,0.7-3.3,0.9-4.5,0.9c-6.2,0-10-4.1-10-10.3c0-6,3.9-10.3,10-10.3c1.2,0,3.5,0.2,4.5,0.7L127.9,87.5z"/>
	<path d="M140.9,103.9c3.1,0,4.8-2.7,4.8-6.1c0-3.3-1.7-6.1-4.8-6.1c-3.1,0-4.8,2.7-4.8,6.1C136.1,101.2,137.8,103.9,140.9,103.9
		 M140.9,90.3c4.7,0,6.8,3.6,6.8,7.6c0,4-2.1,7.6-6.8,7.6c-4.7,0-6.8-3.6-6.8-7.6C134.1,93.9,136.2,90.3,140.9,90.3"/>
	<path d="M153.3,94c0-1.1,0-2.2-0.1-3.4h1.7v2.6h0.1c0.6-1.3,1.7-2.9,4.7-2.9c3.6,0,4.9,2.4,4.9,5.6v9.3h-1.8v-8.8
		c0-2.7-1-4.5-3.4-4.5c-3.3,0-4.3,2.9-4.3,5.3v8h-1.8V94z"/>
	<path d="M172.5,92.2h-2.9v-1.5h2.9v-1.1c0-3,0.1-6.1,3.8-6.1c0.6,0,1.3,0.1,1.7,0.3l-0.1,1.6c-0.4-0.2-0.9-0.3-1.4-0.3
		c-2.4,0-2.2,2.6-2.2,4.4v1.3h3.3v1.5h-3.3v13h-1.8V92.2z"/>
	<path d="M191.8,96.9c0-2.5-1-5-3.7-5c-2.6,0-4.3,2.6-4.3,5H191.8z M192.7,104.7c-1.2,0.5-2.9,0.8-4.2,0.8c-4.8,0-6.6-3.2-6.6-7.6
		c0-4.4,2.4-7.6,6.1-7.6c4.1,0,5.8,3.3,5.8,7.2v0.9h-9.9c0,3.1,1.6,5.5,4.8,5.5c1.3,0,3.2-0.5,4.1-1.1V104.7z"/>
	<path d="M204.7,103.9c3.2,0,4.3-3.4,4.3-6.1c0-2.6-1.1-6.1-4.3-6.1c-3.4,0-4.3,3.2-4.3,6.1C200.5,100.7,201.3,103.9,204.7,103.9
		 M210.8,105.1H209v-2.3H209c-1,1.8-2.4,2.6-4.5,2.6c-4,0-6-3.3-6-7.6c0-4.4,1.7-7.6,6-7.6c2.8,0,4.3,2.1,4.5,2.8h0.1v-9.3h1.8
		V105.1z"/>
	<path d="M226.2,96.9c0-2.5-1-5-3.7-5c-2.6,0-4.3,2.6-4.3,5H226.2z M227.1,104.7c-1.2,0.5-2.9,0.8-4.2,0.8c-4.8,0-6.6-3.2-6.6-7.6
		c0-4.4,2.4-7.6,6.1-7.6c4.1,0,5.8,3.3,5.8,7.2v0.9h-9.9c0,3.1,1.6,5.5,4.8,5.5c1.3,0,3.2-0.5,4.1-1.1V104.7z"/>
	<path d="M233.8,93.9c0-1.6,0-2.2-0.1-3.2h1.8v2.8h0.1c0.7-1.6,1.9-3.1,3.7-3.1c0.4,0,0.9,0.1,1.3,0.2v1.9c-0.4-0.1-0.9-0.2-1.3-0.2
		c-2.8,0-3.6,3.2-3.6,5.8v7.2h-1.8V93.9z"/>
	<path d="M253.6,97.8h-0.5c-3.1,0-6.8,0.3-6.8,3.5c0,1.9,1.4,2.6,3,2.6c4.2,0,4.3-3.7,4.3-5.2V97.8z M253.8,102.8L253.8,102.8
		c-0.9,1.7-2.9,2.7-4.7,2.7c-4.1,0-4.8-2.8-4.8-4.1c0-4.9,5.2-5.1,8.9-5.1h0.3v-0.7c0-2.5-0.9-3.7-3.3-3.7c-1.5,0-2.9,0.3-4.3,1.2
		v-1.7c1.1-0.5,3-1,4.3-1c3.6,0,5.1,1.6,5.1,5.4v6.4c0,1.2,0,2,0.1,3h-1.8V102.8z"/>
	<polygon points="260.5,103.6 269.3,92.2 260.9,92.2 260.9,90.6 271.3,90.6 271.3,92.2 262.6,103.6 271.3,103.6 271.3,105.1 
		260.5,105.1 	"/>
	<path d="M276.7,90.6h1.8v14.5h-1.8V90.6z M278.5,86.8h-1.8v-2.4h1.8V86.8z"/>
	<path d="M290.9,103.9c3.1,0,4.8-2.7,4.8-6.1c0-3.3-1.7-6.1-4.8-6.1c-3.1,0-4.8,2.7-4.8,6.1C286.1,101.2,287.7,103.9,290.9,103.9
		 M290.9,90.3c4.7,0,6.8,3.6,6.8,7.6c0,4-2.1,7.6-6.8,7.6c-4.7,0-6.8-3.6-6.8-7.6C284.1,93.9,286.2,90.3,290.9,90.3"/>
	<path d="M303.2,94c0-1.1,0-2.2-0.1-3.4h1.7v2.6h0.1c0.6-1.3,1.7-2.9,4.7-2.9c3.6,0,4.9,2.4,4.9,5.6v9.3h-1.8v-8.8
		c0-2.7-1-4.5-3.4-4.5c-3.3,0-4.3,2.9-4.3,5.3v8h-1.8V94z"/>
	<path d="M330.1,96.9c0-2.5-1-5-3.7-5c-2.6,0-4.3,2.6-4.3,5H330.1z M330.9,104.7c-1.2,0.5-2.9,0.8-4.2,0.8c-4.8,0-6.6-3.2-6.6-7.6
		c0-4.4,2.4-7.6,6.1-7.6c4.1,0,5.8,3.3,5.8,7.2v0.9h-9.9c0,3.1,1.6,5.5,4.8,5.5c1.3,0,3.2-0.5,4.1-1.1V104.7z"/>
	<path d="M347.4,102.6c1.2,0.7,2.5,1.2,4.4,1.2c2.4,0,4.5-1.3,4.5-4.1c0-3.9-9.1-4.4-9.1-9.6c0-3.2,2.8-5.2,6.3-5.2
		c1,0,2.5,0.1,3.9,0.6l-0.3,1.8c-0.9-0.5-2.3-0.7-3.6-0.7c-2,0-4.3,0.9-4.3,3.4c0,4,9.1,4,9.1,9.8c0,4-3.4,5.6-6.5,5.6
		c-1.9,0-3.4-0.4-4.5-0.9L347.4,102.6z"/>
	<polygon points="369.2,105.1 367.1,105.1 362.2,90.6 364.2,90.6 368.2,103.2 368.2,103.2 372.4,90.6 374.3,90.6 	"/>
	<path d="M379,90.6h1.8v14.5H379V90.6z M380.8,86.8H379v-2.4h1.8V86.8z"/>
	<polygon points="386.2,103.6 394.9,92.2 386.5,92.2 386.5,90.6 397,90.6 397,92.2 388.3,103.6 397,103.6 397,105.1 386.2,105.1 	
		"/>
	<polygon points="401,103.6 409.7,92.2 401.4,92.2 401.4,90.6 411.8,90.6 411.8,92.2 403.1,103.6 411.8,103.6 411.8,105.1 
		401,105.1 	"/>
	<path d="M426,96.9c0-2.5-1-5-3.7-5c-2.6,0-4.3,2.6-4.3,5H426z M426.9,104.7c-1.2,0.5-2.9,0.8-4.2,0.8c-4.8,0-6.6-3.2-6.6-7.6
		c0-4.4,2.4-7.6,6.1-7.6c4.1,0,5.8,3.3,5.8,7.2v0.9h-9.9c0,3.1,1.6,5.5,4.8,5.5c1.3,0,3.2-0.5,4.1-1.1V104.7z"/>
	<path d="M433.6,93.9c0-1.6,0-2.2-0.1-3.2h1.8v2.8h0.1c0.7-1.6,1.9-3.1,3.7-3.1c0.4,0,0.9,0.1,1.3,0.2v1.9c-0.4-0.1-0.9-0.2-1.3-0.2
		c-2.8,0-3.6,3.2-3.6,5.8v7.2h-1.8V93.9z"/>
	<path d="M453.4,97.8h-0.5c-3.1,0-6.8,0.3-6.8,3.5c0,1.9,1.4,2.6,3,2.6c4.2,0,4.3-3.7,4.3-5.2V97.8z M453.6,102.8L453.6,102.8
		c-0.8,1.7-2.9,2.7-4.7,2.7c-4.1,0-4.8-2.8-4.8-4.1c0-4.9,5.2-5.1,8.9-5.1h0.3v-0.7c0-2.5-0.9-3.7-3.3-3.7c-1.5,0-2.9,0.3-4.3,1.2
		v-1.7c1.1-0.5,3-1,4.3-1c3.6,0,5.1,1.6,5.1,5.4v6.4c0,1.2,0,2,0.1,3h-1.8V102.8z"/>
	<path d="M127.9,126.7c-1.2-0.7-3-0.9-4.4-0.9c-5.1,0-8,3.6-8,8.6c0,5,2.8,8.6,8,8.6c1.3,0,3.3-0.2,4.4-0.9l0.1,1.7
		c-1.1,0.7-3.3,0.9-4.5,0.9c-6.2,0-10-4.1-10-10.3c0-6,3.9-10.3,10-10.3c1.2,0,3.5,0.2,4.5,0.7L127.9,126.7z"/>
	<path d="M140.9,143.1c3.1,0,4.8-2.7,4.8-6.1c0-3.3-1.7-6-4.8-6c-3.1,0-4.8,2.7-4.8,6C136.1,140.4,137.8,143.1,140.9,143.1
		 M140.9,129.5c4.7,0,6.8,3.6,6.8,7.6c0,4-2.1,7.6-6.8,7.6c-4.7,0-6.8-3.6-6.8-7.6C134.1,133.1,136.2,129.5,140.9,129.5"/>
	<path d="M153.3,133.2c0-1.1,0-2.2-0.1-3.4h1.7v2.6h0.1c0.6-1.3,1.7-2.9,4.7-2.9c3.6,0,4.9,2.4,4.9,5.6v9.3h-1.8v-8.8
		c0-2.7-1-4.5-3.4-4.5c-3.3,0-4.3,2.9-4.3,5.3v8h-1.8V133.2z"/>
	<path d="M172.5,131.4h-2.9v-1.5h2.9v-1.1c0-3,0.1-6.1,3.8-6.1c0.6,0,1.3,0.1,1.7,0.3l-0.1,1.6c-0.4-0.2-0.9-0.3-1.4-0.3
		c-2.4,0-2.2,2.6-2.2,4.4v1.2h3.3v1.5h-3.3v13h-1.8V131.4z"/>
	<path d="M191.8,136.1c0-2.5-1-5-3.7-5c-2.6,0-4.3,2.6-4.3,5H191.8z M192.7,143.9c-1.2,0.5-2.9,0.8-4.2,0.8c-4.8,0-6.6-3.2-6.6-7.6
		c0-4.4,2.4-7.6,6.1-7.6c4.1,0,5.8,3.3,5.8,7.2v0.9h-9.9c0,3.1,1.6,5.5,4.8,5.5c1.3,0,3.2-0.5,4.1-1.1V143.9z"/>
	<path d="M204.7,143.1c3.2,0,4.3-3.4,4.3-6c0-2.6-1.1-6.1-4.3-6.1c-3.4,0-4.3,3.2-4.3,6.1C200.5,139.9,201.3,143.1,204.7,143.1
		 M210.8,144.3H209V142H209c-1,1.8-2.4,2.6-4.5,2.6c-4,0-6-3.3-6-7.6c0-4.4,1.7-7.6,6-7.6c2.8,0,4.3,2.1,4.5,2.8h0.1V123h1.8V144.3z
		"/>
	<path d="M226.2,136.1c0-2.5-1-5-3.7-5c-2.6,0-4.3,2.6-4.3,5H226.2z M227.1,143.9c-1.2,0.5-2.9,0.8-4.2,0.8c-4.8,0-6.6-3.2-6.6-7.6
		c0-4.4,2.4-7.6,6.1-7.6c4.1,0,5.8,3.3,5.8,7.2v0.9h-9.9c0,3.1,1.6,5.5,4.8,5.5c1.3,0,3.2-0.5,4.1-1.1V143.9z"/>
	<path d="M233.8,133.1c0-1.6,0-2.2-0.1-3.2h1.8v2.8h0.1c0.7-1.6,1.9-3.1,3.7-3.1c0.4,0,0.9,0.1,1.3,0.2v1.9
		c-0.4-0.1-0.9-0.2-1.3-0.2c-2.8,0-3.6,3.2-3.6,5.8v7.2h-1.8V133.1z"/>
	<path d="M253.6,137h-0.5c-3.1,0-6.8,0.3-6.8,3.5c0,1.9,1.4,2.6,3,2.6c4.2,0,4.3-3.7,4.3-5.2V137z M253.8,142L253.8,142
		c-0.9,1.7-2.9,2.7-4.7,2.7c-4.1,0-4.8-2.8-4.8-4.1c0-4.9,5.2-5.1,8.9-5.1h0.3v-0.7c0-2.5-0.9-3.7-3.3-3.7c-1.5,0-2.9,0.3-4.3,1.2
		v-1.7c1.1-0.5,3-1,4.3-1c3.6,0,5.1,1.6,5.1,5.4v6.4c0,1.2,0,2,0.1,3h-1.8V142z"/>
	<polygon points="260.5,142.8 269.3,131.4 260.9,131.4 260.9,129.8 271.3,129.8 271.3,131.4 262.6,142.8 271.3,142.8 271.3,144.3 
		260.5,144.3 	"/>
	<path d="M276.7,129.8h1.8v14.5h-1.8V129.8z M278.5,126h-1.8v-2.4h1.8V126z"/>
	<path d="M296.5,140.9c0,1.1,0,2.2,0.1,3.4h-1.7v-2.6h-0.1c-0.6,1.3-1.7,2.9-4.7,2.9c-3.6,0-4.9-2.4-4.9-5.6v-9.3h1.8v8.8
		c0,2.7,1,4.5,3.4,4.5c3.3,0,4.3-2.9,4.3-5.3v-8h1.8V140.9z"/>
	<path d="M303.2,133.2c0-1.1,0-2.2-0.1-3.4h1.7v2.6h0.1c0.6-1.3,1.7-2.9,4.7-2.9c3.6,0,4.9,2.4,4.9,5.6v9.3h-1.8v-8.8
		c0-2.7-1-4.5-3.4-4.5c-3.3,0-4.3,2.9-4.3,5.3v8h-1.8V133.2z"/>
	<path d="M330.2,142.2c1.1,0.5,2.4,0.9,3.8,0.9c1.7,0,3.2-0.9,3.2-2.6c0-3.4-7-2.9-7-7.1c0-2.9,2.3-3.9,4.7-3.9
		c0.8,0,2.3,0.2,3.6,0.7l-0.2,1.6c-0.9-0.4-2.2-0.7-3.2-0.7c-1.8,0-3.1,0.6-3.1,2.4c0,2.7,7.1,2.4,7.1,7.1c0,3.1-2.9,4.1-5.1,4.1
		c-1.4,0-2.8-0.2-4.1-0.7L330.2,142.2z"/>
	<polygon points="349.6,144.3 347.5,144.3 342.6,129.8 344.6,129.8 348.6,142.4 348.6,142.4 352.9,129.8 354.7,129.8 	"/>
	<path d="M359.4,129.8h1.8v14.5h-1.8V129.8z M361.2,126h-1.8v-2.4h1.8V126z"/>
	<polygon points="366.6,142.8 375.3,131.4 367,131.4 367,129.8 377.4,129.8 377.4,131.4 368.7,142.8 377.4,142.8 377.4,144.3 
		366.6,144.3 	"/>
	<path d="M382.8,133.1c0-1.6,0-2.2-0.1-3.2h1.8v2.8h0.1c0.7-1.6,1.9-3.1,3.7-3.1c0.4,0,0.9,0.1,1.3,0.2v1.9
		c-0.4-0.1-0.9-0.2-1.3-0.2c-2.8,0-3.6,3.2-3.6,5.8v7.2h-1.8V133.1z"/>
	<path d="M402.6,137h-0.5c-3.1,0-6.8,0.3-6.8,3.5c0,1.9,1.4,2.6,3,2.6c4.2,0,4.3-3.7,4.3-5.2V137z M402.8,142L402.8,142
		c-0.9,1.7-2.9,2.7-4.7,2.7c-4.1,0-4.8-2.8-4.8-4.1c0-4.9,5.2-5.1,8.9-5.1h0.3v-0.7c0-2.5-0.9-3.7-3.3-3.7c-1.5,0-2.9,0.3-4.3,1.2
		v-1.7c1.1-0.5,3-1,4.3-1c3.6,0,5.1,1.6,5.1,5.4v6.4c0,1.2,0,2,0.1,3h-1.8V142z"/>
	<path class="st0" d="M81,6.6C81,6.6,65.8,0,40.6,0h0C15.2,0,0.1,6.6,0.1,6.6S-1.2,35.6,4.5,52c10.1,28.9,36,37,36,37h0h0
		c0,0,25.9-8.1,36-37C82.3,35.6,81,6.6,81,6.6"/>
	<polygon class="st1" points="67.4,31.6 67.4,47.6 48.6,47.6 48.6,66.3 32.4,66.3 32.4,47.6 13.6,47.6 13.6,31.6 32.4,31.6 
		32.4,12.9 48.6,12.9 48.6,31.6 	"/>
</g>
</svg>
