<?xml version="1.0" encoding="utf-8"?>
<!-- Generator: Adobe Illustrator 21.0.0, SVG Export Plug-In . SVG Version: 6.00 Build 0)  -->
<svg version="1.1" id="Layer_1" xmlns="http://www.w3.org/2000/svg" xmlns:xlink="http://www.w3.org/1999/xlink" x="0px" y="0px"
	 viewBox="0 0 268.3 240.9" style="enable-background:new 0 0 268.3 240.9;" xml:space="preserve">
<style type="text/css">
	.st0{fill:#231F20;}
	.st1{fill-rule:evenodd;clip-rule:evenodd;fill:#B32317;}
</style>
<path class="st0" d="M1.4,175.3c0.9-2.1,2.5-3.9,4.5-4.9c2.7-1.2,5.2-1.4,7.3-1.4c5,0,8.4,0,8.4,2.6c0,0.1-0.1,3.6-0.1,4.2
	c0,0.3,0.1,1.8,0.1,2.1c0,0.7-0.2,2.3-2.3,2.3h-0.4c-0.8-0.1-1.6-0.4-2.4-0.7c-0.9-0.2-1.6-0.2-2.1-0.2c-0.7,0-2.7,0.1-2.7,2.2
	c0,1.6,1,2.5,3.6,4.8c0.7,0.6,1.6,1.6,2.2,2.1c0.4,0.4,0.8,0.7,1.1,1c4,3.9,4.9,6.4,4.9,10.2c0,2.8-0.1,5.6-1.6,7.9
	c-2,3-5.1,4.2-6.4,4.5c-1.6,0.4-4.8,0.7-6.7,0.7c-2.6,0-6.5-0.5-7.8-1.4c-1-0.7-1-1.3-1-1.9c0-0.5,0.2-3.2,0.2-3.8
	c0-0.4-0.1-2.3-0.1-2.7c0-0.7,0-2.7,2.2-2.7c1,0,1.6,0.1,2.4,0.7c0.4,0.3,0.7,0.7,1.1,0.9c0.5,0.4,1.7,0.6,2.9,0.6
	c1.7,0,3.6-0.4,3.6-2.2c0-1.3-0.5-1.7-4.2-5.3c-0.4-0.4-2.2-2.3-2.7-2.7c-1.5-1.4-2.4-2.3-3.4-4c-1.4-2.5-1.4-4-1.4-6.4
	C0.4,178.6,0.8,176.7,1.4,175.3"/>
<path class="st0" d="M31.3,171c1.7-1.1,2.7-1.9,8.4-1.9c4.1,0,5.7,0.8,8.3,2.8c0.4,0.3,1.6,1.2,2,1.7c2.3,2.7,3.2,7.7,3.2,13.8
	c0,1.4-0.1,2.8-0.1,4.2c-0.1,5.7-0.1,6.3-0.7,9.6c-0.7,4.2-1.3,5.7-2.8,7.5c-1.9,2.3-3.3,2.8-5.1,3.4c-1.3,0.4-2.5,0.7-4.8,0.7
	c-6.1,0-10.3-2.2-12.2-5.5c-0.8-1.4-1.7-4.5-1.8-5.1c-0.3-1.4-0.5-5.2-0.5-5.5c0-0.6,0.1-3.7,0.1-4.4c0-0.7-0.1-3.7-0.1-4.5
	C25.5,177.8,26.6,174.2,31.3,171 M36.4,184.2c0,0.6,0.1,3.6,0.1,4.3c0,1.2-0.2,7.2-0.2,8.6c0,2.1,0,5.5,2.8,5.5
	c2.5,0,2.8-2.3,2.8-3.5c0.1-0.4,0-2.2,0-2.6c0-0.7,0.2-4.1,0.2-4.9c0-1.1-0.1-2.2-0.1-3.3c0-0.3,0.1-1.9,0.1-2.3
	c0-0.7-0.1-2.6-0.2-3.8c-0.2-2.4-1.6-3-2.7-3C36.4,179.4,36.4,182.7,36.4,184.2"/>
<path class="st0" d="M59.4,169.5c0.4,0,2.7,0.2,3.2,0.2c0.6,0,1.1-0.1,1.7-0.1c0.6-0.1,1.1-0.1,1.7-0.1c0.9,0,2.4,0,2.4,1.7
	c0,0.4-0.1,0.7-0.1,1c-0.2,1.2-0.3,4-0.3,5.5c0,0.6,0.1,3.6,0.1,4.2c0,0.5-0.1,2.9-0.1,3.5c0,0.5,0.2,2.8,0.2,3.3
	c0,0.2-0.1,0.6-0.1,1.5c-0.1,1-0.1,2.2-0.1,3.3c0,0.4,0.1,2.5,0.1,3c0,0.2-0.1,1.4-0.1,1.6c0,1.6,0.6,3.2,2.6,3.4
	c0.4,0.1,2.1,0.1,2.7,0.1c0.3,0,1.8-0.1,2.1-0.1c2.4,0,2.4,1.3,2.4,5.5c0,0.5-0.1,2.8-0.1,3.3c0,1-0.5,1.4-1,1.6
	c-0.2,0.1-0.5,0.2-1.1,0.2c-0.4,0-2.1-0.1-2.5-0.1c-0.4-0.1-2.4,0-2.8,0c-1.1,0.1-6.4,0-7.6,0c-0.5,0-3,0.1-3.5,0.1
	c-1.9,0-2.3-1.2-2.3-2c0-0.3,0.1-1.8,0.1-2.1c0-1.5,0.1-3.1,0.1-4.6c0-0.2-0.2-5.6-0.2-6.6c0-0.5,0.2-3.1,0.2-3.7
	c0.1-0.5,0.1-0.9,0.1-1.4c0-0.5-0.1-3.3-0.1-3.9c0-0.5,0.1-2.6,0.1-3.1c0-1.1-0.1-2.2-0.1-3.3c0-0.7,0.1-3.8,0.1-4.5
	c0-1.6-0.1-3.1-0.1-4.7C57.3,171.2,57.3,169.5,59.4,169.5"/>
<path class="st0" d="M90.4,194.5c0,0.9,0.2,5.3,0.2,6.3c0,0.7-0.2,3.9-0.2,4.6c0,0.7,0.2,4.3,0.2,5.1c0,0.7-0.4,1.6-1.9,1.6
	c-0.4,0-2.1-0.1-2.5-0.1c-0.6,0-3.5,0.2-4.1,0.2h-0.4c-0.4,0-1.9,0-2.2-1.3c-0.1-0.2-0.1-3.4-0.1-3.9c0-0.5,0.2-3.2,0.2-3.8v-4.4
	c0-0.9-0.2-5.2-0.2-6.2V185c0-0.9,0.2-5.4,0.2-6.4v-4.1c0-0.4-0.2-2.5-0.2-2.9c0-1.1,0.7-1.6,1-1.7c0.4-0.2,0.7-0.2,1.8-0.2
	c0.5,0,3.1,0.1,3.7,0.1c0.7,0,1.4,0,2.2-0.1c0.1,0,0.8-0.1,1-0.1c1.4,0,1.4,1.9,1.4,2.2c0,0.5-0.2,2.8-0.2,3.3
	c-0.1,1.4-0.1,2.1-0.1,8.3c0,0.7,0.1,3.8,0.1,4.5c0,0.5-0.1,3.1-0.1,3.7V194.5z"/>
<path class="st0" d="M106.8,169.5c2.6,0,5.2,0.2,7.5,1.6c0.7,0.4,4.4,2.8,6.3,7.4c1.7,4.3,2,10.4,2,12.9c0,1.3-0.1,3.7-0.8,6.9
	c-0.5,2.3-1.4,4.5-2.5,6.5c-4.2,7-9.6,7.2-13.3,7.2c-0.5,0-2.7-0.2-3.2-0.2c-0.7,0-3.9,0.3-4.6,0.3c-1.8,0-3.7,0-3.7-2.8
	c0-0.4,0.1-0.8,0.1-1.3c0.1-0.5,0-1,0.1-1.5c0-0.4,0.2-2.6,0.2-3.1c0-1.1-0.1-2.3-0.1-3.4c-0.1-1.7-0.2-5.1-0.2-6.1
	c0-0.6,0.1-3.6,0.1-4.2c0-0.8-0.2-5.1-0.2-6c0-0.8,0.1-4.8,0.1-5.7c0-0.7-0.2-4.2-0.2-5c0-1.1,0-3.4,2.6-3.4c0.7,0,3.7,0.1,4.4,0.1
	C102.2,169.7,106,169.5,106.8,169.5 M105,182.8c0,0.7,0.1,1.3,0.1,1.9c0.1,1.1,0.1,2.8,0.1,4.4c0,0.6-0.1,3.6-0.1,4.2
	c0,0.4,0.1,2.5,0.2,3c0,0.4-0.1,2.2-0.1,2.6c0,1,0.1,1.5,0.2,2c0.4,1.4,1.7,1.4,1.9,1.4c0.2,0,2.4,0,2.9-3.5c0.8-6,0.8-6.2,0.8-7.4
	c0-1.4-0.1-2.7-0.2-4.1c-0.2-2.3-0.7-7.5-3.9-7.5C105,179.9,105,182,105,182.8"/>
<path class="st0" d="M125.7,188.9c0.2-1.1,0.2-2.1,0.4-3.2c0.2-1.5,0.7-3,1-4.6c0.5-2.3,0.6-4.8,1.1-7.1c1-4.2,1.6-4.5,4.1-4.5
	c0.7,0,1.3,0.1,2,0.1c1.2,0.1,2.4,0.1,3.6,0.1c1.5,0,3-0.1,4.5-0.1c2.3,0,2.9,0.5,3.3,2.8c0.2,0.7,0.8,4,0.9,4.6
	c0.1,0.7,0.6,4.6,0.7,5.4c0.2,1.4,1.6,8.3,1.9,9.9c0.3,1.6,0.4,1.9,0.6,4.9c0.2,2.5,0.7,5.1,1.2,7.6c0.2,1,0.4,2,0.7,3
	c0.1,0.6,0.2,1.2,0.2,1.8c0,1.3-0.8,2.5-1.9,2.5c-0.6,0-3.4-0.2-4.1-0.2c-0.4,0-2.7,0.2-3.1,0.2c-1.9,0-2-1.5-2-2.2
	c0-0.8-0.1-1.7-0.2-2.6c-0.1-1.3-0.2-2-0.9-2.3c-0.2-0.1-1.4-0.1-3.9-0.1c-1.3,0-1.7,0.1-2,0.6c-0.3,0.5-0.5,3.7-0.5,4.4
	c-0.1,1.8-1,2.2-2,2.2c-0.4,0-2.4-0.2-2.9-0.2c-0.5,0-3.1,0.1-3.7,0.1c-0.5,0-1,0-1.4-0.1c-0.8-0.2-1-1.1-1-1.5
	c0-0.3,1.3-7.8,1.4-8.3c0.1-0.7,0.3-1.4,0.4-2.1c0.2-0.8,0.7-4.9,0.8-5.8C125.1,192.4,125.5,190.6,125.7,188.9 M134.9,192.5
	c0,1.6,0.5,2.2,1.8,2.2c0.7,0,2.3,0,2.3-2c0,0,0-2.3-0.4-4.6c-0.1-1-0.4-1.9-0.5-2.9c-0.1-0.8-0.2-1.5-0.3-2.2
	c-0.1-1-0.6-1.1-0.7-1.1c-0.4,0-0.7,1-0.7,1.5c-0.1,0.7-0.4,1.8-0.5,2.5c-0.4,1.4-0.4,2.7-0.7,4
	C135.1,190.7,134.9,191.6,134.9,192.5"/>
<path class="st0" d="M167.8,169.4c8.3,0,10.7,4.2,12.1,7.9c0.8,2.1,0.9,7.1,0.9,7.8c0,2.7-0.4,5.2-1.8,8.1c-0.2,0.4-1.1,2.2-2.8,3.6
	c-0.6,0.5-0.9,0.8-0.9,1.3c0,0.9,2.4,4.8,2.8,5.7c0.2,0.5,0.4,1.1,0.6,1.6c0.2,0.5,0.5,1,0.7,1.4c1.7,3.1,1.8,3.6,1.8,4.1
	c0,0.7-0.6,1.3-1.5,1.3c-0.5,0-2.6-0.1-3.1-0.1c-0.8,0-3.1,0.1-3.8,0.1c-0.4,0-0.7,0.1-1.1,0.1c-1.1,0-1.5-0.4-1.9-1
	c-0.2-0.4-1-2.3-1.1-2.7c-0.5-1-1.1-2-1.6-3.1c-0.2-0.4-0.4-0.8-0.5-1.3c-0.6-1.4-1.3-2.9-1.9-2.9c-0.8,0-0.8,1-0.8,1.4
	c0,0.4,0.1,2.8,0.1,3.3c0,0.4-0.1,2.1-0.1,2.5c0,0.3,0.1,2,0.1,2.4c0,1.3-1.1,1.5-1.4,1.5c-0.2,0-0.4-0.1-0.7-0.1
	c-0.5-0.1-2.2-0.1-2.8-0.1c-0.5,0-3.6,0.2-4.2,0.2c-1.2,0-1.9-1-1.9-2c0-0.2,0-0.4,0.1-0.6c0.2-3,0.2-4.8,0.2-5.8
	c0-1.2-0.2-7-0.2-8.3c0-1.1,0.2-7,0.2-8.2c0-0.8-0.1-4.5-0.1-5.4c0-0.8,0.1-4.9,0.1-5.8c0-0.5-0.1-2.9-0.1-3.5c0-2.1,1.3-3,3.3-3
	c0.5,0,3.3,0.1,4,0.1C161.3,169.5,166.6,169.4,167.8,169.4 M163.7,182.5c0,0.5-0.1,3.5-0.1,4.2c0,1.3,0.8,2.8,2.5,2.8
	c1.7,0,2.6-1,2.9-2.2c0.1-0.5,0.2-2.9,0.2-3.5c0-2.2-1.1-4.3-3.1-4.3C163.8,179.4,163.7,181.5,163.7,182.5"/>
<path class="st0" d="M194.8,194.5c0,0.9,0.2,5.3,0.2,6.3c0,0.7-0.2,3.9-0.2,4.6c0,0.7,0.2,4.3,0.2,5.1c0,0.7-0.4,1.6-1.9,1.6
	c-0.4,0-2.1-0.1-2.5-0.1c-0.6,0-3.5,0.2-4.1,0.2h-0.4c-0.4,0-1.9,0-2.2-1.3c-0.1-0.2-0.1-3.4-0.1-3.9c0-0.5,0.2-3.2,0.2-3.8v-4.4
	c0-0.9-0.2-5.2-0.2-6.2V185c0-0.9,0.2-5.4,0.2-6.4v-4.1c0-0.4-0.2-2.5-0.2-2.9c0-1.1,0.7-1.6,1-1.7c0.4-0.2,0.7-0.2,1.8-0.2
	c0.5,0,3.1,0.1,3.7,0.1c0.7,0,1.4,0,2.2-0.1c0.1,0,0.8-0.1,1-0.1c1.4,0,1.4,1.9,1.4,2.2c0,0.5-0.2,2.8-0.2,3.3
	c-0.1,1.4-0.1,2.1-0.1,8.3c0,0.7,0.1,3.8,0.1,4.5c0,0.5-0.1,3.1-0.1,3.7V194.5z"/>
<path class="st0" d="M212.8,195.5c0,0.8,0.1,4.8,0.1,5.7c0,0.6-0.1,3.5-0.1,4.1v1.5c0.1,0.5,0.2,2.7,0.2,3.2c0,1.9-1.4,2-2.2,2
	c-0.4,0-0.7,0-1.1-0.1c-1.4-0.1-3.4-0.1-2.8-0.1c-1,0-2.7,0.1-3.1,0.1c-0.7,0-1-0.1-1.2-0.2c-0.2-0.1-0.8-0.7-0.8-1.9
	c0-0.8,0.3-4.7,0.3-5.6c0-0.7-0.2-4.2-0.2-5.1c0-0.8,0.3-4.9,0.3-5.9c0-0.7-0.2-4-0.2-4.8c0-1.7,0.2-3.4,0.2-5.1c0-3-1.6-3-2.5-3
	H198c-1.1,0-1.9-0.7-1.9-1.8v-0.4c0.1-1,0.1-2.5,0.1-3.6c0-0.4-0.1-2.4-0.1-2.8c0-1,0.1-2,2-2c0.3,0,1.1,0,1.9,0.1
	c0.8,0,1.6,0.1,1.9,0.1c1,0,5.7-0.2,6.7-0.2c0.7,0,4,0.1,4.8,0.1c0.5,0,2.5-0.1,3-0.1c0.3,0,1.3,0,1.8,1.1c0.2,0.4,0.3,0.7,0.3,2.2
	c0,0.5-0.1,2.8-0.1,3.2c0,0.3,0.1,1.8,0.1,2.1c0,0.9-0.3,2-1.9,2c-0.2,0-1.6-0.1-1.9-0.1c-2,0-2,2-2,3.3c0,0.8,0.2,4.7,0.2,5.5
	C212.9,190,212.8,194.5,212.8,195.5"/>
<path class="st0" d="M238.4,169.6c0.3,0,1.6-0.1,1.9-0.1c1.1,0,1.8,0.7,1.8,1.9c0,0.5-0.2,2.8-0.2,3.3c0,0.2,0.1,1.7,0.1,2
	c0,0.8-0.1,2.2-2.2,2.4c-0.2,0.1-0.8,0-1,0c-0.2,0-1.6,0.1-1.9,0.1c-0.4,0-2.1-0.2-2.5-0.2c-2.3,0-3,0.5-3.3,1
	c-0.2,0.4-0.2,0.5-0.2,2.2c0,0.6,0,3,2.1,3c0.2,0,1.5-0.1,1.8-0.1c0.4,0,2,0.1,2.5,0.1c0.2,0,1.6-0.1,1.9-0.1c1.8,0,2.3,0.7,2.3,2.4
	c0,0.4-0.1,2.1-0.1,2.5c0,0.4,0.1,2.1,0.1,2.5c0,0.5-0.1,0.8-0.2,1.1c-0.6,1.4-1.5,1.4-2.4,1.4c-0.7,0-4.2-0.2-4.9-0.2
	c-1,0-2.2,0.1-2.8,1.1c-0.3,0.5-0.3,1.4-0.3,3.1c0,1.2,0,2.3,1.5,2.7c0.7,0.2,1.6,0.2,2.4,0.2c0.6,0.1,1.2,0.2,1.7,0.2
	c0.4,0.1,0.8,0.1,1.3,0.1c0.5,0,1,0,1.4-0.1c0.4-0.1,0.8-0.1,1.2-0.1c0.8,0,2.2,0.5,2.2,2.2c0,0.4,0,0.7-0.1,1.1
	c-0.1,0.7-0.1,1.3-0.1,1.7c0,0.4,0.1,2.2,0.1,2.6c0,2-1.4,2.4-2.2,2.4c-0.3,0-1.8-0.1-2.1-0.1c-0.3,0-1.7,0.1-2,0.1
	c-1.3,0-2.5-0.1-3.8-0.1c-0.3,0-1.8,0.1-2.2,0.1c-0.3,0-1.7-0.1-2-0.1c-0.5,0-3.2,0.1-3.7,0.1c-0.4,0-1.9,0.1-2.3,0.1
	c-1.4,0-2.5-1.1-2.5-2.3c0-0.2,0.1-0.5,0.1-0.7c0.1-1.3,0.1-2.8,0.1-3.8c0-0.5-0.1-3.2-0.1-3.7c0-0.4,0.2-2.4,0.2-2.8
	c0-0.4-0.1-2.3-0.1-2.8c0-0.7,0.1-4.3,0.1-5.2c0-0.8-0.1-4.9-0.1-5.8c0-2.1,0.1-4.3,0.1-6.4c0-0.7-0.1-3.9-0.1-4.6
	c0-3,0-4.6,3.1-4.6c0.3,0,1,0.1,1.8,0.1c0.7,0.1,1.5,0.1,1.7,0.1h3.1c0.7,0,4.3,0.1,5.1,0.1c0.3,0,1.9-0.1,2.3-0.1H238.4z
	 M226.4,165.6c0.1-0.2,1.1-2.7,1.1-3c0.6-1.7,0.9-2.3,2.1-2.3c0.4,0,0.8,0.1,1.1,0.1c0.9,0.1,1.6,0.1,3,0.1h1.3
	c0.4-0.1,0.7-0.1,1-0.1c0.8,0,1.6,0,1.6,0.8c0,0.5-0.8,1.3-1.3,1.7c-1.1,1.1-2.3,2.2-3.3,3.3c-0.7,0.8-1,1.1-1.6,1.1
	c-0.2,0-1.3-0.1-1.5-0.1c-0.4,0-2.3,0.1-2.8,0.1c-0.8,0-1.2-0.2-1.2-0.8C226.1,166.2,226.3,165.9,226.4,165.6"/>
<path class="st0" d="M246.2,175.3c0.9-2.1,2.5-3.9,4.5-4.9c2.7-1.2,5.2-1.4,7.3-1.4c5,0,8.4,0,8.4,2.6c0,0.1-0.1,3.6-0.1,4.2
	c0,0.3,0.1,1.8,0.1,2.1c0,0.7-0.2,2.3-2.3,2.3h-0.4c-0.8-0.1-1.6-0.4-2.4-0.7c-0.9-0.2-1.6-0.2-2.1-0.2c-0.7,0-2.7,0.1-2.7,2.2
	c0,1.6,1,2.5,3.6,4.8c0.7,0.6,1.6,1.6,2.2,2.1c0.4,0.4,0.8,0.7,1.1,1c4,3.9,4.9,6.4,4.9,10.2c0,2.8-0.1,5.6-1.6,7.9
	c-2,3-5.1,4.2-6.4,4.5c-1.6,0.4-4.8,0.7-6.7,0.7c-2.6,0-6.5-0.5-7.8-1.4c-1-0.7-1-1.3-1-1.9c0-0.5,0.2-3.2,0.2-3.8
	c0-0.4-0.1-2.3-0.1-2.7c0-0.7,0-2.7,2.2-2.7c1,0,1.6,0.1,2.3,0.7c0.4,0.3,0.7,0.7,1.1,0.9c0.5,0.4,1.7,0.6,2.9,0.6
	c1.7,0,3.6-0.4,3.6-2.2c0-1.3-0.5-1.7-4.2-5.3c-0.4-0.4-2.2-2.3-2.7-2.7c-1.5-1.4-2.4-2.3-3.4-4c-1.4-2.5-1.4-4-1.4-6.4
	C245.2,178.6,245.6,176.7,246.2,175.3"/>
<path class="st0" d="M17.3,239.9c0,0.1,0,0.2-0.1,0.3c-0.1,0.1-0.2,0.2-0.4,0.2c-0.2,0.1-0.4,0.1-0.6,0.1c-0.3,0-0.6,0.1-1,0.1
	c-0.4,0-0.8,0-1-0.1c-0.3,0-0.5-0.1-0.7-0.1c-0.2-0.1-0.3-0.1-0.3-0.2c-0.1-0.1-0.1-0.2-0.1-0.3v-19.8c0-0.1,0-0.2,0.1-0.3
	c0.1-0.1,0.2-0.2,0.4-0.2c0.2-0.1,0.4-0.1,0.7-0.1c0.3,0,0.6,0,1,0c0.4,0,0.8,0,1,0c0.3,0,0.5,0.1,0.6,0.1c0.2,0.1,0.3,0.1,0.4,0.2
	c0.1,0.1,0.1,0.2,0.1,0.3V239.9z"/>
<path class="st0" d="M40.8,239c0,0.3,0,0.5-0.1,0.7c-0.1,0.2-0.2,0.4-0.3,0.5c-0.1,0.1-0.3,0.2-0.5,0.3c-0.2,0.1-0.4,0.1-0.6,0.1
	h-1.8c-0.4,0-0.7,0-1-0.1c-0.3-0.1-0.5-0.2-0.8-0.4c-0.2-0.2-0.5-0.5-0.7-0.8c-0.2-0.3-0.5-0.8-0.7-1.3l-5.2-9.8
	c-0.3-0.6-0.6-1.2-0.9-1.9c-0.3-0.7-0.6-1.3-0.8-2h0c0,0.8,0.1,1.5,0.1,2.3c0,0.8,0,1.6,0,2.4v11c0,0.1,0,0.2-0.1,0.3
	c-0.1,0.1-0.2,0.2-0.3,0.2c-0.1,0.1-0.3,0.1-0.6,0.1c-0.3,0-0.6,0.1-1,0.1c-0.4,0-0.7,0-0.9-0.1c-0.3,0-0.4-0.1-0.6-0.1
	c-0.1-0.1-0.2-0.1-0.3-0.2c-0.1-0.1-0.1-0.2-0.1-0.3v-18.8c0-0.5,0.1-0.9,0.4-1.1c0.3-0.3,0.7-0.4,1.1-0.4h2.3c0.4,0,0.8,0,1,0.1
	c0.3,0.1,0.5,0.2,0.8,0.3c0.2,0.2,0.4,0.4,0.6,0.7c0.2,0.3,0.4,0.6,0.6,1.1l4.1,7.7c0.2,0.5,0.5,0.9,0.7,1.4
	c0.2,0.4,0.5,0.9,0.7,1.3c0.2,0.5,0.4,0.9,0.6,1.3c0.2,0.4,0.4,0.9,0.6,1.3h0c0-0.8-0.1-1.5-0.1-2.4c0-0.8,0-1.6,0-2.3v-9.8
	c0-0.1,0-0.2,0.1-0.3c0.1-0.1,0.2-0.2,0.3-0.2c0.2-0.1,0.3-0.1,0.6-0.1c0.2,0,0.6,0,1,0c0.4,0,0.7,0,0.9,0c0.2,0,0.4,0.1,0.6,0.1
	c0.1,0.1,0.2,0.1,0.3,0.2c0.1,0.1,0.1,0.2,0.1,0.3V239z"/>
<path class="st0" d="M61,221.3c0,0.3,0,0.6,0,0.8c0,0.2-0.1,0.4-0.1,0.5c-0.1,0.1-0.1,0.2-0.2,0.3c-0.1,0.1-0.2,0.1-0.3,0.1h-5.2
	v16.9c0,0.1,0,0.2-0.1,0.3c-0.1,0.1-0.2,0.2-0.4,0.2c-0.2,0.1-0.4,0.1-0.7,0.1c-0.3,0-0.6,0.1-1,0.1c-0.4,0-0.8,0-1-0.1
	c-0.3,0-0.5-0.1-0.7-0.1c-0.2-0.1-0.3-0.1-0.3-0.2c-0.1-0.1-0.1-0.2-0.1-0.3v-16.9h-5.2c-0.1,0-0.2,0-0.3-0.1
	c-0.1-0.1-0.1-0.2-0.2-0.3c-0.1-0.1-0.1-0.3-0.1-0.5c0-0.2,0-0.5,0-0.8c0-0.3,0-0.6,0-0.8c0-0.2,0.1-0.4,0.1-0.5
	c0-0.1,0.1-0.2,0.2-0.3c0.1-0.1,0.2-0.1,0.3-0.1h14.8c0.1,0,0.2,0,0.3,0.1c0.1,0.1,0.1,0.2,0.2,0.3c0.1,0.1,0.1,0.3,0.1,0.5
	C61,220.7,61,221,61,221.3"/>
<path class="st0" d="M77.5,238.9c0,0.3,0,0.6,0,0.8c0,0.2-0.1,0.4-0.1,0.5c-0.1,0.1-0.1,0.2-0.2,0.3c-0.1,0.1-0.2,0.1-0.3,0.1H66.4
	c-0.4,0-0.7-0.1-0.9-0.3c-0.2-0.2-0.4-0.6-0.4-1v-18.3c0-0.5,0.1-0.8,0.4-1c0.2-0.2,0.5-0.3,0.9-0.3h10.5c0.1,0,0.2,0,0.3,0.1
	c0.1,0.1,0.1,0.2,0.2,0.3c0.1,0.1,0.1,0.3,0.1,0.5c0,0.2,0,0.5,0,0.8c0,0.3,0,0.6,0,0.8c0,0.2-0.1,0.4-0.1,0.5
	c-0.1,0.1-0.1,0.2-0.2,0.3c-0.1,0.1-0.2,0.1-0.3,0.1h-7.5v5.1h6.3c0.1,0,0.2,0,0.3,0.1c0.1,0.1,0.2,0.2,0.2,0.3
	c0.1,0.1,0.1,0.3,0.1,0.5c0,0.2,0,0.5,0,0.8c0,0.3,0,0.6,0,0.8c0,0.2-0.1,0.4-0.1,0.5c-0.1,0.1-0.1,0.2-0.2,0.3
	c-0.1,0.1-0.2,0.1-0.3,0.1h-6.3v5.9h7.5c0.1,0,0.2,0,0.3,0.1c0.1,0.1,0.1,0.2,0.2,0.3c0.1,0.1,0.1,0.3,0.1,0.5
	C77.5,238.3,77.5,238.5,77.5,238.9"/>
<path class="st0" d="M98.5,240c0,0.1,0,0.2-0.1,0.3c0,0.1-0.1,0.1-0.3,0.2c-0.2,0-0.4,0.1-0.7,0.1c-0.3,0-0.7,0-1.3,0
	c-0.5,0-0.8,0-1.1,0c-0.3,0-0.5-0.1-0.6-0.1c-0.2-0.1-0.3-0.1-0.3-0.2c-0.1-0.1-0.1-0.2-0.2-0.3l-1.9-4.7c-0.2-0.5-0.4-1-0.7-1.4
	c-0.2-0.4-0.5-0.8-0.7-1c-0.3-0.3-0.6-0.5-0.9-0.6c-0.3-0.1-0.7-0.2-1.2-0.2h-1.3v8c0,0.1,0,0.2-0.1,0.3c-0.1,0.1-0.2,0.2-0.3,0.2
	c-0.2,0.1-0.4,0.1-0.6,0.1c-0.3,0-0.6,0.1-1,0.1c-0.4,0-0.8,0-1-0.1c-0.3,0-0.5-0.1-0.7-0.1c-0.2-0.1-0.3-0.1-0.3-0.2
	c-0.1-0.1-0.1-0.2-0.1-0.3v-19c0-0.5,0.1-0.8,0.4-1c0.2-0.2,0.5-0.3,0.9-0.3h5.4c0.5,0,1,0,1.4,0c0.4,0,0.7,0,1,0.1
	c0.8,0.1,1.6,0.3,2.3,0.6c0.7,0.3,1.2,0.7,1.7,1.1c0.5,0.5,0.8,1,1.1,1.7c0.2,0.6,0.4,1.4,0.4,2.2c0,0.7-0.1,1.3-0.3,1.9
	c-0.2,0.6-0.4,1.1-0.8,1.5c-0.3,0.5-0.8,0.8-1.3,1.2c-0.5,0.3-1.1,0.6-1.7,0.8c0.3,0.2,0.6,0.3,0.9,0.6c0.3,0.2,0.5,0.5,0.8,0.8
	c0.2,0.3,0.5,0.7,0.7,1.1c0.2,0.4,0.4,0.8,0.6,1.3l1.8,4.1c0.2,0.4,0.3,0.7,0.3,0.9C98.4,239.7,98.5,239.9,98.5,240 M93,225.8
	c0-0.7-0.2-1.3-0.5-1.7c-0.3-0.5-0.8-0.8-1.5-1c-0.2-0.1-0.5-0.1-0.7-0.1c-0.3,0-0.7,0-1.1,0h-1.9v5.9h2.2c0.6,0,1.1-0.1,1.6-0.2
	c0.5-0.1,0.8-0.4,1.1-0.6c0.3-0.3,0.5-0.6,0.7-0.9C92.9,226.6,93,226.2,93,225.8"/>
<path class="st0" d="M120.5,239c0,0.3,0,0.5-0.1,0.7c-0.1,0.2-0.2,0.4-0.4,0.5c-0.1,0.1-0.3,0.2-0.5,0.3c-0.2,0.1-0.4,0.1-0.6,0.1
	h-1.8c-0.4,0-0.7,0-1-0.1c-0.3-0.1-0.5-0.2-0.8-0.4c-0.2-0.2-0.5-0.5-0.7-0.8c-0.2-0.3-0.5-0.8-0.7-1.3l-5.2-9.8
	c-0.3-0.6-0.6-1.2-0.9-1.9c-0.3-0.7-0.6-1.3-0.8-2h0c0,0.8,0.1,1.5,0.1,2.3c0,0.8,0,1.6,0,2.4v11c0,0.1,0,0.2-0.1,0.3
	c-0.1,0.1-0.2,0.2-0.3,0.2c-0.1,0.1-0.3,0.1-0.6,0.1c-0.2,0-0.6,0.1-1,0.1c-0.4,0-0.7,0-0.9-0.1c-0.3,0-0.4-0.1-0.6-0.1
	c-0.1-0.1-0.2-0.1-0.3-0.2c-0.1-0.1-0.1-0.2-0.1-0.3v-18.8c0-0.5,0.1-0.9,0.4-1.1c0.3-0.3,0.7-0.4,1.1-0.4h2.3c0.4,0,0.8,0,1,0.1
	c0.3,0.1,0.5,0.2,0.8,0.3c0.2,0.2,0.4,0.4,0.6,0.7c0.2,0.3,0.4,0.6,0.6,1.1l4.1,7.7c0.2,0.5,0.5,0.9,0.7,1.4
	c0.2,0.4,0.5,0.9,0.7,1.3c0.2,0.5,0.4,0.9,0.6,1.3c0.2,0.4,0.4,0.9,0.6,1.3h0c0-0.8-0.1-1.5-0.1-2.4c0-0.8,0-1.6,0-2.3v-9.8
	c0-0.1,0-0.2,0.1-0.3c0.1-0.1,0.2-0.2,0.3-0.2c0.2-0.1,0.4-0.1,0.6-0.1c0.2,0,0.6,0,1,0c0.4,0,0.7,0,0.9,0c0.2,0,0.4,0.1,0.6,0.1
	c0.1,0.1,0.2,0.1,0.3,0.2c0.1,0.1,0.1,0.2,0.1,0.3V239z"/>
<path class="st0" d="M143.9,238.9c0.1,0.4,0.2,0.7,0.2,0.9c0,0.2,0,0.4-0.1,0.5c-0.1,0.1-0.3,0.2-0.6,0.2c-0.3,0-0.7,0-1.2,0
	c-0.6,0-1,0-1.3,0c-0.3,0-0.5,0-0.7-0.1c-0.2,0-0.3-0.1-0.3-0.2c-0.1-0.1-0.1-0.2-0.2-0.3l-1.4-4.2h-7.9l-1.3,4.1
	c0,0.2-0.1,0.3-0.2,0.4c-0.1,0.1-0.2,0.2-0.3,0.2c-0.2,0.1-0.4,0.1-0.7,0.1c-0.3,0-0.7,0-1.1,0c-0.5,0-0.9,0-1.2-0.1
	c-0.3,0-0.5-0.1-0.6-0.2c-0.1-0.1-0.1-0.3-0.1-0.5c0-0.2,0.1-0.5,0.2-0.9l6.5-18.6c0.1-0.2,0.1-0.3,0.2-0.4c0.1-0.1,0.2-0.2,0.4-0.3
	c0.2-0.1,0.5-0.1,0.8-0.1c0.3,0,0.8,0,1.3,0c0.6,0,1.1,0,1.5,0c0.4,0,0.7,0.1,0.9,0.1c0.2,0.1,0.4,0.1,0.5,0.3
	c0.1,0.1,0.2,0.3,0.2,0.5L143.9,238.9z M134.3,223.6L134.3,223.6l-3,8.9h5.9L134.3,223.6z"/>
<path class="st0" d="M159.8,221.3c0,0.3,0,0.6,0,0.8c0,0.2-0.1,0.4-0.1,0.5c-0.1,0.1-0.1,0.2-0.2,0.3c-0.1,0.1-0.2,0.1-0.3,0.1h-5.2
	v16.9c0,0.1,0,0.2-0.1,0.3c-0.1,0.1-0.2,0.2-0.4,0.2c-0.2,0.1-0.4,0.1-0.7,0.1c-0.3,0-0.6,0.1-1,0.1c-0.4,0-0.8,0-1-0.1
	c-0.3,0-0.5-0.1-0.7-0.1c-0.2-0.1-0.3-0.1-0.4-0.2c-0.1-0.1-0.1-0.2-0.1-0.3v-16.9h-5.2c-0.1,0-0.2,0-0.3-0.1
	c-0.1-0.1-0.1-0.2-0.2-0.3c-0.1-0.1-0.1-0.3-0.1-0.5c0-0.2,0-0.5,0-0.8c0-0.3,0-0.6,0-0.8c0-0.2,0.1-0.4,0.1-0.5
	c0.1-0.1,0.1-0.2,0.2-0.3c0.1-0.1,0.2-0.1,0.3-0.1h14.8c0.1,0,0.2,0,0.3,0.1c0.1,0.1,0.1,0.2,0.2,0.3c0.1,0.1,0.1,0.3,0.1,0.5
	C159.8,220.7,159.8,221,159.8,221.3"/>
<path class="st0" d="M168.2,239.9c0,0.1,0,0.2-0.1,0.3c-0.1,0.1-0.2,0.2-0.3,0.2c-0.2,0.1-0.4,0.1-0.6,0.1c-0.3,0-0.6,0.1-1,0.1
	c-0.4,0-0.8,0-1-0.1c-0.3,0-0.5-0.1-0.7-0.1c-0.2-0.1-0.3-0.1-0.4-0.2c-0.1-0.1-0.1-0.2-0.1-0.3v-19.8c0-0.1,0-0.2,0.1-0.3
	c0.1-0.1,0.2-0.2,0.4-0.2c0.2-0.1,0.4-0.1,0.7-0.1c0.3,0,0.6,0,1,0c0.4,0,0.8,0,1,0c0.3,0,0.5,0.1,0.6,0.1c0.2,0.1,0.3,0.1,0.3,0.2
	c0.1,0.1,0.1,0.2,0.1,0.3V239.9z"/>
<path class="st0" d="M193.3,229.8c0,1.7-0.2,3.3-0.6,4.7c-0.4,1.4-1.1,2.5-1.9,3.5c-0.9,1-1.9,1.7-3.2,2.2c-1.3,0.5-2.7,0.8-4.4,0.8
	c-1.6,0-3.1-0.2-4.3-0.6c-1.2-0.4-2.2-1.1-3-1.9c-0.8-0.9-1.4-2-1.8-3.3c-0.4-1.3-0.6-2.9-0.6-4.8c0-1.7,0.2-3.2,0.6-4.6
	c0.4-1.4,1.1-2.5,1.9-3.5c0.9-1,1.9-1.7,3.2-2.2c1.3-0.5,2.7-0.8,4.4-0.8c1.6,0,3,0.2,4.2,0.6c1.2,0.4,2.2,1.1,3,1.9
	c0.8,0.9,1.4,2,1.8,3.3C193.1,226.4,193.3,228,193.3,229.8 M188.8,230c0-1.1-0.1-2.1-0.3-3c-0.2-0.9-0.5-1.7-0.9-2.3
	c-0.4-0.6-1-1.1-1.7-1.5c-0.7-0.4-1.6-0.5-2.6-0.5c-1,0-1.9,0.2-2.6,0.6c-0.7,0.4-1.3,0.9-1.7,1.6c-0.4,0.7-0.7,1.4-0.9,2.3
	c-0.2,0.9-0.3,1.8-0.3,2.8c0,1.1,0.1,2.2,0.3,3.1c0.2,0.9,0.5,1.7,0.9,2.3c0.4,0.6,1,1.1,1.6,1.5c0.7,0.3,1.6,0.5,2.6,0.5
	c1,0,1.9-0.2,2.6-0.6c0.7-0.4,1.3-0.9,1.7-1.6c0.4-0.7,0.7-1.4,0.9-2.3C188.7,232,188.8,231,188.8,230"/>
<path class="st0" d="M215.8,239c0,0.3,0,0.5-0.1,0.7c-0.1,0.2-0.2,0.4-0.4,0.5c-0.1,0.1-0.3,0.2-0.5,0.3c-0.2,0.1-0.4,0.1-0.6,0.1
	h-1.8c-0.4,0-0.7,0-1-0.1c-0.3-0.1-0.5-0.2-0.8-0.4c-0.2-0.2-0.5-0.5-0.7-0.8c-0.2-0.3-0.5-0.8-0.7-1.3l-5.2-9.8
	c-0.3-0.6-0.6-1.2-0.9-1.9c-0.3-0.7-0.6-1.3-0.8-2h0c0,0.8,0.1,1.5,0.1,2.3c0,0.8,0,1.6,0,2.4v11c0,0.1,0,0.2-0.1,0.3
	c-0.1,0.1-0.2,0.2-0.3,0.2c-0.1,0.1-0.3,0.1-0.6,0.1c-0.3,0-0.6,0.1-1,0.1c-0.4,0-0.7,0-0.9-0.1c-0.3,0-0.4-0.1-0.6-0.1
	c-0.1-0.1-0.2-0.1-0.3-0.2c-0.1-0.1-0.1-0.2-0.1-0.3v-18.8c0-0.5,0.1-0.9,0.4-1.1c0.3-0.3,0.7-0.4,1.1-0.4h2.3c0.4,0,0.8,0,1,0.1
	c0.3,0.1,0.5,0.2,0.8,0.3c0.2,0.2,0.4,0.4,0.6,0.7c0.2,0.3,0.4,0.6,0.6,1.1l4.1,7.7c0.2,0.5,0.5,0.9,0.7,1.4
	c0.2,0.4,0.5,0.9,0.7,1.3c0.2,0.5,0.4,0.9,0.6,1.3c0.2,0.4,0.4,0.9,0.6,1.3h0c0-0.8-0.1-1.5-0.1-2.4c0-0.8,0-1.6,0-2.3v-9.8
	c0-0.1,0-0.2,0.1-0.3c0.1-0.1,0.2-0.2,0.3-0.2c0.2-0.1,0.4-0.1,0.6-0.1c0.2,0,0.6,0,1,0c0.4,0,0.7,0,0.9,0c0.3,0,0.4,0.1,0.6,0.1
	c0.1,0.1,0.2,0.1,0.3,0.2c0.1,0.1,0.1,0.2,0.1,0.3V239z"/>
<path class="st0" d="M239.1,238.9c0.1,0.4,0.2,0.7,0.2,0.9c0,0.2,0,0.4-0.1,0.5c-0.1,0.1-0.3,0.2-0.6,0.2c-0.3,0-0.7,0-1.2,0
	c-0.5,0-1,0-1.3,0c-0.3,0-0.5,0-0.7-0.1c-0.2,0-0.3-0.1-0.3-0.2c-0.1-0.1-0.1-0.2-0.2-0.3l-1.4-4.2h-7.9l-1.3,4.1
	c0,0.2-0.1,0.3-0.2,0.4c-0.1,0.1-0.2,0.2-0.3,0.2c-0.2,0.1-0.4,0.1-0.7,0.1c-0.3,0-0.7,0-1.1,0c-0.5,0-0.9,0-1.2-0.1
	c-0.3,0-0.5-0.1-0.6-0.2c-0.1-0.1-0.1-0.3-0.1-0.5c0-0.2,0.1-0.5,0.2-0.9l6.5-18.6c0.1-0.2,0.1-0.3,0.2-0.4c0.1-0.1,0.2-0.2,0.4-0.3
	c0.2-0.1,0.5-0.1,0.8-0.1c0.3,0,0.8,0,1.3,0c0.6,0,1.1,0,1.5,0c0.4,0,0.7,0.1,0.9,0.1c0.2,0.1,0.4,0.1,0.5,0.3
	c0.1,0.1,0.2,0.3,0.2,0.5L239.1,238.9z M229.5,223.6L229.5,223.6l-3,8.9h5.9L229.5,223.6z"/>
<path class="st0" d="M255.2,238.7c0,0.3,0,0.6,0,0.8c0,0.2-0.1,0.4-0.1,0.5c-0.1,0.1-0.1,0.3-0.2,0.3c-0.1,0.1-0.2,0.1-0.3,0.1H245
	c-0.4,0-0.7-0.1-0.9-0.3c-0.2-0.2-0.4-0.6-0.4-1v-19c0-0.1,0-0.2,0.1-0.3c0.1-0.1,0.2-0.2,0.3-0.2c0.2-0.1,0.4-0.1,0.7-0.1
	c0.3,0,0.6-0.1,1-0.1c0.4,0,0.8,0,1,0.1c0.3,0,0.5,0.1,0.6,0.1c0.2,0.1,0.3,0.1,0.4,0.2c0.1,0.1,0.1,0.2,0.1,0.3V237h6.6
	c0.1,0,0.2,0,0.3,0.1c0.1,0.1,0.1,0.2,0.2,0.3c0.1,0.1,0.1,0.3,0.1,0.5C255.2,238.1,255.2,238.4,255.2,238.7"/>
<path class="st1" d="M124.2,0c2.2,0.1,8.4-0.1,7.8,2.2c-0.6,2-1.8,2.5-3.7,3.2c-0.9,0.4-2.8,0.8-3.7,1.2c-1.8,0.8-3.8,1.1-5.7,1.6
	c-1.8,0.7-3.6,1.3-5.5,2c-1.5,0.6-4.7,2.4-4.3,3.9c1.9,1.5,7.8-1.7,9.5-2.3c4.2-1.4,8.2-2.9,12-4.6c2.2-0.6,4.5-1.2,6.7-1.8
	c1.3-0.4,1.6-0.4,2.6-0.9c1.3-0.4,2.5-0.8,3.8-1.2c3.4-1,9.1-1.5,10.6,1.3c1.5,2.9-6.3,4.1-8.2,4.8c-3.9,1.3-7.7,2.6-11.4,4.1
	c-2.1,0.9-4.1,1.3-6.1,2.2c-3.7,1.6-9.5,4.1-9.9,5.7c0,1.4,1.8,1.1,2.9,0.8c1.2-0.3,2.3-0.9,3.3-1.3c1.3-0.5,2.6-1,4-1.5
	c0.6-0.3,1.1-0.6,1.7-0.9c2.5-0.9,5.2-2.2,7.7-3c3.3-1.3,6.2-2.5,9.5-3.9c2-0.8,4.1-1.1,6.2-1.8c1.9-0.7,3.6-1.3,5.5-1.7
	c3.2-0.6,10.2-0.9,11.2,1.5c0.2,0.4,0.6,1.3,0.4,2c-0.5,2-5.3,2.9-7.3,3.7c-2.1,0.8-4.4,1.2-6.7,2c-2.3,0.8-4.9,1.7-7.2,2.5
	c-2.4,0.8-4.6,1.6-6.8,2.6c-2.7,1.2-5.6,2.4-8.1,3.9c-2.1,1.2-4.2,2.5-6.2,3.8c-0.6,0.4-1.6,1.1-1.2,2c3,1.3,8-2.9,10.2-3.9
	c4.3-2,9-4,13.7-5.5c3.7-1.2,7.4-2.2,11.2-3.3c1.4-0.4,3-1.2,4.4-1.7c2.9-1.1,12.8-4.2,14.4,0.1c0.3,0.7,0.1,1.4-0.1,2
	c-0.9,2-2.6,1.7-4.5,2.5c-1.3,0.6-2.8,0.8-4.2,1.4c-4.9,2.2-10.1,3.6-15,5.9c-5.6,2.6-11.3,5.1-16.8,7.6c-1.8,0.9-3.4,2.3-5,3.4
	c-0.7,0.3-1.3,0.7-2,1c-2.3,1.4-4.7,2.8-7,4.2c-3.8,2.5-7.2,5.5-10.8,8.2c-1.8,1.3-3.6,2.5-5.4,3.8c-2,1.5-2.1,2.2-3.6,4.1
	c-0.6,0.6-1.2,1.2-1.8,1.8c-1.9,2.4-3.7,5.2-5,8.2c-1.2,2.7-2.5,8.9-1.4,12.6c0.2,0.5,0.6,0.9,0.9,1.3c1.8,2.9,5.6,6,10.9,5.2
	c1.1-0.1,2.1-0.1,3.2-0.2c1.8-0.4,3.7-0.8,5.5-1.2c2.2-0.8,3-1.1,5.1-1.9c1.6-0.8,7.5-4.6,9-5.4c1-0.6,1.9-1.5,2.9-2
	c2.8-1.5,5.9-2.9,9.1-4c5.1-1.7,10.6-2.6,12,2.6c0.4,1.3-1.2,4.3-1.6,5c-1,1.7-2.4,3.6-3.8,5.3c-1.2,1.7-2.9,2.9-4.4,4.3
	c-4,3.5-13.1,10.6-17.5,13.7c-1.9,1.3-5.6,3.8-7.7,5c-4.1,2.4-13.6,6.1-15.8,6.9c-2.9,1-5.6,2.5-8.7,3.4c-1.7,0.5-3.4,1.2-5,1.8
	c-1.8,0.6-3.4,0.9-5.3,1.4c-1.3,0.3-2.5,0.9-3.9,1.3c-1.2,0.3-4.3,1.4-5.5,0.8c-1.8-0.8-3-2.4-4.5-3.6c-1-0.7-1.8-1.7-2.5-2.6
	c-0.9-0.9-1.7-1.9-2.6-2.8c-0.4-0.8-0.8-1.6-1.2-2.4c-0.2-0.2-0.4-0.4-0.5-0.6c-0.7-1.6-1.3-3.2-2.1-4.8c-3-6.5-5.6-12.9-7.3-20.8
	c-2.4-11.4-0.7-23.9,2.2-33.9c0.7-2.1,1.3-4.3,2-6.4c0.8-1.9,1.7-3.8,2.5-5.7c1.1-2.7,2.3-5.3,3.8-7.6c2.7-3.9,5.8-7.7,9-11.1
	c1-1,2-2.1,3.1-3.1c1.3-1.4,2.7-2.8,4.2-4c0.6-0.7,1.2-1.4,1.9-2c0.9-1,2-1.6,3-2.4c0.4-0.3,0.7-0.6,1.1-0.9
	c2.2-1.4,4.7-2.4,7.1-3.7c1.8-1,3.5-2,5.4-2.9c1.1-0.5,2.1-1,3.2-1.4c1.1-0.6,2.8-1.2,4-1.6c3.7-1,7.4-1.6,11.1-2.6
	C122.1,0.1,122.9,0.4,124.2,0"/>
<path class="st1" d="M188.6,24.9c0.7,0.1,1.8-0.1,2.4,0.2c2.2,1.1,4.5,4.7,5.9,6.7c2.2,3.2,5,7.1,7,10.4c0.6,1,0.9,2.2,1.4,3.4
	c0.4,0.9,0.8,1.7,1.3,2.6c0.6,1.5,1.1,3.2,1.6,4.8c1.5,4.9,2.4,9.3,3.4,14.8c0.6,3.2,0.4,7.3-0.1,10.4c-0.4,2.4-0.2,4.7-0.7,6.8
	c-0.1,0.9-0.1,1.7-0.2,2.6c-0.4,1.7-0.4,3.6-0.9,5.3c-0.6,2.1-1.3,4.4-2.2,6.4c-0.3,0.6-0.7,1.2-1,1.8c-0.9,2.3-1.6,4.5-2.5,6.8
	c-1,2.5-2.7,4.8-4,7.1c-0.7,1.3-1.5,2.9-2.5,4.1c-1.5,1.7-3,3.5-4.5,5.2c-0.7,0.7-1.3,1.3-2,2c-0.7,0.7-1.3,1.5-2,2.2
	c-0.5,0.4-1,0.9-1.5,1.3c-3.5,4.1-7.4,7.8-11.8,11.1c-1,0.7-1.8,1.7-2.9,2.3c-1,0.6-2,1.2-3,1.9c-1.8,0.7-3.1,1.4-4.9,2.1
	c-0.4,0.2-1.3,0.8-1.7,0.9c-1.5,0.6-2.9,1.5-4.5,2.1c-1.7,0.6-3.4,0.8-5.2,1.4c-2.2,0.7-4.6,1.5-6.9,2.1c-3.1,0.9-9.9,0.8-10.6-2
	c-0.6-2.2,4.2-2.5,5.7-3c1-0.3,2.4-0.6,3.4-0.9c2.4-0.9,4.3-1.5,6.7-2.4c1-0.4,1.9-0.9,2.9-1.3c1.1-0.4,4.1-1.8,3.8-3.2
	c-0.2-0.2-0.5-0.6-0.8-0.6c-0.5-0.1-1,0.3-1.3,0.4c-2.1,0.7-3.8,1.2-5.8,2c-3,1.2-6.3,2.5-9.5,3.6c-1.8,0.4-3.7,0.9-5.5,1.3
	c-2.6,0.9-5.1,1.8-7.7,2.7c-0.7,0.3-1.3,0.6-2,0.9c-3.3,0.8-10.3,1.4-11.5-1.7c-1.1-3,5.6-3.7,7.5-4.4c0.9-0.3,1.8-0.8,2.8-1.1
	c1.5-0.5,2.8-0.7,4.2-1.2c1.3-0.5,2.8-1.1,4.2-1.6c1-0.3,2.1-0.6,3.1-0.9c3-1.1,6-2.7,8.8-4c1.4-0.7,6.7-2.4,6.2-4.3
	c-0.4-0.2-0.9-0.6-1.6-0.5c-1.2,0.2-1.9,0.8-2.8,1.2c-1.8,0.8-3.4,1.7-5.4,2.3c-4.1,1.3-7.9,3.4-12,4.8c-1.2,0.4-2.5,0.7-3.7,1.1
	c-0.7,0.3-1.3,0.6-2,0.9c-2,0.9-3.3,1.1-5.5,1.6c-1.4,0.4-4,1.1-5.4,1.6c-1.8,0.7-6.5,2-8.6,1.3c-1.5-0.5-4-1.6-4.6-3
	c-0.2-0.4,0-0.8,0.1-1.1c0.8-2.9,4.2-3.3,6.7-4.4c3.4-1.6,7.5-2.1,11.2-3.4c2.8-1,5.6-2,8.5-3c2.9-1.3,6-2.6,9-3.7
	c2-0.8,3.8-1.5,5.7-2.3c0.8-0.3,1.5-0.6,2.3-0.9c0.8-0.5,2-1.5,0.8-2.4c-0.9-0.7-2-0.2-2.9,0.2c-1,0.4-2.1,0.9-3.1,1.3
	c-1.9,0.7-3.6,1.3-5.3,2.2c-1.7,0.9-2.3,0.9-4.6,1.8c-2.1,1.3-5.7,2.6-8.1,3.8c-3.3,1.3-6.8,2.3-10.4,3.2c-1.4,0.5-2.8,0.9-4.1,1.4
	c-1.3,0.3-2.7,0.7-4,1c-0.6,0.1-1.3,0.2-1.9,0.3c-4.6,1.1-9.6,1.6-11.8-2.3c-0.3-0.5-0.2-1.2,0-1.6c0.7-2,3.1-2.1,5.2-2.8
	c0.5-0.2,1.5-0.1,2-0.3c1.6-0.3,2.8-0.9,4.4-1.2c2.3-0.8,5-1,7.3-1.8c2-0.7,4-1,5.9-1.8c2-0.9,4.6-1.7,6.6-2.6
	c0.6-0.3,1.2-0.7,1.8-1c3-1.3,5.5-2.6,8.2-4.3c1.1-0.7,2.2-1.3,3.4-2c0.6-0.4,1.1-0.8,1.7-1.3c3.7-2.2,7.6-4.5,11.1-7
	c0.9-0.7,1.7-1.7,2.6-2.4c2.1-1.7,5.7-4.7,7.4-6.8c0.4-0.4,0.9-0.8,1.3-1.2c0.4-0.6,0.8-1.3,1.2-1.9c2-2.7,5.7-7.3,6.9-10.9
	c0.4-1.3,0.5-2.5,0.8-3.9c0.2-0.9,0.6-2,0.4-3.2c-0.1-1.1-0.1-2.3-0.4-3.3c-0.6-2.3-2.2-4.7-4.4-5.5c-1.1-0.4-2-0.5-3.2-0.8
	c-2.6-0.7-6.7-0.9-9.6-0.1c-1.3,0.5-2.6,0.6-3.9,1.2c-1.8,0.7-3.5,1.1-5.7,1.8c-1.5,0.6-3.3,1.6-4.6,2.3c-1.5,0.9-3.2,1.4-4.8,2.1
	c-2.4,1-4.8,2.7-7.1,3.8c-2.4,1.2-11.8,6.1-13.2,0.9c-0.6-2.1,0.7-5.2,1.3-6.5c0.5-1,0.8-1.9,1.3-2.8c0.8-0.9,1.6-1.9,2.4-2.8
	c1.4-1.8,3.1-3.5,4.7-5c0.9-0.8,1.7-1.2,2.5-2c1.3-1.5,3-2.6,4.7-3.8c1.8-1.2,1.1-0.4,2.9-1.6c0.6-0.3,1.3-1,1.9-1.3
	c1.1-0.7,2.2-1.5,3.2-2.2c1.8-1.2,3.6-2.1,5.4-3.2c2.8-1.7,5.8-3.4,8.7-5.1c1.5-0.7,3.1-1.4,4.6-2.1c1.1-0.6,2.3-1.3,3.4-1.9
	c2.7-1.4,5.1-2.6,7.8-3.9c4.8-2.1,9.9-4.1,14.9-6c2.6-1,4.5-2.2,7.3-3.1C186.8,25.1,187.6,25.2,188.6,24.9"/>
</svg>
