<?xml version="1.0" encoding="utf-8"?>
<!-- Generator: Adobe Illustrator 21.0.0, SVG Export Plug-In . SVG Version: 6.00 Build 0)  -->
<svg version="1.1" id="Layer_1" xmlns="http://www.w3.org/2000/svg" xmlns:xlink="http://www.w3.org/1999/xlink" x="0px" y="0px"
	 viewBox="0 0 105 192.8" style="enable-background:new 0 0 105 192.8;" xml:space="preserve">
<style type="text/css">
	.st0{fill-rule:evenodd;clip-rule:evenodd;fill:#00AEEF;}
	.st1{fill:none;stroke:#FFFFFF;stroke-width:0.453;stroke-miterlimit:2.6131;}
	.st2{fill-rule:evenodd;clip-rule:evenodd;fill:#FFFFFF;}
	.st3{fill-rule:evenodd;clip-rule:evenodd;fill:#00AEEF;stroke:#FFFFFF;stroke-width:8.628764e-02;stroke-miterlimit:2.6131;}
	.st4{fill-rule:evenodd;clip-rule:evenodd;fill:#FFFFFF;stroke:#FFFFFF;stroke-width:8.628764e-02;stroke-miterlimit:2.6131;}
</style>
<g>
	<polygon class="st0" points="10.2,8.5 96.6,8.5 96.6,94.9 10.2,94.9 10.2,8.5 	"/>
	<path class="st1" d="M53.3,22.7v45.5 M69.6,29.4L37.3,61.6 M30.7,45.7h45.1 M37.3,29.8l31.9,31.8"/>
	<path class="st2" d="M35.9,24.4c-0.6,0-1.3,0.5-2,0.8c-1.1,0.6-2.3,1.2-3.3,2.2c-1.4,1.4-1.9,4-2.3,5.3c-0.1,0.2,0.6-0.3,1.5-1.2
		c0.8-0.8,1.9-1.8,2.8-3C34.1,26.6,34.6,26,35.9,24.4L35.9,24.4z"/>
	<path class="st2" d="M29.9,27.5c-0.7,0.3-1.4,1.3-1.8,2.7c-0.2,0.5-0.3,1.3-0.5,1.8c-0.2,0.7-0.3,1.5-0.5,2.1
		c-0.2,1-0.5,1.8-0.7,2.5c-0.1,0.4,0.3-0.9,1.5-2.3c0.4-0.5,1.1-1,1.7-1.5c0.4-0.3,0.9-0.5,1.2-0.8c0.5-0.6,1.4-1.3,1.9-1.8
		c0.4-0.5,0.4-0.9,0.4-0.7c0,0.4,0,1.2-0.3,1.9c-0.2,0.6-0.6,1.1-0.8,1.4c-0.6,0.9-1,1.3-1.7,1.9c-1.2,1-2.2,1.9-2.5,2.1
		c-0.8,0.6-1.5,1.5-1.9,2.1c-0.2,0.3-0.3,0.6-0.3,0.4c0-0.9-0.2-2.3-0.2-4.7c0-1.4,0.2-2.8,0.7-3.9c0.3-0.6,0.6-1,1.2-1.6
		C28.1,28.2,29,27.5,29.9,27.5L29.9,27.5z"/>
	<path class="st2" d="M24.9,31.8c-0.1,0.3-0.4,1-0.5,1.9c-0.1,0.8-0.1,1.7-0.1,2.4c0,1.1,0.3,2.2,0.4,3.3c0.1,1.6,0,3-0.1,4.2
		c0,0.1,0.2-1.4,0.9-2.7c0.4-0.8,0.9-1.5,1.5-2.1c1.2-1.1,2.3-2.4,3.1-3c0,0-0.2,1.7-1,3.4c-0.7,1.5-2,2.9-2.1,3
		c-0.3,0.3-0.6,0.9-1,1.5c-0.4,0.6-0.8,1.3-1,1.9c-0.4,0.9-0.5,1.6-0.5,1.6c-0.4-1-0.4-1.9-0.7-2.8c-0.3-1.1-0.9-2.1-1.2-3.4
		c-0.1-0.8-0.3-1.6-0.3-2.5c0-1,0.2-2.3,0.5-3.1C23,34.9,24.3,32.1,24.9,31.8L24.9,31.8z"/>
	<path class="st2" d="M28.3,41.6c0,0.5,0.1,1,0.1,1.5c-0.1,2.3-0.7,4.1-1.2,5.8c-0.4,1.3-1.1,2.6-1.1,4.4c0,1.6,0.2,2.7,0,2.4
		c-0.1-0.2-0.9-1.4-1.7-2.4c-1.4-1.7-2.4-2.8-3.1-5.1c-0.5-1.7-0.6-3.5-0.5-5.2c0.1-1.1,0.5-2.1,0.7-2.9c0.1-0.3-0.2,0.8,0.1,2.2
		c0.1,0.6,0.5,1.3,0.7,2.1c0.3,1,1,1.9,1.4,2.9c0.4,1.1,0.6,2.4,0.8,3.2c0.4,1.3,0.6,2.1,0.6,2c0-0.7-0.2-1.4-0.3-1.9
		c-0.1-1.2,0.1-2.3,0.8-3.9c0.4-0.9,1-1.5,1.4-2.4C27.6,43.5,28.3,42.7,28.3,41.6L28.3,41.6z"/>
	<path class="st2" d="M20.9,49.8c0.3,0.8,0.6,2,1.5,3.2c1.1,1.4,3,2.9,4.1,4.3c0.5,0.7,0.9,1.4,1.2,1.9c0.4,0.5,0.7,0.8,0.9,1
		c0.3,0.4-1.2-1.6-1.3-3.9c-0.1-1.8,0.6-4,0.6-4.8c0.1-1.5,0.2-2.7,0.3-2.2c0.1,0.2,0.5,1.3,0.8,2.8c0.3,1.6,0.5,3.7,0.5,4.3
		c0,1.5,0.2,3.1,0.6,4.5c0.2,0.8,0.6,1.6,1,2.2c0.3,0.5-5.6-3.3-7-4.8c-1.5-1.7-2.8-3.4-3.2-5.7C20.7,51.7,20.9,50.8,20.9,49.8
		L20.9,49.8z"/>
	<path class="st2" d="M30.2,55.6c0.6,0.6,0.9,1.2,1.3,1.7c0.6,0.8,1.1,1.6,1.6,2.4c0.6,1.4,1.1,3,1.7,4.6c0.3,0.7,0.8,1.9,1.3,2.6
		c0.7,0.9,1.3,1.5,1.3,1.5c0,0-0.3-0.2-1.2-0.4c-2.2-0.4-3.7-0.6-5.1-1c-1.7-0.5-3.2-1.5-5.3-3.5c-1.9-1.8-2.9-5.3-2.8-5.2
		c0.3,0.2,0.9,1.6,2.8,3.1c0.7,0.5,1.7,0.9,2.6,1.3c1.3,0.6,2.3,1.2,3.3,1.8c0.6,0.4,1.2,0.9,1.9,1.4c0.7,0.5,1.2,0.7,1.3,0.7
		c0.4,0.5-1.2-0.8-2.1-2.4c-0.4-0.6-0.8-1.3-1.1-2.1c-0.4-1.3-0.4-2.8-0.7-4.2C30.7,57.3,30.4,56.4,30.2,55.6L30.2,55.6z"/>
	<path class="st2" d="M34.9,62.4c0.9,0.7,2.1,1.7,3.5,3c0.7,0.6,1.2,1.3,1.9,2c0.6,0.6,1.4,1.1,2,1.5c1.1,0.8,2.1,0.9,3.1,1.1
		c0.2,0-0.3,0.1-1.2,0.4c-0.9,0.3-2.2,0.7-4,1c-1.2,0.2-2.5,0.4-3.7,0.4c-2.2-0.1-4.5-0.7-6.2-2.1c-1.4-1.1-2-2.2-2.4-2.7
		c0,0,1.8,1.4,4.3,2c1.4,0.3,2.9,0.3,4.6,0.4c0.5,0.1,1.2,0,1.8,0.1c1.1,0.2,2,0.4,2.9,0.4c0,0-2.1-0.5-3.5-1.8
		C36.2,66.2,35.4,63.5,34.9,62.4L34.9,62.4z"/>
	<path class="st2" d="M33.4,72c0.6,0.6,1.1,1.1,1.7,1.5c4.8,3.3,8.7,1.4,11.5-0.5c1.2-0.8,1.7-1.4,2.7-1.8c0.4-0.2,0.8-0.3,1.5-0.4
		c0.9-0.1,2.4,0.3,3.4,0.8c0.2,0.1,1.8,1,3.3,2.2c1.4,1.1,2.8,2.6,3.5,3.4c0.1,0.1,1.5-1.1,1.4-1.1c-1-0.8-1.9-1.7-2.9-2.5
		c-0.8-0.6-1.8-1.2-2.6-1.7c-1-0.6-1.9-0.9-2.8-1.2c-0.8-0.3-1.7-0.5-2.7-0.6c-1.6-0.1-3.2-0.3-4.8,0.4l-6,2.5
		c-1.1-0.2-2.3,0.5-3.4,0.3C35.9,73,34.7,72.7,33.4,72L33.4,72z"/>
	<path class="st2" d="M71.1,24.4c0.6,0,1.3,0.5,2,0.8c1.1,0.6,2.3,1.2,3.3,2.2c1.4,1.4,1.9,4,2.3,5.3c0.1,0.2-0.6-0.3-1.5-1.2
		c-0.8-0.8-1.9-1.8-2.8-3C73,26.6,72.5,26,71.1,24.4L71.1,24.4z"/>
	<path class="st2" d="M77.1,27.5c0.7,0.3,1.4,1.3,1.8,2.7c0.2,0.5,0.3,1.3,0.5,1.8c0.2,0.7,0.3,1.5,0.5,2.1c0.2,1,0.5,1.8,0.7,2.5
		c0.1,0.4-0.3-0.9-1.5-2.3c-0.4-0.5-1.1-1-1.7-1.5c-0.4-0.3-0.9-0.5-1.2-0.8c-0.5-0.6-1.4-1.3-1.9-1.8C74,29.7,74,29.2,74,29.4
		c0,0.4,0,1.2,0.3,1.9c0.2,0.6,0.6,1.1,0.8,1.4c0.6,0.9,1,1.3,1.7,1.9c1.2,1,2.2,1.9,2.5,2.1c0.8,0.6,1.5,1.5,1.9,2.1
		c0.2,0.3,0.3,0.6,0.3,0.4c0-0.9,0.2-2.3,0.2-4.7c0-1.4-0.2-2.8-0.7-3.9c-0.3-0.6-0.7-1-1.2-1.6C79,28.2,78.1,27.5,77.1,27.5
		L77.1,27.5z"/>
	<path class="st2" d="M82.2,31.8c0.1,0.3,0.4,1,0.5,1.9c0.1,0.8,0.1,1.7,0.1,2.4c0,1.1-0.3,2.2-0.4,3.3c-0.1,1.6,0,3,0.1,4.2
		c0,0.1-0.2-1.4-0.9-2.7c-0.4-0.8-0.9-1.5-1.5-2.1c-1.2-1.1-2.3-2.4-3.1-3c0,0,0.2,1.7,1,3.4c0.7,1.5,2,2.9,2.1,3
		c0.3,0.3,0.6,0.9,1,1.5c0.4,0.6,0.8,1.3,1,1.9c0.4,0.9,0.5,1.6,0.5,1.6c0.4-1,0.4-1.9,0.7-2.8c0.3-1.1,0.9-2.1,1.2-3.4
		c0.1-0.8,0.3-1.6,0.3-2.5c0-1-0.2-2.3-0.5-3.1C84,34.9,82.7,32.1,82.2,31.8L82.2,31.8z"/>
	<path class="st2" d="M78.7,41.6c0,0.5-0.1,1-0.1,1.5c0.1,2.3,0.7,4.1,1.2,5.8c0.4,1.3,1.1,2.6,1.1,4.4c0,1.6-0.2,2.7,0,2.4
		c0.1-0.2,0.9-1.4,1.7-2.4c1.4-1.7,2.4-2.8,3.1-5.1c0.5-1.7,0.6-3.5,0.5-5.2C86,42,85.7,41,85.4,40.2c-0.1-0.3,0.2,0.8-0.1,2.2
		c-0.1,0.6-0.5,1.3-0.7,2.1c-0.3,1-1,1.9-1.4,2.9c-0.4,1.1-0.6,2.4-0.8,3.2c-0.4,1.3-0.6,2.1-0.6,2c0-0.7,0.2-1.4,0.3-1.9
		c0.1-1.2-0.1-2.3-0.8-3.9c-0.4-0.9-1-1.5-1.4-2.4C79.4,43.5,78.7,42.7,78.7,41.6L78.7,41.6z"/>
	<path class="st2" d="M86.2,49.8c-0.3,0.8-0.6,2-1.5,3.2c-1.1,1.4-3,2.9-4.1,4.3c-0.5,0.7-0.9,1.4-1.2,1.9c-0.4,0.5-0.7,0.8-0.9,1
		c-0.3,0.4,1.2-1.6,1.3-3.9c0.1-1.8-0.6-4-0.6-4.8c-0.1-1.5-0.2-2.7-0.3-2.2c-0.1,0.2-0.5,1.3-0.8,2.8c-0.3,1.6-0.5,3.7-0.5,4.3
		c0,1.5-0.2,3.1-0.6,4.5c-0.2,0.8-0.6,1.6-1,2.2c-0.3,0.5,5.6-3.3,7-4.8c1.5-1.7,2.8-3.4,3.2-5.7C86.3,51.7,86.1,50.8,86.2,49.8
		L86.2,49.8z"/>
	<path class="st2" d="M76.9,55.6c-0.6,0.6-0.9,1.2-1.3,1.7c-0.6,0.8-1.1,1.6-1.6,2.4c-0.6,1.4-1.1,3-1.7,4.6
		C72,65.1,71.5,66.3,71,67c-0.7,0.9-1.3,1.5-1.3,1.5c0,0,0.3-0.2,1.2-0.4c2.2-0.4,3.7-0.6,5.1-1c1.7-0.5,3.2-1.5,5.3-3.5
		c1.9-1.8,2.9-5.3,2.8-5.2c-0.3,0.2-0.9,1.6-2.8,3.1c-0.7,0.5-1.7,0.9-2.6,1.3c-1.3,0.6-2.3,1.2-3.3,1.8c-0.6,0.4-1.2,0.9-1.9,1.4
		c-0.7,0.5-1.2,0.7-1.3,0.7c-0.4,0.5,1.2-0.8,2.1-2.4c0.4-0.6,0.8-1.3,1.1-2.1c0.4-1.3,0.4-2.8,0.7-4.2
		C76.3,57.3,76.6,56.4,76.9,55.6L76.9,55.6z"/>
	<path class="st2" d="M72.1,62.4c-0.9,0.7-2.1,1.7-3.5,3c-0.7,0.6-1.2,1.3-1.9,2c-0.6,0.6-1.4,1.1-2,1.5c-1.1,0.8-2.1,0.9-3.1,1.1
		c-0.2,0,0.3,0.1,1.2,0.4c0.9,0.3,2.2,0.7,4,1c1.2,0.2,2.5,0.4,3.7,0.4c2.2-0.1,4.5-0.7,6.2-2.1c1.4-1.1,2-2.2,2.4-2.7
		c0,0-1.8,1.4-4.3,2c-1.4,0.3-2.9,0.3-4.6,0.4c-0.5,0.1-1.2,0-1.8,0.1c-1.1,0.2-2,0.4-2.9,0.4c0,0,2.1-0.5,3.5-1.8
		C70.8,66.2,71.6,63.5,72.1,62.4L72.1,62.4z"/>
	<path class="st2" d="M73.6,72c-0.6,0.6-1.1,1.1-1.7,1.5c-4.8,3.3-8.7,1.4-11.5-0.5c-1.2-0.8-1.7-1.4-2.7-1.8
		c-0.4-0.2-0.8-0.3-1.5-0.4c-0.9-0.1-2.4,0.3-3.4,0.8c-0.2,0.1-1.8,1-3.3,2.2c-1.4,1.1-2.8,2.6-3.5,3.4c-0.1,0.1-1.5-1.1-1.4-1.1
		c1-0.8,1.9-1.7,2.9-2.5c0.8-0.6,1.8-1.2,2.6-1.7c1-0.6,1.9-0.9,2.8-1.2c0.8-0.3,1.7-0.5,2.7-0.6c1.6-0.1,3.2-0.3,4.8,0.4l6,2.5
		c1.1-0.2,2.3,0.5,3.4,0.3C71.1,73,72.4,72.7,73.6,72L73.6,72z"/>
	<path class="st1" d="M53.4,22.5c12.6,0,22.8,10.2,22.8,22.8c0,12.6-10.2,22.8-22.8,22.8c-12.6,0-22.8-10.2-22.8-22.8
		C30.6,32.8,40.9,22.5,53.4,22.5 M53.4,27.1c10,0,18.2,8.2,18.2,18.2c0,10-8.2,18.2-18.2,18.2s-18.2-8.2-18.2-18.2
		C35.2,35.3,43.4,27.1,53.4,27.1 M53.4,32.3c7.2,0,13.1,5.9,13.1,13c0,7.2-5.9,13-13.1,13c-7.2,0-13.1-5.9-13.1-13
		C40.4,38.2,46.2,32.3,53.4,32.3 M53.4,36.2c5,0,9.1,4.1,9.1,9.1c0,5-4.1,9.1-9.1,9.1c-5,0-9.1-4.1-9.1-9.1
		C44.3,40.3,48.4,36.2,53.4,36.2"/>
	<path class="st0" d="M53.4,40.7c2.5,0,4.6,2.1,4.6,4.6c0,2.5-2.1,4.6-4.6,4.6c-2.5,0-4.6-2.1-4.6-4.6
		C48.8,42.8,50.9,40.7,53.4,40.7L53.4,40.7z"/>
	<path class="st2" d="M56.2,26.2c0.4,0,1.3,0.1,1.6,0c0.7-0.3,1-0.6,0-0.9c-0.8-0.3-1.1-0.2-2-0.1c-0.5,0.1-0.7,0.5-1.2,0.5
		c-0.3,0-0.3,0.5-0.1,0.7C55.1,26.7,56.2,26.5,56.2,26.2L56.2,26.2z"/>
	<path class="st2" d="M64,27.7c-0.4,0-0.5,0.2-0.2,0.5c0.3,0.4,1.1,0.9,1.1,0.8c0-0.2-0.1-0.6,0-0.8c0.1-0.1-0.2-0.2-0.5-0.3
		C64.3,27.9,64.2,27.7,64,27.7L64,27.7z"/>
	<path class="st2" d="M63.4,28.5c-0.3,0-0.8,0.1-1.2,0.2c-0.2,0-0.4,0-0.4,0.1L61.7,31c0,0.3,0.5,0.4,0.6,0.6c0,0.1-0.1,0.2-0.1,0.3
		c0,0.2,0.2,0.5,0.2,0.8c0,0.3-0.1,0.5,0,0.7c0,0,0.5-0.4,0.8-0.5c0.2-0.1,0.3,0.2,0.4,0.2c0.2,0,0.6,0.7,0.6,0.9
		c0,0.3-0.2,0.5-0.1,0.7c0.1,0.5,0.4,0.7,1.1,0.8c0.3,0,0.4,0.4,0.6,0.6c0.3,0.4,0.7,0.8,1.3,0.7c0.3,0,0.8,0.7,1,1.1
		c0.2,0.4,0.3,0.7,0.7,0.8c0.2,0,0.4-0.2,0.7,0c0.8,0.3,1.1,0.4,0.9-0.5c-0.2-1.4-0.7-1.8-1-2.3c-0.5-0.9-0.9-1.4-2-2.5
		c-0.7-0.8-1.4-2.1-1.7-3c-0.1-0.2-0.3-0.3-0.5-0.5c-0.3-0.3-0.6-0.6-0.9-0.7c-0.1,0-0.1-0.2-0.3-0.3C63.8,28.7,63.7,28.6,63.4,28.5
		L63.4,28.5z"/>
	<path class="st2" d="M61.5,32.8c-0.1-0.1-0.7-0.8-0.6-0.7l0.5,1.6c0.1,0.3,0,1,0,1.1c0,0.1-0.1,0.2-0.1,0.3c0.5,0.8,0.6,0.4,1,0.9
		c0.1,0.1,0.3,0.2,0.4,0.2c0.2,0,0.6,0.7,0.6,0.9c0,0.1,0.7,0.8,1.1,1.5c0.2,0.4-0.3,0.8-0.2,1.1c0.1,0.3,0.6,0.5,0.7,0.5
		c0.3,0.3,0.8,0.7,1,1.2c0.1,0.3,0,0.7,0,1.1c-0.2,0.9-1.3,1.6-0.7,1.6c0.6,0,1.4-0.7,1.7-1.7c0.1-0.5,0-1,0-1.6
		c0-0.1,0.2-0.5,0.2-0.6c0-0.3-0.2-0.8-0.4-1c-0.1-0.1-0.3-0.1-0.4-0.3c-0.1-0.2,0.3-0.5,0.3-0.6c-0.1-0.2-0.4,0-0.5-0.3
		c0-0.1,0.3-0.3,0.3-0.5c0-0.1-0.3-0.1-0.4-0.2c-0.1-0.1-0.6,0.3-0.7,0.3c-0.2-0.1-0.1-0.5-0.3-0.6c-0.6-0.5-1.1-1.3-1.4-1.9
		C63.3,35,63,34.2,62.8,34c-0.1-0.1-0.1-0.3-0.1-0.4c-0.3-0.3-0.5-0.1-0.7-0.3C61.9,33.2,61.7,33,61.5,32.8L61.5,32.8z"/>
	<path class="st2" d="M55.6,60.2c0-0.2,0-0.4-0.2-0.4c-0.2-0.1-0.6,0-0.9,0c-0.9-0.2-1.9-0.3-2.2-0.6l-1.1-1.2
		c-0.5-0.5-1.2-1-1.2-1.7c0-0.3,0-0.2,0.2-0.6c0.1-0.2,0.1-0.4,0.2-0.6c0.2-0.3,0.4-0.2,0.6-0.4c0.4-0.4,1-1.3,1.4-1l0.3,0.3l0.5,0
		l0.5-0.3l0.8,0c0.3,0,1,0.7,1.4,0.6c0.4-0.1,0.5-0.4,0.8-0.6c0.3-0.3,0.9-0.5,1.2-0.4c0.3,0,0.6,0.4,0.9,0.5
		c0.5,0.2,0.9,0.1,1.2,0.4c0.8,0.5,1.4,1.2,2.3,1.4c0.3,0.1,0,0.5,0,0.8c0,0.2,0.2,0.4,0.4,0.4c0.2,0,0.4,0.1,0.5,0.2
		c0.2,0.1,0.3,0.3,0.3,0.6c0,0.4-0.5,0.4-0.7,1.1c-0.1,0.2,0.3,0.4,0.3,0.7c0,0.5-0.4,1.3-0.5,1.5c-0.3,0.7-0.8,1.2-1.3,1.8
		c-0.4,0.6-1,1.1-1.6,1.4c-0.4,0.2-0.8,0.3-1.1,0.1c-0.6-0.4-1.1-1.2-1.7-1.6c-0.4-0.2-0.7-0.5-1-0.8c-0.3-0.2-1-0.6-0.7-1.2
		L55.6,60.2L55.6,60.2z"/>
	<path class="st2" d="M65.7,55.4c0.1,0.2,0.2,0.5,0.3,0.7c0.2,0.5,0.5,0.9,0,1c-0.4,0.1-0.4,0.7-0.7,0.7c-0.3,0-0.3-0.2-0.4-0.3
		c-0.3-0.3-0.2-0.8,0-1.6c0-0.2,0.1-0.6,0.2-0.9C65.1,54.9,65.2,54.7,65.7,55.4L65.7,55.4z"/>
	<path class="st2" d="M37,50.3c0,0.1-0.8-0.1-1.6-0.2c-0.1,0-0.2-0.5-0.3-0.5c-0.4,0.1-0.3,0.3-0.7,0.5c-0.4,0.2-0.9-0.3-1.1,0.1
		c-0.2,0.3-0.5,0.8-0.4,1.4c0.1,0.6,0,1,0.5,1.5c0.3,0.3,0.2,0,0.7,0.3c0.1,0.1,0.2,0.3,0.3,0.4c0.2,0.1,0.4-0.2,0.6,0
		c0.2,0.1,0.3,0.3,0.5,0.4c0.3,0.2,0.6,0.3,1,0.5c0.2,0.1-0.1,0.3,0.1,0.5c0.3,0.2,0.5,0.4,0.8,0.6c0.1,0.1,0.2-0.2,0.3-0.2
		c0.2,0.1,0.1,0.4,0.4,0.5c0.2,0.1,0.2,0.4,0.4,0.4c0.2,0.1,1.3,1.2,1.5,1.3c0.8,0.3,1-0.2,1.6-0.3c0.3-0.1,0.5,0.5,0.9,0.5
		c0.4,0,0.9-0.4,1.2-0.4c0.2,0,1.4-0.1,1.5-0.1c0.4-0.3,0.1-0.1,0-0.9c-0.1-1-1.5-1-2-2.4c-0.1-0.3,0.7-0.5,0.6-0.9
		c-0.2-0.4-0.4-0.8-0.6-1.2c-0.2-0.4,0.1-1.2-0.1-1.5c-0.4-0.7-0.1-2-0.8-2.2c-0.3-0.1-0.5-1.5-0.8-1.5c-0.2-0.1-0.1,1.3-0.4,1.3
		c-0.6,0-1.3-1.3-1.9-1.2c-0.5,0-1.2,0.5-1.5,1.1C37.3,48.6,37.2,49.9,37,50.3L37,50.3z"/>
	<path class="st2" d="M41.4,47c0-0.4,0.7-0.4,1-0.3c0.2,0.1,0-0.3,0.1-0.5c0-0.4,0.3-1.8,0.6-2c0.3-0.1,0.8,0,1,0.1
		c0.5,0.3,0,1.4,0.1,2c0.1,0.6-0.9,0.2-0.5,0.4c0.2,0.1-0.2-0.5-0.5-0.3c-0.1,0.1,0,0.3,0,0.5c0,0.2-0.1,0.4,0.1,0.5
		c0.1,0-0.8,0.1-0.7,0.1c0.3,0.1,0.1,0.6,0.6,0.7c0.2,0,0.2-0.4,0.3-0.6c0.1-0.3-0.1-0.4,0.1-0.4c0.2,0,0,0,0.3,0
		c0.1,0,0.4,0,0.6,0.1c0.6,0.1,1.2,0.1,1.7,0.3c0.2,0.1,0.1,0.2,0.1,0.3c0.1,0.1,0.3,0.2,0.5,0.1c0.2-0.1,0.1,0.2,0.2,0.6
		c0,0.1,0.1,0.4,0.5,0.3c0.1,0-0.3-0.4,0.1-0.5c0.1,0,0.1,1,0.5,1c0.6,0,0.6-0.5,0.6-0.8c0-0.3,0.5,0.2,0.8,0.1
		c0.5-0.2,0.4-0.5,0.4-1.2c0-0.2,0.3,0.2,0.4,0.1c0.1-0.2,0.1-0.5,0.3-0.8c0.1-0.2,0.4-0.4,0.4-0.6c0-0.3-0.5-0.3-0.7-0.5
		c-0.2-0.2,0-0.4,0-0.6c0-0.4,0.1-0.8,0.4-1c0.4-0.3,0.9-0.9,1.2-1c0.3,0,0.5,0.1,0.7-0.3c0.2-0.4-0.1-0.6,0-1.2
		c0-0.4,0.2,0.5,0.5,0.8c0.3,0.5,0.7,0.5,0.8,0.4c0,0,0.2-0.3,0.4-0.2c0.3,0.1,0.5,0.8,0.9,1.1c0.1,0.1,0.2,0.4,0.2,0.7
		c0,0.1-0.5,0.5-0.4,0.6c0,0.2,0.2,0.2,0.4,0.3c0.1,0,0.3,0.3,0.4,0.6c0.1,0.4,0.1,1,0.2,0.8c0.1-0.1,0.3,0.7-0.1,0.9
		c-0.3,0.2-1.1,0.3-1.4,0.4c-0.8,0.5-0.5,0.9-0.4,0.9c0.1,0-0.5,0.3-0.8,0.3c-0.4,0.1-1.6-0.2-1.4-0.1c0.3,0.1,1,0.9,1,1.7
		c0,0.6-0.2,1.2,0.3,1.3c0.2,0.1,0.7,0,1.2-0.1c1-0.2,2.3-0.5,2.4-0.7c0.1-0.2,0.4-0.3,0.6-0.3c0.3-0.1,0.4-0.2,0.4,0.1
		c0,0.2-0.3,0.2-0.4,0.3c-0.2,0.1-0.5,0-1.7,0.4c-0.4,0.1-1.1,0.2-1.8,0.3c-0.6,0.1-1.2,0.2-1.6,0.3c-0.2,0.1,0,0.2-0.1,0.3
		c-0.5,0.2-0.2,0.8-0.2,0.8c-0.1,0.1-0.1,0.6,0.6,0.3c0.5-0.2,1.6-1.3,2-1.3c0.3-0.1,0.3,0.3,0.4,0.3c0.2,0.1,0.3,0.3,0.6,0.3
		c0.1,0,0.1-0.4,0.2-0.4c0.2,0,0.5,0.3,0.7,0.3c0.1,0,0.1-0.3,0.2-0.4c0.4-0.1,0.7-0.2,0.9-0.4c0.2-0.2,0.6,0,0.7,0.1
		c0.1,0.2-0.6,0.7-0.4,1c0.2,0.2,0.6,0,1.1,0c0.5,0,1,0.3,1.4,0.3c0.6,0,1,0.4,1.3,0.2c0.1-0.1,0.4-1.4,0.5-1.6
		c0.4-0.5,0.4-1.6-0.3-1.8c-0.3-0.1-0.6,0.7-1.1,1c-0.3,0.1-0.7,0-1-0.1c-0.2,0,0.3,0,0.5-0.1c0.3-0.1,0.5-0.2,0.5-0.2
		c0.1,0,0.8-0.4,1.2-0.9c0.3-0.3,0.5-0.7,0.6-0.7c0.2-0.1,0.4,0.1,0.5,0.1c0.1,0,0.2-0.3,0.3-0.3c2.3-0.1,3.4-0.1,4.1-0.4
		c0.8-0.4-0.2-1-0.8-1.1c-0.2,0-0.7,0.7-0.6,0.7c0.2-0.1-0.2-0.6-0.8-1.1c-0.2-0.3-0.4-0.6-0.7-1c-0.1-0.1-0.2-0.1-0.3-0.2
		c-0.1-0.5,0.8-0.9,0.7-1.6c-0.1-0.5-0.4-0.3-0.4-1c0-0.7-0.1-0.8,0.3-0.9c0.5-0.2,0.3-0.6,0.5-0.8c0.1-0.1-0.4-0.5-1-0.7
		c-0.2-0.1-0.5,0.3-0.7,0.3c-0.2,0-0.3-0.3-0.3-0.4c0-0.3,0-0.7-0.4-0.9c-0.1-0.1-0.3-0.4-0.6-0.4c-0.5-0.1-1.1,0.1-1.8-0.1
		c-0.8-0.2-1.7-0.8-2-0.9c-0.1,0-0.7,0.5-0.7,0.9c0,0.3,0.6,0.3,0.6,0.3c-0.2-0.2-0.9,0.4-1.5,0.9c-0.4,0.4-0.8,0.9-0.9,0.8
		c-0.4-0.3-0.6-0.6-0.7-0.6c-0.3,0-0.7,0.2-0.6,0.1c0.3-0.3,0.8-0.5,1-0.7c0.3-0.2,0.3-0.4,0.4-0.5c0.3-0.1,0-0.5-0.1-0.6
		c-0.1-0.1,0.1-0.4-0.1-0.3c-0.4,0.1-1.1,0.8-1.2,0.8c-0.8-0.3-2.2-0.2-2.7-0.1c-0.3,0.1-0.3-0.4-0.5-0.4c-0.9,0.3-0.2,0.7-0.7,1.2
		c-0.1,0.1-0.5,0.2-0.8,0.3c-0.1,0-0.3-0.1-0.3-0.1c-0.3,0.1-0.3-0.3-0.6-0.2c-0.3,0.1-0.1,0.3-0.3,0.3c-0.3-0.1-0.1-0.4-0.1-0.6
		c0-0.1-0.2-0.2-0.4-0.3c-0.7-0.2-0.5-0.2-1.3-0.5C47,39,46.6,38.9,46.4,39c-0.3,0.1-0.5,0.6-0.8,0.8c-0.3,0.2-0.5,0.1-0.7,0.3
		c-0.2,0.2-0.3,0.5-0.5,0.7c-0.5,0.4-0.8,0-0.9,0.6c0,0.1-0.1,0.3-0.3,0.4c-0.2,0.1-0.3-0.1-0.5,0.1c-0.2,0.1-0.3,0.4-0.3,0.5
		c-0.4,0.3-0.4,1.2-0.5,1.8c-0.1,0.6-0.4,1.2-0.4,1.6c0,0.1-0.4,0.5-0.4,0.8c-0.1,0.4-0.1,0.7,0,1c0.1,0.3,0.1,0.4,0.2,0.3
		C41.4,47.7,41.4,47.2,41.4,47L41.4,47z"/>
	<path class="st2" d="M51.3,46.4c0-0.2-0.1-0.5,0.1-0.6c0.4-0.3,1.2-0.2,1.4-0.1c0.2,0.1,0.5,0.4,0.4,0.7c0,0.3-0.3,0.6-0.4,0.9
		c-0.2,0.3-0.1,0.7-0.4,0.9c-0.2,0.1-0.9,0-1.1,0c-0.1,0,0.2,0.3,0.2,0.4c0.5,1.2-1.6-0.3-1.3-1.2c0-0.1,0.2,0,0.4-0.1
		C50.9,47.1,51.2,46.7,51.3,46.4L51.3,46.4z"/>
	<path class="st2" d="M61.8,54.1c0.9-1.2,0.5-1.2,0.9-1.3c0.1,0,0.1,0.1,0.2,0.4c0,0.1,0,0.4,0.1,0.5c0.1,0.1,0.3,0,0.5,0.1
		c0.2,0.1,0.3,0.3,0.6,0.3c0.1,0-0.6,0.3-0.7,0.6c-0.1,0.2,0.3,0.4-0.5,0.3C62.1,54.8,62.1,54,61.8,54.1L61.8,54.1z"/>
	<path class="st0" d="M48.7,45c-0.3,0.2-0.3,0.2-0.3,0.6c0,0.2-0.4,0.2-0.4,0.4c0,0.1-0.2,0.4-0.1,0.3c0.2-0.3,0.6-0.2,0.7-0.2
		c0.1,0.1,0.2,0,0.3,0c0.2,0,0.6,0.2,0.6-0.1c0-0.2,0.5-0.1,0.5,0c0,0.2,0.2,0.4,0.3,0.2c0.1-0.1,0.2-0.2,0.1-0.3
		c0-0.1-0.4-0.1-0.4-0.1c-0.3,0.1-0.2-0.3-0.3-0.5c-0.1-0.3-0.4,0-0.6-0.2C48.9,44.9,49,44.9,48.7,45C48.7,45,48.7,45,48.7,45
		L48.7,45z"/>
	<polygon class="st3" points="10,97.7 52.2,97.7 52.2,139.7 10,139.7 10,97.7 	"/>
	<polygon class="st3" points="10,142.3 52.2,142.3 52.2,184.3 10,184.3 10,142.3 	"/>
	<polygon class="st3" points="54.6,97.7 96.8,97.7 96.8,139.7 54.6,139.7 54.6,97.7 	"/>
	<polygon class="st3" points="54.6,142.3 96.8,142.3 96.8,184.3 54.6,184.3 54.6,142.3 	"/>
	<polygon class="st4" points="85.5,129.9 85.2,104 88.1,104 88.1,133.4 84.6,133.4 68.5,107.5 68.8,133.4 65.9,133.4 65.9,104 
		69.4,104 85.5,129.9 	"/>
	<path class="st4" d="M23.5,151.4v23.8h6c3.7,0,6.6-1,8.6-3.1c2-2.1,3-5.1,3-8.9c0-1.9-0.3-3.7-1-5.3c-0.7-1.6-1.7-3-3-4.1
		c-1-0.8-2-1.4-3.2-1.8c-1.2-0.4-2.9-0.5-5.2-0.5H23.5L23.5,151.4z M20.6,148.6H29c2.3,0,4.2,0.2,5.8,0.7c1.6,0.5,3,1.2,4.2,2.2
		c1.7,1.4,3,3.1,3.9,5.2c0.9,2,1.4,4.2,1.4,6.6c0,2.6-0.5,5-1.5,7.1c-1,2.1-2.5,3.9-4.3,5.2c-1.2,0.9-2.6,1.5-4,1.9
		c-1.4,0.4-3.7,0.6-6.7,0.6h-7.1V148.6L20.6,148.6z"/>
	<path class="st4" d="M71.1,151.4v11.2h4.3c2.4,0,4.1-0.4,5.3-1.4c1.1-0.9,1.7-2.3,1.7-4.2c0-2-0.6-3.4-1.7-4.3
		c-1.1-0.9-3-1.4-5.5-1.4H71.1L71.1,151.4z M68.3,148.6h6.2c1.8,0,3.2,0.1,4.3,0.3c1.1,0.2,2,0.5,2.7,0.9c1.3,0.8,2.3,1.8,3,3
		c0.7,1.2,1,2.6,1,4.2c0,1.5-0.3,2.8-0.9,4.1c-0.6,1.3-1.5,2.3-2.6,3c-0.8,0.5-1.7,0.9-2.8,1.1c-1.1,0.2-2.5,0.4-4.2,0.4h-3.9V178
		h-2.9V148.6L68.3,148.6z"/>
	<path class="st4" d="M22.8,103.7h2.9v18.6c0,1.4,0.1,2.5,0.2,3.2c0.1,0.7,0.3,1.3,0.6,1.9c0.5,1.1,1.3,2,2.3,2.6c1,0.6,2.2,1,3.4,1
		c2.2,0,3.9-0.8,4.9-2.3c1.1-1.5,1.6-3.9,1.6-7v-18h2.8v18.7c0,3.8-0.8,6.7-2.3,8.5c-1.5,1.9-3.8,2.8-6.9,2.8
		c-3.3,0-5.7-0.9-7.3-2.7c-1.6-1.8-2.3-4.7-2.3-8.6V103.7L22.8,103.7z"/>
</g>
</svg>
