<?xml version="1.0" encoding="utf-8"?>
<!-- Generator: Adobe Illustrator 21.0.0, SVG Export Plug-In . SVG Version: 6.00 Build 0)  -->
<svg version="1.1" id="Layer_1" xmlns="http://www.w3.org/2000/svg" xmlns:xlink="http://www.w3.org/1999/xlink" x="0px" y="0px"
	 viewBox="0 0 455.2 212.8" style="enable-background:new 0 0 455.2 212.8;" xml:space="preserve">
<style type="text/css">
	.st0{fill:#F8991C;}
	.st1{fill:#559FD3;}
	.st2{fill:#FFFFFF;}
</style>
<path class="st0" d="M128.6,106.4c0,12.7-10.3,22.9-22.9,22.9c-12.7,0-23-10.3-23-22.9c0-12.7,10.3-22.9,23-22.9
	C118.4,83.5,128.6,93.8,128.6,106.4"/>
<path class="st0" d="M128.6,188.2c0,12.7-10.3,22.9-22.9,22.9c-12.7,0-23-10.3-23-22.9c0-12.7,10.3-22.9,23-22.9
	C118.4,165.2,128.6,175.5,128.6,188.2"/>
<path class="st0" d="M128.6,24.8c0,12.7-10.3,22.9-22.9,22.9c-12.7,0-23-10.3-23-22.9c0-12.7,10.3-23,23-23
	C118.4,1.8,128.6,12.1,128.6,24.8"/>
<path class="st0" d="M45.9,106.4c0,12.7-10.3,22.9-22.9,22.9c-12.7,0-23-10.3-23-22.9c0-12.7,10.3-22.9,23-22.9
	C35.6,83.5,45.9,93.8,45.9,106.4"/>
<path class="st0" d="M45.9,188.2c0,12.7-10.3,22.9-22.9,22.9c-12.7,0-23-10.3-23-22.9c0-12.7,10.3-22.9,23-22.9
	C35.7,165.2,45.9,175.5,45.9,188.2"/>
<path class="st0" d="M45.9,24.8c0,12.7-10.3,22.9-22.9,22.9c-12.7,0-23-10.3-23-22.9c0-12.7,10.3-23,23-23
	C35.7,1.8,45.9,12.1,45.9,24.8"/>
<path class="st0" d="M214.1,188.2c0,12.7-10.3,22.9-23,22.9c-12.7,0-22.9-10.3-22.9-22.9c0-12.7,10.3-22.9,22.9-22.9
	C203.8,165.2,214.1,175.5,214.1,188.2"/>
<path class="st0" d="M214.1,24.8c0,12.7-10.3,22.9-23,22.9c-12.7,0-22.9-10.3-22.9-22.9c0-12.7,10.3-23,22.9-23
	C203.8,1.8,214.1,12.1,214.1,24.8"/>
<path class="st1" d="M196.8,107.9c-0.4-0.2-0.6,0.1-0.6,0.1l-0.5,0.4c0,0-0.1,0.2,0,0.3c0.1,0.1,0.4-0.1,0.4-0.1l0.5-0.3l0.4-0.1
	C196.9,108.2,197.2,108,196.8,107.9 M209.8,101.4c0,0.9-0.2,1.7-0.3,2.6c0.1,0.3,0.6,0.6,0.7,0.9c0,0.3-0.5,0.7-0.7,0.4
	c-0.1-0.1-0.2-0.2-0.3-0.2c-0.8,3-2.3,5.8-4.4,8l1.5,1.5c0.1-0.2,0.1-0.3,0.1-0.5c-0.1-0.5,0.1-0.7,0.2-0.7c0.1,0,0.8,0,1,0.7
	c0.1,0.2,0.1,0,0.2,0.4c-0.1,0.2,0.1,0.7,0.1,0.7s0.1,0.2,0.1,0.4c0,0.1,0,0.2-0.1,0.5c3.7-3.9,6-9,6.2-14.7H209.8z M204.2,119.3
	c0.9-0.6,1.7-1.3,2.5-2l-0.1-0.1c-0.2,0-0.3,0-0.4-0.1c-0.1-0.1-0.2-0.3-0.2-0.5l-2.3-2.3c-0.2,0.3-0.5,0.5-0.5,0.5l0,0.6
	c1.4,0.7,1.8,1.3,1.8,1.6c0,0.3-1,1.2-1,1.4c0,0.3,0.4,0.5,0.4,0.7C204.3,119.2,204.2,119.2,204.2,119.3 M192,119.4v3.9
	c1.2,0,2.3-0.2,3.4-0.4c-0.7-0.5-0.9-0.5-1.1-0.6c-0.2-0.2-0.4-0.5-0.7-1.1c-0.2-0.6,0.5-0.7,0.3-1.1c-0.2-0.5-1.6-0.3-1.6-0.3
	S192.6,120,192,119.4 M190.3,119c-4.4-0.2-8.4-1.8-11.5-4.5c0.2,0.2,0.3,0.4,0.5,0.5c0.9,0.8,1,1.2,0.9,1.6c-0.1,0.4-2,0.4-2,0.4
	l0,0c-0.7,0.3-1.7,0.5-2.1,0.5c-0.2,0-0.3-0.2-0.5-0.3l-0.2,0.2c3.9,3.5,9.1,5.7,14.8,5.9V119z M172.5,103c-0.1-0.5-0.1-1-0.2-1.6
	H168c0.1,2.1,0.4,4.2,1.1,6.1c0,0,0,0,0,0c0.2-0.1,0-0.2,0.1-0.4c0.1-0.2,0.3,0,0.3-0.2c0.1-0.2-0.1-0.2-0.1-0.4
	c0-0.2,0.2-0.2,0.2-0.4c0-0.2-0.1,0.1-0.2-0.3c0-0.4,0.2-0.8,0.2-0.8c0,0,0.2-0.3,0.3-0.7c0.2-0.4,0.9-0.6,1.2-0.9
	c0.1-0.1,0.2-0.5,0.7-0.6C172.2,102.8,172.3,102.9,172.5,103 M172.3,99.7c0.2-4.6,2.1-8.7,5-11.8l-3-3c-3.8,3.9-6.1,9.1-6.3,14.8
	H172.3z M178.5,86.8c3.1-2.8,7.2-4.6,11.8-4.7v-4.3c-5.7,0.2-10.9,2.4-14.8,5.9L178.5,86.8z M192,82.1c3.5,0.2,6.7,1.3,9.5,3.1
	c-0.1-0.2-0.3-0.5-0.3-0.6c-0.1-0.2,0.2-0.3,0.2-0.3c-0.5-0.7-0.6-1-0.4-1.1c0.2-0.1,0.7,0.3,0.9,0.7c0.3,0.4,0.6,0.9,0.8,0.9
	c0.2,0,0.7,0,0.8,0.4c0.1,0.4,0.3,0.5,0.4,1.1c0,0.1,0,0.2,0.1,0.3l1.3-1.3c-0.1-0.3-0.3-0.6-0.7-0.8l-0.9,0.3c0,0-0.3,0.2-0.4,0
	c-0.1-0.2-0.1-0.7-0.1-0.7s-0.3-0.2-0.3-0.4c0-0.2,0.2-0.8,0-1c-0.1-0.2-0.4-0.4-0.4-0.4s-0.1-0.7-0.3-1.1c-0.1-0.3-0.9-0.9-0.9-0.9
	v-0.1c-2.8-1.4-5.9-2.1-9.2-2.3V82.1z M205,88.1c0.1,0.1,0.2,0.2,0.3,0.4c0.3,0.4,0.7,0.8,1,1.2c0.1,0.2,0.3,0.4,0.4,0.6
	c0.1,0,0.3-0.2,0.4-0.3c0.3-0.2,0.5,0,0.5,0.3c0.1,0.4-0.5,0.3-0.3,0.7c0.1,0.1,0.6,0,0.7,0c0.1,0,0.2,0.3-0.1,0.5
	c-0.1,0.1-0.3,0.2-0.3,0.4c0.1,0.1,0.1,0.2,0.2,0.3c0.3,0.1,0.7-0.1,0.7,0.3c0,0.5,0.3,0.8,0.4,1.2c0,0.3-0.1,0.4-0.2,0.6
	c0.2,0.5,0.3,0.9,0.4,1.4c0.1-0.1,0.3-0.1,0.4-0.1v0.1c0,0,0.1,0.4,0,0.6c0,0.2-0.1,0.5-0.1,0.7c0,0.2,0.1,0.4,0.1,0.7
	c0.1,0.3,0.1,0.6,0.2,0.9h-0.1c0.1,0.4,0.1,0.7,0.1,1.1h4.4c-0.1-2.9-0.8-5.6-1.9-8.2c-0.1,0-0.1,0-0.2,0c0,0-0.3,0.3-0.6,0.3
	c-0.3,0-0.4-0.4-0.4-0.4s-1.2-1.6-1.4-1.7c0,0-0.2-0.2-0.7-0.3c-0.5,0-0.4-0.3-0.4-0.3s-0.6-0.3-1-0.4l-0.3-0.7c0,0,0-0.2,0-0.4
	c-0.1-0.1-0.9-0.1-0.9-0.1s-0.4-0.2-0.6-0.4l-0.7,0.7C205,88,205,88,205,88.1 M222,100.6c0,16.8-13.8,30.5-30.9,30.5
	c-17.1,0-30.9-13.6-30.9-30.5c0-16.8,13.8-30.5,30.9-30.5C208.2,70.1,222,83.7,222,100.6 M191.2,95.4L191.2,95.4
	c-0.5,0-0.8,0-1.2,0.1c0.1,0,0.2,0.1,0.1,0.2c-0.1,0.2,0.2,0.9,0.2,0.9c-0.4,0.8-1.9,1-1.9,1c-0.2,0.2-0.1,0.5-0.5,0.7
	c-0.3,0.2-0.5,0.3-0.6,0.5c-0.1,0.3-0.1,0.5-0.2,0.8c-0.1,0.3,0.1,0.4,0,0.6c-0.1,0.2-0.2,0.8-0.3,1c-0.1,0.2-0.4-0.1-0.5-0.1
	c-0.2-0.1-0.3-0.9-0.4-1c0,0-0.1,0-0.1,0c0,0.1,0,0.2,0,0.4c0,0.4,0,0.7,0.1,1c0.2-0.1,0.2-0.2,0.2-0.2c0.5,0,0.2,0.3,0.4,0.3
	c0.2,0,0.4-0.1,0.4-0.6c0-0.5,0.4-0.5,0.6-0.5c0.1,0,0,0.3,0.1,0.5c0.1,0.1,0.2,0,0.2,0.3c0,0.3-0.5,0.6-0.6,1.1
	c-0.1,0.5-0.2,0.5-0.4,0.6c-0.3,0-0.2-0.5-0.4-0.3c-0.1,0.2,0.3,0.7,0.3,0.7c0.3-0.2,0.4-0.5,0.5-0.7c0.1-0.2,0.3-0.2,0.5-0.3
	c0.2-0.1,0.3-0.9,0.2-1c0-0.2,0.3-0.1,1.4-0.2c1.2-0.1,1.1,0.3,1,0.6c-0.1,0.4,0.2-0.1,0.2,0.3c0,0.4-0.4,0.7-0.6,1
	c-0.1,0.3,0.2,0.4,0,0.5c-0.1,0.1-0.2,0.3-0.2,0.3c-0.6,0.7-0.7,0.3-1,0.4c-0.4,0.2-0.8,0.1-0.8,0.1c-0.1,0-0.1,0-0.2,0.1
	c0.9,0.6,2,1,3.1,1c0.3,0,0.5,0,0.8-0.1c0.1-0.6,0.3-1.5,0.8-1.8c0.5-0.3,1,0.1,1.3,0c0.3-0.1,0.3-0.4,0.4-0.5
	c0.1-0.1,0.3-0.6,0.1-1c-0.1-0.3-0.4-0.2-0.4-0.4c-0.1-0.2,0.4-0.2,0.2-0.5c-0.4-0.5-0.3-0.9-0.5-1c-0.1-0.1-0.2,0-0.4-0.2
	c-0.2-0.2,0.1-0.4,0.1-0.6c0-0.3,0.4-0.3,0.3-0.5c0-0.2-0.2,0-0.3-0.3c0-0.2,0.2-0.6,0.2-0.6s-0.6,0-0.7-0.2c-0.1-0.2-0.4-0.7-0.9-1
	c-0.4-0.2-1.1-0.1-1.1-0.1c-0.1-0.4-0.6-0.7-0.6-0.7c-0.4-0.5-0.2-0.5,0.1-0.7C190.7,95.3,191.1,95.6,191.2,95.4
	C191.2,95.4,191.2,95.4,191.2,95.4 M209.1,83.8c1,1,1.9,2.1,2.7,3.3c0.2,0.2,0.6,0.6,0.7,0.8c0,0.1,0,0.2,0.1,0.3
	c0.1,0.1,0.1,0.2,0.2,0.4c0,0,0.1,0.1,0.1,0.1c0.4,0.4,0.4,0.5,0.7,1c0.1,0.2,0.1,0.4,0.2,0.6c1.4,2.9,2.2,6.1,2.3,9.5h4.4
	c-0.2-7.4-3.2-14.1-8.1-19.1L209.1,83.8z M192.6,76.1c3.6,0.2,7.1,1.2,10.1,2.8l0.9-0.4c0,0-0.3-0.1,0.1,0c0.4,0.1,0.3,0,0.8,0.2
	c0.5,0.2,0.5,0,0.7,0.1c0.2,0.1,0.3,0.4,0.5,0.6c0.3,0.2,0.2,0,0.5,0.2c0.3,0.2,0.8,0.6,0.9,0.9c0.1,0.2,0.3-0.1,0.5,1
	c0,0,0.4,0.4,0.6,0.7l2.8-2.8c-5-4.6-11.7-7.5-19-7.7v3.6c0,0,0.1,0,0.2,0c0.3,0.2,0.5,0.2,0.4,0.5V76.1z M174.3,82.5
	c4.3-3.9,9.8-6.2,16-6.4v-4.4c-7.4,0.2-14.1,3.1-19.1,7.7L174.3,82.5z M166.3,99.7c0.2-6.2,2.8-11.8,6.8-16l-3.1-3.1
	c-4.9,5-7.9,11.7-8.1,19.1H166.3z M173.1,117.4c-0.5-0.6-1-1.1-1.5-1.7c-0.4-0.2-0.4-0.3-0.9-0.6c-0.5-0.4-0.2-0.8-0.4-0.9
	c-0.1,0-0.1,0.2-0.2,0.3c0,0.1-0.3,0.1-0.6,0c-0.3-0.1-0.5-0.5-0.5-0.5c-0.5-0.4-0.4-0.8-0.5-1c-0.1-0.1-0.4,0-0.6,0
	c-0.2-0.1-0.2-0.3-0.3-0.4c-0.2-0.1-0.4,0-0.4,0c-0.1-0.2-0.6-0.8-0.6-0.9c0,0,0,0.4-0.4,0.4c-0.4,0-0.9-0.8-1.1-0.9
	c-0.2-0.1-0.2,0.2-0.5,0c-0.2-0.2-0.5-1-0.5-1.1c0-0.1-0.2-0.4-0.3-0.6c-0.1-0.2,0-1.5,0.1-1.6c0.1-0.3,0.2,0,0.3-0.4
	c0.1-0.5,0.4-0.5,0.6-0.5c0.2,0,0.3,0.1,0.4,0.2c0.1,0.2,0.4,0,0.5,0c0.2-0.1,0-0.3,0-0.4c0-0.1,0.3-0.1,0.6-0.2
	c0.2-0.1,0.5-0.2,0.6,0l0,0.1c-0.4-1.7-0.7-3.4-0.7-5.1h-4.5c0.2,7.4,3.3,14.1,8.1,19.1L173.1,117.4z M190.3,125
	c-6.1-0.2-11.7-2.6-16-6.4l-3.1,3.1c5,4.6,11.7,7.5,19.1,7.7V125z M207.9,118.5c-1.4,1.3-2.9,2.4-4.5,3.3c0,0,0,0.1-0.1,0.1
	c-0.3,0.9-1,1.6-1.2,1.8c-0.2,0.3-0.3,0.1-0.6,0.4c-0.3,0.3-0.1,0.5-0.6,0.7c-0.4,0.1-0.7,0.3-0.7,0.3s-1.2,1.3-2.4-0.1
	c-0.2-0.1-0.6-0.2-0.9-0.5l-0.1-0.2c-1.6,0.4-3.2,0.6-4.9,0.6v4.4c7.3-0.2,14-3.1,19-7.7L207.9,118.5z M215.9,101.4
	c-0.2,6.2-2.8,11.7-6.8,15.9l3.1,3.1c4.8-5,7.9-11.7,8.1-19H215.9z M205.6,99.7h2.5c0-0.7-0.1-1.4-0.2-2c-0.1,0.2-0.2,0.4-0.4,0.6
	c-0.3,0.3-0.6,0.1-0.8,0.3c-0.3,0.1-0.1,0.4-0.1,0.6c0,0.2,0.2,0.1,0.1,0.4c-0.1,0.3-0.4,0.1-0.6,0.1
	C206,99.6,205.8,99.5,205.6,99.7 M200.6,92.3c0.2,0.2,0.4,0.5,0.6,0.7c0.1,0,0.2-0.1,0.5,0c0.5,0.1,1.3,0.2,1.7,0.3
	c0.5,0.1,0.6,1,0.9,1.1c0.3,0.1,0.2,0.2,0.2,0.5c0,0.3-0.2,0.2-0.2,0.4c0.1,0.2,0.2,0.4,0.4,0.2c0.2-0.2,0.5-0.5,1-0.4
	c0.8,0.1,0.5,0.6,0.9,0.7c0.3,0.1,0.2,0.2,0.3,0.3c0.1,0.2,0,0.4-0.2,0.4c-0.2,0.1-0.2,0.2-0.2,0.4c0,0.1-0.2,0.3-0.2,0.5
	c0,0.1-0.2,0.5,0,0.5c0.2,0,0.3,0.2,0.5,0c0.1-0.2,0.8-0.8,0.8-1.2v-0.1c-0.2-0.7-0.4-1.3-0.7-2c-0.1-0.1-0.2-0.3-0.3-0.4
	c-0.3-0.2-1.4-0.8-1.6-1.1c-0.2-0.3,0-0.3,0.2-0.5c0.1-0.1,0.3-0.5,0.2-0.8c-0.1-0.1-0.2-0.3-0.3-0.5c-0.2-0.3-0.6-0.8-1-1.4
	c-0.2-0.2-0.4-0.5-0.6-0.7L200.6,92.3z M192,88c2.8,0.2,5.4,1.3,7.4,3.1l3.1-3.1c-2.8-2.5-6.5-4.1-10.5-4.3V88z M182.8,91.1
	c2-1.8,4.6-2.9,7.5-3v-4.3c-4.1,0.2-7.7,1.8-10.6,4.2L182.8,91.1z M180.7,93.3c0.3-0.4,0.6-0.7,0.9-1.1l-3.1-3.1
	c-2.6,2.8-4.3,6.5-4.5,10.6h1.9c-0.1-0.1-0.2-0.4-0.2-0.6c0-0.2-0.1-1-0.1-1.1c0.1-0.1,0.2-0.3,0.3-0.4c0.1-0.2,0-0.4,0.1-0.5
	c0.1-0.1,0.2-0.3,0.4-0.5c0.1-0.2,0.1-0.6,0.5-0.8c0.4-0.2,0.5,0,0.8,0c0.3-0.1,0.3-0.4,0.3-0.4s-0.1-0.1,0.1-0.4
	c0.2-0.3,1.2-0.5,1.2-0.5s0-0.3,0.6-0.8C180.2,93.5,180.5,93.4,180.7,93.3 M178.4,99.7c0-0.2,0-0.4,0-0.6c-0.1-0.1-0.3-0.1-0.5-0.1
	c-0.5,0-0.9,0.3-0.9,0.7H178.4z M175.4,101.4H174c0,1.1,0.2,2.1,0.4,3.1c0.2-0.1,0.2-0.3,0.2-0.4c0-0.2,0.2-0.1,0.3-0.3
	c0.1-0.1,0.1-0.1,0-0.2c-0.1-0.1-0.3-0.2-0.3-0.5c-0.1-0.3,0.1-0.5,0.2-0.7c0.1-0.3,0-0.4,0.1-0.7
	C175.1,101.5,175,101.7,175.4,101.4 M181.6,108.9c-1.5-1.6-2.5-3.6-3-5.8c0,0-0.1-0.1-0.1-0.1c-0.2-0.3-0.5-0.2-0.5-0.2
	s-0.1,0.9-0.1,1c0,0-0.1,0.5-0.3,0.5c-0.2,0-0.3-0.3-0.3-0.3s-0.3,0-0.4-0.1c-0.1-0.1-0.4-0.4,0-0.7c0.3-0.3,0.3,0.2,0.5,0
	c0.2-0.3-0.3-1.5,0.1-1.5c0.3,0,0.6,0.5,0.7,0.6c0,0,0.2,0,0.3-0.1c0-0.3-0.1-0.6-0.1-0.9h-1.9c-0.1,0.2,0,0.9-0.2,1
	c-0.2,0.1-0.9-0.1-1,0.3c-0.1,0.6,0.2,0.3,0.2,0.8c0,0.4-0.2,0.2-0.1,0.6c0.1,0.4,0.8,0.6,0.9,1c0.1,0.5,0.3,0.7,0.4,0.9
	c0,0.1-0.3,0.4-0.1,0.7c0.2,0.3,0.4,0.9,0.4,1.1c0,0.2,0,0.8,0.2,1.7c0.2,0.9,0.2,0.3,0.5,0.9c0.1,0.3,0.2,0.6,0.2,0.9
	c0.2,0.2,0.4,0.4,0.5,0.6L181.6,108.9z M188.2,112.8c-2-0.5-3.8-1.4-5.4-2.7l-3.1,3.1c2.4,2.1,5.3,3.5,8.5,4
	c-0.5-0.3-0.8-0.5-0.9-0.5c0-0.1-0.2-0.4-0.7-1c-0.5-0.6-0.4-1-0.4-1c0.3-0.1,0.4-0.3,0.4-0.3s0.2-0.9,0.6-1.2
	C187.6,113,187.9,112.9,188.2,112.8 M198.1,111c-0.2,0.1-0.4,0.3-0.6,0.4c0,0,0,0,0.1,0c0.4,0.1,1.7,0.3,2.1,0.6
	c0.4,0.3,1.1,0.4,1.1,0.4c0.5-0.1,0.8-0.1,1-0.1l-0.6-0.6c-0.4-0.1-0.7-0.2-0.7-0.3c-0.6-0.3-0.4,0.1-0.9-0.1
	C199.2,111.2,198.5,111.1,198.1,111 M207.7,104.4c0.2-1,0.4-2,0.4-3h-2.6c0.2,0.2,0.4,0.3,0.5,0.4c0.3,0.3,0.2,0.6,0.2,0.8
	c0,0.3,0.3,0.2,0.7,0.6c0.4,0.4,0.4,0.8,0.6,1C207.6,104.4,207.6,104.4,207.7,104.4 M201.2,108.2c-0.1,0.1-0.2,0.2-0.3,0.4
	c0,0,0,0,0.1-0.1c0.3-0.1,0.4,0.1,0.6-0.1c0.2-0.3,0.2-0.5,0.3-0.7c0.1-0.2,0.6-0.2,0.9-0.2c0.3,0,0.3-0.1,0.4,0.4
	c0.2,0.5,0.1,0.9,0.1,0.9c0.1,0.1-0.3,0.5-0.3,1.3c0,0.4-0.2,0.1-0.2,0.7l-0.1,0.1l0.3,0.3c0,0,0.1-0.1,0.1-0.2
	c0.2-0.4,0.5-0.6,0.6-0.4c0.1,0.1,0.2,0.6,0.3,1.1c1.6-1.7,2.7-3.8,3.4-6.1l-0.1,0c-0.2,0-0.7,0.1-1.3,0.2c-0.5,0.1-1,0-1,0
	s-0.3-0.3-0.4-0.1c-0.1,0.2-0.2,0.7-0.7,0.6c-0.4-0.1-0.2-0.6-0.4-0.6c-0.1-0.1,0,0.2-0.1,0.4c-0.2,0.2-0.6,0.9-0.7,1
	c-0.1,0.1-0.9,0.2-1.1,0.4C201.5,107.7,201.4,108,201.2,108.2 M197.5,105.7l1.2,1.2c0.1-0.2-0.1-0.7-0.1-0.7l-0.6-0.3l-0.2-0.2
	l0.1-0.3l-0.2-0.1L197.5,105.7z M196.7,109.9c0.2-0.1,0.4-0.2,0.6-0.3c-0.2,0-0.4,0-0.5,0.2C196.8,109.8,196.7,109.9,196.7,109.9
	 M184,108.9c1.5,1.3,3.4,2.1,5.5,2.4c0,0.1,0,0.1,0,0.2c0,0,0.1,0.1,0.3,0.1c0.2,0,0.6,0,0.8-0.3c0.3-0.3,0.2-0.1,0.4-0.1
	c0,0,0.2-0.3,0.4-0.6c0.2-0.1,0.3-0.4,0.4-0.4l0,1.2c1.5-0.1,2.9-0.5,4.1-1.2c-0.2,0-0.5-0.4-0.6-0.4c-0.1,0,0.1,0.4,0.1,0.5
	c0,0.1-0.7,0.3-0.7,0.3c-0.2-0.4-0.5-0.4-0.6-0.4c-0.1,0.6-0.3,0.4-0.3,0.4c-0.6-0.8-0.8-0.3-1-0.6c-0.3-0.3-0.4-0.2-0.4-0.2
	c-0.2,0-0.4,0.2-0.6,0.3c-0.1,0-0.2,0.3-0.4,0.4c-0.2,0.3-0.4,0.6-0.4,0.6c-0.2,0-0.1-0.2-0.4,0.1c-0.3,0.3-0.6,0.3-0.8,0.3
	c-0.2,0-0.3-0.1-0.3-0.1c0-0.1,0-0.1,0-0.2c0-0.2,0-0.3,0-0.4c0-0.8,0.1-1,0.2-1.1c0.1-0.1,0.4-0.1,0.6-0.1v-1l0-0.1
	c0-0.1,0-0.1,0-0.2v-1.1c-1.3-0.1-2.5-0.6-3.4-1.3L184,108.9z M184.3,101.9c0-0.1,0-0.2,0-0.3c-0.1,0.1-0.5,0.1-0.5,0.3
	C183.8,101.9,184,101.9,184.3,101.9 M180.4,103.3c0.4,1.6,1.3,3.2,2.4,4.4l2.9-2.9c-0.1-0.2-0.2-0.3-0.4-0.5h0
	c-0.2,0.1-0.1,0.5-0.2,0.6c-0.1,0.1-0.3,0.3-0.4,0.5c-0.1,0.2-0.5,0.6-0.8,0.4c-0.2-0.2,0-1.3-0.4-1.3c-0.1,0-0.1,0.1,0,0.5
	c0.1,0.4-0.2,0.2-0.3,0.2c-0.2-0.1-0.3-0.2-0.6-0.5c-0.4-0.3-0.1-0.5-0.1-0.5s-0.3-0.3-0.4-0.2c-0.1,0,0,0.2-0.3,0.1
	c-0.2-0.1-0.2-0.5-0.2-0.5s-0.2,0-0.8-0.2C180.7,103.3,180.5,103.3,180.4,103.3 M190.3,89.7c-2.4,0.2-4.6,1.1-6.3,2.5l1.7,1.7
	c0.3,0,0.2,0.3,0.6,0.4c0.3,0.1,0.3-0.1,0.6-0.1c0.3,0,0.1,0.2,0.2,0.3c0.1,0.1,0.3-0.1,0.3-0.1c0.3-0.1,0.2,0.1,0.5,0
	c0.4-0.1,0.1-0.3,0.3-0.5c0.2-0.2,0.1-0.3,0.1-0.6c0-0.2,0.3-0.5,0.4-0.6c0.1-0.1,0.3-0.1,0.4,0c0.1,0.2-0.1,0.3-0.1,0.5
	c0.1,0.1,0.6-0.1,1.3-0.2V89.7z M197.9,92.1c-1.6-1.3-3.7-2.2-6-2.3v3.2c0.6,0.1,1.2,0.3,1.2,0.3l0.1,0c0.4-0.7,0.9-0.6,1-0.7
	c0.1-0.1,0.1-0.2,0.3-0.4c0.2-0.2,0.5,0,0.5,0.2c0.1,0.2,0.1,0.9-0.3,1.5c-0.2,0.3-0.5,0.5-0.8,0.6c0.5,0.2,1,0.5,1.4,0.8l0.3-0.3
	c0-0.1,0.1-0.2,0.1-0.2s0.1-0.1,0.3-0.2l1.4-1.4c0,0-0.1,0-0.1-0.1c-0.1-0.1-0.6-0.2,0.2-0.7C197.7,92.2,197.8,92.1,197.9,92.1
	 M199.7,93.8c-0.1-0.1-0.2-0.2-0.3-0.3l-0.3,0.3c0.2,0.2,0.5,0.5,0.4,0.4C199.4,94,199.6,94,199.7,93.8 M204.9,77.7
	c0.2-0.2,0.3,0,0.5,0.1c0.2,0,0.2-0.2,0.5,0c0.3,0.1,0.4,0.4,0.4,0.6c0.1,0.2,0.2,0.4,0.3,0.6c0,0.2-0.4,0.4-0.6,0.3
	c-0.2-0.1-0.5-0.6-0.5-0.6l-0.7-0.5C204.8,78.2,204.7,77.9,204.9,77.7 M192.4,75c0,0,0.2-0.2,0.3-0.2c0.2,0.1,0.6,0.1,0.6,0.1l1-0.4
	l0.8-0.3l0.3-0.1c0,0,1.1-0.2,2.2,0.7c0.1,0.1,0.2,0.2,0.3,0.2l-0.3-0.3c0,0,0.8,0.7,0.3,0.3l-0.1,0.3c0,0-0.7,0.4-0.9,0.5
	c-0.3,0-0.7-0.1-0.7-0.1l-0.6-0.1l-1.3,0.3c0,0-0.8,0.1-1.2-0.2c-0.4-0.3-0.6-0.4-0.6-0.4L192.4,75z M205.3,88.5
	c0.2,0.2,0.7,0.8,0.9,1c0,0,0.1,0.1,0.1,0.1C206,89.2,205.6,88.9,205.3,88.5"/>
<path class="st1" d="M207,132.8c0.2,0,2.4-0.4,5.9-0.8c3.5-0.4,4.9-0.2,7.4-0.9c2.8-0.7,4.2-2.2,4.9-3c0,0,0.2-0.1,0.1,0.1
	c0,0.2-1.8,3.5-5.8,5.5c-4,2-8.3,1.5-9.4,1.3c-1.1-0.2-2.6-0.7-4.1-1.1c-1.6-0.4-3.6-0.8-4.6-0.8c0,0-0.1-0.2,0.2-0.3
	c0.5-0.1,2.5-0.5,3.7-1.1c2.2-1,4-3.2,5.5-4.5c1.4-1.4,3.9-3.8,5.3-4.4c0,0,0.1,0,0,0.2c-0.1,0.1-1.1,1.6-1.7,2.9
	c-0.5,1.3-1.2,2.8-2.3,4c-1,1.2-2.4,2.2-5.2,2.8C207,132.6,206.8,132.8,207,132.8 M231.8,117.5c0,0-0.5,4.1-4.5,7.8
	c-3,2.7-5.5,3.8-7,4.1c-1.4,0.3-2.9,0.5-4.2,0.8c-1.3,0.2-3.2,0.8-3.6,0.9c0,0-0.1,0.1-0.1-0.1c0.1-0.1,0.6-0.3,2-2.2
	c1.4-1.9,2.6-6.1,2.6-6.1s0.7-2.2,1.4-3.7c0.7-1.5,3-4.8,3.5-5.1c0,0,0.2-0.1,0.2,0c0,0.1-0.5,1-0.8,2.5c-0.5,2.4-0.6,4.9-0.9,5.8
	c-0.3,1-0.8,2.7-2,4.2c-1.4,1.7-1.4,1.4-2.4,2.4c-0.2,0.1,0,0.1,0,0.1s1.1-0.6,1.9-1.2c0.8-0.6,1.7-1.4,3.1-2.3c1.4-0.9,3-1.3,5.9-3
	c2.9-1.7,4-3.6,4.6-4.9C231.7,117.5,231.8,117.2,231.8,117.5 M225,105.2c0,0-0.2,1.3-0.1,2.2c0.1,1,1.2,4.8,1.1,7
	c0,2.1-0.6,3.9-1.9,5.8l0.1,0.1c0,0,2.2-3.1,3.3-4.5c1.1-1.4,3.3-3.4,4.3-4.6c1.1-1.2,2-3,2.4-5.3h0.1c0,0,0.6,3.5-0.9,6.9
	c-1.5,3.4-3,4.6-4.1,5.6c-1.1,1-4.2,3.1-5.8,4c-1.5,0.9-2.7,1.9-2.7,1.9s-0.1,0-0.1-0.1c0-0.1,1.2-2.3,1.5-3.7
	c0.3-1.4,0.6-3.6,0.7-5.4c0.1-1.7,0.6-8,1.8-9.9L225,105.2z M224.5,95.4c0-0.1-0.2-0.3-0.3,0c0,0.3,0,3.1,0.8,6.5
	c0.6,2.3,2,7,2.2,7.7c0.3,1.1,0.2,3.7,0,4.6c0,0,0,0.3,0.1,0.1c0.1-0.2,1.5-2.5,2.3-3.4c0.8-0.9,2.7-3.2,3.2-4.5
	c0.5-1.2,1.7-3.9,1.5-7.8c-0.1-3.5-1.2-5.5-1.2-5.5s-0.1-0.1-0.1,0c0,0.1,0.2,1.7,0,3.1c-0.2,1.4-0.5,2.3-1.3,4.1
	c-0.8,1.7-1.6,3.7-1.8,4.4c-0.2,0.7-0.5,2.3-0.6,3.4c-0.2,1.1-0.7,2-0.7,2l-0.1-0.1c0,0,0.5-0.9,0.6-2.9c0.1-2.1-0.7-4.2-1.3-5.2
	C227,100.5,224.6,97,224.5,95.4 M228.6,82.2C228.4,82,228.5,82.2,228.6,82.2c-0.1,0.1,1.1,1.8,1.1,4.7c0,2.9-0.5,3.1-0.5,5.7
	c-0.1,2.6,0.3,5.8,0.3,5.8h-0.1c0,0-0.1-1.6-0.9-3.6c-1-2.2-5.1-5.4-5.1-5.4s-1.4-1.3-1.5-2.1c-0.1-0.2-0.2,0-0.2,0s0.3,2.1,1.5,4.7
	c1.1,2.6,3.8,5.2,4.6,6.7c0.8,1.5,1.2,1.7,1.8,4.6l0.1,0c0,0,0-1.3,0.9-3.9c0.9-2.7,1.1-2.4,1.6-4.9c0.5-2.5,0.1-5,0-5.5
	C231.9,88.3,231,84.8,228.6,82.2 M228.1,92.7c0,0-0.5-1.1-1.5-2.2c-0.5-0.5-1.4-1.5-2.5-2.3c-1.1-0.9-2.3-1.7-3.1-2.4
	c-1.6-1.5-3.3-4.2-3.2-6.6c0,0,0.8,1.5,1.8,2.5c1,1,3.5,2.4,4.6,3.4c1.1,0.9,2.2,2.2,2.6,3.7h0.2c0,0-1.1-3-1.4-4.1
	c-0.3-1.1-0.5-2.9-1.2-4.7c-0.6-1.7-1.4-2.6-2.5-3.3c0,0,0.1-0.1,0.1-0.1s4.4,0.7,6,6.4c0.5,1.7,0,5.5,0.1,7
	c0.1,1.5,0.2,2.5,0.2,2.5H228.1z M213.4,72.7c0,0,1.4,0.5,2.8,1c1.5,0.6,3.2,1.4,4.4,2.8c2,2.2,2.5,4.2,3,5.9
	c0.2,0.6,0.5,1.5,0.6,1.4c0.1,0-0.1,0.1-0.1,0.1s-3.8-3-5-4.3c-1.1-1.3-2.5-3.6-3.5-4.6C214.8,74.1,213.4,72.7,213.4,72.7
	 M164.3,135.6c0,0,3.7,4.3,9.3,4.3c4.4,0,7.5-2.4,7.5-2.4s3.2-2.3,4.9-3.1c1.4-0.7,3.5-0.1,3.5-0.1s-2.3,0.9-4.5,2.5
	c-2.3,1.6-3.1,2.2-5.3,4.4l1.9,1.6c0,0,1.4-1.9,4-4.2c2.6-2.3,4.1-3.1,5.8-3.7c0,0,5.3,2.4,9.7,7.9l1.9-1.6c0,0-4.4-4.5-9.8-6.8
	c0,0,0.5-0.3,2.8-0.1c1,0.1,1.9,0.9,3.1,1.7c1.1,0.8,3.3,2.3,4.7,2.9c1.5,0.6,3.4,1,5,1.1c1.6,0,6.2-0.6,9.4-4.5c0,0,0-0.1-0.1-0.1
	c-2,1-3.1,1.8-6.4,1.7c-1.8-0.1-4.1-0.6-7-1.9c-2.9-1.3-4.8-2.2-8.2-2.2c-3.4,0-5,0.6-5.3,0.7c0,0-1.5-0.7-4.6-0.7
	c-3.1,0-5.8,0.9-7.5,1.7c-1.7,0.8-5,2.7-8.8,2.6c-3.6,0-5.9-1.7-5.9-1.7C164.4,135.5,164.3,135.6,164.3,135.6 M175.7,132.9
	c-0.2,0-2.5-0.5-5.9-0.8c-3.5-0.4-5-0.2-7.6-0.8c-2.8-0.7-4.1-2.1-4.9-2.9c0,0-0.2-0.1-0.1,0.1c0.1,0.2,1.8,3.5,5.8,5.5
	c4,2,8.5,1.4,9.6,1.2c1-0.2,2.6-0.7,4.1-1.1c1.5-0.4,3.6-0.8,4.6-0.8c0,0,0.1-0.2-0.2-0.2c-0.5-0.1-1.9-0.1-3.7-1.1
	c-3-1.6-4.2-3.1-5.6-4.4c-1.4-1.4-3.9-3.8-5.3-4.4c0,0-0.1,0,0,0.2c0.1,0.1,1.1,1.5,1.7,2.9c0.5,1.4,1.2,2.7,2.3,3.9
	c1,1.1,2.6,2.2,5.3,2.8C175.7,132.8,175.8,132.9,175.7,132.9 M150.6,117.8c0,0,0.5,4.2,4.5,7.8c3,2.7,5.8,3.8,7.2,4.1
	c1.4,0.3,2.9,0.5,4.2,0.7c1.3,0.3,3.1,0.7,3.4,0.9c0,0,0.1,0,0.1-0.1c-0.1-0.1-0.6-0.3-2-2.2c-1.4-1.9-2.7-6.1-2.7-6.1
	s-0.6-1.7-1.3-3.2c-0.7-1.5-3.3-5.2-3.7-5.5c0,0-0.2-0.1-0.2,0c0,0.1,0.5,0.9,0.8,2.4c0.3,1.4,0.7,4.8,1,5.8c0.3,0.9,0.8,2.8,2,4.2
	c1.3,1.7,1.3,1.5,2.4,2.4c0.2,0.1,0,0.1,0,0.1s-1.2-0.6-1.9-1.3c-0.8-0.6-1.1-1-2.6-1.9c-1.5-0.9-3.5-1.6-6.4-3.3
	c-2.9-1.7-4.1-3.6-4.7-4.8C150.7,117.8,150.6,117.5,150.6,117.8 M157.2,105.4c0,0,0.2,1.3,0.1,2.3c-0.1,1-1.1,4.8-1,6.9
	c0.1,2.1,0.6,3.9,1.9,5.8l-0.1,0.1c0,0-2.2-3.1-3.3-4.5c-1-1.4-3.3-3.4-4.4-4.6c-1-1.3-2.2-2.9-2.5-5.2h-0.1c0,0-0.5,3.5,1,6.8
	c1.5,3.3,3.1,4.6,4.1,5.6c1.1,1,4.2,3.1,5.8,3.9c1.6,0.9,2.7,1.9,2.7,1.9s0.1,0,0.1-0.1c0-0.1-1.2-2.3-1.5-3.7
	c-0.3-1.4-0.6-3.6-0.7-5.4c-0.1-1.7-0.8-8-1.9-10L157.2,105.4z M157.7,95.6c0-0.1,0.2-0.3,0.2,0c0,0.3-0.2,4.2-0.7,6.5
	c-0.5,2.3-2,7-2.2,7.7c-0.1,0.7-0.2,3.7,0,4.6c0,0,0,0.3-0.2,0.1c-0.1-0.1-1.6-2.4-2.4-3.2c-0.8-0.9-2.7-3.3-3.3-4.5
	c-0.5-1.3-1.8-4.6-1.6-8.5c0.3-3.8,1.1-4.8,1.1-4.8s0.2-0.1,0.1,0c0,0.2-0.2,1.7,0,3.1c0.2,1.4,0.7,2.9,1.6,4.5
	c0.9,1.7,1.5,3.4,1.7,4.1c0.2,0.7,0.6,2.1,0.8,3.2c0.2,1.1,0.6,2,0.6,2l0.1,0c0,0-0.5-0.9-0.5-2.9c-0.1-2.1,0.4-3.6,1.3-5.2
	C155.3,100.6,157.6,97.1,157.7,95.6 M153.4,82.4c0.1-0.1,0.2,0,0.2,0s-1.2,1.5-1.2,4.4c0.1,2.9,0.6,3.4,0.6,6
	c0.1,2.6-0.3,5.7-0.3,5.7h0.1c0,0,0-1.7,1-3.8c1-2.1,5.1-5.5,5.1-5.5s1.2-1.3,1.3-2c0.1-0.2,0.2,0,0.2,0s-0.2,1.9-1.4,4.5
	c-1.2,2.6-3.6,5.1-4.4,6.6c-0.8,1.5-1.4,2.1-2,5l-0.1,0c0,0-0.1-1.3-1-4c-0.9-2.7-1.2-2.3-1.6-4.8c-0.5-2.4-0.1-5.3,0-5.8
	C150.2,88.4,150.9,85.1,153.4,82.4 M154.1,92.9c0,0,0.5-1.1,1.5-2.2c0.5-0.5,1.4-1.5,2.4-2.3c1.1-0.9,2.3-1.7,3.1-2.5
	c1.6-1.4,3-4.1,3-6.5c0,0-0.6,1.4-1.6,2.4c-1,1-3.6,2.5-4.6,3.5c-1,1-2.2,2.3-2.6,3.8l-0.1,0c0,0,1.1-3,1.3-4.1
	c0.3-1.1,0.5-2.9,1.2-4.7c0.7-1.7,1.3-2.5,2.5-3.2c0,0,0-0.1,0-0.1s-4.4,0.7-6.1,6.4c-0.5,1.7,0.1,5.6,0,7.1
	c-0.1,1.5-0.1,2.5-0.1,2.5H154.1z M168.4,73c0,0-1,0.4-2.6,0.9c-1.5,0.6-3.3,1.5-4.5,2.8c-2.1,2.2-2.6,4.3-3,6
	c-0.3,0.9-0.5,1.6-0.5,1.6s3.8-3.1,5-4.3c1.1-1.3,2.4-3.7,3.4-4.7C167.1,74.3,168.4,73,168.4,73"/>
<path class="st0" d="M247,134.4C247,134.4,247,134.4,247,134.4"/>
<path class="st2" d="M455.2,106.4c0,58.7-47.6,106.3-106.4,106.3c-58.8,0-106.4-47.6-106.4-106.3C242.4,47.7,290,0,348.8,0
	C407.5,0,455.2,47.7,455.2,106.4"/>
<path class="st0" d="M446,123.3h-16.2l-3.9,16.3h-13.3l18.1-67.5h15.5l8.9,33.7C454.8,47.3,407.3,0,348.8,0
	C302,0,262.2,30.3,248,72.3h7.6v46.8c0,6.9,3,10.5,8.3,10.5c5.3,0,8.3-3.6,8.3-10.5V72.3h13.5V119c0,14.9-9.1,21.7-21.8,21.7
	c-8.1,0-14.7-2.8-18.5-8.7c11.5,46.4,53.3,80.8,103.3,80.8c47.2,0,87.3-30.8,101.1-73.4L446,123.3z M335,139.5h-10.9l-20-41v41
	h-12.3V72.3h12.8l18.1,39.1V72.3H335V139.5z M373.2,84h-18.8v16.3l14.6,0v12h-14.6v27.4H341V72.3h32.1V84z M392.4,115.5v24.1h-13.3
	V72.3h16c14.3,0,23.5,7.2,23.5,21.3c0,14.3-9.3,21.7-24.2,21.9H392.4z"/>
<path class="st0" d="M394.7,104.7h-2.4V83h2.6c7.2,0,11,3.6,11,10.8C405.9,101.3,402,104.7,394.7,104.7"/>
<polygon class="st0" points="432.2,112.5 438,87.8 443.8,112.5 "/>
</svg>
