<?xml version="1.0" encoding="utf-8"?>
<!-- Generator: Adobe Illustrator 21.0.0, SVG Export Plug-In . SVG Version: 6.00 Build 0)  -->
<svg version="1.1" id="Layer_1" xmlns="http://www.w3.org/2000/svg" xmlns:xlink="http://www.w3.org/1999/xlink" x="0px" y="0px"
	 viewBox="0 0 175.7 41.6" style="enable-background:new 0 0 175.7 41.6;" xml:space="preserve">
<style type="text/css">
	.st0{fill-rule:evenodd;clip-rule:evenodd;fill:#007AC2;}
</style>
<path class="st0" d="M25.5,28.3c0.5,0,0.4-0.3,0.4-0.8c0-0.5,0-2,0-2.5c0-0.5-0.1-0.7,0.2-0.7c1,0,1.3-0.1,1.3-1v-9.5
	c0-2.6-1.8-2.1-2.3-3.1c-0.7-1.3,1.4-1.3,0.6-4c-0.2-0.6-0.7-1-1.6-1c-0.9,0-1.4,0.4-1.6,1c-0.8,2.8,1.3,2.8,0.6,4
	c-0.5,0.9-2.3,0.5-2.3,3.1v9.5c0,0.9,0.3,1,1.3,1c0.3,0,0.2,0.2,0.2,0.7c0,0.5,0,2,0,2.5c0,0.5-0.1,0.8,0.4,0.8
	C23,28.3,25.3,28.3,25.5,28.3L25.5,28.3z"/>
<path class="st0" d="M17.2,7.8c-0.9,1-2.4,3.3-1.4,5.2c2,0.8,1.8-6.2,4.2-6.1c1.2,1.1-0.4,4.4-0.8,5.8c-0.6,1.8-1.1,5.5-2.2,7.3
	c-1,1.5-0.2,6.2-0.5,7.8c-0.8,0.8-3,0.2-3.9,0.1c0-1.9-0.2-3.3-0.5-6.3c0-0.6-0.7-9.8-0.2-10.9c1.1-2.3,6.8-6.7,7.6-7.6
	C20,2.5,22.4,0,23.4,0c0.7,0.5,0.3,1.5,0.1,1.9C22.5,4.2,18.5,6.5,17.2,7.8L17.2,7.8z"/>
<path class="st0" d="M31.2,7.8c0.9,1,2.4,3.3,1.4,5.2c-2,0.8-1.8-6.2-4.3-6.1c-1.2,1.1,0.4,4.4,0.9,5.8c0.6,1.8,1.1,5.5,2.2,7.3
	c0.9,1.5,0.2,6.2,0.5,7.8c0.8,0.8,3,0.2,4,0.1c0-1.9,0.2-3.3,0.5-6.3c0.1-0.6,0.7-9.8,0.2-10.9c-1-2.3-6.8-6.7-7.6-7.6
	C28.3,2.5,25.9,0,25,0c-0.7,0.5-0.3,1.5-0.1,1.9C25.8,4.2,29.8,6.5,31.2,7.8L31.2,7.8z"/>
<path class="st0" d="M8.8,4.7C8.3,5.2,7.2,5.5,6.4,6.6C6.1,6,6.9,4.6,7.8,3.8c0.7-0.6,2-1.5,2.4-1.6C10.6,2.9,9.5,3.9,8.8,4.7
	L8.8,4.7z"/>
<path class="st0" d="M7.3,8.4c-0.9,0.8-1.8,1.1-3,2.6C3.7,9.3,3.9,7.7,4.1,6.7c0.4-1.4,1.1-2.9,2.3-3.4C6.1,4.1,5.7,5.1,5.7,6.6
	C5.1,8.6,4.8,8.7,5,9c0.1,0,0.8-1.1,1.6-1.9c1-1,2.2-1.2,2.9-1.7C9.4,5.7,8.7,7,7.3,8.4L7.3,8.4z"/>
<path class="st0" d="M3,16.8c-1.2-2.1-1.3-3.6-1.4-5.4c0.1-1.2,0.7-4.1,1.6-4.5c-0.3,2.6,0.4,2.8,0.1,5c0,0.1-0.3,2.3-0.3,2.5
	c0.4-0.1,0-2,4.1-4.9c-0.9,1.6-0.5,2-2.1,4.1C3.2,15.4,2.9,17.2,3,16.8L3,16.8z"/>
<path class="st0" d="M4.7,18.8c-0.9,1.3-0.7,1.9-0.9,2.5c-2.1-1.2-4.4-6-3.5-8.4c0.5,1.8,1.3,2.2,1.8,3.7C3,18.8,2.8,19.5,3.4,20
	c-0.1-1.2,0.3-2.6,0.7-3.6c0.6-0.9,1-2,1.4-2.4C6,15.7,5.6,17.1,4.7,18.8L4.7,18.8z"/>
<path class="st0" d="M6.5,22.8c0,1.8-0.3,2.6-0.5,4c-3.6-1.2-5.4-5.3-5.4-7.3C1.7,22,3.3,22,5.4,25.5c0.2-1.3-0.4-0.3-0.4-2.8
	C5,20,5.5,20,5.6,18.3C6.3,19.1,6.5,21.9,6.5,22.8L6.5,22.8z"/>
<path class="st0" d="M9.5,28c0.3,1.4,0.4,2.9,0.6,4.1c-2-0.8-2.6-0.2-5-1.7c-1.1-0.6-3.1-3.1-3-4.9c2.4,2.7,2.8,2.4,4,3.4
	c1.1,0.9,1.9,2.2,2.7,2c0.1-0.7-1.8-2.3-1.5-6.8C7.8,24.6,9.1,26.6,9.5,28L9.5,28z"/>
<path class="st0" d="M13.6,31.4c0.6,0.9,0.5,1.3,2.1,3.2c-0.4,0.2-2.7,0.8-4.2,0.8c-1,0-4.6-1-5.8-3.4c2.1,1.1,2.1,0.8,4.9,1.4
	c2,0.4,3.4,1.1,3.9,1c-0.1-0.3-1.7-0.9-2.7-2.2c-1.1-1.4-0.8-3-1.7-4.2C10.6,27.9,13,30.7,13.6,31.4L13.6,31.4z"/>
<path class="st0" d="M39.3,4.7c0.5,0.5,1.7,0.8,2.4,1.9c0.3-0.6-0.5-2-1.4-2.8c-0.7-0.6-2-1.5-2.4-1.6C37.6,2.9,38.7,3.9,39.3,4.7
	L39.3,4.7z"/>
<path class="st0" d="M40.9,8.4c0.8,0.8,1.8,1.1,3,2.6c0.5-1.8,0.4-3.3,0.2-4.4c-0.4-1.4-1.1-2.9-2.3-3.4c0.3,0.8,0.6,1.9,0.7,3.3
	c0.5,2,0.8,2.1,0.7,2.3c-0.1,0-0.8-1.1-1.6-1.9c-0.9-1-2.1-1.2-2.9-1.7C38.7,5.7,39.5,7,40.9,8.4L40.9,8.4z"/>
<path class="st0" d="M45.1,16.8c1.2-2.1,1.3-3.6,1.4-5.4c-0.1-1.2-0.7-4.1-1.5-4.5c0.2,2.6-0.5,2.8-0.2,5c0,0.1,0.3,2.3,0.3,2.5
	c-0.3-0.1,0-2-4.1-4.9c0.9,1.6,0.4,2,2.1,4.1C45,15.4,45.2,17.2,45.1,16.8L45.1,16.8z"/>
<path class="st0" d="M43.5,18.8c0.8,1.3,0.7,1.9,0.9,2.5c2.1-1.2,4.4-6,3.5-8.4c-0.5,1.8-1.3,2.2-1.8,3.7c-1,2.3-0.8,2.9-1.4,3.5
	c0.1-1.2-0.3-2.6-0.7-3.6c-0.5-0.9-1-2-1.4-2.4C42.2,15.7,42.5,17.1,43.5,18.8L43.5,18.8z"/>
<path class="st0" d="M41.6,22.8c0,1.8,0.4,2.6,0.5,4c3.5-1.2,5.4-5.3,5.4-7.3c-1.1,2.5-2.7,2.4-4.8,5.9c-0.2-1.3,0.4-0.3,0.4-2.8
	c-0.1-2.6-0.6-2.7-0.7-4.3C41.8,19.1,41.6,21.9,41.6,22.8L41.6,22.8z"/>
<path class="st0" d="M38.6,28c-0.3,1.4-0.4,2.9-0.6,4.1c2-0.8,2.5-0.2,5-1.7c1.1-0.6,3.1-3.1,3-4.9c-2.4,2.7-2.9,2.4-4,3.4
	c-1.1,0.9-2,2.2-2.8,2c-0.1-0.7,1.8-2.3,1.6-6.8C40.3,24.6,39,26.6,38.6,28L38.6,28z"/>
<path class="st0" d="M34.6,31.4c-0.6,0.9-0.5,1.3-2.1,3.2c0.4,0.2,2.7,0.8,4.3,0.8c1,0,4.6-1,5.8-3.4c-2.1,1.1-2.1,0.8-4.9,1.4
	c-2,0.4-3.4,1.1-3.9,1c0.1-0.3,1.7-0.9,2.7-2.2c1.1-1.4,0.8-3,1.8-4.2C37.5,27.9,35.1,30.7,34.6,31.4L34.6,31.4z"/>
<path class="st0" d="M18.9,39.9l-0.6-0.3c0,0,3.8-4.7,10.4-4.3c6.6,0.4,6.1,1.9,9.6,1.7c0.4,0-0.3,0.5-0.3,0.5s-3.4,1.3-7.7-0.1
	C26.2,35.9,23.4,35,18.9,39.9L18.9,39.9z"/>
<path class="st0" d="M29.3,39.9l0.6-0.3c0,0-3.8-4.7-10.3-4.3c-6.6,0.4-6.1,1.9-9.6,1.7c-0.4,0,0.3,0.5,0.3,0.5s3.4,1.3,7.7-0.1
	C22.1,35.9,24.9,35,29.3,39.9L29.3,39.9z"/>
<polygon class="st0" points="59.3,33.3 57,33.3 57,31.9 63.2,31.9 63.2,33.3 60.9,33.3 60.9,39.5 59.3,39.5 59.3,33.3 "/>
<path class="st0" d="M63.8,31.9h1.5v2.9h0c0.4-0.6,1-0.9,1.6-0.9c1.6,0,2,0.9,2,2.3v3.4h-1.5v-3.1c0-0.9-0.3-1.4-1-1.4
	c-0.8,0-1.2,0.5-1.2,1.6v2.9h-1.5V31.9L63.8,31.9z"/>
<path class="st0" d="M71.1,37.1c0,1,0.5,1.4,1.4,1.4c0.6,0,1.1-0.4,1.2-0.7H75c-0.4,1.3-1.3,1.9-2.6,1.9c-1.7,0-2.8-1.2-2.8-2.9
	c0-1.7,1.1-2.9,2.8-2.9c1.9,0,2.8,1.6,2.7,3.3H71.1L71.1,37.1z M73.6,36.1c-0.1-0.8-0.5-1.2-1.2-1.2c-1,0-1.2,0.7-1.3,1.2H73.6
	L73.6,36.1z"/>
<path class="st0" d="M84.8,36.6c0,2.1-1.2,3.1-3.3,3.1c-2.1,0-3.2-1-3.2-3.1v-4.7H80v4.7c0,0.8,0.2,1.7,1.6,1.7
	c1.2,0,1.6-0.5,1.6-1.7v-4.7h1.7V36.6L84.8,36.6z"/>
<polygon class="st0" points="85.9,31.9 87.6,31.9 90.8,37 90.8,37 90.8,31.9 92.4,31.9 92.4,39.5 90.7,39.5 87.5,34.4 87.5,34.4 
	87.5,39.5 85.9,39.5 85.9,31.9 "/>
<path class="st0" d="M97.5,33.2h1.8c0.7,0,1.2,0.3,1.2,1.1c0,0.8-0.4,1.1-1.2,1.1h-1.8V33.2L97.5,33.2z M95.8,39.5h1.7v-3h1.7
	c0.8,0,1.2,0.4,1.3,1.2c0.1,0.6,0.1,1.3,0.3,1.8h1.7c-0.3-0.4-0.3-1.3-0.3-1.8c-0.1-0.8-0.3-1.6-1.1-1.8v0c0.8-0.3,1.2-1,1.2-1.9
	c0-1.2-0.9-2.1-2.2-2.1h-4.1V39.5L95.8,39.5z"/>
<path class="st0" d="M104.4,36.1c0-0.4,0.3-1.2,1.3-1.2c0.7,0,1.1,0.4,1.2,1.2H104.4L104.4,36.1z M108.4,37.1
	c0.1-1.7-0.8-3.3-2.7-3.3c-1.7,0-2.8,1.3-2.8,2.9c0,1.7,1.1,2.9,2.8,2.9c1.3,0,2.2-0.6,2.6-1.9H107c-0.1,0.3-0.6,0.7-1.2,0.7
	c-0.8,0-1.3-0.4-1.4-1.4H108.4L108.4,37.1z"/>
<path class="st0" d="M109.4,35h-0.9v-1h0.9v-0.4c0-1,0.6-1.7,1.8-1.7c0.3,0,0.5,0,0.8,0V33c-0.2,0-0.4,0-0.6,0
	c-0.4,0-0.6,0.2-0.6,0.6V34h1v1h-1v4.5h-1.5V35L109.4,35z"/>
<path class="st0" d="M117.7,39.5h-1.4v-0.8h0c-0.4,0.6-1,0.9-1.7,0.9c-1.6,0-2-0.9-2-2.3V34h1.5v3.1c0,0.9,0.3,1.4,1,1.4
	c0.8,0,1.2-0.5,1.2-1.6V34h1.5V39.5L117.7,39.5z"/>
<path class="st0" d="M121.1,38.2c-0.9,0-1.2-0.9-1.2-1.7c0-0.8,0.4-1.6,1.2-1.6c1,0,1.3,0.8,1.3,1.7C122.4,37.5,122,38.2,121.1,38.2
	L121.1,38.2z M123.9,34h-1.4v0.7h0c-0.4-0.6-0.9-0.9-1.6-0.9c-1.5,0-2.4,1.3-2.4,2.7c0,1.5,0.7,2.8,2.4,2.8c0.7,0,1.3-0.3,1.7-0.9h0
	v0.7c0,0.8-0.4,1.4-1.2,1.4c-0.5,0-1-0.2-1.1-0.8h-1.5c0.1,1.3,1.3,1.8,2.4,1.8c2.5,0,2.9-1.5,2.9-2.4V34L123.9,34z"/>
<path class="st0" d="M126.2,36.1c0-0.4,0.3-1.2,1.3-1.2c0.7,0,1.1,0.4,1.2,1.2H126.2L126.2,36.1z M130.1,37.1
	c0.1-1.7-0.8-3.3-2.7-3.3c-1.7,0-2.8,1.3-2.8,2.9c0,1.7,1.1,2.9,2.8,2.9c1.3,0,2.2-0.6,2.6-1.9h-1.3c-0.1,0.3-0.6,0.7-1.2,0.7
	c-0.8,0-1.3-0.4-1.4-1.4H130.1L130.1,37.1z"/>
<path class="st0" d="M132.1,36.1c0-0.4,0.3-1.2,1.3-1.2c0.7,0,1.1,0.4,1.2,1.2H132.1L132.1,36.1z M136.1,37.1
	c0.1-1.7-0.8-3.3-2.7-3.3c-1.7,0-2.8,1.3-2.8,2.9c0,1.7,1.1,2.9,2.8,2.9c1.3,0,2.2-0.6,2.6-1.9h-1.3c-0.1,0.3-0.6,0.7-1.2,0.7
	c-0.8,0-1.3-0.4-1.4-1.4H136.1L136.1,37.1z"/>
<path class="st0" d="M142.2,33.7L142.2,33.7l1,2.8h-2L142.2,33.7L142.2,33.7z M138.5,39.5h1.7l0.6-1.7h2.9l0.6,1.7h1.7l-2.9-7.6
	h-1.7L138.5,39.5L138.5,39.5z"/>
<path class="st0" d="M148.8,38.2c-0.9,0-1.2-0.9-1.2-1.7c0-0.8,0.4-1.6,1.2-1.6c1,0,1.3,0.8,1.3,1.7
	C150.1,37.5,149.7,38.2,148.8,38.2L148.8,38.2z M151.5,34h-1.4v0.7h0c-0.4-0.6-0.9-0.9-1.6-0.9c-1.6,0-2.4,1.3-2.4,2.7
	c0,1.5,0.7,2.8,2.4,2.8c0.7,0,1.3-0.3,1.7-0.9h0v0.7c0,0.8-0.4,1.4-1.2,1.4c-0.5,0-1-0.2-1.1-0.8h-1.5c0.1,1.3,1.3,1.8,2.4,1.8
	c2.5,0,2.9-1.5,2.9-2.4V34L151.5,34z"/>
<path class="st0" d="M153.8,36.1c0-0.4,0.3-1.2,1.3-1.2c0.7,0,1.1,0.4,1.2,1.2H153.8L153.8,36.1z M157.8,37.1
	c0.1-1.7-0.8-3.3-2.7-3.3c-1.7,0-2.8,1.3-2.8,2.9c0,1.7,1.1,2.9,2.8,2.9c1.3,0,2.2-0.6,2.6-1.9h-1.3c-0.1,0.3-0.6,0.7-1.2,0.7
	c-0.8,0-1.3-0.4-1.4-1.4H157.8L157.8,37.1z"/>
<path class="st0" d="M158.5,34h1.4v0.8h0c0.4-0.6,1-0.9,1.7-0.9c1.6,0,2,0.9,2,2.3v3.4h-1.5v-3.1c0-0.9-0.3-1.4-1-1.4
	c-0.8,0-1.2,0.5-1.2,1.6v2.9h-1.5V34L158.5,34z"/>
<path class="st0" d="M168.3,35.9c-0.1-0.6-0.5-1-1.1-1c-1,0-1.3,1-1.3,1.8c0,0.8,0.3,1.7,1.3,1.7c0.7,0,1.1-0.4,1.2-1.1h1.5
	c-0.2,1.5-1.2,2.3-2.7,2.3c-1.7,0-2.8-1.2-2.8-2.8c0-1.7,1-3,2.8-3c1.3,0,2.5,0.7,2.6,2.1H168.3L168.3,35.9z"/>
<path class="st0" d="M173.2,40.2c-0.3,0.9-0.9,1.2-1.9,1.2c-0.3,0-0.6,0-0.9-0.1v-1.3c0.3,0,0.6,0.1,0.9,0.1c0.5-0.1,0.7-0.6,0.5-1
	l-1.9-5.2h1.6l1.3,3.8h0L174,34h1.6L173.2,40.2L173.2,40.2z"/>
<path class="st0" d="M77.6,19.5c0,6.3-3.4,9.3-10.3,9.3c-6.9,0-10.3-3-10.3-9.3V5.6h7v12.3c0,2.3,0,5.2,3.4,5.2
	c3.3,0,3.3-2.9,3.3-5.2V5.6h7V19.5L77.6,19.5z"/>
<polygon class="st0" points="81.8,5.6 88.9,5.6 95.5,17.7 95.6,17.7 95.6,5.6 102.1,5.6 102.1,28.2 95.4,28.2 88.4,15.9 88.4,15.9 
	88.4,28.2 81.8,28.2 81.8,5.6 "/>
<polygon class="st0" points="106.4,5.6 113.4,5.6 113.4,13.5 119.9,13.5 119.9,5.6 126.8,5.6 126.8,28.2 119.9,28.2 119.9,19.3 
	113.4,19.3 113.4,28.2 106.4,28.2 106.4,5.6 "/>
<path class="st0" d="M144.7,14.1c-0.1-0.8-0.8-3.3-3.6-3.3c-3.3,0-4.3,3.2-4.3,6.2c0,3,1,6.2,4.3,6.2c2.3,0,3.3-1.6,3.7-3.8h6.8
	c0,4.6-3.7,9.4-10.3,9.4c-7.3,0-11.5-5.2-11.5-11.8c0-7.1,4.5-11.8,11.5-11.8c6.2,0,9.6,3.3,10.2,9H144.7L144.7,14.1z"/>
<path class="st0" d="M161.4,11h3.3c2.7,0,3.4,0.8,3.4,2.2c0,2-1.8,2.2-3.1,2.2h-3.6V11L161.4,11z M154.4,28.2h7v-7.9h3.7
	c2.8,0,2.9,2.2,3.1,4.4c0.1,1.2,0.2,2.3,0.6,3.5h7c-0.6-1-0.7-3.7-0.8-4.8c-0.3-2.8-1.4-4.9-3.3-5.6c2.3-0.9,3.4-3.3,3.4-5.7
	c0-4.3-3.4-6.5-7.4-6.5h-13.3V28.2L154.4,28.2z"/>
</svg>
