<?xml version="1.0" encoding="utf-8"?>
<!-- Generator: Adobe Illustrator 21.0.0, SVG Export Plug-In . SVG Version: 6.00 Build 0)  -->
<svg version="1.1" id="Layer_1" xmlns="http://www.w3.org/2000/svg" xmlns:xlink="http://www.w3.org/1999/xlink" x="0px" y="0px"
	 viewBox="0 0 498.3 541.4" style="enable-background:new 0 0 498.3 541.4;" xml:space="preserve">
<style type="text/css">
	.st0{fill:#00ADEE;}
	.st1{fill-rule:evenodd;clip-rule:evenodd;fill:#00ADEE;}
</style>
<g>
	<path class="st0" d="M213.1,10.3c-9,1.5-17.8,3.7-26.3,6.7c1.7,1.8,3.5,3.6,5.4,5.3C198.9,17.8,205.9,13.8,213.1,10.3z M362.7,72.9
		C355,62.1,346,52.4,335.8,44c-5,4.3-10.3,8.3-15.9,11.9c7.6,9.3,14.2,19.5,19.8,30.4C347.7,82.3,355.4,77.8,362.7,72.9z
		 M330.1,39.3c-10.5-7.9-22-14.6-34.3-19.6c-2,2.4-4.2,4.7-6.6,6.8c9.5,7,18.2,15,26,23.8C320.4,47,325.4,43.3,330.1,39.3z
		 M288.5,17c-8.5-3-17.2-5.2-26.3-6.7c7.2,3.5,14.2,7.5,20.8,11.9C285,20.6,286.8,18.8,288.5,17z M237.7,0
		C327.3,0,400,73.3,400,163.6c0,90.3-72.6,163.6-162.3,163.6S75.3,254,75.3,163.6C75.3,73.3,148,0,237.7,0z M264.7,33.3
		c4.3-1.7,8.4-3.9,12.2-6.4c-8.6-5.6-17.7-10.4-27.3-14.2C255,19.2,260,26.1,264.7,33.3z M241.3,38.4c5.7-0.3,11.1-1.2,16.3-2.7
		c-5-7.5-10.5-14.7-16.3-21.6V38.4z M261.7,42.1c-6.4,2-13.3,3.3-20.4,3.6v26.6c11.8-0.3,23.2-1.9,34.1-4.7
		C271.3,58.7,266.8,50.2,261.7,42.1z M283.3,31.3c-4.5,3.2-9.4,6-14.6,8.2c5.1,8.3,9.7,17,13.7,26c9.3-2.9,18.1-6.8,26.4-11.4
		C301.1,45.6,292.6,37.9,283.3,31.3z M210.6,33.3c4.7-7.2,9.8-14,15.2-20.6c-9.6,3.9-18.7,8.7-27.3,14.2
		C202.2,29.4,206.3,31.5,210.6,33.3z M234,14.1c-5.8,6.9-11.3,14.1-16.3,21.6c5.2,1.5,10.6,2.4,16.3,2.7V14.1z M146.6,288.9
		c3.6,1.3,8.7,2.9,15,2.5c8.3-0.5,19.2-4.7,29.6-8.6c10.4-3.9,37.7-10.4,44.2-11.7c6.5-1.3,8.1-4.2,9.6-7c1.6-2.9,0.5-7-0.3-11.9
		c-0.8-4.9-2.1-12.7-2.3-20c-0.3-7.3-0.5-13.8-11.9-21c-11.4-7.3-18.7-15.8-17.9-22.3c0.8-6.5,8.3-11.9,8.3-11.9s-1.8-5.5-1-7.8
		c0.8-2.3,7.8-1.6,7.8-1.6s-1-7.8-0.5-9.9c0.5-2.1,4.2-1,4.2-1l3.4-2.1c0,0-2.6-5.5-3.6-9.1c-1-3.6,1-6.5,5.2-6.5
		c4.2,0,9.3-0.5,21.8-3.4c12.5-2.9,17.9-26.8,47.3-31.4c29.3-4.7,52.2,17.7,52.2,17.7s46.7,43.9,16.1,93.5
		c-26.6,43-60.5,32.2-60.5,32.2s-6,2.9-3.1,15.3c2.9,12.5,20.8,22.9,20.8,22.9l1.4,0.7c36.3-28.4,59.7-72.8,59.7-122.7
		c0-31.2-9.2-60.3-24.9-84.7c-7.6,5.1-15.6,9.7-24,13.9c2.2,4.8,4.2,9.7,5.9,14.7c-3-1.8-6.2-3.4-9.5-4.7c-0.9-2.3-1.9-4.6-2.9-6.9
		c-2.5,1.2-5.1,2.3-7.7,3.4c-5-1.2-10.2-1.9-15.2-2c6.8-2.3,13.4-5,19.8-7.9c-5.4-10.6-12-20.6-19.5-29.7
		c-8.8,5.1-18.3,9.2-28.3,12.5c3.8,9,7,18.4,9.6,27.9c-2.5,0.8-4.8,1.6-6.8,2.6c-2.7-9.8-6-19.3-9.8-28.4c-11.8,3.2-24.2,5-37,5.3
		V110c14.3-0.2,28.2-1.8,41.6-4.4c-4.3,2.8-7.4,6-10.2,9.1c-10.2,1.5-20.7,2.4-31.3,2.6v10.5c-1.6,0.1-3.4,0.2-5.2,0.2
		c-0.7,0-1.4,0-2.1,0.1V79.5c-5.7-0.1-11.4-0.6-17-1.3c-1.7-2.9-3.7-5.6-6-8.3c7.4,1.3,15.1,2.1,22.9,2.3V45.6
		c-7.1-0.3-14-1.5-20.4-3.6c-3.9,6.3-7.6,12.9-10.9,19.6c-1.9-1.6-3.8-3.1-5.9-4.5c3-6,6.3-11.9,9.8-17.7c-5.2-2.2-10.1-5-14.6-8.2
		c-6.5,4.7-12.6,9.8-18.3,15.3c-2.9-0.7-5.8-1.3-8.7-1.6c6.5-6.7,13.6-12.9,21.1-18.5c-2.4-2.1-4.6-4.4-6.6-6.8
		c-12.3,5.1-23.8,11.7-34.3,19.6c-36,27.2-59.8,69.9-61.6,118.3c0.9-0.9,15.5-14,22.3-15.5c7-1.6,12.5-13.8,12.5-15.8
		c0-2.1-13.3-34.4,2.9-55.8c14-18.7,35.6-28.3,69.6-9.3c34,19,27.5,46.2,21,55.1c-6.5,8.8-9.4,11.7-8.3,15.8c1,4.2,4.2,7.3,2.9,9.4
		c-1.3,2.1-7.8,2.9-7.8,2.9s1.6,4.4,1.3,6c-0.3,1.6-3.9,1.3-3.9,1.3s0.8,2.6,0.3,4.4c-0.5,1.8-6.5,0.8-6.5,0.8s1.3,11.2-13.5,9.4
		c-14.8-1.8-17.9-6.5-22.3-3.1c-4.4,3.4-3.6,7.8-0.5,20.8c3.1,13,4.4,42.3,4.4,42.3l9,6.4c0,0,13.6,0.6,16.9,0.9
		c3.2,0.3,6.9,1.2,9,1.3c2.1,0.1,10.6-6.6,15.2-7.7c4.5-1,6,0.3,6,1.4c0,1.2-1.3,4.4-1.3,4.4s7.3-2.7,9.9-2.1
		c2.6,0.6,4,3.4,2.1,12.7c-2,9.4-6,15.3-14.2,16.2c-8.2,0.9-13.6-3-19.5-2.9c-5.8,0.1-23.1,8.2-37,7c-13.9-1.2-17.5-7-17.5-7
		s-4.8,8.8-5.5,12.3c-0.4,2.4-0.1,5.1,0.2,6.7C136,280.5,141.1,284.9,146.6,288.9z"/>
	<path class="st0" d="M160,340.8c-8.6,1.6-29.7-1-42.2-16.2c-10.6-12.9-16.6-44-14.9-45.3c1.7-1.3,17.5,11.3,33.9,26.2
		C153.1,320.4,168.6,339.2,160,340.8z M121.6,343.4c-1.3,1.8-24.1,8.3-48.6-6c-24.9-14.5-37-41.6-36.6-42.9
		c0.8-2.3,17.4,1.6,48.8,19.2C116.6,331.4,123.4,341.5,121.6,343.4z M100.3,312.4c-1.8,0.8-24.2-10.1-30.6-37.9
		c-6.5-27.8,2-47,3.9-47.8c3.1-1.3,13,15.1,20.3,40.3C101.1,292.2,103.1,311.7,100.3,312.4z M72.2,300.6c-2.7,0.9-27-9.2-44.5-30.4
		c-14.9-18-21.9-47.9-20.5-48.8c1.4-0.9,21.8,16.8,38.4,35.6C62.2,275.8,74.9,299.7,72.2,300.6z M56.8,260.2
		c-3.6-0.8-14.2-12.8-12.7-42.5c0.9-19,15.7-43.2,18.4-43.1c3.6,0.1,5.3,17.7,3.8,40.8C64.7,238.6,60.4,261,56.8,260.2z M1.3,148.8
		c2.7-2.1,15.3,19.5,23.2,37.4c6.7,15.2,15.3,47.9,11.8,49.1C34.2,236,16.1,224.8,6,197.5C-2.2,175.5-0.1,149.9,1.3,148.8z
		 M62.2,126.2c2.5,0.6,1.4,20.3-6,40.8c-7.4,20.5-17.5,38.7-19.7,37.4c-2.2-1.3-6.4-25.6,0.6-44C44.2,141.9,59.8,125.6,62.2,126.2z
		 M36.1,142.5c-1.9-2.5-2.9-24.5,11.8-43.2C62.2,81,74.7,75.3,77,76.5c2.3,1.2-5.5,21.9-15.1,36.6C52.3,127.9,37.7,144.5,36.1,142.5
		z M31.8,105.8c-3.3-1.7-3.1-18.6,5.3-36c7.4-15.3,23.4-30.1,26.1-29.1c2.7,1-3.1,23-9.2,37C48.7,89.9,34.7,107.3,31.8,105.8z
		 M18.5,80.8c2.6-0.5,9.3,18.7,10.6,44.7c1.3,26-1.3,46.2-3.1,46.2c-1.8,0-15.2-11.2-16-38.7C9.2,105.4,15.9,81.3,18.5,80.8z
		 M288.6,414.8c-3.9,1.3-5.2-15.6-37.7-37.7c-5.2-3.5-10-6.5-14.5-8.9c-3.8,2.2-7.8,4.7-12,7.6c-32.5,22.1-33.8,39-37.7,37.7
		c-3.9-1.3-10.1-8.3-10.1-8.3s22.2-27.3,48.7-42.4c-15.5-6.9-24.3-7.1-24.3-7.1s-11.2,18.7-46,16.6c-34.8-2.1-53.2-9.9-59-13.8
		c-1.4-0.9-7.3-7,36.9-11.2c41.5-3.9,74.2-1.4,103,10.1c29.6-12.7,63.3-15.5,106.3-11.5c44.2,4.2,38.3,10.2,36.9,11.2
		c-5.7,3.9-24.2,11.7-59,13.8c-34.7,2.1-46-16.6-46-16.6s-9.8,0.2-27,8.3c27.7,14.8,51.4,43.9,51.4,43.9S292.5,413.5,288.6,414.8z
		 M315.3,339.4c-8.6-1.6,6.9-20.4,23.2-35.3c16.4-14.9,32.2-27.5,33.9-26.2c1.7,1.3-4.3,32.4-14.9,45.3
		C345.1,338.3,323.9,340.9,315.3,339.4z M353.8,342c-1.8-1.8,4.9-11.9,36.4-29.6c31.4-17.7,48-21.6,48.8-19.2
		c0.4,1.3-11.7,28.3-36.6,42.9C377.8,350.3,355.1,343.8,353.8,342z M375.1,311.1c-2.9-0.8-0.8-20.3,6.5-45.5
		c7.3-25.2,17.1-41.6,20.3-40.3c1.9,0.8,10.4,20,3.9,47.8C399.2,300.9,376.9,311.8,375.1,311.1z M403.1,299.3
		c-2.7-0.9,10-24.8,26.6-43.6c16.6-18.8,37-36.5,38.4-35.6c1.4,0.9-5.6,30.8-20.5,48.8C430.1,290,405.8,300.2,403.1,299.3z
		 M418.6,258.9c-3.6,0.8-7.9-21.7-9.5-44.8c-1.6-23.1,0.1-40.6,3.8-40.8c2.7-0.1,17.5,24.2,18.4,43.1
		C432.7,246.1,422.2,258.1,418.6,258.9z M474,147.4c1.4,1.1,3.5,26.7-4.7,48.7c-10.1,27.3-28.2,38.5-30.4,37.8
		c-3.5-1.2,5.1-33.9,11.8-49.1C458.7,166.9,471.3,145.4,474,147.4z M413.1,124.8c2.5-0.6,18.1,15.7,25.1,34.2
		c7,18.4,2.9,42.7,0.6,44c-2.2,1.3-12.3-16.9-19.7-37.4C411.7,145.1,410.6,125.5,413.1,124.8z M439.2,141.1
		c-1.6,2-16.2-14.6-25.8-29.3c-9.6-14.7-17.4-35.5-15.1-36.6c2.3-1.2,14.8,4.5,29.1,22.7C442.1,116.6,441.2,138.6,439.2,141.1z
		 M443.5,104.5c-2.9,1.4-16.9-16-22.2-28.1c-6.2-14-11.9-36-9.2-37c2.7-1,18.7,13.8,26.1,29.1C446.6,85.9,446.8,102.8,443.5,104.5z
		 M456.9,79.4c2.6,0.5,9.2,24.7,8.4,52.2c-0.8,27.5-14.2,38.7-16,38.7c-1.8,0-4.4-20.3-3.1-46.2C447.5,98.1,454.3,78.9,456.9,79.4z"
		/>
</g>
<g>
	<path class="st1" d="M89,490.6c0,2.4-0.2,13.9-3.7,23.1c-3.9,10.2-14.3,14.1-21.9,14.1c-17.8,0-21.7-12.5-21.7-29.6v-58.2H23v65.8
		c0,19.8,11.8,35.5,32.3,35.5c13.7,0,26.3-5.1,33.7-17.4h0.4v14.5h18.2v-98.4H89V490.6z"/>
	<path class="st1" d="M143.1,440.1h-18.2v98.4h18.6v-53.5c0-19.2,5.1-23.5,7.8-26.3c7.8-7.8,18-7.2,18-7.2
		c15.7,0,22.5,8.8,22.5,25.1v61.9h18.6v-68c0-31.5-30.4-33.3-37.2-33.3c-9.8,0-23.5,5.1-29.8,17.4h-0.4V440.1z"/>
	<path class="st1" d="M244.6,538.4v-98.4H226v98.4H244.6z M224.2,417.1h22.1V397h-22.1V417.1z"/>
	<path class="st1" d="M339.4,471.6c-1-21.4-16.7-34.5-37.4-34.5c-31.2,0-45.7,24.1-45.7,52.9c0,29,12.5,51.3,44.1,51.3
		c21.7,0,38.2-13.5,39.8-35.7h-18.6c-1,14.1-8.6,22.1-21,22.1c-17.8,0-24.7-15.5-24.7-38.6c0-23.1,6.9-38.6,24.7-38.6
		c13.3,0,19.2,8.6,20.2,21H339.4z"/>
	<path class="st1" d="M435.2,492.8v-9.2c0-27.2-13.9-45.8-43.3-46.4c-31.2,0-45.7,24.1-45.7,52.9c0,29,12.5,51.3,44.1,51.3
		c23.5,0,40.8-11.2,43.7-33.5h-19.6c-2.2,14.3-9.4,20-23.9,20c-19,0-26.1-17.8-24.7-35.1H435.2z M365.9,479.8
		c0-16.1,9.2-29.2,24.7-29.2c18,0,25.5,12.7,25.1,29.2H365.9z"/>
	<path class="st1" d="M472.9,538.4V453h22.7v-12.9h-22.7v-15.7c-0.6-10.8,5.5-13.5,16.1-13.5c3.1,0,6.3,0.4,9.4,0.6V396
		c-4.5-0.8-8.8-2-13.3-2c-13.9,0-30.2,5.7-30.8,27.2v18.8H435V453h19.2v85.4H472.9z"/>
</g>
</svg>
