<?xml version="1.0" encoding="utf-8"?>
<!-- Generator: Adobe Illustrator 21.0.0, SVG Export Plug-In . SVG Version: 6.00 Build 0)  -->
<svg version="1.1" id="Layer_1" xmlns="http://www.w3.org/2000/svg" xmlns:xlink="http://www.w3.org/1999/xlink" x="0px" y="0px"
	 viewBox="0 0 90.9 119.5" style="enable-background:new 0 0 90.9 119.5;" xml:space="preserve">
<style type="text/css">
	.st0{fill:#00AEEF;}
</style>
<path class="st0" d="M75.8,94.6c0-2.9,3.2-3.1,5.3-3v4.4C79.9,96.7,79,97,78.5,97C77.9,97,75.8,97.1,75.8,94.6 M85.2,98.7
	c-0.2-0.4-0.3-1.3-0.3-2.1v-6.7c0-4.5-3.5-5.5-6.1-5.5c-2.2,0-4.2,0.3-5.4,0.6v2.4c1.4-0.3,3.1-0.9,5.2-0.8c2.1,0.1,2.5,1.4,2.5,2.9
	v0c-2.5,0-9.4-0.1-9.3,5.2c0,3.1,2.7,4.4,5.1,4.4c1.9,0,3.6-0.7,4.3-1.2c0.1,0.3,0.1,0.5,0.3,0.7H85.2z"/>
<path class="st0" d="M60.3,84.3h-3.7l0,9.2c0,2-1,3-2.8,3c-2.1,0-2.7-1-2.7-3v-9.2h-3.8v9.4c0,3.6,2.7,5.2,6.1,5.2
	c1.4,0,3.6-0.3,5.1-1.2c1.5,0.9,3.6,1.2,5.1,1.2c3.4,0,6.1-1.6,6.1-5.2v-9.4h-3.8l0,9.2c0,2-0.7,3-2.8,3c-1.9,0-2.7-1-2.7-3V84.3z"
	/>
<path class="st0" d="M28.1,84.4c-1.2,0-4.3,0.2-6.3,0.7l0,13.6h3.7V87.1c1-0.2,1.8-0.3,2.7-0.3c2.1,0,2.8,1,2.8,3l0,8.9h3.8v-9.1
	C34.9,86,32.1,84.4,28.1,84.4"/>
<path class="st0" d="M12.4,99c1.2,0,4.3-0.2,6.3-0.7l0-13.9H15v11.9c-1,0.2-1.8,0.3-2.7,0.3c-2.1,0-2.8-1-2.8-3l0-9.2H5.7v9.4
	C5.7,97.4,8.5,99,12.4,99"/>
<path class="st0" d="M44.6,84.4c-4,0-6.8,1.6-6.8,5.2v9.1h3.8l0-8.7c0-3.1,1.9-3.3,3.7-3.1v-2.5C45,84.4,44.8,84.4,44.6,84.4"/>
<path class="st0" d="M46.5,111.2c0,2.6-1.4,3.2-2.9,3.2H31.9c0,0,0-0.1,0-0.1v-8h-3.8l0,7.6c0,3.1-1.9,3.3-3.7,3.1v2.5
	c0.3,0,0.5,0,0.7,0c2.9,0,5.1-0.8,6.2-2.6h12.2c4,0,6.8-1.6,6.8-5.2v-5.4h-3.8L46.5,111.2z"/>
<path class="st0" d="M61.2,108.3v4.2c-1.9,0.1-4.9,0.2-4.9-2.1C56.3,108.1,59.3,108.2,61.2,108.3 M52.7,110.4c0,4.9,6.2,4.3,8.5,4.1
	c-0.1,1.4-0.5,2.5-2.5,2.6c-2.1,0.1-3.8-0.5-5.2-0.8v2.4c1.2,0.3,3.2,0.6,5.4,0.6c2.6,0,6.1-1,6.1-5.5v-7.4
	c-2.2-0.2-4.4-0.3-5.6-0.3C55.8,106.2,52.7,106.8,52.7,110.4"/>
<path class="st0" d="M20.1,108.3v4.2c-1.9,0.1-4.9,0.2-4.9-2.1C15.2,108.1,18.2,108.2,20.1,108.3 M11.6,110.4c0,4.9,6.2,4.3,8.5,4.1
	c-0.1,1.4-0.5,2.5-2.5,2.6c-2.1,0.1-3.8-0.5-5.2-0.8v2.4c1.2,0.3,3.2,0.6,5.4,0.6c2.6,0,6.1-1,6.1-5.5v-7.4
	c-2.2-0.2-4.4-0.3-5.6-0.3C14.6,106.2,11.6,106.8,11.6,110.4"/>
<polygon class="st0" points="81.2,103 81.2,116.8 85,116.8 85,103 "/>
<rect x="5.7" y="103" class="st0" width="3.8" height="13.8"/>
<path class="st0" d="M74.6,111.4c0,2-0.7,3-2.8,3h-4.4v2.5h4.3c4,0,6.8-1.6,6.8-5.2V103h-3.8L74.6,111.4z"/>
<path class="st0" d="M69.3,113c1.6,0,2.4-0.7,2.4-2.4V103H68l0,10H69.3z"/>
<path class="st0" d="M50.5,102.9c0,1-1,1.8-2.2,1.8c-1.2,0-2.2-0.8-2.2-1.8c0-1,1-1.8,2.2-1.8C49.5,101.1,50.5,101.9,50.5,102.9"/>
<path class="st0" d="M21,2.9c-0.8,0-1.8,0.7-2.8,1.2c-1.6,0.8-3.3,1.7-4.5,3c-1.9,2-2.7,5.5-3.2,7.4c-0.1,0.3,0.8-0.4,2.1-1.6
	c1.2-1,2.7-2.4,3.9-4.1C18.4,6.1,19.1,5.2,21,2.9"/>
<path class="st0" d="M12.7,7.2c-1,0.4-1.9,1.8-2.6,3.7c-0.3,0.7-0.4,1.9-0.7,2.5c-0.3,1-0.5,2-0.7,3c-0.3,1.3-0.7,2.5-1,3.5
	c-0.2,0.6,0.4-1.3,2.1-3.2c0.6-0.7,1.5-1.4,2.4-2c0.6-0.4,1.2-0.7,1.6-1.1c0.7-0.8,1.9-1.8,2.6-2.6c0.5-0.6,0.6-1.3,0.6-1
	c0,0.6-0.1,1.6-0.4,2.6c-0.3,0.8-0.9,1.6-1.1,2c-0.8,1.3-1.3,1.8-2.3,2.7c-1.6,1.4-3,2.6-3.5,2.9c-1.1,0.8-2.1,2.1-2.6,3
	c-0.3,0.5-0.4,0.9-0.4,0.6c0-1.3-0.3-3.2-0.3-6.6c0-1.9,0.3-3.9,1-5.4c0.4-0.9,0.9-1.5,1.7-2.3C10.1,8.3,11.3,7.3,12.7,7.2"/>
<path class="st0" d="M5.6,13.3c-0.1,0.4-0.5,1.4-0.7,2.6c-0.2,1.1-0.1,2.3-0.1,3.3c0,1.5,0.5,3,0.5,4.5c0.1,2.2,0,4.2-0.1,5.9
	c0,0.1,0.3-1.9,1.3-3.8c0.6-1.1,1.2-2.1,2.1-2.9c1.6-1.6,3.3-3.3,4.2-4.1c0,0-0.2,2.4-1.3,4.7c-1,2.1-2.8,4.1-2.9,4.1
	c-0.5,0.5-0.9,1.3-1.4,2.1c-0.5,0.9-1.1,1.8-1.4,2.6c-0.5,1.3-0.6,2.3-0.7,2.2c-0.5-1.4-0.6-2.6-1-3.8c-0.5-1.5-1.3-2.9-1.6-4.8
	c-0.2-1.1-0.5-2.3-0.4-3.4c0.1-1.4,0.3-3.2,0.7-4.3C3.1,17.6,4.9,13.7,5.6,13.3"/>
<path class="st0" d="M10.4,27c0,0.7,0.2,1.4,0.1,2.1c-0.2,3.2-0.9,5.8-1.6,8.1c-0.5,1.8-1.5,3.6-1.5,6.2c0,2.3,0.2,3.8,0,3.4
	c-0.2-0.3-1.2-1.9-2.4-3.4c-2-2.4-3.4-3.9-4.3-7.1c-0.7-2.4-0.9-4.9-0.6-7.2c0.2-1.5,0.6-2.9,1-4c0.1-0.4-0.3,1,0.1,3.1
	c0.2,0.9,0.7,1.9,1,2.9c0.4,1.4,1.4,2.6,1.9,4.1c0.6,1.5,0.8,3.3,1.1,4.4c0.5,1.9,0.8,3,0.8,2.8c0-1-0.3-1.9-0.4-2.7
	c-0.1-1.7,0.2-3.2,1.1-5.4c0.5-1.2,1.3-2.1,2-3.3C9.4,29.6,10.4,28.4,10.4,27"/>
<path class="st0" d="M0.1,38.3c0.5,1.1,0.8,2.8,2.1,4.4c1.5,2,4.1,4.1,5.7,6c0.8,0.9,1.2,1.9,1.7,2.7c0.5,0.7,1,1.2,1.2,1.4
	c0.4,0.5-1.6-2.3-1.8-5.5c-0.1-2.5,0.8-5.6,0.8-6.7c0.1-2.1,0.3-3.8,0.5-3c0.1,0.3,0.7,1.8,1.1,3.8c0.5,2.3,0.7,5.1,0.7,6
	c0,2.1,0.2,4.3,0.8,6.3c0.3,1.1,0.9,2.2,1.3,3.1c0.4,0.7-7.8-4.6-9.8-6.7c-2.1-2.3-3.9-4.7-4.4-7.9C-0.1,41,0.1,39.7,0.1,38.3"/>
<path class="st0" d="M13,46.3c0.8,0.8,1.3,1.7,1.8,2.4c0.8,1.2,1.6,2.2,2.2,3.4c0.9,1.9,1.5,4.1,2.4,6.4c0.4,1,1,2.6,1.8,3.6
	c0.9,1.2,1.9,2.1,1.8,2.2c-0.1,0-0.5-0.3-1.6-0.5c-3-0.6-5.1-0.8-7-1.4c-2.4-0.7-4.4-2.1-7.4-4.8c-2.7-2.5-4-7.3-3.9-7.2
	c0.4,0.3,1.2,2.2,3.9,4.3c1,0.8,2.3,1.2,3.6,1.8c1.7,0.9,3.2,1.6,4.6,2.6c0.9,0.6,1.7,1.3,2.6,1.9c1,0.6,1.7,0.9,1.7,1
	c0.6,0.7-1.6-1.1-2.9-3.3c-0.5-0.8-1.2-1.8-1.5-2.9c-0.5-1.8-0.6-3.9-1-5.8C13.8,48.7,13.4,47.5,13,46.3"/>
<path class="st0" d="M19.6,55.8c1.2,0.9,3,2.3,4.9,4.1c0.9,0.8,1.7,1.8,2.7,2.7c0.9,0.8,1.9,1.5,2.8,2c1.6,1,2.9,1.2,4.3,1.6
	c0.2,0.1-0.4,0.1-1.6,0.5c-1.2,0.4-3,1-5.5,1.4c-1.7,0.3-3.4,0.6-5.2,0.5c-3.1-0.1-6.2-1-8.6-3c-1.9-1.6-2.8-3.1-3.3-3.8
	c0-0.1,2.5,1.9,6,2.8c1.9,0.5,4.1,0.3,6.4,0.6c0.8,0.1,1.7,0.1,2.5,0.2c1.5,0.2,2.7,0.6,4,0.6c0,0-3-0.7-4.9-2.5
	C21.4,61.1,20.3,57.3,19.6,55.8"/>
<path class="st0" d="M17.5,69.2c0.9,0.8,1.5,1.5,2.3,2c6.6,4.6,12.1,1.9,15.9-0.7c1.6-1.1,2.4-1.9,3.7-2.5c0.6-0.3,1.1-0.5,2.1-0.6
	c1.2-0.1,3.3,0.4,4.7,1c0.3,0.2,2.4,1.4,4.5,3.1c2,1.6,3.8,3.6,4.9,4.8c0.1,0.1,2-1.5,2-1.6c-1.4-1.1-2.6-2.4-4-3.5
	c-1.1-0.9-2.4-1.6-3.6-2.4c-1.4-0.9-2.6-1.3-3.9-1.7c-1.2-0.4-2.3-0.7-3.8-0.9c-2.2-0.2-4.5-0.4-6.6,0.5l-8.3,3.5
	c-1.5-0.2-3.2,0.6-4.7,0.4C21,70.6,19.3,70.1,17.5,69.2"/>
<path class="st0" d="M69.9,2.9c0.8,0,1.8,0.7,2.8,1.2c1.6,0.8,3.2,1.7,4.5,3c1.9,2,2.7,5.5,3.2,7.4c0.1,0.3-0.8-0.4-2.1-1.6
	c-1.2-1-2.7-2.4-3.9-4.1C72.5,6.1,71.8,5.2,69.9,2.9"/>
<path class="st0" d="M78.2,7.2c1,0.4,1.9,1.8,2.6,3.7c0.3,0.7,0.4,1.9,0.7,2.5c0.3,1,0.5,2,0.7,3c0.3,1.3,0.7,2.5,1,3.5
	c0.2,0.6-0.4-1.3-2.1-3.2c-0.6-0.7-1.5-1.4-2.4-2c-0.6-0.4-1.2-0.7-1.6-1.1c-0.7-0.8-1.9-1.8-2.6-2.6c-0.5-0.6-0.6-1.3-0.6-1
	c0,0.6,0.1,1.6,0.4,2.6c0.3,0.8,0.9,1.6,1.1,2c0.8,1.3,1.3,1.8,2.3,2.7c1.6,1.4,3,2.6,3.5,2.9c1.1,0.8,2.1,2.1,2.6,3
	c0.3,0.5,0.4,0.9,0.4,0.6c0-1.3,0.3-3.2,0.3-6.6c0-1.9-0.3-3.9-1-5.4c-0.4-0.9-0.9-1.5-1.7-2.3C80.8,8.3,79.6,7.3,78.2,7.2"/>
<path class="st0" d="M85.3,13.3c0.1,0.4,0.5,1.4,0.7,2.6c0.2,1.1,0.1,2.3,0.1,3.3c0,1.5-0.5,3-0.5,4.5c-0.1,2.2,0,4.2,0.1,5.9
	c0,0.1-0.3-1.9-1.3-3.8c-0.6-1.1-1.2-2.1-2.1-2.9c-1.6-1.6-3.3-3.3-4.2-4.1c0,0,0.2,2.4,1.3,4.7c1,2.1,2.8,4.1,2.9,4.1
	c0.5,0.5,0.9,1.3,1.4,2.1c0.5,0.9,1.1,1.8,1.4,2.6c0.5,1.3,0.6,2.3,0.7,2.2c0.5-1.4,0.6-2.6,1-3.8c0.5-1.5,1.3-2.9,1.6-4.8
	c0.2-1.1,0.5-2.3,0.4-3.4c-0.1-1.4-0.3-3.2-0.7-4.3C87.8,17.6,86,13.7,85.3,13.3"/>
<path class="st0" d="M80.5,27c0,0.7-0.2,1.4-0.1,2.1c0.2,3.2,0.9,5.8,1.6,8.1c0.5,1.8,1.5,3.6,1.5,6.2c0,2.3-0.2,3.8,0,3.4
	c0.2-0.3,1.2-1.9,2.4-3.4c2-2.4,3.4-3.9,4.3-7.1c0.7-2.4,0.9-4.9,0.6-7.2c-0.2-1.5-0.6-2.9-1-4c-0.1-0.4,0.3,1-0.1,3.1
	c-0.2,0.9-0.7,1.9-1,2.9c-0.4,1.4-1.4,2.6-1.9,4.1c-0.6,1.5-0.8,3.3-1.1,4.4c-0.5,1.9-0.8,3-0.8,2.8c0-1,0.3-1.9,0.3-2.7
	c0.1-1.7-0.2-3.2-1.1-5.4c-0.5-1.2-1.3-2.1-2-3.3C81.5,29.6,80.5,28.4,80.5,27"/>
<path class="st0" d="M90.8,38.3c-0.5,1.1-0.8,2.8-2.1,4.4c-1.5,2-4.1,4.1-5.7,6c-0.8,0.9-1.2,1.9-1.7,2.7c-0.5,0.7-1,1.2-1.2,1.4
	c-0.4,0.5,1.6-2.3,1.8-5.5c0.1-2.5-0.8-5.6-0.8-6.7c-0.1-2.1-0.2-3.8-0.5-3c-0.1,0.3-0.7,1.8-1.1,3.8c-0.5,2.3-0.7,5.1-0.7,6
	c0,2.1-0.2,4.3-0.8,6.3c-0.3,1.1-0.9,2.2-1.3,3.1c-0.4,0.7,7.8-4.6,9.8-6.7c2.1-2.3,3.9-4.7,4.4-7.9C91,41,90.8,39.7,90.8,38.3"/>
<path class="st0" d="M77.9,46.3c-0.8,0.8-1.3,1.7-1.8,2.4c-0.8,1.2-1.6,2.2-2.2,3.4c-0.9,1.9-1.5,4.1-2.4,6.4c-0.4,1-1,2.6-1.8,3.6
	c-0.9,1.2-1.9,2.1-1.8,2.2c0.1,0,0.4-0.3,1.6-0.5c3-0.6,5.1-0.8,7.1-1.4c2.4-0.7,4.4-2.1,7.4-4.8c2.7-2.5,4-7.3,3.9-7.2
	c-0.4,0.3-1.2,2.2-3.9,4.3c-1,0.8-2.3,1.2-3.6,1.8c-1.7,0.9-3.2,1.6-4.6,2.6c-0.9,0.6-1.7,1.3-2.6,1.9c-0.9,0.6-1.7,0.9-1.7,1
	c-0.6,0.7,1.6-1.1,2.9-3.3c0.5-0.8,1.2-1.8,1.5-2.9c0.5-1.8,0.6-3.9,1-5.8C77.1,48.7,77.5,47.5,77.9,46.3"/>
<path class="st0" d="M71.3,55.8c-1.2,0.9-2.9,2.3-4.9,4.1c-0.9,0.8-1.7,1.8-2.7,2.7c-0.9,0.8-1.9,1.5-2.8,2c-1.6,1-2.9,1.2-4.3,1.6
	c-0.2,0.1,0.4,0.1,1.6,0.5c1.2,0.4,3,1,5.5,1.4c1.7,0.3,3.4,0.6,5.2,0.5c3.1-0.1,6.2-1,8.6-3c2-1.6,2.8-3.1,3.3-3.8
	c0-0.1-2.5,1.9-6,2.8c-1.9,0.5-4.1,0.3-6.4,0.6c-0.8,0.1-1.7,0.1-2.5,0.2c-1.5,0.2-2.7,0.6-4,0.6c0,0,3-0.7,4.9-2.5
	C69.5,61.1,70.6,57.3,71.3,55.8"/>
<path class="st0" d="M73.4,69.2c-0.8,0.8-1.5,1.5-2.3,2c-6.6,4.6-12.1,1.9-15.9-0.7c-1.6-1.1-2.4-1.9-3.7-2.5
	c-0.6-0.3-1.1-0.5-2.1-0.6c-1.2-0.1-3.3,0.4-4.7,1c-0.3,0.2-2.4,1.4-4.5,3.1c-2,1.6-3.8,3.6-4.9,4.8c-0.1,0.1-2-1.5-2-1.6
	c1.4-1.1,2.6-2.4,4-3.5c1.1-0.9,2.4-1.6,3.6-2.4c1.5-0.9,2.6-1.3,3.9-1.7c1.2-0.4,2.3-0.7,3.8-0.9c2.2-0.2,4.5-0.4,6.6,0.5l8.3,3.5
	c1.5-0.2,3.2,0.6,4.7,0.4C69.9,70.6,71.6,70.1,73.4,69.2"/>
<path class="st0" d="M67.3,54.3l-4-4c4.5-4.5,7.4-10.6,7.6-17.3h5.4v-0.8H71c0,0,0-0.1,0-0.1c0-6.9-2.7-13.1-7.1-17.7l4-4
	c5.4,5.6,8.8,13.3,8.8,21.7C76.6,40.8,73.1,48.6,67.3,54.3 M45.5,63.4v-5.6c6.7,0,12.8-2.7,17.3-6.9l4,4
	C61.2,60.1,53.7,63.3,45.5,63.4 M44.7,38.4v5.9c-2.9-0.1-5.6-1.3-7.6-3.2l4.2-4.2c-0.2-0.2-0.4-0.3-0.6-0.5l-4.1,4.2
	c-1.9-2-3.2-4.7-3.4-7.6H39c0-0.3-0.1-0.5-0.1-0.8h-5.9c0,0,0-0.1,0-0.1c0-3.1,1.1-5.8,3-8l4.2,4.2c0.2-0.2,0.3-0.4,0.5-0.6
	l-4.1-4.1c2.1-2.1,5-3.5,8.1-3.7v5.9c0.2,0,0.4,0,0.6,0c0.1,0,0.1,0,0.2,0v-5.9c3.3,0,6.2,1.4,8.4,3.5l-4.2,4.1
	c0.2,0.2,0.4,0.4,0.5,0.6l4.2-4.2c2,2.2,3.2,5.1,3.2,8.2c0,0,0,0.1,0,0.1h-5.9c0,0.3,0,0.5-0.1,0.8h5.9c-0.2,3.1-1.6,5.8-3.7,7.9
	l-4.2-4.1c-0.2,0.2-0.4,0.3-0.6,0.5l4.2,4.2c-2.1,1.8-4.8,2.9-7.8,3v-5.9c-0.1,0-0.1,0-0.2,0C45.1,38.5,44.9,38.5,44.7,38.4
	 M44.7,49.8c-4.4-0.2-8.5-1.9-11.5-4.8l3.3-3.3c2.2,2,5,3.2,8.2,3.4V49.8z M44.7,57c-6.4-0.2-12.2-2.7-16.6-6.9l4.5-4.5
	c3.2,3,7.4,4.9,12,5V57z M44.7,63.4c-8.2-0.2-15.6-3.5-21.1-8.8l4-4c4.5,4.3,10.5,6.9,17.1,7.1V63.4z M14,33h5.6
	c0.2,6.7,3,12.7,7.4,17.1l-4,4C17.7,48.6,14.3,41.2,14,33 M32.1,19.1l-4.5-4.5C32,10.1,38,7.4,44.7,7.2v6.4
	C39.8,13.7,35.4,15.8,32.1,19.1 M32.7,19.6c3.1-3.1,7.3-5.1,12-5.3v4.7c-3.4,0.2-6.5,1.6-8.7,3.9L32.7,19.6z M32.3,32.2h-4.7
	c0,0,0-0.1,0-0.1c0-4.6,1.7-8.7,4.6-11.9l3.3,3.3c-2,2.3-3.2,5.3-3.2,8.5C32.3,32.1,32.3,32.2,32.3,32.2 M27.6,33h4.7
	c0.2,3.2,1.6,6,3.7,8.2l-3.3,3.3C29.7,41.5,27.8,37.5,27.6,33 M26.8,33C27,37.7,29,41.9,32.1,45l-4.5,4.5
	c-4.2-4.3-6.9-10.1-7.2-16.6H26.8z M26.8,32.2h-6.4c0,0,0-0.1,0-0.1c0-6.5,2.5-12.5,6.7-16.9l4.5,4.5c-3,3.3-4.8,7.7-4.8,12.4
	C26.8,32.1,26.8,32.2,26.8,32.2 M14,32.1C14,15,27.7,1.1,44.7,0.8v5.6c-6.9,0.2-13.1,3-17.6,7.6l-3.8-3.8l-0.5,0.5l3.8,3.8
	c-4.3,4.6-6.9,10.7-6.9,17.5c0,0,0,0.1,0,0.1H14C14,32.2,14,32.1,14,32.1 M45.5,14.3c4.8,0,9.1,2,12.3,5.1l-3.3,3.3
	c-2.3-2.2-5.5-3.6-8.9-3.7V14.3z M45.5,7.2c6.7,0,12.8,2.8,17.3,7.2l-4.5,4.5c-3.3-3.2-7.8-5.3-12.8-5.3V7.2z M63.8,32.2
	c0,0,0-0.1,0-0.1c0-4.9-1.9-9.4-5-12.7l4.5-4.5c4.3,4.5,6.9,10.5,6.9,17.2c0,0,0,0.1,0,0.1H63.8z M58.3,45.3
	c3.2-3.2,5.3-7.5,5.5-12.3h6.4c-0.2,6.6-3,12.5-7.4,16.8L58.3,45.3z M57.8,45.8l4.5,4.5C57.9,54.4,52,56.9,45.5,57v-6.4
	C50.2,50.6,54.5,48.8,57.8,45.8 M57.2,45.3c-3.1,2.8-7.2,4.5-11.7,4.6v-4.7c3.2,0,6.1-1.2,8.4-3.2L57.2,45.3z M63.1,33
	c-0.2,4.6-2.2,8.7-5.3,11.7l-3.3-3.3c2.2-2.2,3.7-5.1,3.9-8.4H63.1z M54.9,23.3l3.3-3.3c3,3.2,4.8,7.4,4.8,12.1c0,0,0,0.1,0,0.1
	h-4.7c0,0,0-0.1,0-0.1C58.4,28.7,57.1,25.6,54.9,23.3 M45.5,0.8c8.5,0,16.2,3.5,21.8,9.1l-4,4c-4.6-4.5-10.9-7.4-17.9-7.4V0.8z
	 M45.3,0C27.6,0,13.2,14.4,13.2,32.1s14.4,32.1,32.1,32.1s32.1-14.4,32.1-32.1S63,0,45.3,0"/>
<path class="st0" d="M49.2,5.5c0.5,0,1.8,0.1,2.2-0.1c1-0.5,1.4-0.8,0.1-1.3c-1.2-0.4-1.6-0.3-2.8-0.1c-0.7,0.1-1,0.7-1.7,0.7
	c-0.4,0-0.5,0.7-0.1,0.9C47.6,6.2,49.2,5.8,49.2,5.5"/>
<path class="st0" d="M60,7.6c-0.6,0-0.6,0.3-0.3,0.7c0.4,0.5,1.5,1.2,1.5,1.1c0-0.3-0.1-0.8,0.1-1.2C61.4,8.1,61,8,60.5,7.8
	C60.4,7.8,60.3,7.6,60,7.6"/>
<path class="st0" d="M59.2,8.7c-0.4,0-1.1,0.1-1.6,0.3c-0.2,0.1-0.6,0-0.6,0.2l-0.2,3c0,0.5,0.7,0.6,0.9,0.8
	c0.1,0.1-0.1,0.3-0.1,0.5c0,0.3,0.2,0.7,0.2,1.1c0,0.4-0.2,0.7,0,0.9c0.1,0.1,0.7-0.6,1.2-0.8c0.2-0.1,0.4,0.2,0.5,0.2
	c0.3,0,0.8,1,0.9,1.2c0.1,0.4-0.2,0.7-0.2,1c0.1,0.7,0.6,1,1.5,1.1c0.4,0.1,0.6,0.5,0.8,0.9c0.4,0.6,0.9,1.1,1.8,1
	c0.4-0.1,1.1,1,1.4,1.5c0.3,0.5,0.5,0.9,1,1.1c0.2,0.1,0.5-0.2,0.9-0.1c1.1,0.4,1.5,0.5,1.3-0.7c-0.2-1.9-0.9-2.5-1.4-3.2
	c-0.7-1.2-1.3-1.9-2.8-3.5c-1-1.1-1.9-2.9-2.4-4.1c-0.1-0.3-0.4-0.4-0.6-0.6c-0.4-0.5-0.8-0.9-1.3-1c-0.1,0-0.2-0.3-0.5-0.4
	C59.7,8.9,59.6,8.8,59.2,8.7"/>
<path class="st0" d="M56.6,14.6c-0.1-0.2-0.9-1.1-0.9-0.9l0.6,2.3c0.1,0.5-0.1,1.3,0.1,1.5c0.1,0.1-0.2,0.3-0.1,0.5
	c0.7,1.2,0.8,0.6,1.4,1.3c0.2,0.2,0.4,0.2,0.5,0.2c0.3,0,0.8,1,0.9,1.2c0,0.2,1,1.1,1.5,2.1c0.2,0.5-0.4,1.2-0.3,1.6
	c0.1,0.4,0.9,0.7,0.9,0.7c0.4,0.4,1.1,1,1.4,1.7c0.2,0.5,0.1,1,0,1.5c-0.2,1.3-1.8,2.2-1,2.2c0.8,0,1.9-1,2.3-2.4
	c0.2-0.7,0-1.5-0.1-2.2c0-0.2,0.2-0.6,0.2-0.8c-0.1-0.4-0.2-1.1-0.5-1.4c-0.2-0.2-0.5-0.1-0.6-0.4c-0.1-0.2,0.4-0.7,0.4-0.8
	c-0.1-0.3-0.6,0-0.7-0.4c0-0.1,0.4-0.4,0.4-0.7c0-0.1-0.4-0.1-0.5-0.3c-0.1-0.2-0.8,0.5-1,0.4c-0.3-0.2-0.1-0.6-0.4-0.9
	c-0.8-0.7-1.6-1.8-1.9-2.6c-0.1-0.3-0.7-1.5-0.8-1.7c-0.1-0.1-0.1-0.4-0.2-0.5c-0.4-0.3-0.7-0.2-1-0.4
	C57.1,15.2,56.8,14.9,56.6,14.6"/>
<path class="st0" d="M48.3,52.7c0-0.2,0-0.5-0.3-0.6c-0.3-0.1-0.9,0.1-1.2,0c-1.2-0.2-2.6-0.5-3-0.9l-1.5-1.6
	c-0.6-0.7-1.7-1.4-1.7-2.4c0-0.3,0-0.3,0.3-0.8c0.2-0.2,0.1-0.6,0.3-0.8c0.2-0.4,0.5-0.2,0.9-0.6c0.6-0.5,1.4-1.9,1.9-1.4l0.4,0.4
	L45,44l0.6-0.4l1,0c0.5,0,1.4,1,2,0.9c0.6-0.1,0.7-0.5,1.1-0.9c0.5-0.3,1.3-0.6,1.7-0.6c0.4,0,0.8,0.5,1.2,0.6
	c0.6,0.2,1.2,0.1,1.7,0.5c1.1,0.8,2,1.7,3.3,2c0.3,0.1,0,0.7,0.1,1.1c0,0.3,0.3,0.6,0.6,0.6c0.3,0,0.5,0.2,0.7,0.3
	c0.3,0.2,0.5,0.4,0.5,0.9c0,0.5-0.7,0.6-1,1.5c-0.1,0.3,0.5,0.5,0.5,1c0,0.7-0.5,1.8-0.7,2.1c-0.4,0.9-1.2,1.6-1.8,2.5
	c-0.6,0.8-1.3,1.5-2.2,1.9c-0.6,0.2-1.1,0.4-1.6,0.1c-0.8-0.5-1.6-1.7-2.4-2.2c-0.6-0.3-0.9-0.7-1.4-1c-0.4-0.3-1.4-0.8-1-1.6
	L48.3,52.7z"/>
<path class="st0" d="M62.4,46.1c0.2,0.3,0.3,0.7,0.4,1c0.3,0.7,0.6,1.3-0.1,1.4c-0.6,0.1-0.6,1-1,1c-0.4,0-0.5-0.2-0.6-0.4
	c-0.5-0.4-0.2-1.1,0-2.2c0.1-0.3,0.2-0.8,0.3-1.2C61.5,45.3,61.7,45.1,62.4,46.1"/>
<path class="st0" d="M22.5,39c-0.1,0.1-1.1-0.2-2.3-0.3c-0.2,0-0.3-0.7-0.4-0.7c-0.6,0.1-0.4,0.4-0.9,0.6c-0.6,0.3-1.2-0.4-1.6,0.1
	c-0.3,0.4-0.6,1.1-0.5,1.9c0.1,0.8,0,1.4,0.7,2.1c0.5,0.5,0.3,0,0.9,0.4c0.2,0.2,0.2,0.4,0.4,0.6c0.3,0.2,0.6-0.2,0.9,0
	c0.2,0.2,0.5,0.4,0.7,0.6c0.4,0.3,0.9,0.4,1.3,0.7c0.3,0.2-0.2,0.5,0.1,0.7c0.4,0.2,0.7,0.5,1.1,0.8c0.2,0.1,0.3-0.3,0.5-0.2
	c0.3,0.2,0.2,0.6,0.5,0.8c0.2,0.1,0.3,0.5,0.6,0.6c0.3,0.2,1.7,1.7,2.1,1.8c1.1,0.4,1.3-0.2,2.2-0.4c0.4-0.1,0.7,0.6,1.3,0.7
	c0.5,0.1,1.3-0.5,1.6-0.5c0.3,0,1.9-0.1,2.1-0.2c0.6-0.4,0.1-0.1,0-1.2c-0.1-1.4-2-1.3-2.8-3.3c-0.2-0.4,1-0.8,0.8-1.2
	c-0.3-0.6-0.6-1.1-0.9-1.7c-0.2-0.5,0.2-1.7-0.1-2.1c-0.5-1-0.2-2.8-1.1-3.1c-0.4-0.1-0.7-2-1.1-2.2c-0.3-0.1-0.1,1.8-0.5,1.8
	c-0.8,0-1.8-1.8-2.6-1.7c-0.6,0.1-1.6,0.7-2.1,1.5C22.9,36.6,22.8,38.4,22.5,39"/>
<path class="st0" d="M28.6,34.4c0-0.6,1-0.6,1.4-0.5c0.3,0.1,0.1-0.4,0.1-0.8c0.1-0.5,0.4-2.5,0.9-2.8c0.4-0.2,1.2,0,1.4,0.1
	c0.7,0.4,0,2,0.2,2.8c0.1,0.8-1.2,0.3-0.7,0.5c0.3,0.1-0.3-0.7-0.8-0.4c-0.2,0.1,0,0.4-0.1,0.7c0,0.3-0.2,0.5,0.2,0.7
	c0.1,0.1-1.1,0.1-0.9,0.2c0.4,0.1,0.1,0.9,0.9,0.9c0.3,0,0.3-0.6,0.4-0.9c0.2-0.5-0.2-0.6,0.2-0.6c0.3,0,0,0,0.4,0
	c0.2,0,0.6,0,0.8,0.1c0.8,0.2,1.7,0.1,2.4,0.3c0.3,0.1,0.1,0.3,0.2,0.5c0.1,0.2,0.4,0.2,0.7,0.1c0.3-0.1,0.2,0.3,0.3,0.8
	c0.1,0.2,0.1,0.6,0.8,0.4c0.2-0.1-0.4-0.5,0.2-0.7c0.1,0,0.1,1.3,0.7,1.3c0.9,0,0.8-0.7,0.9-1.2c0-0.4,0.7,0.3,1.1,0.1
	c0.7-0.3,0.6-0.8,0.5-1.7c0-0.2,0.4,0.3,0.5,0.1c0.1-0.2,0.2-0.7,0.4-1.1c0.2-0.3,0.5-0.5,0.5-0.8c0-0.4-0.7-0.4-0.9-0.6
	c-0.3-0.3,0-0.6-0.1-0.9c0-0.5,0.1-1.1,0.5-1.4c0.5-0.5,1.2-1.3,1.7-1.3c0.4,0,0.7,0.2,1-0.4c0.3-0.5-0.1-0.8,0-1.6
	c0-0.5,0.3,0.7,0.7,1.2c0.5,0.6,1,0.6,1.1,0.5c0-0.1,0.3-0.4,0.5-0.3c0.4,0.2,0.7,1.2,1.3,1.6c0.1,0.1,0.2,0.5,0.3,1
	c0,0.2-0.6,0.7-0.6,0.8c0.1,0.2,0.3,0.3,0.5,0.4c0.1,0,0.4,0.4,0.5,0.9c0.2,0.6,0.2,1.4,0.3,1.2c0.1-0.1,0.4,0.9-0.1,1.2
	c-0.4,0.2-1.6,0.4-1.9,0.6c-1.1,0.7-0.7,1.3-0.6,1.2c0.1,0-0.6,0.4-1.1,0.5c-0.6,0.1-2.2-0.3-1.9-0.2c0.5,0.1,1.3,1.2,1.3,2.4
	c0,0.8-0.2,1.7,0.4,1.9c0.3,0.1,1-0.1,1.7-0.2c1.4-0.2,3.1-0.7,3.3-1c0.1-0.3,0.6-0.4,0.8-0.4c0.4-0.1,0.6-0.2,0.6,0.2
	c0,0.3-0.4,0.3-0.5,0.4c-0.3,0.2-0.6,0-2.3,0.5c-0.6,0.2-1.5,0.3-2.5,0.4c-0.8,0.1-1.7,0.2-2.2,0.4c-0.2,0.1,0,0.3-0.2,0.4
	c-0.6,0.3-0.3,1.1-0.3,1.2c-0.1,0.1-0.1,0.8,0.9,0.4c0.7-0.3,2.2-1.8,2.8-1.9c0.4-0.1,0.4,0.4,0.6,0.4c0.3,0.1,0.5,0.4,0.8,0.4
	c0.2,0,0.1-0.5,0.3-0.5c0.3,0,0.7,0.4,0.9,0.4c0.2,0,0.1-0.5,0.3-0.5c0.6-0.1,1-0.3,1.3-0.5c0.3-0.3,0.8,0,0.9,0.1
	c0.2,0.3-0.8,1-0.5,1.3c0.2,0.3,0.9,0,1.5,0c0.7,0,1.4,0.5,2,0.4c0.8,0,1.4,0.5,1.9,0.3c0.2-0.1,0.6-2,0.7-2.2
	c0.5-0.7,0.6-2.2-0.4-2.5c-0.4-0.1-0.8,1-1.6,1.4c-0.4,0.2-0.9-0.1-1.4-0.1c-0.2,0,0.5,0,0.7-0.1c0.4-0.1,0.6-0.3,0.8-0.3
	c0.2,0,1-0.6,1.7-1.2c0.4-0.4,0.7-0.9,0.8-1c0.2-0.1,0.5,0.2,0.7,0.1c0.1,0,0.2-0.4,0.4-0.4c3.1-0.2,4.7-0.2,5.6-0.6
	c1.1-0.5-0.3-1.3-1.1-1.5c-0.2,0-0.9,0.9-0.9,0.9c0.3-0.1-0.3-0.8-1.1-1.6c-0.3-0.4-0.6-0.9-0.9-1.3c-0.1-0.2-0.3-0.1-0.4-0.3
	c-0.2-0.6,1.2-1.2,1-2.3c-0.1-0.8-0.6-0.4-0.6-1.4c0-0.9-0.2-1.1,0.4-1.3c0.7-0.2,0.5-0.8,0.7-1.1c0.1-0.2-0.6-0.8-1.4-1
	c-0.3-0.1-0.7,0.4-1,0.4c-0.3,0-0.5-0.4-0.5-0.5c-0.1-0.4,0-0.9-0.5-1.3c-0.1-0.1-0.4-0.5-0.8-0.6c-0.6-0.1-1.5,0.1-2.5-0.2
	c-1.1-0.3-2.3-1.1-2.8-1.2c-0.2-0.1-1,0.7-1,1.2c0,0.4,0.8,0.5,0.8,0.4c-0.2-0.2-1.2,0.5-2.1,1.3c-0.6,0.5-1.1,1.3-1.2,1.2
	c-0.6-0.4-0.9-0.8-1-0.9c-0.4,0-0.9,0.2-0.9,0.2c0.4-0.4,1.1-0.7,1.4-1c0.4-0.3,0.4-0.6,0.6-0.7c0.4-0.2,0-0.6-0.1-0.9
	c-0.1-0.2,0.1-0.5-0.2-0.5c-0.5,0.1-1.5,1.2-1.7,1.1c-1.1-0.4-3.1-0.3-3.8-0.1c-0.4,0.1-0.4-0.6-0.6-0.5c-1.2,0.4-0.3,1-1,1.7
	c-0.2,0.2-0.7,0.3-1.1,0.3c-0.2,0-0.4-0.1-0.5-0.1c-0.4,0.1-0.5-0.4-0.8-0.3c-0.5,0.2-0.1,0.4-0.4,0.4c-0.4-0.1-0.1-0.5-0.2-0.8
	c0-0.2-0.3-0.3-0.5-0.4c-1-0.3-0.8-0.2-1.8-0.7c-0.2-0.1-0.7-0.4-1-0.2c-0.4,0.2-0.6,0.8-1.1,1.1c-0.4,0.2-0.7,0.1-1,0.4
	c-0.3,0.3-0.5,0.7-0.7,1c-0.6,0.6-1.1,0-1.2,0.8c0,0.1-0.1,0.5-0.4,0.6c-0.3,0.2-0.4-0.1-0.8,0.1c-0.2,0.2-0.4,0.6-0.5,0.6
	c-0.6,0.5-0.6,1.6-0.7,2.5c-0.1,0.8-0.5,1.6-0.5,2.3c0,0.1-0.5,0.7-0.6,1.1c-0.1,0.5-0.1,1,0,1.4c0.1,0.4,0.2,0.5,0.3,0.4
	C28.6,35.3,28.6,34.6,28.6,34.4"/>
<path class="st0" d="M42.3,33.5c0.1-0.2-0.1-0.6,0.1-0.8c0.5-0.4,1.6-0.3,1.9-0.1c0.3,0.2,0.6,0.5,0.6,1c0,0.4-0.4,0.9-0.6,1.3
	c-0.2,0.5-0.2,1-0.5,1.2c-0.2,0.2-1.3,0-1.5,0c-0.2,0,0.3,0.4,0.3,0.5c0.7,1.7-2.2-0.4-1.8-1.7c0-0.1,0.3,0,0.5-0.2
	C41.8,34.5,42.3,33.9,42.3,33.5"/>
<path class="st0" d="M57,44.2c1.3-1.7,0.7-1.7,1.3-1.8c0.1,0,0.1,0.1,0.2,0.5c0,0.1,0,0.5,0.1,0.7c0.1,0.2,0.4,0,0.7,0.1
	c0.3,0.1,0.5,0.4,0.8,0.5c0.2,0-0.8,0.4-1,0.8c-0.2,0.3,0.4,0.6-0.7,0.5C57.4,45.3,57.3,44.1,57,44.2"/>
<path class="st0" d="M38.7,31.7c-0.5,0.3-0.4,0.3-0.4,0.9c0,0.3-0.5,0.2-0.5,0.5c0,0.1-0.3,0.6-0.2,0.4c0.3-0.4,0.9-0.3,1-0.2
	c0.1,0.1,0.2,0,0.4,0c0.3,0,0.9,0.2,0.9-0.2c0-0.2,0.6-0.1,0.6,0c0,0.2,0.2,0.5,0.4,0.2C41,33,41.1,33,41,32.7
	c-0.1-0.1-0.5-0.1-0.6-0.1c-0.5,0.1-0.3-0.5-0.5-0.8c-0.2-0.4-0.5,0-0.8-0.2c-0.2-0.2-0.1-0.2-0.4-0.1
	C38.7,31.5,38.7,31.7,38.7,31.7"/>
</svg>
