<?xml version="1.0" encoding="utf-8"?>
<!-- Generator: Adobe Illustrator 21.0.0, SVG Export Plug-In . SVG Version: 6.00 Build 0)  -->
<svg version="1.1" id="Layer_1" xmlns="http://www.w3.org/2000/svg" xmlns:xlink="http://www.w3.org/1999/xlink" x="0px" y="0px"
	 viewBox="0 0 473 575.5" style="enable-background:new 0 0 473 575.5;" xml:space="preserve">
<style type="text/css">
	.st0{fill:#0081C3;}
</style>
<g>
	<g>
		<path class="st0" d="M272.1,142.2c2.5-5.5,4.9-9.9,8.3-15.1c1.5-2.3,3.2-3.9,4.7-6.2c-0.7-0.2-1.8,0.4-2.2,0.7
			c-1.5,1.1-2.2,2.9-3.4,3.8c-2.8,2.2-2.8,4.3-4.3,5.3c-1.3,0.9-1.7,1.6-2.7,3c-0.6,1-1.1,1.8-1.7,3.7c-0.2,0.7-0.7,0.1-1.8,1.6
			c-1.5,2-2.1,4.1-2.7,6.5c-0.2,0.8-1.5,1.2-2.4,2.9c-1.2,2.2-1.9,4.3-2.4,7.5c-0.1,0.8-1.4,1.3-2.3,3.4c-0.6,1.5-1.1,1.8-1.6,4.6
			c-0.3,1.7-1.1,1.9-2,4.4c-0.7,1.9-0.7,3.7-0.9,6.1c-0.1,0.5-0.9,1.4-1.6,2.8c-1.2,2.3-1.2,3.8-1.7,6.2c-0.2,0.9-1.1,2-2.1,5.6
			c-0.8,3.2-0.1,5.4-0.3,7c-0.7,4.2-1.4,7.8-1,11.8c0.2,2,0.5,4.1,0.4,6c-0.4,6-0.7,11-0.7,17.8c0,3.7,0.3,8.8,0.9,13.1
			c0.6,4.7,1.5,8.3,1.5,8.3h15.3c0,0-0.6-8.8,0.2-18.1c0.5-5.6,1.8-11.5,3-15.6c1.5-5.3,2.5-8,5.4-15c0.1-0.2,0-0.8-0.8-0.2
			c-1.6,1.3-2.9,2.5-4.2,4.4c-1.9,2.9-3.1,5.3-4.6,8.2c-1.8,3.5-2.8,6.5-4.7,10.7c-0.1-3,0.4-5.9,1-8.7c0.6-2.9,1.1-5.1,2-7.6
			c1.6-4.3,3.1-8,5.7-12c1.5-2.3,3.4-4.4,5.3-6.2c2.3-2.1,4.4-3.9,6.8-6c-2.5-1.3-5.9,1.4-6.5,1.6c-3.5,0.7-5,4-6.1,4.4
			c-1.6,0.7-2.5,1.6-3.5,2.9c-0.8,1-1.1,2.5-1.9,3c-1.4,0.9-2.5,2.3-3.5,4.2c-0.4,0.8-1.5,4.5-2.8,4c2.1-12.6,6.6-24.4,13.7-34.9
			c4.5-6.7,9.4-12.4,16.7-17.5c1-0.7,1.1-1-0.2-0.9c-6.8,0.8-7.2,3.9-8.3,4.2c-1.1,0.3-2.4,1.5-3.2,2.3c-1.5,1.5-1.5,2.7-2.1,3.1
			c-1.2,0.9-2.2,1.8-3,3.3c-0.4,0.8-1.2,2.5-1.8,2.9c-1.7,1-3.4,2.5-4.3,4.1c-0.6,1.2-0.9,2.4-1.7,3.6c-0.9,1.2-2.1,2.1-3.1,3
			c0.8-5.4,3.3-11.7,5.1-17.2C266.1,155.8,268.9,149.1,272.1,142.2z"/>
		<path class="st0" d="M287.7,185.8c5.8-13,11.8-22.7,19.7-34.1c1-1.5,2-3,2.9-4.4c0.4-0.6,2.3-3.4,2.8-4c2.6-4,3.8-5.2,6.5-9
			c0.7-1,1.3-1.9,1.6-3.1c0.6-2.2-1.3-3.7-1.8-5.9c-0.4-2.2-0.2-4.6,0.8-6.4c0.6-1.2,1.3-1.6,1.9-3.2c1.2-3,0.8-9.5,2.2-9.6
			c-0.4,3.1-0.4,6.5,0,9.5c0.6,3.4,2.6,5.5,3.5,9.2c2.3-0.4,4.8-0.3,6.8-0.2c1.9,0.2,4.4-0.4,6.4-1.1c2.7-0.9,4.9-2.6,7.7-3.2
			c-2.3,2.2-5.6,3.1-8.4,4.8c-1,0.6-2,1.5-2.6,2.5c-1.1,1.7-2,3.4-3.7,4.1c-3.1,1.3-5.7,0.7-9.3,1.4c-5.2,5.4-10.2,12.7-14.7,20.4
			c-11.5,19.5-21.1,39.7-26.7,60.4c1.9-3.6,3.8-7.1,5.9-10.5c2.3-3.8,4.9-7.5,7.7-11.3c6.6-8.7,13.2-16.4,20.5-24.4
			c5.9-6.5,12.4-11.9,19.7-16.5c9.6-6,21.4-10.2,31.8-8c1.2,0.3,2.9,0.6,3.6,1.4c-13-1.8-24.7,2.7-33.4,9.7
			c-6.9,5.5-12.7,11.1-18.6,18.3c-3,3.5-5.8,7.3-8.5,11.1c-2.8,3.9-5.4,8-7.9,12.1c-8.4,13.9-14.8,28.7-19.5,44
			c-0.1,0.5-0.2,1-0.3,1.5c0.2-0.3,0.6-0.7,0.8-1.1c6.3-10.3,13.9-20.2,23.5-26.8c0.8-0.6,1.7-1.7,1.9-2.5c1-4.1-2.1-6,2.2-11.7
			c1-1.3,2.3-1.8,3.3-3c1.8-2.7,3.2-7.6,4.7-8.9c-0.7,3.2-2.6,6.5-3,9.8c-0.4,3.6,0.5,6.5,0.7,10.3c2.5,0.3,4.5,1.4,6.5,2
			c3.1,1,5,0.7,8,0.5c1.3-0.1,3.7-0.9,5.1-0.6c-3,1.6-7,1.3-10,2.9c-2.1,1.1-2.7,2.7-5.7,3.3c-2.6,0.5-4.8,0.2-6.5-0.6
			c-1.3-0.7-2.3-0.9-3.5-0.4c-3.2,1.5-5.3,3.7-7.9,6.2c-5.9,5.9-10.7,12.6-15.2,21.3c-1.2,2.3-2.3,4.6-3.3,7
			c-0.5,1.1-1.7,4.3-1.7,4.3H269c0,0,0-4.4,0.1-6.1c0.3-3.2,0.7-5.6,1.4-8.9c0.9-4.7,1.8-9,3-13.6c1.2-4.5,2.5-8.6,4-12.9
			C280.6,202.6,284,194.1,287.7,185.8z"/>
		<path class="st0" d="M138.6,305.9c5.6-4.6,9.8-7.3,15.4-10.6c2.3-1.4,5.7-2.9,8.4-4.1c9.7-4.4,22.6-7.6,34.8-7.9
			c0.2,0,0.2,0,0.2,0h90.5c0,0-0.3,0,0.3,0c2.9,0,5.7,1,7.5,2.7c1.8,1.7,2.6,4.3,3.1,6.8c0.4,2.2,0.2,4.1-0.3,6.5
			c-0.4,1.8-0.7,3-1.7,4.5c-0.6,1-1.2,1.6-2.4,2.5c-1.2,0.9-2.9,1.3-4.8,1.3c-0.2,0-0.6,0-0.6,0c0,0-105.9,0-105.9,0s-0.7,0-1,0
			c-6.9,0-14.2,0.3-21.1,1.2c-5.2,0.7-10.5,1.5-15.6,2.9c-6.4,1.7-12.6,4-18.7,6.3C130.1,313.5,134,309.6,138.6,305.9z"/>
		<path class="st0" d="M170,269.9c5.6-4,12.3-7.3,18.3-9.6c3-1.1,7.1-2.4,10.3-3.2c3.9-1,8.3-1.7,11.9-1.8c1.1,0,0.2,0,0.2,0l77.6,0
			c0,0,1.7,0.1,2.2,0.2c1.5,0.3,2.6,0.9,3.1,1.2c1.2,0.8,2.7,2.4,3.5,3.7c2,3.3,2.4,6.9,1.7,10.6c-0.7,4.3-4,9.1-8.4,9.2
			c-0.8,0-2.3,0-2.3,0h-84.1c0,0-4.9,0.1-7.1,0.2c-4.1,0.2-8.7,0.6-12.3,1.2c-3.1,0.4-6.1,1-9.2,1.9c-10.4,2.8-19.4,8.1-28.8,12.1
			C153,284.5,161.6,276,170,269.9z"/>
		<path class="st0" d="M126.6,322.7c13.5-8,29.8-11.1,44.6-11.6c0.4,0,1.1,0,1.1,0l116.1,0c0,0,0.2,0,1.3,0c7,0,9.6,7,9.6,12.6
			c0,1.9-0.3,3.8-0.8,5c-0.7,1.7-1.4,3-2.6,4.3c-0.4,0.5-2,1.6-2.7,1.7c-1.6,0.4-3.6,0.3-3.6,0.3c0,0-86.3,0-86.3,0
			c0,0-4.7-0.2-7.9-0.5c-2.3-0.2-4.1-0.5-6.5-0.9c-5.9-1.2-10.9-3.1-16-4.7c-3.4-1.1-7-1.9-10.8-2.4c-6.9-1.1-14.5-1.5-21.5-1
			c-8.9,0.7-16.8,2.4-25.3,5.1C116.5,328.4,122.5,325.1,126.6,322.7z"/>
		<path class="st0" d="M189.1,359.1c-4-1.4-7.8-3.2-11.3-5.5c-4.5-3-6.7-5.4-12.6-8.1c-5-2.3-9-4.6-16-7.1
			c-3.4-1.2-8.8-2.9-13.5-3.7c-6.7-1.1-13.1-1.6-13.1-1.6s1.4-0.9,2.2-1.1c6.8-2.1,12.8-3.1,19.8-3.6c6.1-0.5,11.8,0.1,17.9,1.1
			c2.5,0.4,5.8,1.2,8.7,2c9.3,2.6,19.8,6.8,29.1,6.8c0.5,0,0.5,0,0.5,0h86.3c0,0-0.7,0,0.3,0c2.6,0,7.5,0.8,9.5,4.3
			c2.3,4,3,8.8,1.1,13.5c-0.6,1.4-1.5,3.5-2.9,4.7c-1.2,1.1-3.2,1.8-4.3,1.8c-0.3,0-0.9,0-0.9,0h-75.5c0,0,0.3,0-0.4,0
			C206.2,362.6,196.5,361.7,189.1,359.1z"/>
		<path class="st0" d="M223.5,385.8c-2.1-2.2-5.1-5.6-7.7-8.7c-5.1-6.1-7.4-11.6-7.4-11.6h50.3c0,0,0.1,5.8-1,12.5
			c-1.1,6.2-3.4,12.8-5.8,17.6c-0.1,4.9,2,9.4,2.3,14.3c-4.1,2.5-8.6,5.1-12.3,8.6c-0.2,0.2-0.6,0.2-0.8-0.4c-2-7.4-3-14.1-4.7-21.4
			C231.8,393.1,227.5,390,223.5,385.8z"/>
		<path class="st0" d="M275.3,381.7c-1.4-2.6-2.5-6.1-4.1-8.2c-0.3,1.8,0.1,3-0.2,4.7c-0.2,1.5-1.4,0.9-1.7,0.2
			c-0.7-2-1.5-4.5-2.1-6.5c-1.1-3.4-1.4-6.4-1.4-6.4l8.4,0c0,0,0.3,0.1,0.5,0.9c0.4,2.1,0.3,4.2,0.9,6.6c0.7,3.1,1.7,6,2.9,9
			c1,2.6,2.3,5.2,3.4,7.8c0.1,0.3,0.2,1,0,1.3c-0.3,0.4-0.8,0.3-1.2,0C278.2,388.3,277.2,385.2,275.3,381.7z"/>
		<path class="st0" d="M288.3,387.7c-1.4-3-3.4-6.4-3.3-9.9c0.9,1.2,1.3,2.1,2.6,2.8c0.6,0.2,1.8,0,1.5-1c-0.6-1.9-1.4-3.5-2.2-6.1
			c-1.2-3.8-2.4-8-2.4-8l-8.5,0c0,0,0.5,3.5,2.4,8.8c1.7,4.7,4.3,10.1,7.2,15.2c2.4,4.2,4.5,7.8,7.2,10.8c0.9,1,3.2,0.1,2.2-1.2
			C292.4,395.4,290,391.5,288.3,387.7z"/>
		<path class="st0" d="M343.8,98.8c-1.9,0.8-3.5,1.9-4.4,3.6c-0.7,1.3-1.1,3.2,0.2,4.3c2.3,1.9,4.9,0,6-2c1.4-2.5,1-7.3,1-7.3
			S345,98.3,343.8,98.8z"/>
		<path class="st0" d="M345.7,110.8c0.8-1.5,2.6-3.2,4.5-4.4c2.2-1.3,4.5-2.7,6.1-3.6c1.6-1,1.9-1.6,1.9-1.6s-1.3,0.5-2,0.9
			c-3.9,2.3-8.2,5-9.9,5.8c-2.2,1-5.2,1.1-7.9,1.5c-0.4-3.4-1.3-4.8-1.3-7.8c0-1.4,0.4-3.3,0.6-4.6c0.8-4.3,1-6.5,1-6.5
			s-0.7,0.6-0.9,2.5c-0.3,1.7-0.5,2.4-0.9,4.4c-0.5,2.4-0.9,4.4-2.3,5.8c-2,2.1-3.9,5.8-2.3,8.7c0.9,1.7,2.4,1.4,2.9,1.9
			c0.5,0.4,0.8,1.5,2.2,1.9C340.6,116.7,344.1,113.9,345.7,110.8z"/>
		<path class="st0" d="M341.7,119.7c1.1-1.7,2.1-2.9,3.8-4c2.8-1.7,4.8-2.8,6.5-3.7c0.7-0.4,1.3-0.8,1.5-1.6
			c-0.8,0.3-3.6,1.6-6.5,3.3c-2,1.2-5.5,2.7-7.9,2.8c-0.9,0-1.6-0.2-2.4-0.2c-1.6-0.1-3.6,0.3-3.6,0.3s-0.5-2.2-1.2-3.8
			c-0.3-0.8-0.9-1.7-1.2-3.2c-0.2-1-0.3-2.6-0.2-3.5c0.2-2.8,1-5.5,0.9-8.3c-1.8,3.6-1,8.1-3.1,10.9c-0.9,1.2-1.6,2.1-2.2,3.6
			c-1.1,2.4-1,5,0.5,7.3c0.9,1.3,2.8,1.3,3.2,1.6c0.5,0.4,0.9,1.8,2.8,2.2C336,124.3,339.9,122.8,341.7,119.7z"/>
		<path class="st0" d="M342.6,190.9c0.8-1.5,1.2-3.5,2.2-5c-2.2,0.3-2.5,0.6-5.7,0.9c-0.7,0.1-2.1,0.8-2.6,1.2
			c-1.2,1.3-2.3,2.4-1.9,4.5c0.2,0.8,0.9,1.4,1.3,1.6C338.6,195.1,341.3,193.5,342.6,190.9z"/>
		<path class="st0" d="M345.3,195.1c3-0.7,6.4-2.2,7.8-1.7c-2.8,1.5-6.3,2-9.4,2.9c-2.4,0.7-4.1,2.5-6.2,4.1c-1.9,1.5-4.5,2.1-6.8,1
			c-0.8-0.4-1.5-1.6-1.7-2.3c-0.1-0.5-1.2-1.1-1.8-1.5c-0.6-0.5-0.9-1.7-0.9-2.1c-0.1-4.1,3-5.8,6.1-8.2c2.3-1.8,5.2-9.6,7-11.2
			c-0.3,2.5-3.6,7.2-5,10.9c-1.1,2.9-0.8,5.3-1.5,8.3c2.2,0.1,4.6,0.6,6.8,0.6C341.4,195.9,343.5,195.5,345.3,195.1z"/>
		<path class="st0" d="M342.1,201.4c-1.7,0.3-3.7,0.8-5.1,1.1c-4.9,1-7.2-1.4-11.1-1.3c0.3-4.4-1.2-6.4,0.1-9.3
			c1.1-2.6,2.2-5.3,3.2-7.4c0.8-1.7,1-3.2,1-3.2s-1.2,1.8-4.5,8.3c-1.2,2.3-3.3,2.8-5.1,4.9c-2.1,2.5-3.4,7.7,0.6,9.8
			c0.8,0.4,0.7,1.8,1.2,2.3c2.6,2.5,8,2.2,11.3-0.8c2.6-2.4,5.9-2.8,8.6-3.5c1.6-0.4,3-1.1,3-1.1S344.5,201,342.1,201.4z"/>
		<path class="st0" d="M249.5,167.8c1.3-5.2,2.8-10.4,3.2-15.8c0.6-8.1-1.2-16.6-6.4-22.8c0.5,2.7,1.2,4.9,1.5,7.7
			c0.4,3.4-0.1,7.1-0.9,10.5c-0.7,2.6-1.8,5.1-3,7.4c-1.4,2.8-3.4,5.9-5.4,8.4c-5.6,7-14.4,20.7-14.4,20.7s-0.7-0.1-1.2-0.1
			c-0.1-1.7,3.9-7.6,6-10.8c4.5-7.2,7.9-11,11.8-17.3c2.4-3.9,4.3-8.7,4.9-13c1.2-8.8-3.5-19.4-10.4-22.9c1.6,6.6,1.4,15.9-2.1,19.8
			c-6.6,7.4-10.6,12.9-15.3,22.4c-0.1,0.3-1.2-1.3-2.2-1.9c-1-0.7-0.5-2.7-0.8-4.1c-0.3-1.2-0.9-2.1-1-2.3c-1.4-1.7-2.8-1.8-3.1-2.3
			c-0.3-0.6-0.2-2-1.4-3.7c-0.6-0.8-2.2-1.4-2.8-2.2c-0.7-0.9-1-3.5-2.9-4.5c-0.9-0.5-1.3-2.1-2.2-2.8c-2.7-2.4-5.3-1.9-5.8-2
			c-0.7-0.2-2-1.9-4.4-2.3c-2.3-0.4-3.6,1.2-4.8,0.6c-3-1.4-5.9-1.5-9.1,2.1c-1,1.1-2.6,0.1-4.7,1.7c-1.8,1.4-1.9,2.7-2.8,2.9
			c-1.7,0.3-3.1,1.7-3.7,3.3c-0.3,0.8-0.6,2.4-0.8,3.4c-0.3,1.4-1,2.8-1,3.8c0,1.5,0.5,2.3,0.3,2.9c-0.2,1-1,1.8-1.1,2.7
			c-0.1,0.5-0.1,1.9,0.3,2.6c0.5,0.9-0.3,1.8-0.7,2.8c-0.4,0.9-0.8,2.5-0.7,3.6c0.2,1.5,1,2.1,0.4,3.3c-1.1,2-2.5,5.1-0.1,9
			c0.5,0.7-1,2.1-1.1,4.2c-0.1,2.2,1.3,3.9,1.6,4.9c0.1,0.4-0.6,0.3-0.6,0.7c-5.9-6.3-11.2-12.1-18.1-17.5c-4.2-3.3-8.4-6.1-13-8.6
			c-12.4-6.7-26.9-11.1-40-9.5c4.9,4,11.2,6.8,16.2,11.3c4.8,4.3,9.2,7.9,13.5,12.5c6.9,7.1,12.4,14.4,18.2,22.7
			c1.7,2.5,2.9,4.1,4.5,6.7c1.6,2.6,3.4,5.3,4.9,7.9c7.4,12.9,13.5,24.9,19.7,38.1c1.7,3.7,3.1,7.5,4.8,11.1c0.4,1,1.1,0.3,1.5,0
			c2.2-1.3,4.6-2.4,6.9-3.5c1.8-0.8,3.5-1.4,5.2-2.1c4.2-1.6,8.1-2.5,12.5-3.4c7.3-1.5,20.4-1.2,20.4-1.2l24.8,0c0.2,0,0.3,0,0.7,0
			c-0.3-7.1-2-14-2.4-21.2c-0.3-5.8-0.1-11.4,0.1-17.2C243.7,199,246,182.1,249.5,167.8z M220.4,180.3c0.5,1.4,1.1,2.4,0.6,3.8
			c-0.6,1.7-2.3,1.9-3.8,2.5c-1.4,0.5-3.8,1.2-5-0.1c-1.4-1.4-1.9-4.3-0.3-5.6C214,179.2,219.3,177,220.4,180.3z M202.7,208.7
			c-1.7,1.9-4.4,1.8-7.1,2.6c-1,0.3-2.3-0.6-2.8-1.6c-1-1.8-2-4.1-0.1-5.8c1.6-1.4,3.7-1.3,5.6-1.9c0.9-0.3,1.9-0.6,3,0.1
			C203.5,203.7,204.4,206.8,202.7,208.7z M206.1,215.5c0.5,2.2,0,4.2-1.9,4.9c-2.5,0.9-5.8,2.2-7.8,0.8c-2.3-1.5-3.4-5.8-0.8-7.5
			C198.6,211.7,204.8,210.3,206.1,215.5z M174.5,157.6c0.7-1.9,3.1-1.8,4.9-1.6c2.2,0.3,2.7,3.2,1.9,4.4c-1.1,1.7-3.6,1.3-5.6,1.1
			C174.1,161.2,174,159.1,174.5,157.6z M174,151.2c0.2-0.6,0.4-0.7,0.8-0.9c1.5-0.7,3.2-0.9,4.7,0c1.1,0.7,1,2.3,0.2,3.1
			c-1.1,1.2-3.5,1.2-4.9,0.5C173.7,153.3,173.7,152.2,174,151.2z M188.7,154.4c-1.8,1.1-4.4,1.6-6.1,0.6c-1.5-0.8-1.4-3-0.7-4.2
			c1.2-2,4.2-2.2,6.3-1.6C190,149.8,190.7,153.2,188.7,154.4z M191,157.3c1.6,0.9,1.9,3.5,1,5c-1.3,2-5.7,3.1-8.1,1.4
			c-1.4-1-2.1-5,0.7-6C186.7,156.9,188.9,156.1,191,157.3z M175.6,164c2.1-0.9,6.1-1.7,6.8,1.4c0.9,4.1-3.9,4.7-6.5,4
			C174,168.9,173.6,164.8,175.6,164z M175.3,173.2c1.7-2,4.6-2.5,7.1-1.9c1.5,0.4,2.1,2.1,2.1,4c0,1.1-0.8,1.9-1.4,2.2
			c-1.7,0.7-3.7,1.2-5.6,1C175.2,178.2,173.8,175,175.3,173.2z M176.5,181.6c1.7-1.7,4.7-1.8,7-1.5c1.4,0.2,2.1,1.7,2.3,3.2
			c0.6,4.3-5.3,5.1-8,4.1C175.9,186.7,174.9,183.2,176.5,181.6z M184.8,170.7c-1.4-4.4,4.1-5.8,7.3-5.2c2.3,0.5,3,4.8,0.9,6.2
			C190.5,173.4,185.9,173.9,184.8,170.7z M207.2,175.6c-1.3,2.3-5.5,2.6-7.4,2.3c-1.3-0.2-2.3-2.3-2.3-4.2c0-0.9,0.3-1.6,0.9-1.9
			c2.1-1.1,4.3-1.9,6.6-1.5C207.3,170.8,208.1,173.9,207.2,175.6z M208.4,180.2c0.8,1.3,1.4,3.1,0.2,4.8c-1.1,1.5-5.2,2.2-7.2,1.7
			c-1.1-0.3-1.7-1.7-1.8-2.6c-0.2-1.3-0.4-2.5,0.8-3.5c1.6-1.5,3.7-1.4,5.8-1.4C206.9,179.1,208,179.7,208.4,180.2z M205.2,166.7
			c-1.5,2.2-7.3,3.5-8.6,1.3c-0.9-1.6-1.5-3.9,0.2-5c1.9-1.1,4.1-1.8,6.3-1.4C205.1,161.9,206.2,165.2,205.2,166.7z M201.1,159.3
			c-1,0.9-2.1,1.1-3.4,1.6c-1.9,0.6-3.9-0.8-4.1-2.7c-0.4-3.1,3-3.6,5.2-4c1.6-0.3,2.6,1.2,2.9,2.1
			C202,157.3,201.9,158.6,201.1,159.3z M187.4,175.8c2.5-1.4,7.7-3.2,8.9,0.7c0.5,1.6,0.4,3.6-1,4.4c-2,1-5.2,2.1-7.5,0.7
			C185.9,180.4,185.7,176.7,187.4,175.8z M189.5,184.9c2.6-1.8,7.6-3,8.8,1c0.3,1,0.5,2.1,0,3c-1.4,2.3-5,2.9-7.4,2.5
			C188.3,191,187.1,186.6,189.5,184.9z M191.4,193.9c2.1-1.1,5.2-2.4,7.4-0.9c1,0.7,2.1,3.4,1.4,4.7c-1.6,2.6-5.7,3.3-8.3,2.6
			C189.7,199.7,189.1,195.1,191.4,193.9z M201.7,193.8c-0.5-1.3-1-3.3,0-4.1c2.1-1.7,6.9-3.1,8.7-0.6c1.2,1.6,0.8,4.4-1.2,5.5
			C207,195.6,202.9,196.9,201.7,193.8z M215.9,169.8c1,0.1,1.9,1.2,2.4,2.5c0.6,1.6,0,3.4-0.5,3.8c-1.2,0.8-5.1,3.2-7.5,1.8
			c-1.3-0.8-1.7-2.5-1.8-3.6C208.3,170.9,213.3,169.5,215.9,169.8z M215,164.1c0.7,1,0.6,2.8,0.1,3.4c-1.3,1.8-5.1,2.9-6.6,2.1
			c-1.2-0.6-2.3-3.1-1-4.7c1.4-1.6,3.9-2.6,6.2-2.1C214.2,162.9,214.6,163.5,215,164.1z M210.6,154.7c2.1,0.3,2.5,3.3,2.1,4.4
			c-0.5,0.9-1.6,1.7-2.1,2c-1.6,0.8-3.4,1.1-4.8,0.4c-1.3-0.7-1.9-2.7-1.2-4.2C205.6,155.1,208.6,154.5,210.6,154.7z M208.2,150.5
			c0.6,1.7-0.7,2.5-2,3.2c-1.3,0.7-3.1,1.4-4,0.5c-1.2-1.1-1.7-3-0.4-4.2C203.7,148.3,207,147,208.2,150.5z M202.7,143.4
			c1,0.1,1.4,0.8,1.6,1.5c0.2,1-0.1,1.9-0.9,2.5c-1,0.7-2.2,1-3.2,1.1c-1.3,0-2.6-1.9-1.9-3.2C199.1,143.9,201,143.3,202.7,143.4z
			 M199.4,138.8c0.9,0.3,1.4,1.2,1,2.1c-0.3,0.5-1.1,1.1-1.6,1.5c-1.4,0.8-2.6,0.5-3-0.5C195,140,197.7,138.3,199.4,138.8z
			 M197.4,147.9c0.9,0.8,1.7,2.4,0.6,3.6c-1,1.2-2.3,1.6-4,1.8c-1.1,0.2-2.5-0.6-2.7-1.6c-0.2-0.8-0.3-2.4,0.5-3.1
			C193.5,147.3,195.7,146.5,197.4,147.9z M195,142.6c0.8,1.4-0.4,2.8-1.1,3.2c-1.4,0.8-3.4,1.3-4.3-0.1c-0.8-1.4-0.1-3,1.3-3.6
			C192.4,141.5,193.9,140.6,195,142.6z M187.2,137.9c0.7-1.6,2.6-2.5,4.4-1.9c0.4,0.1,1.1,0.7,1.2,1.3c0.2,1.1-0.2,2.2-1.1,2.8
			c-1.2,0.8-2.2,1.2-3.6,0.6C187,140.3,186.8,138.9,187.2,137.9z M188,144.9c-0.3,1.2-1.2,2-2.6,2.3c-1.4,0.3-3.3,0.4-4.1-0.5
			c-0.7-0.8-1.1-1.9-0.5-2.8c1.2-1.7,3.5-2.3,5.5-1.9C187.5,142.3,188.3,143.5,188,144.9z M179.6,138.3c0.5-1.8,2.6-2.8,4.5-2.2
			c1.6,0.5,2,2.7,0.9,3.7c-0.5,0.5-1.3,1-2.2,1.2C180.9,141.3,179,140.3,179.6,138.3z M178.5,147.9c-1.7,0.5-4,0.6-4.5-1.1
			c-0.9-2.9,2.8-3.4,4.8-2.8C180,144.5,180.5,147.3,178.5,147.9z M173.7,140.5c0.1-0.5,0.8-1,1.2-1.1c0.8-0.3,1.8-0.3,2.5,0
			c1.5,0.6,1.3,2.5-0.3,3.2c-0.7,0.3-1.9,0.5-2.4,0.3C173.6,142.5,173.3,141.6,173.7,140.5z M168.8,143.8c1.1-0.4,2.7-0.4,3.4,0.5
			c1.1,1.2,0.2,3-1.8,3c-0.7,0-1.6-0.3-2-0.5C167.4,146.1,167.8,144.2,168.8,143.8z M167.5,149.1c1.2-0.5,3.1-0.4,4.2,0.2
			c0.5,0.3,1.2,1.2,0.9,2.1c-0.4,1.2-1.5,1.6-2.8,1.7c-1.2,0-2.6-0.1-3.1-1.1C166.2,151,166.4,149.5,167.5,149.1z M171.9,155.5
			c0.6,0.3,0.9,0.7,1.1,1.4c0.3,1.5-0.1,3.2-1.6,3.5c-2.2,0.4-5.5,0.5-5.5-2.6C165.9,154.3,169.4,154.4,171.9,155.5z M165.8,162.7
			c2-0.8,5.4-1.2,6.8,1c0.9,1.4,0.6,3.9-0.8,4.3c-1.4,0.3-6,1.1-7.1-1.4C164.2,165.3,164.4,163.3,165.8,162.7z M164.6,171.1
			c1.9-1.8,4.3-1,6.6-0.7c0.4,0.1,1,0.4,1.3,0.7c1.5,1.6,1.7,4.1-0.1,5.4c-2,1.5-4.5,0.5-6.8,0.4c-0.6,0-1.3-0.8-1.5-1.3
			C163.6,174.1,163.3,172.3,164.6,171.1z M164.5,181.2c1.2-2.7,5.7-2.7,8.2-1.5c2,1,2.3,4.7,0.1,6.2c-1.7,1.2-4.5,0.7-6.3,0.4
			C163.8,185.8,163.6,183.2,164.5,181.2z M166,192.8c-1.3-1.1-0.4-3,0.7-3.6c2-1,5-1.1,7-0.4c1.3,0.4,2,2.3,1.7,4.4
			c-0.1,0.8-0.4,1.8-0.8,2c-1.5,1.1-3.9,1.1-5.8,0.7C167.6,195.6,167.1,193.8,166,192.8z M175.4,204.3c-1.9-1.4-2.8-3.4-4.2-5.4
			c-0.3-0.5,0-0.7,0.3-0.8c3.4-1,5.9,0.7,5.4,4.5C176.8,203.3,176.3,205,175.4,204.3z M177.7,191.7c0.2-0.9,1.2-1.4,2.1-1.6
			c2.2-0.6,4.8-1.4,6.8-0.1c0.8,0.5,0.9,1.2,1,2.2c0.2,1.6-0.1,3-1.1,3.6c-2.2,1.3-4.4,1.4-7,0.9
			C177.4,196.3,177.3,193.6,177.7,191.7z M180.6,199.9c2.8-1.8,8.1-3.1,9,1.7c0.3,1.5-0.1,3.4-2.1,4.1c-2,0.7-4.4,1.4-6.3,0.6
			C178.9,205.3,178.4,201.3,180.6,199.9z M179.9,211.4c-0.3-0.4-0.5-1.5-0.2-1.7c2.1-1.7,5.3-1.9,7.7-1.6c3.2,0.3,3.9,3.3,3.3,5.8
			c-0.7,3.3-5.6,3.7-7,3.1C182.3,216.4,181.4,213.3,179.9,211.4z M185.8,221.4c-0.3-0.5-1-1.9-0.5-2.1c4.1-1.4,7.2-1.5,8.1,2.9
			c0.6,3.1-1.5,5.8-4.5,4.7C188,226.7,187.2,223.3,185.8,221.4z M194.4,237c-2.3-1.9-2.5-4.9-4-7.2c1.7-1.1,4.5-0.9,5.4,1.3
			c0.7,1.7,1.2,4.2-0.5,5.6C195.1,236.7,194.6,237.2,194.4,237z M197.7,245c-1-0.5-1-1.7-1.4-2.5c-0.4-0.8-1.2-1.9-0.9-2.9
			C197.4,240.6,198.3,242.6,197.7,245z M202.1,238.6c-0.4,1.3-0.6,2.6-1.2,3.9c-0.3,0.6-0.7-0.2-0.7-0.2c-0.9-2.2-1.4-4-0.7-5.9
			c0.4-1.1,1.9-2,3.2-2.1C202.7,235.6,202.6,237.3,202.1,238.6z M205.9,225.5c-0.6,1.7-0.9,3.3-1.6,4.8c-0.7,1.5-3.4,2-5,1.6
			c-2.2-0.7-4.1-5.7-1.6-7.6c1.9-1.4,3.9-1.7,6.4-2c0.4-0.1,2.1,0,2.2,0.2C206.6,223.5,206.4,224.1,205.9,225.5z M209.2,214.1
			c-0.7,1-2.4-2.2-2.6-3.7c-0.6-4.2,3.1-5.3,6.1-5.2C212.8,207.8,210.9,211.7,209.2,214.1z M214.2,201.3c-0.9,2.4-3.6,2.7-5.9,3.2
			c-0.4,0.1-1.8,0-2.4-0.6c-1-1-1.9-2.3-1.7-4c0.1-1,0.9-2,2-2.4c1.9-0.7,4.2-1.9,6.1-0.9C214,197.5,214.8,199.5,214.2,201.3z
			 M222,189c-1.6,2.1-2.4,4.6-4.2,6.5c-0.9,1-2.4,0.5-3.1-0.6c-0.8-1.3-2.2-3.1-1.2-4.3c1.6-2.1,5-3.4,7.9-3
			C221.6,187.5,222.6,188.2,222,189z M244.7,253.1C244.5,253.1,244.3,253.1,244.7,253.1L244.7,253.1z"/>
		<g>
			<path class="st0" d="M80.2,108.9c-4.8,4.8-6.3,6.6-9.1,12c-1.7,3.1-3.8,7.2-4.4,12.4c10-3.8,18.1-11.5,25.4-20.1
				c5.4-6.3,9.6-14.7,15-21C97.7,95.3,87.8,101.4,80.2,108.9z"/>
			<path class="st0" d="M51.7,122.5c3.8-6.3,9.1-13.2,14.7-17.9c-2.6,5.8-5.8,11.5-6.9,18.4c-2.2,13.7-4.2,23.2-6.5,35.7
				c6.2-4.4,12.7-11.4,19.3-16.2c5.1-3.7,10.2-6.2,15.4-9.8c3.1-2.1,5.1-4.9,7.7-7.5c-3.1,13-14.4,26-22.6,32.1
				c-10.2,7.7-13.9,8.9-30.3,25.6C40.4,162.4,40.8,140.9,51.7,122.5z"/>
			<path class="st0" d="M18.2,191.1c0.8-10.7,2.1-19.3,4.7-29.7c1.8-7.3,5.8-18.2,11.4-22.6c-0.7,2.6-1.1,6.6-1.3,9.3
				c-1.1,11,1,23.9,1.3,34.9c0.1,5.4,0.1,9.6-0.7,14.7c-0.8,5.3-0.1,11.9-0.1,11.9s2.9-3.3,5.5-7.5c5.7-9.1,7.5-11.8,12.1-16.7
				c5.7-6.1,12.1-11.8,19.3-16.8c-0.9,3.4-4.6,10-6.1,12.6c-2,3.5-3,6.8-7.8,14.8c-6.8,11.3-9.8,12.8-17.3,24.9
				c-1.6,2.6-8.3,12.6-9.9,15.6c-3.5-7.3-4.8-13.6-9.2-25.5C17.4,203.5,17.8,196.1,18.2,191.1z"/>
			<path class="st0" d="M7.7,246.8c-4.1-10.6-5.9-20.4-7.3-31.5c-0.8-6.8-0.5-15.9,2-22.4c0.6,1.6,1.9,5.7,2.1,6.3
				c1.8,6.1,2.6,9,5.1,14.9c1.9,4.5,4.3,8.1,6.8,12.5c2.3,4.1,4.2,9.4,5.9,13.5c5.4,13.1,5.7,25.4,7.8,26.7c1.5-3.2,1.9-6.2,2.1-7.7
				c1.6-14.5,3.5-27.7,21.8-44.8c1.7,5.1,0.8,14.5-0.2,19.5c-2.2,11-3.9,16.3-8.8,26.9c-2.6,5.6-6,13.9-6.9,16.6
				c-2.5,7.1-3.3,10.9-4.8,15.1C24.7,278,14,263.1,7.7,246.8z"/>
			<path class="st0" d="M22,312.9c-6.1-8.5-8.4-12.8-12.4-21.9c-3.4-7.6-4.3-10.5-6.3-19c-1.1-4.7-1.7-8.9-0.8-11.6
				c4.8,8.7,8.1,18.4,14.4,25.7c5,5.7,9.8,10.6,13.8,15.4c6.1,7.4,10.9,14.5,16.7,22.2c0.5-3.9,0.7-7.8-0.2-14.2
				c-1.2-8.7-0.5-15.8,1.1-24.3c1.9-10.7,3.3-16,7-26.8c4.5,8.9,4.5,19.2,5.7,28.6c2.2,18.3-3.5,40.2-4.7,49.3
				c-0.3,2.4,0.1,8.3,0.2,10.6c-8.6-6.7-16.2-13.6-23.6-21C29.5,322.6,24.9,317,22,312.9z"/>
			<path class="st0" d="M54.4,380.1c-3.9-2.8-14.4-10.8-19.3-17.1c-7.2-9.2-8.8-13.1-13.6-23.7C20.9,338,18.2,332,18,328
				c15.6,18.9,29.6,21.7,44.5,37.3c5.5,5.7,11.1,11.1,14,13.8c2.3,2.1,5.1,2.7,5.1,2.7s-0.3-4-1.8-6.8c-9.9-19-11.8-38.9-10.3-60.2
				c4.5,5.6,6,9.4,8.8,14.8c3.1,5.9,4.7,9.6,6.2,13.2c8.5,21.2,10.7,45.6,16,57.9C84.3,395.3,71.6,392.4,54.4,380.1z"/>
			<path class="st0" d="M121,430c-4.4,0.3-13,0.3-17.6-0.5c-23.2-3.7-44.8-20.5-55.7-39c9.8,6,17,10,25.6,13
				c7.7,2.7,15,3.5,27.9,7.1c7.8,2.2,15.5,5.3,18.2,6.3c8.6,3.2,12.2,2.4,12.2,2.4s0-1.3-3.2-4.8c-6.4-7-8.8-8.7-14-14
				c-1.7-1.8-5.7-7.8-7.7-11.8c-5.7-11.3-6.3-20.4-11.5-32.9c19,11.2,28.2,26.5,38.3,45.9c3.1,5.9,7.3,12.8,11.1,16.6
				c2.6,2.5,6.2,6.4,6.2,6.4s-2.6,0.6-10.9,1.8C136.1,427.1,128.2,429.5,121,430z"/>
			<path class="st0" d="M213,431.5c10,1.6,18.9,4.1,28.1,7.2c2.5,0.8,6.2,2.7,8.8,4c6.5,3.3,10.2,5.4,15.7,9.2
				c8.9,6.2,18.6,12.8,27.2,22.9c0.2,0.2,1.6,1.7,0.7,2.4c-1.7,1.3-5.9,3.2-7.3,2c-7.9-7.1-7.5-9.3-17.2-18
				c-2.5-2.2-6.2-5.3-10.6-8.4c-4.3-3-9.6-6.2-14.5-8.6c-4.4-2.2-11.3-2.8-15.1-2.8l0.1,0c-1.7-0.1-11.7-0.1-14.1,0
				c-19.7,1.3-18.7,3.1-30,6.2c-9.3,2.5-19.3,4.3-29.2,5.7c-10.2,1.4-19.3,1.5-28.8,0.6c-12.9-1.3-27.1-4.9-37.6-11.7
				c9.6,0.2,19.6,2,29.1,1.3c4-0.3,10.6-0.9,15-2.3c8.8-2.7,13.9-3.8,23.2-6.4c8-2.2,16.1-3,24.5-3.9
				C192.6,429.6,203.4,429.9,213,431.5z"/>
			<path class="st0" d="M392.7,108.9c4.8,4.8,6.3,6.6,9.1,12c1.7,3.1,3.8,7.2,4.4,12.4c-10-3.8-18.1-11.5-25.4-20.1
				c-5.4-6.3-9.6-14.7-15-21C375.2,95.3,385.2,101.4,392.7,108.9z"/>
			<path class="st0" d="M421.2,122.5c-3.8-6.3-9.1-13.2-14.7-17.9c2.6,6.2,6.4,14,6.9,18.4c1.4,13.8,4.2,23.2,6.5,35.7
				c-6.2-4.4-12.7-11.4-19.3-16.2c-5.1-3.7-10.2-6.2-15.4-9.8c-3.1-2.1-5.1-4.9-7.7-7.5c3.1,13,14.4,26,22.6,32.1
				c10.2,7.7,13.9,8.9,30.3,25.6C432.5,162.4,432.1,140.9,421.2,122.5z"/>
			<path class="st0" d="M454.8,191.1c-0.8-10.7-2-19.3-4.7-29.7c-1.8-7.3-5.8-18.2-11.4-22.6c0.7,2.6,1.1,6.6,1.3,9.3
				c1.1,11-1,23.9-1.3,34.9c-0.1,5.4-0.1,9.6,0.7,14.7c0.8,5.3,0.1,11.9,0.1,11.9s-2.9-3.3-5.5-7.5c-5.7-9.1-7.5-11.8-12.1-16.7
				c-5.7-6.1-12.1-11.8-19.3-16.8c0.9,3.4,4.6,10,6.1,12.6c2,3.5,3,6.8,7.8,14.8c6.8,11.3,9.8,12.8,17.3,24.9
				c1.6,2.6,8.3,12.6,9.9,15.6c3.5-7.3,4.8-13.6,9.2-25.5C455.5,203.5,455.1,196.1,454.8,191.1z"/>
			<path class="st0" d="M465.2,246.8c4.1-10.6,5.9-20.4,7.3-31.5c0.8-6.8,0.4-15.9-2-22.4c-0.6,1.6-1.9,5.7-2.1,6.3
				c-1.8,6.1-2.6,9-5.1,14.9c-1.9,4.5-4.3,8.1-6.8,12.5c-2.3,4.1-4.2,9.4-5.9,13.5c-5.3,13.1-5.7,25.4-7.8,26.7
				c-1.5-3.2-1.9-6.2-2.1-7.7c-1.6-14.5-3.5-27.7-21.8-44.8c-1.7,5.1-0.8,14.5,0.2,19.5c2.2,11,4,16.3,8.8,26.9
				c2.6,5.6,6,13.9,6.9,16.6c2.4,7.1,3.3,10.9,4.8,15.1C448.3,278,458.9,263.1,465.2,246.8z"/>
			<path class="st0" d="M451,312.9c6.1-8.5,8.4-12.8,12.4-21.9c3.4-7.6,4.3-10.5,6.3-19c1.1-4.7,1.7-8.9,0.8-11.6
				c-4.8,8.7-8.1,18.4-14.4,25.7c-5,5.7-9.8,10.6-13.8,15.4c-6.1,7.4-10.9,14.5-16.7,22.2c-0.5-3.9-0.7-7.8,0.2-14.2
				c1.2-8.7,0.5-15.8-1.1-24.3c-1.9-10.7-3.3-16-7-26.8c-4.5,8.9-4.5,19.2-5.7,28.6c-2.2,18.3,3.5,40.2,4.7,49.3
				c0.3,2.4-0.1,8.3-0.2,10.6c8.6-6.7,16.2-13.6,23.6-21C443.4,322.6,448,317,451,312.9z"/>
			<path class="st0" d="M418.5,380.1c3.9-2.8,14.4-10.8,19.3-17.1c7.2-9.2,8.8-13.1,13.6-23.7c0.6-1.3,3.3-7.3,3.5-11.3
				c-15.6,18.9-29.6,21.7-44.5,37.3c-5.5,5.7-11.1,11.1-14,13.8c-2.3,2.1-5.1,2.7-5.1,2.7s0.3-4,1.8-6.8c9.9-19,11.8-38.9,10.3-60.2
				c-4.5,5.6-6,9.4-8.8,14.8c-3.1,5.9-4.7,9.6-6.2,13.2c-8.5,21.2-10.7,45.6-16,57.9C388.6,395.3,401.4,392.4,418.5,380.1z"/>
			<path class="st0" d="M352,430c4.4,0.3,13,0.3,17.6-0.5c23.2-3.7,44.8-20.5,55.7-39c-9.9,6-17,10-25.6,13
				c-7.7,2.7-15,3.5-27.9,7.1c-7.8,2.2-15.5,5.3-18.2,6.3c-8.6,3.2-12.2,2.4-12.2,2.4s0-1.3,3.2-4.8c6.4-7,8.8-8.7,14-14
				c1.7-1.8,5.7-7.8,7.7-11.8c5.7-11.3,6.3-20.4,11.5-32.9c-19,11.2-28.3,26.5-38.3,45.9c-3.1,5.9-7.3,12.8-11.1,16.6
				c-2.6,2.5-6.2,6.4-6.2,6.4s2.6,0.6,10.9,1.8C336.9,427.1,344.8,429.5,352,430z"/>
			<path class="st0" d="M259.9,431.5c-10,1.6-18.9,4.1-28.1,7.2c-2.5,0.8-6.2,2.7-8.8,4c-6.5,3.3-10.2,5.4-15.7,9.2
				c-9,6.2-18.6,12.8-27.2,22.9c-0.2,0.2-1.6,1.7-0.7,2.4c1.7,1.3,5.9,3.2,7.3,2c7.9-7.1,7.5-9.3,17.2-18c2.5-2.2,6.2-5.3,10.6-8.4
				c4.3-3,9.6-6.2,14.5-8.6c4.4-2.2,11.3-2.8,15.1-2.8l-0.1,0c1.7-0.1,11.7-0.1,14.1,0c19.7,1.3,18.7,3.1,30,6.2
				c9.3,2.5,19.3,4.3,29.2,5.7c10.2,1.4,19.3,1.5,28.8,0.6c12.9-1.3,27.1-4.9,37.6-11.7c-9.6,0.2-19.5,2-29.1,1.3
				c-4-0.3-10.6-0.9-15-2.3c-8.8-2.7-13.9-3.8-23.2-6.4c-8-2.2-16.1-3-24.5-3.9C280.3,429.6,269.6,429.9,259.9,431.5z"/>
		</g>
	</g>
	<g>
		<path class="st0" d="M224.7,0L207,65.5h-18.7l-11.7-42.7l-11.5,42.7h-18.7L128.8,0h17.6l10.1,45.1L168.6,0h16.9l11.5,45.1L207.5,0
			H224.7z"/>
		<path class="st0" d="M282.9,12.7h-30.2v12.2h28v12.7h-28v28H236V0h47V12.7z"/>
		<path class="st0" d="M348.7,20.7c0,2.9-0.5,5.8-1.5,8.6c-1,2.8-2.5,5.2-4.4,7.1c-2.6,2.6-5.5,4.5-8.7,5.9c-3.2,1.3-7.2,2-12,2
			h-10.5v21.4h-16.9V0h27.8c4.2,0,7.7,0.4,10.5,1.1c2.9,0.7,5.4,1.8,7.6,3.2c2.6,1.7,4.7,3.9,6.1,6.6
			C348,13.7,348.7,16.9,348.7,20.7z M331.2,21.1c0-1.8-0.5-3.4-1.5-4.8c-1-1.3-2.2-2.3-3.5-2.8c-1.8-0.7-3.5-1.1-5.2-1.2
			c-1.7-0.1-3.9-0.1-6.7-0.1h-2.9v19.6h4.8c2.9,0,5.2-0.2,7.1-0.5c1.9-0.4,3.4-1.1,4.7-2.1c1.1-0.9,1.9-2.1,2.4-3.4
			C331,24.5,331.2,22.9,331.2,21.1z"/>
	</g>
	<g>
		<path class="st0" d="M149.1,523.1l-11.8,38h-12.9l-7.7-25.6l-7.7,25.6H95.9l-11.7-38H97l6.5,26.2l8.1-26.2h10.8l7.7,26.2l6.4-26.2
			H149.1z"/>
		<path class="st0" d="M183.1,517.4h-0.9c-0.5-0.2-1.2-0.3-2.1-0.5c-0.9-0.2-1.8-0.3-2.8-0.3c-2.4,0-4,0.4-4.8,1.3
			c-0.8,0.9-1.3,2.5-1.3,5v0.3h9.4v8.3h-9v29.8h-12.2v-29.8h-5.2v-8.3h5.2v-1.1c0-4.6,1.2-8.1,3.7-10.5c2.5-2.3,6.2-3.5,11.2-3.5
			c1.8,0,3.4,0.1,4.9,0.2c1.5,0.1,2.8,0.3,3.9,0.5V517.4z"/>
		<path class="st0" d="M227.4,541.6c0,3.1-0.5,6-1.4,8.6c-1,2.6-2.2,4.7-3.8,6.4c-1.6,1.8-3.5,3.1-5.5,4c-2.1,0.9-4.3,1.4-6.6,1.4
			c-2.2,0-4-0.2-5.5-0.7c-1.5-0.5-3.1-1.1-4.6-1.9v15.8h-12.2v-52H200v4c1.9-1.5,3.8-2.7,5.7-3.6c2-0.9,4.2-1.4,6.7-1.4
			c4.7,0,8.4,1.7,11,5.2C226.1,530.8,227.4,535.5,227.4,541.6z M214.9,541.9c0-3.7-0.6-6.4-1.9-8c-1.3-1.7-3.3-2.5-6-2.5
			c-1.1,0-2.3,0.2-3.5,0.5c-1.2,0.3-2.4,0.8-3.5,1.5v19.1c0.8,0.3,1.7,0.5,2.6,0.6c0.9,0.1,1.8,0.1,2.7,0.1c3.2,0,5.6-0.9,7.2-2.8
			C214.1,548.5,214.9,545.6,214.9,541.9z"/>
		<path class="st0" d="M249.4,561.1h-12.7v-13.3h12.7V561.1z"/>
		<path class="st0" d="M300.2,542.1c0,6.3-1.8,11.2-5.5,14.8c-3.6,3.6-8.8,5.4-15.4,5.4c-6.6,0-11.7-1.8-15.4-5.4
			c-3.6-3.6-5.5-8.5-5.5-14.8c0-6.3,1.8-11.2,5.5-14.8c3.7-3.6,8.8-5.4,15.3-5.4c6.6,0,11.8,1.8,15.4,5.4
			C298.4,531,300.2,535.9,300.2,542.1z M285.2,551.4c0.8-1,1.4-2.1,1.8-3.5c0.4-1.4,0.6-3.3,0.6-5.7c0-2.2-0.2-4.1-0.6-5.6
			c-0.4-1.5-1-2.7-1.7-3.6c-0.7-0.9-1.6-1.6-2.6-2c-1-0.4-2.1-0.6-3.3-0.6c-1.2,0-2.2,0.2-3.1,0.5c-0.9,0.3-1.8,1-2.6,1.9
			c-0.7,0.9-1.3,2.1-1.8,3.6c-0.4,1.5-0.7,3.5-0.7,5.8c0,2.1,0.2,3.9,0.6,5.4c0.4,1.5,0.9,2.7,1.7,3.7c0.7,0.9,1.6,1.5,2.6,1.9
			c1,0.4,2.1,0.6,3.4,0.6c1.1,0,2.2-0.2,3.2-0.6C283.6,552.9,284.5,552.3,285.2,551.4z"/>
		<path class="st0" d="M336.5,534.7h-1.1c-0.5-0.2-1.4-0.3-2.5-0.4c-1.1-0.1-2.1-0.1-2.9-0.1c-1.7,0-3.3,0.1-4.6,0.3
			c-1.3,0.2-2.8,0.6-4.3,1.2v25.5h-12.2v-38h12.2v5.6c2.7-2.3,5-3.8,7-4.6c2-0.8,3.8-1.1,5.5-1.1c0.4,0,0.9,0,1.5,0
			c0.5,0,1,0.1,1.4,0.1V534.7z"/>
		<path class="st0" d="M380.4,556.8c0,3.6-0.5,6.6-1.5,9c-1,2.4-2.4,4.3-4.3,5.7c-1.8,1.4-4,2.4-6.6,3c-2.6,0.6-5.5,0.9-8.8,0.9
			c-2.6,0-5.2-0.2-7.8-0.5c-2.6-0.3-4.8-0.7-6.7-1.2v-9.5h1.5c1.5,0.6,3.3,1.1,5.4,1.6c2.1,0.5,4.1,0.7,5.8,0.7
			c2.3,0,4.1-0.2,5.5-0.6c1.4-0.4,2.5-1,3.2-1.8c0.7-0.7,1.2-1.6,1.5-2.8c0.3-1.1,0.5-2.5,0.5-4.1v-0.7c-1.5,1.2-3.1,2.1-4.9,2.8
			c-1.8,0.7-3.8,1.1-6,1.1c-5.3,0-9.4-1.6-12.3-4.8c-2.9-3.2-4.3-8.1-4.3-14.6c0-3.1,0.4-5.8,1.3-8.1c0.9-2.3,2.1-4.3,3.7-6
			c1.5-1.6,3.3-2.8,5.5-3.7c2.2-0.9,4.4-1.3,6.7-1.3c2,0,3.9,0.2,5.6,0.7c1.7,0.5,3.2,1.2,4.6,2l0.4-1.7h11.9V556.8z M368.1,549.2
			v-17.2c-0.7-0.3-1.6-0.5-2.6-0.7c-1-0.2-1.9-0.3-2.7-0.3c-3.2,0-5.6,0.9-7.2,2.8c-1.6,1.8-2.4,4.4-2.4,7.7c0,3.7,0.7,6.2,2,7.7
			c1.4,1.4,3.4,2.2,6.1,2.2c1.2,0,2.4-0.2,3.6-0.6C366.1,550.3,367.2,549.8,368.1,549.2z"/>
	</g>
</g>
</svg>
