<?xml version="1.0" encoding="utf-8"?>
<!-- Generator: Adobe Illustrator 21.0.0, SVG Export Plug-In . SVG Version: 6.00 Build 0)  -->
<svg version="1.1" id="Layer_1" xmlns="http://www.w3.org/2000/svg" xmlns:xlink="http://www.w3.org/1999/xlink" x="0px" y="0px"
	 viewBox="0 0 311.9 211.3" style="enable-background:new 0 0 311.9 211.3;" xml:space="preserve">
<style type="text/css">
	.st0{fill:#4CAF45;}
	.st1{fill:#FFFFFF;}
</style>
<g>
	<rect class="st0" width="311.9" height="211.3"/>
	<path class="st1" d="M128.1,170.5h5.8v-16.8c2.1-2,3.3-3,5.2-3c1.9,0,3,1.2,3,3.4v16.3h5.8v-17.6c0-3.6-1.2-7.1-5.9-7.1
		c-3.5,0-6.2,2.2-8.1,4.1V139h-5.8V170.5z"/>
	<path class="st1" d="M154.3,143.3h5.8V139h-5.8V143.3z M154.3,170.5h5.8v-24.3h-5.8V170.5z"/>
	<rect x="166.8" y="139" class="st1" width="5.8" height="31.5"/>
	<path class="st1" d="M180.6,170.5h5.8v-18.1h4.8v-4.1h-4.8v-2c0-2.4,0.8-4.1,3-4.1c1.2,0,2.2,0.2,2.8,0.4v-4.1
		c-1.3-0.3-2.2-0.4-3.5-0.4c-6.2,0-8.2,3.3-8.2,8v2.2h-3.5v4.1h3.5V170.5z"/>
	<path class="st1" d="M199.9,155.9c0.2-3.1,1.5-6.1,5.1-6c2.9-0.1,4.6,2.2,4.6,6H199.9z M209.7,163.2c-0.4,1.5-1.9,3.6-4.6,3.6
		c-4.2,0-5.2-4.1-5.2-7h15.6v-2.2c0-6.4-3.4-11.9-10.3-11.9c-7.1,0-11.2,5.1-11.2,12.5c0,7.9,4.3,12.7,11.1,12.7
		c5.5,0,8.1-2.9,9.4-6.1L209.7,163.2z"/>
	<path class="st1" d="M128.1,124.3h5.8v-16.8c2.1-2,3.3-3,5.2-3c1.9,0,3,1.2,3,3.4v16.3h5.8v-17.6c0-3.6-1.2-7.1-5.9-7.1
		c-3.5,0-6.2,2.2-8.1,4.1V92.8h-5.8V124.3z"/>
	<path class="st1" d="M173.8,100h-5.8v16.7c-2.1,2-3.3,3.1-5.2,3.1c-1.6,0-2.8-1.2-2.8-3.4V100h-5.8v17.6c0,3.6,1.2,7.1,5.6,7.1
		c3.5,0,6.2-2.2,8.1-4.2v3.7h5.8V100z"/>
	<path class="st1" d="M194.5,124.3h5.8v-17.6c0-3.6-1.2-7.1-5.9-7.1c-3.5,0-6.2,2.2-8.1,4.1V100h-5.8v24.3h5.8v-16.8
		c2.1-2,3.3-3,5.2-3c1.9,0,3,1.2,3,3.4V124.3z"/>
	<path class="st1" d="M218.5,123.3c1.6,0.4,2.8,1,2.8,2.5c0,1.8-1.5,3-5.4,3c-3.1,0-5.9-0.9-5.9-3.2c0-1.8,1.2-2.9,2.6-3.8
		L218.5,123.3z M215.1,111.1c-2.5,0-4.3-1.5-4.3-3.9c0-2.3,1.4-3.8,4.4-3.8c1.9,0,4.2,1.1,4.2,3.8
		C219.4,109.6,217.7,111.1,215.1,111.1 M227.5,100h-8.8c-1.3-0.2-2.8-0.5-4.4-0.5c-5.3,0-8.9,3.4-8.9,7.7c0,3.2,1.1,5.1,4.9,6.9
		c-1.3,0.6-2.4,2.2-2.4,3.5c0,0.8,0.4,2,1.4,2.6c-1.7,0.9-4.6,2.3-4.6,6c0,3.7,4,6.2,10.8,6.2c5.5,0,11.2-1.7,11.2-7.3
		c0-3.5-2.4-5.2-5.3-6l-7.3-2c-1.1-0.3-1.4-0.5-1.4-1.1c0-0.7,0.3-1.1,0.6-1.4c0.4,0.1,0.9,0.2,1.5,0.2c7.4,0,9.6-4.1,9.6-7.2
		c0-2.6-1.2-3.9-1.9-4.5h4.7V100z"/>
	<path class="st1" d="M236,109.7c0.2-3.1,1.5-6.1,5.1-6c2.9-0.1,4.6,2.2,4.6,6H236z M245.7,117c-0.4,1.5-1.9,3.6-4.6,3.6
		c-4.2,0-5.2-4.1-5.2-7h15.6v-2.2c0-6.4-3.4-11.9-10.3-11.9c-7.1,0-11.2,5.1-11.2,12.5c0,7.9,4.3,12.7,11.1,12.7
		c5.5,0,8.1-2.9,9.4-6.1L245.7,117z"/>
	<path class="st1" d="M256.9,124.3h5.8v-16.1c1.3-1.5,3.1-3.3,6-3.3c0.6,0,1.3,0.1,2.1,0.2v-5.4c-0.4,0-0.7-0.1-1.1-0.1
		c-2.9,0-5.4,2.3-6.9,4.3h-0.1V100h-5.8V124.3z"/>
	<path class="st1" d="M146,80.2h7.3l6.4-24.3h-5.8l-2.7,11.8c-0.7,3.1-1.1,4.8-1.3,6.8h-0.3c-0.3-2-0.7-3.7-1.3-6.5l-2.8-12h-7.3
		l-2.7,11.8c-0.4,1.9-1.1,4.6-1.3,6.8h-0.2c-0.4-2.2-0.9-4.6-1.4-6.8l-3-11.8h-6.1l6.9,24.3h7.3l3.1-13.6c0.3-1.5,0.8-3.4,0.8-4.8
		h0.2c0.2,1.4,0.6,3.3,1,5.1L146,80.2z"/>
	<path class="st1" d="M167.8,65.6c0.2-3.1,1.5-6.1,5.1-6c2.9-0.1,4.6,2.1,4.6,6H167.8z M177.6,72.9c-0.4,1.5-1.9,3.6-4.6,3.6
		c-4.2,0-5.2-4.1-5.2-7h15.6v-2.2c0-6.4-3.4-11.9-10.3-11.9C166,55.5,162,60.6,162,68c0,7.9,4.3,12.7,11.1,12.7
		c5.5,0,8.1-2.9,9.4-6.1L177.6,72.9z"/>
	<rect x="188.2" y="48.7" class="st1" width="5.8" height="31.5"/>
	<path class="st1" d="M213.5,57.9h-5.7v-8l-5.8,2.4v5.5h-3.5v4.1h3.5v10.9c0,4.1,1.6,7.7,7.1,7.7c1.9,0,3.9-0.4,4.5-0.7v-4.2
		c-0.9,0.4-2.1,0.5-2.8,0.5c-2.8,0-2.9-1.7-2.9-4.2v-10h5.7V57.9z"/>
	<path class="st1" d="M71.9,155.8c6.6,0.4,12.6,2.9,17.5,6.7c4.5-4.5,7.4-10.6,8-17.4H71.9V155.8z M86.1,165.4
		c-4-2.9-8.9-4.8-14.1-5.2v10.4C77.2,170.2,82,168.3,86.1,165.4 M97.5,80c-14.3,1.1-25.6,13.1-25.6,27.7v4.1
		c5.2-8.9,14.6-15.1,25.6-15.9V80z M71.9,91.5c5.2-8.9,14.6-15.1,25.6-15.9V60.4c-14.3,1.1-25.6,13.1-25.6,27.7V91.5z M71.9,140.8
		h25.5c-0.5-6.8-3.5-12.8-8-17.4c-4.9,3.8-10.9,6.2-17.5,6.7V140.8z M97.4,100.3c-13.5,1.1-24.3,11.9-25.4,25.4
		C85.5,124.6,96.3,113.8,97.4,100.3 M101.8,98c0,8.7-3.5,16.7-9.2,22.4c5.7,5.8,9.2,13.7,9.2,22.4c0,17.7-14.4,32.1-32.1,32.1
		c-17.7,0-32.1-14.4-32.1-32.1c0-8.7,3.5-16.7,9.1-22.4c-5.7-5.8-9.1-13.7-9.1-22.4V56h2.2c13.6,0,25.3,8.5,29.9,20.5
		C74.4,64.4,86,56,99.7,56h2.2V98z M67.6,170.6v-10.4c-5.3,0.4-10.1,2.3-14.1,5.2C57.4,168.3,62.3,170.2,67.6,170.6 M67.6,155.8
		v-10.7H42.1c0.5,6.8,3.5,12.8,8,17.4C54.9,158.7,61,156.2,67.6,155.8 M67.6,140.8v-10.7c-6.6-0.4-12.6-2.9-17.5-6.7
		c-4.5,4.5-7.4,10.6-8,17.4H67.6z M67.6,111.8v-4.1C67.6,93.1,56.3,81.1,42,80v15.9C52.9,96.7,62.3,102.9,67.6,111.8 M67.6,91.5
		v-3.4c0-14.6-11.3-26.6-25.6-27.7v15.2C52.9,76.4,62.3,82.6,67.6,91.5 M42.1,100.3c1.1,13.5,12,24.3,25.5,25.4
		C66.5,112.2,55.6,101.4,42.1,100.3 M37.6,51.6V40.3H42v11.3c-0.7,0-1.4-0.1-2.2-0.1H37.6z M82.5,55.9V40.3h4.4v13.6
		C85.4,54.5,83.9,55.1,82.5,55.9 M97.5,51.7l0-11.3h4.4v11.3h-2.2C98.9,51.6,98.2,51.6,97.5,51.7 M67.6,64.4V40.3h4.4v24.1
		c-0.8,0.9-1.5,1.8-2.2,2.8C69.1,66.3,68.3,65.3,67.6,64.4 M52.6,53.9V40.3h4.4v15.6C55.5,55.1,54.1,54.5,52.6,53.9"/>
</g>
</svg>
