<?xml version="1.0" encoding="utf-8"?>
<!-- Generator: Adobe Illustrator 21.0.0, SVG Export Plug-In . SVG Version: 6.00 Build 0)  -->
<svg version="1.1" id="Layer_1" xmlns="http://www.w3.org/2000/svg" xmlns:xlink="http://www.w3.org/1999/xlink" x="0px" y="0px"
	 viewBox="0 0 45.2 42" style="enable-background:new 0 0 45.2 42;" xml:space="preserve">
<style type="text/css">
	.st0{fill:#308CCB;}
	.st1{fill:none;stroke:#FFFFFF;stroke-width:0.2966;stroke-miterlimit:10;}
	.st2{fill:#FFFFFF;}
</style>
<g>
	<path class="st0" d="M16.1,11.2c0,0-0.5,0.3-1,1.5c0.1-0.5,0.2-0.8,0.2-0.8s-0.5,0.3-0.9,0.1c0.4,0.1,0.8-0.1,1.1-0.4
		c0.3-0.3,0.3-0.6,0.3-0.6L16.1,11.2L16.1,11.2z"/>
	<path class="st0" d="M15.6,11c0,0-0.1-0.3,0.2-0.8c0.1-0.1,0.1-0.3,0.2-0.5c0.1-0.3,0.1-0.5,0.3-0.8c0.3-0.4,0.6-0.8,0.8-1
		c0.7-0.7,1.3-0.9,1.8-1c0.1,0,0.3-0.1,0.4-0.1c0.1,0,0.1-0.1,0.2-0.1C20,6.5,20.9,6,22.7,5.9c4.7-0.2,6.5,2.3,6.6,4
		c0.1,1.9-0.8,3.4-2.7,4.3c-0.9,0.5-2,0.7-3.1,1c-0.7,0.2-1.4,0.3-2,0.5c-0.7,0.2-1.1,0.6-1.3,1c-0.1,0.4,0,0.8,0.3,1.2
		c0.3,0.3,0.6,0.5,1.1,0.7c0.3,0.1,0.5,0.2,0.7,0.3c0.3,0.1,0.6,0.2,0.8,0.3l0.2,0.1c0.6,0.2,1.5,0.6,2.2,1.1
		c0.9,0.7,1.3,1.5,1.2,2.4c-0.1,0.8-0.7,1.5-1.7,1.9c-0.5,0.2-0.9,0.3-1.2,0.4c-0.3,0.1-0.6,0.2-0.8,0.3c-0.9,0.3-1.2,0.5-1.1,0.9
		c0.1,0.4,0.5,0.6,1.1,0.9c1.1,0.5,2.5,1.2,2.5,3.5l0,1l-0.3-0.9c-0.5-1.6-1.6-2-2.7-2.4l-0.1,0c-1.1-0.4-2-0.9-2.2-1.9
		c-0.1-1,0.1-2,2.1-2.6c1.1-0.4,2.3-0.8,2.3-1.3c-0.1-0.7-1.5-1.1-2.9-1.6c-0.4-0.1-0.9-0.3-1.3-0.4c-1.5-0.5-2.2-1.2-2.5-2.4
		c-0.5-1.9,0.4-3.5,2.3-4.4c0.7-0.3,1.8-0.6,2.7-0.8c0.5-0.1,1-0.2,1.4-0.4c1.8-0.5,2.5-1.7,2.4-2.5c0-1-0.9-1.8-2.3-2.2
		c0,0-3.2-0.7-4.6,1.3c-0.4,0.5-1.7,1.3-2.4,1.7c-1.2,0.7-1.6,0.4-1.6,0.3L15.6,11L15.6,11L15.6,11z"/>
	<path class="st1" d="M15.6,11c0,0-0.1-0.3,0.2-0.8c0.1-0.1,0.1-0.3,0.2-0.5c0.1-0.3,0.1-0.5,0.3-0.8c0.3-0.4,0.6-0.8,0.8-1
		c0.7-0.7,1.3-0.9,1.8-1c0.1,0,0.3-0.1,0.4-0.1c0.1,0,0.1-0.1,0.2-0.1C20,6.5,20.9,6,22.7,5.9c4.7-0.2,6.5,2.3,6.6,4
		c0.1,1.9-0.8,3.4-2.7,4.3c-0.9,0.5-2,0.7-3.1,1c-0.7,0.2-1.4,0.3-2,0.5c-0.7,0.2-1.1,0.6-1.3,1c-0.1,0.4,0,0.8,0.3,1.2
		c0.3,0.3,0.6,0.5,1.1,0.7c0.3,0.1,0.5,0.2,0.7,0.3c0.3,0.1,0.6,0.2,0.8,0.3l0.2,0.1c0.6,0.2,1.5,0.6,2.2,1.1
		c0.9,0.7,1.3,1.5,1.2,2.4c-0.1,0.8-0.7,1.5-1.7,1.9c-0.5,0.2-0.9,0.3-1.2,0.4c-0.3,0.1-0.6,0.2-0.8,0.3c-0.9,0.3-1.2,0.5-1.1,0.9
		c0.1,0.4,0.5,0.6,1.1,0.9c1.1,0.5,2.5,1.2,2.5,3.5l0,1l-0.3-0.9c-0.5-1.6-1.6-2-2.7-2.4l-0.1,0c-1.1-0.4-2-0.9-2.2-1.9
		c-0.1-1,0.1-2,2.1-2.6c1.1-0.4,2.3-0.8,2.3-1.3c-0.1-0.7-1.5-1.1-2.9-1.6c-0.4-0.1-0.9-0.3-1.3-0.4c-1.5-0.5-2.2-1.2-2.5-2.4
		c-0.5-1.9,0.4-3.5,2.3-4.4c0.7-0.3,1.8-0.6,2.7-0.8c0.5-0.1,1-0.2,1.4-0.4c1.8-0.5,2.5-1.7,2.4-2.5c0-1-0.9-1.8-2.3-2.2
		c0,0-3.2-0.7-4.6,1.3c-0.4,0.5-1.7,1.3-2.4,1.7c-1.2,0.7-1.6,0.4-1.6,0.3L15.6,11L15.6,11L15.6,11z"/>
	<path class="st0" d="M22.6,23.7c0.3-0.1,0.5-0.2,0.6-0.2l0.1,0l0.1,0l0-0.1c0,0,0-0.8,0.1-5.3c0-1.3,0-2.3,0-2.4l0-0.2l-0.2,0
		c-0.3,0-1.2,0.3-1.5,0.4l-0.1,0l0,0.1c0,0.2,0.1,7.7,0.1,7.7l0,0.2l0.2-0.1C22,23.9,22.3,23.8,22.6,23.7L22.6,23.7z"/>
	<path class="st1" d="M22.6,23.7c0.3-0.1,0.5-0.2,0.6-0.2l0.1,0l0.1,0l0-0.1c0,0,0-0.8,0.1-5.3c0-1.3,0-2.3,0-2.4l0-0.2l-0.2,0
		c-0.3,0-1.2,0.3-1.5,0.4l-0.1,0l0,0.1c0,0.2,0.1,7.7,0.1,7.7l0,0.2l0.2-0.1C22,23.9,22.3,23.8,22.6,23.7L22.6,23.7z"/>
	<path class="st0" d="M23.3,25.8c0,0.3-0.2,7.5-0.2,8C23,35,22.7,35,22.6,35c-0.3,0-0.4-0.4-0.5-1.3c0-0.6-0.2-6.8-0.2-7.1
		c0-0.5,0.7-0.8,1.2-1l0.2-0.1V25.8L23.3,25.8z"/>
	<path class="st1" d="M23.3,25.8c0,0.3-0.2,7.5-0.2,8C23,35,22.7,35,22.6,35c-0.3,0-0.4-0.4-0.5-1.3c0-0.6-0.2-6.8-0.2-7.1
		c0-0.5,0.7-0.8,1.2-1l0.2-0.1V25.8L23.3,25.8z"/>
	<path class="st0" d="M21.6,13c0-0.7-0.1-8.2-0.2-8.6c0-0.1-0.1-0.3-0.1-0.4c-0.2-1-0.5-2.6,0.1-3.3c0.3-0.3,0.6-0.5,1.1-0.5
		c0.5,0,0.9,0.2,1.1,0.4c0.6,0.7,0.3,2,0.2,2.9c-0.1,0.3-0.1,0.6-0.1,0.8c0,0.4-0.2,7.7-0.2,8.3v0.1l-0.1,0
		c-0.3,0.1-0.6,0.2-0.9,0.2c-0.3,0-0.5,0.1-0.7,0.2l-0.2,0.1V13L21.6,13z"/>
	<path class="st1" d="M21.6,13c0-0.7-0.1-8.2-0.2-8.6c0-0.1-0.1-0.3-0.1-0.4c-0.2-1-0.5-2.6,0.1-3.3c0.3-0.3,0.6-0.5,1.1-0.5
		c0.5,0,0.9,0.2,1.1,0.4c0.6,0.7,0.3,2,0.2,2.9c-0.1,0.3-0.1,0.6-0.1,0.8c0,0.4-0.2,7.7-0.2,8.3v0.1l-0.1,0
		c-0.3,0.1-0.6,0.2-0.9,0.2c-0.3,0-0.5,0.1-0.7,0.2l-0.2,0.1V13L21.6,13z"/>
	<polygon class="st2" points="18.4,8.5 17.9,8.6 17.3,9.1 17.2,9.4 17.6,9.5 18.2,8.8 18.4,8.5 	"/>
	<path class="st0" d="M29.3,14.9v-0.2l-0.1,0.1l0,0.2L29.3,14.9L29.3,14.9z M29.3,15.8L29.3,15.8l0.2-0.1l0.1-0.2l-0.1,0l-0.1,0.1
		l-0.1-0.3l-0.1,0.1l0.1,0.2l-0.1,0.2l-0.1,0L29,15.7l0,0.2L29.3,15.8L29.3,15.8z M29.7,15l0.2,0.1l0.2,0l-0.2,0l0-0.2v-0.1
		l-0.1-0.2l-0.1,0l-0.1,0l-0.2,0.2l0.3,0.1L29.7,15L29.7,15z M31.1,13.7l0.1,0.1l0.1,0l0.1,0.1l0-0.1L31.1,13.7l-0.2-0.3L31.1,13.7
		L31.1,13.7L31.1,13.7z M28.7,16.2l0.1-0.1l-0.3,0l-0.1,0.1l0.2,0.1L28.7,16.2L28.7,16.2z M32.1,16.2l0.1,0.2l0,0.1l0.1,0.4l0.1,0
		v-0.4l-0.1-0.1l0-0.4L32,15.4l0,0.1l0.1,0.3L32.1,16.2L32.1,16.2z M31.3,14.1l0.2,0.4l0.1,0.1l-0.2-0.4L31.3,14.1L31.3,14.1z
		 M31.9,15.1L31.9,15.1l-0.1-0.4l-0.1,0l0.1,0.2L31.9,15.1L31.9,15.1z M29.4,11.9C29.4,11.9,29.4,12,29.4,11.9l0.1,0.2l0.1,0
		L29.4,11.9L29.4,11.9z M9.8,27.2l0-0.1l-0.2-0.2l-0.1,0L9.8,27.2l-0.1,0l0.1,0.2l0.1,0.2l0.1,0L10,27.4L9.8,27.2L9.8,27.2z
		 M29.8,7.9L30,8.1l0.4,0.1l0.1,0.2h0.1l0-0.3l-0.1-0.1l0-0.1l-0.2-0.1l-0.1,0.1L30,7.9l0.1-0.1L29.8,7.9L29.8,7.9z M25,30.9
		L25,30.9C25,30.9,25,30.9,25,30.9L25,30.9L25,30.9z M37,25.8c-0.8,1.8-1.9,3.5-3.3,4.9l-2.1-2.1c1.2-1.2,2.1-2.5,2.7-4
		c0.6-1.5,1-3.1,1-4.8h2.9C38.2,21.9,37.8,23.9,37,25.8L37,25.8z M31.2,28.2l0-0.1l0.1-0.1l-0.1-0.7l0-0.2l-0.1-0.3L31,26.8l0.1,0
		L31,26.6l-0.3,0v0.2l-0.1,0.1l0.1,0.2l-0.1,0.3l-0.1,0.1l0,0.1l-1.1-1.1c1.7-1.8,2.7-4.1,2.8-6.5h2.9c0,3.2-1.3,6.3-3.6,8.6
		L31.2,28.2L31.2,28.2z M29.1,30.4L29.1,30.4l0.1-0.2l-0.1-0.3l0.4-0.3l0-0.2l-0.3-0.1l0.3-0.5l0.3-0.5l-0.4-0.5l-0.1,0l-0.2,0
		L29,27.3l-0.1,0L29,27l0.1-0.3c0.1-0.1,0.1-0.1,0.2-0.2l1.3,1.3l0,0l0,0l0.8,0.8C30.6,29.3,29.9,29.9,29.1,30.4L29.1,30.4z
		 M28.8,25.3l-0.5,0.4l-0.1,0.1l0-0.1H28l-0.3,0.1l-0.3-0.1h-0.2l-0.2-0.2l-0.2,0l-0.1-0.1l-0.2,0l-0.1-0.2l-0.1,0c0,0,0,0,0,0
		l0.1,0V25l0.3,0.1l0.1,0.1l0.4,0.1l0,0.1h0.3l0.4,0.1l0.1,0.2l0.2,0l0.2-0.2l0.1-0.3l0.2-0.6l0-0.1l0.1-0.1l0.1-0.4l-0.1-0.1
		l0.1-0.1l-0.1-0.1l0-0.4l-0.2,0.1l-0.1,0.2l-0.2,0l0,0.3L28,23.9l-0.1-0.1L27.7,24l-0.3,0l0,0c0.1-0.1,0.1-0.2,0.2-0.3h0.2l0.2,0
		l0.2-0.2l0-0.1l0.2,0l0.3-0.5l0.3-0.5l0.7-0.3l0-0.2l-0.1-0.1l0-0.1l0.2,0.1l0.4,0.1l0.4-0.1l0.6-0.1l-0.1-0.4l-0.2-0.2l-0.3,0
		l-0.4-1l-0.1,0L29.7,20l0.1-0.1l0,0h2.1c0,2.4-1,4.7-2.7,6.4l-0.1-0.1l0-0.1l0.1-0.4l-0.1-0.6l-0.1-0.3L29,24.9l-0.2,0.2V25.3
		L28.8,25.3z M26.9,17l0.3-0.1l-0.3-0.2l0.2-0.2l0-0.1l0.3-0.1L27.1,16l-0.3,0.3l0,0.2l-0.2-0.1l-0.2,0l-0.1-0.1l0,0l0.5-0.5l0,0.1
		l0.4,0l0.1-0.2c0.2,0.2,0.4,0.5,0.5,0.7l0,0l-0.2,0.4l-0.3-0.2l-0.1,0l0.1,0.2l0.1,0.1l-0.1,0.2l0-0.1L26.9,17L26.9,17z M26.9,15.6
		l0.2-0.2c0.1,0.1,0.1,0.1,0.2,0.2l-0.2,0.2l-0.2,0l-0.1-0.1L26.9,15.6L26.9,15.6L26.9,15.6z M29.3,13.2c0.2,0.2,0.4,0.5,0.6,0.7
		L29.8,14l-0.1,0l0.2,0.1L30,14c0.1,0.1,0.2,0.2,0.3,0.4h-0.1v0.1l0.1,0l0.3,0.5l0.1,0c0,0.1,0.1,0.1,0.1,0.2v0.2l-0.2,0.2l-0.1-0.2
		l-0.2,0l0.1,0.2l-0.1,0.1l0.3,0.1l0.1,0.2l0.3,0.1l0,0.1l0.2,0.1l0,0.4l0.1,0c0.1,0.2,0.2,0.5,0.2,0.7l0,0l-0.1,0.2l-0.2,0.1
		l-0.1,0.4l-0.4,0.2l-0.1-0.2l0.1-0.6l0.2-0.1L30.3,17L30,17.1l-0.3,0.6l-0.3-0.2l-0.1-0.2l0.2-0.1l0.1,0.1l0.1,0l0-0.2l-0.2-0.1
		l0,0.1h-0.1L29.2,17l-0.3-0.3l-0.4-0.3l-0.4,0l0,0.1c-0.2-0.4-0.5-0.7-0.8-1.1L29.3,13.2L29.3,13.2z M30.8,14.7L30.8,14.7
		C30.8,14.8,30.8,14.7,30.8,14.7L30.8,14.7L30.8,14.7z M30.2,18.8l0.4-0.3l0.5,0l0.1-0.3l0.2-0.1l0.2-0.4l0.1-0.2c0,0.1,0,0.1,0,0.2
		L31.6,18l0,0.1l-0.1,0.2l0,0.1l-0.2,0.3l0,0.2l0.1,0l0.2-0.4v-0.2l0.1,0l0,0c0.1,0.5,0.1,0.9,0.1,1.4h-2.2l-0.1,0l0-0.2l0.2-0.1
		l0.1-0.2l0.4,0V19L30.2,18.8L30.2,18.8z M29.5,13.1l0.3,0.3l0.1-0.4l-0.2,0v0l0.6-0.6l0.4,0.4l0.4,0l0.1,0.2l0,0.3l0.8,0.5l0.2,0
		l0.5,0.6l0.1,0.3l0.4,0.4l0.4,0l0.2-0.4c0.7,1.6,1.1,3.3,1.1,5.1h-2.9c0-0.6-0.1-1.1-0.1-1.7l0.1-0.2h0.1l0.2-0.7l-0.1,0l0-0.1
		L32,17l-0.1-0.1l-0.1,0.1l0.2,0.1l-0.1,0l-0.1,0.1c-0.1-0.3-0.2-0.6-0.2-0.8l0.2-0.3l0-0.3l-0.1,0l-0.1-0.3l0.1-0.1l-0.2-0.2
		l-0.3,0l-0.1-0.1C31,15.2,31,15.1,30.9,15h0.3l-0.1-0.1l0.2-0.1v-0.1l-0.1,0L31,14.8l-0.1-0.1l0.2-0.3L31,14.4l-0.2,0.2l-0.2-0.1
		c-0.2-0.2-0.3-0.5-0.5-0.7l0-0.1l0,0C29.9,13.5,29.7,13.3,29.5,13.1L29.5,13.1L29.5,13.1z M33.8,8.8c1.4,1.4,2.5,3,3.2,4.8
		c0.8,1.9,1.2,4,1.2,6.1h-2.9c0-1.7-0.3-3.4-1-4.9c-0.1-0.2-0.1-0.3-0.2-0.4l0.1-0.2l0.2,0.1l0.1-0.2l-1-1.6l-0.2-0.1l-1.4-1.6v0
		L33.8,8.8L33.8,8.8z M8.2,25.8C7.4,23.9,7,21.9,7,19.9h2.9c0,1.3,0.2,2.5,0.6,3.8l-0.2,0.1l-0.6-0.3l-0.1,0.1l-0.2-0.1l-0.1,0.1
		l0.1,0.2l-0.3,0l-0.2-0.1l0-0.2l0-0.1H8.8l0,0.2l0,0.1l-0.1,0l-0.2,0.1l0.2,0.1l-0.2,0l-0.1,0.1l0.1,0H8.3v0.2l0.1,0.1l0.1,0.1H8.3
		l0.1,0.2l0.1,0l0,0.1l0.1,0.1l0,0.1l-0.3-0.2l0.1,0.3l-0.2-0.4v0.3l0.2,0.4l0.1,0.3L9,26.6l0-0.2l-0.3-0.8v-0.3L8.8,25l0.6,0.7
		l0.1-0.1l-0.1-0.4l0.1,0.1l0.2,0.3l0.3,0.1l0.1,0.2l0.1,0l-0.1-0.2l0.1-0.1l0.1,0.3l0.2,0.3l0.2,0l0.5,0.9l0.3,0.1l0.1-0.3l0.1,0.1
		l0.4,0.6l0.5,0.1c0.3,0.4,0.6,0.7,1,1.1l-2.1,2.1C10.1,29.3,9,27.6,8.2,25.8L8.2,25.8z M8.2,13.6c0.8-1.8,1.9-3.4,3.2-4.8l2.1,2.1
		c-1.1,1.1-2,2.5-2.6,3.9c-0.7,1.6-1,3.2-1,4.9H7C7,17.6,7.4,15.5,8.2,13.6L8.2,13.6z M13.1,19.9c0,0.4,0,0.9,0.1,1.3L13,21.1v0.2
		l-0.1,0l-0.1-0.2l-0.2,0.1l0,0.2l-0.5,0.8l-0.1,0l-0.1,1.3l-0.4,0.2l-0.1,0l-0.2,0.1l-0.4,0l0,0c-0.4-1.2-0.6-2.5-0.6-3.8H13.1
		L13.1,19.9z M15.9,13.2l2.1,2.1c-0.5,0.5-0.9,1.1-1.2,1.7l-0.1,0l0.1-0.1l-0.2,0.2l-0.2,0.1l0-0.1L16,17.2l0,0.1l0.2-0.1l0.3,0
		l0.3-0.1c0,0,0,0.1,0,0.1l-0.3,0.2l-0.1-0.1l-0.4,0.3l-0.4-0.1l-0.2,0.3l-0.4,0.8l0.1,0.2l-0.3,0.4l0,0.3l0,0h-1.3
		C13.3,17.3,14.2,15,15.9,13.2L15.9,13.2z M16.9,17.2c0,0,0-0.1,0.1-0.1l0.1,0L16.9,17.2L16.9,17.2L16.9,17.2z M17.3,21l0.3,0.1
		l0.2,0.3l0.1-0.1l0.3,0.2l0.1,0.2l-0.2-0.1l0,0.1l0.2,0.1l0.2,0.2v-0.1l0-0.2l0.1-0.2l0.1-0.1l-0.2-0.3l0.3,0.1l0.2,0.2l0.1,0.3
		l0.2,0L18.7,22l0.2,0.4l0.2,0l0-0.2l0-0.2l0.2,0l0.2-0.3l0.1-0.4l0.1,0l0.1-0.2c0.2,0.3,0.3,0.6,0.6,0.8L18.2,24
		c-0.9-0.9-1.5-2.1-1.7-3.5l0.1,0L17,21L17.3,21L17.3,21z M15.1,19.4l0.1-0.5l0.4-0.2l0.5,0.1l0.1,0.2c0,0.2,0,0.4,0,0.7h-0.8l0-0.1
		L15.1,19.4L15.1,19.4z M16,26.3c-0.2-0.2-0.4-0.4-0.5-0.6h0l0.1-0.3l0-0.4l-0.3-0.5v-0.5l-0.1-0.3l0.1-0.1l-0.3-0.6l0-0.2l-0.2-0.3
		l-0.2,0l0.3,0l-0.1-0.1l-0.2-0.4l-0.3-0.1l0.1-0.3l-0.1-0.4l0.2-0.4l0.4,0l0.1-0.2l0-0.4h0.3l0.2,0l0.2,0.1l0-0.1h0.8
		c0,0.2,0,0.4,0,0.6l0,0l-0.2,0l-0.3,0.3l0.2,0l0.2-0.1c0.2,1.4,0.8,2.6,1.8,3.5L16,26.3L16,26.3z M15.8,26.5l-0.1-0.2
		C15.7,26.3,15.8,26.4,15.8,26.5L15.8,26.5L15.8,26.5z M15,25.7L15,25.7l0.1-0.1c0,0,0.1,0.1,0.1,0.1L15,25.7L15,25.7z M14.1,21.5
		l-0.3,0.1l-0.1-0.1l-0.1-0.1l-0.1-0.1c-0.1-0.5-0.1-0.9-0.1-1.4h1.2l0,0.1l-0.2,0.3l-0.1,0L14,20.9l0.2,0.3L14.1,21.5L14.1,21.5z
		 M13.7,28.5c-0.2-0.2-0.4-0.5-0.6-0.7l0.2,0.1l0.2-0.1l0.5,0.3l0.1,0L13.7,28.5L13.7,28.5z M37.2,13.5c-0.8-1.9-1.9-3.6-3.4-5
		c-1.5-1.5-3.1-2.6-5-3.4c-1.5-0.6-3.1-1-4.7-1.2c0,0.1,0,0.2,0,0.2c1.6,0.1,3.1,0.5,4.6,1.2c1.8,0.8,3.5,1.9,4.9,3.3l-1.8,1.8
		l0-0.1l-0.2,0l-0.2-0.1l-0.3-0.1l0.4-0.1L31.5,10h-0.2l0.1-0.2l-0.2-0.4l-0.5-0.6l-0.5-0.3L30,8.4l-0.2,0V8.3l-0.4-0.2l-0.2,0.2
		c0.3,0.6,0.5,1.1,0.5,1.7c0,0.4,0,0.8-0.1,1.1l0.2-0.1l0.5,0.9l-0.3,0l0.2,0.2l-0.6,0.6l-0.3-0.4l0-0.3c-0.1,0.2-0.2,0.4-0.3,0.5
		l0,0.1l0.4,0l0,0.1l-0.2,0.2c-0.1-0.1-0.2-0.2-0.3-0.3c0,0.1-0.1,0.1-0.1,0.2c0.1,0.1,0.2,0.2,0.3,0.3l-2.1,2.1
		c-0.2-0.2-0.3-0.3-0.5-0.5c-0.1,0-0.2,0.1-0.2,0.1c0.2,0.2,0.4,0.3,0.6,0.5l-0.3,0.3l0,0l0-0.1l-0.2,0.1l-0.2,0v-0.2l-0.2,0.1
		l-0.3,0.2l0.1,0.1l0.2-0.2l0.3,0.1v0l0.2,0L26,16.2l-0.7,0.1l-0.2,0.3L25,16.7l0,0.1l0.1,0l0.1,0.1l0,0.1l0,0l-0.2,0l-0.4,0.1
		c-0.1-0.1-0.2-0.1-0.2-0.2l0,0l-0.1-0.1c-0.1-0.1-0.3-0.1-0.4-0.2l0,0.8c0,0.3,0,0.5,0,0.8l0.1,0l0.1,0.1l-0.2,0.2
		c0,0.1,0,0.2,0,0.3l0.3-0.3L24,18.7l0.1,0l0.1,0.4l0.2,0.2L23.9,19l0,0.2c0.6,0.2,1.4,0.6,2,1.1c1,0.7,1.5,1.7,1.3,2.7
		c-0.1,0.7-0.5,1.3-1.1,1.7l0,0.1L26,24.9l-0.2,0l-0.1,0.1l-0.5,0.2l-0.4,0l-0.1,0.2l0.1,0.1l0,0c-0.1,0-0.1,0-0.2,0.1l-0.3,0
		l-0.1-0.1l-0.3,0l0,0c-0.1,0-0.1,0-0.2,0.1l0,0.2c0,0.1,0,0.6,0,1.3c1,0.5,2.3,1.4,2.3,3.7c0,0,0,0.4-0.1,0.7l0,0l0.5,0.1
		c-0.9,0.3-1.8,0.4-2.7,0.5c0,0.1,0,0.2,0,0.2c1-0.1,2-0.2,2.9-0.5l0.2,0.1l0.2,0.2L27,32l0.4-0.1l0.2-0.1l0.4-0.2l0.4-0.3l0.5-0.5
		l0-0.1c0.9-0.5,1.7-1.1,2.5-1.9l2.1,2.1c-1.4,1.4-3,2.5-4.8,3.2c-1.9,0.8-4,1.2-6.1,1.2c-2.1,0-4.2-0.4-6.1-1.2
		c-1.8-0.8-3.4-1.9-4.8-3.2l2.1-2.1c1.1,1.1,2.5,2,3.9,2.6c1.3,0.6,2.7,0.9,4.1,1c0-0.1,0-0.1,0-0.2c-3-0.2-5.7-1.4-7.9-3.5l0.4-0.4
		l0.4,0.3l0.8-0.1l0.3-0.3l0.4,0l0.4,0l0.2-0.2l0-0.2l-0.2-0.3l-0.3-0.5L16,27l-0.2-0.3l0.1-0.1c1.6,1.5,3.6,2.4,5.7,2.6
		c0-0.1,0-0.1,0-0.2c-2.1-0.2-4-1.1-5.5-2.6l2.1-2.1c0.5,0.5,1.2,0.9,1.9,1.2c0-0.1,0-0.1,0.1-0.2c-0.7-0.3-1.3-0.7-1.8-1.2l2.1-2.1
		c0.3,0.3,0.7,0.5,1.1,0.7l0-0.2c-0.4-0.1-0.7-0.3-1-0.6l0.1-0.1l0.1,0l0.1-0.1l0.3,0l0.2-0.1l0.2,0l0-0.4l-0.6-0.2l0,0l-0.3,0
		l-0.2,0.3l-0.1,0.3l0,0c-0.3-0.3-0.5-0.6-0.6-1l0-0.1c-0.2-0.1-0.4-0.2-0.5-0.3l-0.1,0.1l-0.2-0.1l-0.2,0.1l-0.1-0.1l0.1-0.1l0.2,0
		c-0.7-0.5-1-1.1-1.2-1.9c-0.1-0.5-0.2-1-0.1-1.4l-0.3,0.1l-0.2,0c0.2-0.4,0.4-0.7,0.7-1.1c0.1-0.3,0.2-0.5,0.4-0.7c0,0,0,0,0,0
		L16,13.1c1.4-1.4,3.3-2.3,5.2-2.6c0-0.1,0-0.1,0-0.2c-2,0.3-3.9,1.2-5.4,2.7l-0.5-0.5c0,0,0,0,0,0c0,0.1-0.1,0.2-0.1,0.2l0.4,0.4
		c-1.7,1.8-2.7,4.1-2.7,6.6h-2.9c0-3.3,1.3-6.3,3.5-8.7l0.8,0.8c0.1,0,0.1,0,0.2,0c0,0,0.1,0,0.1,0l-1-1c0.6-0.6,1.3-1.2,2.1-1.7
		c0-0.1,0.1-0.2,0.2-0.4c-0.9,0.5-1.7,1.2-2.4,1.9l-2.1-2.1c1.4-1.4,3.1-2.5,4.9-3.3c1.5-0.6,3-1,4.6-1.2l0-0.2
		c-1.6,0.2-3.2,0.5-4.6,1.2c-1.9,0.8-3.6,1.9-5,3.4c-1.5,1.5-2.6,3.1-3.4,5c-0.8,2-1.2,4-1.2,6.2c0,2.1,0.4,4.2,1.2,6.2
		c0.8,1.9,1.9,3.6,3.4,5c1.5,1.5,3.1,2.6,5,3.4c2,0.8,4,1.2,6.2,1.2c2.1,0,4.2-0.4,6.2-1.2c1.9-0.8,3.6-1.9,5-3.4
		c1.5-1.5,2.6-3.1,3.4-5c0.8-2,1.2-4,1.2-6.2C38.4,17.6,38,15.5,37.2,13.5L37.2,13.5z M31.2,21l-0.4,0.1l0.1,0.2l0.3,0L31.2,21
		L31.2,21z M20,20.7c0,0-0.1,0-0.1-0.1l0,0.3L20,20.7L20,20.7z M20.2,20.8c-0.1,0-0.1,0-0.2-0.1l0,0.2L20.2,20.8L20.2,20.8z
		 M15.1,12.5c0-0.1,0-0.2,0.1-0.3L15,12.1c-0.1,0-0.2,0-0.3,0L15.1,12.5L15.1,12.5z M21.2,17.1L21.2,17.1C21.2,17,21.2,17,21.2,17.1
		L21.2,17.1L21.2,17.1z M21.1,16.7L21.1,16.7c-0.2,0.2-0.4,0.3-0.5,0.4c0,0.2,0.1,0.5,0.3,0.7c0.1,0.1,0.2,0.2,0.3,0.3l0.3-0.1
		l0-1.3l-0.1,0l0-0.2l0.1-0.1l0-0.1l-0.1,0.1l-0.1,0.2L21.1,16.7L21.1,16.7z M23.6,29.2C23.6,29.2,23.6,29.2,23.6,29.2
		C23.6,29.2,23.6,29.2,23.6,29.2C23.6,29.2,23.6,29.2,23.6,29.2L23.6,29.2z M15.6,21.8L15.6,21.8l-0.1,0.1l-0.1-0.2l0,0l0,0.2
		l0.1,0.1l0,0.1l0.1,0.2l0.1,0.2l0.1,0l0-0.3L15.6,22L15.6,21.8L15.6,21.8z M15.5,20.3l0.1,0.3l-0.1,0.1l0,0.2l0,0.3l-0.1,0.1
		l0.2,0.4l0,0l0-0.4l0.1-0.6l-0.1-0.3L15.5,20.3L15.5,20.3z M24,22.4L24,22.4C24,22.4,24,22.4,24,22.4L24,22.4L24,22.4z M23.8,22.9
		l0,0.1l0,0.1c0.5-0.2,0.5-0.4,0.5-0.4c0-0.2-0.3-0.4-0.7-0.6c0,0.1,0,0.3,0,0.4l0.1,0.1c0,0-0.1,0-0.1,0c0,0.1,0,0.2,0,0.2
		c0,0,0.1,0,0.1,0L23.8,22.9L23.8,22.9z M25.6,15.9h0.2l0-0.1l-0.2,0l-0.1-0.1l-0.2,0l0.1,0.2V16L25.6,15.9L25.6,15.9z M25.3,16.2
		l-0.1,0.1l0-0.1l-0.3,0.5l0.2,0l0-0.2L25.3,16.2l0.2-0.1L25.4,16L25.3,16.2L25.3,16.2z M24.2,16l-0.3,0l-0.1,0.1h-0.1l0,0.5
		l0.3-0.1L24.2,16L24.2,16z M26.3,10.9c-0.8-0.3-1.6-0.5-2.4-0.7c0,0.1,0,0.1,0,0.2c0.8,0.1,1.6,0.3,2.3,0.6
		C26.2,11,26.3,11,26.3,10.9L26.3,10.9z"/>
	<path class="st0" d="M17.5,41.9l1.2,0.1c0,0,1.5-3.3,5.2-3.4c2.4-0.1,4.5,1.1,7,1.3c3.1,0.2,5.2-0.4,6.9-2.1c-1.9,1-4,0.6-6.6,0
		c-1.6-0.4-3.3-0.5-4.6-0.5C20.9,37.3,17.5,41.9,17.5,41.9"/>
	<path class="st0" d="M35,31.2c-0.5,0.5-1.3,1.3-2,2.8c-0.7,1.5-0.7,2.1-1.4,3.1c1.5-0.6,2.6,0.5,6.5-0.9c1.8-0.7,3-2.3,3.6-3.8
		c-1.4,1.2-2.5,1.9-4.1,2.1c-1.6,0.2-2.6,0.3-3.9,1.1c0.8-0.9,1.2-1.4,1.6-2.6c0.5-1.3,0.4-2.3,0.9-3.3C35.8,30.2,35.5,30.6,35,31.2
		"/>
	<path class="st0" d="M36.9,29.3c-0.4,2.1-0.3,3.8-1.3,5.1c1.4-1.2,2.8-1.2,4.7-2c2.3-1.1,3.5-3.1,4.1-5.9c-0.5,1.2-1.8,2.4-3.2,3.3
		c-1.2,0.8-2.5,1.1-3.4,2.3c0.5-0.6,0.7-0.9,0.8-1.6c0.4-1.9-0.2-3,0-5C38.2,26.3,37.2,27.9,36.9,29.3"/>
	<path class="st0" d="M39.1,23.2c-0.1,3.2,1.2,3.9,0.2,6.9c0.8-1.2,1.8-1.6,3.1-2.7c1.6-1.4,2.9-3.5,2.8-6.4
		c-0.3,0.8-1.3,2.4-2.3,3.5c-1,1.1-1.9,2.4-2.4,3.3c1-3.6-0.8-5-1-7.1C39.4,21.4,39.1,22.6,39.1,23.2"/>
	<path class="st0" d="M39.7,19.5c-0.3-1.1-0.2-1.7-0.4-2.9c0.4,1.1,2.9,2.9,2.7,6.5c0.1-0.7,0.7-2.7,1.4-4.1c0.6-1.1,1.2-2.2,1-3.8
		c0.7,2.1,0.6,3.4,0.3,4.4c-0.3,1.1-1,1.9-1.6,2.7c-0.4,0.6-1.3,1.7-1.7,2.7C41.4,22.9,40.1,20.9,39.7,19.5"/>
	<path class="st0" d="M38.9,14.7c-0.5-0.9-0.7-1.6-1.3-2.8c0.4,0.5,0.7,0.8,1.6,1.6c1.3,1.1,2.3,2.3,2.8,4.4c0-1.3,0.2-2,0.5-3.5
		c0.2-1.3,0.2-2.7-0.4-4.4c1.1,1.4,2.1,4.1,1.6,5.9c-0.4,1.7-1.2,2.6-1.4,3.8C41.5,17.3,39.5,15.9,38.9,14.7"/>
	<path class="st0" d="M39.5,12.4c-0.6-0.5-2-1.4-2.7-2.2c-0.7-0.8-1.1-1.6-1.5-2.3c1,1,1.6,1.2,2.7,1.9c1,0.5,2.2,1.3,2.8,2.4
		c-0.3-0.9-0.5-2-0.6-3c-0.2-1.4-0.7-2.3-1.2-2.9c1.4,1.1,2.3,2.1,2.6,4.1c0.4,2-0.1,3.6,0.1,4.7C40.9,13.7,40.1,12.9,39.5,12.4"/>
	<path class="st0" d="M39.8,10.3c-0.6-1.9-1.3-3-2.6-4.1c-1.7-1.4-3.5-2.1-4.2-2.4c1.4,1,1.3,1.8,3.1,3.5
		C37.6,8.7,38.6,8.8,39.8,10.3"/>
	<path class="st0" d="M27.7,41.9L26.6,42c0,0-1.5-3.3-5.2-3.4c-2.4-0.1-4.5,1.1-7,1.3c-3.1,0.2-5.2-0.4-6.9-2.1c1.9,1,4,0.6,6.6,0
		c1.6-0.4,3.3-0.5,4.6-0.5C24.4,37.3,27.7,41.9,27.7,41.9"/>
	<path class="st0" d="M10.2,31.2c0.5,0.5,1.3,1.3,2,2.8c0.7,1.5,0.7,2.1,1.4,3.1c-1.5-0.6-2.6,0.5-6.5-0.9c-1.8-0.7-3-2.3-3.6-3.8
		c1.4,1.2,2.5,1.9,4.1,2.1c1.6,0.2,2.6,0.3,3.9,1.1c-0.8-0.9-1.2-1.4-1.6-2.6c-0.5-1.3-0.4-2.3-0.9-3.3C9.4,30.2,9.7,30.6,10.2,31.2
		"/>
	<path class="st0" d="M8.3,29.3c0.4,2.1,0.3,3.8,1.3,5.1c-1.4-1.2-2.8-1.2-4.7-2c-2.3-1.1-3.5-3.1-4.1-5.9c0.5,1.2,1.8,2.4,3.2,3.3
		c1.2,0.8,2.5,1.1,3.4,2.3c-0.5-0.6-0.7-0.9-0.8-1.6c-0.4-1.9,0.2-3,0-5C7,26.3,8,27.9,8.3,29.3"/>
	<path class="st0" d="M6.1,23.2c0.1,3.2-1.2,3.9-0.2,6.9c-0.8-1.2-1.8-1.6-3.1-2.7C1.2,26-0.1,23.8,0,21c0.3,0.8,1.3,2.4,2.3,3.5
		c1,1.1,1.9,2.4,2.4,3.3c-1-3.6,0.8-5,1.1-7.1C5.8,21.4,6.1,22.6,6.1,23.2"/>
	<path class="st0" d="M5.5,19.5c0.3-1.1,0.2-1.7,0.4-2.9c-0.4,1.1-2.9,2.9-2.7,6.5c-0.1-0.7-0.7-2.7-1.4-4.1c-0.6-1.1-1.2-2.2-1-3.8
		c-0.7,2.1-0.6,3.4-0.3,4.4c0.3,1.1,1,1.9,1.6,2.7c0.4,0.6,1.3,1.7,1.7,2.7C3.8,22.9,5.2,20.9,5.5,19.5"/>
	<path class="st0" d="M6.1,15c0.6-0.9,0.9-2,1.5-3.1c-0.4,0.5-0.7,0.8-1.6,1.6c-1.3,1.1-2.3,2.3-2.8,4.4c0-1.3-0.2-2-0.5-3.5
		c-0.2-1.3-0.2-2.7,0.4-4.4C2,11.4,1,14.1,1.6,15.9C2,17.7,2.7,18.6,3,19.8C3.7,17.3,5.3,16.2,6.1,15"/>
	<path class="st0" d="M5.7,12.4c0.6-0.5,2-1.4,2.7-2.2C9.1,9.4,9.5,8.6,10,7.9c-1,1-1.6,1.2-2.7,1.9c-1,0.5-2.2,1.3-2.8,2.4
		c0.3-0.9,0.5-2,0.6-3c0.2-1.4,0.7-2.3,1.2-2.9C4.9,7.5,4,8.5,3.6,10.5c-0.4,2,0.1,3.6-0.1,4.7C4.3,13.7,5.1,12.9,5.7,12.4"/>
	<path class="st0" d="M5.4,10.3c0.6-1.9,1.3-3,2.6-4.1c1.7-1.4,3.5-2.1,4.2-2.4c-1.4,1-1.3,1.8-3.1,3.5C7.6,8.7,6.6,8.8,5.4,10.3"/>
</g>
</svg>
