<?xml version="1.0" encoding="utf-8"?>
<!-- Generator: Adobe Illustrator 21.0.0, SVG Export Plug-In . SVG Version: 6.00 Build 0)  -->
<svg version="1.1" id="Layer_4" xmlns="http://www.w3.org/2000/svg" xmlns:xlink="http://www.w3.org/1999/xlink" x="0px" y="0px"
	 viewBox="0 0 198.9 110" style="enable-background:new 0 0 198.9 110;" xml:space="preserve">
<style type="text/css">
	.st0{fill:none;stroke:#000000;stroke-width:0.25;}
	.st1{fill-rule:evenodd;clip-rule:evenodd;}
	.st2{fill:#F79239;}
	.st3{fill:#F89641;}
	.st4{fill:#F89947;}
	.st5{fill:#F89C4D;}
	.st6{fill:#F99F52;}
	.st7{fill:#F9A35A;}
	.st8{fill:#F9A65F;}
	.st9{fill:#FAA965;}
	.st10{fill:#FAAC6A;}
	.st11{fill:#FAB171;}
	.st12{fill:#FBB376;}
	.st13{fill:#FBB77B;}
	.st14{fill:#FCBA80;}
	.st15{fill:#FCBD86;}
	.st16{fill:#FCC18D;}
	.st17{fill:#FCC492;}
	.st18{fill:#FDC898;}
	.st19{fill:#FDCB9D;}
	.st20{fill:#FDCFA5;}
	.st21{fill:#FED2AB;}
	.st22{fill:#FED6B1;}
	.st23{fill:#FED9B7;}
	.st24{fill:#FEDCBD;}
	.st25{fill:#FEE0C5;}
	.st26{fill:#FEE3CB;}
	.st27{fill:#FFE7D1;}
	.st28{fill:#FFEAD7;}
	.st29{fill:#FFEEDF;}
	.st30{fill:#FFF2E6;}
	.st31{fill:#FFF6ED;}
	.st32{fill:#FFF9F4;}
	.st33{fill:#FFFFFF;}
</style>
<g>
	<path class="st0" d="M184.4,6.3"/>
	<g>
		<path class="st1" d="M75.4,56v7.5c-0.8,0.8-1.7,1.4-3,1.4c-1.5,0-3.5-1.3-3.5-5.1C68.9,55.8,72,52.9,75.4,56L75.4,56z M42.2,59.8
			c0,2.9-1,5.2-3.1,5.2c-2.2,0-3.2-2.3-3.2-5.2c0-2.9,1-5.2,3.2-5.2C41.2,54.6,42.2,56.9,42.2,59.8L42.2,59.8z M23.2,50.9h-1.9
			l-4,10.1l-4.2-11.7h-4L15.3,66h1.9l4-10.3l4,10.3h1.9l6.2-16.7h-1.9L27.1,61L23.2,50.9L23.2,50.9z M155.2,66v-6.9
			c0-4.7-3.6-5.8-5.6-5.8c-1.5,0-2.7,0.6-4,1.4h-0.1v-1.2h-3.2V66h3.4V56c1-0.9,2-1.3,2.9-1.3c1.8,0,3,1.8,3,3.7V66H155.2L155.2,66z
			 M91.8,66h1.4l7.3-16.8h-1.9L93.5,61l-5-11.8h-4.2L91.8,66L91.8,66z M71.4,66.3c1.6,0,3-0.5,4.2-1.5l0.1,0.1V66h3.2V46.9h-3.5v7.7
			c-0.9-0.7-2.4-1.2-3.9-1.2c-1.9,0-6.4,1.2-6.4,6.7C65,64.1,68.6,66.3,71.4,66.3L71.4,66.3z M107.5,57c-0.4,4.8,6.6,3.6,6.4,6.5
			c-0.1,1.2-1.1,1.6-2.1,1.5c-1.8-0.1-2.8-1.1-3.8-2.2l-1,2.3c1.4,0.8,3,1.2,4.3,1.3c3,0.2,5.5-1.1,5.7-4c0.3-4.5-6.9-4-6.8-6.2
			c0.1-1,1.2-1.5,2.4-1.4c1.2,0.1,2.1,0.8,3.1,1.7l1-2.1c-1.3-0.5-2.5-0.8-3.6-0.9C109.7,53.3,107.6,54.9,107.5,57L107.5,57z
			 M103.4,47.9c-1,0-1.9,0.8-1.9,1.9c0,1,0.8,1.8,1.9,1.8c1,0,1.8-0.8,1.8-1.8C105.2,48.7,104.3,47.9,103.4,47.9L103.4,47.9z
			 M121.3,47.9c-1,0-1.8,0.8-1.8,1.9c0,1,0.8,1.8,1.8,1.8c1,0,1.8-0.8,1.8-1.8C123.1,48.7,122.3,47.9,121.3,47.9L121.3,47.9z
			 M119.4,53.6v7c0,3.6,1.6,5.8,8.8,5.8c8.4,0,11.4-3.2,11.4-6.8c0-3.6-2.8-6.3-6.7-6.3c-4.3,0-6.7,2.9-6.7,5.7c0,2,1.2,4.2,4,5.3
			l0.8-1c-1.1-1.2-1.5-2.7-1.5-4.1c0-2.5,1.5-4.6,3.3-4.6c2.3,0,3.3,2.5,3.3,5.1c0,2.7-1,5.6-7.1,5.6c-4.9,0-6.2-1-6.2-4v-7.8H119.4
			L119.4,53.6z M101.2,66h3.5V53.6h-3.5V66L101.2,66z M32.2,59.8c0,3.5,2.6,6.4,6.8,6.4c4.2,0,6.7-2.9,6.7-6.4
			c0-3.5-2.6-6.4-6.7-6.4C34.8,53.4,32.2,56.3,32.2,59.8L32.2,59.8z M59,66h3.4V46.9H59V66L59,66z M48.5,53.6V66h3.4V55.9
			c1.2-1,2-0.6,4.3,1.2l1.4-3.1c-0.7-0.3-1.6-0.6-2.9-0.6c-1.3,0-2.3,0.6-2.7,1.2l-0.2,0.2v-0.1v-1.1H48.5L48.5,53.6z"/>
	</g>
	<path class="st0" d="M184.4,6.3"/>
	<g>
		<path class="st2" d="M194.5,3.5H53c0,0,47.8,5.9,88,33.4c37.5,25.8,53.5,52.2,53.5,52.2V3.5z"/>
		<path class="st2" d="M170.3,57.5c0,0,1.5-17.9,2.3-19.3c1.1-2,3.2-3,4.9-5.1c1.1-1.3,1.5-3.2,2.8-4.5c1-1,8.2-1.6,8.2-1.6
			s-7.4-0.9-8.3-1.5c-1.2-0.9-1.7-3-4.2-5.6c-2.5-2.5-4.1-2.2-4.6-3.9c-0.6-2.1-1-6.7-1-6.7s-0.5,4.6-1.1,6.7
			c-0.5,1.7-2.1,1.4-4.6,3.9c-2.6,2.6-3,4.7-4.2,5.6c-0.9,0.7-8.2,1.5-8.2,1.5s7.1,0.6,8.2,1.6c1.3,1.3,1.7,3.2,2.7,4.5
			c1.8,2,3.8,3.1,5,5.1C168.7,39.5,170.3,57.5,170.3,57.5z"/>
		<path class="st3" d="M167.9,38.1c0.7,1.3,2.3,19.4,2.3,19.4s1.5-18,2.3-19.4c1.1-2,3.1-3.1,4.8-5.1c1.1-1.3,1.5-3.1,2.8-4.4
			c1.1-1,8.3-1.6,8.3-1.6s-7.4-0.9-8.3-1.5c-1.3-0.9-1.8-2.9-4.4-5.4c-2.5-2.5-4-2.2-4.5-4.1c-0.6-2.1-1-6.7-1-6.7s-0.5,4.6-1.1,6.7
			c-0.5,1.8-2,1.5-4.5,4.1c-2.5,2.5-3.1,4.6-4.4,5.4c-0.9,0.7-8.2,1.5-8.2,1.5s7.2,0.6,8.2,1.6c1.3,1.3,1.7,3.1,2.8,4.4
			C164.9,35.1,166.9,36.1,167.9,38.1z"/>
		<path class="st4" d="M168,38.1c0.7,1.3,2.3,19.4,2.3,19.4s1.5-18.1,2.2-19.4c1.1-2,3-3.1,4.7-5.1c1.1-1.3,1.5-3.1,2.9-4.3
			c1.1-1,8.4-1.6,8.4-1.6s-7.3-0.9-8.3-1.5c-1.4-0.9-1.9-2.8-4.4-5.3c-2.5-2.5-3.9-2.2-4.5-4.2c-0.5-2.1-1-6.7-1-6.7s-0.5,4.6-1,6.7
			c-0.5,1.9-2,1.7-4.4,4.2c-2.5,2.5-3.1,4.5-4.5,5.3c-1,0.6-8.2,1.5-8.2,1.5s7.2,0.6,8.3,1.6c1.4,1.2,1.8,3,2.9,4.3
			C165,34.9,166.9,36,168,38.1z"/>
		<path class="st5" d="M168,37.9c0.7,1.4,2.2,19.6,2.2,19.6s1.5-18.2,2.2-19.6c1-2,2.9-3.1,4.6-5.1c1.1-1.3,1.5-3,3-4.2
			c1.2-1,8.5-1.5,8.5-1.5s-7.3-0.9-8.3-1.5c-1.5-0.9-2.1-2.8-4.6-5.2c-2.4-2.4-3.9-2.3-4.4-4.4c-0.5-2.1-1-6.7-1-6.7s-0.5,4.6-1,6.7
			c-0.5,2-1.9,1.9-4.4,4.4c-2.4,2.4-3.1,4.3-4.6,5.2c-1,0.6-8.2,1.5-8.2,1.5s7.3,0.6,8.4,1.5c1.5,1.2,1.9,2.9,3,4.2
			C165.2,34.8,167,35.9,168,37.9z"/>
		<path class="st6" d="M168.1,37.8c0.7,1.4,2.2,19.6,2.2,19.6s1.5-18.3,2.2-19.6c1-2.1,2.8-3.2,4.4-5.1c1.1-1.3,1.6-3,3.1-4.2
			c1.2-0.9,8.5-1.5,8.5-1.5s-7.3-0.8-8.3-1.4c-1.6-0.9-2.3-2.7-4.7-5.1c-2.4-2.4-3.7-2.3-4.3-4.5c-0.5-2.1-1-6.7-1-6.7
			s-0.5,4.6-1,6.7c-0.5,2.2-1.9,2.1-4.3,4.5c-2.4,2.4-3.1,4.2-4.7,5.1c-1,0.6-8.2,1.4-8.2,1.4s7.3,0.6,8.5,1.5
			c1.5,1.2,1.9,2.9,3,4.2C165.3,34.6,167,35.8,168.1,37.8z"/>
		<path class="st7" d="M168.1,37.8c0.7,1.4,2.2,19.7,2.2,19.7s1.5-18.4,2.1-19.7c1-2.1,2.7-3.3,4.3-5.1c1.1-1.3,1.6-2.9,3.1-4.1
			c1.2-0.9,8.7-1.5,8.7-1.5s-7.3-0.8-8.3-1.4c-1.7-0.9-2.4-2.6-4.8-5c-2.4-2.4-3.6-2.4-4.1-4.6c-0.5-2.1-1-6.7-1-6.7s-0.5,4.6-1,6.7
			c-0.5,2.2-1.8,2.2-4.1,4.6c-2.4,2.4-3.1,4.1-4.8,5c-1.1,0.6-8.3,1.4-8.3,1.4s7.4,0.6,8.6,1.5c1.5,1.1,2,2.8,3.1,4.1
			C165.4,34.5,167.1,35.7,168.1,37.8z"/>
		<path class="st8" d="M168.1,37.7c0.6,1.4,2.1,19.8,2.1,19.8s1.5-18.4,2.1-19.8c1-2.1,2.6-3.4,4.2-5.2c1.1-1.2,1.6-2.9,3.2-4
			c1.3-0.9,8.7-1.5,8.7-1.5s-7.2-0.8-8.3-1.4c-1.7-0.9-2.6-2.5-4.9-4.9c-2.3-2.4-3.5-2.4-4.1-4.8c-0.5-2.1-1-6.7-1-6.7
			s-0.5,4.6-1,6.7c-0.6,2.4-1.7,2.4-4.1,4.8c-2.4,2.4-3.1,4-4.9,4.9c-1.1,0.5-8.3,1.4-8.3,1.4s7.4,0.6,8.7,1.5
			c1.6,1.1,2.1,2.7,3.2,4C165.6,34.3,167.2,35.6,168.1,37.7z"/>
		<path class="st9" d="M168.2,37.6c0.6,1.4,2.1,19.9,2.1,19.9s1.4-18.5,2-19.9c1-2.2,2.5-3.4,4.1-5.2c1.1-1.2,1.7-2.8,3.3-3.9
			c1.3-0.8,8.8-1.4,8.8-1.4s-7.2-0.8-8.3-1.3c-1.8-0.9-2.7-2.4-5-4.8c-2.3-2.3-3.4-2.5-4-4.9c-0.5-2.1-0.9-6.7-0.9-6.7
			s-0.5,4.6-1,6.7c-0.5,2.4-1.7,2.6-4,4.9c-2.3,2.3-3.1,3.9-5,4.8c-1.2,0.5-8.3,1.3-8.3,1.3s7.5,0.6,8.8,1.4
			c1.6,1.1,2.2,2.7,3.3,3.9C165.7,34.2,167.2,35.4,168.2,37.6z"/>
		<path class="st10" d="M168.2,37.5c0.6,1.4,2,20,2,20s1.4-18.6,2-20c0.9-2.2,2.4-3.4,3.9-5.2c1.1-1.3,1.7-2.8,3.4-3.8
			c1.3-0.9,8.9-1.4,8.9-1.4s-7.1-0.8-8.3-1.3c-1.9-0.8-2.8-2.3-5.1-4.6c-2.2-2.3-3.3-2.5-3.9-5.1c-0.5-2-0.9-6.7-0.9-6.7
			s-0.5,4.7-1,6.7c-0.5,2.6-1.6,2.8-3.9,5.1c-2.3,2.3-3.2,3.8-5.1,4.6c-1.2,0.5-8.3,1.3-8.3,1.3s7.5,0.5,8.9,1.4
			c1.7,1,2.2,2.5,3.4,3.8C165.8,34,167.3,35.3,168.2,37.5z"/>
		<path class="st11" d="M168.3,37.4c0.6,1.4,2,20.1,2,20.1s1.4-18.7,1.9-20.1c0.9-2.2,2.3-3.5,3.8-5.2c1.1-1.2,1.7-2.7,3.4-3.7
			c1.4-0.8,9-1.4,9-1.4s-7.1-0.8-8.3-1.3c-2-0.8-3-2.2-5.2-4.5c-2.2-2.3-3.2-2.6-3.8-5.2c-0.4-2-0.9-6.7-0.9-6.7s-0.5,4.7-0.9,6.7
			c-0.6,2.7-1.6,2.9-3.8,5.2c-2.2,2.3-3.2,3.7-5.2,4.5c-1.2,0.5-8.3,1.3-8.3,1.3s7.6,0.5,9,1.4c1.7,1,2.3,2.5,3.4,3.7
			C166,33.9,167.4,35.2,168.3,37.4z"/>
		<path class="st12" d="M168.3,37.3c0.5,1.4,1.9,20.2,1.9,20.2s1.4-18.8,1.9-20.2c0.9-2.2,2.2-3.6,3.7-5.3c1.1-1.2,1.7-2.7,3.5-3.6
			c1.4-0.8,9.1-1.3,9.1-1.3s-7.1-0.8-8.3-1.2c-2.1-0.8-3.1-2.2-5.3-4.4c-2.2-2.2-3.1-2.6-3.7-5.3c-0.4-2-0.9-6.7-0.9-6.7
			s-0.5,4.7-0.9,6.7c-0.5,2.8-1.5,3.1-3.6,5.3c-2.2,2.3-3.2,3.6-5.3,4.4c-1.2,0.5-8.3,1.2-8.3,1.2s7.7,0.5,9.1,1.3
			c1.8,1,2.4,2.4,3.5,3.6C166.1,33.7,167.4,35.1,168.3,37.3z"/>
		<path class="st13" d="M168.4,37.2c0.5,1.4,1.9,20.3,1.9,20.3s1.4-18.9,1.9-20.3c0.8-2.2,2.1-3.6,3.6-5.3c1.1-1.3,1.7-2.7,3.6-3.6
			c1.5-0.7,9.2-1.3,9.2-1.3s-7-0.7-8.3-1.2c-2.2-0.8-3.3-2.1-5.4-4.3c-2.2-2.2-3-2.7-3.6-5.5c-0.4-2-0.8-6.7-0.8-6.7
			s-0.5,4.7-0.9,6.7c-0.6,2.9-1.5,3.3-3.6,5.5c-2.2,2.2-3.2,3.5-5.4,4.3c-1.3,0.5-8.3,1.2-8.3,1.2s7.7,0.5,9.2,1.3
			c1.8,1,2.5,2.3,3.6,3.6C166.2,33.6,167.5,35,168.4,37.2z"/>
		<path class="st14" d="M168.4,37.1c0.5,1.4,1.9,20.3,1.9,20.3s1.3-18.9,1.8-20.3c0.8-2.3,2-3.7,3.4-5.3c1.1-1.2,1.8-2.6,3.7-3.5
			c1.5-0.7,9.3-1.3,9.3-1.3s-7-0.7-8.3-1.2c-2.3-0.8-3.4-2-5.6-4.2c-2.1-2.2-2.9-2.7-3.5-5.6c-0.4-2-0.8-6.7-0.8-6.7
			s-0.5,4.7-0.9,6.7c-0.6,3-1.4,3.5-3.5,5.6c-2.1,2.2-3.2,3.4-5.6,4.2c-1.3,0.5-8.3,1.2-8.3,1.2s7.8,0.5,9.3,1.3
			c1.9,0.9,2.5,2.2,3.6,3.5C166.4,33.5,167.6,34.9,168.4,37.1z"/>
		<path class="st15" d="M168.4,37c0.5,1.5,1.8,20.5,1.8,20.5s1.3-19,1.8-20.5c0.7-2.2,1.9-3.7,3.2-5.3c1.1-1.2,1.8-2.5,3.7-3.4
			c1.5-0.7,9.4-1.2,9.4-1.2s-7-0.7-8.3-1.2c-2.4-0.8-3.6-1.9-5.7-4.1c-2-2.1-2.8-2.7-3.4-5.8c-0.4-2-0.8-6.7-0.8-6.7
			s-0.5,4.7-0.8,6.7c-0.6,3.1-1.3,3.6-3.4,5.8c-2.1,2.2-3.3,3.3-5.7,4.1c-1.3,0.4-8.3,1.2-8.3,1.2s7.8,0.5,9.4,1.2
			c1.9,0.9,2.6,2.2,3.7,3.4C166.5,33.3,167.6,34.8,168.4,37z"/>
		<path class="st16" d="M168.5,36.9c0.5,1.5,1.8,20.6,1.8,20.6s1.3-19.1,1.8-20.6c0.7-2.3,1.8-3.8,3.1-5.3c1.1-1.2,1.9-2.5,3.8-3.4
			c1.6-0.7,9.5-1.2,9.5-1.2s-7-0.7-8.3-1.1c-2.5-0.8-3.7-1.8-5.8-4c-2-2.1-2.7-2.7-3.3-5.9c-0.3-1.9-0.8-6.7-0.8-6.7
			s-0.5,4.8-0.8,6.7c-0.6,3.2-1.3,3.8-3.3,5.9c-2.1,2.2-3.3,3.2-5.8,4c-1.4,0.4-8.3,1.1-8.3,1.1s7.9,0.5,9.4,1.2
			c1.9,0.9,2.7,2.1,3.8,3.4C166.7,33.1,167.7,34.7,168.5,36.9z"/>
		<path class="st17" d="M168.5,36.9c0.5,1.5,1.8,20.6,1.8,20.6s1.3-19.2,1.7-20.6c0.7-2.3,1.7-3.9,3-5.3c1.1-1.2,1.9-2.4,3.9-3.2
			c1.6-0.7,9.6-1.2,9.6-1.2s-6.9-0.7-8.3-1.1c-2.6-0.7-3.9-1.7-5.9-3.9c-2-2.1-2.7-2.8-3.2-6c-0.4-1.9-0.8-6.7-0.8-6.7
			s-0.5,4.8-0.8,6.7c-0.6,3.3-1.2,4-3.2,6c-2,2.1-3.3,3.1-5.9,3.9c-1.4,0.4-8.3,1.1-8.3,1.1s8,0.5,9.5,1.2c2,0.8,2.8,2,3.9,3.2
			C166.8,33,167.8,34.5,168.5,36.9z"/>
		<path class="st18" d="M168.5,36.8c0.4,1.5,1.7,20.7,1.7,20.7s1.3-19.3,1.7-20.7c0.7-2.4,1.6-3.9,2.9-5.4c1.1-1.2,1.9-2.4,4-3.1
			c1.6-0.6,9.7-1.2,9.7-1.2s-6.9-0.7-8.3-1.1c-2.7-0.7-4-1.7-6-3.7c-1.9-2-2.5-2.8-3.1-6.2c-0.3-1.9-0.7-6.7-0.7-6.7
			s-0.5,4.8-0.8,6.7c-0.6,3.4-1.2,4.2-3.1,6.2c-2,2.1-3.3,3-6,3.7c-1.5,0.4-8.3,1.1-8.3,1.1s8,0.5,9.7,1.2c2,0.8,2.8,1.9,3.9,3.1
			C166.9,32.8,167.9,34.4,168.5,36.8z"/>
		<path class="st19" d="M168.6,36.7c0.4,1.5,1.7,20.8,1.7,20.8s1.2-19.4,1.7-20.8c0.6-2.4,1.5-4,2.7-5.4c1.1-1.2,1.9-2.4,4-3.1
			c1.7-0.6,9.8-1.1,9.8-1.1s-6.9-0.7-8.3-1c-2.8-0.7-4.1-1.6-6.1-3.6c-1.9-2-2.4-2.9-3-6.3c-0.3-1.9-0.7-6.7-0.7-6.7
			s-0.5,4.8-0.8,6.7c-0.5,3.5-1.1,4.4-3,6.3c-1.9,2.1-3.3,2.9-6.1,3.6c-1.5,0.4-8.3,1-8.3,1s8,0.5,9.7,1.1c2.1,0.7,2.9,1.9,4,3.1
			C167.1,32.7,167.9,34.3,168.6,36.7z"/>
		<path class="st20" d="M168.6,36.6c0.4,1.5,1.7,20.9,1.7,20.9s1.2-19.4,1.6-20.9c0.6-2.4,1.4-4,2.6-5.4c1.1-1.2,1.9-2.3,4.1-3
			c1.7-0.6,9.9-1.1,9.9-1.1s-6.8-0.7-8.4-1c-2.9-0.7-4.3-1.5-6.2-3.5c-1.9-2-2.3-2.9-2.9-6.5c-0.3-1.9-0.7-6.7-0.7-6.7
			s-0.5,4.8-0.7,6.7c-0.6,3.6-1,4.5-2.9,6.5c-1.9,2-3.4,2.8-6.2,3.5c-1.5,0.4-8.3,1-8.3,1s8.1,0.5,9.8,1.1c2.2,0.7,3,1.7,4.1,3
			C167.2,32.5,168,34.2,168.6,36.6z"/>
		<path class="st21" d="M168.6,36.5c0.4,1.5,1.6,21,1.6,21s1.2-19.6,1.6-21c0.6-2.4,1.3-4.1,2.5-5.4c1.1-1.2,2-2.2,4.2-2.9
			c1.7-0.5,9.9-1.1,9.9-1.1s-6.8-0.6-8.4-1c-2.9-0.7-4.4-1.4-6.3-3.4c-1.8-1.9-2.2-2.9-2.8-6.6c-0.3-1.9-0.7-6.7-0.7-6.7
			s-0.5,4.8-0.7,6.7c-0.5,3.7-1,4.7-2.8,6.6c-1.9,2-3.3,2.7-6.3,3.4c-1.6,0.4-8.3,1-8.3,1s8.2,0.5,9.9,1.1c2.2,0.7,3.1,1.7,4.2,2.9
			C167.4,32.4,168.1,34.1,168.6,36.5z"/>
		<path class="st22" d="M168.7,36.4c0.3,1.5,1.6,21.1,1.6,21.1s1.2-19.6,1.5-21.1c0.5-2.4,1.2-4.1,2.4-5.4c1.1-1.2,2-2.2,4.3-2.9
			c1.8-0.5,10-1,10-1s-6.8-0.6-8.4-1c-3.1-0.7-4.6-1.3-6.4-3.3c-1.8-1.9-2.2-3-2.7-6.8c-0.2-1.9-0.7-6.7-0.7-6.7s-0.5,4.8-0.7,6.7
			c-0.6,3.8-1,4.9-2.7,6.8c-1.9,1.9-3.4,2.6-6.4,3.3c-1.6,0.3-8.3,1-8.3,1s8.2,0.5,10,1c2.3,0.7,3.1,1.6,4.3,2.9
			C167.5,32.3,168.1,34,168.7,36.4z"/>
		<path class="st23" d="M168.7,36.3c0.3,1.5,1.5,21.2,1.5,21.2s1.2-19.7,1.5-21.2c0.5-2.4,1.1-4.2,2.2-5.5c1.1-1.2,2-2.2,4.3-2.7
			c1.8-0.5,10.2-1,10.2-1s-6.8-0.6-8.4-0.9c-3.1-0.7-4.7-1.2-6.5-3.2c-1.7-1.9-2-3-2.6-6.9c-0.2-1.9-0.7-6.7-0.7-6.7
			s-0.4,4.8-0.7,6.7c-0.5,3.9-0.9,5.1-2.6,6.9c-1.8,1.9-3.4,2.5-6.5,3.2c-1.6,0.3-8.3,0.9-8.3,0.9s8.3,0.5,10.1,1
			c2.3,0.6,3.2,1.5,4.3,2.7C167.6,32.1,168.2,33.9,168.7,36.3z"/>
		<path class="st24" d="M168.8,36.2c0.3,1.5,1.5,21.3,1.5,21.3s1.2-19.8,1.5-21.3c0.5-2.5,1-4.3,2.1-5.5c1.1-1.2,2.1-2.1,4.4-2.7
			c1.9-0.5,10.2-1,10.2-1s-6.7-0.6-8.4-0.9c-3.3-0.6-4.8-1.1-6.7-3c-1.7-1.9-1.9-3.1-2.5-7.1c-0.3-1.9-0.7-6.7-0.7-6.7
			s-0.4,4.8-0.7,6.7c-0.6,4-0.8,5.2-2.5,7.1c-1.8,1.9-3.4,2.4-6.7,3c-1.7,0.3-8.3,0.9-8.3,0.9s8.3,0.5,10.2,1
			c2.4,0.6,3.3,1.5,4.4,2.7C167.8,32,168.3,33.7,168.8,36.2z"/>
		<path class="st25" d="M168.8,36.1c0.3,1.5,1.4,21.4,1.4,21.4s1.2-19.9,1.4-21.4c0.5-2.5,0.9-4.3,2-5.5c1.1-1.2,2.1-2,4.5-2.6
			c1.9-0.4,10.3-1,10.3-1s-6.7-0.6-8.4-0.9c-3.4-0.6-5-1-6.8-2.9c-1.7-1.8-1.9-3.1-2.4-7.2c-0.2-1.9-0.6-6.7-0.6-6.7
			s-0.4,4.8-0.7,6.7c-0.5,4.1-0.7,5.4-2.4,7.2c-1.7,1.9-3.4,2.4-6.8,2.9c-1.7,0.3-8.3,0.9-8.3,0.9s8.4,0.5,10.3,1
			c2.4,0.5,3.4,1.4,4.5,2.6C167.9,31.8,168.4,33.6,168.8,36.1z"/>
		<path class="st26" d="M168.9,36c0.2,1.5,1.4,21.5,1.4,21.5s1.1-20,1.4-21.5c0.5-2.5,0.8-4.4,1.9-5.5c1.1-1.2,2.1-2,4.6-2.5
			c1.9-0.4,10.4-1,10.4-1s-6.6-0.5-8.4-0.8c-3.4-0.6-5.2-1-6.9-2.9c-1.7-1.7-1.8-3.1-2.3-7.3c-0.2-1.8-0.6-6.7-0.6-6.7
			s-0.4,4.9-0.7,6.7c-0.5,4.2-0.7,5.6-2.3,7.3c-1.7,1.9-3.4,2.3-6.9,2.9c-1.7,0.3-8.3,0.8-8.3,0.8s8.5,0.5,10.4,1
			c2.4,0.5,3.5,1.2,4.6,2.5C168,31.7,168.4,33.5,168.9,36z"/>
		<path class="st27" d="M168.9,35.9c0.2,1.5,1.4,21.5,1.4,21.5s1.1-20.1,1.3-21.5c0.4-2.5,0.7-4.4,1.7-5.6c1.1-1.2,2.1-1.9,4.6-2.4
			c1.9-0.4,10.5-0.9,10.5-0.9s-6.6-0.5-8.4-0.8c-3.6-0.5-5.3-0.9-7-2.7c-1.6-1.7-1.7-3.2-2.2-7.5c-0.2-1.8-0.6-6.7-0.6-6.7
			s-0.4,4.9-0.6,6.7c-0.5,4.3-0.6,5.8-2.2,7.5c-1.7,1.8-3.4,2.2-7,2.7c-1.7,0.3-8.3,0.8-8.3,0.8s8.5,0.5,10.5,0.9
			c2.5,0.5,3.5,1.2,4.6,2.4C168.2,31.5,168.5,33.4,168.9,35.9z"/>
		<path class="st28" d="M168.9,35.9c0.2,1.5,1.3,21.6,1.3,21.6s1.1-20.1,1.3-21.6c0.4-2.6,0.6-4.5,1.6-5.6c1.1-1.2,2.2-1.9,4.7-2.3
			c2-0.3,10.6-0.9,10.6-0.9s-6.6-0.5-8.4-0.8c-3.6-0.5-5.5-0.8-7.1-2.6c-1.5-1.7-1.6-3.2-2.1-7.6c-0.2-1.8-0.6-6.7-0.6-6.7
			s-0.4,4.9-0.6,6.7c-0.5,4.4-0.5,5.9-2.1,7.6c-1.7,1.8-3.5,2.1-7.1,2.6c-1.8,0.2-8.4,0.8-8.4,0.8s8.6,0.5,10.6,0.9
			c2.5,0.5,3.6,1.1,4.7,2.3C168.3,31.4,168.6,33.3,168.9,35.9z"/>
		<path class="st29" d="M169,35.8c0.2,1.5,1.3,21.7,1.3,21.7s1.1-20.2,1.3-21.7c0.3-2.6,0.5-4.6,1.5-5.6c1.1-1.2,2.2-1.9,4.8-2.2
			c2-0.3,10.7-0.9,10.7-0.9s-6.5-0.5-8.4-0.7c-3.8-0.5-5.6-0.7-7.2-2.5c-1.5-1.7-1.5-3.3-2.1-7.8c-0.2-1.8-0.5-6.7-0.5-6.7
			s-0.4,4.9-0.6,6.7c-0.5,4.5-0.5,6.1-2,7.8c-1.6,1.8-3.5,2-7.2,2.5c-1.9,0.2-8.4,0.7-8.4,0.7s8.6,0.5,10.7,0.9
			c2.6,0.4,3.7,1,4.8,2.2C168.4,31.2,168.6,33.2,169,35.8z"/>
		<path class="st30" d="M169,35.7c0.2,1.5,1.2,21.8,1.2,21.8s1-20.3,1.2-21.8c0.3-2.6,0.4-4.6,1.3-5.6c1.1-1.2,2.2-1.8,4.8-2.2
			c2.1-0.3,10.8-0.8,10.8-0.8s-6.5-0.5-8.4-0.7c-3.8-0.5-5.7-0.7-7.3-2.4c-1.5-1.7-1.5-3.3-1.9-7.9c-0.2-1.8-0.5-6.7-0.5-6.7
			s-0.4,4.9-0.6,6.7c-0.5,4.6-0.5,6.3-1.9,7.9c-1.6,1.7-3.5,1.9-7.3,2.4c-1.9,0.2-8.4,0.7-8.4,0.7s8.7,0.5,10.7,0.8
			c2.7,0.4,3.8,1,4.8,2.2C168.6,31.1,168.7,33,169,35.7z"/>
		<path class="st31" d="M169,35.6c0.2,1.5,1.2,21.9,1.2,21.9s1-20.4,1.2-21.9c0.2-2.7,0.3-4.6,1.2-5.6c1.1-1.2,2.2-1.7,4.9-2.1
			c2.1-0.2,10.9-0.8,10.9-0.8s-6.5-0.5-8.4-0.7c-3.9-0.5-5.9-0.5-7.4-2.2c-1.5-1.6-1.3-3.4-1.8-8.1c-0.2-1.8-0.5-6.7-0.5-6.7
			s-0.4,4.9-0.5,6.7c-0.5,4.7-0.4,6.5-1.9,8.1c-1.5,1.7-3.5,1.8-7.4,2.2c-1.9,0.2-8.4,0.7-8.4,0.7s8.7,0.5,10.9,0.8
			c2.7,0.4,3.8,0.9,4.9,2.1C168.7,30.9,168.8,32.9,169,35.6z"/>
		<path class="st32" d="M169.1,35.5c0.2,1.5,1.2,22,1.2,22s1-20.5,1.2-22c0.2-2.7,0.2-4.7,1.1-5.6c1.1-1.2,2.2-1.7,5-2
			c2.2-0.2,11-0.8,11-0.8s-6.5-0.5-8.4-0.7c-4-0.4-6-0.5-7.5-2.2c-1.4-1.6-1.2-3.4-1.7-8.2c-0.2-1.7-0.5-6.7-0.5-6.7s-0.4,5-0.5,6.7
			c-0.5,4.8-0.3,6.6-1.7,8.2c-1.5,1.7-3.5,1.7-7.5,2.2c-1.9,0.2-8.4,0.7-8.4,0.7s8.8,0.5,10.9,0.8c2.7,0.3,3.9,0.8,5,2
			C168.9,30.8,168.9,32.8,169.1,35.5z"/>
		<path class="st33" d="M170.3,57.5c0,0,1-20.6,1.1-22.1c0.2-2.7,0.1-4.8,1-5.7c1.1-1.2,2.3-1.6,5.1-1.9c2.2-0.2,11.1-0.7,11.1-0.7
			s-6.4-0.4-8.4-0.6c-4.1-0.4-6.2-0.4-7.6-2c-1.4-1.6-1.2-3.4-1.7-8.4c-0.2-1.7-0.5-6.7-0.5-6.7s-0.3,5-0.5,6.7
			c-0.5,4.9-0.3,6.8-1.7,8.4c-1.5,1.7-3.6,1.6-7.7,2c-2,0.2-8.4,0.6-8.4,0.6s8.9,0.5,11,0.7c2.8,0.3,4,0.7,5.1,1.9
			c0.8,0.9,0.8,3,1,5.7C169.2,36.9,170.3,57.5,170.3,57.5z"/>
	</g>
</g>
</svg>
