<svg xmlns="http://www.w3.org/2000/svg" width="409.339" height="276" viewBox="0 0 409.339 276">
  <g fill-rule="evenodd" clip-rule="evenodd">
    <path fill="#0063AF" d="M204.67 0c55.22 0 100 44.78 100 100s-44.78 100-100 100-100-44.78-100-100 44.78-100 100-100z"/>
    <path fill="#FFF" d="M204.67 4.927c52.497 0 95.073 42.575 95.073 95.073 0 52.498-42.576 95.073-95.074 95.073S109.596 152.498 109.596 100c0-52.5 42.574-95.073 95.072-95.073z"/>
    <path fill="#EC1C24" d="M204.67 9.61c49.91 0 90.388 40.478 90.388 90.39s-40.477 90.39-90.39 90.39c-49.91 0-90.387-40.478-90.387-90.39S154.76 9.61 204.67 9.61z"/>
    <path fill="#F9E42A" d="M163.2 41.487c0 10.602 3.538 20.404 6.748 27.974 2.075 4.893 10.584 17.927 14.305 20.418-1.99 2.97-5.534 6.088-7.873 9.624-2.088 3.156-5.033 7.318-6.508 10.99-3.236 8.054-6.944 17.14-6.944 28.324v2.733c0 .94.203 1.058.273 1.913h8.477v-1.094c0-11.91 1.986-20.448 4.37-29.805 1.016-3.984 3.228-8.63 4.925-12.025.95-1.9 1.89-3.66 3.062-5.414.448-.672 3.772-4.796 3.772-4.976 0-.143-5.987-9.043-6.748-10.476-1.68-3.162-3.857-8.607-4.9-12.324-2.583-9.21-4.21-18.824-4.21-30.512H163.2v4.65zM195.188 43.4c0 8.48.82 16.433 1.368 24.33.215 3.105 3.14 22.477 3.13 22.522-3.01 11.164-4.77 32.947-4.77 46.923v6.288h8.2l-.067-52.766.34-53.858h-8.2v6.56h-.002z"/>
    <path fill="#F9E42A" d="M174.137 38.752c0 9.053 2.414 21.353 4.75 28.33 1.414 4.225 2.747 8.3 4.636 12.042 2 3.958 4.024 7.165 5.923 10.754-3.982 7.525-7.11 12.248-10.15 21.29-2.148 6.388-5.16 18.207-5.16 26.555v5.74h7.928v-4.646c0-7.67 1.222-20.77 2.97-26.558 1.223-4.054 1.9-7.578 3.215-11.548.635-1.92 1.31-3.62 2.016-5.365.283-.7 2.46-5.088 2.46-5.194 0-.064-3.708-9.08-4.202-10.562-1.237-3.713-2.566-7.648-3.2-11.836-.58-3.847-1.533-8.145-2.137-12.625-.59-4.38-.85-9.297-.85-14.188v-4.1h-8.202v1.91h.002zM215.146 46.408c0 7.382-.4 16.032-1.53 22.527-.618 3.542-.94 7.345-1.417 10.614-.353 2.41-1.634 8.965-1.597 10.337 0 .004 1.688 9.553 1.848 10.067.64 2.06 1.05 7.973 1.35 10.68.81 7.333 1.62 14.45 1.62 22.714v10.115h7.928c0-17.21-4.256-42.51-10.115-53.585 5.695-10.763 9.842-36.24 9.842-53.04h-7.928v9.57z"/>
    <path fill="#F9E42A" d="M194.915 89.877C189.07 100.92 184.8 126.35 184.8 143.462h7.928v-12.03c0-7.42 1.135-14.396 1.636-21.055.305-4.058 1.844-16.656 2.925-19.773.448-1.294-2.134-16.45-2.584-19.383C193.81 65.384 193 56.505 193 50.235V36.84h-7.928c0 16.67 4.178 42.333 9.843 53.037zM151.992 43.674c0 9.402 4.833 21.854 8.386 27.976 2.228 3.84 4.925 7.343 7.95 10.367 1.822 1.822 8.062 7.22 10.457 7.86-.3.412-4.64 3.292-5.58 3.99-1.93 1.43-3.488 2.757-5.15 4.418-3.13 3.126-6.09 7.04-8.314 11.097-4.41 8.047-8.02 18.193-8.02 30.526v3.555h8.474v-4.374c0-9.766 3.55-21.897 6.835-28.435 3.037-6.048 9.9-17.065 15.036-20.504-1.08-1.612-2.998-2.888-4.304-4.444-1.44-1.716-2.6-3.26-3.973-5.05-2.6-3.387-4.575-7.187-6.58-11.19-3.526-7.044-6.743-18.618-6.743-29.073V36.84h-8.475v6.834zM205.098 90.697l-.067 52.766h8.202c0-16.895-.99-36.91-4.158-50.793-1.002-4.39-.092-6.632.857-11.288.782-3.837 1.02-8.46 1.603-12.342.553-3.68.72-8.952.87-12.8.165-4.305.556-8.704.556-13.387v-6.015h-8.27l.408 53.86zM225.808 41.487c0 4.2-.223 9.97-.82 13.67-.352 2.173-.588 4.227-.846 6.536-.197 1.783-1.076 4.432-1.322 6.06-.596 3.943-1.926 8.113-3.133 11.63-.545 1.586-4.268 10.256-4.268 10.495 0 .092 3.956 9.044 4.476 10.833 1.203 4.13 2.203 7.534 3.342 11.97 1.846 7.177 2.844 18.93 2.844 27.775v3.008h7.928v-3.008c0-10.946-2.36-19.443-4.758-28.05-2.535-9.095-6.668-15.187-10.55-22.528 1.925-3.64 4.038-6.99 6.015-10.934 1.883-3.756 3.352-8.15 4.7-12.525 2.542-8.26 4.593-18.72 4.593-29.58h-8.2v4.65h-.002z"/>
    <path fill="#F9E42A" d="M236.197 37.66c0 11.17-1.73 20.874-4.21 29.69-1.09 3.876-3.142 8.876-4.806 12.144-.853 1.677-2.044 3.748-3.122 5.353-.467.696-3.717 4.85-3.717 5.03 0 .46 3.07 4.194 3.554 4.92 1.2 1.808 2.145 3.474 3.19 5.56 1.796 3.597 4.026 8.222 5.067 12.43 2.485 10.025 4.32 17.77 4.32 30.676h8.75v-4.647c0-11.502-3.675-19.886-6.874-28.123-1.38-3.555-4.385-7.898-6.47-11.025-2.403-3.6-5.964-6.775-7.983-9.79 4.22-2.826 12.318-15.87 14.676-21.413 3.856-9.07 6.376-17.122 6.376-29.985v-.273c0-.74-.13-.754-.273-1.367h-8.477v.82z"/>
    <path fill="#F9E42A" d="M247.68 40.667c0 10.28-3.27 21.86-6.743 28.798-2.004 4.004-3.98 7.804-6.578 11.192-1.347 1.755-2.515 3.186-3.853 4.897-1.312 1.68-3.268 2.866-4.426 4.597 5.138 3.44 12 14.458 15.038 20.505 3.344 6.655 6.834 18.738 6.834 28.707v4.1h8.477v-5.193c0-11.464-4.294-21.812-8.294-29.44-1.848-3.524-5.47-7.972-8.18-10.683-1.896-1.896-10.248-7.797-10.594-8.27 2.516-.672 8.822-6.228 10.73-8.134 3.467-3.464 5.434-6.555 8.078-10.785 4.133-6.608 7.984-19.264 7.984-30.02v-4.1h-8.477v3.83h.002z"/>
    <path fill="#0063AF" d="M220.615 162.054c0-3.073 4.88-2.375 7.107-3.554 0 4.075-.732 5.74-4.922 5.74-1.125 0-2.185-1.06-2.185-2.186zm-4.65-7.11h5.194c.142-1.7 1.177-2.46 3.007-2.46h1.367c1 0 2.188.755 2.188 1.64v.548c0 2.675-12.303-.212-12.303 7.108v1.094c0 2.93 2.94 4.92 5.74 4.92h1.366c2.28 0 4.404-2.176 5.41-2.448l.332 1.902h6.014c-.12-1.46-1.367-1.104-1.365-5.74 0-2.37-.014-4.742 0-7.11.03-4.76-3.613-6.014-8.203-6.014-5.023 0-8.36 1.89-8.748 6.56zM157.733 162.054c0-3.185 4.736-2.416 7.108-3.554 0 3.924-1.15 5.74-4.92 5.74-1.076 0-2.187-.89-2.187-2.186zm-4.648-7.93v.82h5.194c.034-1.56.924-2.46 2.46-2.46h1.913c1.17 0 2.187.843 2.187 1.914 0 3.177-12.576.037-12.576 7.382 0 3.862 2.446 6.015 6.288 6.015h.273c3.754 0 4.475-1.977 6.218-2.45l.343 1.903h5.74c-.134-1.617-.763-.8-1.053-2.228-.14-.687-.04-2.69-.04-3.514 0-2.37-.01-4.742.003-7.11.025-4.496-3.602-6.013-7.93-6.013-4.31 0-9.02 1.718-9.02 5.742zM242.76 151.392v-2.46h-5.196v18.316h5.47v-10.115c0-2.307 1.083-4.375 3.278-4.375h1.64c1.49 0 2.462.973 2.462 2.46v12.03h5.47v-12.576c0-3.917-2.99-6.288-6.837-6.288-4.008 0-4.2 1.61-6.288 3.008zM174.137 154.125v1.094c0 5.715 12.303 4.253 12.303 6.834v.273c0 1.33-1.875 1.64-3.28 1.64h-.82c-3.96 0-2.71-2.733-4.102-2.733h-4.92c0 4.758 5.038 6.562 9.84 6.562 4.61 0 8.75-1.89 8.75-6.562v-.273c0-5.83-12.576-4.358-12.576-7.107 0-1.123 1.503-1.64 2.734-1.64h1.367c1.467 0 2.427.967 2.46 2.46h5.468c-1.11-4.773-3.46-6.288-9.294-6.288-3.78 0-7.93 2.03-7.93 5.74zM199.562 156.312c.422-1.814 1.378-3.828 3.554-3.828h.547c2.39 0 3.924 1.693 4.102 3.828h-8.203zm-5.468 1.915v.546c0 5.498 3.994 9.022 9.57 9.022h.272c4.52 0 8.16-2.32 9.02-6.015h-4.92c-.995 0-1.048 1.914-3.28 1.914h-1.094c-2.482 0-4.046-1.65-4.1-4.102h13.668v-.82c0-6.497-3.166-10.39-9.568-10.39-6.052.002-9.568 3.72-9.568 9.845z"/>
  </g>
  <g fill="#FFF">
    <path d="M33.587 275.363l-2.293-8.724h-15.12l-2.357 8.723H0l15.186-46.734h16.777l15.376 46.733H33.586zm-4.903-19.038l-2.005-7.64c-.47-1.698-1.036-3.896-1.705-6.59-.668-2.696-1.108-4.628-1.32-5.795-.19 1.082-.568 2.865-1.13 5.35s-1.81 7.374-3.74 14.675h9.9zM92.26 275.363H79.62v-18.975H65.008v18.975h-12.64V228.82h12.64v17.254H79.62V228.82h12.64v46.543zM130.876 275.363l-2.293-8.724h-15.12l-2.357 8.723H97.29l15.185-46.734h16.777l15.376 46.733h-13.752zm-4.903-19.038l-2.005-7.64c-.468-1.698-1.035-3.896-1.704-6.59-.668-2.696-1.108-4.628-1.32-5.795-.19 1.082-.568 2.865-1.13 5.35s-1.81 7.374-3.74 14.675h9.9zM187.32 238.466c-2.993 0-5.328 1.226-7.005 3.677-1.676 2.45-2.515 5.83-2.515 10.14 0 8.956 3.406 13.435 10.22 13.435 2.06 0 4.053-.286 5.984-.86s3.873-1.262 5.827-2.068v10.633c-3.883 1.72-8.277 2.58-13.18 2.58-7.024 0-12.41-2.04-16.155-6.113-3.746-4.075-5.62-9.965-5.62-17.67 0-4.817.908-9.05 2.723-12.7s4.425-6.46 7.83-8.422 7.414-2.944 12.02-2.944c5.03 0 9.837 1.093 14.42 3.278l-3.85 9.9c-1.72-.806-3.44-1.484-5.158-2.037-1.72-.554-3.566-.83-5.54-.83zM236.537 275.363h-27.633V228.82h27.633v10.09H221.48v7.323h13.943v10.092H221.48v8.787h15.057v10.25zM289 275.363h-16.49l-17-32.79h-.286c.404 5.156.605 9.094.605 11.81v20.98h-11.144V228.82h16.428l16.936 32.344h.19c-.296-4.69-.444-8.457-.444-11.3v-21.045H289v46.543zM319.595 275.363H307.02v-36.26h-11.364v-10.284h35.273V239.1h-11.335v36.26zM350.158 258.427v16.937h-12.574V228.82h15.248c12.65 0 18.975 4.585 18.975 13.753 0 5.39-2.63 9.562-7.895 12.512l13.56 20.28H363.21l-9.87-16.938h-3.182zm0-9.455h2.355c4.395 0 6.59-1.942 6.59-5.826 0-3.205-2.154-4.808-6.46-4.808h-2.485v10.634zM409.34 275.363h-27.634V228.82h27.633v10.09H394.28v7.323h13.943v10.092h-13.943v8.787h15.057v10.25z"/>
  </g>
</svg>
