<?xml version="1.0" encoding="utf-8"?>
<!-- Generator: Adobe Illustrator 16.0.4, SVG Export Plug-In . SVG Version: 6.00 Build 0)  -->
<!DOCTYPE svg PUBLIC "-//W3C//DTD SVG 1.1//EN" "http://www.w3.org/Graphics/SVG/1.1/DTD/svg11.dtd">
<svg version="1.1" id="Layer_1" xmlns="http://www.w3.org/2000/svg" xmlns:xlink="http://www.w3.org/1999/xlink" x="0px" y="0px"
	 width="800px" height="600px" viewBox="0 0 800 600" enable-background="new 0 0 800 600" xml:space="preserve">
<polygon opacity="0.5" fill="none" stroke="#FFFFFF" stroke-miterlimit="10" points="297.954,415.408 296.584,415.662 
	296.103,415.662 292.868,414.73 292.177,414.025 292.629,403.375 292.868,402.441 292.868,401.736 293.335,401.059 294.493,398.289 
	296.796,393.629 305.368,389.928 308.844,389.25 309.987,389.25 311.386,389.449 318.32,393.402 317.854,395.041 316.922,396.201 
	302.812,405.211 304.437,409.871 303.505,413.119 302.812,414.025 "/>
<polygon opacity="0.5" fill="none" stroke="#FFFFFF" stroke-linecap="round" stroke-linejoin="round" points="411.115,113.943 
	413.433,116.966 414.816,116.26 419.915,117.418 420.82,118.802 421.752,120.186 428.008,126.231 429.633,127.39 431.017,127.87 
	432.88,128.322 435.422,129 436.809,129.706 440.734,133.18 446.045,136.881 448.148,137.813 450.678,138.04 453.008,137.813 
	458.092,139.903 461.342,143.378 463.402,144.084 466.186,144.537 468.727,143.152 474.533,141.995 475.917,142.446 
	477.556,144.537 477.075,146.373 477.301,148.718 477.994,150.102 479.604,151.486 482.852,153.096 483.771,154.028 485.86,155.186 
	487.485,155.186 488.884,154.733 490.959,155.186 492.569,157.756 492.33,160.298 491.893,163.322 493.953,172.332 496.977,174.423 
	501.834,175.807 508.305,177.897 510.394,177.897 518.246,176.287 521.495,179.988 533.305,184.62 537.23,184.394 540.237,183.942 
	543.246,183.01 543.953,181.625 551.354,183.236 553.431,185.299 554.603,186.004 556.199,186.004 562.907,184.168 565.931,182.304 
	566.383,173.971 577.512,173.717 584.432,175.355 591.834,177.671 593.006,179.056 596.241,183.462 600.873,189.959 
	611.721,198.292 614.051,198.999 616.382,198.519 624.941,199.225 628.867,202.247 634.899,205.722 637.427,206.625 
	640.915,207.106 642.511,207.784 644.376,208.716 645.308,210.128 643.924,211.033 640.915,212.191 635.59,213.123 631.649,211.738 
	628.867,209.874 621.933,208.97 621.453,213.604 625.167,214.281 631.409,217.981 632.793,220.778 633.034,222.388 633.725,225.863 
	634.899,228.631 636.281,231.202 638.133,233.038 639.742,234.45 641.606,234.225 646.903,238.377 648.331,241.173 647.85,246.032 
	646.691,247.19 645.986,247.417 645.534,247.896 644.841,252.982 646.903,258.998 650.151,269.902 642.072,270.58 640.209,269.902 
	638.811,268.518 637.2,266.653 634.899,274.76 634.191,278.009 632.793,282.868 631.409,289.139 626.34,308.375 625.618,310.213 
	623.783,311.145 621.015,314.166 614.517,322.049 610.125,327.133 596.241,343.602 589.518,351.682 566.157,369.279 547.88,382.754 
	530.521,388.77 520.816,392.246 508.078,396.652 492.796,401.736 467.571,410.322 466.411,410.805 462.965,411.934 458.333,415.662 
	450.678,423.996 448.375,428.176 444.887,432.357 443.036,433.742 440.734,435.098 438.897,436.51 437.726,438.375 438.643,440.662 
	440.282,442.104 440.973,444.844 440.282,446.256 435.648,449.477 434.943,449.25 435.184,444.844 434.478,442.781 433.318,441.82 
	431.71,441.623 429.859,442.301 428.475,443.686 428.249,445.098 427.091,449.477 426.864,450.889 427.091,453.205 426.624,457.611 
	425.451,463.176 424.759,465.492 423.855,467.555 423.376,468.262 420.142,471.51 415.508,477.301 414.816,478.686 413.897,481.932 
	413.897,484.023 413.897,486.793 413.657,488.656 413.192,490.039 407.642,503.006 406.498,504.645 405.564,505.096 
	405.564,507.412 405.79,509.051 406.95,512.752 407.175,516.68 406.017,522.469 404.858,523.881 403.022,524.561 401.864,524.785 
	398.843,525.943 397.23,526.648 394.915,528.26 392.373,530.125 391.215,531.057 389.124,533.824 388.207,535.689 388.207,538.484 
	387.515,544.502 381.724,551.904 379.887,553.514 378.022,553.994 375.254,552.129 369.464,551.424 368.08,551.197 365.989,551.424 
	362.289,551.424 356.498,545.887 350.961,539.645 350.48,537.553 346.075,527.102 345.622,524.334 344.238,520.152 338.447,515.068 
	336.836,514.137 335.213,514.137 332.431,515.773 327.121,517.385 324.803,517.131 311.838,509.729 309.987,508.572 
	307.445,506.029 306.287,504.645 302.121,503.486 299.353,504.645 298.419,506.029 295.65,509.277 293.108,511.594 287.996,515.295 
	286.386,516.227 284.07,517.131 282.686,516.68 278.984,514.615 277.602,512.979 277.826,510.887 281.301,505.803 283.377,503.486 
	284.535,502.074 287.543,497.441 284.535,497.441 282.686,498.373 280.144,499.051 278.759,498.146 277.602,495.83 277.602,491.65 
	276.216,487.498 276.216,487.018 278.759,482.385 281.979,481.932 284.07,481.932 287.317,483.316 289.154,484.25 291.019,483.316 
	299.353,476.594 300.736,475.436 299.112,473.572 296.584,465.012 297.035,463.6 297.035,457.838 296.584,455.041 294.945,448.092 
	293.335,442.527 287.543,439.758 288.703,438.375 291.019,436.283 292.403,436.963 301.428,436.51 309.987,431.426 314.606,427.697 
	315.538,425.861 315.764,423.545 317.148,419.363 319.238,417.047 319.719,415.662 320.169,414.25 321.556,406.85 323.419,399.193 
	326.88,389.025 327.812,387.838 330.115,385.748 330.821,384.59 330.821,380.691 329.196,376.736 327.812,376.963 326.187,376.256 
	322.487,369.082 323.178,364.193 322.713,357.246 322.035,355.861 325.029,347.754 327.571,344.986 328.277,343.602 323.871,345.24 
	319.719,348.939 318.787,351.258 318.561,353.799 318.32,355.635 318.32,357.02 319.479,358.883 320.622,360.494 321.103,361.877 
	320.862,370.014 320.622,372.555 319.238,380.211 318.08,381.822 316.245,383.432 313.222,384.844 311.386,385.748 307.912,384.139 
	306.979,382.979 309.521,372.555 311.145,367.924 313.222,366.99 314.606,364.9 309.747,366.539 307.205,371.623 306.287,374.42 
	303.97,378.572 299.112,383.912 296.103,386.709 293.561,394.109 291.019,393.883 289.395,393.402 278.984,386.906 271.103,378.572 
	267.403,374.195 264.635,371.623 263.25,370.467 259.549,369.279 255.849,369.279 253.759,368.375 248.435,365.127 242.417,357.951 
	242.417,355.635 245.891,357.246 250.977,354.957 255.61,351.482 256.754,350.324 258.152,347.98 259.775,338.262 259.549,336.398 
	256.527,325.748 255.849,323.658 253.292,319.957 251.442,315.777 250.977,313.912 251.442,311.596 253.292,307.189 253.985,305.58 
	255.61,304.873 257.686,294.93 253.985,289.365 251.217,285.637 248.435,281.709 246.584,276.145 246.81,274.76 252.135,267.104 
	258.152,266.428 260.935,267.104 267.658,266.879 270.65,264.789 273.659,259.479 273.885,256.003 274.352,253.433 275.962,249.506 
	280.596,241.625 281.979,242.557 282.686,245.1 284.775,246.259 287.317,246.484 292.177,245.551 289.154,244.875 287.317,245.1 
	284.775,244.648 282.912,241.852 281.528,239.31 276.668,230.721 275.736,227.727 285.001,216.823 287.317,214.733 291.245,212.445 
	293.108,212.191 294.493,211.033 301.428,203.857 303.278,201.542 306.526,197.361 308.136,192.276 308.617,189.705 
	308.617,186.485 308.362,184.846 308.136,182.784 308.136,180.92 308.617,176.513 311.145,177.445 311.386,176.965 311.838,175.355 
	310.68,173.265 309.068,171.203 308.362,169.79 308.136,166.542 309.987,164 310.228,162.361 309.747,160.298 308.844,157.982 
	307.912,156.599 305.594,155.892 303.743,153.802 303.743,148.718 304.21,147.305 307.912,142.897 310.68,143.378 313.463,143.152 
	321.556,139.903 324.098,138.293 325.255,137.107 327.121,135.271 328.503,134.339 330.115,133.406 335.454,131.316 
	338.447,131.796 341.229,132.022 343.306,131.57 347.938,128.322 349.789,126.683 350.961,125.779 359.492,125.299 361.822,125.299 
	364.378,125.525 367.599,125.299 370.155,124.367 371.78,123.209 373.391,121.599 376.64,117.898 382.19,118.802 387.515,114.65 
	390.057,114.169 391.215,107.22 394.224,100.751 395.623,100.271 405.1,110.949 406.498,111.853 408.332,112.559 "/>
</svg>
