<svg id="Layer_1" xmlns="http://www.w3.org/2000/svg" viewBox="0 0 80 80">
  <title>
    Activity fund
  </title>
  <path fill="#fff" d="M70 8.6l-10.5 9.8H21.6L11.1 8.6S16.3 1.3 24.9.3c8.4-.9 11.4 4.2 15.6 4.4 4.2-.2 7.2-5.4 15.6-4.4C64.7 1.3 70 8.6 70 8.6zM42 55.5v7.4c1.1-.2 2-.6 2.7-1.3.7-.7 1.1-1.5 1.1-2.5 0-.8-.3-1.6-.9-2.2-.6-.6-1.6-1-2.9-1.4zm-6.2-9.4c0 .7.2 1.3.7 1.9.5.6 1.2 1 2.2 1.4v-6.5c-.9.2-1.6.7-2.1 1.3-.5.5-.8 1.1-.8 1.9zm40.5 25.3s-2.3 8.8-12.8 8.8h-46C7 80.2 4.7 71.4 4.7 71.4c-6.9-30.3 14-46.8 14-46.8h43.5c.1.1 21 16.5 14.1 46.8zM51.2 58.5c0-2.1-.6-3.7-2-5-1.3-1.3-3.7-2.4-7.3-3.2v-7.4c1.5.5 2.3 1.5 2.7 3l5.7-.6c-.4-1.9-1.3-3.4-2.7-4.5-1.4-1.1-3.3-1.8-5.7-2.1v-1.9h-3.3v1.9c-2.6.2-4.6 1-6.2 2.4-1.5 1.4-2.3 3.1-2.3 5.2s.7 3.8 2.1 5.2c1.4 1.4 3.5 2.5 6.4 3.2v7.9c-.8-.3-1.5-.9-2.2-1.6-.7-.7-1.1-1.6-1.3-2.6l-5.8.6c.4 2.5 1.5 4.4 3.1 5.8 1.6 1.4 3.7 2.2 6.3 2.4v3.4H42v-3.5c2.9-.4 5.2-1.3 6.8-2.9 1.6-1.5 2.4-3.5 2.4-5.7z"/>
</svg>
