<svg data-name="Layer 1" xmlns="http://www.w3.org/2000/svg" viewBox="0 0 80 80">
  <title>
    globe
  </title>
  <path fill="#fff" d="M80 40A40 40 0 1 1 40 0a40 40 0 0 1 40 40zM53.07 28.12c.26-.05.52-1 .68-1.2a3.45 3.45 0 0 1 1.15-.78 12 12 0 0 1 2.71-.62 2.62 2.62 0 0 1 2.66.57c-.16-.16 1.09-1.25 1.25-1.3.47-.26 1.25-.16 1.56-.62a4.92 4.92 0 0 0 .1-1.15c-.88.1-1.2-.73-1.25-1.46a1.1 1.1 0 0 1-.31.42c.05-.78-.94-.21-1.3-.31-1.2-.31-1-1.14-1.41-2-.21-.47-.78-.62-1-1.09-.21-.31-.31-1-.78-1-.31-.05-.88 1.09-1 1-.47-.26-.68.1-1 .31s-.57.1-.88.26c.94-.31-.42-.83-.89-.73.73-.21.36-1-.05-1.35h.26c-.1-.47-1.56-.89-2-1.2s-3-.83-3.49-.52.16 1.41.16 1.93-.62.78-.62 1.3c0 .88 1.67.73 1.25 1.93-.26.73-1.25.89-1.67 1.46s.05 1.46.47 1.82-.73.83-.89.94c-.88.42-1.56-.89-1.77-1.67-.16-.57-.21-1.25-.83-1.56-.31-.1-1.3-.26-1.51.05-.31-.78-1.41-1.09-2.14-1.35a5.93 5.93 0 0 0-3-.21c.36-.05-.1-1.67-1-1.41a5.8 5.8 0 0 0 .26-1.62 3 3 0 0 1 .62-1.2c.1-.21 1.25-1.41.89-1.46a3 3 0 0 0 2.6-.57c.47-.47.68-1.25 1.15-1.77.68-.78 1.51.21 2.24.26 1 .05 1-1.09.42-1.61.68.05.1-1.2-.26-1.35s-2.24.31-1.3.68c-.21-.1-1.46 2.5-2.19 1.2-.21-.26-.31-1.35-.78-1.41s-.68.47-.83.78c.26-.68-1.46-1.14-1.82-1.2.78-.52.16-1.09-.42-1.41-.42-.26-1.72-.47-2.08-.05C34 9 36 9.17 36.51 9.48c.16.1.78.47.42.73s-1.25.42-1.35.62c-.31.47.36 1-.1 1.46-.48-.47-.48-1.29-.84-1.77.47.57-1.88.26-1.82.26-.78 0-2 .52-2.6-.26-.1-.21-.1-1.41.21-1.15-.47-.36-.78-.73-1.09-.94a31.66 31.66 0 0 0-4.9 2.14.89.89 0 0 0 .62-.05 13 13 0 0 0 1.2-.63c.52-.21 1.61-.83 2.19-.36.05-.1.21-.21.26-.26a12.77 12.77 0 0 1 1 1.3 3.15 3.15 0 0 0-1.56-.05c-.36.1-1 .21-1.15.62.16.26.36.68.26.94-.68-.47-1.2-1.25-2.14-1.35a7.76 7.76 0 0 0-1.15.05 33.86 33.86 0 0 0-12.2 11.56 1.46 1.46 0 0 0 .62.42c.52.16 0 1.67 1 .89a.73.73 0 0 1 .16 1c.05-.05 2.14 1.3 2.29 1.41.36.31.94.68 1.09 1.09a.91.91 0 0 1-.52.94c-.05-.1-.83-.88-.94-.68s0 1.67.57 1.61c-.83.05-.47 3.28-.68 3.91 0 .05.1.05.1.05-.16.62.36 3.07 1.41 2.81-.68.16 1.2 2.55 1.46 2.71a6.72 6.72 0 0 1 1.93 1.46c.52.73.52 1.82 1.25 2.4-.21.62 1.09 1.35 1 2.24-.1.05-.16.05-.26.1.26.73 1.25.73 1.61 1.41.21.42 0 1.41.68 1.2.1-1.15-.68-2.29-1.25-3.23-.31-.52-.62-1-.89-1.51a13.74 13.74 0 0 1-.47-1.57c.21.05 1.35.47 1.25.62-.42 1 1.67 2.87 2.24 3.54.16.16 1.35 1.72.73 1.72.68 0 1.62 1 1.93 1.56.47.78.36 1.77.68 2.6.31 1 1.77 1.51 2.6 2a20.55 20.55 0 0 0 2.08 1.15c1.09.42 1.35.05 2.29-.1 1.35-.21 1.51 1.3 2.61 1.87.68.36 2.13.89 2.86.57-.31.1 1.09 2.24 1.2 2.4.47.63 1.35.94 1.88 1.56a.83.83 0 0 0 .36-.47c-.21.57.78 1.67 1.3 1.56s.73-1.25.73-1.67a1.82 1.82 0 0 1-2.56-.91c-.1-.26-.94-1.72-.21-1.72 1 0 .31-.78.21-1.51s-.83-1.2-1.2-1.82c-.31.62-1.35.47-1.67-.05 0 .16-.16.42-.16.62a2 2 0 0 1-.78-.05c.1-.63.16-1.41.31-2.08.26-.94 2-2.76-.26-2.66a1.35 1.35 0 0 0-1.35 1c-.26.62-.16 1.2-.89 1.51a4.56 4.56 0 0 1-2.5-.16A4.65 4.65 0 0 1 34 48.65c-.05-1.41.68-2.66 0-4 .31-.26.62-.78 1-1s.68.16.83-.47a4 4 0 0 0-.42-.31c.78.36 2.24-.52 2.92 0 .42.31.89.42 1.15-.1.05-.16-.36-.78-.16-1.2.16.88.73 1 1.51.47.31.31 1.15.21 1.72.52s.68.94 1.35.16a2.83 2.83 0 0 1 .58 1.28c.16.57.47 2 1 2.29 1.09.68.83-1.15.73-1.77-.05-.05-.05-1.77-.1-1.77-1.67-.36-1-1.67-.1-2.55a12.39 12.39 0 0 0 1.87-.94c.47-.42 1-1.15.78-1.82a.66.66 0 0 0 .57-.47c-.16-.05-.78-.57-.89-.52.36-.21.31-.52.1-.83.52-.31.26-.88.78-1.09.57.78 1.72-.1 1.15-.73.52-.73 1.72-.36 2-1 .78.21.21-.78.62-1.35s1-.47 1.46-.73c0 .05 1.3-.73.88-.78.89.1 2.66-.83 1.3-1.61.21-.47-.47-.68-.94-.78.36-.1.83.1 1.15-.1.68-.47.21-.68-.36-.83a3.15 3.15 0 0 0-2.24.62c-.39.21-.65.76-1.17.88zM64.06 63c-.31-.31-.89-.21-1.3-.42a7 7 0 0 0-1.25-.42c.1-1-1-1.41-1.77-1.93s-1.09-1.09-2.08-.88c-.1.05-1.15.42-.94.62a4.35 4.35 0 0 0-1.87-1.15c-.83-.26-1.41-1.3-2.24-.36-.42.42-.21 1-.42 1.46-.68-.57.62-1.25.1-1.87s-1.72.47-2.24.78c-.31.26-.68.36-.88.68a12.44 12.44 0 0 0-.57 1.2c-.16-.42-1-.31-1.09-.62.21 1.25.21 2.55.47 3.8a2.93 2.93 0 0 1-.63 2.5 3.76 3.76 0 0 0-1.51 2.08c-.1.62.05 1.2.62 1.35.05.78-.83 1.35-.78 2.19 0 .05.05.57.1.83A33.06 33.06 0 0 0 64.06 63z"/>
</svg>
