<svg data-name="Layer 1" xmlns="http://www.w3.org/2000/svg" viewBox="0 0 80 80">
  <title>
    innovation
  </title>
  <path fill="#fff" d="M66.52 35.65L66 33.13l13.13-3 .58 2.53zm5.85-19.43l-1.61-2-10.52 8.4 1.61 2zM58.69 4.57l-2.33-1.13-5.84 12.12 2.33 1.12zM41.29 0H38.7v13.47h2.58zM29.47 15.56L23.63 3.44l-2.34 1.13 5.85 12.12zm-9.71 7L9.23 14.19l-1.61 2 10.52 8.4zM14 33.13l-13.1-3-.57 2.53 13.13 3zm17.79 40.32l17.37-3.14a6.34 6.34 0 0 0 0-.66V68L31 71.26a7.54 7.54 0 0 0 .79 2.19zm-1-3.86l18.39-3.32v-2.33l-18.37 3.31zm18 2.49L32.87 75a7.67 7.67 0 0 0 1.8 1.47V80h10.67v-3.57a8 8 0 0 0 3.48-4.35zm11.94-31.7A20.75 20.75 0 1 0 30.81 59v6.56l18.39-3.32V59a20.76 20.76 0 0 0 11.55-18.62z"/>
</svg>
