<svg xmlns="http://www.w3.org/2000/svg" width="841.89" height="595.28" viewBox="0 0 841.89 595.28">
  <path fill="#FFF" d="M262.966 156.964l-89.45 51.984L38.46 130.972l89.45-51.985"/>
  <g fill="#FFF">
    <path d="M132.862 498.787l264.777-153.87-90.04-51.983L132.86 394.48M128.5 498.787v-310.38l-90.04-51.984v310.382"/>
  </g>
  <g fill="#FFF">
    <path d="M354.922 156.82h13.466v87.57h23.227v12.756h-36.693V156.82zM399.72 177.892c0-13.623 9.208-22.075 22.668-22.075 13.605 0 22.812 8.453 22.812 22.075v58.186c0 13.618-9.206 22.07-22.812 22.07-13.46 0-22.668-8.452-22.668-22.07v-58.186zm32.017 1.284c0-6.305-3.438-10.6-9.35-10.6-5.91 0-9.197 4.295-9.197 10.6v55.615c0 6.304 3.288 10.606 9.197 10.606 5.91 0 9.35-4.302 9.35-10.605v-55.614zM460.04 177.892c0-13.623 9.208-22.075 22.678-22.075 14.836 0 22.803 9.027 22.803 21.065v14.62h-13.46v-12.897c0-4.873-2.336-10.03-9.342-10.03-6.195 0-9.213 4.296-9.213 10.6v55.616c0 6.304 3.018 10.606 9.213 10.606 7.006 0 9.34-4.727 9.34-9.177v-22.647h-9.486v-12.178h22.95v35.684c0 12.04-7.968 21.068-22.804 21.068-13.47 0-22.678-8.453-22.678-22.07V177.89zM521.597 156.82h13.466v100.326h-13.466V156.82zM549.9 223.61h13.47v12.038c0 4.87 2.47 9.748 8.793 9.748 5.906 0 9.065-3.867 9.065-9.888v-16.77c0-3.73-1.78-6.308-5.495-6.453l-11.4-.575c-9.35-.426-14.433-6.014-14.433-14.616v-19.2c0-13.624 9.07-22.076 22.53-22.076 14.842 0 22.267 9.027 22.267 21.065v12.046h-13.47v-10.61c0-4.586-2.612-9.744-8.933-9.744-5.764 0-8.926 3.87-8.926 9.885v16.057c0 3.725 1.787 6.304 5.356 6.45l11.54.574c9.343.43 14.432 5.87 14.432 14.472v20.066c0 13.618-9.07 22.07-22.67 22.07-14.702 0-22.127-9.027-22.127-21.068v-13.47zM618.872 169.576h-17.168V156.82h47.95v12.756H632.48v87.57H618.87v-87.57zM659.68 156.82h13.472v100.326H659.68V156.82zM689.5 177.892c0-13.623 8.94-22.075 22.395-22.075 14.842 0 22.13 9.027 22.13 21.065v16.197h-13.47v-14.475c0-4.873-2.335-10.03-8.795-10.03-5.91 0-8.79 4.296-8.79 10.6v55.616c0 6.304 2.88 10.606 8.79 10.606 6.46 0 8.796-5.158 8.796-10.033V219.45h13.47v17.63c0 12.04-7.29 21.068-22.13 21.068-13.456 0-22.395-8.453-22.395-22.07V177.89zM744.047 223.61h13.467v12.038c0 4.87 2.472 9.748 8.794 9.748 5.908 0 9.07-3.867 9.07-9.888v-16.77c0-3.73-1.79-6.308-5.49-6.453l-11.41-.575c-9.346-.426-14.43-6.014-14.43-14.616v-19.2c0-13.624 9.07-22.076 22.533-22.076 14.848 0 22.268 9.027 22.268 21.065v12.046h-13.47v-10.61c0-4.586-2.616-9.744-8.933-9.744-5.772 0-8.932 3.87-8.932 9.885v16.057c0 3.725 1.786 6.304 5.358 6.45l11.545.574c9.342.43 14.432 5.87 14.432 14.472v20.066c0 13.618-9.07 22.07-22.676 22.07-14.698 0-22.124-9.027-22.124-21.068v-13.47z"/>
  </g>
  <g fill="#FFF">
    <path d="M437.506 313.764c0-13.635 8.393-22.108 21.034-22.108 13.947 0 20.788 9.045 20.788 21.102v16.228h-12.652v-14.5c0-4.88-2.194-10.052-8.26-10.052-5.554 0-8.263 4.31-8.263 10.622v55.713c0 6.317 2.71 10.62 8.263 10.62 6.065 0 8.26-5.17 8.26-10.044v-15.938h12.652v17.658c0 12.062-6.84 21.105-20.788 21.105-12.642 0-21.034-8.467-21.034-22.11v-58.296zM491.585 292.66h12.653v87.724h21.81v12.783h-34.463V292.66zM534.572 292.66h12.646v78.538c0 5.746 2.84 10.19 9.17 10.19 6.318 0 9.16-4.444 9.16-10.19V292.66h12.777v79.834c0 12.92-8.648 21.677-21.938 21.677-13.167 0-21.815-8.756-21.815-21.676V292.66zM591.62 359.567h12.65v12.062c0 4.88 2.32 9.76 8.26 9.76 5.55 0 8.525-3.874 8.525-9.906V354.69c0-3.737-1.684-6.32-5.17-6.464l-10.712-.575c-8.78-.426-13.554-6.028-13.554-14.645v-19.24c0-13.635 8.52-22.108 21.168-22.108 13.944 0 20.908 9.045 20.908 21.102v12.06h-12.642V314.2c0-4.595-2.455-9.766-8.39-9.766-5.43 0-8.395 3.876-8.395 9.91v16.078c0 3.734 1.67 6.316 5.036 6.465l10.835.568c8.78.435 13.556 5.894 13.556 14.504v20.1c0 13.645-8.517 22.112-21.298 22.112-13.806 0-20.78-9.044-20.78-21.105v-13.5zM656.416 305.438h-16.138V292.66h45.05v12.778H669.2v87.73h-12.786v-87.73zM694.756 292.66h35.748v12.778h-23.1v30.442H729.6v12.345h-22.197v32.158h23.23v12.783h-35.877V292.66zM742.77 292.66h21.427c15.358 0 21.164 7.033 21.164 20.822v10.046c0 10.05-3.604 16.938-10.97 19.53 6.842 1.437 11.104 6.027 11.104 15.075v25.695c0 3.307.77 7.466 3.48 8.912v.426h-13.16c-2.71-1.438-2.968-6.467-2.968-10.052V360.43c0-7.183-2.842-10.915-11.874-10.915-.52 0-4.902.145-5.55.285v43.365h-12.65V292.66zm30.2 22.682c0-6.46-2.966-10.188-10.843-10.188h-6.705v32.014h6.705c7.877 0 10.842-4.88 10.842-11.343v-10.483z"/>
  </g>
</svg>
