<svg data-name="Layer 1" xmlns="http://www.w3.org/2000/svg" viewBox="0 0 80 80">
  <title>
    logistics
  </title>
  <path fill="#fff" d="M68.57 9.29c0-.44-.39-.77-1.17-1l-1.66-.59a14.91 14.91 0 0 0-3.48-1.07 7.9 7.9 0 0 0-1 .25c-.61.16-1.54.46-2.82.91-.1 0-.83.2-2.16.45s-3.32.65-6 1.21L24 .08C23.92 0 23.73 0 23.4 0A3 3 0 0 0 21 1.33l16.76 10.28-5.65 1.09-4.9-3.9-1.33.25v3.07L20.23 10l-1.08.66 5 4.4v.25c0 .77.52 1.16 1.57 1.16l2.51 3.07 1.24-.41.42-2.24H43l2.75 2.08v6.65h2.48l5.07-11c1.7-.27 3.51-.63 5.39-1s3.9-.85 6.06-1.29c.39-.17.8-.38 1.24-.63a13.87 13.87 0 0 0 1.25-.79 5.73 5.73 0 0 0 .94-.83 1.18 1.18 0 0 0 .39-.79zM58.51 65.94h-.72v-1.85a63.39 63.39 0 0 0-.61-9.25 1.28 1.28 0 0 0 0-.13V36H56v-4.3h-1.45V36h-1.12v12.78c-.26-.17-.53-.33-.82-.49v-13c0-1.07-5.07-4.36-17.24-4.36s-17.11 3.3-17.11 4.36v13.1a8.73 8.73 0 0 0-4.37 6.45 63.3 63.3 0 0 0-.61 9.25v1.85h-.72q-1.13 0-1.13 3.07t1.13 3h4.72v.92a29.91 29.91 0 0 0 .16 3.39 16 16 0 0 0 .36 2.16A3.61 3.61 0 0 0 21.19 80a3.53 3.53 0 0 0 3.29-1.54 13 13 0 0 0 .61-4.92V72H46v1.55a12.78 12.78 0 0 0 .62 4.92A3.51 3.51 0 0 0 49.88 80a3.63 3.63 0 0 0 3.39-1.54 17.91 17.91 0 0 0 .36-2.16 31.29 31.29 0 0 0 .15-3.39V72h4.73c.75 0 1.13-1 1.13-3s-.38-3.06-1.13-3.06zM22 62.27a3.07 3.07 0 1 1 3.07-3.07A3.07 3.07 0 0 1 22 62.27zm1.87-13.7a1.94 1.94 0 0 1-1.93-1.93v-4.37a3 3 0 0 1 1.93-2.56 39.37 39.37 0 0 1 11.67-1.61 39.7 39.7 0 0 1 11.68 1.61 3.32 3.32 0 0 1 1.92 3.13v3.79a1.92 1.92 0 0 1-1.92 1.93zm19.74 14.17H27.45a.55.55 0 1 1 0-1.09h16.16a.55.55 0 0 1 0 1.09zm0-3.09H27.45a.55.55 0 1 1 0-1.09h16.16a.55.55 0 0 1 0 1.09zm0-3.09H27.45a.55.55 0 0 1-.55-.54.55.55 0 0 1 .55-.55h16.16a.55.55 0 0 1 .54.55.54.54 0 0 1-.54.54zM49 62.27a3.07 3.07 0 1 1 3.1-3.07 3.07 3.07 0 0 1-3.1 3.07z"/>
</svg>
