<svg data-name="Layer 1" xmlns="http://www.w3.org/2000/svg" viewBox="0 0 80 80">
  <title>
    partner
  </title>
  <path fill="#fff" d="M20 23.22a9.16 9.16 0 1 1-9.15-9.16A9.15 9.15 0 0 1 20 23.22zm40.08 0a9.16 9.16 0 1 0 9.15-9.16A9.15 9.15 0 0 0 60 23.22zM34.94 54.69a6.3 6.3 0 0 1 1.81-5.06c-7.75-1.48-10.93-5.27-13.69-8.68a19.93 19.93 0 0 0-4.32-4.4c-.05 0-.11 0-.16-.07a8.3 8.3 0 0 0-5.3-2H8.33A8.35 8.35 0 0 0 0 42.84v23.1h21.61V51a28.19 28.19 0 0 0 14.47 6.53 6.3 6.3 0 0 1-1.14-2.84zm36.74-20.17h-5a8.27 8.27 0 0 0-5.29 2c-.05 0-.11 0-.16.07a20 20 0 0 0-4.33 4.4c-3 3.75-6.47 8-16.08 9.09a4 4 0 0 0 .47 7.92h.45c8.15-.91 13.19-3.8 16.66-6.88v14.82H80v-23.1a8.35 8.35 0 0 0-8.32-8.32z"/>
</svg>
