<svg data-name="Layer 1" xmlns="http://www.w3.org/2000/svg" viewBox="0 0 80 80">
  <title>
    plane
  </title>
  <path fill="#fff" d="M73.05 19.74l-9.19 9.19L73 68.64a1.87 1.87 0 0 1-.68 1.88L65 76a1.76 1.76 0 0 1-1.09.34 1.1 1.1 0 0 1-.4-.06 1.64 1.64 0 0 1-1.2-.91l-15.92-29-14.77 14.79 3 11.07a1.88 1.88 0 0 1-.43 1.77l-5.48 5.48a1.92 1.92 0 0 1-1.31.52h-.11a1.86 1.86 0 0 1-1.37-.74L15.13 64.88.75 54.09A1.75 1.75 0 0 1 0 52.78a1.93 1.93 0 0 1 .51-1.43L6 45.81a1.92 1.92 0 0 1 1.31-.51 1.1 1.1 0 0 1 .46.06l11.07 3L33.62 33.6l-29-15.92a2 2 0 0 1-1-1.37 2 2 0 0 1 .51-1.54l7.3-7.3A1.92 1.92 0 0 1 13.19 7l37.95 9.07L60.27 7c5.48-5.48 14.61-9.13 18.26-5.48s0 12.74-5.48 18.22z"/>
</svg>
