<svg data-name="Layer 1" xmlns="http://www.w3.org/2000/svg" viewBox="0 0 80 80">
  <title>
    programme
  </title>
  <path fill="#fff" d="M19.66 25.8l-7.15-5A33.57 33.57 0 0 1 36.82 6.67V0l18.83 10.87-18.83 10.86v-6.32A24.87 24.87 0 0 0 19.66 25.8zM15.4 43.18h6.33L10.86 24.36 0 43.18h6.67A33.53 33.53 0 0 0 20.8 67.49l5-7.15a24.87 24.87 0 0 1-10.4-17.16zm27.79 21.41v-6.32L24.36 69.13 43.19 80v-6.67a33.56 33.56 0 0 0 24.29-14.12l-7.14-5a24.92 24.92 0 0 1-17.15 10.38zm30.14-27.77A33.62 33.62 0 0 0 59.2 12.51l-5 7.14a24.92 24.92 0 0 1 10.4 17.17h-6.33l10.86 18.82L80 36.82z"/>
</svg>
