<svg data-name="Layer 1" xmlns="http://www.w3.org/2000/svg" viewBox="0 0 80 80">
  <title>
    recovery
  </title>
  <path fill="#fff" d="M60.61 48.83l16-16.06 2.52 2.5a3 3 0 0 1 0 4.28L67.34 51.26a3.05 3.05 0 0 1-4.29 0zM0 67.57a12.87 12.87 0 0 0 8.6 8.62l31.14-30.87-8.61-8.62zm58.76-24.43c.13.28.25.54.35.82s.15.44.2.62a6.93 6.93 0 0 1 .24 1.2l13.79-13.66s-8.73-.49-11.41-11.43c-.81-.82-1.64-1.63-2.46-2.45C48.18 7 36.28 3 25.1 4c-.61 0-1.85.23-3 .39-2 .3-2.17 3.2 0 3.23 1 0 2.07 0 2.55.08a27.26 27.26 0 0 1 6 1.21c8.35 3.19 13.74 12.24 6.62 19.3l-5.7 5.64 11.49 11.22a17 17 0 0 1 1.33-1.42c2.29-1.89 7-5 11.76-3.1a4.57 4.57 0 0 1 1.79 1.3 6.35 6.35 0 0 1 .63.9c.07.13.13.25.19.39z"/>
</svg>
