<svg data-name="Layer 1" xmlns="http://www.w3.org/2000/svg" viewBox="0 0 80 80">
  <title>
    relief
  </title>
  <path fill="#fff" d="M66.95 28.61L80 21.36l-2.88-1.56L53.3 6.83 40.17 14 26.69 6.65 0 21.17l2.84 1.6 10.41 5.78-.12.06-12.88 7 12.88 6.92V60L40 73.35 66.89 60V42.61l13-7zM53.3 10.93l19.23 10.46-9.31 5.18-19.45-10.44zM7.46 21.2l19.23-10.46 9.53 5.19-19.46 10.45zm.32 14.42l9.53-5.2 19.42 10.5-9.5 5.14zm8.93 22.1V44.5l10.55 5.67 10.94-6.08v24.33zm46.58 0l-21.48 10.7V44.05l11 6.11 10.48-5.63zm9-22.11L52.84 46.06l-9.34-5.14 19.26-10.5z"/>
</svg>
