<?xml version="1.0" encoding="utf-8"?>
<!-- Generator: Adobe Illustrator 16.0.4, SVG Export Plug-In . SVG Version: 6.00 Build 0)  -->
<!DOCTYPE svg PUBLIC "-//W3C//DTD SVG 1.1//EN" "http://www.w3.org/Graphics/SVG/1.1/DTD/svg11.dtd">
<svg version="1.1" id="Layer_1" xmlns="http://www.w3.org/2000/svg" xmlns:xlink="http://www.w3.org/1999/xlink" x="0px" y="0px"
	 width="638.255px" height="204.973px" viewBox="0 0 638.255 204.973" enable-background="new 0 0 638.255 204.973"
	 xml:space="preserve">
<path fill="#FFFFFF" d="M136.168,62.411c1.165,0.739,2.525,1.167,4.373,1.167c2.444,0,4.461-1.251,4.461-4.065
	c0-3.89-9.09-4.37-9.09-9.571c0-3.185,2.781-5.168,6.279-5.168c0.962,0,2.527,0.141,3.89,0.652l-0.312,1.79
	c-0.883-0.487-2.273-0.739-3.609-0.739c-2.046,0-4.289,0.851-4.289,3.406c0,3.978,9.09,4.005,9.09,9.801
	c0,4.005-3.435,5.597-6.506,5.597c-1.931,0-3.434-0.396-4.485-0.852L136.168,62.411z"/>
<path fill="#FFFFFF" d="M162.357,52.385c-0.966-0.427-2.133-0.739-3.097-0.739c-3.491,0-5.455,2.53-5.455,6.052
	c0,3.294,1.988,6.048,5.258,6.048c1.133,0,2.185-0.256,3.265-0.651l0.173,1.675c-1.225,0.428-2.358,0.512-3.722,0.512
	c-4.662,0-6.933-3.554-6.933-7.583c0-4.462,2.87-7.583,7.159-7.583c1.733,0,2.982,0.392,3.495,0.567L162.357,52.385z"/>
<path fill="#FFFFFF" d="M167.755,43.635h1.786v9.259h0.058c0.768-1.587,2.387-2.779,4.519-2.779c3.89,0,4.942,2.583,4.942,6.161
	v8.666h-1.791v-8.635c0-2.501-0.482-4.66-3.438-4.66c-3.18,0-4.29,3.01-4.29,5.541v7.755h-1.786V43.635z"/>
<polygon fill="#FFFFFF" points="200.645,64.941 198.488,64.941 194.538,52.414 194.48,52.414 190.534,64.941 188.373,64.941 
	183.719,50.454 185.678,50.454 189.482,62.979 189.539,62.979 193.572,50.454 195.731,50.454 199.564,62.979 199.622,62.979 
	203.627,50.454 205.418,50.454 "/>
<path fill="#FFFFFF" d="M218.909,56.671c0-2.522-1.022-5.025-3.69-5.025c-2.643,0-4.26,2.642-4.26,5.025H218.909z M219.789,64.486
	c-1.249,0.512-2.868,0.796-4.201,0.796c-4.803,0-6.594-3.242-6.594-7.588c0-4.429,2.443-7.579,6.107-7.579
	c4.091,0,5.767,3.294,5.767,7.184v0.907h-9.91c0,3.07,1.644,5.541,4.768,5.541c1.308,0,3.211-0.54,4.063-1.08V64.486z"/>
<path fill="#FFFFFF" d="M226.495,50.454h1.787v14.484h-1.787V50.454z M228.282,46.589h-1.787v-2.386h1.787V46.589z"/>
<polygon fill="#FFFFFF" points="233.681,63.434 242.401,51.989 234.022,51.989 234.022,50.454 244.475,50.454 244.475,51.989 
	235.754,63.406 244.475,63.406 244.475,64.938 233.681,64.938 "/>
<path fill="#FFFFFF" d="M258.676,56.671c0-2.522-1.022-5.025-3.693-5.025c-2.644,0-4.263,2.642-4.263,5.025H258.676z
	 M259.556,64.486c-1.249,0.512-2.873,0.796-4.204,0.796c-4.801,0-6.591-3.242-6.591-7.588c0-4.429,2.443-7.579,6.107-7.579
	c4.091,0,5.767,3.294,5.767,7.184v0.907h-9.916c0,3.07,1.646,5.541,4.773,5.541c1.307,0,3.211-0.54,4.063-1.08V64.486z"/>
<path fill="#FFFFFF" d="M266.262,53.693c0-1.592,0-2.187-0.117-3.239h1.791v2.779h0.055c0.655-1.615,1.875-3.118,3.72-3.118
	c0.427,0,0.94,0.08,1.252,0.168v1.875c-0.37-0.113-0.851-0.172-1.306-0.172c-2.841,0-3.61,3.182-3.61,5.796v7.16h-1.785V53.693z"/>
<path fill="#FFFFFF" d="M277.934,50.454h1.791v14.484h-1.791V50.454z M279.722,46.589h-1.791v-2.386h1.791V46.589z"/>
<path fill="#FFFFFF" d="M285.349,62.839c1.075,0.539,2.386,0.911,3.776,0.911c1.706,0,3.208-0.943,3.208-2.59
	c0-3.435-6.958-2.895-6.958-7.1c0-2.87,2.329-3.949,4.715-3.949c0.768,0,2.302,0.171,3.583,0.655l-0.173,1.559
	c-0.941-0.428-2.217-0.68-3.208-0.68c-1.847,0-3.125,0.568-3.125,2.415c0,2.701,7.129,2.358,7.129,7.1
	c0,3.07-2.869,4.122-5.058,4.122c-1.392,0-2.781-0.172-4.063-0.684L285.349,62.839z"/>
<path fill="#FFFFFF" d="M309.15,52.385c-0.967-0.427-2.134-0.739-3.097-0.739c-3.492,0-5.451,2.53-5.451,6.052
	c0,3.294,1.987,6.048,5.253,6.048c1.137,0,2.188-0.256,3.265-0.651l0.171,1.675c-1.219,0.428-2.355,0.512-3.72,0.512
	c-4.656,0-6.933-3.554-6.933-7.583c0-4.462,2.871-7.583,7.159-7.583c1.734,0,2.981,0.392,3.493,0.567L309.15,52.385z"/>
<path fill="#FFFFFF" d="M314.543,43.635h1.791v9.259h0.061c0.766-1.587,2.386-2.779,4.513-2.779c3.893,0,4.944,2.583,4.944,6.161
	v8.666h-1.791v-8.635c0-2.501-0.483-4.66-3.438-4.66c-3.182,0-4.289,3.01-4.289,5.541v7.755h-1.791V43.635z"/>
<path fill="#FFFFFF" d="M341.39,56.671c0-2.522-1.023-5.025-3.697-5.025c-2.638,0-4.257,2.642-4.257,5.025H341.39z M342.27,64.486
	c-1.251,0.512-2.87,0.796-4.202,0.796c-4.801,0-6.591-3.242-6.591-7.588c0-4.429,2.442-7.579,6.104-7.579
	c4.093,0,5.769,3.294,5.769,7.184v0.907h-9.914c0,3.07,1.647,5.541,4.772,5.541c1.304,0,3.21-0.54,4.062-1.08V64.486z"/>
<polygon fill="#FFFFFF" points="359.283,45.114 369,45.114 369,46.817 361.243,46.817 361.243,53.893 368.598,53.893 
	368.598,55.595 361.243,55.595 361.243,63.234 369.337,63.234 369.337,64.941 359.283,64.941 "/>
<path fill="#FFFFFF" d="M375.505,50.454h1.787v14.484h-1.787V50.454z M377.292,46.589h-1.787v-2.386h1.787V46.589z"/>
<path fill="#FFFFFF" d="M389.423,63.75c3.18,0,4.285-3.414,4.285-6.056c0-2.638-1.105-6.048-4.285-6.048
	c-3.413,0-4.292,3.237-4.292,6.048C385.131,60.508,386.01,63.75,389.423,63.75 M395.5,64.941h-1.792v-2.302h-0.055
	c-0.964,1.847-2.443,2.643-4.517,2.643c-3.978,0-5.966-3.295-5.966-7.588c0-4.397,1.704-7.583,5.966-7.583
	c2.841,0,4.261,2.074,4.517,2.786h0.055v-9.262h1.792V64.941z"/>
<path fill="#FFFFFF" d="M407.317,63.406c3.234,0,4.398-3.07,4.398-5.708c0-3.498-1.021-6.052-4.282-6.052
	c-3.413,0-4.293,3.237-4.293,6.052C403.14,60.537,404.271,63.406,407.317,63.406 M413.505,63.746c0,4.034-1.815,7.328-6.783,7.328
	c-1.906,0-3.635-0.536-4.378-0.768l0.144-1.791c1.107,0.571,2.699,1.026,4.258,1.026c4.604,0,4.997-3.35,4.997-7.443h-0.053
	c-0.967,2.103-2.559,2.839-4.404,2.839c-4.625,0-6.104-4.034-6.104-7.24c0-4.405,1.703-7.587,5.964-7.587
	c1.931,0,3.182,0.255,4.518,1.986h0.053v-1.644h1.79V63.746z"/>
<path fill="#FFFFFF" d="M428.876,56.671c0-2.522-1.023-5.025-3.694-5.025c-2.638,0-4.258,2.642-4.258,5.025H428.876z
	 M429.754,64.486c-1.252,0.512-2.865,0.796-4.201,0.796c-4.801,0-6.592-3.242-6.592-7.588c0-4.429,2.443-7.579,6.105-7.579
	c4.094,0,5.767,3.294,5.767,7.184v0.907h-9.909c0,3.07,1.643,5.541,4.77,5.541c1.305,0,3.211-0.54,4.061-1.08V64.486z"/>
<path fill="#FFFFFF" d="M436.46,53.861c0-1.104,0-2.243-0.113-3.407h1.729v2.586h0.062c0.593-1.311,1.673-2.929,4.684-2.929
	c3.577,0,4.94,2.389,4.94,5.568v9.259h-1.791v-8.803c0-2.726-0.962-4.489-3.436-4.489c-3.268,0-4.291,2.866-4.291,5.288v8.004
	h-1.785V53.861z"/>
<path fill="#FFFFFF" d="M460.122,63.75c3.124,0,4.8-2.702,4.8-6.056c0-3.346-1.676-6.048-4.8-6.048
	c-3.127,0-4.803,2.702-4.803,6.048C455.319,61.048,456.995,63.75,460.122,63.75 M460.122,50.111c4.685,0,6.759,3.637,6.759,7.583
	c0,3.954-2.074,7.588-6.759,7.588c-4.688,0-6.763-3.634-6.763-7.588C453.359,53.748,455.434,50.111,460.122,50.111"/>
<path fill="#FFFFFF" d="M471.366,62.839c1.082,0.539,2.387,0.911,3.781,0.911c1.701,0,3.206-0.943,3.206-2.59
	c0-3.435-6.957-2.895-6.957-7.1c0-2.87,2.328-3.949,4.713-3.949c0.768,0,2.303,0.171,3.579,0.655l-0.168,1.559
	c-0.937-0.428-2.216-0.68-3.206-0.68c-1.85,0-3.126,0.568-3.126,2.415c0,2.701,7.128,2.358,7.128,7.1
	c0,3.07-2.871,4.122-5.053,4.122c-1.396,0-2.787-0.172-4.066-0.684L471.366,62.839z"/>
<path fill="#FFFFFF" d="M484.631,62.839c1.08,0.539,2.388,0.911,3.779,0.911c1.704,0,3.208-0.943,3.208-2.59
	c0-3.435-6.959-2.895-6.959-7.1c0-2.87,2.328-3.949,4.715-3.949c0.769,0,2.307,0.171,3.58,0.655l-0.172,1.559
	c-0.937-0.428-2.213-0.68-3.205-0.68c-1.851,0-3.127,0.568-3.127,2.415c0,2.701,7.131,2.358,7.131,7.1
	c0,3.07-2.874,4.122-5.056,4.122c-1.395,0-2.786-0.172-4.061-0.684L484.631,62.839z"/>
<path fill="#FFFFFF" d="M507.837,56.671c0-2.522-1.023-5.025-3.689-5.025c-2.646,0-4.263,2.642-4.263,5.025H507.837z M508.72,64.486
	c-1.251,0.512-2.874,0.796-4.204,0.796c-4.805,0-6.591-3.242-6.591-7.588c0-4.429,2.443-7.579,6.107-7.579
	c4.089,0,5.765,3.294,5.765,7.184v0.907h-9.912c0,3.07,1.647,5.541,4.771,5.541c1.308,0,3.209-0.54,4.063-1.08V64.486z"/>
<path fill="#FFFFFF" d="M515.42,53.861c0-1.104,0-2.243-0.106-3.407h1.727v2.586h0.059c0.596-1.311,1.676-2.929,4.688-2.929
	c3.579,0,4.943,2.389,4.943,5.568v9.259h-1.791v-8.803c0-2.726-0.962-4.489-3.434-4.489c-3.271,0-4.294,2.866-4.294,5.288v8.004
	h-1.791V53.861z"/>
<path fill="#FFFFFF" d="M532.322,62.839c1.083,0.539,2.388,0.911,3.782,0.911c1.704,0,3.205-0.943,3.205-2.59
	c0-3.435-6.956-2.895-6.956-7.1c0-2.87,2.328-3.949,4.716-3.949c0.768,0,2.297,0.171,3.576,0.655l-0.169,1.559
	c-0.934-0.428-2.213-0.68-3.208-0.68c-1.848,0-3.127,0.568-3.127,2.415c0,2.701,7.131,2.358,7.131,7.1
	c0,3.07-2.868,4.122-5.056,4.122c-1.392,0-2.783-0.172-4.062-0.684L532.322,62.839z"/>
<path fill="#FFFFFF" d="M556.126,52.385c-0.961-0.427-2.134-0.739-3.093-0.739c-3.501,0-5.458,2.53-5.458,6.052
	c0,3.294,1.988,6.048,5.259,6.048c1.136,0,2.185-0.256,3.265-0.651l0.168,1.675c-1.223,0.428-2.351,0.512-3.717,0.512
	c-4.662,0-6.932-3.554-6.932-7.583c0-4.462,2.865-7.583,7.156-7.583c1.732,0,2.98,0.392,3.492,0.567L556.126,52.385z"/>
<path fill="#FFFFFF" d="M561.52,43.635h1.791v9.259h0.056c0.771-1.587,2.391-2.779,4.521-2.779c3.889,0,4.94,2.583,4.94,6.161v8.666
	h-1.791v-8.635c0-2.501-0.48-4.66-3.436-4.66c-3.184,0-4.291,3.01-4.291,5.541v7.755h-1.791V43.635z"/>
<path fill="#FFFFFF" d="M587.686,57.642h-0.518c-3.087,0-6.784,0.308-6.784,3.49c0,1.907,1.363,2.614,3.011,2.614
	c4.204,0,4.291-3.665,4.291-5.225V57.642z M587.855,62.611h-0.057c-0.798,1.731-2.809,2.671-4.6,2.671
	c-4.122,0-4.774-2.787-4.774-4.09c0-4.861,5.171-5.085,8.919-5.085h0.343v-0.739c0-2.474-0.883-3.721-3.295-3.721
	c-1.505,0-2.928,0.34-4.263,1.195v-1.735c1.11-0.536,2.983-0.991,4.263-0.991c3.579,0,5.083,1.615,5.083,5.396v6.388
	c0,1.164,0,2.046,0.144,3.042h-1.763V62.611z"/>
<path fill="#FFFFFF" d="M597.173,51.989h-2.928v-1.535h2.928v-1.051c0-3.038,0.109-6.111,3.835-6.111
	c0.565,0,1.333,0.087,1.679,0.287l-0.118,1.563c-0.365-0.2-0.905-0.312-1.423-0.312c-2.44,0-2.182,2.639-2.182,4.374v1.25h3.262
	v1.535h-3.262v12.949h-1.791V51.989z"/>
<path fill="#FFFFFF" d="M613.875,51.989h-3.296v9.371c0,1.307,0.483,2.386,1.932,2.386c0.681,0,1.134-0.143,1.646-0.34l0.118,1.479
	c-0.428,0.168-1.308,0.396-2.19,0.396c-3.178,0-3.293-2.187-3.293-4.83v-8.463h-2.843v-1.535h2.843V46.96l1.788-0.624v4.117h3.296
	V51.989z"/>
<path fill="#FFFFFF" d="M150.312,86.528c-1.249-0.656-3.04-0.855-4.433-0.855c-5.137,0-8.033,3.638-8.033,8.551
	c0,4.997,2.81,8.551,8.033,8.551c1.31,0,3.3-0.172,4.433-0.855l0.114,1.706c-1.08,0.652-3.294,0.855-4.546,0.855
	c-6.247,0-9.996-4.121-9.996-10.257c0-6.02,3.86-10.254,9.996-10.254c1.167,0,3.524,0.2,4.546,0.736L150.312,86.528z"/>
<path fill="#FFFFFF" d="M163.323,102.945c3.121,0,4.801-2.702,4.801-6.052c0-3.35-1.68-6.052-4.801-6.052
	c-3.123,0-4.803,2.702-4.803,6.052C158.52,100.243,160.2,102.945,163.323,102.945 M163.323,89.31c4.685,0,6.76,3.634,6.76,7.583
	c0,3.949-2.075,7.583-6.76,7.583c-4.688,0-6.762-3.634-6.762-7.583C156.561,92.944,158.635,89.31,163.323,89.31"/>
<path fill="#FFFFFF" d="M175.679,93.056c0-1.104,0-2.242-0.112-3.403h1.729v2.583h0.058c0.596-1.31,1.676-2.929,4.687-2.929
	c3.583,0,4.942,2.39,4.942,5.572v9.258h-1.788v-8.803c0-2.729-0.964-4.489-3.438-4.489c-3.266,0-4.291,2.867-4.291,5.285v8.007
	h-1.787V93.056z"/>
<path fill="#FFFFFF" d="M194.909,91.185h-2.924v-1.532h2.924v-1.051c0-3.042,0.111-6.111,3.834-6.111
	c0.569,0,1.333,0.083,1.679,0.287l-0.114,1.56c-0.373-0.196-0.914-0.312-1.423-0.312c-2.443,0-2.189,2.643-2.189,4.374v1.254h3.27
	v1.532h-3.27v12.952h-1.787V91.185z"/>
<path fill="#FFFFFF" d="M211.21,84.057h2.247l-3.581,4.086h-1.306L211.21,84.057z M214.196,95.87c0-2.526-1.023-5.029-3.693-5.029
	c-2.64,0-4.263,2.643-4.263,5.029H214.196z M215.077,103.681c-1.25,0.516-2.868,0.796-4.204,0.796c-4.801,0-6.592-3.238-6.592-7.583
	c0-4.434,2.445-7.583,6.108-7.583c4.091,0,5.766,3.294,5.766,7.184v0.908h-9.915c0,3.073,1.646,5.54,4.773,5.54
	c1.306,0,3.208-0.537,4.063-1.079V103.681z"/>
<path fill="#FFFFFF" d="M227.175,102.945c3.182,0,4.288-3.414,4.288-6.052c0-2.639-1.106-6.052-4.288-6.052
	c-3.408,0-4.291,3.242-4.291,6.052C222.885,99.704,223.768,102.945,227.175,102.945 M233.254,104.137h-1.791v-2.298h-0.056
	c-0.964,1.843-2.443,2.639-4.514,2.639c-3.98,0-5.967-3.294-5.967-7.583c0-4.402,1.703-7.583,5.967-7.583
	c2.838,0,4.258,2.075,4.514,2.783h0.056v-9.259h1.791V104.137z"/>
<path fill="#FFFFFF" d="M245.638,84.057h2.245l-3.581,4.086h-1.303L245.638,84.057z M248.623,95.87c0-2.526-1.023-5.029-3.693-5.029
	c-2.64,0-4.263,2.643-4.263,5.029H248.623z M249.501,103.681c-1.249,0.516-2.867,0.796-4.202,0.796
	c-4.801,0-6.592-3.238-6.592-7.583c0-4.434,2.445-7.583,6.109-7.583c4.089,0,5.765,3.294,5.765,7.184v0.908h-9.914
	c0,3.073,1.646,5.54,4.773,5.54c1.306,0,3.208-0.537,4.062-1.079V103.681z"/>
<path fill="#FFFFFF" d="M256.205,92.888c0-1.591,0-2.187-0.111-3.238h1.788v2.783h0.058c0.651-1.619,1.873-3.123,3.72-3.123
	c0.427,0,0.937,0.084,1.252,0.168v1.878c-0.37-0.115-0.853-0.175-1.309-0.175c-2.838,0-3.607,3.185-3.607,5.796v7.159h-1.791V92.888
	z"/>
<path fill="#FFFFFF" d="M276.033,96.837h-0.512c-3.097,0-6.789,0.309-6.789,3.494c0,1.899,1.362,2.611,3.01,2.611
	c4.202,0,4.291-3.662,4.291-5.225V96.837z M276.203,101.81h-0.058c-0.797,1.728-2.814,2.667-4.604,2.667
	c-4.117,0-4.768-2.783-4.768-4.09c0-4.856,5.169-5.084,8.916-5.084h0.343v-0.739c0-2.471-0.882-3.722-3.297-3.722
	c-1.504,0-2.924,0.344-4.26,1.195v-1.73c1.105-0.54,2.982-0.996,4.26-0.996c3.578,0,5.083,1.619,5.083,5.397v6.392
	c0,1.164,0,2.046,0.145,3.038h-1.762V101.81z"/>
<path fill="#FFFFFF" d="M290.544,91.185h-3.294v9.374c0,1.304,0.485,2.386,1.931,2.386c0.682,0,1.137-0.144,1.647-0.343l0.115,1.475
	c-0.427,0.172-1.308,0.403-2.19,0.403c-3.177,0-3.294-2.19-3.294-4.829v-8.466h-2.841v-1.532h2.841v-3.497l1.791-0.624v4.121h3.294
	V91.185z"/>
<path fill="#FFFFFF" d="M295.971,89.653h1.792v14.487h-1.792V89.653z M297.763,85.789h-1.792v-2.387h1.792V85.789z"/>
<path fill="#FFFFFF" d="M310.143,102.945c3.125,0,4.801-2.702,4.801-6.052c0-3.35-1.676-6.052-4.801-6.052
	c-3.121,0-4.796,2.702-4.796,6.052C305.347,100.243,307.022,102.945,310.143,102.945 M310.143,89.31
	c4.688,0,6.762,3.634,6.762,7.583c0,3.949-2.073,7.583-6.762,7.583c-4.687,0-6.757-3.634-6.757-7.583
	C303.386,92.944,305.457,89.31,310.143,89.31"/>
<path fill="#FFFFFF" d="M322.502,93.056c0-1.104,0-2.242-0.116-3.403h1.735v2.583h0.057c0.595-1.31,1.674-2.929,4.684-2.929
	c3.578,0,4.945,2.39,4.945,5.572v9.258h-1.791v-8.803c0-2.729-0.964-4.489-3.438-4.489c-3.269,0-4.285,2.867-4.285,5.285v8.007
	h-1.791V93.056z"/>
<path fill="#FFFFFF" d="M349.513,102.034c1.08,0.543,2.388,0.911,3.777,0.911c1.703,0,3.21-0.939,3.21-2.586
	c0-3.434-6.956-2.898-6.956-7.104c0-2.87,2.324-3.946,4.71-3.946c0.768,0,2.303,0.168,3.582,0.652l-0.169,1.562
	c-0.939-0.427-2.219-0.683-3.21-0.683c-1.846,0-3.125,0.571-3.125,2.415c0,2.702,7.128,2.358,7.128,7.104
	c0,3.066-2.871,4.118-5.057,4.118c-1.393,0-2.782-0.172-4.062-0.68L349.513,102.034z"/>
<path fill="#FFFFFF" d="M375.194,100.727c0,1.111,0,2.243,0.107,3.41h-1.728v-2.586h-0.057c-0.596,1.31-1.678,2.926-4.688,2.926
	c-3.58,0-4.94-2.387-4.94-5.569V89.65h1.787v8.807c0,2.727,0.971,4.485,3.438,4.485c3.266,0,4.289-2.867,4.289-5.281V89.65h1.792
	V100.727z"/>
<path fill="#FFFFFF" d="M381.894,89.653h1.787v14.487h-1.787V89.653z M383.683,85.789H381.9v-2.387h1.783V85.789z"/>
<path fill="#FFFFFF" d="M389.308,102.034c1.08,0.543,2.387,0.911,3.778,0.911c1.702,0,3.207-0.939,3.207-2.586
	c0-3.434-6.957-2.898-6.957-7.104c0-2.87,2.334-3.946,4.713-3.946c0.771,0,2.303,0.168,3.582,0.652l-0.171,1.562
	c-0.937-0.427-2.219-0.683-3.207-0.683c-1.851,0-3.126,0.571-3.126,2.415c0,2.702,7.131,2.358,7.131,7.104
	c0,3.066-2.873,4.118-5.06,4.118c-1.392,0-2.782-0.172-4.059-0.68L389.308,102.034z"/>
<path fill="#FFFFFF" d="M402.572,102.034c1.08,0.543,2.387,0.911,3.777,0.911c1.707,0,3.21-0.939,3.21-2.586
	c0-3.434-6.955-2.898-6.955-7.104c0-2.87,2.327-3.946,4.71-3.946c0.768,0,2.299,0.168,3.581,0.652l-0.169,1.562
	c-0.939-0.427-2.217-0.683-3.213-0.683c-1.843,0-3.122,0.571-3.122,2.415c0,2.702,7.128,2.358,7.128,7.104
	c0,3.066-2.871,4.118-5.058,4.118c-1.39,0-2.782-0.172-4.062-0.68L402.572,102.034z"/>
<path fill="#FFFFFF" d="M425.781,95.87c0-2.526-1.023-5.029-3.691-5.029c-2.645,0-4.264,2.643-4.264,5.029H425.781z
	 M426.658,103.681c-1.248,0.516-2.867,0.796-4.203,0.796c-4.801,0-6.59-3.238-6.59-7.583c0-4.434,2.444-7.583,6.106-7.583
	c4.091,0,5.77,3.294,5.77,7.184v0.908h-9.915c0,3.073,1.645,5.54,4.77,5.54c1.308,0,3.214-0.537,4.062-1.079V103.681z"/>
<path fill="#FFFFFF" d="M150.312,125.727c-1.249-0.651-3.04-0.855-4.433-0.855c-5.137,0-8.033,3.641-8.033,8.551
	c0,5,2.81,8.555,8.033,8.555c1.31,0,3.3-0.173,4.433-0.855l0.114,1.703c-1.08,0.655-3.294,0.855-4.546,0.855
	c-6.247,0-9.996-4.118-9.996-10.258c0-6.02,3.86-10.25,9.996-10.25c1.167,0,3.524,0.196,4.546,0.736L150.312,125.727z"/>
<path fill="#FFFFFF" d="M163.323,142.145c3.121,0,4.801-2.703,4.801-6.053c0-3.346-1.68-6.051-4.801-6.051
	c-3.123,0-4.803,2.705-4.803,6.051C158.52,139.442,160.2,142.145,163.323,142.145 M163.323,128.508c4.685,0,6.76,3.639,6.76,7.584
	c0,3.95-2.075,7.588-6.76,7.588c-4.688,0-6.762-3.638-6.762-7.588C156.561,132.147,158.635,128.508,163.323,128.508"/>
<path fill="#FFFFFF" d="M175.679,132.26c0-1.105,0-2.244-0.112-3.407h1.729v2.583h0.058c0.596-1.308,1.676-2.928,4.687-2.928
	c3.583,0,4.942,2.391,4.942,5.569v9.259h-1.788v-8.804c0-2.726-0.964-4.489-3.438-4.489c-3.266,0-4.291,2.867-4.291,5.285v8.008
	h-1.787V132.26z"/>
<path fill="#FFFFFF" d="M194.909,130.384h-2.924v-1.531h2.924v-1.052c0-3.038,0.111-6.111,3.834-6.111
	c0.569,0,1.333,0.088,1.679,0.287l-0.114,1.562c-0.373-0.199-0.914-0.314-1.423-0.314c-2.443,0-2.189,2.643-2.189,4.377v1.251h3.27
	v1.531h-3.27v12.952h-1.787V130.384z"/>
<path fill="#FFFFFF" d="M214.196,135.07c0-2.528-1.023-5.026-3.693-5.026c-2.64,0-4.263,2.639-4.263,5.026H214.196z
	 M215.077,142.883c-1.25,0.512-2.868,0.797-4.204,0.797c-4.801,0-6.592-3.242-6.592-7.588c0-4.429,2.445-7.584,6.108-7.584
	c4.091,0,5.766,3.296,5.766,7.185v0.911h-9.915c0,3.07,1.646,5.541,4.773,5.541c1.306,0,3.208-0.541,4.063-1.083V142.883z"/>
<path fill="#FFFFFF" d="M227.175,142.145c3.182,0,4.288-3.41,4.288-6.053s-1.106-6.051-4.288-6.051c-3.408,0-4.291,3.24-4.291,6.051
	C222.885,138.907,223.768,142.145,227.175,142.145 M233.254,143.336h-1.791v-2.299h-0.056c-0.964,1.844-2.443,2.643-4.514,2.643
	c-3.98,0-5.967-3.295-5.967-7.588c0-4.398,1.703-7.584,5.967-7.584c2.838,0,4.258,2.076,4.514,2.787h0.056v-9.262h1.791V143.336z"/>
<path fill="#FFFFFF" d="M248.623,135.07c0-2.528-1.023-5.026-3.693-5.026c-2.64,0-4.263,2.639-4.263,5.026H248.623z
	 M249.501,142.883c-1.249,0.512-2.867,0.797-4.202,0.797c-4.801,0-6.592-3.242-6.592-7.588c0-4.429,2.445-7.584,6.109-7.584
	c4.089,0,5.765,3.296,5.765,7.185v0.911h-9.914c0,3.07,1.646,5.541,4.773,5.541c1.306,0,3.208-0.541,4.062-1.083V142.883z"/>
<path fill="#FFFFFF" d="M256.205,132.086c0-1.587,0-2.182-0.111-3.233h1.788v2.778h0.058c0.651-1.618,1.873-3.123,3.72-3.123
	c0.427,0,0.937,0.085,1.252,0.174v1.873c-0.37-0.115-0.853-0.171-1.309-0.171c-2.838,0-3.607,3.181-3.607,5.796v7.159h-1.791
	V132.086z"/>
<path fill="#FFFFFF" d="M276.033,136.04h-0.512c-3.097,0-6.789,0.309-6.789,3.491c0,1.906,1.362,2.614,3.01,2.614
	c4.202,0,4.291-3.666,4.291-5.225V136.04z M276.203,141.01h-0.058c-0.797,1.73-2.814,2.67-4.604,2.67
	c-4.117,0-4.768-2.787-4.768-4.09c0-4.86,5.169-5.086,8.916-5.086h0.343v-0.739c0-2.473-0.882-3.722-3.297-3.722
	c-1.504,0-2.924,0.341-4.26,1.195v-1.734c1.105-0.54,2.982-0.996,4.26-0.996c3.578,0,5.083,1.62,5.083,5.402v6.388
	c0,1.163,0,2.046,0.145,3.041h-1.762V141.01z"/>
<polygon fill="#FFFFFF" points="282.961,141.833 291.682,130.384 283.303,130.384 283.303,128.853 293.756,128.853 293.756,130.384 
	285.037,141.804 293.756,141.804 293.756,143.336 282.961,143.336 "/>
<path fill="#FFFFFF" d="M299.125,128.853h1.787v14.486h-1.787V128.853z M300.912,124.987h-1.787v-2.386h1.787V124.987z"/>
<path fill="#FFFFFF" d="M313.296,142.145c3.122,0,4.801-2.703,4.801-6.053c0-3.346-1.679-6.051-4.801-6.051
	c-3.123,0-4.801,2.705-4.801,6.051C308.496,139.442,310.173,142.145,313.296,142.145 M313.296,128.508
	c4.688,0,6.76,3.639,6.76,7.584c0,3.95-2.071,7.588-6.76,7.588c-4.686,0-6.76-3.638-6.76-7.588
	C306.537,132.147,308.611,128.508,313.296,128.508"/>
<path fill="#FFFFFF" d="M325.653,132.26c0-1.105,0-2.244-0.108-3.407h1.728v2.583h0.06c0.596-1.308,1.674-2.928,4.685-2.928
	c3.579,0,4.941,2.391,4.941,5.569v9.259h-1.791v-8.804c0-2.726-0.963-4.489-3.434-4.489c-3.266,0-4.293,2.867-4.293,5.285v8.008
	h-1.787V132.26z"/>
<path fill="#FFFFFF" d="M352.496,135.07c0-2.528-1.02-5.026-3.69-5.026c-2.645,0-4.265,2.639-4.265,5.026H352.496z M353.375,142.883
	c-1.247,0.512-2.871,0.797-4.202,0.797c-4.801,0-6.591-3.242-6.591-7.588c0-4.429,2.442-7.584,6.107-7.584
	c4.089,0,5.768,3.296,5.768,7.185v0.911h-9.917c0,3.07,1.646,5.541,4.773,5.541c1.308,0,3.214-0.541,4.062-1.083V142.883z"/>
<path fill="#FFFFFF" d="M369.852,140.809c1.163,0.739,2.526,1.168,4.374,1.168c2.442,0,4.461-1.256,4.461-4.062
	c0-3.895-9.091-4.378-9.091-9.574c0-3.186,2.782-5.169,6.276-5.169c0.965,0,2.526,0.141,3.893,0.647l-0.311,1.792
	c-0.884-0.484-2.274-0.74-3.61-0.74c-2.046,0-4.289,0.855-4.289,3.409c0,3.979,9.09,4.007,9.09,9.802
	c0,4.006-3.435,5.598-6.508,5.598c-1.93,0-3.433-0.396-4.484-0.855L369.852,140.809z"/>
<polygon fill="#FFFFFF" points="391.638,143.336 389.54,143.336 384.623,128.853 386.583,128.853 390.588,141.377 390.644,141.377 
	394.849,128.853 396.723,128.853 "/>
<path fill="#FFFFFF" d="M401.437,128.853h1.787v14.486h-1.787V128.853z M403.224,124.987h-1.787v-2.386h1.787V124.987z"/>
<polygon fill="#FFFFFF" points="408.625,141.833 417.342,130.384 408.964,130.384 408.964,128.853 419.417,128.853 419.417,130.384 
	410.695,141.804 419.417,141.804 419.417,143.336 408.625,143.336 "/>
<polygon fill="#FFFFFF" points="423.447,141.833 432.169,130.384 423.791,130.384 423.791,128.853 434.245,128.853 434.245,130.384 
	425.522,141.804 434.245,141.804 434.245,143.336 423.447,143.336 "/>
<path fill="#FFFFFF" d="M448.447,135.07c0-2.528-1.026-5.026-3.697-5.026c-2.638,0-4.258,2.639-4.258,5.026H448.447z
	 M449.327,142.883c-1.248,0.512-2.871,0.797-4.206,0.797c-4.8,0-6.588-3.242-6.588-7.588c0-4.429,2.443-7.584,6.109-7.584
	c4.089,0,5.765,3.296,5.765,7.185v0.911h-9.915c0,3.07,1.648,5.541,4.775,5.541c1.304,0,3.205-0.541,4.06-1.083V142.883z"/>
<path fill="#FFFFFF" d="M456.03,132.086c0-1.587,0-2.182-0.112-3.233h1.788v2.778h0.057c0.652-1.618,1.875-3.123,3.72-3.123
	c0.428,0,0.937,0.085,1.252,0.174v1.873c-0.369-0.115-0.853-0.171-1.308-0.171c-2.838,0-3.605,3.181-3.605,5.796v7.159h-1.791
	V132.086z"/>
<path fill="#FFFFFF" d="M475.859,136.04h-0.518c-3.093,0-6.787,0.309-6.787,3.491c0,1.906,1.363,2.614,3.011,2.614
	c4.207,0,4.294-3.666,4.294-5.225V136.04z M476.025,141.01h-0.06c-0.79,1.73-2.806,2.67-4.597,2.67c-4.119,0-4.771-2.787-4.771-4.09
	c0-4.86,5.168-5.086,8.919-5.086h0.343v-0.739c0-2.473-0.883-3.722-3.296-3.722c-1.51,0-2.93,0.341-4.265,1.195v-1.734
	c1.107-0.54,2.982-0.996,4.265-0.996c3.574,0,5.081,1.62,5.081,5.402v6.388c0,1.163,0,2.046,0.141,3.041h-1.76V141.01z"/>
<path fill="#FFFFFF" d="M150.312,164.922c-1.249-0.652-3.04-0.852-4.433-0.852c-5.137,0-8.033,3.639-8.033,8.551
	c0,4.998,2.81,8.551,8.033,8.551c1.31,0,3.3-0.172,4.433-0.853l0.114,1.704c-1.08,0.65-3.294,0.851-4.546,0.851
	c-6.247,0-9.996-4.116-9.996-10.253c0-6.021,3.86-10.254,9.996-10.254c1.167,0,3.524,0.2,4.546,0.736L150.312,164.922z"/>
<path fill="#FFFFFF" d="M163.323,181.343c3.121,0,4.801-2.702,4.801-6.056c0-3.346-1.68-6.047-4.801-6.047
	c-3.123,0-4.803,2.701-4.803,6.047C158.52,178.641,160.2,181.343,163.323,181.343 M163.323,167.709c4.685,0,6.76,3.633,6.76,7.578
	c0,3.954-2.075,7.587-6.76,7.587c-4.688,0-6.762-3.633-6.762-7.587C156.561,171.342,158.635,167.709,163.323,167.709"/>
<path fill="#FFFFFF" d="M175.679,171.455c0-1.104,0-2.247-0.112-3.407h1.729v2.583h0.058c0.596-1.306,1.676-2.925,4.687-2.925
	c3.583,0,4.942,2.389,4.942,5.568v9.258h-1.788v-8.803c0-2.73-0.964-4.488-3.438-4.488c-3.266,0-4.291,2.869-4.291,5.284v8.007
	h-1.787V171.455z"/>
<path fill="#FFFFFF" d="M194.909,169.581h-2.924v-1.533h2.924v-1.05c0-3.038,0.111-6.108,3.834-6.108
	c0.569,0,1.333,0.087,1.679,0.284l-0.114,1.563c-0.373-0.197-0.914-0.312-1.423-0.312c-2.443,0-2.189,2.639-2.189,4.377v1.246h3.27
	v1.533h-3.27v12.951h-1.787V169.581z"/>
<path fill="#FFFFFF" d="M214.196,174.269c0-2.53-1.023-5.026-3.693-5.026c-2.64,0-4.263,2.637-4.263,5.026H214.196z
	 M215.077,182.081c-1.25,0.512-2.868,0.799-4.204,0.799c-4.801,0-6.592-3.242-6.592-7.588c0-4.434,2.445-7.586,6.108-7.586
	c4.091,0,5.766,3.293,5.766,7.184v0.911h-9.915c0,3.069,1.646,5.54,4.773,5.54c1.306,0,3.208-0.539,4.063-1.08V182.081z"/>
<path fill="#FFFFFF" d="M227.175,181.34c3.182,0,4.288-3.41,4.288-6.049c0-2.643-1.106-6.051-4.288-6.051
	c-3.408,0-4.291,3.241-4.291,6.051C222.885,178.103,223.768,181.34,227.175,181.34 M233.254,182.532h-1.791v-2.299h-0.056
	c-0.964,1.848-2.443,2.646-4.514,2.646c-3.98,0-5.967-3.302-5.967-7.588c0-4.405,1.703-7.586,5.967-7.586
	c2.838,0,4.258,2.074,4.514,2.785h0.056v-9.259h1.791V182.532z"/>
<path fill="#FFFFFF" d="M248.623,174.269c0-2.53-1.023-5.026-3.693-5.026c-2.64,0-4.263,2.637-4.263,5.026H248.623z
	 M249.501,182.081c-1.249,0.512-2.867,0.799-4.202,0.799c-4.801,0-6.592-3.242-6.592-7.588c0-4.434,2.445-7.586,6.109-7.586
	c4.089,0,5.765,3.293,5.765,7.184v0.911h-9.914c0,3.069,1.646,5.54,4.773,5.54c1.306,0,3.208-0.539,4.062-1.08V182.081z"/>
<path fill="#FFFFFF" d="M256.205,171.288c0-1.592,0-2.188-0.111-3.24h1.788v2.783h0.058c0.651-1.619,1.873-3.121,3.72-3.121
	c0.427,0,0.937,0.082,1.252,0.167v1.871c-0.37-0.108-0.853-0.167-1.309-0.167c-2.838,0-3.607,3.182-3.607,5.795v7.156h-1.791
	V171.288z"/>
<path fill="#FFFFFF" d="M276.033,175.237h-0.512c-3.097,0-6.789,0.307-6.789,3.488c0,1.907,1.362,2.615,3.01,2.615
	c4.202,0,4.291-3.665,4.291-5.226V175.237z M276.203,180.205h-0.058c-0.797,1.731-2.814,2.67-4.604,2.67
	c-4.117,0-4.768-2.782-4.768-4.089c0-4.857,5.169-5.084,8.916-5.084h0.343v-0.74c0-2.475-0.882-3.721-3.297-3.721
	c-1.504,0-2.924,0.34-4.26,1.194V168.7c1.105-0.539,2.982-0.99,4.26-0.99c3.578,0,5.083,1.617,5.083,5.396v6.393
	c0,1.163,0,2.043,0.145,3.034h-1.762V180.205z"/>
<polygon fill="#FFFFFF" points="282.961,181.032 291.682,169.581 283.303,169.581 283.303,168.047 293.756,168.047 293.756,169.581 
	285.037,181.003 293.756,181.003 293.756,182.536 282.961,182.536 "/>
<path fill="#FFFFFF" d="M299.125,168.047h1.787v14.484h-1.787V168.047z M300.912,164.183h-1.787v-2.386h1.787V164.183z"/>
<path fill="#FFFFFF" d="M318.95,179.125c0,1.107,0,2.246,0.11,3.406h-1.727v-2.578h-0.06c-0.597,1.303-1.675,2.921-4.685,2.921
	c-3.578,0-4.945-2.386-4.945-5.567v-9.26h1.79v8.805c0,2.729,0.965,4.488,3.438,4.488c3.267,0,4.285-2.866,4.285-5.277v-8.016h1.792
	V179.125z"/>
<path fill="#FFFFFF" d="M325.653,171.455c0-1.104,0-2.247-0.108-3.407h1.728v2.583h0.06c0.596-1.306,1.674-2.925,4.685-2.925
	c3.579,0,4.941,2.389,4.941,5.568v9.258h-1.791v-8.803c0-2.73-0.963-4.488-3.434-4.488c-3.266,0-4.293,2.869-4.293,5.284v8.007
	h-1.787V171.455z"/>
<path fill="#FFFFFF" d="M352.667,180.432c1.08,0.536,2.388,0.911,3.778,0.911c1.703,0,3.211-0.938,3.211-2.585
	c0-3.436-6.961-2.899-6.961-7.104c0-2.869,2.331-3.944,4.714-3.944c0.768,0,2.303,0.167,3.581,0.65l-0.172,1.563
	c-0.935-0.427-2.218-0.683-3.207-0.683c-1.85,0-3.125,0.57-3.125,2.413c0,2.702,7.131,2.359,7.131,7.104
	c0,3.066-2.869,4.116-5.06,4.116c-1.392,0-2.782-0.171-4.058-0.679L352.667,180.432z"/>
<polygon fill="#FFFFFF" points="372.067,182.532 369.965,182.532 365.051,168.047 367.011,168.047 371.015,180.573 371.072,180.573 
	375.278,168.047 377.152,168.047 "/>
<path fill="#FFFFFF" d="M381.866,168.047h1.79v14.484h-1.79V168.047z M383.656,164.183h-1.79v-2.386h1.79V164.183z"/>
<polygon fill="#FFFFFF" points="389.052,181.032 397.771,169.581 389.393,169.581 389.393,168.047 399.845,168.047 399.845,169.581 
	391.127,181.003 399.845,181.003 399.845,182.536 389.052,182.536 "/>
<path fill="#FFFFFF" d="M405.214,171.288c0-1.592,0-2.188-0.116-3.24h1.791v2.783h0.057c0.655-1.619,1.874-3.121,3.721-3.121
	c0.425,0,0.939,0.082,1.252,0.167v1.871c-0.371-0.108-0.853-0.167-1.308-0.167c-2.842,0-3.609,3.182-3.609,5.795v7.156h-1.787
	V171.288z"/>
<path fill="#FFFFFF" d="M425.042,175.237h-0.512c-3.098,0-6.791,0.307-6.791,3.488c0,1.907,1.363,2.615,3.014,2.615
	c4.202,0,4.289-3.665,4.289-5.226V175.237z M425.21,180.205h-0.057c-0.796,1.731-2.809,2.67-4.601,2.67
	c-4.118,0-4.773-2.782-4.773-4.089c0-4.857,5.173-5.084,8.919-5.084h0.343v-0.74c0-2.475-0.883-3.721-3.298-3.721
	c-1.503,0-2.923,0.34-4.257,1.194V168.7c1.106-0.539,2.981-0.99,4.257-0.99c3.579,0,5.086,1.617,5.086,5.396v6.393
	c0,1.163,0,2.043,0.144,3.034h-1.763V180.205z"/>
<path fill="#EC1C24" d="M103.383,44.777c0,0-15.11-6.563-40.405-6.563h-0.007c-25.296,0-40.407,6.563-40.407,6.563
	s-1.353,29.058,4.382,45.486c10.129,28.889,36.021,37.009,36.021,37.009h0.007h0.011c0,0,25.882-8.12,36.017-37.009
	C104.736,73.835,103.383,44.777,103.383,44.777"/>
<polygon fill="#FFFFFF" points="89.829,69.826 89.829,85.837 70.993,85.837 70.993,104.516 54.852,104.516 54.852,85.837 
	36.02,85.837 36.02,69.826 54.852,69.826 54.852,51.151 70.989,51.151 70.993,69.826 "/>
</svg>
