<svg data-name="Layer 1" xmlns="http://www.w3.org/2000/svg" viewBox="0 0 80 80">
  <title>
    training
  </title>
  <path fill="#fff" d="M2.06 23.48A10.54 10.54 0 1 1 12.61 34 10.54 10.54 0 0 1 2.06 23.48zm46.67 9.86a3.59 3.59 0 0 0-4.92 1.19l-7 11.54-9.92-5.54c-4.46-2.74-6.64-4-13.25-4h-2C-1.25 38 1 48.27 1 48.27L2.54 80l22.6-.25-.9-31.48L36.3 54a3.5 3.5 0 0 0 1.74.45 3.58 3.58 0 0 0 3.06-1.71l8.82-14.47a3.58 3.58 0 0 0-1.2-4.93zm-28.56-1.09a11.83 11.83 0 0 1-2.57 1.7v1.66a17.48 17.48 0 0 1 2.57.47zM79.17 0H17.6v13a11.64 11.64 0 0 1 2.57 1.69V2.57h56.44v38.6H49.43l-1.56 2.57h31.3zM36.91 43.74l1.57-2.57h-8.21l4.59 2.57zm21.75-26L57.42 17l-8.61 15 1.25.71z"/>
</svg>
