<svg xmlns="http://www.w3.org/2000/svg" width="308.383" height="119.728" viewBox="0 0 308.383 119.728">
  <g fill="#FFF">
    <path d="M56.546 41.445c.35-.764.677-1.372 1.147-2.097.21-.32.446-.542.653-.864-.102-.03-.247.055-.308.1-.21.15-.304.398-.472.528-.397.313-.385.596-.593.74-.184.132-.237.218-.368.42-.085.137-.152.247-.242.515-.033.097-.096.01-.252.223-.2.277-.292.575-.377.91-.027.11-.21.168-.333.396-.162.31-.268.593-.336 1.043-.017.103-.19.176-.312.465-.09.204-.15.25-.227.634-.043.233-.15.265-.273.606-.092.26-.096.51-.127.847-.007.066-.12.197-.22.387-.17.318-.167.53-.237.857-.025.117-.16.275-.285.784-.112.45-.012.75-.05.97-.1.578-.196 1.08-.143 1.648.027.276.067.564.052.83-.054.838-.1 1.528-.096 2.478.003.516.044 1.223.124 1.813.085.648.208 1.155.208 1.155h2.12s-.084-1.225.026-2.514c.067-.772.25-1.592.416-2.167.212-.735.345-1.114.743-2.082.012-.02-.002-.112-.108-.022-.22.184-.403.348-.58.61-.264.403-.427.734-.643 1.147-.252.48-.392.9-.653 1.48-.015-.42.053-.82.137-1.207.087-.396.158-.71.282-1.05.22-.603.434-1.104.79-1.665.206-.325.467-.615.734-.855.316-.29.61-.547.945-.833-.353-.18-.818.198-.91.217-.493.096-.693.55-.846.615-.212.09-.34.222-.487.404-.118.137-.152.348-.27.424-.202.125-.35.314-.49.578-.056.11-.212.623-.382.557.294-1.748.91-3.385 1.9-4.842.627-.924 1.31-1.717 2.314-2.43.13-.093.158-.137-.027-.13-.94.115-.998.544-1.15.584-.148.038-.33.213-.448.326-.206.208-.203.38-.283.435-.172.12-.3.243-.417.452-.06.11-.165.346-.26.4-.238.14-.474.345-.59.564-.084.16-.118.335-.23.493-.122.17-.29.297-.434.42.11-.747.463-1.63.703-2.394.322-1.017.715-1.943 1.163-2.905zM58.707 47.493c.802-1.8 1.646-3.156 2.745-4.74.142-.208.27-.412.395-.605.056-.09.327-.477.382-.56.366-.553.52-.723.9-1.254.1-.144.18-.258.226-.424.08-.31-.188-.518-.248-.815-.062-.305-.03-.637.11-.895.088-.16.175-.224.266-.44.17-.413.11-1.31.305-1.335-.05.426-.06.906.005 1.314.078.476.367.765.488 1.27.32-.057.67-.043.942-.02.27.024.61-.05.885-.146.376-.128.685-.36 1.067-.45-.325.31-.784.427-1.167.664-.14.09-.274.206-.366.353-.153.24-.277.47-.52.576-.425.187-.795.098-1.28.188-.73.75-1.415 1.767-2.042 2.836-1.603 2.706-2.935 5.51-3.71 8.383.27-.5.524-.983.813-1.46.322-.528.682-1.045 1.075-1.563.923-1.215 1.833-2.274 2.854-3.39.825-.9 1.728-1.657 2.733-2.288 1.334-.833 2.973-1.418 4.417-1.118.164.04.397.083.5.19-1.81-.253-3.43.377-4.635 1.348-.957.76-1.76 1.537-2.578 2.543-.422.486-.802 1.02-1.18 1.536-.395.544-.746 1.116-1.095 1.69-1.17 1.932-2.056 3.98-2.708 6.103-.022.068-.024.136-.045.203.035-.05.078-.1.108-.15.877-1.426 1.936-2.804 3.27-3.727.117-.082.24-.235.272-.356.144-.566-.29-.837.31-1.62.137-.18.324-.245.455-.413.245-.378.444-1.054.647-1.235-.104.44-.356.907-.41 1.362-.058.497.07.904.094 1.433.355.048.625.197.904.283.43.135.69.1 1.115.063.182-.015.512-.12.707-.08-.412.224-.968.182-1.392.398-.292.15-.38.374-.785.452-.362.07-.668.033-.902-.087-.184-.093-.327-.132-.49-.054-.44.21-.74.51-1.093.865-.818.825-1.49 1.747-2.112 2.954-.165.32-.315.638-.456.966-.068.16-.244.6-.244.6h-2.14s-.008-.617.013-.84c.043-.45.103-.784.19-1.24.125-.657.246-1.252.415-1.887.167-.62.347-1.203.557-1.796.444-1.24.918-2.43 1.43-3.584zM37.993 64.182c.782-.64 1.36-1.012 2.14-1.478.318-.187.798-.402 1.168-.568 1.354-.61 3.143-1.064 4.83-1.095.03 0 .03.002.03.002H58.776c.397 0 .796.138 1.038.368.245.235.365.594.428.95.055.304.027.576-.045.902-.055.254-.095.407-.237.625-.085.133-.167.226-.328.353-.165.132-.4.18-.67.182l-.086.002c.002-.002-14.705-.002-14.705-.002h-.137c-.962-.002-1.977.043-2.928.17-.73.096-1.46.213-2.163.394-.89.234-1.745.553-2.598.873.473-.63 1.02-1.165 1.65-1.678z"/>
    <path d="M42.36 59.178c.77-.558 1.708-1.017 2.54-1.333.42-.16.98-.337 1.426-.448.537-.134 1.155-.236 1.66-.25.152-.005.02-.002.02-.002H58.79s.233.01.314.026c.2.045.365.128.43.172.168.107.38.332.49.51.28.463.33.96.24 1.478-.104.59-.553 1.267-1.166 1.28-.103.003-.317 0-.317 0H47.104s-.68.015-.99.025c-.575.023-1.212.087-1.714.162-.43.06-.85.143-1.28.26-1.438.39-2.69 1.117-4 1.687.883-1.542 2.074-2.722 3.24-3.566zM36.326 66.51c1.875-1.11 4.133-1.548 6.2-1.616.05 0 .147-.003.147-.003l16.12.002h.177c.975-.002 1.332.966 1.33 1.75-.003.26-.048.52-.118.7-.095.23-.195.418-.364.6-.062.067-.275.22-.373.24-.222.056-.498.05-.497.05s-11.99 0-11.99 0-.648-.026-1.098-.068c-.322-.035-.568-.068-.903-.13-.827-.165-1.512-.435-2.227-.655-.478-.147-.98-.257-1.5-.337-.965-.145-2.015-.214-2.987-.14-1.237.09-2.336.333-3.512.708.202-.312 1.03-.765 1.596-1.1z"/>
    <path d="M45.008 71.563c-.55-.194-1.088-.444-1.57-.765-.627-.415-.937-.745-1.75-1.12-.694-.32-1.248-.637-2.218-.988-.468-.17-1.226-.404-1.875-.515-.926-.158-1.822-.226-1.822-.226s.188-.117.304-.155c.947-.287 1.782-.428 2.756-.5.853-.063 1.637.02 2.49.154.35.055.807.162 1.203.276 1.287.365 2.75.945 4.048.947H58.66c.363 0 1.04.115 1.313.598.318.556.414 1.217.15 1.88-.08.197-.213.483-.406.655-.167.15-.44.25-.6.25-.047.003-.122 0-.122 0h-10.48-.06c-1.07 0-2.42-.13-3.447-.492zM49.783 75.28c-.296-.304-.704-.77-1.075-1.212-.712-.85-1.03-1.61-1.03-1.61h6.992s.017.806-.146 1.74c-.15.864-.47 1.778-.81 2.44-.015.68.274 1.312.322 1.98-.574.355-1.194.705-1.707 1.2-.037.03-.09.03-.11-.052-.274-1.035-.422-1.956-.648-2.978-.636-.493-1.235-.933-1.79-1.508zM56.988 74.707c-.198-.365-.347-.845-.573-1.133-.05.253.01.413-.024.658-.03.203-.198.12-.23.024-.1-.277-.206-.62-.294-.905-.148-.473-.196-.89-.196-.89l1.162-.002s.046.01.064.122c.058.295.043.58.125.918.105.438.235.838.396 1.248.14.358.32.72.467 1.076.02.045.03.138-.005.182-.045.055-.116.048-.16 0-.334-.378-.468-.808-.73-1.297zM58.787 75.54c-.197-.423-.475-.897-.45-1.373.126.167.18.287.358.383.08.023.25 0 .207-.143-.08-.263-.2-.485-.31-.846-.168-.536-.33-1.104-.33-1.104h-1.187s.064.48.335 1.22c.238.655.603 1.403 1.006 2.103.324.578.622 1.082.993 1.504.125.144.438.02.303-.17-.352-.497-.68-1.048-.926-1.574zM66.496 35.417c-.256.113-.487.257-.613.506-.095.178-.157.447.022.6.313.27.688-.005.838-.28.19-.346.14-1.013.14-1.013s-.22.117-.387.187z"/>
    <path d="M66.768 37.08c.113-.213.36-.44.63-.605.305-.188.62-.37.84-.5.22-.132.264-.226.264-.226s-.183.06-.28.12c-.544.324-1.14.693-1.377.8-.304.13-.718.157-1.093.206-.058-.47-.183-.667-.178-1.085.002-.2.05-.458.084-.642.116-.604.14-.91.14-.91s-.094.088-.127.355c-.036.24-.062.33-.118.612-.062.328-.13.606-.325.81-.28.292-.544.812-.327 1.21.13.234.34.202.408.26.065.06.107.204.308.27.434.144.926-.245 1.152-.676z"/>
    <path d="M66.207 38.322c.146-.24.296-.408.53-.55.385-.234.67-.394.906-.512.1-.05.185-.113.21-.22-.102.038-.5.224-.895.458-.282.168-.77.38-1.096.396-.13.005-.225-.026-.33-.03-.22-.01-.5.044-.5.044s-.072-.31-.164-.533c-.05-.113-.125-.23-.164-.445-.028-.144-.035-.357-.025-.488.03-.386.135-.76.117-1.154-.24.505-.143 1.127-.427 1.52-.123.164-.217.293-.31.5-.158.34-.138.692.07 1.02.124.187.393.18.44.216.072.053.132.248.394.306.454.102.985-.107 1.243-.528zM66.332 48.208c.105-.213.172-.49.306-.688-.302.045-.353.08-.788.127-.097.01-.294.11-.36.174-.174.176-.323.338-.258.632.026.114.127.197.184.215.363.12.732-.098.916-.46z"/>
    <path d="M66.703 48.787c.414-.096.89-.3 1.083-.235-.388.206-.88.28-1.31.404-.33.095-.562.342-.857.567-.27.205-.626.288-.947.138-.108-.048-.213-.224-.233-.317-.015-.073-.17-.146-.25-.212-.08-.066-.118-.233-.12-.297-.012-.572.422-.803.844-1.142.315-.25.727-1.327.977-1.55-.042.346-.494 1-.69 1.51-.158.405-.106.728-.205 1.156.298.02.636.082.938.088.237.002.525-.05.77-.107z"/>
    <path d="M66.266 49.67c-.235.043-.518.118-.712.16-.677.14-.997-.19-1.54-.184.05-.617-.166-.896.01-1.295.158-.353.303-.73.438-1.03.11-.242.142-.445.142-.445s-.16.245-.626 1.153c-.163.315-.454.384-.71.682-.296.34-.466 1.064.083 1.37.11.057.092.246.172.32.365.345 1.104.312 1.567-.11.366-.333.815-.388 1.194-.486.227-.058.42-.153.42-.153s-.105-.042-.438.02zM53.406 45.002c.174-.715.393-1.442.448-2.197.08-1.132-.164-2.305-.887-3.162.07.37.165.68.212 1.07.06.467-.007.988-.126 1.46-.09.354-.252.702-.41 1.033-.19.392-.47.818-.75 1.17-.786.973-2.006 2.877-2.006 2.877s-.103-.01-.164-.01c-.015-.235.55-1.048.832-1.5.624-1 1.095-1.535 1.638-2.4.338-.544.596-1.207.68-1.81.17-1.224-.49-2.69-1.44-3.18.217.916.194 2.204-.294 2.748-.92 1.026-1.468 1.795-2.125 3.113-.02.035-.173-.177-.3-.26-.143-.095-.062-.376-.114-.567-.045-.162-.122-.287-.144-.314-.194-.238-.383-.254-.424-.326-.046-.08-.024-.28-.194-.51-.084-.116-.3-.202-.388-.31-.096-.12-.14-.48-.403-.63-.124-.07-.182-.287-.3-.394-.37-.326-.738-.263-.81-.283-.094-.027-.28-.263-.61-.32-.322-.054-.5.16-.667.082-.42-.196-.823-.21-1.268.287-.134.146-.367.01-.655.23-.253.193-.257.372-.388.396-.243.045-.424.24-.517.452-.05.11-.087.33-.115.475-.04.2-.142.385-.143.534-.003.205.063.316.044.408-.032.13-.14.254-.152.38-.01.07-.015.258.036.364.065.128-.045.24-.103.38-.054.13-.11.35-.092.506.022.214.145.292.05.46-.156.274-.353.703-.008 1.248.063.1-.145.295-.158.58-.012.31.175.54.227.677.007.05-.084.046-.087.1-.823-.87-1.552-1.674-2.508-2.43-.583-.462-1.16-.85-1.808-1.197-1.73-.927-3.735-1.547-5.553-1.32.683.552 1.548.945 2.252 1.57.667.595 1.27 1.103 1.88 1.73.952.99 1.726 1.997 2.534 3.16.238.346.395.577.62.937.225.36.473.742.68 1.097 1.03 1.793 1.876 3.453 2.734 5.29.237.51.437 1.04.67 1.544.062.137.15.036.215 0 .307-.178.637-.33.96-.48.255-.117.488-.197.718-.287.58-.22 1.128-.34 1.735-.466 1.012-.212 2.832-.17 2.832-.17h3.544c-.036-.988-.272-1.95-.33-2.94-.04-.804-.015-1.582.015-2.385.07-2.18.393-4.52.88-6.51zm-4.04 1.726c.065.19.152.334.08.525-.09.235-.318.267-.53.345-.2.07-.534.16-.7-.012-.193-.2-.27-.604-.04-.778.298-.222 1.03-.526 1.19-.08zm-2.462 3.95c-.232.266-.61.257-.983.366-.143.042-.313-.084-.39-.217-.136-.245-.274-.573-.01-.81.217-.2.516-.182.782-.262.12-.035.268-.077.413.02.3.205.42.647.19.904zm.465.942c.074.302 0 .587-.27.683-.345.123-.813.3-1.09.116-.315-.214-.466-.813-.103-1.05.428-.28 1.28-.463 1.462.25zm-4.386-8.042c.093-.27.427-.253.68-.22.31.042.373.44.264.607-.153.23-.503.186-.78.152-.225-.03-.238-.33-.164-.54zm-.068-.885c.026-.08.062-.104.113-.127.21-.1.443-.128.646 0 .145.095.132.314.023.427-.16.167-.48.175-.688.065-.132-.068-.14-.232-.096-.365zm2.04.443c-.253.155-.612.217-.85.084-.208-.114-.2-.415-.097-.58.168-.27.587-.3.878-.215.25.074.344.538.067.71zm.312.406c.222.125.27.48.134.687-.18.273-.794.43-1.124.192-.187-.138-.29-.698.096-.834.31-.106.605-.212.894-.046zm-2.135.933c.298-.122.85-.23.944.194.125.564-.54.656-.897.556-.272-.075-.324-.64-.047-.75zm-.038 1.27c.242-.284.645-.35.98-.258.203.055.298.293.293.562-.003.15-.108.26-.2.3-.24.095-.514.166-.773.136-.32-.04-.513-.488-.3-.74zm.163 1.168c.23-.237.647-.25.974-.208.2.028.287.23.314.448.077.603-.73.704-1.116.563-.255-.09-.387-.58-.172-.803zM44.42 45.4c-.2-.62.57-.813 1.02-.717.314.065.417.666.126.856-.36.232-1 .31-1.145-.14zm3.104.687c-.173.32-.764.36-1.03.326-.186-.025-.318-.326-.312-.577.002-.13.042-.216.13-.265.296-.156.596-.263.913-.21.31.05.43.485.3.727zm.163.63c.115.184.197.432.025.663-.158.21-.716.307-1.002.24-.156-.042-.232-.232-.256-.36-.032-.175-.047-.35.105-.492.22-.2.517-.197.8-.197.118 0 .283.074.327.147zm-.437-1.87c-.202.3-1.02.49-1.2.18-.13-.23-.213-.547.035-.7.26-.16.568-.255.87-.202.283.052.43.52.295.72zm-.57-1.028c-.145.125-.29.153-.48.217-.265.092-.545-.113-.575-.37-.053-.433.417-.5.726-.553.226-.042.365.162.406.298.042.13.037.306-.077.407zm-1.91 2.284c.34-.194 1.068-.45 1.238.104.068.225.062.504-.133.605-.277.146-.717.298-1.037.1-.266-.17-.303-.674-.068-.81zm.3 1.27c.355-.25 1.053-.408 1.224.136.043.142.068.298-.005.412-.197.316-.696.4-1.03.354-.36-.054-.53-.66-.19-.9zm.263 1.255c.294-.15.718-.33 1.035-.127.146.094.295.48.192.65-.217.362-.788.455-1.152.362-.31-.08-.402-.72-.075-.886zm1.422-.02c-.072-.186-.14-.46.006-.57.293-.232.957-.435 1.208-.084.164.226.118.61-.17.757-.298.153-.877.326-1.043-.104zm1.985-3.33c.142.014.268.17.336.34.09.22 0 .477-.07.523-.17.115-.71.44-1.046.246-.186-.108-.24-.353-.25-.496-.037-.465.67-.655 1.03-.615zm-.132-.8c.1.14.08.39.02.47-.186.253-.704.4-.917.295-.16-.08-.322-.438-.13-.653.195-.222.54-.354.853-.29.07.015.114.093.175.178zm-.606-1.3c.294.04.352.46.293.61-.067.13-.215.232-.293.272-.217.112-.47.154-.67.05-.18-.093-.258-.367-.16-.584.133-.29.554-.383.83-.347zm-.332-.585c.078.234-.092.343-.272.438-.183.097-.43.19-.558.067-.162-.153-.235-.41-.053-.58.252-.235.717-.412.883.075zm-.77-.983c.135.013.196.105.222.207.035.137-.01.264-.126.343-.138.09-.31.144-.448.147-.185.003-.358-.27-.256-.448.105-.19.375-.27.61-.25zm-.465-.643c.123.036.2.164.138.287-.037.077-.146.16-.216.202-.188.117-.353.068-.415-.072-.11-.257.26-.487.493-.42zm-.272 1.267c.13.106.242.33.088.506-.145.167-.325.217-.554.252-.152.027-.35-.087-.375-.222-.02-.116-.043-.33.072-.43.228-.192.532-.302.77-.106zm-.327-.744c.115.194-.06.392-.15.443-.197.116-.475.188-.593-.007-.117-.193-.02-.422.183-.505.196-.08.397-.203.56.068zm-1.084-.64c.103-.23.364-.344.617-.27.048.018.153.1.167.18.03.16-.026.304-.16.386-.17.107-.31.17-.504.09-.146-.064-.183-.253-.12-.387zm.103.966c-.042.163-.163.277-.356.32-.19.042-.458.053-.563-.065-.102-.113-.148-.27-.064-.392.17-.24.48-.326.758-.263.158.037.274.197.225.4zm-1.163-.925c.074-.253.36-.39.618-.312.223.065.274.37.124.517-.068.064-.18.133-.302.16-.264.056-.524-.088-.44-.365zm-.153 1.342c-.235.068-.562.083-.632-.156-.118-.407.396-.468.662-.382.182.056.248.458-.03.54zm-.67-1.037c.018-.063.118-.137.167-.154.11-.04.244-.05.352-.006.212.09.184.353-.044.447-.104.042-.26.068-.338.042-.144-.05-.184-.176-.14-.33zm-.672.47c.15-.056.37-.053.48.065.15.165.03.423-.25.41-.1-.004-.22-.037-.277-.072-.147-.082-.098-.35.048-.404zm-.192.725c.164-.063.433-.05.58.028.074.038.174.16.132.288-.052.17-.208.23-.384.23-.17.003-.364-.012-.433-.15-.065-.13-.037-.34.106-.395zm.62.9c.08.036.13.1.147.196.04.215-.016.446-.22.483-.308.056-.763.075-.762-.36.002-.485.48-.48.835-.32zm-.85.993c.275-.113.75-.167.945.143.122.19.087.543-.105.594-.19.048-.833.155-.985-.2-.077-.175-.044-.456.146-.536zm-.17 1.17c.26-.25.6-.135.913-.09.06.008.13.05.172.09.215.217.23.573-.006.75-.275.205-.62.072-.95.056-.09-.005-.187-.11-.207-.177-.06-.208-.097-.464.076-.63zm-.014 1.4c.173-.374.798-.378 1.14-.21.278.136.313.654.01.856-.243.164-.623.103-.88.056-.366-.067-.395-.426-.27-.702zm.206 1.614c-.178-.154-.054-.422.1-.5.272-.134.697-.153.98-.06.18.06.27.322.24.605-.014.117-.048.245-.107.283-.213.148-.544.153-.805.1-.186-.04-.25-.293-.407-.428zm1.308 1.596c-.267-.197-.386-.478-.582-.753-.047-.068 0-.096.037-.105.474-.135.826.1.75.62-.012.098-.075.33-.204.238zm.318-1.755c.03-.13.174-.19.296-.224.31-.076.66-.192.947-.01.11.07.118.17.133.31.025.23-.005.413-.156.502-.304.178-.614.194-.966.125-.286-.056-.31-.436-.254-.704zm.4 1.14c.386-.25 1.123-.435 1.246.24.038.205-.014.474-.29.565-.284.09-.616.187-.875.083-.317-.13-.378-.695-.08-.888zm-.096 1.606c-.04-.05-.073-.203-.022-.24.296-.24.733-.26 1.072-.227.445.04.537.456.462.8-.098.452-.784.507-.978.433-.19-.075-.324-.506-.534-.767zm.832 1.38c-.05-.07-.144-.264-.07-.29.57-.196 1-.204 1.122.408.087.438-.21.812-.63.66-.12-.045-.24-.51-.422-.778zm1.19 2.168c-.32-.262-.347-.683-.56-1.004.236-.15.63-.12.752.178.1.237.17.59-.073.772-.027.02-.09.08-.12.054zm.463 1.11c-.14-.064-.137-.242-.195-.353-.055-.11-.173-.258-.124-.4.267.15.39.418.32.752zm.61-.89c-.062.182-.09.368-.17.542-.04.088-.093-.028-.094-.033-.122-.3-.198-.556-.096-.82.058-.145.26-.28.45-.292-.013.19-.025.42-.09.604zm.518-1.82c-.082.236-.124.45-.218.667-.09.21-.48.284-.693.217-.31-.096-.572-.784-.223-1.048.268-.2.544-.232.886-.274.06-.008.29.005.297.028.058.142.02.213-.05.41zm.462-1.58c-.09.13-.33-.31-.36-.512-.086-.586.427-.735.854-.716.013.35-.257.89-.494 1.228zm.693-1.783c-.127.337-.502.372-.822.44-.06.013-.244 0-.327-.082-.138-.134-.257-.32-.234-.55.013-.144.132-.282.28-.34.266-.103.583-.27.846-.12.226.126.346.415.257.652zm1.082-1.703c-.227.297-.33.64-.58.9-.128.136-.326.07-.43-.084-.114-.178-.3-.428-.162-.604.226-.29.698-.473 1.1-.423.024.006.154.1.072.212zm3.153 8.897c-.027 0-.056 0 0 0zM29.888 36.82c-.673.672-.873.918-1.266 1.66-.23.437-.524.996-.608 1.72 1.384-.527 2.51-1.602 3.532-2.79.753-.88 1.34-2.047 2.083-2.916-1.31.44-2.695 1.284-3.742 2.326z"/>
    <path d="M25.93 38.708c.52-.882 1.27-1.834 2.04-2.484-.357.806-.8 1.604-.95 2.558-.302 1.897-.586 3.224-.9 4.955.86-.613 1.767-1.576 2.68-2.25.704-.517 1.41-.863 2.135-1.36.432-.3.712-.68 1.07-1.037-.427 1.798-2.007 3.615-3.137 4.462-1.42 1.066-1.93 1.235-4.213 3.558-.29-2.868-.238-5.846 1.274-8.402z"/>
    <path d="M21.27 48.227c.107-1.49.286-2.68.647-4.13.255-1.015.8-2.524 1.586-3.144-.096.37-.146.92-.184 1.292-.155 1.533.138 3.316.174 4.847.018.754.01 1.335-.103 2.042-.115.742-.017 1.65-.017 1.65s.407-.463.77-1.042c.793-1.26 1.047-1.633 1.687-2.316.794-.846 1.68-1.63 2.682-2.327-.12.47-.633 1.386-.843 1.754-.284.49-.412.938-1.08 2.053-.94 1.566-1.356 1.778-2.4 3.454-.225.364-1.15 1.75-1.376 2.172-.488-1.01-.673-1.893-1.27-3.54-.378-1.034-.322-2.068-.274-2.765z"/>
    <path d="M19.82 55.973c-.565-1.47-.825-2.83-1.017-4.378-.117-.946-.062-2.206.274-3.115.088.222.27.786.293.87.252.845.355 1.25.708 2.066.268.624.596 1.12.95 1.74.317.563.586 1.307.818 1.873.743 1.82.798 3.525 1.084 3.71.205-.436.268-.856.292-1.063.22-2.016.485-3.847 3.023-6.22.234.705.115 2.01-.025 2.705-.303 1.527-.548 2.26-1.22 3.74-.356.778-.83 1.924-.96 2.304-.34.99-.457 1.505-.67 2.093-1.198-2-2.673-4.06-3.55-6.327z"/>
    <path d="M21.794 65.153c-.853-1.187-1.162-1.78-1.716-3.044-.467-1.063-.6-1.456-.874-2.643-.15-.647-.234-1.234-.118-1.618.667 1.21 1.123 2.562 1.997 3.565.693.793 1.36 1.473 1.914 2.142.845 1.033 1.51 2.008 2.32 3.083.07-.537.096-1.083-.025-1.965-.164-1.21-.062-2.2.15-3.368.266-1.485.462-2.22.977-3.723.63 1.236.627 2.665.785 3.977.305 2.544-.49 5.577-.647 6.84-.042.333.015 1.156.033 1.477-1.19-.937-2.248-1.885-3.273-2.914-.468-.466-1.11-1.24-1.523-1.81z"/>
    <path d="M26.307 74.48c-.542-.39-1.998-1.5-2.687-2.377-1.003-1.276-1.224-1.82-1.888-3.29-.08-.177-.455-1.006-.485-1.572 2.168 2.62 4.11 3.013 6.18 5.184.76.797 1.538 1.548 1.95 1.923.314.29.705.377.705.377s-.04-.556-.245-.946c-1.38-2.64-1.642-5.397-1.432-8.36.63.78.83 1.3 1.23 2.057.434.822.655 1.33.86 1.834 1.18 2.94 1.488 6.336 2.217 8.048-2.252-.76-4.026-1.167-6.405-2.878z"/>
    <path d="M35.547 81.42c-.61.043-1.805.035-2.44-.065-3.226-.517-6.225-2.854-7.733-5.422 1.368.834 2.355 1.39 3.56 1.806 1.07.37 2.085.48 3.874.986 1.08.305 2.147.738 2.522.878 1.196.445 1.7.334 1.7.334s0-.18-.447-.668c-.89-.97-1.215-1.205-1.948-1.95-.24-.248-.793-1.085-1.072-1.642-.79-1.577-.88-2.84-1.6-4.57 2.636 1.55 3.922 3.685 5.316 6.38.428.825 1.008 1.78 1.54 2.303.355.354.856.886.856.886s-.368.085-1.513.255c-.515.078-1.61.422-2.616.49zM48.334 81.625c1.393.227 2.63.564 3.896 1 .34.116.857.372 1.216.555.9.46 1.417.753 2.188 1.285 1.242.856 2.576 1.777 3.78 3.176.027.03.22.24.09.34-.234.183-.814.45-1.008.275-1.104-.978-1.046-1.294-2.383-2.503-.342-.308-.86-.738-1.48-1.163-.603-.414-1.33-.864-2.01-1.197-.612-.303-1.56-.396-2.093-.396l.01.007c-.243-.01-1.632-.018-1.954.003-2.73.187-2.596.43-4.17.856-1.295.354-2.683.604-4.06.787-1.414.192-2.678.216-4.002.08-1.794-.183-3.758-.683-5.222-1.63 1.34.024 2.715.28 4.048.18.56-.044 1.47-.128 2.085-.318 1.226-.374 1.928-.523 3.224-.884 1.113-.308 2.237-.417 3.4-.54 1.61-.17 3.103-.13 4.444.087zM73.293 36.82c.672.672.876.918 1.27 1.66.23.437.523.996.607 1.72-1.383-.527-2.51-1.602-3.532-2.79-.756-.88-1.34-2.047-2.083-2.916 1.312.44 2.693 1.284 3.738 2.326z"/>
    <path d="M77.255 38.708c-.52-.882-1.27-1.834-2.042-2.484.362.866.89 1.947.95 2.558.193 1.91.585 3.224.9 4.955-.86-.613-1.767-1.576-2.678-2.25-.706-.517-1.414-.863-2.137-1.36-.433-.3-.713-.68-1.072-1.037.43 1.798 2.008 3.615 3.14 4.462 1.42 1.066 1.928 1.235 4.21 3.558.293-2.868.24-5.846-1.27-8.402z"/>
    <path d="M81.913 48.227c-.107-1.49-.283-2.68-.648-4.13-.253-1.015-.8-2.524-1.585-3.144.095.37.146.92.186 1.292.153 1.533-.138 3.316-.177 4.847-.016.754-.01 1.335.102 2.042.116.742.02 1.65.02 1.65s-.406-.463-.77-1.042c-.792-1.26-1.046-1.633-1.69-2.316-.79-.846-1.68-1.63-2.68-2.327.12.47.633 1.386.844 1.754.283.49.407.938 1.077 2.053.94 1.566 1.358 1.778 2.4 3.454.225.364 1.153 1.75 1.376 2.172.49-1.01.67-1.893 1.272-3.54.378-1.034.322-2.068.27-2.765z"/>
    <path d="M83.364 55.973c.564-1.47.825-2.83 1.018-4.378.117-.946.062-2.206-.274-3.115-.092.222-.27.786-.295.87-.25.845-.357 1.25-.708 2.066-.267.624-.596 1.12-.948 1.74-.32.563-.59 1.307-.822 1.873-.743 1.82-.797 3.525-1.08 3.71-.207-.436-.27-.856-.293-1.063-.22-2.016-.487-3.847-3.024-6.22-.23.705-.113 2.01.024 2.705.305 1.527.55 2.26 1.22 3.74.355.778.833 1.924.96 2.304.342.99.46 1.505.675 2.093 1.195-2 2.67-4.06 3.547-6.327z"/>
    <path d="M81.39 65.153c.853-1.187 1.162-1.78 1.717-3.044.466-1.063.6-1.456.874-2.643.148-.647.233-1.234.117-1.618-.665 1.21-1.125 2.562-1.996 3.565-.69.793-1.36 1.473-1.912 2.142-.844 1.033-1.513 2.008-2.322 3.083-.07-.537-.093-1.083.025-1.965.167-1.21.064-2.2-.144-3.368-.27-1.485-.465-2.22-.98-3.723-.63 1.236-.63 2.665-.79 3.977-.304 2.544.493 5.577.65 6.84.04.333-.018 1.156-.033 1.477 1.19-.937 2.247-1.885 3.276-2.914.467-.466 1.107-1.24 1.52-1.81z"/>
    <path d="M76.877 74.48c.542-.39 2-1.5 2.688-2.377 1.003-1.276 1.224-1.82 1.886-3.29.08-.177.458-1.006.488-1.572-2.17 2.62-4.11 3.013-6.184 5.184-.757.797-1.534 1.548-1.944 1.923-.318.29-.708.377-.708.377s.04-.556.245-.946c1.38-2.64 1.64-5.397 1.432-8.36-.63.78-.83 1.3-1.23 2.057-.435.822-.658 1.33-.86 1.834-1.18 2.94-1.49 6.336-2.22 8.048 2.254-.76 4.03-1.167 6.407-2.878z"/>
    <path d="M67.634 81.42c.613.043 1.807.035 2.444-.065 3.225-.517 6.223-2.854 7.732-5.422-1.37.834-2.358 1.39-3.558 1.806-1.072.37-2.088.48-3.875.986-1.08.305-2.148.738-2.526.878-1.193.445-1.696.334-1.696.334s0-.18.446-.668c.89-.97 1.217-1.205 1.95-1.95.24-.248.79-1.085 1.072-1.642.79-1.577.88-2.84 1.603-4.57-2.638 1.55-3.927 3.685-5.32 6.38-.428.825-1.006 1.78-1.536 2.303-.357.354-.86.886-.86.886s.367.085 1.515.255c.51.078 1.606.422 2.61.49zM54.85 81.625c-1.392.227-2.628.564-3.896 1-.343.116-.86.372-1.218.555-.896.46-1.413.753-2.185 1.285-1.242.856-2.575 1.777-3.78 3.176-.028.03-.223.24-.09.34.235.183.816.45 1.008.275 1.102-.978 1.045-1.294 2.383-2.503.34-.308.86-.738 1.478-1.163.604-.414 1.332-.864 2.008-1.197.613-.303 1.563-.396 2.094-.396l-.007.007c.243-.01 1.63-.018 1.953.003 2.73.187 2.596.43 4.167.856 1.295.354 2.686.604 4.065.787 1.41.192 2.675.216 4 .08 1.793-.183 3.758-.683 5.223-1.63-1.34.024-2.715.28-4.047.18-.564-.044-1.473-.128-2.087-.318-1.223-.374-1.928-.523-3.223-.884-1.116-.308-2.238-.417-3.402-.54-1.61-.17-3.1-.13-4.44.087z"/>
    <g>
      <path d="M49.954 21.69l-2.45 9.105H44.9l-1.63-5.932-1.59 5.932h-2.597L36.63 21.69h2.452l1.396 6.27 1.68-6.27H44.5l1.595 6.27 1.467-6.27h2.392zM58.043 23.453h-4.188v1.693h3.883v1.762h-3.883v3.887H51.52V21.69h6.523v1.763zM67.18 24.566c0 .406-.074.806-.216 1.196-.143.39-.35.716-.61.98-.363.36-.77.63-1.215.813-.447.184-1.004.275-1.668.275h-1.46v2.965h-2.35V21.69h3.865c.58 0 1.068.05 1.463.15.4.1.752.25 1.057.45.367.24.646.548.84.923.194.376.292.826.292 1.353zm-2.43.052c0-.255-.07-.476-.208-.662-.138-.184-.3-.313-.48-.388-.245-.097-.485-.15-.716-.16-.235-.01-.543-.018-.93-.018h-.405v2.723h.675c.398 0 .728-.025.99-.074.256-.05.473-.147.647-.295.153-.13.26-.284.328-.465.066-.182.1-.403.1-.662z"/>
    </g>
    <g>
      <path d="M39.457 94.35l-1.637 5.28h-1.797l-1.076-3.56-1.063 3.56H32.07l-1.623-5.28h1.776l.907 3.64 1.125-3.64h1.5l1.072 3.64.892-3.64h1.737zM44.18 93.555h-.125c-.075-.023-.172-.047-.293-.076-.12-.03-.25-.045-.386-.045-.332 0-.557.063-.673.18-.12.12-.177.352-.177.693v.043h1.303v1.147h-1.247v4.133h-1.698v-4.133h-.725V94.35h.725v-.147c0-.646.17-1.13.515-1.45.343-.325.864-.487 1.56-.487.25 0 .477.007.68.026.205.017.386.04.542.067v1.195zM50.336 96.917c0 .436-.065.83-.198 1.19-.133.357-.307.652-.523.883-.225.245-.48.43-.767.554-.284.128-.59.188-.916.188-.3 0-.557-.03-.766-.093-.21-.068-.424-.157-.644-.272v2.2h-1.697V94.35h1.697v.55c.26-.208.526-.375.797-.506.27-.125.583-.192.937-.192.658 0 1.17.243 1.533.726.365.482.546 1.145.546 1.99zm-1.743.035c0-.51-.088-.885-.262-1.117-.175-.232-.45-.347-.83-.347-.16 0-.324.024-.493.073-.17.047-.33.12-.485.208v2.656c.114.04.233.07.362.083.128.012.255.017.38.017.448 0 .78-.127 1-.392.22-.258.33-.655.33-1.18zM53.38 99.63h-1.758v-1.85h1.76v1.85zM60.44 96.994c0 .866-.252 1.55-.758 2.05-.51.5-1.22.75-2.136.75-.914 0-1.625-.25-2.13-.75-.51-.5-.762-1.184-.762-2.05 0-.875.254-1.562.765-2.06.507-.5 1.217-.748 2.126-.748.925 0 1.634.25 2.14.75.503.502.754 1.187.754 2.058zm-2.085 1.28c.11-.134.192-.296.246-.484.057-.19.084-.455.084-.79 0-.31-.027-.57-.083-.78-.056-.21-.135-.378-.233-.504-.1-.126-.22-.22-.36-.272-.142-.053-.295-.077-.46-.077-.162 0-.306.02-.434.064-.126.043-.248.134-.364.262-.105.124-.19.292-.25.505-.058.21-.09.48-.09.804 0 .29.027.54.08.75.055.214.13.382.234.512.102.12.22.21.36.266.14.06.3.088.48.088.15 0 .3-.026.44-.08.138-.05.256-.137.35-.26zM65.48 95.962h-.147c-.073-.025-.188-.043-.35-.056-.16-.013-.29-.02-.395-.02-.243 0-.456.016-.64.048-.184.03-.382.083-.595.16v3.535h-1.7v-5.28h1.7v.775c.37-.32.695-.534.97-.637.276-.105.53-.158.762-.158.06 0 .125 0 .2.004.077.002.14.006.198.015v1.612zM71.58 99.023c0 .495-.073.916-.213 1.252-.14.337-.337.604-.594.796-.253.194-.56.334-.918.42-.36.086-.766.13-1.215.13-.367 0-.73-.02-1.086-.067-.354-.042-.664-.096-.923-.16v-1.323h.207c.208.083.46.158.758.226.298.067.562.1.798.1.312 0 .568-.03.764-.086.195-.058.344-.14.448-.247.095-.102.167-.23.212-.386.042-.158.065-.342.065-.562v-.1c-.202.166-.43.297-.678.393-.248.098-.523.148-.827.148-.736 0-1.307-.22-1.71-.67-.398-.444-.602-1.12-.602-2.03 0-.436.064-.812.185-1.128.124-.318.295-.594.518-.828.205-.22.462-.394.764-.513.304-.122.61-.185.927-.185.286 0 .543.035.778.1.232.068.445.162.636.28l.06-.233h1.647v4.673zm-1.7-1.057V95.57c-.1-.038-.217-.072-.357-.092-.14-.025-.268-.04-.38-.04-.445 0-.777.13-1 .385-.22.255-.332.61-.332 1.07 0 .507.094.862.283 1.064.19.2.47.302.844.302.168 0 .334-.028.497-.082.164-.053.312-.125.446-.212z"/>
    </g>
  </g>
  <path fill="#FFF" d="M97.155 34.238h.646v54.075h-.645z"/>
  <g fill="#FFF">
    <path d="M141.73 56.567c0 4.31-1.31 7.614-3.935 9.91-2.624 2.296-6.49 3.444-11.597 3.444-5.107 0-8.97-1.147-11.584-3.443-2.616-2.295-3.924-5.59-3.924-9.886V34.313h9.043v21.764c0 2.42.507 4.225 1.523 5.412 1.015 1.187 2.663 1.78 4.943 1.78 2.248 0 3.892-.57 4.93-1.71 1.04-1.14 1.56-2.967 1.56-5.482V34.312h9.04v22.255zM180.423 69.194h-8.668L156.95 45.252v23.942H148.7V34.312h10.753l12.72 19.983V34.312h8.247v34.882zM219.16 69.194h-8.995V53.826h-13.283v15.368h-8.996V34.312h8.996V47.08h13.283V34.312h8.996v34.882zM258.86 69.194h-9.29l-2.43-7.052h-12.91l-2.43 7.052h-9.065L235.62 34.31h10.354l12.885 34.884zm-13.883-13.447l-4.29-12.497-4.293 12.497h8.583zM290.358 58.23c0 3.436-1.456 6.228-4.37 8.375-2.912 2.148-6.867 3.22-11.864 3.22-2.89 0-5.408-.253-7.556-.76s-4.158-1.15-6.032-1.933v-8.364h.983c1.857 1.484 3.938 2.624 6.243 3.42 2.303.797 4.517 1.195 6.642 1.195.546 0 1.265-.047 2.155-.14.89-.095 1.616-.25 2.18-.47.686-.28 1.252-.632 1.697-1.053.445-.422.668-1.046.668-1.875 0-.765-.325-1.425-.973-1.98-.648-.553-1.597-.98-2.847-1.276-1.312-.313-2.698-.606-4.158-.88-1.46-.272-2.83-.62-4.11-1.04-2.938-.954-5.05-2.246-6.338-3.878-1.29-1.632-1.934-3.66-1.934-6.08 0-3.248 1.456-5.9 4.37-7.954 2.91-2.053 6.656-3.08 11.232-3.08 2.296 0 4.564.222 6.806.666 2.24.445 4.182 1.004 5.82 1.675v8.035h-.96c-1.405-1.125-3.127-2.065-5.165-2.823-2.04-.757-4.12-1.136-6.244-1.136-.75 0-1.496.05-2.237.152-.743.102-1.458.293-2.145.574-.61.234-1.133.59-1.57 1.066s-.655 1.02-.655 1.628c0 .922.35 1.628 1.054 2.12.703.492 2.03.94 3.982 1.347 1.28.266 2.51.523 3.69.773 1.18.25 2.448.594 3.807 1.03 2.67.876 4.643 2.067 5.915 3.574 1.275 1.51 1.91 3.466 1.91 5.87z"/>
    <g>
      <path d="M118.877 88.207h-1.48v-5.45h-5.556v5.45h-1.48V77.073h1.48v4.367h5.557v-4.367h1.48v11.134zM128.22 88.207h-1.405v-.927c-.474.374-.927.66-1.36.86s-.913.3-1.437.3c-.877 0-1.56-.27-2.05-.805-.487-.536-.73-1.322-.73-2.36v-5.42h1.405v4.756c0 .425.02.787.06 1.09s.125.56.254.773c.135.22.31.38.523.48.214.1.526.148.935.148.364 0 .762-.093 1.193-.283s.834-.43 1.208-.726v-6.235h1.406v8.352zM142.717 88.207h-1.406V83.45c0-.358-.016-.705-.048-1.04s-.1-.6-.206-.8c-.115-.213-.28-.375-.494-.485-.214-.11-.523-.165-.927-.165-.394 0-.788.1-1.18.295-.395.197-.79.448-1.183.75.015.116.027.25.037.4.01.153.014.304.014.453v5.347h-1.406V83.45c0-.37-.016-.72-.05-1.052-.03-.332-.1-.597-.205-.796-.115-.214-.28-.375-.494-.482-.215-.107-.524-.16-.928-.16-.384 0-.77.094-1.155.283s-.77.43-1.155.726v6.235h-1.406v-8.353h1.406v.927c.44-.365.876-.65 1.312-.854.436-.205.9-.307 1.395-.307.567 0 1.05.12 1.446.358.396.24.69.57.886.995.568-.48 1.087-.824 1.556-1.036.468-.212.97-.318 1.503-.318.918 0 1.595.277 2.03.833.437.556.655 1.332.655 2.33v5.424zM151.455 88.207h-1.398v-.89c-.125.084-.293.203-.504.355-.212.152-.418.273-.617.363-.234.115-.503.21-.808.288-.304.078-.66.116-1.07.116-.75 0-1.39-.25-1.913-.75s-.785-1.133-.785-1.906c0-.633.136-1.145.407-1.537.272-.39.66-.7 1.163-.923.508-.225 1.12-.376 1.832-.457.713-.08 1.478-.14 2.295-.18v-.216c0-.318-.056-.582-.168-.792-.113-.21-.274-.374-.483-.493-.2-.115-.44-.192-.718-.232-.28-.04-.572-.06-.876-.06-.37 0-.78.05-1.234.146s-.922.237-1.406.42h-.075v-1.427c.273-.075.67-.157 1.188-.247s1.03-.135 1.533-.135c.59 0 1.102.05 1.538.147.437.097.814.263 1.133.497.315.23.554.526.72.89s.246.815.246 1.354v5.67zm-1.398-2.056v-2.325c-.43.025-.934.062-1.514.112s-1.04.123-1.38.217c-.403.115-.73.292-.98.535-.248.24-.373.573-.373.997 0 .48.145.84.434 1.08s.73.364 1.324.364c.493 0 .944-.095 1.354-.287.407-.193.786-.423 1.135-.692zM160.687 88.207h-1.406V83.45c0-.383-.02-.743-.066-1.08s-.127-.6-.247-.79c-.125-.208-.304-.364-.54-.466-.233-.102-.538-.153-.91-.153-.385 0-.786.096-1.205.285s-.82.43-1.204.726v6.237h-1.406v-8.353h1.406v.927c.44-.363.893-.647 1.36-.852.47-.205.95-.307 1.444-.307.902 0 1.59.273 2.064.816.474.543.71 1.326.71 2.348v5.423zM164.445 78.456h-1.585v-1.458h1.585v1.458zm-.09 9.75h-1.406v-8.352h1.405v8.353zM171.015 88.132c-.265.07-.552.127-.864.172s-.59.067-.833.067c-.853 0-1.5-.228-1.944-.687-.443-.458-.666-1.194-.666-2.206v-4.442h-.95v-1.18h.95v-2.4h1.406v2.4h2.9v1.18h-2.9v3.806c0 .44.01.783.03 1.03.02.246.09.477.21.69.108.2.26.346.45.44s.486.137.88.137c.23 0 .468-.034.718-.1.25-.068.43-.124.54-.17h.074v1.265zM178.743 88.207h-1.398v-.89c-.125.084-.293.203-.504.355-.21.152-.417.273-.616.363-.234.115-.503.21-.808.288-.304.078-.66.116-1.07.116-.75 0-1.39-.25-1.913-.75s-.785-1.133-.785-1.906c0-.633.136-1.145.407-1.537.272-.39.66-.7 1.163-.923.508-.225 1.12-.376 1.832-.457.713-.08 1.478-.14 2.295-.18v-.216c0-.318-.056-.582-.168-.792-.112-.21-.273-.374-.482-.493-.2-.115-.44-.192-.718-.232-.28-.04-.57-.06-.875-.06-.37 0-.78.05-1.234.146s-.922.237-1.406.42h-.075v-1.427c.274-.075.67-.157 1.19-.247s1.028-.135 1.532-.135c.587 0 1.1.05 1.536.147.437.097.814.263 1.133.497.313.23.552.526.717.89s.247.815.247 1.354v5.67zm-1.398-2.056v-2.325c-.43.025-.934.062-1.514.112s-1.04.123-1.378.217c-.404.115-.73.292-.98.535-.25.24-.374.573-.374.997 0 .48.145.84.434 1.08s.73.364 1.324.364c.493 0 .944-.095 1.354-.287.407-.193.786-.423 1.135-.692zM186.203 81.387h-.075c-.21-.05-.413-.086-.61-.108s-.43-.035-.698-.035c-.434 0-.853.096-1.256.288s-.792.44-1.167.744v5.93h-1.406v-8.353h1.407v1.234c.56-.45 1.05-.767 1.477-.954s.86-.28 1.305-.28c.243 0 .42.006.53.02.11.012.274.035.493.07v1.443zM188.578 78.456h-1.585v-1.458h1.585v1.458zm-.09 9.75h-1.406v-8.352h1.406v8.353zM197.3 88.207h-1.397v-.89c-.125.084-.293.203-.504.355-.213.152-.42.273-.618.363-.234.115-.503.21-.808.288-.304.078-.66.116-1.07.116-.75 0-1.39-.25-1.913-.75s-.784-1.133-.784-1.906c0-.633.136-1.145.407-1.537.272-.39.66-.7 1.163-.923.508-.225 1.12-.376 1.832-.457.713-.08 1.478-.14 2.295-.18v-.216c0-.318-.056-.582-.168-.792-.112-.21-.273-.374-.482-.493-.2-.115-.44-.192-.718-.232-.28-.04-.57-.06-.875-.06-.37 0-.78.05-1.234.146s-.922.237-1.406.42h-.075v-1.427c.274-.075.67-.157 1.19-.247s1.028-.135 1.532-.135c.588 0 1.1.05 1.537.147.437.097.814.263 1.133.497.314.23.553.526.718.89s.247.815.247 1.354v5.67zm-1.398-2.056v-2.325c-.43.025-.934.062-1.514.112s-1.04.123-1.38.217c-.403.115-.73.292-.98.535-.248.24-.373.573-.373.997 0 .48.145.84.434 1.08s.73.364 1.323.364c.493 0 .944-.095 1.354-.287.408-.193.787-.423 1.135-.692zM206.533 88.207h-1.406V83.45c0-.383-.022-.743-.067-1.08s-.127-.6-.247-.79c-.125-.208-.304-.364-.54-.466-.233-.102-.538-.153-.91-.153-.385 0-.786.096-1.205.285s-.82.43-1.204.726v6.237h-1.406v-8.353h1.406v.927c.44-.363.893-.647 1.36-.852.47-.205.95-.307 1.444-.307.902 0 1.59.273 2.064.816.474.543.71 1.326.71 2.348v5.423zM222.596 88.207h-1.578l-1.092-3.104h-4.815l-1.09 3.104h-1.504l4.053-11.134h1.974l4.052 11.134zm-3.126-4.374l-1.95-5.466-1.96 5.466h3.91zM225.225 78.456h-1.585v-1.458h1.585v1.458zm-.09 9.75h-1.405v-8.352h1.405v8.353zM232.67 81.387h-.075c-.21-.05-.412-.086-.61-.108s-.43-.035-.698-.035c-.434 0-.853.096-1.256.288-.403.192-.792.44-1.166.744v5.93h-1.405v-8.353h1.404v1.234c.56-.45 1.05-.767 1.477-.954.428-.187.862-.28 1.307-.28.244 0 .42.006.53.02.11.012.274.035.494.07v1.443zM246.66 85.03c0 .433-.1.862-.303 1.285-.2.424-.484.783-.85 1.077-.397.32-.862.568-1.394.748-.53.18-1.17.27-1.918.27-.803 0-1.524-.076-2.165-.225s-1.292-.37-1.955-.666v-1.855h.104c.562.47 1.213.83 1.95 1.084.738.253 1.432.38 2.08.38.917 0 1.63-.172 2.142-.516.512-.344.767-.803.767-1.376 0-.494-.122-.857-.363-1.092-.242-.234-.61-.416-1.104-.546-.373-.1-.778-.182-1.215-.247s-.898-.147-1.387-.247c-.986-.21-1.718-.567-2.194-1.073s-.714-1.166-.714-1.978c0-.932.394-1.696 1.182-2.292.787-.596 1.787-.894 2.998-.894.783 0 1.5.074 2.154.224.652.15 1.23.334 1.734.553v1.75h-.104c-.424-.36-.98-.657-1.67-.894-.692-.236-1.398-.355-2.12-.355-.794 0-1.43.165-1.912.494-.48.33-.722.752-.722 1.27 0 .465.12.83.36 1.093s.66.466 1.263.606c.32.07.772.155 1.36.255.59.1 1.087.202 1.496.307.828.22 1.452.55 1.87.995.42.444.63 1.064.63 1.862zM255.46 84.176h-6.155c0 .514.077.96.232 1.342.154.38.366.694.635.938.26.24.567.42.924.54s.75.18 1.178.18c.568 0 1.14-.115 1.716-.34.576-.228.986-.45 1.23-.67h.075V87.7c-.474.198-.957.365-1.45.5-.494.134-1.013.202-1.557.202-1.386 0-2.467-.375-3.245-1.125-.777-.75-1.166-1.815-1.166-3.197 0-1.366.372-2.45 1.117-3.252.746-.803 1.727-1.204 2.943-1.204 1.126 0 1.995.33 2.605.987.61.66.916 1.594.916 2.805v.76zm-1.37-1.076c-.004-.738-.19-1.31-.557-1.712-.366-.404-.923-.605-1.67-.605-.754 0-1.354.222-1.8.666s-.7.994-.76 1.65h4.788zM262.343 81.387h-.075c-.21-.05-.412-.086-.61-.108s-.43-.035-.698-.035c-.434 0-.853.096-1.256.288-.404.192-.793.44-1.167.744v5.93h-1.405v-8.353h1.405v1.234c.56-.45 1.05-.767 1.477-.954.427-.187.86-.28 1.306-.28.244 0 .42.006.53.02.11.012.274.035.494.07v1.443z"/>
      <path d="M270.43 79.854l-3.38 8.353h-1.413l-3.357-8.353h1.525l2.588 6.647 2.564-6.646h1.473zM273.32 78.456h-1.585v-1.458h1.585v1.458zm-.09 9.75h-1.405v-8.352h1.405v8.353zM281.73 87.684c-.47.224-.914.4-1.335.523-.422.125-.87.187-1.343.187-.604 0-1.156-.09-1.66-.266-.503-.177-.935-.445-1.293-.804-.365-.36-.647-.812-.847-1.36s-.3-1.19-.3-1.923c0-1.365.376-2.437 1.126-3.214.75-.778 1.74-1.167 2.972-1.167.48 0 .948.066 1.41.2.46.136.883.3 1.267.495v1.563h-.075c-.43-.334-.87-.59-1.327-.77-.456-.18-.9-.27-1.335-.27-.798 0-1.427.268-1.89.804-.46.536-.69 1.322-.69 2.36 0 1.006.226 1.78.677 2.32s1.086.813 1.903.813c.284 0 .573-.038.867-.112s.56-.172.793-.292c.204-.104.396-.215.575-.332.18-.117.322-.218.427-.303h.074v1.55zM290.064 84.176h-6.154c0 .514.077.96.232 1.342.154.38.366.694.635.938.26.24.567.42.924.54s.75.18 1.18.18c.567 0 1.14-.115 1.715-.34.576-.228.986-.45 1.23-.67h.075V87.7c-.474.198-.957.365-1.45.5-.494.134-1.013.202-1.557.202-1.386 0-2.467-.375-3.245-1.125-.777-.75-1.166-1.815-1.166-3.197 0-1.366.372-2.45 1.117-3.252.745-.803 1.726-1.204 2.942-1.204 1.126 0 1.995.33 2.605.987.61.66.916 1.594.916 2.805v.76zm-1.368-1.076c-.005-.738-.19-1.31-.558-1.712-.366-.404-.923-.605-1.67-.605-.754 0-1.354.222-1.8.666s-.7.994-.76 1.65h4.788z"/>
    </g>
  </g>
</svg>
