<?xml version="1.0" encoding="UTF-8" standalone="no"?>
<svg
   xmlns:dc="http://purl.org/dc/elements/1.1/"
   xmlns:cc="http://creativecommons.org/ns#"
   xmlns:rdf="http://www.w3.org/1999/02/22-rdf-syntax-ns#"
   xmlns:svg="http://www.w3.org/2000/svg"
   xmlns="http://www.w3.org/2000/svg"
   xmlns:sodipodi="http://sodipodi.sourceforge.net/DTD/sodipodi-0.dtd"
   xmlns:inkscape="http://www.inkscape.org/namespaces/inkscape"
   width="299.5"
   viewBox="0 0 299.5 356.42841"
   version="1.1"
   height="356.42841"
   id="svg2"
   inkscape:version="0.91 r"
   sodipodi:docname="United_Parcel_Service_logo_2014.svg">
  <metadata
     id="metadata12">
    <rdf:RDF>
      <cc:Work
         rdf:about="">
        <dc:format>image/svg+xml</dc:format>
        <dc:type
           rdf:resource="http://purl.org/dc/dcmitype/StillImage" />
        <dc:title></dc:title>
      </cc:Work>
    </rdf:RDF>
  </metadata>
  <defs
     id="defs10" />
  <sodipodi:namedview
     pagecolor="#ffffff"
     bordercolor="#666666"
     borderopacity="1"
     objecttolerance="10"
     gridtolerance="10"
     guidetolerance="10"
     inkscape:pageopacity="0"
     inkscape:pageshadow="2"
     inkscape:window-width="1215"
     inkscape:window-height="776"
     id="namedview8"
     showgrid="false"
     fit-margin-top="0"
     fit-margin-left="0"
     fit-margin-right="0"
     fit-margin-bottom="0"
     inkscape:zoom="0.75853273"
     inkscape:cx="414.44831"
     inkscape:cy="283.07965"
     inkscape:window-x="65"
     inkscape:window-y="24"
     inkscape:window-maximized="1"
     inkscape:current-layer="svg2" />
  <path
     d="M 149.75066,356.4218 C 140.47196,352.39794 64.77298,319.30694 40.292261,299.24056 13.931308,277.63213 0,246.60602 0,209.51763 L 0,33.23526 C 41.608619,11.18473 91.986356,0 149.75,0 207.52026,0 257.89137,11.18473 299.5,33.23659 l 0,176.28236 c 0,37.09501 -13.92469,68.12113 -40.27173,89.72293 -24.09689,19.74871 -100.68928,53.35593 -109.47827,57.18125 z m 100.04072,-25.14916 c -6.92927,0 -12.56136,5.67842 -12.56136,12.60106 0,6.92925 5.63209,12.55472 12.56136,12.55472 6.96232,0 12.58778,-5.62547 12.58778,-12.55472 0,-6.92264 -5.62546,-12.60106 -12.58778,-12.60106 z m 10.37731,12.60106 c 0,5.69826 -4.63272,10.33762 -10.37072,10.33762 -5.70487,0 -10.35086,-4.63936 -10.35086,-10.33762 0,-5.70489 4.64599,-10.37734 10.35086,-10.37734 5.738,0 10.37072,4.67245 10.37072,10.37734 z m -10.80088,-5.46002 c 2.34285,0 2.65388,1.15818 2.65388,2.15754 0,1.43614 -0.61547,2.39578 -3.5738,2.39578 l -0.34417,0 0,-4.55332 1.26409,0 z m -4.02389,-2.23033 0,15.29466 2.7598,0 0,-6.37995 0.39048,0 c 0.20515,0.31106 4.15621,6.37995 4.15621,6.37995 l 3.34222,0 c 0,0 -4.18931,-6.12846 -4.59967,-6.73071 2.01857,-0.48313 3.38189,-1.95237 3.38189,-4.0702 0,-2.17076 -1.33685,-4.49375 -5.08939,-4.49375 l -4.34154,0 z"
     id="path4"
     inkscape:connector-curvature="0"
     style="fill:#ffb500;fill-opacity:1" />
  <path
     d="m 207.74597,148.45812 c -0.10592,-21.05249 17.81618,-33.455 34.95728,-33.95134 14.30859,-0.43683 24.01087,4.93717 28.59066,8.46466 l 0,22.65406 c -5.42694,-5.57247 -14.2424,-10.62219 -23.34904,-10.70822 -7.37263,-0.0663 -15.06302,3.18337 -15.31448,12.44224 -0.25151,9.48386 7.41236,13.23639 17.1411,18.93463 21.76067,12.79298 25.96982,24.28879 25.48011,39.4842 -0.50303,16.66462 -11.9922,34.85143 -37.73698,34.85143 -10.29796,0 -20.47674,-3.21644 -28.64358,-8.08082 l 0,-23.99097 c 6.65792,5.92329 16.59845,10.54279 24.91089,10.60235 9.55668,0.0397 15.84397,-5.43354 15.61897,-14.52032 -0.18532,-8.18011 -4.81804,-12.62093 -16.26754,-19.35163 -21.48269,-12.60767 -25.34772,-22.97177 -25.38739,-36.83027 z M 144.59508,137.366 c 2.11781,-1.0523 5.70491,-1.87955 9.22577,-1.87955 15.12921,0 21.39003,12.0716 21.39003,41.25783 0,28.47813 -7.1609,42.23737 -22.15772,42.23737 -3.52091,0 -6.59173,-0.86698 -8.45808,-1.56851 l 0,-80.04714 z m 0,156.19614 -26.06248,0 0,-169.78991 c 9.45082,-6.09534 20.91352,-9.26545 35.11619,-9.26545 31.09231,0 48.19374,23.59387 48.19374,61.57573 0,38.05462 -16.59846,64.10385 -45.51997,64.10385 -5.34754,0 -9.11991,-0.70815 -11.72748,-1.48247 l 0,54.85825 z m -117.53922,-94.52775 0,-81.88699 26.042617,0 0,83.05179 c 0,7.38592 1.786912,18.32581 13.729455,18.32581 5.294559,0 9.490497,-1.23761 12.323085,-3.18336 l 0,-98.19424 26.009533,0 0,113.01901 c -9.940543,6.77042 -23.309304,10.46337 -39.259168,10.46337 -25.774577,0 -38.845522,-13.98425 -38.845522,-41.59539 z M 13.7599,209.53087 c 0,32.84612 12.144396,60.27193 35.222054,79.07424 20.374131,16.61168 83.071646,44.9839 100.768706,52.78676 17.44555,-7.69035 80.00081,-35.7118 100.72901,-52.78676 23.22986,-19.12659 35.24853,-45.91707 35.24853,-79.07424 l 0,-172.5828 C 198.55329,28.8388 95.388773,33.8157 13.7599,108.68937 l -0.0033,100.8415 z"
     id="path6"
     inkscape:connector-curvature="0"
     style="fill:#351c15;fill-opacity:1" />
</svg>
