<?xml version="1.0" encoding="UTF-8" standalone="no"?>
<svg width="85px" height="80px" viewBox="0 0 85 80" version="1.1" xmlns="http://www.w3.org/2000/svg" xmlns:xlink="http://www.w3.org/1999/xlink">
    <!-- Generator: Sketch 39.1 (31720) - http://www.bohemiancoding.com/sketch -->
    <title>who</title>
    <desc>Created with Sketch.</desc>
    <defs></defs>
    <g id="Page-1" stroke="none" stroke-width="1" fill="none" fill-rule="evenodd">
        <g id="Artboard" transform="translate(-291.000000, -179.000000)">
            <g id="who" transform="translate(291.000000, 180.000000)">
                <path d="M30.5756608,20.6845815 C30.5756608,20.6845815 29.6545154,21.2874449 28.6903084,23.4686123 C28.8831498,22.5830396 29.1115639,21.9839207 29.1115639,21.9839207 C29.1115639,21.9839207 28.1155286,22.4856828 27.3984581,22.1280837 C28.2222467,22.2610132 28.9187225,21.9352423 29.4448238,21.3492291 C29.9727974,20.7632159 30.0270925,20.2502203 30.0270925,20.2502203 L30.5756608,20.6845815" id="Fill-1" fill="#FFFFFF"></path>
                <path d="M29.6376652,20.4542952 C29.6245595,20.392511 29.5047357,19.8270925 30.0551762,18.8984581 C30.189978,18.6681718 30.2779736,18.3199339 30.3678414,17.9511013 C30.4839207,17.4699339 30.6187225,16.9232379 30.910793,16.5038546 C31.3825991,15.8186123 32.0753304,14.9367841 32.3842511,14.601652 C33.6555066,13.2199339 34.8668502,12.9559471 35.8404185,12.742511 C36.117511,12.6807269 36.3758811,12.6264317 36.6174009,12.5440529 C36.71663,12.5122247 36.8476872,12.4410793 37.0274229,12.3493392 C37.8418502,11.9262115 39.5362335,11.05 42.8089207,10.8796256 C51.5747797,10.4265419 55.0384361,15.140859 55.227533,18.4229075 C55.4390969,22.0400881 53.8008811,24.6986784 50.2192731,26.5503304 C48.5305066,27.4265419 46.461674,27.9077093 44.465859,28.3738987 C43.2151982,28.6640969 41.9252203,28.9655286 40.7213656,29.3587004 C39.4557269,29.7743392 38.6469163,30.4539648 38.3810573,31.320815 C38.1601322,32.0528634 38.3511013,32.8785242 38.9071586,33.5918502 C39.3845815,34.2040749 40.0267621,34.5335903 40.9759912,34.8986784 C41.4702643,35.0896476 41.9270925,35.2487885 42.370815,35.404185 C42.9006608,35.5914097 43.4080396,35.7692731 43.9397577,35.9827093 L44.2542952,36.1081498 C45.3046256,36.5256608 47.0589207,37.2202643 48.4069383,38.2312775 C50.0376652,39.4557269 50.878304,41.1276432 50.6592511,42.7078194 C50.445815,44.2280837 49.307489,45.4581498 47.4502203,46.1714758 C46.5403084,46.5197137 45.8307269,46.7593612 45.1960352,46.9709251 C44.6493392,47.152533 44.1606828,47.3154185 43.6495595,47.5176211 C42.0338106,48.1504405 41.4234581,48.4200441 41.5245595,49.1689427 C41.6312775,49.9459251 42.5205947,50.3690529 43.645815,50.9045154 C45.634141,51.8518722 48.3582599,53.1493392 48.2515419,57.5303965 L48.2066079,59.3221366 L47.7048458,57.5996696 C46.8548458,54.673348 44.6811674,53.8589207 42.5767621,53.0725771 L42.3914097,53.003304 C40.4199339,52.2656388 38.5682819,51.3332599 38.3623348,49.5359031 C38.1582599,47.7179515 38.4915198,45.8662996 42.2828194,44.6362335 C44.3928414,43.9547357 46.6320485,43.1403084 46.5477974,42.1311674 C46.4448238,40.8898678 43.8274229,40.064207 41.0546256,39.1879956 C40.2626652,38.9371145 39.4388767,38.6768722 38.6244493,38.3960352 C35.8404185,37.4299559 34.4736784,36.1062775 33.9138767,33.8258811 C33.0470264,30.319163 34.6346916,27.2430617 38.1620044,25.5973568 C39.4014317,25.0188326 41.4534141,24.5526432 43.2676211,24.1463656 C44.2730176,23.9179515 45.2222467,23.7026432 45.9468062,23.489207 C49.3449339,22.4875551 50.5375551,20.3887665 50.5225771,18.8947137 C50.5019824,16.9737885 48.8581498,15.4385463 46.1246696,14.7888767 C46.0647577,14.7757709 40.11663,13.4127753 37.4355727,17.1497797 C36.7297357,18.1327093 34.3145374,19.6042952 32.9365639,20.3943833 C30.7348018,21.6581498 30.0327093,21.0552863 29.9147577,20.9223568 L29.6694934,20.5329295 L29.6376652,20.4542952" id="Fill-2" fill="#FFFFFF"></path>
                <path d="M29.6376652,20.4542952 C29.6245595,20.392511 29.5047357,19.8270925 30.0551762,18.8984581 C30.189978,18.6681718 30.2779736,18.3199339 30.3678414,17.9511013 C30.4839207,17.4699339 30.6187225,16.9232379 30.910793,16.5038546 C31.3825991,15.8186123 32.0753304,14.9367841 32.3842511,14.601652 C33.6555066,13.2199339 34.8668502,12.9559471 35.8404185,12.742511 C36.117511,12.6807269 36.3758811,12.6264317 36.6174009,12.5440529 C36.71663,12.5122247 36.8476872,12.4410793 37.0274229,12.3493392 C37.8418502,11.9262115 39.5362335,11.05 42.8089207,10.8796256 C51.5747797,10.4265419 55.0384361,15.140859 55.227533,18.4229075 C55.4390969,22.0400881 53.8008811,24.6986784 50.2192731,26.5503304 C48.5305066,27.4265419 46.461674,27.9077093 44.465859,28.3738987 C43.2151982,28.6640969 41.9252203,28.9655286 40.7213656,29.3587004 C39.4557269,29.7743392 38.6469163,30.4539648 38.3810573,31.320815 C38.1601322,32.0528634 38.3511013,32.8785242 38.9071586,33.5918502 C39.3845815,34.2040749 40.0267621,34.5335903 40.9759912,34.8986784 C41.4702643,35.0896476 41.9270925,35.2487885 42.370815,35.404185 C42.9006608,35.5914097 43.4080396,35.7692731 43.9397577,35.9827093 L44.2542952,36.1081498 C45.3046256,36.5256608 47.0589207,37.2202643 48.4069383,38.2312775 C50.0376652,39.4557269 50.878304,41.1276432 50.6592511,42.7078194 C50.445815,44.2280837 49.307489,45.4581498 47.4502203,46.1714758 C46.5403084,46.5197137 45.8307269,46.7593612 45.1960352,46.9709251 C44.6493392,47.152533 44.1606828,47.3154185 43.6495595,47.5176211 C42.0338106,48.1504405 41.4234581,48.4200441 41.5245595,49.1689427 C41.6312775,49.9459251 42.5205947,50.3690529 43.645815,50.9045154 C45.634141,51.8518722 48.3582599,53.1493392 48.2515419,57.5303965 L48.2066079,59.3221366 L47.7048458,57.5996696 C46.8548458,54.673348 44.6811674,53.8589207 42.5767621,53.0725771 L42.3914097,53.003304 C40.4199339,52.2656388 38.5682819,51.3332599 38.3623348,49.5359031 C38.1582599,47.7179515 38.4915198,45.8662996 42.2828194,44.6362335 C44.3928414,43.9547357 46.6320485,43.1403084 46.5477974,42.1311674 C46.4448238,40.8898678 43.8274229,40.064207 41.0546256,39.1879956 C40.2626652,38.9371145 39.4388767,38.6768722 38.6244493,38.3960352 C35.8404185,37.4299559 34.4736784,36.1062775 33.9138767,33.8258811 C33.0470264,30.319163 34.6346916,27.2430617 38.1620044,25.5973568 C39.4014317,25.0188326 41.4534141,24.5526432 43.2676211,24.1463656 C44.2730176,23.9179515 45.2222467,23.7026432 45.9468062,23.489207 C49.3449339,22.4875551 50.5375551,20.3887665 50.5225771,18.8947137 C50.5019824,16.9737885 48.8581498,15.4385463 46.1246696,14.7888767 C46.0647577,14.7757709 40.11663,13.4127753 37.4355727,17.1497797 C36.7297357,18.1327093 34.3145374,19.6042952 32.9365639,20.3943833 C30.7348018,21.6581498 30.0327093,21.0552863 29.9147577,20.9223568 L29.6694934,20.5329295 L29.6376652,20.4542952 L29.6376652,20.4542952 Z" id="Stroke-3" stroke="#FFFFFF" stroke-width="0.297"></path>
                <path d="M42.6123348,44.207489 C43.09163,44.063326 43.4660793,43.9135463 43.7375551,43.8105727 L43.8835903,43.752533 L44.0389868,43.6944934 L44.0595815,43.5297357 C44.0689427,43.4623348 44.0932819,41.953304 44.2056167,33.6049559 C44.2374449,31.2047357 44.2617841,29.2688326 44.2655286,29.0947137 L44.2730176,28.7670705 L43.9491189,28.8138767 C43.3780837,28.8962555 41.642511,29.3661894 41.1744493,29.5459251 L40.9947137,29.6151982 L40.9984581,29.8099119 C41.0022026,30.1188326 41.217511,44.3048458 41.217511,44.3048458 L41.2212555,44.6942731 L41.5863436,44.5632159 C41.5863436,44.5632159 42.1049559,44.3759912 42.6123348,44.207489" id="Fill-4" fill="#FFFFFF"></path>
                <path d="M42.6123348,44.207489 C43.09163,44.063326 43.4660793,43.9135463 43.7375551,43.8105727 L43.8835903,43.752533 L44.0389868,43.6944934 L44.0595815,43.5297357 C44.0689427,43.4623348 44.0932819,41.953304 44.2056167,33.6049559 C44.2374449,31.2047357 44.2617841,29.2688326 44.2655286,29.0947137 L44.2730176,28.7670705 L43.9491189,28.8138767 C43.3780837,28.8962555 41.642511,29.3661894 41.1744493,29.5459251 L40.9947137,29.6151982 L40.9984581,29.8099119 C41.0022026,30.1188326 41.217511,44.3048458 41.217511,44.3048458 L41.2212555,44.6942731 L41.5863436,44.5632159 C41.5863436,44.5632159 42.1049559,44.3759912 42.6123348,44.207489 L42.6123348,44.207489 Z" id="Stroke-5" stroke="#FFFFFF" stroke-width="0.297"></path>
                <path d="M44.0427313,48.1111233 C44.0427313,48.609141 43.6401982,62.2185022 43.5840308,63.0329295 C43.4267621,65.3470264 42.8707048,65.3488987 42.6890969,65.3507709 C42.1817181,65.3526432 41.8559471,64.5269824 41.7211454,62.8868943 C41.6312775,61.8122247 41.3242291,50.1968062 41.369163,49.6613436 C41.4552863,48.6690529 42.6535242,48.169163 43.6832599,47.8452643 L44.0427313,47.7329295 L44.0427313,48.1111233" id="Fill-6" fill="#FFFFFF"></path>
                <path d="M44.0427313,48.1111233 C44.0427313,48.609141 43.6401982,62.2185022 43.5840308,63.0329295 C43.4267621,65.3470264 42.8707048,65.3488987 42.6890969,65.3507709 C42.1817181,65.3526432 41.8559471,64.5269824 41.7211454,62.8868943 C41.6312775,61.8122247 41.3242291,50.1968062 41.369163,49.6613436 C41.4552863,48.6690529 42.6535242,48.169163 43.6832599,47.8452643 L44.0427313,47.7329295 L44.0427313,48.1111233 L44.0427313,48.1111233 Z" id="Stroke-7" stroke="#FFFFFF" stroke-width="0.297"></path>
                <path d="M40.7457048,24.0714758 C40.7457048,22.6972467 40.5509912,8.66662996 40.4405286,8.00198238 C40.4012115,7.77918502 40.3450441,7.49647577 40.2813877,7.17257709 C39.9144273,5.3845815 39.3022026,2.38898678 40.5060573,0.913656388 C40.9741189,0.340748899 41.664978,0.0505506608 42.5655286,0.0505506608 C43.4904185,0.0505506608 44.1962555,0.331387665 44.6605727,0.889317181 C45.7221366,2.16057269 45.2802863,4.5907489 44.9620044,6.36376652 C44.8571586,6.93480176 44.7654185,7.44218062 44.7373348,7.82599119 C44.6905286,8.50936123 44.3553965,22.1617841 44.3553965,23.3637665 L44.3553965,23.5603524 L44.1719163,23.6258811 C43.6813877,23.8018722 43.076652,23.9179515 42.4887665,24.0265419 C42.0019824,24.1201542 41.5189427,24.2118943 41.103304,24.339207 L40.7457048,24.4477974 L40.7457048,24.0714758" id="Fill-8" fill="#FFFFFF"></path>
                <path d="M40.7457048,24.0714758 C40.7457048,22.6972467 40.5509912,8.66662996 40.4405286,8.00198238 C40.4012115,7.77918502 40.3450441,7.49647577 40.2813877,7.17257709 C39.9144273,5.3845815 39.3022026,2.38898678 40.5060573,0.913656388 C40.9741189,0.340748899 41.664978,0.0505506608 42.5655286,0.0505506608 C43.4904185,0.0505506608 44.1962555,0.331387665 44.6605727,0.889317181 C45.7221366,2.16057269 45.2802863,4.5907489 44.9620044,6.36376652 C44.8571586,6.93480176 44.7654185,7.44218062 44.7373348,7.82599119 C44.6905286,8.50936123 44.3553965,22.1617841 44.3553965,23.3637665 L44.3553965,23.5603524 L44.1719163,23.6258811 C43.6813877,23.8018722 43.076652,23.9179515 42.4887665,24.0265419 C42.0019824,24.1201542 41.5189427,24.2118943 41.103304,24.339207 L40.7457048,24.4477974 L40.7457048,24.0714758 L40.7457048,24.0714758 Z" id="Stroke-9" stroke="#FFFFFF" stroke-width="0.297"></path>
                <polyline id="Fill-10" fill="#FFFFFF" points="34.735793 15.7643172 33.8296256 15.8317181 32.7268722 16.8764317 32.5976872 17.4493392 33.2361233 17.554185 34.4362335 16.2567181 34.735793 15.7643172"></polyline>
                <path d="M55.2612335,27.7560573 L55.2612335,27.4265419 L55.0683921,27.6755507 L55.1245595,27.9769824 L55.2612335,27.7560573 L55.2612335,27.7560573 Z M55.1245595,29.3512115 L55.2612335,29.4335903 L55.4259912,29.188326 L55.6712555,28.748348 L55.5364537,28.7745595 L55.3136564,28.8831498 L55.2050661,28.2522026 L55.0683921,28.3626652 L55.1788546,28.748348 L55.0421806,29.0479075 L54.8493392,28.9936123 L54.6003304,29.1602423 L54.6265419,29.5702643 L55.1245595,29.3512115 L55.1245595,29.3512115 Z M55.8640969,27.8384361 L56.1954846,28.0874449 L56.5811674,28.0050661 L56.2759912,27.9226872 L56.1954846,27.5931718 L56.1954846,27.3422907 L56.0288546,27.040859 L55.8098018,27.1251101 L55.7012115,27.040859 L55.3698238,27.3422907 L55.8940529,27.6193833 L55.8640969,27.8384361 L55.8640969,27.8384361 Z M58.5563877,25.3951542 L58.8334802,25.6685022 L58.9701542,25.6404185 L59.1910793,25.7789648 L59.1349119,25.6123348 L58.5844714,25.2285242 L58.2287445,24.8971366 L58.3935022,25.3951542 L58.5563877,25.3951542 L58.5563877,25.3951542 Z M54.0517621,30.038326 L54.1884361,29.7631057 L53.5855727,29.7911894 L53.3103524,29.9821586 L53.6117841,30.0926211 L54.0517621,30.038326 L54.0517621,30.038326 Z M60.4548458,30.0926211 L60.7038546,30.5325991 L60.6196035,30.6992291 L60.8386564,31.4387665 L61.0314978,31.4949339 L61.0314978,30.6992291 L60.8105727,30.4221366 L60.7300661,29.5964758 L60.3481278,28.6004405 L60.2657489,28.7764317 L60.372467,29.3512115 L60.4548458,30.0926211 L60.4548458,30.0926211 Z M58.8596916,26.1646476 L59.3015419,26.8498899 L59.5748899,26.9865639 L59.1068282,26.190859 L58.8596916,26.1646476 L58.8596916,26.1646476 Z M60.0972467,28.0874449 L60.2620044,28.1698238 L59.8501101,27.3422907 L59.629185,27.2898678 L59.8501101,27.647467 L60.0972467,28.0874449 L60.0972467,28.0874449 Z M55.3379956,22.0700441 C55.3174009,22.1262115 55.2986784,22.1861233 55.2743392,22.244163 L55.4802863,22.3976872 L55.7012115,22.3153084 L55.3379956,22.0700441 L55.3379956,22.0700441 Z M18.7599119,50.7659692 L18.7299559,50.5019824 L18.434141,50.1462555 L18.2581498,50.2061674 L18.5820485,50.6180617 L18.5520925,50.7360132 L18.8179515,51.0337004 L18.995815,51.4156388 L19.1437225,51.3557269 L18.995815,51.0337004 L18.7599119,50.7659692 L18.7599119,50.7659692 Z M56.1168502,14.6334802 L56.4238987,14.8562775 L57.1540749,15.1090308 L57.4049559,15.5564978 L57.5996696,15.5564978 L57.5453744,15.0790749 L57.3207048,14.9105727 L57.3768722,14.6596916 L56.9294053,14.4631057 L56.7627753,14.6334802 L56.5362335,14.5192731 L56.6485683,14.2683921 L56.1168502,14.6334802 L56.1168502,14.6334802 Z M47.152533,57.6034141 L47.1787445,57.6165198 C47.1731278,57.6034141 47.1693833,57.5921806 47.167511,57.5772026 L47.152533,57.6034141 L47.152533,57.6034141 Z M69.6082599,48.0568282 C68.1460352,51.5111233 66.0566079,54.6171806 63.4017621,57.2870044 L59.5580396,53.4432819 C61.7129956,51.2714758 63.4111233,48.7476872 64.5981278,45.9374449 C65.7944934,43.1159692 66.414207,40.1203744 66.4628855,37.0367841 L71.8961454,37.0367841 C71.8512115,40.8542952 71.0873348,44.5594714 69.6082599,48.0568282 L69.6082599,48.0568282 Z M58.7754405,52.6606828 L58.8053965,52.4640969 L59.0806167,52.2188326 L58.8334802,50.9812775 L58.8896476,50.6517621 L58.6125551,50.1294053 L58.4477974,49.9627753 L58.6125551,49.9365639 L58.3935022,49.6351322 L57.8692731,49.6070485 L57.8692731,50.0189427 L57.678304,50.1818282 L57.8187225,50.5132159 L57.5959251,51.1460352 L57.4292952,51.2546256 L57.4948238,51.3838106 L55.3623348,49.2494493 C58.6144273,45.9655286 60.4379956,41.6443833 60.5297357,37.0367841 L66.0472467,37.0367841 C65.9555066,43.1197137 63.5571586,48.8263216 59.2659692,53.1512115 L58.7754405,52.6606828 L58.7754405,52.6606828 Z M54.8924009,56.6129956 L54.9017621,56.5867841 L55.0946035,56.2572687 L54.9017621,55.7611233 L55.6169604,55.1582599 L55.5626652,54.7463656 L55.0421806,54.4711454 L55.5626652,53.4545154 L56.1655286,52.4640969 L55.4540749,51.584141 L55.2031938,51.6665198 L54.8755507,51.584141 L54.5722467,50.9251101 L54.4355727,50.9812775 L54.6003304,50.3484581 L54.7051762,49.869163 C54.825,49.7587004 54.9485683,49.6501101 55.0665198,49.5377753 L57.4461454,51.9174009 L57.4573789,51.9417401 L57.4742291,51.9454846 L58.9682819,53.4395374 C57.7176211,54.65837 56.3471366,55.7161894 54.8924009,56.6129956 L54.8924009,56.6129956 Z M54.270815,47.1038546 L53.3571586,47.8246696 L53.2279736,47.9295154 L53.1437225,47.7928414 L52.7037445,47.7928414 L52.0727974,47.9295154 L51.4680617,47.6823789 L51.1628855,47.6823789 L50.6985683,47.326652 L50.3971366,47.3528634 L50.1200441,47.1038546 L49.6800661,47.0757709 L49.4628855,46.7743392 L49.2681718,46.7013216 C49.2831498,46.6919604 49.2962555,46.6844714 49.3093612,46.6732379 L49.573348,46.7200441 L49.573348,46.58337 L50.2024229,46.6938326 L50.423348,46.8305066 L51.1104626,46.9409692 L51.1628855,47.1038546 L51.7151982,47.1038546 L52.4584802,47.326652 L52.6700441,47.6767621 L53.117511,47.6542952 L53.4451542,47.2985683 L53.7222467,46.7481278 L54.1322687,45.6753304 L54.0517621,45.4843612 L54.2427313,45.2896476 L54.4093612,44.632489 L54.2988987,44.3572687 L54.4355727,44.1363436 L54.2427313,43.889207 L54.1884361,43.2301762 L53.7222467,43.3387665 L53.4451542,43.7263216 L53.0332599,43.6982379 L53.0875551,44.1906388 L52.7599119,44.6044053 L52.4846916,44.4677313 L52.2356828,44.6867841 L51.6047357,44.7429515 L51.5803965,44.7186123 C51.7170705,44.5650881 51.85,44.4078194 51.9829295,44.2468062 L52.2637665,44.2468062 L52.570815,44.1906388 L52.8703744,43.8629956 L52.9246696,43.6008811 L53.2279736,43.5877753 L53.8027533,42.7340308 L54.270815,41.7454846 L55.5064978,41.1707048 L55.4802863,40.8374449 L55.3136564,40.6745595 L55.3960352,40.5640969 L55.7817181,40.7550661 L56.6073789,40.921696 L57.2664097,40.6464758 L58.3373348,40.4255507 L58.0639868,39.6560573 L57.5959251,39.1898678 L57.0192731,39.1636564 L56.2759912,37.3737885 L56.1655286,37.4580396 L55.8940529,37.2389868 L56.1131057,37.1004405 L56.1018722,37.0367841 L60.1159692,37.0367841 C60.0261013,41.5339207 58.2437225,45.7520925 55.0702643,48.9573789 L54.9504405,48.8375551 L54.984141,48.6990088 L55.1245595,48.0118943 L54.984141,46.9409692 L54.7370044,46.3081498 L54.5722467,46.4729075 L54.270815,46.9128855 L54.270815,47.1038546 L54.270815,47.1038546 Z M50.7790749,31.6053965 L51.2471366,31.4387665 L50.726652,31.0811674 L51.0280837,30.7235683 L50.9719163,30.5325991 L51.4680617,30.3135463 L51.0018722,29.7631057 L50.4495595,30.2592511 L50.3671806,30.6168502 L50.0114537,30.4502203 L49.6257709,30.5045154 L49.5171806,30.2592511 L49.5115639,30.2555066 L50.4027533,29.3680617 L50.4776432,29.461674 L51.2471366,29.4897577 L51.5092511,29.1752203 C51.8799559,29.6114537 52.2169604,30.0738987 52.5183921,30.5625551 L52.5109031,30.5606828 L52.1270925,31.3844714 L51.5204846,31.0549559 L51.3575991,31.0811674 L51.5204846,31.4106828 L51.7151982,31.5492291 L51.5204846,32.0172907 L51.439978,31.7963656 L50.7790749,31.6053965 L50.7790749,31.6053965 Z M50.7697137,28.9992291 L51.0786344,28.6921806 C51.1909692,28.8082599 51.3014317,28.9299559 51.4062775,29.0535242 L51.0561674,29.3512115 L50.7547357,29.3231278 L50.6442731,29.2126652 L50.8895374,29.0479075 L50.7697137,28.9992291 L50.7697137,28.9992291 Z M55.2256608,24.5451542 C55.6375551,24.9720264 56.0251101,25.4176211 56.3864537,25.8781938 L56.1655286,25.9980176 L55.9202643,26.0523128 L56.3059471,26.1646476 L56.4856828,26.0073789 C56.6598018,26.2301762 56.8226872,26.4567181 56.9855727,26.6851322 L56.798348,26.6851322 L56.798348,26.7955947 L56.9930617,26.8498899 L57.5678414,27.7560573 L57.7307269,27.8365639 C57.7981278,27.9526432 57.8617841,28.0705947 57.9254405,28.186674 L57.9254405,28.5536344 L57.54163,28.9655286 L57.4330396,28.6640969 L57.101652,28.6098018 L57.2401982,28.9655286 L56.9930617,29.2126652 L57.5959251,29.4335903 L57.8449339,29.7911894 L58.3373348,29.9297357 L58.3654185,30.1487885 L58.8053965,30.2592511 L58.8896476,30.9444934 L59.1536344,30.9070485 C59.3090308,31.3507709 59.4400881,31.8019824 59.5617841,32.2606828 L59.5486784,32.2644273 L59.2715859,32.732489 L58.8896476,32.9234581 L58.6125551,33.719163 L57.8973568,34.1329295 L57.6520925,33.6929515 L57.8692731,32.6482379 L58.2006608,32.4029736 L57.0997797,31.5492291 L56.525,31.852533 L56.0045154,32.9234581 L55.4540749,32.6201542 L55.2855727,32.1820485 L55.5888767,32.0435022 L55.7274229,32.2363436 L55.9726872,32.155837 L55.8940529,31.8263216 L55.5364537,31.7139868 L55.5626652,31.9349119 L55.3136564,31.9349119 L55.0421806,31.5230176 L54.4093612,30.8901982 L53.6660793,30.3659692 L52.9770925,30.3135463 L52.9078194,30.4090308 C52.4659692,29.6844714 51.9511013,29.0123348 51.3688326,28.3982379 L55.2256608,24.5451542 L55.2256608,24.5451542 Z M57.9797357,27.3741189 L57.9685022,27.4377753 C57.9460352,27.4022026 57.9235683,27.3647577 57.8992291,27.3273128 L57.9797357,27.3741189 L57.9797357,27.3741189 Z M56.8825991,34.9567181 L57.6520925,34.4624449 L58.5844714,34.3819383 L58.8334802,33.8577093 L59.1349119,33.6929515 L59.5486784,32.9777533 L59.6497797,32.610793 C59.6816079,32.7455947 59.7078194,32.8822687 59.7396476,33.0170705 L59.5748899,33.445815 L59.629185,33.5562775 L59.4101322,33.9962555 L59.4363436,34.2153084 L59.0001101,34.8219163 L59.0806167,35.2038546 L59.2453744,35.2319383 L59.6853524,34.5448238 L59.6853524,34.1329295 L59.9044053,34.0767621 L59.9287445,34.0430617 C60.054185,34.8911894 60.1234581,35.7505507 60.1253304,36.6211454 L55.970815,36.6211454 L55.8640969,36.55 L55.8940529,36.2204846 L56.2497797,36.0856828 L56.525,35.7 L57.1840308,35.6176211 L57.1840308,35.3424009 L56.8825991,34.9567181 L56.8825991,34.9567181 Z M55.5289648,24.239978 L56.0045154,24.7604626 L56.2497797,23.9928414 L55.8640969,23.936674 L55.8640969,23.9067181 L57.0660793,22.7047357 L57.8542952,23.5210352 L58.6125551,23.4648678 L58.8634361,23.8861233 L58.9476872,24.5301762 L60.4623348,25.4288546 L60.8817181,25.3726872 L61.8927313,26.5222467 L62.1174009,27.1101322 L62.8194934,27.8421806 L63.6301762,27.8103524 L63.9915198,27.048348 C65.3339207,30.0196035 66.0472467,33.2660793 66.0547357,36.6211454 L60.5390969,36.6211454 C60.5334802,35.5745595 60.4379956,34.5410793 60.2601322,33.5300661 L60.509141,33.1443833 L60.6476872,33.1443833 L60.9491189,31.852533 L60.7300661,31.7963656 L60.7862335,31.5773128 L60.235793,31.6053965 L60.1253304,31.4668502 L60.0148678,31.7139868 L60.3462555,31.989207 L60.0972467,32.0734581 L60.0036344,32.3168502 C59.8725771,31.7888767 59.7171806,31.2665198 59.5393172,30.7535242 L59.8501101,30.2835903 L59.7677313,29.735022 L59.492511,29.6807269 L59.3839207,29.0778634 L59.5486784,28.9393172 L59.2453744,28.5255507 L58.7230176,28.5817181 L58.5488987,28.4656388 C58.4346916,28.2447137 58.3148678,28.0294053 58.1894273,27.8103524 L58.7230176,27.8103524 L58.6144273,27.5370044 L58.9701542,27.4265419 L58.9701542,27.1513216 L58.7230176,27.1251101 L58.3654185,27.3984581 L58.2549559,27.2898678 L58.5563877,26.8218062 L58.3111233,26.6570485 L58.0096916,27.0970264 L57.6427313,26.9135463 C57.352533,26.4698238 57.0379956,26.0373348 56.7066079,25.6179515 L56.7159692,25.5056167 L56.6710352,25.5655286 C56.3078194,25.1124449 55.9258811,24.6762115 55.5177313,24.2530837 L55.5289648,24.239978 L55.5289648,24.239978 Z M63.5552863,16.2155286 C66.1352423,18.851652 68.1741189,21.8977974 69.6082599,25.2846916 C71.126652,28.8756608 71.8998899,32.6894273 71.9055066,36.6211454 L66.4703744,36.6211454 C66.4647577,33.4252203 65.8338106,30.3247797 64.5981278,27.4040749 C64.4801762,27.1194934 64.3509912,26.8405286 64.2218062,26.5653084 L64.3622247,26.2694934 L64.6674009,26.4660793 L64.7816079,26.1290749 L62.9580396,23.1559471 L62.5667401,23.0454846 L59.8725771,19.960022 L59.8725771,19.8982379 L63.5552863,16.2155286 L63.5552863,16.2155286 Z M15.7118943,48.0568282 C14.2346916,44.5594714 13.4689427,40.8542952 13.4221366,37.0367841 L18.859141,37.0367841 C18.8947137,39.4444934 19.2860132,41.7960352 20.0236784,44.0577093 L19.6174009,44.329185 L18.5520925,43.7375551 L18.3161894,43.9753304 L18.0222467,43.8274229 L17.8443833,43.9753304 L17.9604626,44.359141 L17.3426211,44.329185 L16.9868943,44.1232379 L17.0187225,43.797467 L16.9307269,43.5334802 L16.7528634,43.5334802 L16.7809471,43.8274229 L16.7528634,44.0052863 L16.6049559,43.9453744 L16.1612335,44.1531938 L16.4570485,44.3872247 L16.0732379,44.2992291 L15.8953744,44.5070485 L16.1013216,44.5950441 L15.8335903,44.5950441 L15.8335903,45.0368943 L15.9552863,45.2746696 L16.1013216,45.3907489 L15.8654185,45.3907489 L15.9852423,45.7764317 L16.2192731,45.8644273 L16.3053965,46.0123348 L16.4570485,46.2800661 L16.5450441,46.5140969 L16.013326,46.1901982 L16.2192731,46.7518722 L15.8654185,45.9823789 L15.8654185,46.484141 L16.1893172,47.2517621 L16.4570485,47.9014317 L17.280837,49.5265419 L17.1965859,49.2026432 L16.5450441,47.6374449 L16.5450441,47.0476872 L16.8689427,46.5140969 L17.9305066,47.7834802 L18.0802863,47.6674009 L17.9042952,46.8698238 L18.1102423,47.015859 L18.434141,47.5794053 L18.9677313,47.7235683 L19.2017621,48.0792952 L19.4095815,48.1092511 L19.2317181,47.6674009 L19.4095815,47.4296256 L19.5855727,48.0493392 L19.967511,48.6690529 L20.3232379,48.6110132 L21.2687225,50.2061674 L21.8004405,50.3540749 L21.948348,49.702533 L22.1561674,49.9683921 L22.9518722,51.121696 L23.9497797,51.3856828 C24.5114537,52.0971366 25.1087004,52.7823789 25.7546256,53.4320485 L21.9109031,57.2757709 C19.2579295,54.6078194 17.1703744,51.5055066 15.7118943,48.0568282 L15.7118943,48.0568282 Z M15.7118943,25.2846916 C17.1422907,21.9052863 19.1755507,18.859141 21.7536344,16.2267621 L25.5973568,20.0704846 C23.519163,22.2048458 21.8772026,24.6687225 20.7201542,27.4040749 C19.4844714,30.3247797 18.8572687,33.4252203 18.851652,36.6211454 L13.4146476,36.6211454 C13.4221366,32.6894273 14.19163,28.8756608 15.7118943,25.2846916 L15.7118943,25.2846916 Z M24.7904185,37.0367841 C24.8072687,37.8755507 24.8821586,38.7068282 25.0132159,39.5231278 L24.7248899,39.3677313 L24.7248899,39.7534141 L24.5189427,39.6635463 L24.3410793,39.3677313 L23.929185,39.5455947 L23.8674009,39.9013216 L22.9237885,41.3485683 L22.6579295,41.4047357 L22.539978,43.8274229 L21.8603524,44.1531938 L21.6544053,44.063326 L21.3305066,44.2093612 L20.5628855,44.1531938 L20.4786344,44.1176211 C19.7259912,41.8596916 19.3103524,39.4781938 19.2729075,37.0367841 L24.7904185,37.0367841 L24.7904185,37.0367841 Z M30.0870044,24.5582599 L33.9382159,28.4113436 C33.0526432,29.347467 32.3112335,30.4277533 31.7570485,31.6110132 L31.5473568,31.5735683 L31.7214758,31.3376652 L31.2796256,31.7196035 L30.9276432,31.9573789 L30.8377753,31.8094714 L30.2161894,32.0435022 L30.2461454,32.2812775 L30.5719163,32.0753304 L31.1335903,32.0435022 L31.6278634,31.9105727 C31.6035242,31.9704846 31.5735683,32.0303965 31.5492291,32.0921806 L30.895815,32.5471366 L30.7497797,32.3992291 L29.9802863,32.9590308 L29.302533,32.8410793 L28.8588106,33.3746696 L28.1810573,34.8780837 L28.2971366,35.2937225 L27.7373348,36.0313877 L27.647467,36.5930617 L27.639978,36.6211454 L25.196696,36.6211454 C25.2079295,32.0828194 26.94163,27.8159692 30.0870044,24.5582599 L30.0870044,24.5582599 Z M32.0172907,32.0491189 C32.0509912,31.9761013 32.0846916,31.897467 32.1183921,31.8244493 L32.2232379,31.8094714 L32.1071586,32.0435022 L32.0172907,32.0491189 L32.0172907,32.0491189 Z M32.7568282,39.1617841 L33.3147577,39.3976872 L33.7004405,39.8694934 L33.878304,39.7534141 L34.5279736,40.1653084 L34.7620044,40.4611233 L34.3220264,40.2832599 L34.2340308,40.4611233 L34.6159692,40.6670705 L35.0297357,40.9928414 L35.0297357,40.785022 L34.9398678,40.4611233 L35.1177313,40.1653084 L35.3255507,40.0473568 L34.9117841,39.5455947 L35.3854626,39.78337 L35.6812775,40.1653084 L35.8853524,40.6951542 L36.3009912,40.785022 L35.4135463,40.9329295 L35.7393172,41.642511 L36.0332599,41.672467 L36.0931718,41.376652 L36.0051762,41.0227974 L36.3871145,40.9928414 L36.6829295,40.489207 L36.8008811,39.7534141 L37.0087004,39.6635463 L37.1921806,39.373348 C37.4748899,39.9406388 37.8343612,40.4611233 38.272467,40.9123348 L34.3838106,44.7991189 C32.6894273,43.0729075 31.5323789,40.822467 31.1747797,38.3155286 L31.3975771,38.3361233 L32.1371145,39.0737885 L32.7568282,39.1617841 L32.7568282,39.1617841 Z M28.6229075,36.1792952 L28.7689427,35.2038546 L29.5665198,34.7900881 L30.5120044,35.0259912 L30.7104626,35.3854626 C30.6674009,35.7917401 30.6449339,36.2036344 30.6393172,36.6211454 L29.1864537,36.6211454 L29.1845815,36.5031938 L28.6229075,36.1792952 L28.6229075,36.1792952 Z M30.2386564,48.9442731 C29.8997797,48.5997797 29.5758811,48.2403084 29.2650881,47.8714758 L29.2707048,47.8714758 L29.4485683,47.2517621 L29.4204846,46.5440529 L28.8588106,45.5686123 L28.8588106,44.5650881 L28.6528634,43.9135463 L28.7988987,43.6495595 L28.209141,42.5879956 L28.2671806,42.2023128 L27.9414097,41.5825991 L27.617511,41.4946035 L28.1511013,41.4047357 L28.0013216,41.2006608 L27.647467,40.4311674 L27.0277533,40.253304 L27.1737885,39.7534141 L26.9397577,38.955837 L27.2355727,38.2762115 L27.9732379,38.2162996 L28.1810573,37.8624449 L28.1042952,37.0367841 L28.5723568,37.0367841 L28.8588106,37.1229075 L29.2126652,37.3007709 L29.203304,37.0367841 L30.6486784,37.0367841 C30.6599119,37.407489 30.6898678,37.7763216 30.7348018,38.1376652 L30.7179515,38.1582599 L30.3940529,38.128304 L29.9222467,38.660022 L30.334141,38.7480176 L30.7816079,38.4802863 C31.169163,41.0340308 32.3580396,43.3294053 34.0917401,45.0930617 L30.2386564,48.9442731 L30.2386564,48.9442731 Z M29.8529736,49.3318282 L29.6264317,48.8993392 C29.735022,49.011674 29.8379956,49.1277533 29.9465859,49.2382159 L29.8529736,49.3318282 L29.8529736,49.3318282 Z M28.4150881,47.8714758 L28.3589207,47.7235683 L28.6528634,47.7722467 C28.7090308,47.8452643 28.7651982,47.9201542 28.8269824,47.9912996 L28.4150881,47.8714758 L28.4150881,47.8714758 Z M26.6720264,40.079185 L26.054185,40.2252203 L25.788326,39.9593612 L25.6104626,39.8414097 L25.4475771,39.6261013 C25.3071586,38.7761013 25.2210352,37.9129956 25.204185,37.0367841 L27.5313877,37.0367841 L27.5014317,37.1528634 L27.1737885,37.7164097 L26.9678414,37.7426211 L26.5840308,38.9839207 L26.9397577,39.5455947 L26.6720264,40.079185 L26.6720264,40.079185 Z M26.046696,53.139978 C25.6329295,52.7243392 25.2435022,52.2918502 24.8653084,51.8518722 L25.226652,52.0053965 L25.5805066,51.8013216 L26.5559471,52.4210352 L26.7169604,52.4697137 L26.046696,53.139978 L26.046696,53.139978 Z M69.988326,25.1236784 C68.4961454,21.5944934 66.3580396,18.4210352 63.6339207,15.6969163 C60.9098018,12.9727974 57.7363436,10.8346916 54.2052863,9.34063877 C51.4118943,8.1592511 48.4818282,7.4253304 45.467511,7.14636564 C45.4450441,7.29240088 45.4244493,7.42907489 45.4094714,7.55451542 C48.3863436,7.83160793 51.280837,8.55242291 54.0424009,9.72070485 C57.4948238,11.1829295 60.5971366,13.2686123 63.2632159,15.9178414 L59.8557269,19.3309471 L59.8463656,19.0912996 L59.5636564,19.1193833 L59.2285242,18.9508811 L58.7230176,18.8104626 L59.4251101,18.6962555 L59.2846916,18.5015419 L58.8915198,18.5015419 L59.0038546,18.1926211 L58.6668502,17.3519824 L57.7700441,16.2585903 L56.8994493,15.6969163 L56.4238987,15.4179515 L56.0588106,15.5022026 L56.0588106,15.277533 L55.2181718,14.9105727 L54.8867841,15.2213656 C55.5027533,16.2735683 55.8229075,17.3538546 55.8753304,18.3161894 C55.9202643,19.0575991 55.8846916,19.7634361 55.7761013,20.4355727 L56.0588106,20.2689427 L56.9593612,21.8959251 L56.3396476,21.9520925 L56.7777533,22.4051762 L55.7367841,23.4461454 L55.2050661,22.78337 L55.2556167,22.2853524 C55.1114537,22.6279736 54.9448238,22.9612335 54.7538546,23.2795154 L54.8212555,23.4143172 L55.4802863,23.496696 L55.545815,23.640859 L55.227533,23.959141 C55.0440529,23.7756608 54.8549559,23.5977974 54.665859,23.4255507 C54.5909692,23.5435022 54.5104626,23.6595815 54.4299559,23.7737885 C54.6003304,23.9310573 54.7707048,24.088326 54.9354626,24.2512115 L51.0805066,28.1042952 C50.7659692,27.7935022 50.4327093,27.503304 50.0825991,27.2280837 C49.9403084,27.2917401 49.7980176,27.3572687 49.6519824,27.4171806 C50.0545154,27.7186123 50.4345815,28.0462555 50.7903084,28.3963656 L50.2922907,28.892511 L50.286674,28.8831498 L50.3690529,28.6098018 L49.9852423,28.7202643 L49.573348,28.6640969 L49.573348,28.3345815 L49.1314978,28.6098018 L48.6634361,29.0479075 L48.8862335,29.188326 L49.3505507,28.8831498 L49.8186123,29.0479075 L49.8186123,29.1321586 L50.1331498,29.0535242 L49.0528634,30.1300661 L47.7853524,30.3940529 L47.4258811,30.8639868 L47.1806167,31.0287445 L47.152533,31.2740088 L47.3472467,31.2477974 L47.5363436,31.4106828 L47.4970264,31.6877753 L47.4052863,31.7795154 L47.0963656,31.7139868 L46.3680617,31.8281938 C46.2276432,31.7196035 46.0853524,31.6185022 45.9355727,31.5230176 L45.8868943,31.4668502 L45.6809471,31.3713656 C45.4244493,31.2234581 45.1604626,31.1017621 44.88337,30.9931718 L44.8627753,32.55837 C44.8534141,33.0526432 44.8440529,33.5188326 44.8384361,33.9719163 L45.0088106,33.885793 L45.1567181,34.0299559 L44.8309471,34.3538546 C44.8290749,34.5560573 44.8253304,34.7526432 44.8215859,34.9492291 L45.4394273,34.3332599 L45.3102423,34.7657489 L45.489978,34.827533 L45.6229075,35.4903084 L45.9692731,35.836674 L45.1492291,35.396696 L45.0799559,35.7112335 C46.1564978,36.1493392 47.6262115,36.7971366 48.8207048,37.6901982 C50.6255507,39.0457048 51.5523128,40.9235683 51.303304,42.7171806 C51.1235683,44.0127753 50.3709251,45.1155286 49.1520925,45.9205947 L49.1876652,46.059141 L48.9386564,46.3624449 L48.4986784,46.4186123 L48.335793,46.6938326 L47.4820485,47.0514317 L46.7125551,47.023348 L46.4935022,47.3528634 L46.6320485,47.5719163 L46.6264317,47.577533 C46.5234581,47.6131057 46.4204846,47.6468062 46.3156388,47.6823789 L45.778304,47.7385463 L45.64163,47.5176211 L45.035022,47.6 L45.027533,47.5962555 C44.9151982,47.6374449 44.8066079,47.6730176 44.6961454,47.714207 L44.6942731,48.1373348 C44.6942731,48.2646476 44.6680617,49.2382159 44.6287445,50.6274229 C46.58337,51.6066079 49.0023128,53.2129956 48.9012115,57.4723568 C48.9012115,57.4723568 48.8562775,58.247467 48.6334802,58.809141 L48.6372247,58.8128855 L49.4816079,59.060022 C47.8246696,59.5617841 46.1022026,59.8819383 44.3422907,60.0073789 C44.3385463,60.1477974 44.3329295,60.2882159 44.329185,60.4211454 C46.180837,60.2957048 47.9950441,59.9549559 49.7549559,59.4045154 L50.1200441,59.5280837 L50.5038546,59.8575991 L50.977533,59.6759912 L51.7151982,59.5 L52.01663,59.226652 L52.8422907,58.8690529 L53.6660793,58.2905286 L54.6003304,57.3562775 L54.6433921,57.2439427 C56.3153084,56.2685022 57.8580396,55.0964758 59.2603524,53.7316079 L63.1040749,57.5753304 C60.471696,60.1515419 57.4292952,62.1885463 54.0424009,63.620815 C50.438326,65.1429515 46.6095815,65.9180617 42.6610132,65.9180617 C38.7124449,65.9180617 34.8818282,65.1429515 31.2758811,63.620815 C27.8889868,62.186674 24.8409692,60.1477974 22.2048458,57.5659692 L26.0485683,53.7222467 C28.1848018,55.804185 30.6524229,57.4498899 33.3915198,58.6106828 C35.8497797,59.6497797 38.4353524,60.2526432 41.095815,60.4248899 C41.0939427,60.2900881 41.088326,60.1515419 41.0845815,60.0092511 C35.5296256,59.6404185 30.3566079,57.3394273 26.3406388,53.4301762 L27.1606828,52.6101322 L27.8534141,53.2167401 L29.302533,53.1006608 L29.8922907,52.5090308 L30.6898678,52.5371145 L31.427533,52.6251101 L31.8113436,52.3311674 L31.7813877,51.9773128 L31.3694934,51.5055066 L30.8677313,50.5300661 L30.3659692,50.3241189 L30.0495595,49.717511 L30.2405286,49.5265419 C33.1762115,52.3629956 36.9113436,54.0817181 40.9310573,54.4655286 C40.9273128,54.3251101 40.9235683,54.1865639 40.921696,54.0498899 C37.0161894,53.6660793 33.3877753,51.9904185 30.5344714,49.2325991 L34.3894273,45.3795154 C35.404185,46.3455947 36.5855727,47.1338106 37.8886564,47.7011013 C37.9167401,47.5625551 37.954185,47.4277533 37.9991189,47.2910793 C36.7671806,46.7481278 35.6457048,46.0029736 34.6814978,45.0893172 L38.5720264,41.1987885 C39.1786344,41.7492291 39.8975771,42.1723568 40.6876652,42.4438326 L40.6820485,42.0075991 C40.0061674,41.7529736 39.3920705,41.3803965 38.8622247,40.9048458 L39.1187225,40.648348 L39.2535242,40.6427313 L39.4912996,40.4087004 L40.0099119,40.4742291 L40.3132159,40.3057269 L40.6502203,40.2720264 L40.6389868,39.5792952 L39.4501101,39.1936123 L39.4070485,39.2329295 L38.9202643,39.3153084 L38.5682819,39.8020925 L38.41663,40.4236784 L38.4241189,40.4611233 C37.9429515,39.9200441 37.559141,39.2947137 37.3101322,38.6038546 L37.3438326,38.4222467 C36.989978,38.2631057 36.6623348,38.090859 36.3590308,37.9073789 L36.0931718,38.0384361 L35.7973568,37.8624449 L35.3573789,38.0384361 L35.1177313,37.8343612 L35.3854626,37.5647577 L35.7374449,37.4973568 C34.5204846,36.5930617 33.7828194,35.434141 33.4027533,33.8970264 C33.1762115,32.9721366 33.1069383,32.0753304 33.1855727,31.2197137 L32.6388767,31.4237885 L32.2943833,31.4631057 C32.6519824,30.7497797 33.0863436,30.0813877 33.5787445,29.461674 C33.7566079,28.9805066 33.9812775,28.5161894 34.265859,28.0799559 C34.2527533,28.0911894 34.2377753,28.1024229 34.2265419,28.1136564 L30.3734581,24.2605727 C33.0657489,21.5963656 36.4676211,19.9132159 40.1540749,19.3852423 C40.1522026,19.2485683 40.1522026,19.1081498 40.1503304,18.9696035 C36.3534141,19.4994493 32.8504405,21.227533 30.0813877,23.9685022 L29.1471366,23.0342511 C29.1471366,23.0398678 29.1433921,23.0417401 29.1433921,23.0436123 C29.0685022,23.1952643 29.0123348,23.3263216 28.9655286,23.4367841 L29.7930617,24.2643172 C26.5727974,27.602533 24.7960352,31.9742291 24.7848018,36.6211454 L19.2635463,36.6211454 C19.276652,30.5007709 21.6300661,24.7417401 25.8894273,20.3625551 L27.4078194,21.8809471 C27.5126652,21.8940529 27.6306167,21.8996696 27.754185,21.8903084 C27.8272026,21.8846916 27.898348,21.8734581 27.9713656,21.8584802 L26.1796256,20.0667401 C27.3816079,18.8741189 28.6884361,17.835022 30.0813877,16.9438326 C30.1581498,16.7098018 30.2667401,16.4776432 30.3959251,16.2567181 C28.7651982,17.2377753 27.2542952,18.4135463 25.8875551,19.7727974 L22.0438326,15.9309471 C24.7136564,13.2723568 27.8197137,11.1829295 31.2758811,9.72070485 C34.022467,8.55991189 36.8982379,7.83909692 39.8582599,7.55825991 L39.7964758,7.15011013 C36.8027533,7.43281938 33.8914097,8.16674009 31.1167401,9.34063877 C27.5838106,10.8346916 24.4122247,12.9727974 21.6881057,15.6969163 C18.9639868,18.4210352 16.8240088,21.5944934 15.3299559,25.1236784 C13.7834802,28.7820485 13.0008811,32.6669604 13.0008811,36.6698238 C13.0008811,40.6745595 13.7834802,44.5575991 15.3299559,48.2140969 C16.8240088,51.7470264 18.9639868,54.9186123 21.6881057,57.6427313 C24.4122247,60.3668502 27.5838106,62.5049559 31.1167401,64.0008811 C34.7713656,65.5454846 38.6562775,66.3299559 42.6610132,66.3299559 C46.6620044,66.3299559 50.5487885,65.5454846 54.2052863,64.0008811 C57.7363436,62.5049559 60.9098018,60.3668502 63.6339207,57.6427313 C66.3580396,54.9186123 68.4961454,51.7470264 69.988326,48.2140969 C71.5348018,44.5575991 72.3192731,40.6745595 72.3192731,36.6698238 C72.3192731,32.6669604 71.5348018,28.7820485 69.988326,25.1236784 L69.988326,25.1236784 Z M58.8334802,39.0794053 L58.0639868,39.3546256 L58.2549559,39.6560573 L58.8053965,39.7122247 L58.8334802,39.0794053 L58.8334802,39.0794053 Z M37.7969163,38.6150881 C37.7126652,38.5832599 37.6321586,38.5476872 37.5535242,38.515859 L37.5104626,39.0438326 L37.7969163,38.6150881 L37.7969163,38.6150881 Z M38.1694934,38.7592511 C38.0459251,38.7161894 37.9242291,38.667511 37.8081498,38.6207048 L37.8343612,38.955837 L38.1694934,38.7592511 L38.1694934,38.7592511 Z M28.6285242,23.0979075 C28.6528634,22.9125551 28.6865639,22.7552863 28.7296256,22.6148678 L28.4862335,22.3752203 C28.30837,22.4126652 28.1267621,22.4351322 27.9488987,22.4238987 L28.6285242,23.0979075 L28.6285242,23.0979075 Z M39.9631057,31.7495595 L39.9387665,31.6746696 C39.9481278,31.6671806 39.9593612,31.6596916 39.9705947,31.6559471 L39.9631057,31.7495595 L39.9631057,31.7495595 Z M39.9312775,31.0118943 L39.964978,31.1972467 C39.6017621,31.3788546 39.2610132,31.601652 38.940859,31.8506608 C38.9389868,32.2812775 39.107489,32.739978 39.4313877,33.1593612 C39.5736784,33.3390969 39.7365639,33.4926211 39.942511,33.6386564 L40.5285242,33.3859031 L40.4835903,30.8714758 L40.2870044,30.8920705 L40.3450441,30.5981278 L40.4761013,30.3977974 L40.4723568,30.1431718 L40.3450441,30.2424009 L40.0810573,30.6561674 L39.9312775,31.0118943 L39.9312775,31.0118943 Z M44.5164097,54.4318282 L44.5164097,54.4486784 C44.5257709,54.4468062 44.5332599,54.4468062 44.5426211,54.4468062 C44.5332599,54.4411894 44.5257709,54.4374449 44.5164097,54.4318282 L44.5164097,54.4318282 Z M29.5084802,40.5210352 L29.3886564,40.6090308 L29.302533,40.7251101 L29.0928414,40.2832599 L29.0067181,40.3731278 L29.0928414,40.7550661 L29.2126652,40.9928414 L29.1246696,41.1407489 L29.3587004,41.4346916 L29.5084802,41.7604626 L29.6264317,41.7305066 L29.6545154,41.2287445 L29.5365639,40.9628855 L29.5084802,40.5210352 L29.5084802,40.5210352 Z M29.2707048,37.8624449 L29.5084802,38.4821586 L29.3587004,38.6881057 L29.4204846,39.0120044 L29.332489,39.4875551 L29.1546256,39.6055066 L29.4485683,40.3731278 L29.5365639,40.3431718 L29.4485683,39.6635463 L29.6863436,38.5102423 L29.5084802,37.9204846 L29.2707048,37.8624449 L29.2707048,37.8624449 Z M45.3102423,41.6911894 L45.3252203,41.6930617 C45.3177313,41.6968062 45.3064978,41.7042952 45.2952643,41.7099119 L45.3102423,41.6911894 L45.3102423,41.6911894 Z M44.9807269,42.5992291 L45.035022,42.8182819 L45.0106828,42.917511 C45.907489,42.4794053 46.0329295,42.2247797 46.0235683,42.1087004 C45.9917401,41.7567181 45.4693833,41.39163 44.7186123,41.0377753 C44.7148678,41.3055066 44.7092511,41.5432819 44.7073789,41.7585903 L44.8571586,41.9196035 C44.8066079,41.9401982 44.754185,41.9570485 44.7017621,41.9738987 C44.6998899,42.1386564 44.6961454,42.2884361 44.6942731,42.4194934 C44.7822687,42.3895374 44.8721366,42.3614537 44.9563877,42.3258811 L44.9807269,42.5992291 L44.9807269,42.5992291 Z M48.2777533,29.5440529 L48.6933921,29.5440529 L48.7738987,29.3792952 L48.4181718,29.2950441 L48.2777533,29.0778634 L47.8396476,29.1040749 L48.0605727,29.4055066 L48.0605727,29.7631057 L48.2777533,29.5440529 L48.2777533,29.5440529 Z M47.6486784,30.038326 L47.4539648,30.175 L47.3734581,30.0645374 L46.8492291,30.9444934 L47.3172907,30.8639868 L47.3472467,30.5325991 L47.7029736,30.175 L47.9763216,29.9297357 L47.8115639,29.7088106 L47.6486784,30.038326 L47.6486784,30.038326 Z M45.7240088,29.6807269 L45.1735683,29.7088106 L45.0088106,29.9821586 L44.8964758,29.9821586 L44.8852423,30.8714758 L45.4506608,30.6168502 L45.7240088,29.6807269 L45.7240088,29.6807269 Z M49.6238987,20.1959251 C48.184141,19.5893172 46.6620044,19.1736784 45.0930617,18.9621145 C45.0911894,19.1006608 45.0874449,19.2410793 45.0855727,19.3777533 C46.5777533,19.5855727 48.0287445,19.9787445 49.4029736,20.551652 C49.4853524,20.4355727 49.5602423,20.3176211 49.6238987,20.1959251 L49.6238987,20.1959251 Z" id="Fill-11" fill="#FFFFFF"></path>
                <path d="M33.0713656,78.2393172 L35.2412996,78.45837 C35.2412996,78.45837 38.0159692,72.3585903 44.9975771,72.0665198 C49.4797357,71.8792952 53.4002203,74.1203744 58.1725771,74.4667401 C63.9053965,74.8823789 67.8221366,73.6710352 71.1023128,70.5481278 C67.6330396,72.4578194 63.5403084,71.6359031 58.809141,70.5481278 C55.7330396,69.8422907 52.5764317,69.5464758 50.2379956,69.570815 C39.380837,69.6756608 33.0713656,78.2393172 33.0713656,78.2393172" id="Fill-12" fill="#FFFFFF"></path>
                <path d="M65.8394273,58.1051762 C64.8246696,59.1218062 63.4598018,60.4585903 62.1398678,63.2987885 C60.8536344,66.0584802 60.8405286,67.1687225 59.5917401,69.1757709 C62.4319383,68.114207 64.5307269,70.1624449 71.6864537,67.5132159 C75.0003304,66.2887665 77.3556167,63.1696035 78.4452643,60.4585903 C75.9008811,62.763326 73.8395374,63.9316079 70.80837,64.3790749 C67.8221366,64.8190529 65.9105727,65.0137665 63.4129956,66.4853524 C64.9781938,64.8190529 65.5660793,63.8885463 66.3992291,61.6849119 C67.2922907,59.3202643 67.1481278,57.2870044 68.1610132,55.4634361 C67.4345815,56.3864537 66.8560573,57.0922907 65.8394273,58.1051762" id="Fill-13" fill="#FFFFFF"></path>
                <path d="M69.4491189,54.5759912 C68.7039648,58.4571586 68.9211454,61.6980176 66.9384361,64.182489 C69.5801762,61.9863436 72.1563877,61.9994493 75.7042952,60.4099119 C79.9374449,58.3298458 82.1729075,54.688326 83.3449339,49.3917401 C82.4069383,51.728304 79.9973568,53.9394273 77.3219163,55.6113436 C75.0359031,57.0379956 72.5963656,57.7382159 70.9057269,59.8238987 C71.8849119,58.6462555 72.1414097,58.0752203 72.3604626,56.7646476 C73.0494493,53.1718062 71.9055066,51.1348018 72.4484581,47.3846916 C71.8961454,48.9367841 69.9284141,52.0784141 69.4491189,54.5759912" id="Fill-14" fill="#FFFFFF"></path>
                <path d="M73.4669604,43.1796256 C73.1954846,49.2606828 75.6837004,50.5075991 73.8938326,56.1 C75.4590308,53.8476872 77.3162996,53.1718062 79.7221366,51.0561674 C82.715859,48.4106828 85.1872247,44.4115639 84.9606828,39.0082599 C84.3952643,40.5210352 82.6110132,43.4174009 80.6507709,45.475 C78.6924009,47.5307269 77.0429515,49.9964758 76.1948238,51.690859 C78.1513216,44.9732379 74.6520925,42.4157489 74.230837,38.386674 C74.1185022,39.9069383 73.5643172,42.1686123 73.4669604,43.1796256" id="Fill-15" fill="#FFFFFF"></path>
                <path d="M74.63337,36.2710352 C74.0997797,34.2976872 74.3300661,33.1256608 73.8713656,30.9145374 C74.6764317,32.8878855 79.3776432,36.3871145 78.8871145,43.1215859 C79.1529736,41.8859031 80.1153084,38.1470264 81.4839207,35.5314978 C82.5623348,33.4757709 83.6557269,31.4219163 83.3954846,28.3813877 C84.6330396,32.3898678 84.5693833,34.7002203 84.0301762,36.709141 C83.4909692,38.7161894 82.146696,40.2570485 80.9933921,41.8503304 C80.2351322,42.8987885 78.625,44.9432819 77.8573789,46.8473568 C77.919163,42.7227974 75.3279736,38.8547357 74.63337,36.2710352" id="Fill-16" fill="#FFFFFF"></path>
                <path d="M73.1337004,27.2767621 C72.2518722,25.5879956 71.9111233,24.1931718 70.7653084,22.0531938 C71.4730176,22.972467 72.0852423,23.4629956 73.8432819,24.9551762 C76.2659692,27.0071586 78.1063877,29.3137665 79.064978,33.15 C79.1342511,30.7610132 79.4300661,29.3306167 79.9168502,26.6664097 C80.3568282,24.2661894 80.2407489,21.523348 79.1342511,18.4884361 C81.2723568,21.0758811 83.1127753,26.1758811 82.0718062,29.6039648 C81.2480176,32.8598018 79.8400881,34.5055066 79.4263216,36.8046256 C77.9940529,32.2082599 74.3469163,29.590859 73.1337004,27.2767621" id="Fill-17" fill="#FFFFFF"></path>
                <path d="M74.2963656,23.0192731 C73.2254405,22.1580396 70.5406388,20.4842511 69.2263216,18.9433921 C67.9176211,17.402533 67.2529736,15.9328194 66.3280837,14.5735683 C68.2639868,16.3559471 69.3199339,16.8839207 71.2970264,18.0952643 C73.0868943,19.1193833 75.5095815,20.4954846 76.4868943,22.661674 C75.9008811,21.0346916 75.6088106,18.8816079 75.4122247,17.0674009 C75.1182819,14.3676211 74.0155286,12.7237885 73.2067181,11.7314978 C75.8465859,13.8527533 77.4454846,15.6463656 78.1531938,19.4657489 C78.8590308,23.2907489 78.0539648,26.1777533 78.3235683,28.2353524 C76.925,25.4569383 75.3654185,23.8823789 74.2963656,23.0192731" id="Fill-18" fill="#FFFFFF"></path>
                <path d="M74.7737885,19.0276432 C73.5980176,15.5022026 72.3698238,13.3996696 69.9752203,11.3870044 C66.8354626,8.75088106 63.5066079,7.51519824 62.186674,6.88050661 C64.7553965,8.71156388 64.6205947,10.2973568 68.0374449,13.5194934 C70.7110132,16.0376652 72.5907489,16.2361233 74.7737885,19.0276432" id="Fill-19" fill="#FFFFFF"></path>
                <path d="M52.2487885,78.2393172 L50.0751101,78.45837 C50.0751101,78.45837 47.3023128,72.3585903 40.3207048,72.0665198 C35.8404185,71.8792952 31.9199339,74.1203744 27.1475771,74.4667401 C21.4128855,74.8823789 17.4998899,73.6710352 14.2159692,70.5481278 C17.6889868,72.4578194 21.7779736,71.6359031 26.5128855,70.5481278 C29.5889868,69.8422907 32.7418502,69.5464758 35.0821586,69.570815 C45.9411894,69.6756608 52.2487885,78.2393172 52.2487885,78.2393172" id="Fill-20" fill="#FFFFFF"></path>
                <path d="M19.4788546,58.1051762 C20.4973568,59.1218062 21.8584802,60.4585903 23.1821586,63.2987885 C24.4646476,66.0584802 24.4777533,67.1687225 25.7265419,69.1757709 C22.8900881,68.114207 20.7875551,70.1624449 13.6280837,67.5132159 C10.3179515,66.2887665 7.9626652,63.1696035 6.87301762,60.4585903 C9.41740088,62.763326 11.4787445,63.9316079 14.5136564,64.3790749 C17.4998899,64.8190529 19.4095815,65.0137665 21.9090308,66.4853524 C20.3400881,64.8190529 19.7522026,63.8885463 18.9190529,61.6849119 C18.0259912,59.3202643 18.1720264,57.2870044 17.1572687,55.4634361 C17.8874449,56.3864537 18.4640969,57.0922907 19.4788546,58.1051762" id="Fill-21" fill="#FFFFFF"></path>
                <path d="M15.8729075,54.5759912 C16.6143172,58.4571586 16.3971366,61.6980176 18.3817181,64.182489 C15.7381057,61.9863436 13.1618943,61.9994493 9.61585903,60.4099119 C5.380837,58.3298458 3.1472467,54.688326 1.97522026,49.3917401 C2.91508811,51.728304 5.32092511,53.9394273 7.99823789,55.6113436 C10.2823789,57.0379956 12.7219163,57.7382159 14.4144273,59.8238987 C13.43337,58.6462555 13.1768722,58.0752203 12.9559471,56.7646476 C12.2688326,53.1718062 13.4127753,51.1348018 12.8698238,47.3846916 C13.4221366,48.9367841 15.3936123,52.0784141 15.8729075,54.5759912" id="Fill-22" fill="#FFFFFF"></path>
                <path d="M11.8531938,43.1796256 C12.1246696,49.2606828 9.6345815,50.5075991 11.4263216,56.1 C9.8592511,53.8476872 8.00572687,53.1718062 5.59988987,51.0561674 C2.6061674,48.4106828 0.132929515,44.4115639 0.357599119,39.0082599 C0.923017621,40.5210352 2.70914097,43.4174009 4.66751101,45.475 C6.62588106,47.5307269 8.27720264,49.9964758 9.12345815,51.690859 C7.16696035,44.9732379 10.6699339,42.4157489 11.0911894,38.386674 C11.1979075,39.9069383 11.755837,42.1686123 11.8531938,43.1796256" id="Fill-23" fill="#FFFFFF"></path>
                <path d="M10.6867841,36.2710352 C11.21663,34.2976872 10.9919604,33.1256608 11.4506608,30.9145374 C10.6418502,32.8878855 5.94063877,36.3871145 6.42929515,43.1215859 C6.16905286,41.8859031 5.20484581,38.1470264 3.83436123,35.5314978 C2.75781938,33.4757709 1.66629956,31.4219163 1.9246696,28.3813877 C0.688986784,32.3898678 0.748898678,34.7002203 1.28997797,36.709141 C1.82544053,38.7161894 3.16971366,40.2570485 4.32301762,41.8503304 C5.08127753,42.8987885 6.69328194,44.9432819 7.45715859,46.8473568 C7.3972467,42.7227974 9.99030837,38.8547357 10.6867841,36.2710352" id="Fill-24" fill="#FFFFFF"></path>
                <path d="M11.770815,27.9039648 C12.901652,26.2376652 13.4090308,24.1931718 14.5529736,22.0531938 C13.8471366,22.972467 13.2330396,23.4629956 11.475,24.9551762 C9.05605727,27.0071586 7.21563877,29.3137665 6.25704846,33.15 C6.18590308,30.7610132 5.89196035,29.3306167 5.40330396,26.6664097 C4.96145374,24.2661894 5.07753304,21.523348 6.18590308,18.4884361 C4.0496696,21.0758811 2.20550661,26.1758811 3.24834802,29.6039648 C4.07400881,32.8598018 5.48006608,34.5055066 5.8938326,36.8046256 C7.32610132,32.2082599 10.2936123,30.0832599 11.770815,27.9039648" id="Fill-25" fill="#FFFFFF"></path>
                <path d="M11.0219163,23.0192731 C12.0947137,22.1580396 14.7757709,20.4842511 16.0900881,18.9433921 C17.4006608,17.402533 18.0690529,15.9328194 18.9901982,14.5735683 C17.0542952,16.3559471 15.9964758,16.8839207 14.0231278,18.0952643 C12.2313877,19.1193833 9.81244493,20.4954846 8.83138767,22.661674 C9.41740088,21.0346916 9.71321586,18.8816079 9.90792952,17.0674009 C10.2018722,14.3676211 11.3046256,12.7237885 12.1115639,11.7314978 C9.46982379,13.8527533 7.86905286,15.6463656 7.16508811,19.4657489 C6.46112335,23.2907489 7.26431718,26.1777533 6.99471366,28.2353524 C8.39702643,25.4569383 9.95099119,23.8823789 11.0219163,23.0192731" id="Fill-26" fill="#FFFFFF"></path>
                <path d="M10.5426211,19.0276432 C11.7183921,15.5022026 12.9465859,13.3996696 15.3430617,11.3870044 C18.4828194,8.75088106 21.8135463,7.51519824 23.1297357,6.88050661 C20.5647577,8.71156388 20.6976872,10.2973568 17.2789648,13.5194934 C14.6072687,16.0376652 12.7256608,16.2361233 10.5426211,19.0276432" id="Fill-27" fill="#FFFFFF"></path>
            </g>
        </g>
    </g>
</svg>