<svg xmlns="http://www.w3.org/2000/svg" width="159.541" height="91.266" viewBox="0 0 159.541 91.266">
  <path fill="#FFF" d="M33.554 42.693H2.33v34h31.236l-.012-34zm-9.466 26.56c-2.664-2.44-3.493-5.3-3.493-5.3-.35 2.617-.83 3.23-.83 3.23-1.045-1.005-1.677-2.51-1.677-2.51-.61 7.155-1.68 8.99-1.68 8.99-1.092-.92-1.57-9.6-1.57-9.6-2.05 4.186-4.255 5.386-4.255 5.386-.435-4.408 1.003-7.985 1.003-7.985-1.266 2.01-5.735 4.953-5.735 4.953C6.374 55.728 16.846 53.6 16.846 53.6l-.002-10.908h2.886l-.003 11h.005c10.08 2 10.552 10.66 10.552 10.66-3.315-2.095-6.063-2.765-6.063-2.765.61 5.323-.13 7.663-.13 7.663l-.002.003zM19.73 31.495V42.5h-2.888V31.232h.004l-.586-.154S.775 27.786 0 11.978c0 0 6.614 4.354 8.484 7.32 0 0-2.13-5.29-1.483-11.807 0 0 3.26 1.774 6.29 7.97 0 0 .71-12.84 2.327-14.193 0 0 1.58 2.71 2.482 13.29 0 0 .936-2.227 2.484-3.71 0 0 .71.903 1.225 4.774 0 0 1.225-4.225 5.16-7.84 0 0 1.098 3.58.196 11.454 0 0 4.063-.87 8.967-3.967 0 0-.7 12.002-15.604 16l-.798.227h-.002zm31.894 9.02l-.56-3.62H45.95l-.63 3.62h-7.84l6.755-28.146h9.295l5.974 28.145h-7.88zM50.17 30.92l-.82-6.53c-.227-1.754-.375-3.546-.56-5.3h-.077c-.223 1.754-.41 3.546-.71 5.3l-1.044 6.53h3.21zm24.15-10.302c-1.082-1.045-1.975-1.643-3.545-1.643-3.955 0-4.926 4.366-4.926 7.47 0 3.28.97 7.463 4.773 7.463 1.72 0 2.8-.672 4.034-1.792l-.447 7.876c-1.534.673-2.912 1.01-4.593 1.01-6.233 0-11.533-4.742-11.533-14.373 0-12.62 8.657-14.747 12.354-14.747 1.347 0 2.652.188 3.88.67v8.064h.002zm16.837 0c-1.08-1.045-1.98-1.643-3.547-1.643-3.954 0-4.924 4.366-4.924 7.47 0 3.28.97 7.463 4.776 7.463 1.718 0 2.8-.672 4.03-1.792l-.447 7.876c-1.53.673-2.913 1.01-4.59 1.01-6.235 0-11.535-4.742-11.535-14.373 0-12.62 8.66-14.747 12.355-14.747 1.342 0 2.65.188 3.88.67v8.064h.002zm1.42-8.25h7.61v28.147h-7.612V12.368zm18.89-.484c7.728 0 10.747 7.69 10.747 14.56 0 6.868-3.02 14.56-10.748 14.56-7.73 0-10.75-7.69-10.75-14.56-.002-6.87 3.02-14.56 10.75-14.56m0 22.024c2.874 0 2.983-5.712 2.983-7.464 0-1.757-.11-7.47-2.985-7.47-2.877 0-2.987 5.713-2.987 7.47 0 1.752.108 7.464 2.986 7.464m11.31-21.54h7.242l6.082 16.95.075-.075c-.298-3.25-.858-6.46-.858-9.707v-7.168h7.317v28.147h-7.317l-5.672-16.237-.078.074c.188 2.65.523 5.263.523 7.913v8.25h-7.316V12.368h.002z"/>
  <g fill="#FFF">
    <path d="M64.265 51.693h-.06c-.187 2-.34 3.63-.59 5.385l-.865 6.615h2.66l-.68-6.615c-.186-1.756-.308-3.385-.465-5.385zm41.952 1.963c0-1.68-.96-1.963-2.258-1.963h-.63v4h.383c1.298 0 2.503-.207 2.504-2.037zm-2.38 9.037h-.506v5h.535c1.392 0 2.63-.613 2.63-2.518s-1.204-2.482-2.658-2.482z"/>
    <path d="M36.33 42.693v34h110v-34h-110zm18 31h-6v-11h-3v11h-7v-28h7v10h3v-10h6v28zm35.676 0l-.588-18h-.06c-.28 2-.498 4.256-.81 6.31l-1.792 11.69H81.62l-2.196-18h-.06c-.033 2 0 4.293-.095 6.385l-.527 11.615H66.616l-.464-4h-4.238l-.527 4H54.89l5.6-28h7.707l4.19 23.84 2.304-23.84h7.86l1.794 15h.062c.19-2 .34-3.486.62-5.24l1.515-9.76h7.768l2.258 28h-6.56zm15.5 0H97.33v-28h7.127c3.71 0 8.14 1.723 8.14 7.81 0 3.173-2.265 5.42-4.265 5.42V59c3 .298 4.635 2.754 4.635 6.525 0 3.475-1.827 8.17-7.458 8.17l-.004-.002zm18.315 0l-3.507-11.867-.063-.104c.033 1.38.08 2.8.08 4.183v7.788h-6v-28h5.81c5.476 0 9.437 1.723 9.437 9.15 0 3.105-1.11 5.897-3.62 7.092l4.704 11.758h-6.84zm18.51-22h-5v4h5v7h-5v4h5v7h-11v-28h11v6z"/>
    <path d="M120.33 51.305v6.946l.417.038c1.67 0 2.56-1.756 2.56-3.587 0-2.464-.976-3.508-2.977-3.395z"/>
  </g>
  <path fill="#005CB9" d="M70.28 36.738h41.93v9.48H70.28v-9.48z"/>
  <path fill="#0E5CDE" d="M70.28 36.738h41.93v9.48H70.28v-9.48z"/>
  <path fill="#FFF" d="M75.758 40.494c-.294-.442-.774-.68-1.266-.68-.884 0-1.48.752-1.48 1.708 0 .978.603 1.68 1.502 1.68.47 0 .942-.254 1.244-.652v1.925c-.478.16-.825.283-1.274.283-.774 0-1.51-.327-2.088-.907-.61-.614-.89-1.414-.89-2.33 0-.846.29-1.656.817-2.262.547-.622 1.335-1 2.118-1 .464 0 .89.115 1.32.31l-.002 1.926zm6.39.9c0 1.997-1.292 3.404-3.074 3.404C77.29 44.8 76 43.39 76 41.393c0-1.866 1.475-3.177 3.074-3.177 1.598 0 3.073 1.31 3.073 3.178m-4.642.006c0 1.064.708 1.844 1.57 1.844.863 0 1.57-.778 1.57-1.843 0-.852-.708-1.627-1.57-1.627-.863 0-1.57.776-1.57 1.63m4.945-2.98h1.443l2.646 3.774h.012v-3.774h1.444v6.17h-1.444l-2.645-3.78h-.016v3.78h-1.44m8.332 0h-1.444V39.78h-1.192v-1.357h3.83v1.357H90.78m5.97 4.814h-1.794l-1.368-2.373h-.01v2.376H92.13V38.42h2.163c1.095 0 1.927.583 1.927 1.9 0 .852-.425 1.59-1.213 1.744l1.743 2.53zm-3.174-3.406h.138c.473 0 1.002-.097 1.002-.77s-.53-.77-1.002-.77h-.138v1.54z"/>
  <path fill="#FFF" d="M98.188 43.522l-.385 1.07H96.27l2.136-6.174h1.577l2.09 6.172h-1.54l-.357-1.07-1.988.002zm1.01-3.194h-.018l-.597 1.966h1.203l-.588-1.966zm6.567-.548v1.033h1.627v1.36h-1.627v1.06h1.713v1.36h-3.16v-6.17h3.16v1.356m1.968 3.454h1.73v1.36h-3.174v-6.17h1.443"/>
  <g fill="#FFF">
    <path d="M89.07 81.55l-.5 1.483h1.005l-.493-1.483m21.718-.418c-.724 0-1.314.584-1.314 1.23 0 .803.592 1.39 1.314 1.39s1.315-.587 1.315-1.39c0-.646-.593-1.23-1.315-1.23zm-39.836-.094h-.118v1.16h.118c.393 0 .838-.074.838-.578 0-.508-.445-.582-.838-.582zm-58.908.512l-.5 1.483h1.006l-.494-1.483"/>
    <path d="M2.33 78.693v8h144v-8h-144zm10.862 6l-.302-1h-1.668l-.32 1H9.618l1.79-5h1.32l1.756 5h-1.292zm9.14-3.018c0-.333-.806-.513-1.218-.513-.74 0-1.278.565-1.278 1.29 0 .734.63 1.267 1.382 1.267.395 0 1.113-.194 1.113-.496v1.45c0 .123-.82.216-1.194.216-.647 0-1.276-.245-1.758-.685-.513-.463-.806-1.07-.806-1.76 0-.636.212-1.25.656-1.705.457-.467 1.232-.75 1.886-.75.39 0 1.22.083 1.22.232v1.452h-.002zm7-.982h-1v1h1v1h-1v2h-2v-5h3v1zm12 4h-2v-5h2v5zm9 0h-1.05l-2.216-3h-.734v3h-1v-5h1.722l2.215 3h.06v-3h1v5h.002zm8-4h-1v4h-2v-4h-1v-1h4v1zm7 0h-2v1h2v1h-2v1h2v1h-3v-5h3v1zm6.668 4l-1.143-2h-.526v2h-1v-5h2.116c.918 0 1.615.65 1.615 1.64 0 .644-.356 1.268-1.016 1.385l1.464 1.977L72 84.693zm10.33 0h-1.17l-2.215-3h-.614v3h-1v-5h1.605l2.214 3h.182v-3h1v5h-.002zm7.874 0l-.3-1h-1.67l-.318 1h-1.284l1.79-5h1.32l1.755 5h-1.293zm8.127-4h-1v4h-1v-4h-1v-1h3v1zm5 4h-1v-5h1v5zm7.47.23c-1.494 0-2.574-1.063-2.574-2.57 0-1.405 1.234-2.395 2.575-2.395s2.577.988 2.577 2.395c0 1.505-1.083 2.57-2.576 2.57zm11.53-.23h-1.065l-1.933-2.43v2.43h-2v-5h1.707l2.293 2.942v-2.942h1v5h-.002zm7.982 0l-.306-1h-1.668l-.32 1h-1.284l1.793-5h1.32l1.752 5h-1.29.002zm9.02 0h-3v-5h1v4h2v1z"/>
    <path d="M129.17 81.55l-.498 1.483h1.01l-.497-1.483"/>
  </g>
</svg>
