<svg xmlns="http://www.w3.org/2000/svg" width="184.667" height="96.666" viewBox="0 0 184.667 96.666">
  <path fill-rule="evenodd" clip-rule="evenodd" fill="#FFF" d="M65.116 57.27v6.584c-.737.682-1.475 1.194-2.612 1.194-1.305 0-3.064-1.137-3.064-4.43 0-3.577 2.782-6.13 5.676-3.35zm-29.07 3.29c0 2.5-.853 4.544-2.728 4.544-1.927 0-2.78-2.043-2.78-4.543 0-2.553.853-4.54 2.78-4.54 1.875 0 2.727 1.987 2.727 4.54zm-16.58-7.833h-1.703l-3.465 8.857-3.634-10.22h-3.52L12.54 66.01h1.703l3.52-9.026 3.463 9.027h1.646l5.45-14.59h-1.645l-3.805 10.163-3.406-8.856zM135.01 66.012v-6.02c0-4.086-3.124-5.108-4.94-5.108-1.304 0-2.385.512-3.52 1.25h-.058V55.11h-2.78v10.9h3.007v-8.8c.907-.794 1.76-1.136 2.555-1.136 1.59 0 2.67 1.59 2.67 3.237v6.7h3.065v.002zm-55.53 0h1.25l6.418-14.705h-1.65L81.014 61.64l-4.37-10.333h-3.69l6.526 14.705zm-17.828.227c1.42 0 2.612-.456 3.636-1.307l.055.056v1.02h2.84V49.26h-3.067v6.7c-.795-.623-2.1-1.077-3.406-1.077-1.646 0-5.62 1.022-5.62 5.848 0 3.58 3.122 5.51 5.562 5.51zm31.57-8.175c-.34 4.2 5.792 3.178 5.62 5.73-.057 1.024-.96 1.365-1.872 1.308-1.534-.114-2.442-.966-3.294-1.93l-.908 1.987c1.248.737 2.61 1.078 3.747 1.136 2.61.17 4.827-.966 4.998-3.463.228-3.918-6.077-3.465-5.962-5.454.057-.85 1.08-1.306 2.1-1.248 1.022.115 1.817.683 2.725 1.477l.852-1.818c-1.136-.454-2.213-.682-3.178-.795-2.842-.17-4.717 1.305-4.827 3.068zm-3.577-7.95c-.91 0-1.646.736-1.646 1.645 0 .854.736 1.59 1.645 1.59.852 0 1.59-.736 1.59-1.59 0-.908-.738-1.645-1.59-1.645zm15.67 0c-.91 0-1.59.736-1.59 1.645 0 .854.68 1.59 1.59 1.59.907 0 1.59-.736 1.59-1.59 0-.908-.683-1.645-1.59-1.645zm-1.59 4.995v6.133c0 3.122 1.363 5.11 7.722 5.11 7.38 0 9.993-2.84 9.993-5.963 0-3.122-2.442-5.507-5.845-5.507-3.75 0-5.85 2.496-5.85 4.997 0 1.76 1.078 3.634 3.464 4.6l.736-.854c-.964-1.08-1.306-2.384-1.306-3.576 0-2.157 1.306-4.032 2.897-4.032 1.987 0 2.895 2.216 2.895 4.485 0 2.33-.852 4.94-6.246 4.94-4.256 0-5.45-.91-5.45-3.464v-6.87h-3.01zm-16.01 10.902h3.065V55.11h-3.066v10.902zm-60.358-5.45c0 3.065 2.27 5.564 5.96 5.564 3.636 0 5.907-2.5 5.907-5.565 0-3.063-2.27-5.62-5.906-5.62-3.69-.002-5.96 2.556-5.96 5.62zm23.45 5.45h3.01v-16.75h-3.01v16.75zM41.61 55.11v10.9h3.008v-8.913c1.022-.85 1.76-.566 3.75 1.08l1.248-2.727c-.626-.227-1.42-.567-2.557-.567-1.134 0-1.986.567-2.385 1.078l-.17.172V55.11H41.61z"/>
  <path fill="#FFF" d="M45.57 11.216s41.837 5.153 77.033 29.282c32.875 22.568 46.88 45.718 46.88 45.718v-75H45.57zM154.46 32.55c-2.43.256-3.483.62-4.426 1.67-.725.8-.654 2.613-.835 4.972-.11 1.343-.98 19.34-.98 19.34s-.907-17.997-1.016-19.34c-.143-2.358-.11-4.173-.834-4.972-.943-1.05-1.994-1.414-4.426-1.67-1.887-.18-9.653-.652-9.653-.652s5.588-.362 7.332-.544c3.59-.362 5.406-.326 6.712-1.777 1.197-1.38 1.016-3.012 1.45-7.33.146-1.522.437-5.877.437-5.877s.29 4.354.437 5.878c.4 4.317.217 5.95 1.45 7.33 1.272 1.45 3.085 1.414 6.677 1.776 1.743.182 7.366.544 7.366.544s-7.766.472-9.69.653z"/>
</svg>
