<svg xmlns="http://www.w3.org/2000/svg" width="242.667" height="77.333" viewBox="0 0 242.667 77.333">
  <g fill="#FFF">
    <path d="M163.057 53.852c-.24.32-.602.36-.602.36-3.566 0-1.963-.08-6.41 0 0 0-.482 0-.803-.32-.2-.202-.24-.684-.24-.684.28-8.455.2-9.857.2-18.833l-3.406.12s-.2.04-.36-.16c-.16-.2-.08-.4-.08-.4l.4-4.73s.04-.16.12-.24c.08-.16.32-.16.32-.16h2.966l-.04-1.002c0-2.405-.04-5.973 2.927-8.176 1.882-1.402 4.365-1.683 6.77-1.683 1.003 0 2.044.04 3.087.12.08 0 .24 0 .4.12.12.16.08.4.08.4l-.4 4.89s.04.24-.12.4c-.2.12-.4.08-.48.08-.36-.04-.762-.12-1.163-.12-3.127 0-3.166 1.082-3.166 4.008l-.04.92h4.048s.24 0 .4.12c.16.162.08.442.08.442l-.36 4.73s0 .28-.16.4c-.12.16-.52.12-.52.12l-3.448-.16c0 8.694-.04 10.178.24 18.713 0 .002.04.363-.24.725zM190.187 54.172s.44.08.842-.32c.4-.402.28-.883.28-.883 0-4.69-.04-5.05-.04-9.54l.08-3.565c.04-4.287.04-6.17-1.202-8.176-.964-1.563-2.886-3.485-9.018-3.485-.6 0-1.122 0-1.644.038v5.45h.12c1.764 0 2.484.28 3.126.923.48.48.602 1.322.602 2.044-1.482.2-2.726.36-3.848.562v4.687c1.243-.36 2.646-.602 3.968-.763v6.773c-1.042.603-2.363 1.282-3.968 1.402v5.05c2.005-.52 3.286-1.563 4.008-2.124v.762s0 .522.16.843c.2.28.682.28.682.28l5.85.04zm-10.7-25.93c-3.167.16-5.29.803-7.614 1.483 0 0-.28.12-.32.24-.08.08-.12.2-.12.2l-.2 4.89s-.04.28.16.4c.2.16.36.08.44.04 1.684-.68 4.608-1.763 7.653-1.803v-5.45zm0 8.98c-3.286.56-5.33 1.16-7.454 2.52-2.685 1.686-3.606 4.41-3.606 6.574 0 5.17 3.688 8.415 8.376 8.415 1 0 1.923-.118 2.684-.36v-5.05h-.4c-1.923 0-3.526-1.04-3.526-3.286 0-2.24 1.725-3.444 3.928-4.127V37.22zM104.31 54.972c10.378-.04 18.473-6.77 18.473-18.754 0-9.297-5.93-18.394-18.474-18.435v6.412c6.17-.04 8.936 6.132 8.936 11.982 0 7.134-2.805 12.383-8.937 12.423v6.372zm-.122-37.19c-11.02 0-18.554 7.216-18.554 18.315 0 12.022 7.452 18.874 18.554 18.874h.12V48.6h-.04c-6.772 0-8.897-6.933-8.897-12.423s2.366-11.982 8.777-11.982h.16v-6.412h-.12zM141.777 53.932c-.2-.16-.32-.362-.32-.362l-4.568-7.413-5.01 7.454-.28.322c-.242.28-.803.24-.803.24l-2.044-.04s-2.725 0-4.367.04c-.48 0-.602-.12-.682-.24-.24-.4.2-.883.2-.883l8.456-12.183-7.975-11.062-.2-.36c-.04-.12-.04-.28 0-.4.08-.16.2-.2.32-.24l.922.04h6.532s.44-.04.64.16c.12.12.32.44.32.44l3.968 6.09 3.968-6.01s.32-.48.52-.642c.16-.08.804-.04.804-.04l6.65-.04s.522-.04.602.4c.04.24-.28.602-.28.602l-7.895 10.9 8.696 12.544s.48.8-.36.92c0 0-4.61-.04-7.094 0 0 .002-.482-.04-.723-.238zM223.167 28.043c-1.604 0-3.526.16-4.93.52-2.283.56-3.205 1.483-3.967 2.124-.96-.842-3.205-2.764-7.853-2.764-.724 0-1.725.04-2.846.198-4.007.362-6.172 1.645-6.893 2.326 0 0-.4.28-.44.88V53.05c0 .883.4 1.082 1.202 1.082h5.65c1.002 0 1.16-.32 1.16-1.202v-16.03c0-1.2-.08-2.163.723-2.965.52-.52 1.162-.842 2.044-.842.88 0 2.323.482 2.725 2.085.08.48.12.963.12 1.924v15.908c0 1.002.44 1.122 1.282 1.122h5.61c.882 0 1.08-.28 1.08-1.082V37.14c0-1.523-.158-2.324.683-3.085.36-.44 1.282-.843 2.445-.843 2.765 0 2.605 2.244 2.605 3.928v15.91c0 .76.24 1.08 1.08 1.08h5.932c.802 0 .96-.36.96-1.12V36.177c-.036-2.244-.52-8.135-8.373-8.135zM41.23 5c17.954 0 32.54 14.547 32.54 32.5 0 17.954-14.586 32.5-32.54 32.5v-1.643c17.073 0 30.898-13.825 30.898-30.857 0-17.03-13.825-30.897-30.897-30.897V5zM8.693 37.5C8.692 19.547 23.278 5 41.232 5v1.603C24.16 6.603 10.334 20.47 10.334 37.5c0 17.032 13.825 30.857 30.896 30.857V70C23.28 70 8.693 55.454 8.693 37.5z"/>
    <path d="M54.856 54.21v-.038c0-4.89-2.645-9.218-6.572-11.582 3.647-2.244 6.133-6.172 6.412-10.66 0 0 0-.36-.44-.36h-6.092c-.4 0-.52.32-.52.32-.4 3.206-3.126 5.69-6.45 5.69-3.247 0-5.933-2.404-6.414-5.49-.04-.2-.04-.52-.72-.52h-5.69c-.602 0-.602.28-.562.52.32 4.487 2.845 8.376 6.45 10.58-3.846 2.364-6.45 6.65-6.45 11.502v.04s-.04.48.68.48c.723 0 5.17-.04 5.853 0 .722 0 .562-.52.562-.52v-.082c0-3.526 2.886-6.372 6.37-6.372 3.527 0 6.372 2.846 6.372 6.372 0 .04-.12.562.682.562.803 0 5.37.04 5.972 0 .64 0 .558-.44.558-.44zM28.327 30.327H34.3c.52 0 .48-.28.48-.28.44-3.166 3.166-5.61 6.412-5.61 3.285 0 5.97 2.444 6.412 5.61 0 0 0 .32.56.28h6.052c.442 0 .442-.32.442-.32-.562-6.894-6.334-12.343-13.427-12.343-7.052 0-12.862 5.45-13.423 12.343 0 0-.04.32.52.32z"/>
  </g>
</svg>
