<svg xmlns="http://www.w3.org/2000/svg" width="577.75" height="305.696" viewBox="0 0 577.75 305.696">
  <g fill="#FFF">
    <path d="M112.603 151.537v-3.615c5.473-.49 9.47-1 9.97-3.096.445-2.287.445-4.09.346-7.29l-.04-55.458c0-3.13-.09-4.93-.416-7.236-.5-2.115-4.542-2.75-9.99-3.045V68.01l37.618-.07-.02 3.69c-5.333.462-9.434 1.024-9.89 3.212-.47 2.2-.51 3.99-.47 7.236l.084 55.46c0 3.157 0 4.95.545 7.194.44 2.188 4.62 2.946 10.39 3.085 4.487-.188 9.192-.99 9.652-3.085.53-2.31.53-4.105.41-7.295v-31.54c-.05-5.98-3.223-6.806-9.334-6.806v-3.66c8.082-.132 18.457-1.583 24.885-5.04l.21.158.01 12.183h.31l5.043-6.883c2.698-3.754 5.517-5.457 8.364-5.457 1.758 0 3.57.654 5.438 3.764l3.872 6.23c.654 1.355.01 2.484-.648 3.6l-3.15 3.393c-1.09 1.648-1.955.9-3.332.356l-5.665-2.604c-1.353-.738-3.09-1.2-4.794-1.146-3.317 0-5.357 4.294-5.357 16.704l.02 16.694c-.02 3.193.104 5.04.476 7.244.55 2.2 4.62 2.804 9.978 3.14v3.626l-74.515.145zM228.065 90.39l.05 46.89c0 3.18.094 5.01.505 7.35.45 2.09 4.536 2.64 8.7 3l.06 3.655-34.422.108-.074-3.65c4.224-.37 8.43-1.023 8.88-3.163.524-2.248.524-4.12.524-7.246v-31.56c-.12-5.935-3.244-6.88-9.528-6.84v-3.597c8.23-.197 18.596-1.71 25.078-5.096l.227.15zM219.058 66.443c5.2-.033 8.696 3.854 8.696 8.69 0 4.667-3.472 8.552-8.696 8.612-4.818 0-8.756-3.71-8.756-8.61.035-4.84 3.883-8.692 8.756-8.692M242.17 134.837h3.264c1.06 7.73 6.942 13.386 13.737 13.386 6.72-.09 9.628-5.04 9.628-9.587-.084-6.22-3.372-8.91-12.802-15.61-10.44-7.187-13.163-10.478-13.163-17.49 0-9.687 9.3-15.343 21.013-15.343 4.828 0 10.385.456 16.422 1.95l.024 13.282h-3.243c-1.328-5.09-4.88-10.727-11.397-10.678-4.774 0-7.745 2.942-7.745 7.637 0 4.904 5.264 8.014 14.57 15.007 9.765 7.34 11.395 12.242 11.36 17.647.113 13.258-12.223 17.645-23.573 17.685-6.735 0-12.777-1.248-18.012-3.188l-.083-14.697zM312.04 63.64l.08 36.94c5.08-5.937 13.645-10.478 23.4-10.478 13.405-.12 17.075 8.488 17.075 20.998l.094 25.93c0 3.2.04 5.002.46 7.32.516 2.187 4.7 2.634 8.874 3.02v3.605l-33.532.104v-3.65c3.412-.347 7.395-.892 7.904-3.08.41-2.315.376-4.12.41-7.278l-.034-22.84c-.028-8.25-1.104-16.59-10.358-16.54-10.03 0-14.293 7.894-14.27 23.937l-.023 15.505c.025 3.205.046 5.043.55 7.236.437 2.17 4.53 2.714 8.05 3.16v3.55l-33.795.135v-3.625c4.224-.405 8.344-1.02 8.875-3.104.44-2.308.44-4.104.44-7.305l-.045-58.542c0-3.197-.65-7.85-5.93-7.85h-3.5v-3.676c12.08-.368 19.715-1.8 24.92-3.77l.356.3zM436.453 118.876l-11.92-34.854h-.213l-12.816 34.974 24.95-.12zm1.252 31.972v-3.625c6.543-.04 7.533-3.744 5.68-9.003l-4.94-13.946-29.04.063-4.857 14.2c-1.575 5.046.074 8.833 5.57 8.726l.03 3.625-23.272.094v-3.61c3.45 0 7.727-2.1 10.29-7.448 4.266-8.828 18.82-47.674 28.72-73.934l7.818-.04c7.19 19.694 21.742 58.94 26.13 70.33 2.405 6.283 6.08 10.845 11.122 10.904 4.23 0 8.12-1.17 8.715-3.16.333-2.288.31-4.1.31-7.3l-.03-31.546c0-5.894-3.07-6.84-9.368-6.84v-3.585c8.127-.223 18.525-1.6 25.018-5.065l.17.147.084 46.85c.078 3.238 0 4.997.51 7.34.477 2.1 4.502 2.653 8.73 3.06l.06 3.655-67.45.108zM486.76 65.85c5.147 0 8.763 3.85 8.83 8.646-.067 4.65-3.624 8.594-8.77 8.594-4.956-.05-8.77-3.697-8.77-8.506 0-4.883 3.815-8.734 8.71-8.734M554.84 152.026c-1.757-3.194-2.015-6.21-2.13-9.46l-7.844 5.656c-4.725 2.854-6.39 3.902-10.21 3.902-18.896.05-27.665-16.793-27.665-30.853-.093-19.75 13.833-31.635 31.384-31.635 4.562 0 9.924.1 14.223 1.912V78.102c-.072-3.26-.674-7.847-5.873-7.847h-3.467v-3.692c12.033-.323 19.65-1.758 24.9-3.67l.252.21.1 69.928c0 8.498 1.985 12.36 8.478 10.45l.764 3.893-22.91 4.653zm-2.243-50.67c-2.742-5.42-6.94-7.312-12.455-7.312-10.97 0-16.355 10.39-16.355 24.35.088 11.893 5.354 24.787 16.877 24.738 5.79.05 12.05-4.596 12.05-11.887l-.117-29.89zM42.653 0l1.99.51c7.796 13.002 18.072 21.735 27.68 21.698 3.48 0 9.454-4.568 15.956-4.502 9.7.05 17.297 8.656 12.9 19.29L99.96 35.6c2.897-5.36.17-16.796-11.578-16.796-7.35 0-11.37 4.452-16.174 4.452-12.346.09-22.77-12.894-28.173-21.747-.822.765-14.783 13.786-14.783 13.786 8.112 12.94 19.82 23.15 31.68 23.15 16.17-.045 20.274-8.504 25.484-8.504 2.367 0 3.397 2.314 3.546 3.504l-1.277.455c-.303-1.79-1.045-2.862-2.303-2.862-4.73 0-8.603 8.65-25.45 8.65-10.444.072-21.567-7.64-31.27-21.74l-.742.856-2.665-3.746L42.653 0zM13.32 134.476c5.577 9.46 10.827 15.466 10.777 20.266.05 2.13-.252 2.832-.97 2.832-.48.05-1.382-1.04-2.982-1.1-2.105.06-3.897 1.438-3.843 3.848 0 3.008 2.665 4.502 5.774 3.85-.66 1.95.292 4.193 3.774 4.193 8.22-.104 21.983-10.69 26.32-20.77l-1.703-.47c-3.79 10.61-18.125 20.085-24.855 20.085-3.1 0-3.1-2.822-2.025-4.625-.55.28-2.04.543-2.52.543-2.348 0-3.33-1.444-3.33-2.9 0-1.654 1.115-2.654 2.19-2.7 1.743.046 2.56 1.355 3.525 1.355 1.43.04 2.11-1.31 2.085-4.21-.055-5.147-5.497-11.236-11.172-20.84l-1.044.643z"/>
    <path d="M19.373 30.654c3.873-5.447 7.918-9.59 10.93-12.557l-.525-.795c-3.185 3.21-7.087 7.55-10.984 12.844l.58.508zM15.02 35.602C6.997 47.94-.04 64.587 0 84.582c.078 19.31 4.08 31.69 10.122 44.095l.728-.832C4.927 115.845.82 103.227.762 84.583c-.03-19.75 6.938-36.28 14.703-48.537l-.445-.444zM39.914 29.57C27.084 42.734 17.426 59.543 17.52 85.975c.03 30.672 15.198 49.5 27.118 60.346l.802-1.426c-16.34-13.105-26.647-34.77-26.79-58.92C18.58 61.393 28.49 41.9 41.127 30.6l-1.214-1.03z"/>
    <path d="M84.886 39.042c2.927-4.983 5.012-7.234 9.573-7.234 3.976-.062 7.046 2.793 7.046 7.14 1.68 2.298.832 6.105 0 8.636l-36.86 102.942-20.002-4.21.803-1.42 18.422 4.04L100.484 47.25c.976-3.11 1.288-5.147 0-7.893 0-4-2.05-6.552-6.398-6.46-4.828-.092-6.447 2.9-8.538 6.51l-.664-.365z"/>
    <path d="M32.778 132.634L84.89 39.042c.966-1.81 1.97-2.442 3.49-2.53 1.428.088 2.017 1.25 2.017 2.435 0 .46-.316.812-1.158 3.155L45.62 145.687l-.98-.248 43.935-103.5c.684-1.796 1.05-2.448 1.08-2.897-.03-1.04-.645-1.81-1.417-1.81-1.282.065-1.926.705-2.69 2.17L33.245 133.13l-.466-.496zM77.745 27.453c.668.953 1.5 1.5 3.576 1.5 2.26 0 3.72-2.256 3.998-3.95.232 2.15 1.828 3.33 3.51 3.33.828 0 2.358-.222 3.265-.923-.233.198-.49 1.3-.46 2.025-.03 1.216.984 2.312 2.366 2.962l3.803 1.104-1.546-.9c-1.797-.55-3.748-1.355-3.674-3.207 0-1.43.445-2.854 1.505-3.994l-.753-.647c-.88 1.492-2.367 2.697-4.224 2.697-1.965 0-3.1-1.137-2.926-4.2l-1.144-.114c-.277 2.008-1.154 5.02-3.833 5.02-1.693.08-3.05-.706-3.496-2.854l-1.153.445c.54 1.998-.748 5.26-4.22 5.192-3.376 0-3.97-2.502-3.272-3.79l-2.932-.79c-.367 1.344-1.95 2.48-3.754 2.592-1.62 0-3.715-1.404-3.715-3.51 0-.69.446-1.64 1.2-2.19l-2.398-1.597c-.43.855-1.907 1.688-4.155 1.688-1.654 0-3.62-1.846-3.526-3.94 0-1.097.46-1.805 1.406-2.8l-3.58-3.55c-.495.554-1.49 1.45-2.882 1.45-1.535 0-2.387-1.154-3.665-3.36-.272.51-2.778 2.858-3.477 3.36 2.006 1.213 2.976 2.035 2.976 3.742 0 1.057-.5 2-1.614 2.813l4.145 4.338c.5-.646 1.817-1.493 3.135-1.493 3.14 0 3.808 4.5 2.303 5.666l4.24 2.534c.573-1.2 1.717-2.414 3.48-2.46 2.045 0 3.288 2.403 2.857 4.448l3.224.406c0-1.902 1.56-2.912 3.026-2.912 1.16.062 2.872 1.01 3.278 2.814l.9-.41c-.58-2.246-2.55-3.054-4.115-2.986-1.555-.066-3.24.547-3.892 2.535l-1.316-.103c.173-1.95-1.52-4.488-3.665-4.488-1.833 0-3.19.8-3.958 2.054l-2.808-1.654c1.134-1.242.485-6.137-3.516-6.137-1 0-2.2.39-2.932.95l-3.368-3.17c.822-.605 1.634-1.64 1.565-2.75.07-1.79-1.015-2.687-2.545-3.85l2.14-1.9c.842 1.855 2.263 2.794 3.6 2.794.89-.04 2.03-.674 2.654-1.224l2.6 2.688c-.614.747-1.193 1.745-1.193 2.794 0 2.105 2.01 4.697 4.52 4.656 1.283.04 3.397-.45 4.33-1.613l.905.81c-.4.504-.728 1.187-.728 2.147.02 2.06 2.154 4.02 4.358 4.02 2.04 0 3.75-1.02 4.29-2.16l1.406.386c-.43 1.96 1.798 3.91 4.448 3.91 3.57-.048 5.115-2.594 5.427-4.247M44.366 9.507c.372 0 1.204.357 1.224 1.138 0 .502-.322.71-.674.765-.733-.055-1.208-.537-1.208-1.216-.07-.538.282-.687.658-.687"/>
    <path d="M53.028 18.598c.44-.097 1.114.31 1.114 1.103 0 .456-.36.693-.673.693-.556.058-1.25-.386-1.25-1.146 0-.44.372-.688.808-.65M62.605 24.755c.436 0 .986.098.986.953 0 .488-.27.81-.762.81-.545 0-1.084-.48-1.084-1.118.065-.507.38-.74.86-.645M72.882 26.197c.445 0 .87.32.87.668 0 .586-.548.74-.994.74-.332.102-.827-.154-.827-.652 0-.412.392-.756.952-.756M80.914 23.61c.55.06.857.3.91.638.06.646-.306.896-.91.896-.56.062-.807-.287-.807-.652 0-.582.65-.795.807-.883M88.783 24c0-.596.426-.946.882-.946.515 0 .718.353.718.704.02.543-.39 1.05-.94.998-.51 0-.66-.456-.66-.756M96.25 28.237c.363 0 1.036.208 1.036.968.1.367-.56.646-.985.646-.47 0-1.05-.275-.994-.745 0-.553.614-.868.945-.868M36.898 16.76c.465.092.887.543.887 1.254 0 .483-.42.79-.778.735-.664 0-.98-.5-1.05-.997.07-.71.5-.9.94-.992M45.223 27.093c.456 0 .788.36.788.92 0 .222-.192.6-.608.6-.564 0-.946-.378-.896-.818-.095-.5.41-.702.717-.702M55.56 32.895c.445-.086.855.31.88.706-.025.457-.376.6-.832.6-.287 0-.693-.204-.733-.655 0-.447.307-.65.684-.65M65.423 34.2c.54-.103.912.304.912.692 0 .464-.496.768-.97.81-.427-.042-.75-.394-.75-.747 0-.452.417-.756.808-.756M36.56 143.935l-.444.96c-2.783-1.86-5.982 1.536-3.095 3.883l-.52.748c-2.856-2.095-5.105 1.562-2.53 3.75l-.327.763c-4.2-3.378-1.1-6.915 1.5-5.975-1.5-2.946 1.774-5.888 5.418-4.13M38.795 150.98l-1.352-2.945-9.424 12.29c6.194-.643 11.894-4.905 15.42-9.344-1.47.408-3.377.303-4.645 0l.575-.915c1.372.263 3.278.376 4.947-.124l.327.5c-5.81 7.93-11.44 10.134-17.833 10.937l-.197-.338 10.435-14.163.63-.297 1.693 3.485-.575.916zM7.596 132.634c.074 2.298 1.55 3.348 3.57 3.348 4.106-.05 5.998-6.602 5.944-10.454 0-6.146-7.275-20.032-7.275-40.086-.145-25.694 12.26-42.04 12.26-47.803 0-5.184-2.42-8.62-5.342-8.62-2.61 0-3.883 1.58-3.883 3.578.035 3.74 6.7 4.636 5.854 14.153l.847-2.493c-.35-7.258-5.654-9.4-5.738-11.66.084-1.85 1.307-2.655 2.837-2.614 2.55-.04 4.426 3.52 4.45 7.575C21.196 43.205 8.826 60.1 8.826 85.48c.134 20.105 7.29 33.704 7.29 40.048.044 4.104-1.748 9.51-4.838 9.51-1.847 0-2.565-.946-2.565-2.403-.05-3.148 6.31-6.244 6.29-14.303l-.535-1.79c.16 9.653-6.797 12.436-6.87 16.092"/>
    <path d="M9.26 87.796l10.117 9.646-6.472 12.802-.282-1.267 5.52-11.336-8.72-8.497M12.028 65.18l6.992 12.1L9.3 87.75l.128-1.223 8.444-9.38-6.042-10.585M19.813 43.347l3.803 13.246-11.638 8.24.342-1.227 10.197-7.344-3.22-11.662"/>
    <path d="M32.392 38.748v-.043l-.866.28c-.595.154-1.218.274-1.837.224-1.942.08-3.804-1.206-4.81-4.458l-.654.203c.564 3.354 2.813 4.688 4.69 5L20.04 43.09l-.316.904 12.514-4.404.703-1.05c-.162.063-.335.127-.548.208M13.162 110.333c1.342.54 9.325 4.8 11.068 5.313-1.193 2.743-3.46 12.792-3.858 13.68 1.392-1.2 3.214-2.2 5.75-2.3.9.05 2.056.208 2.838.41l.327.69c-1.134-.24-1.813-.397-3.11-.397-2.333 0-4.938 1.386-6.686 3.614l-.554-.465c.63-2.403 3.71-13.947 4.017-14.69-1.63-.607-9.038-4.812-9.652-5.016l-.138-.84zM5.298 115.44c4.225-1.565 6.067 1.644 6.067 3.395 0 2.248-1.015 3.205-2.957 4.14l-.525-.935c1.545-.55 2.615-1.254 2.615-3.16 0-1.8-1.788-3.877-4.774-2.53l-.426-.91zM1.08 75.337c1.643.35 4.55 1.76 4.55 5.006 0 3.148-1.6 5.633-4.982 5.633l-.015-.982c3.036.192 4.22-2.6 4.135-4.447.084-2.498-1.52-4.098-3.69-4.54v-.67zM12.905 39.64c1.67.904 2.665 2 2.665 4.002.034 2.363-1.788 3.94-4.02 3.94-.754-.042-1.947-.337-2.403-.69l.376-.887c.505.432 1.466.746 2.025.746 2.08 0 3.303-1.7 3.303-3.108 0-1.588-.5-2.286-2.228-3.454l.283-.548zM32.07 29.982c.104 2.212-1.57 3.465-3.58 3.52-2.497-.055-3.507-1.853-3.6-3.56l-.51.162c0 1.946 1.232 3.843 4.22 3.843 1.5 0 4.317-.852 4.317-3.965h-.847z"/>
    <path d="M32.917 29.982c0-2.572-2.204-4.02-4.348-3.986-1.824.045-4.19 1.207-4.19 4.108l.504-.163c.05-1.887 1.704-3.34 3.665-3.4 1.995 0 3.624 1.208 3.52 3.442h.847zM30.817 138.363c0 2.1-1.173 4.176-4.397 4.125-2.694 0-5.002-1.91-4.917-5.05l-.808-.155c.08 4.244 3.244 6.156 5.62 6.19 3.33-.034 5.587-1.837 5.503-5.11h-1z"/>
    <path d="M31.817 138.363c.08-3.48-2.53-5.873-6.11-5.78-2.675-.06-5.037 1.694-5.013 4.7l.803.154c0-1.654.97-4.25 4.115-4.25 2.625 0 5.244 1.693 5.205 5.176h1zM.55 92.248l8.82-1.252.157.9-8.9 1.307M3.803 111.18l8.948-2.1.155.862-8.96 2.15"/>
    <path d="M.628 93.34l.525-.87 11.286 16.462-.412.698M2 68.79l8.67 1.743-.227.865-8.552-1.546M7.8 50.69l8.314 2.903-.287.755-8.454-2.8"/>
    <path d="M1.673 68.84l13.663-15.146.49.654L2.075 69.39M56.712 100.8l11.703-22.864.703.458-11.81 22.684M66.562 72.303L80.39 61.546l-.323.944-14.11 11.002M33.783 131.524l27.258-24.148-.658 1.56-27.287 24.386"/>
    <path d="M46.228 143.033l5.002-42.942-1.114 2.197-5.106 42.936M80.637 61.546l.594-15.543-.474.836-.644 15.77M58.812 86.59c1.6 1.16 7.215 4.15 9.28 4.702l.322-.748c-2.03-.51-7.656-3.514-9.167-4.705l-.435.75zM54.875 93.848c-.282 2.446.015 5.9 2.422 6.84 2.243.905 6.765-.76 7.443-1.997l-.297.855c-.95 1.604-5.502 2.634-7.577 1.812-2.7-1.1-3.19-5.626-2.595-6.364l.605-1.145zM62.67 79.8c1.1-1.698 4.497-1.906 5.453-1.406 2.684 1.146 3.486 4.553 2.62 6.6l.753-1.658c.718-2.11-.803-4.797-2.957-5.687-1.403-.554-4.647-.456-5.652 1.14l-.218 1.01zM34.076 134.17c1.842-1.687 5.893-2.28 7.686-.888 3.075 2.698 2.382 7.452 1.124 10.195l-.768-.445c1.59-3.66 1.218-7.36-.837-9.053-1.742-1.397-5.362-.407-6.71.892l-.494-.703zM95.187 50.957c0 1.394-1.1 2.55-2.817 2.55-1.585 0-2.714-1.08-2.714-2.656l.678.107c.064 1.146.97 1.847 1.95 1.847 1.344 0 2.176-.7 2.176-1.847h.727z"/>
    <path d="M94.46 50.957c-.065-.96-.972-1.865-2.002-1.9-1.278.035-2.125.896-2.125 1.9l-.678-.106c.01-1.258 1.13-2.545 2.827-2.545 1.427 0 2.704 1.287 2.704 2.652h-.727zM99.153 38.705c0 1.44-1.08 2.54-2.743 2.54-1.66-.064-2.75-.982-2.788-2.58h.703c0 1.142 1.01 1.978 1.93 1.978 1.452 0 2.28-.837 2.176-1.785l.723-.153z"/>
    <path d="M98.43 38.857c0-1.102-.87-2.055-2.02-2.055-1.224 0-2.1.953-2.085 1.86h-.703c0-1.268 1.12-2.458 2.68-2.524 1.584.066 2.856 1.16 2.856 2.564l-.727.155zM88.382 43.587c0 1.263.693 2.16 1.7 2.252 1.355-.093 2.074-1.093 2.074-2.085 0-1.106-.645-2.114-1.76-2.114-.286 0-.955.156-1.386.462l.248-.746s.733-.306.97-.306c1.58 0 2.58.746 2.58 2.537 0 1.3-1 2.85-2.698 2.85-1.308 0-1.748-.734-2.248-2.038l.52-.813zM100.95 45.432c-.222-.782-.97-1.38-1.747-1.34-.808 0-1.77.6-1.817 1.51 0 1.233 1.045 1.843 1.95 1.843.372 0 1.025-.057 1.393-.552l-.096.856c-1.228.557-3.902.444-3.902-2.052 0-1.05.976-2.45 2.49-2.387.61-.06 1.838.646 2.105 1.157l-.376.965zM76.81 99.09c-.055 2.102-1.774 2.993-3.373 2.993-1.55 0-2.833-1.145-2.833-2.85h.753c0 1.105.856 1.997 2.15 2.12 1.128-.123 2.495-.87 2.495-2.213l.807-.05z"/>
    <path d="M76.006 99.142c0-1.145-.965-2.402-2.2-2.402-.92 0-2.445.803-2.445 2.496h-.752c-.044-2 1.298-3.19 3.273-3.19 1.517-.067 2.874 1.102 2.928 3.042l-.802.054zM73.882 91.197c0 1.996-1.674 3.086-3.25 3.086-1.514 0-2.748-1.258-2.683-2.99l.737-.096c-.044 1.05.906 2.373 2.12 2.344 1.1 0 2.293-.753 2.293-2.288l.782-.055z"/>
    <path d="M73.1 91.248c-.03-1.05-.892-2.354-2.293-2.246-.842-.062-2.17.834-2.12 2.195l-.738.096c-.075-1.604 1.257-3.162 3.208-3.205 1.308 0 2.724 1.05 2.724 3.11l-.782.05zM74.49 75.685l24.916-24.03-.975 1.5-23.795 23.09"/>
    <path d="M88.243 82.652l.54-.57-2.04-34.638-.51 1.516M50.918 131.248l28.555-23.81-.332 1.354-28.658 23.9"/>
    <path d="M68.093 138.18l.738-.407L64.94 98.78l-.654 1.475M83.157 81.953c.73-.865 1.06-1.71 1.095-2.563-.035-1.65-1.015-3.248-3.338-3.248-1.68 0-3.818 1.407-3.303 3.996l-.8.104c-.46-2.05 1.06-4.904 4.278-4.904 2.273 0 4.04 1.457 4.04 3.75 0 1.002-.56 2.443-1.39 3.21l-.58-.345zM61.917 137.933c.97-.9 1.545-2 1.516-2.805.03-1.94-1.15-3.71-3.77-3.71-2.36 0-4.233 1.513-3.93 4.603l-.967-.088c-.277-2.862 1.52-5.388 4.913-5.438 2.787 0 4.654 1.586 4.654 4.18 0 1.6-.564 2.502-1.733 3.686l-.683-.427zM76.006 104.876c-.297 2.68-1.956 4.502-4.546 4.502-2.09 0-3.878-1.446-3.878-4.25 0-.937.54-2.248 1.278-2.838l.68.496c-.58.647-1 1.342-1 2.193 0 1.954.955 3.444 3.223 3.405 2.392.04 3.28-1.99 3.28-3.545l.963.036zM59.426 142.072c0-1.494-1.312-2.742-2.877-2.742-1.26-.045-2.705.703-2.655 2.405l-.817.046c-.05-1.976 1.367-3.095 3.674-3.056 1.188 0 3.432 1.203 3.432 3.264l-.758.084z"/>
    <path d="M60.184 141.983c.03 1.812-1.243 3.24-3.635 3.288-2.06 0-3.522-1.476-3.472-3.495l.817-.04c-.05 1.446 1.114 2.794 2.654 2.755 2.114 0 2.876-1.31 2.876-2.418l.758-.09zM80.785 86.48c-.024-1.292-1.005-2.14-2.342-2.14-1.01 0-2.005.458-2.005 2.192h-.852c-.015-1.734 1.094-2.943 3.056-2.943 1.327 0 3.006.995 3.006 2.942l-.863-.052z"/>
    <path d="M81.647 86.53c0 1.97-1.68 2.76-3.234 2.76-1.604 0-2.842-1.046-2.828-2.76h.852c0 1.05.757 2.11 2.08 2.11 1.144 0 2.24-.693 2.268-2.16l.862.05zM78.215 94.748c-.064-1.807 1.396-3.01 3.318-3.01 1.4 0 2.684.99 2.72 2.91h-.774c-.03-1.107-.823-2.203-2.165-2.178-.852-.025-2.263.763-2.263 2.23l-.837.048z"/>
    <path d="M84.252 94.645c0 2.035-1.317 2.888-3.145 2.937-1.496.06-2.957-1.28-2.897-2.832l.842-.05c0 1.03 1.01 2.09 2.263 2.15 1.11-.062 2.134-.804 2.164-2.205h.772zM35.725 128.126l-.69 1.2-.187-105.16h.634M42.014 116.84l-.778 1.392-.188-87.836h.748M48.155 105.583l-.733 1.512L47.244 35l.802.044M54.46 94.44l-.788 1.497-.15-58.083h.78M60.67 83.192l-.813 1.704-.07-46.04h.75M66.95 72.09l-.922 1.7-.065-35.187.882-.06M73.1 60.8l-.778 1.81-.114-25.314.892-.06M79.29 49.64l-.753 1.955-.02-17.74.674-.04M45.937 234.253l-7.508-14.516c-1.194-2.287-2.814-3.303-5.097-3.303h-3.6v17.818h-6.36V194.24h11.104c3.056 0 4.313.118 6.24.36 5.58.77 9.053 4.552 9.053 9.84 0 5.093-3.714 9.24-9.112 10.134 1.798.49 2.877 1.387 3.893 3.238l8.95 16.44h-7.563zm-4.804-33.718c-1.377-1.135-3.06-1.507-6.24-1.507h-5.16v12.792h4.863c5.462 0 8.637-2.525 8.637-6.785 0-1.803-.778-3.422-2.1-4.5M61.343 200.3c-1.926 0-3.48-1.504-3.48-3.426 0-1.916 1.554-3.48 3.48-3.48 1.92 0 3.422 1.564 3.422 3.48 0 1.922-1.5 3.426-3.422 3.426m-2.937 5.756h5.76v28.197h-5.76v-28.197zM91.937 234.917c-2.94 0-4.857-1.685-5.16-4.557-3.362 3.057-6.24 4.438-9.295 4.438-3.843 0-6.785-3-6.785-7.03 0-5.39 5.214-9.23 15.664-11.444v-1.318c0-3.54-.964-4.867-3.604-4.867-2.402 0-5.032 1.147-8.875 3.772l-2.406-3.537c1.204-.96 1.62-1.326 3.125-2.158 3.9-2.21 6.72-3.05 9.775-3.05 3.06 0 5.397 1.198 6.66 3.405.837 1.387 1.085 2.952 1.085 6.666V227.412c0 .842.114 1.563.356 2.108.297.545.956.892 1.743.892.42 0 .776-.05 1.495-.228l.6 3.653c-1.975.888-2.757 1.08-4.378 1.08M86.36 220.27c-6.724 1.87-9.898 4.03-9.898 6.85 0 1.624 1.134 2.816 2.694 2.816 2.164 0 4.74-1.446 7.205-4.02v-5.647zM100.753 191.417h5.82v42.836h-5.82zM124.202 234.858c-2.516 0-4.254-.485-5.7-1.565-.782-.594-1.377-1.444-1.674-2.348-.426-1.307-.48-1.732-.48-4.972v-15.896h-4.863v-4.02h4.863v-8.207h5.76v8.206h7.38v4.02h-7.38v14.946c0 1.555.054 2.387.178 3.05.36 1.446 1.738 2.17 4.146 2.17.892 0 1.674-.06 3.056-.366v4.2c-2.404.653-3.597.782-5.286.782M152.97 234.917c-2.94 0-4.858-1.685-5.16-4.557-3.358 3.057-6.235 4.438-9.3 4.438-3.84 0-6.78-3-6.78-7.03 0-5.39 5.225-9.23 15.66-11.444v-1.318c0-3.54-.952-4.867-3.602-4.867-2.396 0-5.026 1.147-8.874 3.772l-2.402-3.537c1.203-.96 1.62-1.326 3.125-2.158 3.897-2.21 6.72-3.05 9.775-3.05 3.065 0 5.398 1.198 6.666 3.405.832 1.387 1.074 2.952 1.074 6.666V227.412c0 .842.12 1.563.352 2.108.303.545.966.892 1.75.892.415 0 .77-.05 1.5-.228l.603 3.653c-1.986.888-2.763 1.08-4.387 1.08m-5.58-14.648c-6.717 1.87-9.9 4.03-9.9 6.85 0 1.624 1.148 2.816 2.703 2.816 2.165 0 4.74-1.446 7.196-4.02v-5.647zM167.247 234.917c-3.368 0-4.556-.192-7.622-1.08l.96-4.258c2.7.603 3.84.716 6.117.716 4.804 0 7.68-1.5 7.68-3.967 0-1.74-1.32-2.933-4.738-4.357-4.5-1.877-5.64-2.604-7.195-4.03-1.21-1.08-1.928-2.824-1.928-4.572 0-4.966 4.62-8.204 11.643-8.204 2.64 0 3.957.168 7.2.892l-1.024 4.198c-2.81-.604-3.956-.723-5.937-.723-3.54 0-5.765 1.21-5.765 3.13 0 1.56 1.57 2.813 5.23 4.2 6.234 2.338 8.755 4.918 8.755 8.864 0 5.714-5.096 9.19-13.376 9.19M221.767 234.253V217.94c0-1.208-.07-2.585-.124-3.484-.184-2.576-1.56-3.963-3.843-3.963-2.64 0-5.82 1.812-8.75 4.98v18.78h-5.766v-28.198h5.636v4.26c3.784-3.602 7.022-5.15 10.678-5.15 2.52 0 4.625.892 6.007 2.506 1.437 1.685 1.917 3.726 1.917 8.222v18.363h-5.755v-.002zM254.53 234.917c-2.946 0-4.862-1.685-5.16-4.557-3.367 3.057-6.245 4.438-9.305 4.438-3.84 0-6.775-3-6.775-7.03 0-5.39 5.22-9.23 15.654-11.444v-1.318c0-3.54-.956-4.867-3.6-4.867-2.397 0-5.042 1.147-8.875 3.772l-2.402-3.537c1.193-.96 1.614-1.326 3.12-2.158 3.896-2.21 6.715-3.05 9.78-3.05 3.06 0 5.393 1.198 6.65 3.405.847 1.387 1.095 2.952 1.095 6.666V227.412c0 .842.108 1.563.352 2.108.302.545.96.892 1.738.892.42 0 .782-.05 1.506-.228l.593 3.653c-1.98.888-2.758 1.08-4.373 1.08m-5.586-14.648c-6.72 1.87-9.9 4.03-9.9 6.85 0 1.624 1.145 2.816 2.705 2.816 2.153 0 4.733-1.446 7.194-4.02v-5.647zM296.396 234.253v-18.897c0-3.18-1.39-4.798-4.085-4.798-2.816 0-5.818 1.68-9.12 5.154v18.54h-5.756v-42.835h5.755v18.777c1.92-1.62 2.703-2.223 4.144-2.99 2.273-1.328 4.617-1.977 6.72-1.977 1.857 0 3.59.47 4.92 1.432 2.34 1.613 3.178 3.653 3.178 7.734v19.858h-5.756zM310.783 234.253l.06-40.014h23.4v4.972h-17.097v11.707h16.193v4.852h-16.194v13.263h18.234v5.22h-24.598v-.002zm8.1-43.015l11.878-5.225-2.763-4.74-10.975 6.667 1.862 3.298zM344.97 200.3c-1.917 0-3.48-1.504-3.48-3.426 0-1.916 1.563-3.48 3.48-3.48 1.92 0 3.426 1.564 3.426 3.48 0 1.922-1.505 3.426-3.427 3.426m-2.937 5.756h5.76v28.197h-5.76v-28.197zM371.548 211.156c-.967-.355-1.322-.416-1.857-.416-2.465 0-5.698 3.244-7.804 7.854v15.66h-5.756v-28.2h5.632v5.576c2.23-3.957 5.226-6.17 8.4-6.17 1.02 0 1.503.123 2.708.545l-1.322 5.15zM388.103 234.977c-7.562 0-12.6-5.694-12.6-14.343 0-9.002 5.813-15.47 13.916-15.47 7.255 0 11.385 5.026 11.385 13.786v1.506h-19.002c.108 6.234 2.688 9.607 7.32 9.607 1.73 0 3.595-.426 5.396-1.268 1.197-.545 1.978-.97 4.258-2.467l2.456 3.428c-3.716 3.17-8.877 5.22-13.13 5.22m.9-25.623c-3.48 0-6.244 2.822-7.032 7.27l12.97-.302c-.118-4.38-2.347-6.967-5.94-6.967M426.785 234.917c-2.938 0-4.854-1.685-5.154-4.557-3.36 3.057-6.244 4.438-9.3 4.438-3.85 0-6.785-3-6.785-7.03 0-5.39 5.226-9.23 15.664-11.444v-1.318c0-3.54-.956-4.867-3.602-4.867-2.392 0-5.04 1.147-8.88 3.772l-2.387-3.537c1.185-.96 1.61-1.326 3.11-2.158 3.897-2.21 6.71-3.05 9.78-3.05 3.052 0 5.394 1.198 6.647 3.405.846 1.387 1.09 2.952 1.09 6.666V227.412c0 .842.113 1.563.36 2.108.308.545.966.892 1.75.892.405 0 .77-.05 1.49-.228l.6 3.653c-1.974.888-2.757 1.08-4.382 1.08m-5.577-14.648c-6.72 1.87-9.895 4.03-9.895 6.85 0 1.624 1.135 2.816 2.7 2.816 2.147 0 4.737-1.446 7.194-4.02v-5.647zM454.078 234.253V217.94c0-1.208-.06-2.585-.125-3.484-.172-2.576-1.56-3.963-3.828-3.963-2.64 0-5.822 1.812-8.766 4.98v18.78h-5.76v-28.198h5.645v4.26c3.78-3.602 7.008-5.15 10.682-5.15 2.512 0 4.61.892 5.998 2.506 1.432 1.685 1.922 3.726 1.922 8.222v18.363h-5.77v-.002zM484.222 234.253V217.94c0-1.208-.06-2.585-.12-3.484-.187-2.576-1.563-3.963-3.847-3.963-2.635 0-5.824 1.812-8.762 4.98v18.78h-5.76v-28.198h5.637v4.26c3.79-3.602 7.02-5.15 10.688-5.15 2.525 0 4.615.892 5.996 2.506 1.44 1.685 1.916 3.726 1.916 8.222v18.363h-5.748v-.002zM42.99 305.695c-12.594 0-21.414-8.408-21.414-20.398 0-12.354 9.716-21.3 23.038-21.3 4.62 0 6.66.356 11.762 2.23l-1.625 4.68c-4.2-1.455-5.937-1.798-9.537-1.798-10.26 0-17.036 6.35-17.036 15.876 0 9.263 6.418 15.61 15.718 15.61 2.635 0 3.773-.238 6.656-1.148V285.6h6.246v17.096c-6.06 2.46-8.522 3-13.806 3M75.922 305.408c-7.74 0-13.322-6.13-13.322-14.59 0-8.824 5.938-15.184 14.04-15.184 7.676 0 13.138 6.12 13.138 14.63 0 8.71-5.878 15.144-13.856 15.144m.12-24.974c-4.26 0-7.38 4.02-7.38 9.543 0 6.24 3.12 10.5 7.676 10.5 4.437 0 7.384-3.845 7.384-9.658 0-6.26-3.056-10.386-7.68-10.386M107.682 304.734h-5.88l-11.28-28.197h6.482l8.097 21.484 8.46-21.483h5.754M133.353 305.447c-7.562 0-12.604-5.695-12.604-14.32 0-9.01 5.823-15.492 13.92-15.492 7.255 0 11.396 5.04 11.396 13.798v1.5h-19.012c.118 6.246 2.7 9.605 7.32 9.605 1.737 0 3.6-.416 5.396-1.27 1.204-.53 1.977-.95 4.26-2.446l2.46 3.41c-3.718 3.185-8.873 5.215-13.137 5.215m.897-25.614c-3.477 0-6.23 2.824-7.013 7.262l12.955-.287c-.113-4.398-2.34-6.975-5.942-6.975M168.02 281.626c-.96-.346-1.322-.416-1.857-.416-2.456 0-5.7 3.244-7.8 7.87v15.65h-5.765v-28.194h5.65v5.58c2.215-3.96 5.215-6.186 8.39-6.186 1.03 0 1.5.13 2.71.545l-1.328 5.15zM192.137 304.734v-16.312c0-1.197-.064-2.59-.13-3.496-.172-2.564-1.554-3.95-3.837-3.95-2.635 0-5.813 1.802-8.75 4.97v18.79h-5.76V276.54h5.636v4.26c3.778-3.596 7.013-5.16 10.682-5.16 2.52 0 4.62.9 5.997 2.525 1.44 1.674 1.922 3.725 1.922 8.21v18.364h-5.76v-.003zM239.703 304.734V287.58c0-2.535 0-3.08-.178-3.96-.303-1.622-1.44-2.647-2.996-2.647-1.333 0-2.83.545-4.21 1.563-1.62 1.14-3.002 2.338-3.77 3.407v18.79h-5.646V287.94c0-1.922-.06-3.188-.183-3.967-.237-1.804-1.376-2.94-3.055-2.94-2.283 0-5.587 2.04-8.043 4.91v18.79h-5.636v-28.198h5.576v4.07c3.428-3.348 6.537-4.906 9.84-4.906 3.547 0 5.75 1.677 6.66 5.145 3.775-3.704 6.712-5.21 10.144-5.21 1.91 0 3.54.545 4.79 1.625 1.267 1.14 1.99 2.753 2.228 4.8.113 1.133.183 2.752.183 4.608v18.066h-5.704zM264.405 305.447c-7.562 0-12.59-5.695-12.59-14.32 0-9.01 5.815-15.492 13.912-15.492 7.265 0 11.405 5.04 11.405 13.798v1.5h-19.026c.124 6.246 2.698 9.605 7.324 9.605 1.738 0 3.595-.416 5.393-1.27 1.204-.53 1.98-.95 4.265-2.446l2.46 3.41c-3.718 3.185-8.884 5.215-13.143 5.215m.906-25.614c-3.48 0-6.244 2.824-7.02 7.262l12.954-.287c-.108-4.398-2.332-6.975-5.933-6.975M302.142 304.734v-16.312c0-1.197-.068-2.59-.124-3.496-.18-2.564-1.56-3.95-3.843-3.95-2.635 0-5.812 1.802-8.756 4.97v18.79h-5.765V276.54h5.646v4.26c3.78-3.596 7.018-5.16 10.678-5.16 2.516 0 4.615.9 6.002 2.525 1.44 1.674 1.917 3.725 1.917 8.21v18.364h-5.755v-.003zM324.505 305.34c-2.516 0-4.254-.48-5.7-1.565-.78-.605-1.375-1.45-1.68-2.344-.42-1.31-.478-1.735-.478-4.966v-15.91h-4.862v-4.018h4.862v-8.227h5.765v8.226h7.375v4.017h-7.375v14.944c0 1.557.055 2.398.18 3.066.365 1.426 1.732 2.158 4.14 2.158.896 0 1.68-.067 3.056-.364v4.19c-2.394.664-3.603.793-5.283.793M363.283 305.408c-7.727 0-13.312-6.13-13.312-14.59 0-8.824 5.94-15.184 14.04-15.184 7.677 0 13.14 6.12 13.14 14.63-.002 8.71-5.884 15.144-13.867 15.144m.123-24.974c-4.26 0-7.373 4.02-7.373 9.543 0 6.24 3.114 10.5 7.676 10.5 4.437 0 7.378-3.845 7.378-9.658 0-6.26-3.062-10.386-7.682-10.386M398.226 266.226c-1.68-.366-2.283-.426-3.473-.426-2.348 0-4.146.9-5.104 2.51-.605 1.018-.843 2.536-.843 5.166v3.06h7.394v4.077h-7.393v24.123h-5.76v-24.123h-4.923v-4.076h4.922v-2.887c0-3.777.416-5.818 1.496-7.85 1.564-2.883 5.166-4.627 9.606-4.627 1.972 0 2.878.188 5.155.85l-1.077 4.203zM418.44 264.71h6.413v40.023h-6.413zM446.892 281.626c-.96-.346-1.312-.416-1.857-.416-2.47 0-5.71 3.244-7.8 7.87v15.65h-5.77v-28.194h5.646v5.58c2.216-3.96 5.216-6.186 8.405-6.186 1.016 0 1.49.13 2.693.545l-1.316 5.15zM461.263 305.447c-7.572 0-12.617-5.695-12.617-14.32 0-9.01 5.828-15.492 13.93-15.492 7.256 0 11.4 5.04 11.4 13.798v1.5h-19.018c.113 6.246 2.69 9.605 7.314 9.605 1.742 0 3.6-.416 5.406-1.27 1.193-.53 1.973-.95 4.25-2.446l2.467 3.41c-3.728 3.185-8.888 5.215-13.132 5.215m.897-25.614c-3.486 0-6.246 2.824-7.023 7.262l12.955-.287c-.12-4.398-2.342-6.975-5.932-6.975M479.64 261.908h5.824v42.826h-5.824zM513.232 305.408c-2.934 0-4.854-1.693-5.156-4.576-3.354 3.057-6.234 4.44-9.29 4.44-3.847 0-6.794-3.003-6.794-7.015 0-5.403 5.215-9.235 15.668-11.45v-1.326c0-3.535-.965-4.867-3.61-4.867-2.386 0-5.036 1.145-8.878 3.783l-2.4-3.55c1.213-.95 1.63-1.313 3.123-2.142 3.908-2.23 6.72-3.07 9.78-3.07s5.403 1.2 6.667 3.418c.832 1.382 1.068 2.94 1.068 6.66V297.9c0 .836.125 1.545.355 2.09.303.545.973.895 1.748.895.432 0 .777-.055 1.506-.23l.595 3.658c-1.98.895-2.762 1.093-4.383 1.093m-5.572-14.655c-6.72 1.863-9.904 4.03-9.904 6.84 0 1.62 1.14 2.822 2.7 2.822 2.16 0 4.733-1.44 7.204-4.012v-5.65zM540.523 304.734v-16.312c0-1.197-.064-2.59-.123-3.496-.174-2.564-1.545-3.95-3.832-3.95-2.64 0-5.83 1.802-8.768 4.97v18.79h-5.75V276.54h5.643v4.26c3.77-3.596 7.018-5.16 10.672-5.16 2.52 0 4.635.9 6.002 2.525 1.426 1.674 1.922 3.725 1.922 8.21v18.364h-5.767v-.003zM571.925 304.734v-4.377c-.545.533-.965 1.02-1.207 1.258-2.512 2.396-5.938 3.838-9.182 3.838-6.533 0-11.04-5.695-11.04-14.05 0-9.29 5.16-15.77 12.48-15.77 3.615 0 6.182 1.388 8.82 4.735v-18.463h5.77v42.828h-5.64zm-.13-18.174c-2.394-3.957-5.09-5.885-8.278-5.885-3.955 0-6.963 4.2-6.963 9.847 0 5.755 2.832 9.657 6.908 9.657 3.13 0 5.94-1.68 8.334-4.983v-8.637z"/>
  </g>
</svg>
