<svg xmlns="http://www.w3.org/2000/svg" width="70.667" height="108.666" viewBox="0 0 70.667 108.666">
  <path opacity=".5" fill="#FFF" d="M65.4 39.302C64.56 24.127 51.985 12.03 36.604 12.026c-.07 0-.132.007-.2.007-.067 0-.13-.007-.2-.007-15.38.004-27.958 12.1-28.792 27.276-.03-.006-.005 2.25-.005 2.25 8.57-.036 13.44 9.027 28.11 9.378l-.013.017c.2 0 .39-.004.584-.007.106 0 .21.003.315.003.103 0 .207-.003.316-.003.19.003.38.007.583.007-.005-.004-.007-.012-.008-.017 14.664-.35 19.536-9.414 28.106-9.378.003 0 .03-2.256 0-2.25m-34.662-24.62c-3.48 2.36-5.948 6.31-7.555 10.084-1.8-1.01-3.483-2.205-4.993-3.59 3.328-3.04 8.017-5.44 12.548-6.494m-14.046 7.97c1.73 1.596 3.66 2.968 5.73 4.107-.983 2.9-1.53 5.998-1.53 9.23 0 1.118.08 2.215.206 3.3H9.525c.39-6.41 3.036-12.22 7.167-16.64m-1.114 18.874h5.864c.245 1.255.587 2.472.99 3.662-2.18-1.197-4.274-2.534-6.854-3.662m19.51 6.93c-2.516-.003-7.37-.81-9.844-1.876-.702-1.612-1.262-3.298-1.636-5.054h11.48v6.93zm0-9.162H23.23c-.132-1.082-.222-2.182-.222-3.302 0-2.892.472-5.674 1.326-8.28 3.304 1.504 6.926 2.423 10.753 2.57v9.012zm0-11.13c-3.568-.148-6.946-1.018-10.022-2.437 1.936-4.616 5.338-9.74 10.144-11.446l-.122 13.883zm19.533-6.986c-1.51 1.385-3.193 2.58-4.99 3.59-1.605-3.774-3.246-6.917-7.556-10.084 4.53 1.053 9.22 3.455 12.547 6.494M37.605 14.28c5.016 1.775 8.21 6.83 10.143 11.445-3.077 1.42-6.453 2.288-10.023 2.438l-.12-13.884zm9.963 32.298c-2.473 1.066-7.254 1.966-9.845 1.877v-6.93h11.483c-.375 1.755-.935 3.44-1.638 5.053m2.015-7.286h-11.86V30.28c3.828-.147 7.45-1.066 10.754-2.57.854 2.606 1.328 5.39 1.328 8.28 0 1.12-.09 2.22-.222 3.302m.797 5.895c.4-1.19.745-2.407.99-3.662h5.862c-2.576 1.127-4.675 2.464-6.853 3.662m1.333-5.895c.124-1.086.21-2.183.21-3.302 0-3.23-.552-6.33-1.535-9.23 2.074-1.14 4.003-2.512 5.73-4.108 4.136 4.42 6.78 10.228 7.17 16.64H51.712zM62.296 46.304c.793 0 1.433-.645 1.433-1.438 0-.794-.64-1.438-1.434-1.438-.795 0-1.44.645-1.44 1.438 0 .793.645 1.438 1.44 1.438M36.464 54.798c.794 0 1.438-.643 1.438-1.438 0-.793-.644-1.435-1.438-1.435s-1.434.642-1.434 1.435c0 .795.64 1.438 1.434 1.438M49.565 52.38c.794 0 1.437-.643 1.437-1.437 0-.79-.643-1.435-1.437-1.435-.793 0-1.44.644-1.44 1.435 0 .794.647 1.437 1.44 1.437M52.218 54.05c.015-.004.03-.01.046-.02-.017.01-.032.016-.046.02M52.78 53.734c-.033.02-.06.034-.09.057.03-.02.065-.03.096-.053l-.007-.003zM10.625 46.312c-.792 0-1.437-.644-1.437-1.438 0-.79.645-1.434 1.437-1.434s1.44.643 1.44 1.434c0 .795-.648 1.438-1.44 1.438M23.354 52.392c-.793 0-1.435-.645-1.435-1.44 0-.79.64-1.434 1.434-1.434.795 0 1.44.644 1.44 1.435 0 .794-.646 1.44-1.44 1.44"/>
  <path fill="#81D4F7" d="M16.89 49.363h.094c-.01-.006-.044 0-.095 0M16.89 49.363h-.358c.154.004.28.002.357 0M16.95 52.623l-.15-.233c.05.082.1.16.15.233"/>
  <path opacity=".5" fill="#FFF" d="M16.983 49.363h-.093c-.08.002-.203.004-.358 0-.84-.028-2.616-.332-3.482-2.542H8.268c-.106.16-.224.304-.34.426.84 4.04 2.49 7.773 4.805 11.013v-4.646h.48v-1.56c-.058.005-.105.01-.153.01-1.45.02-3.098-2.145-3.098-2.145l.98-1.436c.142-.036.59 1.258 2.27 1.54.237.24 1.44 1.038 3.796.92l-.025-1.58zM29.53 54.85h-.49c.16.007.323.01.49 0M55.447 53.19c.024-.022.055-.043.08-.068-.025.025-.055.046-.08.07M55.683 52.97l-.085.083.085-.083M54.96 53.503c.028-.014.056-.025.083-.04-.027.015-.055.026-.082.04M55.74 52.9c.063-.07.13-.15.19-.236-.06.086-.126.165-.19.237M55.29 53.312c.027-.02.052-.037.08-.06l-.08.06M55.126 53.415c.03-.017.057-.03.084-.05-.027.02-.053.033-.084.05M49.53 52.938l-.007-.05c-.05.03-.04.044.006.05M54.874 53.54c-.02.01-.042.02-.07.026l.036-.01.034-.017M54.874 53.54c.028-.01.06-.026.087-.037-.026.01-.058.026-.086.036M55.21 53.364c.025-.017.052-.033.08-.053l-.08.054M55.044 53.462c.026-.017.056-.03.082-.048-.026.017-.056.03-.082.048"/>
  <path opacity=".5" fill="#FFF" d="M56.117 52.416v-.036c-.06.104-.123.197-.188.284-.06.086-.125.165-.19.24l-.058.065-.085.082-.07.07c-.025.022-.056.045-.08.068-.023.02-.05.042-.078.062-.03.02-.053.04-.082.06-.025.02-.052.035-.08.053-.024.018-.05.034-.08.05-.028.015-.06.03-.084.05-.03.01-.057.024-.083.04l-.086.035c-.01.005-.02.012-.034.017l-.035.01c-.455.173-.93.182-1.377.104-.162-.026-.318-.058-.47-.103-.062.054-.105.12-.172.17l-.007-.002c-.033.022-.06.034-.09.056-.134.09-.274.175-.427.242l-.046.02c-.084.036-.177.063-.265.095-.923.33-1.997.392-2.388.433l-.003-.054-.032-1.586c-.045-.007-.056-.02-.006-.05h-2.38c-.795 1.136-2.043 2.117-3.757 2.01v1.73c.298.07 2.782.188 3.594-.966 1.722 1.667 3.362 1.277 3.504 1.316v1.673c-.206.05-2.09-.018-3.505-.7v1.75h.476l-.006 8.63c1.45-.582 2.85-1.263 4.173-2.057v-6.593h.36V55.21c.543.17 1.02.24 1.443.25.542.013.988-.084 1.355-.223.82-.3 1.23-.824 1.363-.857v-2.01c-.007.017-.016.028-.026.046"/>
  <path opacity=".5" fill="#FFF" d="M55.74 52.9c-.018.024-.038.048-.058.07.02-.022.04-.045.06-.07M54.806 53.566c-.448.162-.914.168-1.35.095-.158-.025-.307-.056-.456-.1v.02c-.012-.006-.027-.01-.04-.014.15.048.304.077.467.104.45.077.924.07 1.38-.104M55.37 53.253l.077-.062c-.025.02-.05.043-.078.063M55.528 53.122c.024-.022.047-.047.07-.07-.023.023-.045.048-.07.07"/>
  <path fill="#81D4F7" d="M16.95 52.623l-.018-.027c.005.008.01.017.018.027M16.933 52.596c-.043-.064-.087-.134-.132-.204.046.07.09.14.133.204M19.266 53.71c-.036.004-.07.01-.105.01.035 0 .07-.006.106-.01M19.087 53.724c-.035 0-.065.004-.1.004.034 0 .065-.003.1-.004M17.39 53.13c-.024-.02-.045-.043-.068-.064.023.02.043.044.07.065M18.214 53.612c-.026-.008-.056-.017-.08-.028.024.012.054.02.08.028M18.91 53.725h-.095.095M17.712 53.374c-.025-.014-.05-.03-.077-.05.026.02.052.036.077.05M17.236 52.98c-.02-.023-.038-.05-.062-.07.024.022.04.047.062.07M19.493 53.68c-.055.012-.11.02-.167.026.056-.008.112-.015.167-.025"/>
  <path opacity=".5" fill="#FFF" d="M26.064 55.497zM29.53 54.85c-.083.005-.166.008-.246.008.08 0 .163-.004.246-.01M29.283 54.857c-.08 0-.16-.003-.24-.01.08.007.16.01.24.01"/>
  <path opacity=".5" fill="#FFF" d="M29.283 54.856c-.08 0-.16-.004-.242-.01-1.46-.075-2.546-.922-3.263-1.947h-2.38c.05.03.036.042-.003.046l-.038 1.588v.054c-.39-.04-1.463-.104-2.388-.433-.092-.03-.183-.055-.266-.092-.014-.007-.032-.017-.047-.02-.154-.072-.294-.154-.43-.243l-.086-.055-.003.002c-.068-.05-.117-.114-.176-.17-.147.044-.31.077-.468.105l-.168.022-.06.004c-.038.005-.07.01-.107.01-.025.004-.05.004-.073.004-.034 0-.064.003-.1.003-.025 0-.05 0-.076-.002h-.095l-.082-.01c-.03 0-.06-.005-.088-.007-.027-.002-.056-.008-.085-.012-.03-.005-.06-.01-.09-.017-.026-.006-.054-.01-.083-.017l-.087-.024c-.03-.005-.06-.017-.085-.026-.026-.007-.056-.017-.083-.027-.03-.014-.06-.022-.09-.036-.03-.012-.05-.022-.08-.036l-.086-.04c-.026-.016-.054-.03-.078-.04l-.087-.056c-.025-.017-.052-.032-.078-.05l-.084-.062s-.05-.042-.074-.058c-.03-.027-.058-.048-.086-.076-.024-.02-.045-.045-.07-.065l-.083-.085c-.02-.024-.04-.048-.062-.07-.065-.075-.13-.157-.194-.246l-.03-.04-.02-.028c-.043-.063-.086-.133-.13-.204V54.396c.193.05.95 1.107 2.692 1.07.42-.007.9-.08 1.44-.246v4.472h.362v6.333c1.32.824 2.715 1.535 4.17 2.14l-.005-8.455h.477v-.018l.034-1.72c-1.498.643-3.266.754-3.54.69l-.108-1.8c.005 0 .012 0 .02-.006.005 0 .01 0 .013-.002l.025-.003h.01c.07-.017.18-.04.33-.07h.002c.026-.007.05-.012.073-.02.01 0 .014-.002.018-.002.023-.006.053-.012.08-.02.008 0 .01-.002.02-.006.124-.03.266-.062.42-.105.036-.008.073-.02.108-.03.008-.003.017-.003.022-.005.037-.01.073-.02.11-.034.008-.003.017-.003.02-.005.042-.01.08-.025.123-.036.175-.054.36-.114.55-.186.008 0 .018-.003.022-.006.045-.014.088-.032.132-.05.007 0 .015-.004.023-.007l.136-.053c.002 0 .01-.004.014-.008.195-.073.397-.16.603-.255l.027-.014.133-.062c.014-.006.024-.014.04-.02.043-.02.087-.045.13-.067.013-.005.025-.014.035-.017.154-.08.312-.164.464-.256l-.004.003h-.002c.848 1.103 3.22 1.188 3.51 1.114v-1.788c-.083.012-.166.014-.247.014m-3.22.64l-.003.003c.002-.003.003-.005.008-.005l-.006.002z"/>
  <path opacity=".5" fill="#FFF" d="M24.444 56.27c-.01.004-.017.007-.025.008l.024-.008M24.596 56.21c-.006.005-.013.007-.016.008.003 0 .01-.003.016-.007M25.562 55.774c-.008.006-.02.013-.034.02.012-.007.026-.014.034-.02M25.397 55.86c-.015.005-.025.012-.04.02.015-.008.026-.015.04-.02M25.225 55.94l-.028.014.028-.014M22.814 56.76c-.004 0-.01.003-.018.003.01 0 .015-.002.018-.002M22.394 56.85l-.012.003.012-.002M22.355 56.855l-.01.002.01-.002M22.725 56.78h-.002.002zM22.912 56.736c-.006.003-.01.007-.02.007.01 0 .014-.004.02-.007M23.463 56.593c-.004.002-.014.004-.02.008l.02-.007M23.593 56.556l-.02.005c.008-.002.016-.002.02-.004M23.718 56.52zM24.288 56.327c-.004.003-.015.006-.02.008.005-.002.016-.005.02-.008"/>
  <path fill="#81D4F7" d="M18.044 53.55c-.03-.013-.05-.022-.08-.037.03.014.05.024.08.036M18.387 53.663c-.03-.01-.058-.017-.087-.023.03.006.057.014.087.023M17.55 53.265l-.073-.06c.023.018.047.04.074.06M16.95 52.623l.03.04c-.008-.014-.02-.026-.03-.04M18.56 53.696l-.09-.016.09.016M18.734 53.716c-.032 0-.06-.006-.09-.008.03.002.058.007.09.008M17.877 53.473l-.078-.045.077.045"/>
  <g fill="#FFF">
    <path d="M56.012 48.844c.794 0 1.438-.644 1.438-1.433 0-.794-.644-1.437-1.438-1.437-.792 0-1.438.644-1.438 1.438 0 .79.646 1.434 1.438 1.434M29.425 54.34c.794 0 1.435-.642 1.435-1.438 0-.79-.64-1.434-1.435-1.434s-1.44.643-1.44 1.434c0 .796.645 1.438 1.44 1.438M43.387 54.39c.794 0 1.438-.643 1.438-1.438 0-.793-.645-1.436-1.438-1.436-.795 0-1.434.643-1.434 1.436 0 .795.64 1.437 1.434 1.437M16.91 48.855c-.797 0-1.438-.646-1.438-1.436 0-.795.64-1.44 1.437-1.44.79 0 1.436.645 1.436 1.44 0 .79-.646 1.435-1.437 1.435M16.8 54.397V52.39l.15.232c.01.014.02.03.03.04.064.09.13.172.194.246.022.022.04.047.062.07l.085.086c.024.02.046.045.07.065.028.027.057.048.086.075.023.015.048.037.074.058s.058.04.085.058c.024.022.052.038.076.054.03.02.058.035.088.054.024.014.052.027.078.044l.085.04.083.037s.058.02.09.034c.024.012.055.02.08.027.026.01.058.02.086.027.028.01.057.017.086.023l.083.018c.03.007.06.013.09.017.027.004.057.01.084.012.03.002.058.007.09.008l.08.008h.096c.025.003.05.003.078.003.033 0 .063-.002.098-.003.022 0 .047 0 .073-.003.034-.002.068-.006.105-.01.02 0 .04-.003.06-.005.056-.008.113-.014.167-.026.16-.025.322-.06.47-.104.06.055.11.12.176.17h.004c.03.02.055.033.084.054.137.087.276.17.432.24.014.008.03.016.045.022.085.037.176.06.268.092.925.328 1.997.394 2.388.433v-.054l.038-1.588.003-.047c-1.623-.185-3.386-.28-4.068-3.535h-2.347l.024 1.582c-2.356.117-3.56-.68-3.798-.92-1.68-.283-2.128-1.577-2.27-1.542l-.98 1.437s1.647 2.165 3.097 2.144c.05 0 .096-.004.15-.01.373-.028.855-.15 1.28-.368v4.472h.355v4.34c1.266 1.415 2.66 2.71 4.176 3.858l-.007-8.198h.48v-.688c-1.743.035-2.498-1.024-2.692-1.073"/>
    <path d="M46.98 55.66c-1.033 1.147-3.296 1.04-3.594.97V54.9H41.03c-.285.55-.64 1.1-1.044 1.613-.33.41-.693.8-1.087 1.125-.008.006-.012.01-.018.012-2.033 1.215-4.43 1.008-6.03-1.154-.36-.467-.716-.995-1.07-1.646H29.53v1.788c-.288.073-2.662-.012-3.51-1.114l.002-.002c-.153.092-.307.177-.46.255-.01.003-.022.012-.035.018-.045.02-.088.045-.13.066-.015.007-.027.015-.04.02-.045.02-.09.044-.133.062-.01.004-.02.01-.028.015-.204.095-.406.18-.6.255l-.017.008-.137.053c-.008.003-.017.006-.025.007-.043.018-.088.036-.132.05-.003.003-.014.005-.02.007-.192.07-.377.132-.55.186-.043.01-.083.025-.125.034-.003.004-.01.004-.02.007-.035.013-.072.024-.11.032-.004.002-.013.004-.02.008-.035.008-.072.02-.107.03-.155.042-.296.075-.423.105-.006.002-.01.005-.02.005l-.078.02h-.018c-.023.01-.047.014-.072.02h-.003l-.33.07h-.012c-.01.003-.018.005-.025.005-.002 0-.007.007-.01.007l-.02.002.106 1.796c.275.065 2.042-.046 3.54-.688.305-.132.598-.285.864-.46v4.128h.48v7.22c1.348.455 2.733.836 4.163 1.094l.005-8.313h.356v-4.475c.323.466.66.856 1.01 1.2.332.33.66.638 1.028.833 1.716.917 3.32.894 5.003.12.437-.197.802-.546 1.155-.9.35-.357.67-.756.93-1.203V61.7h.356v8.33c1.435-.23 2.822-.572 4.174-1l-.003-7.33h.48v-4.433c.268.286.622.508 1.005.69 1.417.683 3.3.75 3.507.7v-1.673c-.138-.042-1.78.346-3.503-1.32M62.266 50.69c.42-.422.693-.78.693-.78l-.98-1.43c-.155.034-.62 1.265-2.253 1.537-.242.243-1.444 1.04-3.797.925l.022-1.586h.095c.08.008.202.01.36 0 .035 0 .07 0 .107-.004H53.59c-.682 3.257-2.448 3.352-4.067 3.536l.006.05.032 1.585.003.055c.39-.04 1.464-.103 2.39-.433.087-.03.18-.06.263-.095.015-.005.03-.013.046-.02.152-.067.293-.15.426-.24.03-.023.057-.035.09-.056l.006.002c.067-.05.11-.117.173-.17.014.004.03.006.04.012v-.017c.15.043.3.072.456.1.438.074.902.068 1.35-.094.027-.01.048-.018.07-.028l.086-.035c.027-.017.054-.028.083-.04.025-.02.056-.033.082-.05.03-.016.058-.03.084-.05.027-.017.053-.033.08-.054.03-.02.052-.04.08-.06.026-.02.055-.04.076-.06.026-.024.057-.047.083-.073l.068-.065.085-.084c.02-.02.04-.045.06-.068.06-.07.13-.15.187-.237.064-.087.128-.18.187-.284v.034c.012-.016.02-.028.03-.046v2.011c-.135.032-.545.555-1.363.856-.366.14-.813.234-1.355.222v.69h.477l.014 8.583c1.506-1.108 2.89-2.368 4.154-3.74v-4.842h.36v-4.476c.41.215.88.335 1.247.372.054.008.098.008.146.01h.033c.86.014 1.79-.743 2.406-1.363"/>
  </g>
  <path opacity=".5" fill="#FFF" d="M65.01 47.245c-.116-.127-.23-.266-.34-.43h-4.78c-.834 2.12-2.5 2.484-3.375 2.538-.036.002-.072.002-.107.002-.158.01-.28.01-.36 0h-.095l-.022 1.587c2.354.116 3.556-.683 3.797-.925 1.634-.272 2.1-1.502 2.254-1.537h.016l.984 1.436s-1.65 2.163-3.104 2.144c-.004 0-.014 0-.018-.002v.002l-.033-.004c-.03-.002-.064-.002-.1-.005v1.56h.48v4.645c2.316-3.238 3.965-6.974 4.805-11.01"/>
  <path opacity=".5" fill="#FFF" d="M59.857 52.058h-.035c.01 0 .022 0 .034.002v-.002zM34.358 70.312c.755.06 1.517.107 2.29.107.633 0 1.253-.048 1.877-.09V62.1h.357v-2.776c-1.754.528-3.102.77-5.003-.122V62.1h.478v8.212zM38.84 55.3h-4.776c-1.034 1.887-4.533 2.33-4.677 2.368v1.39c.188.047 1.375-.035 2.476-.322v.01c.027-.006.052-.02.08-.03.037-.01.074-.017.108-.027v-.014c.228-.074.452-.157.672-.26 0 .004.003.01.007.014.02-.013.05-.03.077-.044.02-.01.044-.015.062-.02-.003-.003-.003-.008-.007-.01.33-.178.79-.478 1.094-.73 1.706 1.208 3.705.848 4.947.017v-.008c.328.272.838.603 1.164.77-.003.002-.005.004-.007.01.24.11.494.19.743.268v.014c.036.008.074.018.108.028.027.006.054.02.08.03v-.01c1.103.283 2.284.363 2.478.32v-1.388c-.142-.043-3.53-.347-4.627-2.378M17.668 79.372c-.217-.904-.995-1.375-1.887-1.375-1.91 0-2.445 1.707-2.483 3.312 0 1.68.345 3.656 2.445 3.656 1.174 0 1.862-.612 2.424-1.11l.394.218c-.153.497-.293.994-.407 1.505-.74.266-1.695.61-2.97.61-2.727 0-4.906-1.746-4.906-4.588 0-3.06 2.32-4.765 5.226-4.765 1.02 0 2.115.253 3.058.622-.05.293-.14.573-.203.853-.075.357-.128.7-.18 1.058h-.51zM20.52 86.076c-.292-.064-.56-.116-.866-.116-.292 0-.572.052-.853.116l.79-1.695c.473-1.005 1.173-2.75 1.85-4.41.38-.94 1.02-2.65 1.17-3.07.294.064.6.116.894.116.307 0 .624-.052.905-.114.38 1.21 1.197 3.438 1.82 5.006.727 1.81 1.046 2.626 1.76 4.17-.498-.104-1.16-.117-1.67-.117-.55 0-1.097.053-1.645.117-.166-.638-.344-1.224-.56-1.823-.562 0-1.122-.013-1.684-.013-.444 0-.89.014-1.336.014-.23.6-.395 1.21-.573 1.822m2.09-5.94l-1.146 2.97c.382.014.75.014 1.12.014.37 0 .753 0 1.122-.013l-1.096-2.97zM29.555 83.564c.166.88 1.032 1.44 2.013 1.44.6 0 1.287-.242 1.287-.918 0-.612-.497-.904-2.19-1.606-1.136-.47-1.925-1.374-1.925-2.66 0-2.028 1.517-2.995 3.39-2.995.918 0 1.834.228 2.688.548-.254.573-.445 1.3-.497 1.897h-.508c-.142-.738-.74-1.363-1.644-1.363-.55 0-1.326.254-1.326.917 0 .65.714.867 1.644 1.275l.98.43c1.136.498 1.595 1.313 1.595 2.538 0 2.13-1.516 3.122-3.53 3.122-1.107 0-1.783-.192-2.803-.548.153-.713.242-1.135.306-2.078h.522zM43.496 79.372c-.218-.904-.996-1.375-1.887-1.375-1.914 0-2.448 1.707-2.485 3.312 0 1.68.343 3.656 2.446 3.656 1.173 0 1.86-.612 2.423-1.11l.394.218c-.153.497-.292.994-.407 1.505-.74.266-1.694.61-2.97.61-2.727 0-4.906-1.746-4.906-4.588 0-3.06 2.32-4.765 5.225-4.765 1.02 0 2.114.253 3.058.622-.05.293-.14.573-.204.853-.075.357-.126.7-.178 1.058h-.51zM55.293 81.462c0 3.187-2.305 4.728-5.275 4.728-2.803 0-5.108-1.72-5.108-4.677 0-3.045 2.243-4.675 5.16-4.675 2.93 0 5.223 1.63 5.223 4.624m-3.058.026c0-1.453-.254-3.606-2.153-3.606-1.784 0-2.114 2.026-2.114 3.428 0 1.58.152 3.837 2.204 3.837 1.848 0 2.063-2.283 2.063-3.66M57.255 83.564c.166.88 1.03 1.44 2.014 1.44.598 0 1.285-.242 1.285-.918 0-.612-.497-.904-2.19-1.606-1.134-.47-1.924-1.374-1.924-2.66 0-2.028 1.518-2.995 3.39-2.995.918 0 1.836.228 2.688.548-.254.573-.445 1.3-.496 1.897h-.51c-.14-.738-.74-1.363-1.645-1.363-.546 0-1.324.254-1.324.917 0 .65.714.867 1.644 1.275l.98.43c1.134.498 1.594 1.313 1.594 2.538 0 2.13-1.516 3.122-3.53 3.122-1.108 0-1.783-.192-2.802-.548.15-.713.24-1.135.306-2.078h.52zM14.23 92.67c.455.08 1.945.33 1.945 1.968 0 1.376-1.173 2.242-2.823 2.242-.307 0-1.217-.07-1.693-.07-.365 0-.752.035-1.14.07.07-.945.09-2.174.09-3.164 0-1.093 0-2.196-.033-3.288-.022-.728-.068-1.105-.103-1.446.262.057.625.068.98.068.557 0 1.307-.068 2.046-.068 1.366 0 2.47.64 2.47 1.867 0 1.34-1.25 1.648-1.74 1.762v.057zm-1.74-.32c.08.013.147.013.225.013.66 0 1.333-.353 1.333-1.354 0-.89-.42-1.288-1.297-1.288-.066 0-.137 0-.25.012 0 .136-.01.796-.01.943v1.674zm0 .75c0 1.856 0 2.232.02 2.972.103.012.218.02.343.02.922 0 1.31-.68 1.31-1.535 0-1.194-.616-1.456-1.674-1.456M17.598 90.79c0-.727-.058-1.353-.112-1.81.363.058.728.07 1.103.07.353 0 .693-.022 1.035-.07-.08.832-.126 1.788-.126 2.254v3.698c0 .33.012.672.022 1 .74 0 1.98 0 2.674-.145-.046.273-.057.408-.057.546 0 .17.033.387.056.545-.568-.046-1.31-.09-1.945-.09-.796 0-1.717.057-2.753.09.068-.603.102-1.262.102-2.07v-4.017zM25.882 88.892c.194.047.4.067.592.067.182 0 .376-.022.558-.068 1.07 3.14 2.378 6.326 3.083 7.986-.353-.056-.717-.066-1.067-.066-.377 0-.854 0-1.207.066-.33-1.182-.603-1.9-.728-2.24-.387-.012-.774-.034-1.185-.034-.42 0-.864.012-1.308.034-.194.558-.49 1.398-.683 2.24-.218-.034-.398-.066-.627-.066-.114 0-.387 0-.637.066.695-1.468 2.424-5.746 3.21-7.986m.034 2.39l-.968 2.49c.307.024.614.034.92.034.32 0 .638-.023.956-.034l-.91-2.49zM37.056 91.645c0-.217-.056-2.082-.146-2.663.183.047.455.07.637.07.204 0 .41-.023.616-.07-.16.98-.206 4.178-.206 5.44 0 .818 0 1.65.09 2.456-.238-.033-.443-.066-.67-.066-.24 0-.455.02-.66.066-.364-.5-.5-.658-1.718-2.093l-2.915-3.277v2.846c0 .512.09 2.048.137 2.524-.205-.033-.41-.066-.613-.066-.23 0-.377.033-.594.066.17-2.093.17-2.594.17-4.47 0-2.05 0-2.618-.08-3.427.264.037.514.07.765.07.228 0 .454-.033.67-.07 1.116 1.457 3.563 4.2 4.518 5.246v-2.58zM46.23 90.734c-.272-.683-1.105-1.115-1.99-1.115-1.742 0-2.585 1.502-2.585 3.3 0 1.91.957 3.265 2.72 3.265.9 0 1.536-.374 2.14-.888l.192.114c-.103.263-.216.583-.33 1.082-.762.364-1.603.512-2.435.512-2.787 0-4.358-1.774-4.358-4.04 0-2.4 1.73-4.118 4.483-4.118.944 0 1.89.172 2.742.58-.217.432-.297 1.07-.33 1.31h-.25zM51.758 97.026c-2.536 0-4.37-1.365-4.37-4.038 0-2.402 1.572-4.165 4.44-4.165 2.445 0 4.402 1.318 4.402 3.948 0 2.924-2.184 4.256-4.472 4.256m.092-7.395c-1.73 0-2.39 1.628-2.39 3.415 0 2.264 1.115 3.174 2.298 3.174 1.445 0 2.403-1.252 2.403-3.426 0-1.877-.83-3.163-2.31-3.163M61.762 90.79c-.216-.863-.888-1.114-1.48-1.114-.227 0-1.284.024-1.284.99 0 .717.512.922 2.194 1.594.33.137.787.41 1.094.875.26.388.34.843.34 1.287 0 1.48-1.057 2.594-3.025 2.594-1.148 0-1.808-.353-2.173-.558.138-.455.238-1.173.238-1.57h.285c.182 1.025 1.048 1.332 1.73 1.332.956 0 1.365-.56 1.365-1.14 0-.637-.398-.818-1.786-1.422-1.037-.455-1.742-1.046-1.742-2.297 0-1.57 1.047-2.458 2.764-2.458 1.082 0 1.662.308 2.106.547-.216.386-.354 1.057-.376 1.34h-.25z"/>
</svg>
