<svg xmlns="http://www.w3.org/2000/svg" width="271.333" height="87.333" viewBox="0 0 271.333 87.333">
  <g fill="#FFF">
    <path d="M221.354 16.21c-1.31.212-2.58.538-3.802.97.245.268.508.52.788.76.96-.645 1.967-1.224 3.014-1.73zm21.632 9.062c-1.113-1.558-2.42-2.967-3.885-4.19-.72.624-1.49 1.2-2.304 1.726 1.1 1.352 2.06 2.823 2.86 4.394 1.158-.58 2.27-1.224 3.33-1.93zm-4.723-4.856c-1.517-1.148-3.184-2.104-4.965-2.837-.292.347-.61.676-.952.983 1.37 1.01 2.63 2.164 3.76 3.436.763-.482 1.483-1.012 2.157-1.584zm-6.013-3.236c-1.222-.432-2.493-.758-3.802-.97 1.048.506 2.055 1.085 3.014 1.73.28-.24.543-.493.788-.76zm-7.348-2.454c12.97 0 23.478 10.6 23.478 23.666s-10.507 23.665-23.478 23.665c-12.97 0-23.478-10.6-23.478-23.665s10.507-23.666 23.478-23.666zm3.912 4.81c.625-.253 1.214-.563 1.757-.925-1.24-.807-2.562-1.498-3.95-2.058.783.953 1.516 1.95 2.194 2.984zm-3.386.737c.82-.04 1.61-.173 2.358-.385-.725-1.09-1.513-2.132-2.358-3.123v3.508zm2.95.536c-.932.292-1.922.47-2.95.517v3.847c1.706-.04 3.356-.278 4.924-.688-.582-1.27-1.242-2.5-1.973-3.677zm3.122-1.564c-.647.47-1.356.87-2.115 1.192.737 1.203 1.402 2.456 1.99 3.753 1.344-.424 2.622-.978 3.81-1.643-1.108-1.226-2.344-2.332-3.685-3.3zm-10.512.29c.68-1.035 1.412-2.03 2.194-2.983-1.388.56-2.71 1.25-3.952 2.06.545.36 1.133.67 1.758.923zm3.387-2.77c-.844.99-1.632 2.034-2.358 3.123.75.21 1.54.344 2.358.384v-3.508zM211.73 56.513c.517.194 1.255.417 2.165.36 1.203-.075 2.78-.677 4.283-1.24 1.502-.563 5.446-1.503 6.385-1.69.94-.188 1.165-.6 1.39-1.015.226-.413.075-1.014-.037-1.728-.112-.714-.3-1.84-.338-2.893-.037-1.052-.074-1.99-1.728-3.042-1.653-1.05-2.705-2.29-2.592-3.23.112-.94 1.202-1.73 1.202-1.73s-.263-.787-.15-1.126c.112-.34 1.127-.226 1.127-.226s-.15-1.127-.075-1.428c.075-.3.6-.15.6-.15l.49-.3s-.376-.79-.527-1.315c-.15-.524.15-.938.75-.938s1.353-.074 3.156-.487c1.805-.414 2.593-3.87 6.838-4.545 4.245-.678 7.55 2.554 7.55 2.554s6.762 6.35 2.33 13.523c-3.847 6.225-8.753 4.657-8.753 4.657s-.864.414-.45 2.216c.413 1.804 3.004 3.306 3.004 3.306l.207.1c5.25-4.112 8.628-10.537 8.628-17.754 0-4.515-1.33-8.728-3.606-12.25-1.103.735-2.263 1.406-3.47 2.008.316.693.6 1.404.854 2.132-.44-.26-.902-.49-1.378-.686-.134-.334-.275-.665-.423-.992-.37.168-.74.33-1.114.485-.73-.18-1.472-.28-2.203-.287.98-.34 1.934-.723 2.86-1.147-.785-1.538-1.732-2.978-2.82-4.297-1.274.73-2.645 1.337-4.092 1.802.545 1.307 1.01 2.655 1.393 4.04-.366.11-.692.236-.988.374-.385-1.412-.86-2.785-1.42-4.115-1.702.46-3.497.724-5.352.766v4.41c2.06-.035 4.073-.254 6.014-.64-.616.404-1.07.863-1.48 1.324-1.48.218-2.994.344-4.534.37v1.52c-.236.015-.486.023-.75.023-.106 0-.207.006-.302.017v-7.024c-.83-.02-1.65-.082-2.453-.188-.247-.414-.536-.815-.86-1.198 1.074.193 2.182.308 3.313.334v-3.847c-1.028-.046-2.018-.225-2.95-.518-.57.915-1.094 1.86-1.573 2.83-.27-.227-.556-.443-.852-.645.44-.875.91-1.727 1.418-2.556-.758-.323-1.468-.725-2.114-1.193-.935.674-1.817 1.415-2.642 2.217-.414-.105-.833-.183-1.255-.23.94-.97 1.96-1.865 3.05-2.67-.342-.307-.66-.636-.953-.983-1.78.733-3.447 1.69-4.965 2.838-5.2 3.937-8.642 10.113-8.907 17.104.136-.124 2.242-2.03 3.223-2.247 1.014-.226 1.802-1.99 1.802-2.29s-1.917-4.97.414-8.078c2.028-2.704 5.146-4.094 10.067-1.352s3.98 6.687 3.04 7.964-1.35 1.69-1.2 2.29c.15.6.6 1.052.412 1.352-.188.3-1.126.414-1.126.414s.225.64.188.863c-.037.225-.563.187-.563.187s.114.376.04.64-.94.11-.94.11.188 1.615-1.953 1.354c-2.142-.262-2.593-.938-3.23-.45-.64.49-.527 1.127-.076 3.006.452 1.878.64 6.122.64 6.122l1.295.92s1.972.095 2.44.132c.47.037.997.17 1.298.188.3.02 1.54-.957 2.197-1.107.657-.15.864.038.864.207s-.188.64-.188.64 1.052-.395 1.428-.3c.375.093.582.487.3 1.84-.282 1.352-.864 2.215-2.047 2.347-1.184.132-1.973-.432-2.817-.413-.845.02-3.343 1.185-5.353 1.016-2.01-.17-2.536-1.015-2.536-1.015s-.694 1.278-.788 1.785c-.063.344-.015.745.022.97.706.68 1.456 1.314 2.246 1.898z"/>
    <path d="M213.67 64.01c-1.24.226-4.3-.15-6.104-2.348-1.535-1.87-2.404-6.367-2.16-6.556.244-.188 2.535 1.636 4.9 3.794 2.368 2.16 4.604 4.884 3.364 5.11zm-5.56.375c-.188.264-3.48 1.203-7.024-.864-3.605-2.102-5.356-6.015-5.296-6.196.112-.338 2.516.226 7.062 2.78 4.545 2.553 5.522 4.018 5.258 4.28zm-3.08-4.47c-.262.112-3.494-1.465-4.432-5.484-.94-4.02.292-6.798.563-6.91.452-.188 1.88 2.18 2.93 5.822 1.054 3.643 1.354 6.46.94 6.573zm-4.056-1.71c-.394.132-3.907-1.333-6.442-4.394-2.16-2.61-3.173-6.93-2.968-7.062.207-.13 3.155 2.424 5.56 5.147 2.403 2.724 4.244 6.18 3.85 6.31zm-2.236-5.84c-.525-.112-2.047-1.846-1.84-6.143.13-2.742 2.275-6.25 2.666-6.235.526.02.77 2.562.544 5.897-.224 3.345-.844 6.594-1.37 6.48zm-8.02-16.115c.395-.3 2.217 2.817 3.363 5.41.974 2.198 2.217 6.93 1.71 7.1-.32.106-2.93-1.522-4.396-5.467-1.18-3.178-.88-6.89-.675-7.043zm8.81-3.268c.356.094.206 2.93-.865 5.897-1.07 2.967-2.535 5.596-2.854 5.407-.32-.188-.92-3.7.093-6.366 1.014-2.666 3.267-5.032 3.624-4.938zm-3.776 2.347c-.282-.357-.423-3.54 1.708-6.254 2.066-2.63 3.87-3.457 4.208-3.287.338.168-.79 3.173-2.178 5.295-1.4 2.14-3.505 4.54-3.738 4.244zm-.62-5.297c-.48-.24-.443-2.69.77-5.202 1.07-2.215 3.38-4.356 3.776-4.207.394.15-.443 3.332-1.334 5.354-.77 1.747-2.8 4.263-3.212 4.056zm-1.934-3.625c.375-.075 1.352 2.704 1.54 6.46.188 3.758-.188 6.688-.45 6.688-.264 0-2.2-1.615-2.31-5.597-.114-3.982.845-7.477 1.22-7.552zm39.066 48.308c-.563.188-.75-2.255-5.446-5.447-.75-.51-1.447-.936-2.092-1.292-.545.312-1.126.675-1.74 1.093-4.695 3.193-4.882 5.635-5.446 5.447-.563-.188-1.465-1.203-1.465-1.203s3.204-3.942 7.046-6.14c-2.245-.998-3.514-1.022-3.514-1.022s-1.624 2.704-6.65 2.403c-5.032-.3-7.7-1.428-8.525-1.99-.198-.136-1.05-1.015 5.334-1.615 5.997-.565 10.734-.2 14.898 1.46 4.28-1.83 9.15-2.246 15.378-1.66 6.386.602 5.533 1.48 5.334 1.616-.826.562-3.494 1.69-8.527 1.99-5.025.3-6.648-2.403-6.648-2.403s-1.42.028-3.91 1.205c4.014 2.14 7.44 6.356 7.44 6.356s-.902 1.013-1.466 1.202zm3.87-10.905c-1.242-.224.994-2.948 3.36-5.108 2.368-2.158 4.66-3.98 4.903-3.794.244.188-.626 4.685-2.16 6.556-1.803 2.196-4.864 2.572-6.104 2.347zm5.558.376c-.263-.262.713-1.728 5.26-4.28 4.544-2.556 6.948-3.12 7.06-2.78.062.18-1.69 4.094-5.296 6.197-3.542 2.066-6.836 1.126-7.024.863zm3.08-4.47c-.413-.113-.113-2.93.94-6.573 1.05-3.644 2.478-6.01 2.93-5.822.27.113 1.5 2.894.563 6.913-.94 4.018-4.17 5.596-4.433 5.483zm4.057-1.708c-.395-.132 1.446-3.588 3.85-6.312 2.404-2.723 5.352-5.277 5.56-5.147.206.132-.808 4.452-2.97 7.062-2.535 3.06-6.046 4.527-6.44 4.396zm2.234-5.843c-.526.113-1.146-3.136-1.37-6.48-.225-3.334.018-5.877.543-5.896.393-.014 2.536 3.493 2.667 6.235.207 4.295-1.313 6.03-1.84 6.14zm8.02-16.114c.204.155.505 3.866-.675 7.044-1.466 3.945-4.075 5.573-4.396 5.466-.507-.17.737-4.9 1.708-7.1 1.147-2.592 2.968-5.71 3.362-5.41zm-8.808-3.267c.357-.095 2.61 2.272 3.625 4.94 1.015 2.666.415 6.178.095 6.365-.32.188-1.784-2.44-2.854-5.408-1.07-2.967-1.22-5.803-.864-5.897zm3.775 2.348c-.233.296-2.336-2.104-3.737-4.244-1.39-2.122-2.517-5.127-2.18-5.297.34-.17 2.143.657 4.208 3.287 2.134 2.713 1.993 5.896 1.71 6.254zm.62-5.295c-.413.206-2.44-2.31-3.21-4.058-.893-2.02-1.73-5.203-1.334-5.353.394-.15 2.704 1.99 3.774 4.207 1.214 2.514 1.252 4.963.77 5.205zm1.935-3.626c.375.075 1.333 3.568 1.22 7.55s-2.046 5.597-2.31 5.597c-.263 0-.64-2.93-.45-6.687.188-3.757 1.165-6.535 1.54-6.46z"/>
    <path fill-rule="evenodd" clip-rule="evenodd" d="M174.07 67.716V36.444h8.32V31.71h-8.32v-5.737c-.216-3.943 2.008-4.948 5.88-4.948 1.148 0 2.296.143 3.443.216v-5.666c-1.65-.287-3.227-.717-4.878-.717-5.092 0-11.044 2.08-11.26 9.97v6.885h-7.028v4.733h7.028v31.27h6.815zM134.9 46.27c0-5.88 3.37-10.686 9.035-10.686 6.6 0 9.325 4.662 9.18 10.687H134.9zm25.39 4.734v-3.37c0-9.97-5.092-16.784-15.852-17-11.403 0-16.71 8.823-16.71 19.367 0 10.615 4.59 18.79 16.137 18.79 8.606 0 14.917-4.088 15.994-12.264h-7.174c-.79 5.236-3.443 7.316-8.75 7.316-6.957 0-9.538-6.527-9.036-12.84h25.39zm-35.07-7.746c-.36-7.817-6.097-12.623-13.7-12.623-11.403 0-16.71 8.822-16.71 19.366 0 10.615 4.588 18.79 16.137 18.79 7.96 0 13.985-4.947 14.56-13.054h-6.815c-.358 5.165-3.155 8.106-7.674 8.106-6.527 0-9.036-5.666-9.036-14.13 0-8.463 2.51-14.13 9.036-14.13 4.876 0 7.03 3.156 7.387 7.675h6.814zm-42.175-19.94h8.104v-7.387h-8.105v7.39zm7.46 44.398V31.71H83.69v36.006h6.814zM53.364 31.71h-6.67v36.006h6.814v-19.58c0-7.03 1.864-8.607 2.87-9.61 2.867-2.87 6.597-2.654 6.597-2.654 5.738 0 8.25 3.227 8.25 9.18v22.665h6.81v-24.89c0-11.547-11.116-12.192-13.625-12.192-3.586 0-8.607 1.865-10.903 6.385h-.144v-5.31zM33.564 50.216c0 .86-.072 5.092-1.363 8.463-1.435 3.73-5.235 5.165-8.033 5.165-6.527 0-7.962-4.59-7.962-10.83V31.71H9.393v24.1c0 7.243 4.304 12.98 11.834 12.98 5.02 0 9.612-1.864 12.336-6.383h.143v5.31h6.67V31.71h-6.813v18.505z"/>
  </g>
</svg>
