<svg xmlns="http://www.w3.org/2000/svg" width="92.667" height="112" viewBox="0 0 92.667 112">
  <g fill="#FFF">
    <path d="M52.712 34.996c.375-.812.723-1.458 1.223-2.23.22-.338.47-.575.693-.92-.107-.03-.262.06-.328.106-.223.16-.324.424-.502.563-.42.332-.408.633-.63.788-.196.14-.253.23-.392.447-.092.145-.16.262-.258.546-.033.104-.104.013-.268.238-.215.294-.312.61-.4.968-.03.116-.23.18-.355.42-.172.33-.283.632-.357 1.11-.02.11-.205.187-.334.495-.092.217-.158.265-.238.673-.05.25-.162.285-.29.646-.1.276-.103.542-.138.902-.008.07-.125.208-.234.41-.184.338-.178.563-.25.912-.027.126-.17.293-.305.833-.12.48-.01.797-.052 1.033-.105.613-.21 1.146-.154 1.75.027.295.074.6.055.884-.058.89-.106 1.625-.1 2.634 0 .55.044 1.302.128 1.928.09.69.223 1.23.223 1.23h2.255s-.09-1.302.027-2.673c.07-.823.266-1.695.443-2.307.225-.78.365-1.186.79-2.215.01-.022-.003-.12-.114-.025-.235.198-.43.37-.616.65-.283.428-.457.78-.686 1.22-.27.51-.418.954-.693 1.574-.018-.447.057-.873.146-1.285.095-.422.17-.755.3-1.117.234-.64.463-1.175.84-1.77.22-.345.496-.653.78-.91.34-.31.65-.582 1.005-.885-.37-.192-.867.21-.967.23-.523.1-.736.587-.898.653-.23.096-.36.236-.52.43-.123.146-.16.37-.29.45-.212.132-.368.333-.517.614-.06.115-.225.663-.406.593.312-1.856.967-3.6 2.02-5.148.668-.983 1.393-1.826 2.463-2.582.14-.1.168-.146-.03-.14-1 .12-1.06.578-1.224.62-.156.04-.35.227-.473.347-.223.22-.22.405-.305.463-.182.127-.318.26-.443.48-.066.115-.176.37-.273.427-.256.148-.506.365-.63.6-.09.17-.128.356-.247.524-.13.182-.307.316-.46.447.116-.794.49-1.734.747-2.545.345-1.08.765-2.062 1.24-3.086zM55.013 41.428c.852-1.914 1.75-3.355 2.916-5.04.15-.222.288-.438.42-.646.062-.093.347-.505.407-.592.39-.59.555-.77.955-1.336.11-.153.197-.273.242-.45.086-.33-.197-.552-.264-.87-.064-.322-.03-.676.12-.948.093-.172.185-.238.278-.468.182-.44.12-1.396.326-1.422-.053.453-.064.963.006 1.398.084.508.393.814.52 1.353.342-.062.715-.047 1.002-.022s.648-.055.94-.155c.4-.136.73-.383 1.134-.48-.344.333-.83.457-1.238.71-.15.093-.29.217-.39.372-.165.255-.296.5-.552.61-.455.2-.846.105-1.367.202-.772.796-1.5 1.878-2.17 3.016-1.702 2.878-3.12 5.858-3.944 8.915.285-.532.557-1.046.865-1.553.343-.562.728-1.11 1.146-1.663.98-1.292 1.947-2.42 3.033-3.605.876-.958 1.835-1.763 2.907-2.435 1.414-.887 3.16-1.508 4.693-1.188.176.04.424.088.533.202-1.922-.27-3.645.402-4.93 1.432-1.016.812-1.87 1.636-2.74 2.707-.45.516-.854 1.083-1.254 1.633-.42.577-.794 1.186-1.163 1.794-1.246 2.057-2.19 4.235-2.883 6.492-.02.07-.023.144-.045.215.032-.05.08-.106.114-.158.934-1.518 2.057-2.982 3.477-3.965.126-.085.255-.248.288-.376.154-.604-.305-.894.33-1.726.146-.19.346-.262.482-.44.26-.4.473-1.12.69-1.314-.11.47-.378.964-.437 1.447-.06.53.074.964.1 1.526.375.05.666.21.96.3.458.144.733.107 1.187.068.193-.016.543-.13.752-.086-.438.24-1.03.195-1.477.424-.314.16-.404.398-.838.48-.385.076-.71.036-.96-.093-.194-.098-.347-.14-.52-.056-.467.224-.785.54-1.16.92-.873.876-1.584 1.855-2.248 3.14-.177.342-.335.68-.485 1.027-.074.17-.258.64-.258.64H52.24s-.006-.657.016-.897c.043-.478.107-.832.2-1.316.134-.698.263-1.33.444-2.008.176-.658.365-1.276.592-1.908.472-1.318.972-2.58 1.52-3.81zM32.98 59.175c.833-.68 1.448-1.073 2.278-1.568.338-.202.848-.43 1.24-.607 1.44-.65 3.342-1.13 5.137-1.163.03 0 .03.002.03.002h13.37s-.05-.003.047-.003c.426 0 .846.148 1.107.394.26.25.384.63.452 1.01.06.323.03.61-.045.957-.06.272-.104.436-.256.668-.09.14-.18.237-.35.374-.175.14-.425.187-.71.19l-.09.003c.002-.003-15.64-.003-15.64-.003h-.147c-1.023-.004-2.102.05-3.113.18-.775.106-1.55.228-2.3.423-.946.246-1.855.588-2.763.927.506-.67 1.086-1.24 1.754-1.785z"/>
    <path d="M37.624 53.855c.822-.594 1.82-1.08 2.703-1.42.45-.17 1.045-.356 1.518-.475.572-.145 1.23-.252 1.764-.27.16-.003.022 0 .022 0h11.47s.245.012.33.028c.216.047.39.135.462.18.178.115.402.355.518.545.3.49.352 1.02.254 1.57-.11.63-.588 1.346-1.236 1.363-.113.003-.338 0-.338 0H42.67s-.724.014-1.054.026c-.61.023-1.287.094-1.822.172-.455.065-.9.152-1.357.273-1.53.415-2.863 1.19-4.254 1.795.937-1.636 2.205-2.89 3.44-3.787zM31.21 61.65c1.992-1.18 4.395-1.644 6.594-1.717.05-.003.156-.006.156-.006l17.145.002.186-.003c1.04 0 1.42 1.03 1.415 1.864-.002.274-.05.556-.125.743-.1.246-.21.446-.387.64-.064.07-.293.232-.395.257-.238.058-.53.052-.53.052.005 0-12.75.002-12.75 0 0 0-.69-.027-1.165-.074-.346-.033-.605-.07-.963-.138-.88-.174-1.607-.46-2.367-.694-.508-.157-1.04-.274-1.598-.358-1.023-.156-2.14-.228-3.176-.15-1.315.1-2.483.356-3.735.753.213-.33 1.09-.813 1.695-1.17z"/>
    <path d="M40.444 67.025c-.586-.207-1.158-.473-1.672-.812-.668-.442-.996-.794-1.86-1.193-.737-.342-1.327-.68-2.358-1.052-.496-.18-1.303-.428-1.994-.547-.986-.166-1.938-.24-1.938-.24s.2-.125.322-.162c1.008-.307 1.898-.456 2.932-.532.906-.068 1.74.02 2.65.162.373.06.857.174 1.28.294 1.366.39 2.923 1.007 4.304 1.01.076 0 .066-.002.066-.002h12.786c.384 0 1.106.124 1.395.637.336.59.44 1.293.158 1.997-.086.21-.227.514-.432.698-.178.16-.47.266-.637.266-.05.002-.133 0-.133 0H44.17h-.06c-1.14 0-2.574-.138-3.666-.523zM45.52 70.98c-.313-.325-.75-.82-1.142-1.292-.758-.902-1.096-1.715-1.096-1.715h7.434s.02.858-.152 1.85c-.16.924-.5 1.897-.863 2.6-.013.723.292 1.395.343 2.107-.61.375-1.268.746-1.814 1.272-.036.03-.093.03-.116-.055-.293-1.1-.447-2.08-.688-3.166-.68-.522-1.314-.99-1.905-1.6zM53.183 70.37c-.21-.39-.367-.902-.61-1.207-.05.272.015.44-.022.7-.034.218-.212.127-.25.024-.103-.295-.214-.66-.31-.962-.158-.504-.21-.95-.21-.95l1.237-.002s.05.012.07.133c.06.312.045.616.13.977.108.466.25.89.42 1.323.15.382.343.767.497 1.146.02.05.033.145-.006.195-.045.058-.125.05-.17 0-.354-.4-.496-.857-.775-1.378zM55.097 71.253c-.21-.448-.506-.952-.48-1.46.137.18.193.308.38.408.087.028.27.003.224-.147-.083-.28-.212-.518-.33-.902-.18-.567-.35-1.175-.35-1.175h-1.265s.07.512.357 1.298c.252.696.643 1.492 1.068 2.24.348.613.662 1.148 1.057 1.598.135.155.467.02.322-.182-.374-.53-.724-1.115-.983-1.675zM63.294 28.587c-.275.12-.516.273-.652.536-.1.19-.168.48.023.64.332.285.73-.006.89-.297.206-.37.153-1.078.153-1.078s-.238.123-.414.2z"/>
    <path d="M63.583 30.354c.12-.226.383-.47.67-.645.324-.2.662-.393.896-.532.233-.14.278-.24.278-.24s-.193.067-.3.13c-.577.344-1.208.735-1.466.85-.322.14-.764.168-1.16.218-.062-.5-.193-.707-.19-1.152.003-.213.054-.49.09-.683.124-.642.15-.966.15-.966s-.1.092-.136.374c-.04.256-.068.35-.127.652-.067.348-.138.644-.347.86-.3.312-.578.865-.346 1.29.135.246.36.21.432.274s.112.216.325.287c.464.156.988-.258 1.228-.716z"/>
    <path d="M62.985 31.676c.156-.255.316-.433.564-.585.407-.248.712-.418.962-.545.107-.055.2-.12.227-.235-.112.042-.536.24-.956.49-.3.18-.816.404-1.164.42-.14.006-.24-.028-.354-.03-.232-.01-.53.045-.53.045s-.073-.33-.173-.565c-.05-.122-.13-.247-.174-.476-.03-.152-.04-.38-.028-.517.035-.412.146-.812.127-1.23-.26.538-.153 1.2-.458 1.616-.13.175-.23.313-.33.533-.166.362-.146.736.078 1.085.13.2.418.192.467.23.076.056.14.264.42.326.48.11 1.047-.113 1.318-.56zM63.118 42.188c.113-.227.186-.522.328-.732-.322.05-.375.086-.842.137-.102.01-.31.115-.38.185-.187.186-.347.358-.274.67.027.122.135.212.193.23.39.126.782-.105.975-.49z"/>
    <path d="M63.513 42.804c.44-.103.95-.32 1.154-.25-.414.22-.936.3-1.393.43-.35.1-.6.364-.912.604-.285.218-.666.307-1.006.146-.115-.055-.227-.24-.246-.338-.018-.08-.184-.158-.268-.228-.084-.07-.125-.247-.127-.315-.016-.61.45-.856.896-1.214.337-.272.774-1.416 1.04-1.653-.047.37-.525 1.065-.734 1.606-.166.432-.11.777-.22 1.23.32.022.677.088 1 .094.252.003.557-.052.817-.113z"/>
    <path d="M63.048 43.744c-.246.046-.55.123-.756.167-.72.153-1.062-.2-1.635-.19.05-.658-.178-.952.01-1.377.168-.378.322-.778.467-1.098.117-.257.152-.474.152-.474s-.174.262-.67 1.226c-.172.337-.48.41-.754.727-.316.363-.496 1.133.086 1.455.117.063.1.264.184.344.39.366 1.176.33 1.668-.117.39-.356.865-.414 1.27-.52.237-.06.446-.16.446-.16s-.113-.047-.468.02zM49.372 38.78c.188-.762.42-1.533.48-2.338.083-1.202-.177-2.45-.946-3.36.076.392.176.724.23 1.136.06.497-.01 1.05-.138 1.552-.096.38-.268.748-.438 1.1-.2.417-.498.87-.795 1.243-.834 1.037-2.133 3.06-2.133 3.06s-.11-.007-.174-.007c-.016-.252.582-1.116.885-1.6.662-1.06 1.164-1.63 1.74-2.55.36-.58.637-1.284.725-1.924.18-1.303-.52-2.863-1.53-3.382.23.973.206 2.344-.313 2.92-.98 1.093-1.562 1.91-2.262 3.31-.02.04-.184-.187-.318-.275-.152-.1-.068-.4-.12-.604-.052-.17-.132-.303-.155-.333-.207-.254-.408-.27-.45-.346-.052-.085-.028-.3-.208-.543-.09-.123-.32-.214-.414-.33-.102-.125-.146-.51-.426-.668-.133-.075-.193-.307-.322-.42-.393-.348-.783-.28-.86-.302-.1-.027-.296-.278-.647-.34-.342-.058-.53.17-.71.09-.446-.208-.874-.225-1.35.304-.142.157-.388.01-.694.246-.27.205-.276.396-.413.422-.258.048-.45.254-.55.48-.052.115-.09.35-.122.505-.04.214-.15.41-.152.567-.002.22.066.337.047.435-.03.14-.145.27-.16.403-.01.074-.016.274.04.387.067.14-.05.26-.11.406-.06.138-.12.373-.1.538.023.23.154.313.053.49-.166.293-.375.747-.008 1.328.068.106-.154.312-.166.616-.017.33.183.573.237.72.012.052-.088.05-.09.105-.877-.928-1.652-1.782-2.668-2.586-.622-.49-1.235-.903-1.923-1.27-1.838-.987-3.973-1.647-5.908-1.405.728.586 1.647 1.004 2.395 1.67.71.63 1.352 1.17 1.998 1.842 1.014 1.052 1.836 2.12 2.693 3.358.256.366.424.61.66.994.24.383.506.79.723 1.17 1.1 1.905 1.997 3.67 2.907 5.623.254.54.465 1.106.713 1.644.066.147.162.038.23 0 .33-.19.68-.35 1.02-.51.27-.126.52-.212.764-.306.617-.234 1.2-.362 1.846-.496 1.078-.226 3.012-.18 3.012-.18h3.77c-.04-1.053-.29-2.074-.35-3.13-.047-.853-.018-1.68.014-2.536.077-2.318.418-4.808.936-6.922zm-4.297 1.835c.07.204.164.354.084.557-.095.25-.337.284-.563.366-.213.077-.566.174-.744-.012-.203-.21-.285-.642-.04-.826.315-.235 1.096-.56 1.262-.085zm-2.617 4.202c-.246.28-.65.27-1.045.387-.152.045-.334-.09-.414-.23-.147-.26-.292-.61-.013-.862.232-.21.55-.193.832-.277.126-.04.282-.083.437.02.32.218.445.687.2.962zm.496.998c.08.32 0 .627-.287.73-.367.13-.863.318-1.158.12-.335-.225-.497-.863-.112-1.114.456-.296 1.363-.49 1.556.265zm-4.664-8.55c.1-.285.455-.27.723-.234.33.044.396.468.28.646-.163.246-.534.2-.827.16-.24-.03-.254-.348-.176-.572zm-.072-.94c.027-.087.066-.11.12-.138.224-.107.472-.136.687.002.154.1.14.332.027.452-.17.178-.512.185-.73.07-.143-.073-.15-.248-.104-.388zm2.168.47c-.268.165-.65.23-.902.09-.22-.12-.213-.442-.104-.615.18-.288.627-.32.934-.23.265.077.365.57.072.754zm.334.43c.236.135.285.513.143.732-.19.29-.844.458-1.195.204-.2-.145-.31-.74.102-.884.327-.114.64-.225.95-.05zm-2.27.993c.314-.13.902-.244 1.002.206.135.602-.574.7-.953.595-.29-.082-.347-.683-.05-.802zm-.04 1.352c.255-.303.685-.374 1.04-.276.217.06.318.313.312.598-.004.16-.115.278-.215.32-.252.102-.545.178-.82.144-.34-.043-.544-.518-.318-.786zm.17 1.242c.247-.254.69-.27 1.036-.223.213.028.305.243.334.477.082.64-.777.748-1.188.6-.27-.1-.41-.618-.18-.855zm1.237-1.61c-.213-.657.607-.864 1.086-.763.332.068.443.708.133.91-.383.25-1.062.33-1.22-.15zm3.3.732c-.185.34-.81.384-1.093.346-.2-.026-.34-.347-.332-.614.002-.138.045-.23.14-.28.31-.168.632-.28.97-.226.328.05.455.516.316.774zm.175.667c.123.198.21.462.025.706-.166.224-.762.328-1.064.255-.168-.04-.246-.244-.27-.38-.036-.186-.054-.372.11-.523.236-.215.55-.21.852-.21.124-.002.3.08.347.154zm-.465-1.99c-.215.323-1.084.524-1.275.194-.14-.24-.227-.58.035-.743.277-.17.605-.27.926-.213.302.054.457.55.314.764zm-.607-1.09c-.152.136-.307.165-.51.233-.28.097-.578-.12-.61-.393-.056-.463.442-.532.77-.59.24-.043.387.172.432.316.045.14.04.328-.082.435zm-2.03 2.43c.36-.205 1.135-.478 1.316.11.072.24.064.54-.14.645-.296.155-.765.317-1.105.105-.282-.18-.322-.716-.07-.86zm.317 1.353c.377-.266 1.123-.438 1.303.143.047.15.072.317-.004.438-.21.337-.74.425-1.094.375-.385-.057-.566-.704-.205-.957zm.28 1.334c.313-.16.765-.35 1.1-.134.155.1.315.51.206.69-.23.386-.838.484-1.225.385-.328-.085-.428-.766-.08-.94zm1.513-.022c-.076-.196-.148-.487.006-.606.312-.247 1.018-.462 1.285-.09.175.24.124.65-.18.808-.317.16-.932.344-1.11-.113zm2.11-3.54c.15.015.286.18.358.362.096.233 0 .506-.076.557-.18.123-.752.467-1.11.26-.198-.112-.253-.372-.267-.525-.04-.496.713-.7 1.096-.656zm-.138-.85c.107.148.084.415.02.498-.197.27-.748.425-.977.314-.172-.085-.342-.465-.14-.693.21-.236.575-.378.91-.31.072.017.12.1.187.19zm-.646-1.382c.314.04.377.486.312.647-.07.14-.23.247-.312.29-.23.118-.498.163-.71.054-.192-.1-.276-.393-.17-.622.14-.31.587-.408.88-.37zm-.354-.623c.086.248-.098.364-.29.466-.194.104-.456.2-.59.072-.173-.163-.25-.438-.058-.618.27-.25.763-.44.938.08zm-.816-1.046c.143.013.207.11.234.22.037.147-.01.282-.135.365-.146.097-.328.153-.475.156-.197.003-.38-.287-.273-.476.114-.202.4-.288.65-.266zm-.496-.684c.13.038.213.175.148.307-.04.08-.156.17-.23.214-.203.127-.377.075-.44-.074-.117-.275.276-.518.522-.446zm-.29 1.35c.138.112.257.35.093.538-.154.177-.346.23-.586.27-.164.027-.373-.094-.4-.238-.023-.124-.047-.352.076-.456.24-.206.562-.324.818-.115zm-.347-.792c.12.207-.064.415-.158.473-.21.123-.506.198-.63-.01-.126-.203-.022-.445.194-.535.205-.085.42-.216.593.073zm-1.152-.683c.11-.243.39-.365.657-.284.053.02.164.105.178.19.033.17-.025.323-.168.41-.18.116-.33.182-.537.096-.156-.064-.196-.267-.13-.41zm.11 1.03c-.045.174-.174.295-.38.34-.202.045-.485.058-.6-.068-.106-.12-.155-.287-.065-.416.18-.256.512-.346.805-.28.168.038.293.21.24.424zm-1.236-.984c.078-.268.38-.413.656-.33.236.068.29.39.133.548-.074.07-.193.142-.322.17-.28.063-.556-.092-.466-.387zm-.166 1.43c-.248.072-.594.086-.668-.17-.127-.432.42-.496.7-.405.196.06.267.49-.032.574zm-.71-1.104c.02-.066.126-.146.18-.164.118-.043.26-.052.372-.006.23.094.197.376-.047.475-.107.045-.275.073-.357.045-.155-.052-.196-.185-.147-.35zm-.714.497c.158-.058.395-.054.51.072.158.174.033.45-.268.436-.105-.003-.23-.04-.293-.076-.156-.087-.105-.375.05-.43zm-.203.773c.175-.066.462-.052.616.03.08.04.186.17.14.306-.054.178-.22.242-.407.244-.183.002-.39-.013-.462-.16-.07-.14-.04-.36.113-.42zm.66.957c.083.038.136.105.157.21.04.227-.018.473-.236.513-.325.06-.81.078-.808-.384 0-.515.508-.51.887-.34zm-.905 1.058c.293-.122.8-.18 1.006.15.13.203.093.577-.112.632-.2.052-.885.165-1.047-.212-.08-.186-.046-.486.155-.57zm-.18 1.245c.277-.264.637-.143.97-.097.063.01.142.055.185.1.23.228.246.605-.008.794-.293.218-.658.076-1.008.06-.096-.005-.2-.116-.223-.188-.06-.223-.1-.496.085-.67zm-.013 1.487c.182-.397.848-.4 1.21-.224.296.146.333.695.01.912-.257.172-.66.108-.935.06-.39-.072-.42-.454-.285-.748zm.216 1.717c-.188-.165-.057-.448.107-.53.29-.144.74-.166 1.04-.064.194.064.29.342.257.644-.016.124-.053.26-.113.3-.23.156-.583.162-.86.104-.195-.042-.266-.31-.432-.455zm1.39 1.696c-.282-.21-.407-.507-.616-.8-.05-.073 0-.103.037-.114.503-.143.878.11.8.66-.014.106-.084.354-.22.254zm.34-1.865c.032-.137.187-.202.313-.235.333-.082.704-.205 1.01-.012.118.075.126.182.142.33.027.242-.008.44-.166.533-.322.19-.652.206-1.027.132-.306-.06-.332-.464-.27-.747zm.427 1.21c.41-.265 1.193-.462 1.324.258.038.217-.017.505-.31.6-.3.096-.654.2-.93.09-.337-.14-.404-.74-.085-.947zm-.104 1.71c-.042-.052-.077-.214-.022-.255.316-.255.78-.274 1.14-.24.474.045.57.485.49.85-.103.48-.83.54-1.038.46-.204-.077-.346-.537-.57-.814zm.886 1.47c-.05-.073-.152-.283-.074-.31.607-.21 1.064-.217 1.193.435.092.464-.225.862-.67.7-.127-.046-.254-.54-.45-.825zm1.267 2.304c-.34-.28-.37-.726-.596-1.067.248-.16.67-.128.8.188.105.254.18.628-.08.822-.026.02-.092.084-.124.057zm.49 1.18c-.147-.067-.144-.257-.206-.375-.06-.116-.184-.274-.133-.426.285.16.418.444.34.8zm.65-.945c-.065.192-.095.39-.18.575-.044.094-.1-.03-.103-.036-.127-.32-.21-.59-.1-.87.062-.156.275-.3.477-.312-.01.2-.025.446-.095.64zm.55-1.937c-.09.25-.133.48-.232.71-.095.222-.507.3-.735.23-.328-.102-.607-.835-.236-1.116.284-.213.577-.246.938-.29.066-.01.31.006.318.03.06.15.02.227-.053.436zm.492-1.68c-.1.14-.35-.33-.383-.545-.094-.622.45-.78.906-.762.016.372-.273.947-.523 1.306zm.734-1.896c-.134.358-.534.397-.874.468-.064.014-.26 0-.348-.086-.146-.145-.273-.34-.248-.587.014-.15.14-.3.297-.36.285-.11.62-.287.9-.13.24.134.368.44.272.694zm1.15-1.812c-.24.317-.35.68-.615.957-.137.146-.348.077-.457-.09-.12-.188-.318-.455-.172-.64.24-.31.742-.506 1.17-.45.025.004.162.105.074.223zm3.355 9.462c-.03 0-.058 0 0 0zM24.364 30.078c-.717.714-.93.977-1.348 1.766-.246.464-.56 1.06-.646 1.827 1.47-.56 2.67-1.702 3.756-2.964.8-.937 1.424-2.178 2.215-3.102-1.392.467-2.862 1.366-3.976 2.474z"/>
    <path d="M20.153 32.084c.555-.937 1.348-1.95 2.172-2.64-.38.856-.852 1.705-1.014 2.718-.317 2.018-.62 3.43-.954 5.27.914-.65 1.88-1.677 2.85-2.393.748-.55 1.5-.92 2.27-1.45.458-.315.757-.72 1.138-1.102-.453 1.915-2.133 3.847-3.336 4.747-1.512 1.134-2.053 1.313-4.48 3.783-.31-3.047-.254-6.215 1.355-8.934z"/>
    <path d="M15.2 42.21c.11-1.584.303-2.85.688-4.395.27-1.078.85-2.684 1.686-3.343-.102.392-.156.98-.195 1.374-.165 1.63.147 3.525.185 5.154.018.802.012 1.42-.11 2.172-.122.79-.02 1.757-.02 1.757s.433-.494.82-1.11c.843-1.34 1.114-1.737 1.794-2.464.843-.9 1.786-1.735 2.85-2.475-.128.502-.67 1.476-.895 1.866-.3.523-.438 1-1.146 2.185-1 1.667-1.444 1.892-2.554 3.673-.24.388-1.225 1.86-1.465 2.312-.52-1.075-.714-2.015-1.35-3.765-.403-1.1-.344-2.2-.29-2.94z"/>
    <path d="M13.657 50.445c-.602-1.562-.88-3.01-1.082-4.654-.125-1.005-.066-2.346.29-3.313.097.236.288.836.313.926.268.898.38 1.33.752 2.196.287.664.635 1.193 1.01 1.85.34.6.625 1.39.87 1.993.792 1.936.85 3.75 1.153 3.946.217-.467.285-.913.31-1.133.235-2.143.52-4.09 3.216-6.614.247.75.122 2.137-.028 2.88-.322 1.622-.582 2.4-1.297 3.974-.38.83-.883 2.048-1.02 2.45-.362 1.053-.487 1.604-.714 2.226-1.273-2.123-2.84-4.316-3.773-6.728z"/>
    <path d="M15.757 60.21c-.906-1.263-1.236-1.897-1.828-3.24-.495-1.128-.638-1.546-.93-2.81-.157-.687-.247-1.31-.124-1.72.71 1.287 1.195 2.726 2.123 3.792.737.846 1.446 1.566 2.032 2.28.9 1.097 1.607 2.136 2.47 3.277.075-.573.103-1.153-.026-2.092-.176-1.285-.066-2.34.158-3.583.283-1.58.492-2.36 1.04-3.957.67 1.314.667 2.834.835 4.228.325 2.706-.522 5.932-.69 7.275-.044.355.02 1.23.036 1.57-1.266-.997-2.39-2.003-3.482-3.098-.498-.494-1.18-1.317-1.617-1.922z"/>
    <path d="M20.554 70.13c-.576-.416-2.123-1.6-2.857-2.53-1.066-1.356-1.303-1.938-2.006-3.497-.085-.19-.483-1.072-.517-1.672 2.307 2.786 4.373 3.2 6.574 5.513.807.848 1.635 1.645 2.07 2.044.336.31.752.402.752.402s-.044-.595-.263-1.008c-1.467-2.808-1.744-5.74-1.52-8.89.67.83.88 1.384 1.306 2.186.463.875.7 1.415.914 1.953 1.258 3.128 1.584 6.74 2.36 8.558-2.395-.807-4.284-1.24-6.813-3.06z"/>
    <path d="M30.382 77.508c-.648.044-1.92.04-2.598-.07-3.43-.55-6.617-3.035-8.223-5.766 1.456.887 2.507 1.48 3.786 1.922 1.14.394 2.22.51 4.12 1.05 1.147.324 2.284.784 2.683.934 1.272.474 1.808.356 1.808.356s0-.192-.477-.71c-.944-1.034-1.292-1.28-2.07-2.076-.257-.263-.843-1.153-1.14-1.746-.842-1.676-.936-3.02-1.705-4.86 2.807 1.648 4.172 3.92 5.656 6.787.456.876 1.073 1.89 1.638 2.448.38.373.912.94.912.94s-.39.093-1.61.273c-.546.08-1.71.444-2.778.518zM43.98 77.726c1.48.24 2.796.602 4.144 1.063.36.124.912.397 1.293.59.955.487 1.506.803 2.326 1.366 1.32.91 2.74 1.89 4.02 3.38.028.028.235.25.097.357-.25.196-.87.477-1.074.295-1.172-1.042-1.113-1.376-2.533-2.66-.365-.33-.914-.79-1.572-1.24-.64-.437-1.415-.917-2.134-1.272-.654-.32-1.662-.418-2.23-.418l.01.004c-.257-.01-1.735-.018-2.077.005-2.903.198-2.76.458-4.435.91-1.377.376-2.854.643-4.32.84-1.502.203-2.846.228-4.254.085-1.907-.197-3.995-.73-5.554-1.733 1.426.023 2.89.297 4.305.188.6-.046 1.565-.136 2.222-.338 1.3-.4 2.05-.556 3.428-.94 1.184-.33 2.38-.443 3.615-.574 1.713-.184 3.3-.143 4.724.09zM70.524 30.078c.715.714.93.977 1.348 1.766.246.464.557 1.06.646 1.827-1.473-.56-2.672-1.702-3.756-2.964-.803-.937-1.424-2.178-2.215-3.102 1.393.467 2.864 1.366 3.977 2.474z"/>
    <path d="M74.735 32.084c-.555-.937-1.35-1.95-2.172-2.64.385.922.945 2.07 1.012 2.718.205 2.03.623 3.43.957 5.27-.914-.65-1.88-1.677-2.85-2.393-.748-.55-1.5-.92-2.27-1.45-.46-.315-.758-.72-1.14-1.102.454 1.915 2.134 3.847 3.337 4.747 1.51 1.134 2.052 1.313 4.478 3.783.31-3.047.255-6.215-1.353-8.934z"/>
    <path d="M79.688 42.21c-.113-1.584-.303-2.85-.688-4.395-.27-1.078-.85-2.684-1.688-3.343.104.392.156.98.197 1.374.163 1.63-.147 3.525-.187 5.154-.02.802-.012 1.42.107 2.172.125.79.02 1.757.02 1.757s-.43-.494-.82-1.11c-.84-1.34-1.11-1.737-1.792-2.464-.844-.9-1.787-1.735-2.854-2.475.13.502.674 1.476.898 1.866.3.523.436 1 1.146 2.185.998 1.667 1.443 1.892 2.55 3.673.24.388 1.228 1.86 1.466 2.312.52-1.075.717-2.015 1.354-3.765.404-1.1.345-2.2.29-2.94z"/>
    <path d="M81.23 50.445c.603-1.562.878-3.01 1.083-4.654.125-1.005.066-2.346-.293-3.313-.094.236-.285.836-.31.926-.27.898-.38 1.33-.753 2.196-.287.664-.637 1.193-1.01 1.85-.34.6-.627 1.39-.873 1.993-.79 1.936-.848 3.75-1.15 3.946-.22-.467-.287-.913-.31-1.133-.235-2.143-.52-4.09-3.216-6.614-.248.75-.123 2.137.025 2.88.324 1.622.586 2.4 1.3 3.974.376.83.882 2.048 1.02 2.45.36 1.053.484 1.604.715 2.226 1.273-2.123 2.842-4.316 3.773-6.728z"/>
    <path d="M79.132 60.21c.906-1.263 1.236-1.897 1.826-3.24.496-1.128.64-1.546.93-2.81.158-.687.248-1.31.123-1.72-.706 1.287-1.194 2.726-2.122 3.792-.736.846-1.447 1.566-2.033 2.28-.898 1.097-1.607 2.136-2.47 3.277-.07-.573-.1-1.153.026-2.092.18-1.285.07-2.34-.155-3.583-.285-1.58-.492-2.36-1.04-3.957-.67 1.314-.667 2.834-.837 4.228-.324 2.706.523 5.932.69 7.275.042.355-.02 1.23-.036 1.57 1.266-.997 2.39-2.003 3.482-3.098.5-.494 1.178-1.317 1.618-1.922z"/>
    <path d="M74.335 70.13c.574-.416 2.123-1.6 2.855-2.53 1.068-1.356 1.303-1.938 2.008-3.497.084-.19.484-1.072.518-1.672-2.307 2.786-4.373 3.2-6.574 5.513-.81.848-1.635 1.645-2.07 2.044-.336.31-.752.402-.752.402s.043-.595.26-1.008c1.47-2.808 1.746-5.74 1.52-8.89-.667.83-.88 1.384-1.304 2.186-.463.875-.7 1.415-.914 1.953-1.258 3.128-1.586 6.74-2.36 8.558 2.397-.807 4.282-1.24 6.813-3.06z"/>
    <path d="M64.507 77.508c.648.044 1.918.04 2.598-.07 3.43-.55 6.617-3.035 8.22-5.766-1.454.887-2.505 1.48-3.784 1.922-1.138.394-2.218.51-4.118 1.05-1.148.324-2.283.784-2.684.934-1.27.474-1.807.356-1.807.356s0-.192.476-.71c.947-1.034 1.295-1.28 2.072-2.076.256-.263.844-1.153 1.14-1.746.843-1.676.937-3.02 1.706-4.86-2.807 1.648-4.176 3.92-5.658 6.787-.455.876-1.07 1.89-1.635 2.448-.376.373-.91.94-.91.94s.39.093 1.608.273c.546.08 1.71.444 2.78.518zM50.91 77.726c-1.483.24-2.798.602-4.146 1.063-.363.124-.912.397-1.295.59-.956.487-1.503.803-2.325 1.366-1.322.91-2.74 1.89-4.02 3.38-.028.028-.237.25-.097.357.25.196.87.477 1.072.295 1.174-1.042 1.113-1.376 2.535-2.66.363-.33.912-.79 1.57-1.24.643-.437 1.416-.917 2.137-1.272.652-.32 1.662-.418 2.227-.418l-.01.004c.26-.01 1.735-.018 2.08.005 2.9.198 2.76.458 4.433.91 1.377.376 2.854.643 4.32.84 1.5.203 2.846.228 4.254.085 1.908-.197 3.994-.73 5.553-1.733-1.424.023-2.885.297-4.305.188-.598-.046-1.562-.136-2.22-.338-1.302-.4-2.048-.556-3.427-.94-1.184-.33-2.38-.443-3.615-.574-1.712-.184-3.298-.143-4.724.09z"/>
    <g>
      <path d="M45.702 13.99l-2.607 9.682h-2.768l-1.73-6.308-1.693 6.308h-2.762l-2.607-9.682h2.605l1.486 6.664 1.787-6.664h2.49l1.695 6.664 1.56-6.664H45.7zM54.306 15.862H49.85v1.802h4.13v1.872h-4.13v4.136h-2.48V13.99h6.937v1.872zM64.02 17.046c0 .434-.075.857-.228 1.27-.152.414-.37.763-.65 1.044-.385.382-.816.67-1.29.865s-1.065.292-1.772.292h-1.555v3.154H56.03v-9.68h4.108c.615 0 1.135.053 1.557.16.424.104.797.264 1.123.477.39.256.688.583.893.98.207.4.31.88.31 1.44zm-2.582.056c0-.272-.074-.507-.22-.704-.15-.197-.32-.334-.515-.412-.262-.104-.514-.16-.762-.172-.245-.01-.575-.016-.987-.016h-.43v2.893h.717c.424 0 .773-.024 1.05-.076s.505-.156.692-.312c.16-.14.275-.304.348-.497.073-.192.108-.427.108-.703z"/>
    </g>
    <g>
      <path d="M34.54 91.257l-1.74 5.617h-1.912l-1.145-3.786-1.13 3.786h-1.93l-1.728-5.617h1.89l.964 3.87 1.196-3.87h1.596l1.14 3.87.948-3.87h1.85zM39.563 90.412h-.135c-.08-.023-.184-.05-.312-.08-.127-.03-.264-.045-.41-.045-.354 0-.592.062-.717.19s-.19.37-.19.734v.046h1.388v1.22h-1.326v4.397h-1.805v-4.396h-.77v-1.22h.77V91.1c0-.686.182-1.2.547-1.544s.918-.516 1.658-.516c.268 0 .508.01.725.027.217.02.408.043.576.072v1.272zM46.11 93.988c0 .463-.07.885-.213 1.266-.14.38-.326.693-.557.94-.24.26-.512.456-.814.59-.303.133-.627.2-.973.2-.32 0-.592-.035-.814-.104-.226-.067-.452-.164-.687-.287v2.34h-1.805v-7.677h1.805v.585c.277-.22.56-.396.848-.534.288-.137.62-.205.997-.205.7 0 1.242.258 1.63.772s.583 1.22.583 2.116zm-1.855.037c0-.546-.094-.942-.28-1.188s-.48-.37-.882-.37c-.17 0-.346.026-.525.078s-.35.125-.514.223v2.82c.12.048.248.077.385.09.136.014.27.022.403.022.475 0 .83-.14 1.062-.418.233-.278.35-.697.35-1.257zM49.347 96.874h-1.87v-1.966h1.87v1.966zM56.854 94.068c0 .924-.27 1.65-.81 2.183-.538.533-1.294.8-2.267.8-.975 0-1.73-.267-2.268-.8-.54-.53-.81-1.258-.81-2.182 0-.93.27-1.66.812-2.19.543-.53 1.297-.796 2.264-.796.98 0 1.738.267 2.273.8.537.534.804 1.263.804 2.186zm-2.216 1.366c.117-.144.205-.316.264-.518.06-.202.088-.48.088-.838 0-.33-.03-.606-.09-.83-.06-.224-.145-.402-.25-.535-.107-.137-.236-.233-.387-.29s-.31-.086-.484-.086-.33.024-.464.07c-.135.047-.264.14-.387.28-.112.13-.198.31-.265.535-.064.227-.098.512-.098.855 0 .307.03.572.086.798.057.225.14.405.25.543.105.13.234.225.383.284.148.06.316.09.506.09.164 0 .32-.026.47-.082.147-.054.272-.147.376-.276zM62.216 92.973h-.16c-.076-.026-.2-.047-.37-.06-.17-.014-.31-.02-.423-.02-.256 0-.482.016-.678.05-.197.033-.408.09-.635.17v3.76h-1.805v-5.616h1.805v.825c.396-.34.74-.565 1.033-.678.293-.11.562-.167.81-.167.06 0 .134 0 .214.005s.148.008.21.015v1.716zM68.698 96.23c0 .526-.074.97-.225 1.33-.15.36-.36.642-.63.845-.27.207-.597.356-.98.448-.38.09-.812.138-1.293.138-.39 0-.773-.022-1.152-.07s-.705-.103-.982-.17v-1.405h.22c.22.087.487.166.804.238.316.07.6.107.85.107.332 0 .604-.03.81-.093.21-.062.368-.15.48-.263.102-.106.178-.243.225-.41.045-.166.068-.366.068-.6v-.105c-.215.176-.455.315-.72.42s-.556.154-.878.154c-.785 0-1.393-.236-1.818-.71-.426-.474-.64-1.193-.64-2.16 0-.464.065-.864.194-1.2.132-.338.315-.63.552-.882.22-.232.49-.415.81-.545.323-.13.65-.195.99-.195.302 0 .577.036.825.107.248.07.473.17.676.298l.066-.25h1.75v4.97zm-1.806-1.126v-2.546c-.102-.043-.23-.077-.38-.103-.147-.025-.282-.038-.403-.038-.474 0-.827.136-1.063.408-.236.27-.354.65-.354 1.138 0 .54.1.917.3 1.13.202.214.5.32.897.32.18 0 .355-.028.53-.085.17-.057.33-.13.472-.224z"/>
    </g>
  </g>
</svg>
