<svg xmlns="http://www.w3.org/2000/svg" width="316" height="72" viewBox="0 0 316 72">
  <g fill-rule="evenodd" clip-rule="evenodd" fill="#FFF">
    <path d="M90.433 38.86c-2.833-1.295-4.615-1.78-6.236-1.78-1.78 0-2.916.647-2.916 1.702 0 2.995 10.045 2.104 10.045 9.068 0 3.806-3.158 5.994-7.61 5.994-3.484 0-5.185-.893-7.13-1.943v-4.29c2.835 1.943 4.537 2.59 6.723 2.59 1.942 0 2.915-.646 2.915-1.863 0-3.238-10.043-2.026-10.043-9.153 0-3.48 2.918-5.746 7.534-5.746 2.186 0 4.21.484 6.72 1.618v3.804zM105.74 51.01c-.406 0-.73-.244-.73-.892v-6.152c0-2.918-2.267-4.052-5.668-4.052-2.105 0-4.05.57-5.75 1.62v3.403c1.297-1.296 3.24-2.188 4.94-2.188 1.782 0 2.348.97 2.267 2.187-5.588 1.78-7.937 2.428-7.937 5.586 0 1.703 1.62 3.32 3.726 3.32 1.457 0 2.833-.405 4.45-1.54.244 1.135.974 1.54 2.352 1.54 1.132 0 2.752-.484 3.97-1.215v-2.346c-.975.646-1.3.728-1.622.728zm-4.94-.648c-.647.565-1.54.972-2.268.972-.81 0-1.376-.648-1.376-1.38 0-1.373 1.133-1.94 3.643-2.83v3.238zM106.793 40.158h4.535l2.833 7.37 2.918-7.37h4.453l-6.153 13.687h-2.348l-6.237-13.687M126.473 47.528h9.637c.163-4.862-3.077-7.614-6.964-7.614-4.132 0-7.047 2.915-7.047 7.05 0 4.125 3.077 6.88 7.772 6.88 1.054 0 3.566 0 5.994-1.78v-2.672c-2.023 1.457-3.32 1.942-5.02 1.942-2.592 0-4.21-1.38-4.373-3.806zm2.995-5.103c1.62 0 2.754 1.055 2.917 2.915h-5.83c.16-1.86 1.213-2.915 2.913-2.915zM155.384 43.073h-4.858v5.508c0 1.296.73 2.186 2.024 2.186.89 0 1.7-.242 2.834-.81v3.08c-1.457.563-2.59.81-3.886.81-2.835 0-5.266-1.297-5.266-5.023v-5.75h-1.86v-.808l5.585-6.318h.568v4.212h4.858v2.913zM161.216 42.182h.08c1.215-1.537 2.592-2.268 4.293-2.268 2.426 0 4.858 1.457 4.858 5.103V53.6h-4.213v-7.69c0-2.026-.81-2.92-2.187-2.92-.97 0-1.78.652-2.833 2.027V53.6h-4.21V33.76h4.21v8.422zM177.09 47.528h9.636c.163-4.862-3.076-7.614-6.963-7.614-4.13 0-7.047 2.915-7.047 7.05 0 4.125 2.997 6.88 7.774 6.88 1.055 0 3.562 0 5.993-1.78v-2.672c-2.025 1.457-3.32 1.942-5.02 1.942-2.675 0-4.293-1.38-4.374-3.806zm2.996-5.103c1.62 0 2.672 1.055 2.915 2.915h-5.83c.162-1.86 1.215-2.915 2.916-2.915zM215.313 51.9c-2.75 1.376-4.857 1.944-7.775 1.944-7.773 0-11.58-5.022-11.58-10.124 0-5.263 4.374-10.283 11.905-10.283 2.836 0 5.265.646 7.21 1.78v4.453c-2.188-1.213-4.374-2.105-6.806-2.105-4.21 0-7.208 2.51-7.208 6.076 0 3.563 2.915 6.073 7.045 6.073 2.594 0 4.376-.81 7.208-2.186V51.9zM222.443 42.182h.078c1.218-1.537 2.595-2.268 4.294-2.268 2.43 0 4.86 1.457 4.86 5.103V53.6h-4.214v-7.69c0-2.026-.89-2.92-2.187-2.92-.97 0-1.782.652-2.83 2.027V53.6h-4.215V33.76h4.214v8.422zM234.67 40.158h4.212V53.6h-4.213V40.158M239.125 35.784c0 1.295-1.053 2.35-2.35 2.35s-2.35-1.055-2.35-2.35c0-1.296 1.055-2.347 2.35-2.347s2.35 1.05 2.35 2.347zM241.96 33.76h4.21V53.6h-4.21V33.76M258.48 33.76v6.964c-1.133-.565-2.268-.81-3.483-.81-3.888 0-6.56 2.835-6.56 6.966 0 3.97 2.672 6.965 6.317 6.965 1.458 0 2.51-.406 3.725-1.296v1.05h4.212V33.76h-4.213zm0 16.195c-.892.73-1.62 1.055-2.51 1.055-1.944 0-3.24-1.618-3.24-4.047 0-2.673 1.296-4.214 3.4-4.214.73 0 1.702.323 2.35.73v6.475zM269.898 44.045h.08c1.218-2.836 2.673-4.13 4.294-4.13.812 0 1.54.324 2.753 1.216l-1.132 3.725c-1.136-.727-1.864-.972-2.512-.972-1.537 0-2.51 1.457-3.482 3.885V53.6h-4.21V40.158h4.21v3.887zM281.723 47.528h9.638c.244-4.862-2.994-7.614-6.962-7.614-4.132 0-7.048 2.915-7.048 7.05 0 4.125 3.08 6.88 7.773 6.88 1.054 0 3.564 0 5.994-1.78v-2.672c-1.942 1.457-3.24 1.942-4.94 1.942-2.672 0-4.293-1.38-4.454-3.806zm2.997-5.103c1.62 0 2.754 1.055 2.916 2.915h-5.833c.163-1.86 1.3-2.915 2.917-2.915zM297.76 42.103c1.295-1.54 2.59-2.188 4.372-2.188 2.023 0 4.858 1.217 4.858 5.103V53.6h-4.21v-8.178c0-1.942-.89-2.673-2.106-2.673-1.054 0-1.863.564-2.915 2.187V53.6h-4.21V40.158h4.21v1.945zM65.084 20.477c2.673-2.753 3.887-3.966 3.726-4.776-.162-.566-.73-1.052-1.54-1.458-.89-.404-2.186-.647-2.833-.323-.242.08-.647.486-1.54 1.376l-.81.81c-.485-.566-.97-1.052-1.456-1.538-3.56-3.563-8.017-6.075-13.038-7.208-1.863-2.27-4.374-3.4-6.966-3.16-2.187.164-4.21 1.297-5.67 3.242-5.182 1.212-9.96 3.806-13.93 7.53-.727-.323-2.59-.082-3.724.404-.647.325-1.052.73-1.133 1.136-.164.403 0 .89 1.294 2.59-3.968 5.428-5.993 12.066-5.668 18.71.324 6.72 3.078 13.038 7.774 17.736 1.7 1.697 3.482 3.155 5.507 4.29 2.916 1.7 6.236 2.916 9.717 3.647 7.45 1.536 14.74.402 20.895-2.595v-.078c.81-.325 1.134-1.217.81-2.108l-.08-.24c-1.297-3.562-5.265-14.417-2.027-23.73 1.376-3.97 4.86-8.02 7.775-11.177 2.592 4.697 3.727 10.122 3.16 15.39-.568 4.937-2.513 9.475-5.752 13.12-.08.078-.08.24-.08.4v.163l.242.73c.08.24.325.322.568.322.163 0 .243 0 .404-.16 8.343-9.154 10.123-22.516 4.374-33.045zm-35.47 20.33C28.8 44.37 27.586 49.23 27.83 56.68c-1.943-1.133-3.724-2.512-5.262-4.05-4.294-4.372-7.048-9.964-7.694-15.953-.568-5.67.73-11.42 3.806-16.037.89 1.135 2.107 2.43 3.32 3.805 2.916 3.404 6.316 7.208 7.855 9.88.972 1.54.486 3.403-.242 6.482zM59.01 19.02c-6.317 5.425-12.066 8.26-17.168 8.342-3.89 0-7.937-1.457-11.906-4.293-3.4-2.348-5.912-5.102-7.368-6.722l-.163-.162c3.078-2.916 6.884-4.94 11.014-5.832-.486 1.54-.73 3.24-.568 4.94.243 3.16 1.62 5.913 3.807 7.774 1.7 1.376 3.726 2.026 5.75 1.865 2.023-.162 3.886-1.217 5.344-2.837 1.782-2.185 2.673-5.183 2.43-8.26-.082-.567-.16-1.134-.243-1.7 2.835 1.295 5.428 3.158 7.695 5.425.484.408.89.894 1.375 1.46z"/>
  </g>
</svg>
