<svg xmlns="http://www.w3.org/2000/svg" width="96.667" height="115.333" viewBox="0 0 96.667 115.333">
  <g fill="#FFF">
    <path fill-rule="evenodd" clip-rule="evenodd" d="M22.965 83.663c-1.605 0-2.9 1.156-2.9 3.1 0 1.86 1.23 3.022 2.812 3.022 1.395 0 2.916-.948 2.916-3.115 0-1.784-1.13-3.007-2.828-3.007m-.026.8c1.257 0 1.76 1.25 1.76 2.242 0 1.323-.77 2.276-1.772 2.276-1.04 0-1.77-.967-1.77-2.248-.002-1.105.537-2.268 1.78-2.268M29.613 83.663c-1.607 0-2.902 1.156-2.902 3.1 0 1.86 1.23 3.022 2.804 3.022 1.406 0 2.928-.948 2.928-3.115 0-1.784-1.145-3.007-2.83-3.007m-.022.8c1.256 0 1.758 1.25 1.758 2.242 0 1.323-.766 2.276-1.77 2.276-1.056 0-1.774-.967-1.774-2.248 0-1.105.542-2.268 1.786-2.268M33.787 92.042h1.04v-3.186h.028c.352.586 1.03.93 1.81.93 1.382 0 2.675-1.05 2.675-3.155 0-1.764-1.066-2.967-2.5-2.967-.955 0-1.646.418-2.072 1.133h-.028l-.06-1.01h-.944c.025.564.05 1.162.05 1.908v6.348zm1.04-5.794c0-.137.04-.296.08-.426.198-.8.876-1.308 1.604-1.308 1.134 0 1.75 1.004 1.75 2.167 0 1.348-.653 2.262-1.772 2.262-.768 0-1.406-.508-1.594-1.24-.055-.135-.066-.278-.066-.442v-1.012zM45.385 86.908c.027-.113.04-.277.04-.496 0-1.077-.505-2.75-2.425-2.75-1.7 0-2.754 1.384-2.754 3.16 0 1.758 1.08 2.963 2.89 2.963.93 0 1.585-.215 1.948-.382l-.188-.762c-.39.17-.855.302-1.62.302-1.07 0-1.976-.597-2.013-2.034h4.122zm-4.108-.76c.088-.735.54-1.716 1.635-1.716 1.19 0 1.492 1.05 1.48 1.715h-3.115z"/>
    <path d="M46.744 89.653H47.8v-3.128c0-.172.013-.352.036-.5.15-.796.68-1.354 1.434-1.354.152 0 .252 0 .365.02v-1.007c-.102-.004-.19-.02-.29-.02-.718 0-1.37.496-1.634 1.285h-.038l-.05-1.163h-.93c.026.55.052 1.14.052 1.83v4.038z"/>
    <path fill-rule="evenodd" clip-rule="evenodd" d="M54.764 86.053c0-1.167-.443-2.39-2.238-2.39-.73 0-1.445.203-1.936.512l.238.71c.416-.276.98-.433 1.547-.433 1.193-.012 1.318.87 1.318 1.35v.114c-2.248-.016-3.52.766-3.52 2.18 0 .847.617 1.69 1.797 1.69.842 0 1.46-.422 1.8-.88h.036l.074.747h.955c-.05-.402-.072-.898-.072-1.405v-2.195zm-1.047 1.62c0 .103-.012.224-.035.34-.176.496-.668.98-1.447.98-.537 0-.99-.312-.99-1.02 0-1.136 1.318-1.343 2.473-1.323v1.024z"/>
    <path d="M60.467 88.642c-.303.137-.7.277-1.305.277-1.158 0-2.037-.837-2.037-2.188 0-1.214.727-2.218 2.074-2.218.577 0 .978.14 1.24.28l.24-.814c-.302-.153-.855-.317-1.48-.317-1.913 0-3.142 1.32-3.142 3.132 0 1.792 1.14 2.99 2.912 2.99.795 0 1.396-.207 1.686-.343l-.19-.8z"/>
    <path fill-rule="evenodd" clip-rule="evenodd" d="M62.97 83.785H61.9v5.868h1.07v-5.868zm-.53-2.3c-.4 0-.667.3-.667.667 0 .363.24.652.64.652.417 0 .67-.29.67-.652 0-.38-.265-.668-.642-.668M67.217 83.663c-1.61 0-2.904 1.156-2.904 3.1 0 1.86 1.232 3.022 2.803 3.022 1.408 0 2.928-.948 2.928-3.107 0-1.792-1.144-3.015-2.827-3.015m-.026.8c1.257 0 1.75 1.25 1.75 2.242 0 1.323-.757 2.276-1.774 2.276-1.045 0-1.76-.967-1.76-2.248 0-1.105.54-2.268 1.785-2.268m.402-3.206l-1.055 1.73h.754l1.474-1.73h-1.172z"/>
    <path d="M71.39 89.653h1.056v-3.538c0-.176.025-.352.076-.488.188-.593.74-1.09 1.43-1.09 1.006 0 1.357.786 1.357 1.734v3.383h1.056v-3.49c0-2.008-1.256-2.5-2.074-2.5-.955 0-1.645.55-1.922 1.098h-.023l-.064-.975h-.943c.037.49.05.976.05 1.59v4.278zM19.158 88.642c-.3.137-.705.277-1.31.277-1.167 0-2.034-.837-2.034-2.188 0-1.214.73-2.218 2.072-2.218.578 0 .982.14 1.234.28l.25-.814c-.303-.153-.854-.317-1.484-.317-1.908 0-3.152 1.32-3.152 3.132 0 1.792 1.156 2.99 2.93 2.99.79 0 1.393-.207 1.682-.343l-.188-.8zM60.604 92.702h1.07v8.59h-1.07zM29.312 101.015c.402.246 1.02.414 1.645.414 1.37 0 2.188-.73 2.188-1.773 0-.867-.54-1.382-1.547-1.753-.752-.3-1.09-.52-1.09-1.008 0-.438.338-.796.965-.796.54 0 .97.21 1.195.348l.252-.78c-.314-.192-.83-.356-1.434-.356-1.242 0-2.01.777-2.01 1.722 0 .703.488 1.266 1.557 1.655.78.288 1.068.56 1.068 1.07 0 .495-.35.873-1.106.873-.55 0-1.102-.226-1.418-.417l-.264.8z"/>
    <path fill-rule="evenodd" clip-rule="evenodd" d="M34.504 103.693h1.053v-3.19h.027c.352.582 1.03.926 1.81.926 1.382 0 2.677-1.05 2.677-3.148 0-1.77-1.07-2.97-2.5-2.97-.954 0-1.66.413-2.087 1.123h-.025l-.05-1h-.94c.023.556.037 1.16.037 1.906v6.353zm1.053-5.8c0-.134.05-.29.076-.423.188-.804.895-1.312 1.61-1.312 1.13 0 1.745 1 1.745 2.167 0 1.343-.65 2.27-1.783 2.27-.768 0-1.408-.517-1.598-1.25-.023-.134-.05-.282-.05-.435v-1.018zM45.512 97.696c0-1.164-.428-2.386-2.227-2.386-.74 0-1.455.203-1.932.508l.236.714c.4-.273.993-.433 1.546-.433 1.193-.013 1.32.87 1.32 1.338v.125c-2.264-.012-3.52.762-3.52 2.183 0 .848.604 1.675 1.8 1.675.825 0 1.468-.405 1.78-.87h.05l.077.75h.957c-.05-.405-.088-.9-.088-1.41v-2.194zm-1.02 1.62c0 .098-.012.223-.05.34-.177.496-.665.984-1.442.984-.53 0-1.008-.317-1.008-1.02 0-1.14 1.332-1.34 2.5-1.323v1.02zM47.232 101.292h1.072v-3.525c0-.18.02-.36.072-.492.19-.594.742-1.094 1.434-1.094 1.006 0 1.346.79 1.346 1.735v3.377h1.078v-3.49c0-2.003-1.268-2.49-2.084-2.49-.97 0-1.648.542-1.934 1.09h-.018l-.07-.966h-.945c.04.484.05.965.05 1.585v4.272zm1.586-6.86c.012-.34.11-.542.3-.542.15 0 .276.078.528.207.24.14.467.257.742.257.564 0 .828-.425.816-1.218h-.564c-.027.395-.15.5-.328.5-.162 0-.314-.09-.502-.2-.29-.144-.492-.265-.756-.265-.527 0-.838.466-.828 1.262h.592zM56.445 95.31c-1.62 0-2.916 1.148-2.916 3.105 0 1.854 1.233 3.014 2.813 3.014 1.408 0 2.918-.95 2.918-3.116.002-1.782-1.143-3.003-2.815-3.003m-.025.797c1.256 0 1.748 1.257 1.748 2.245 0 1.315-.756 2.28-1.787 2.28-1.04 0-1.757-.977-1.757-2.257 0-1.104.54-2.268 1.797-2.268M67.58 97.696c0-1.164-.44-2.386-2.225-2.386-.742 0-1.455.203-1.934.508l.24.714c.397-.273.98-.433 1.532-.433 1.19-.013 1.332.87 1.332 1.338v.125c-2.273-.012-3.52.762-3.52 2.183 0 .848.604 1.675 1.783 1.675.844 0 1.473-.405 1.8-.87h.036l.076.75h.966c-.06-.405-.088-.9-.088-1.41v-2.194zm-1.03 1.62c0 .098-.013.223-.05.34-.164.496-.666.984-1.445.984-.514 0-.996-.317-.996-1.02 0-1.14 1.333-1.34 2.49-1.323v1.02zM28.57 98.43c.04-.124.05-.28.05-.503 0-1.07-.503-2.745-2.425-2.745-1.71 0-2.752 1.378-2.752 3.15 0 1.773 1.08 2.968 2.89 2.968.93 0 1.585-.202 1.962-.378l-.2-.762c-.392.163-.856.305-1.624.305-1.065 0-1.983-.594-2.007-2.034h4.107zm-4.095-.765c.088-.742.54-1.714 1.633-1.714 1.207 0 1.494 1.05 1.482 1.715h-3.115z"/>
    <path d="M68.096 67.55c-5.19 5.17-12.406 8.46-20.31 8.46-15.82 0-28.653-12.83-28.653-28.658 0-15.828 12.832-28.658 28.654-28.658 7.814 0 15.03 3.187 20.21 8.262l-9.993 10.128c-2.6-2.544-6.283-4.157-10.217-4.157-7.97 0-14.428 6.457-14.428 14.426 0 7.976 6.458 14.434 14.427 14.434 3.96 0 7.592-1.685 10.205-4.26L68.096 67.55z"/>
    <path d="M51.057 39.095c6.883 0 7.914 5.91 15.04 5.91 2.214 0 3.995-2.182 5.882-3.39-.038.925-1.407 13.353-9.263 13.593-8.145 0-10.117-6.177-16.678-6.177-3.495 0-3.67 2.037-5.355 3.58 1.044-5.266 1.95-13.515 10.372-13.515"/>
  </g>
</svg>
