<svg xmlns="http://www.w3.org/2000/svg" width="111.333" height="109.334" viewBox="0 0 111.333 109.334">
  <g fill="#FFF">
    <path d="M40.265 33.425s-1 .653-2.048 3.022c.208-.96.456-1.613.456-1.613s-1.082.545-1.86.16c.895.143 1.65-.212 2.224-.848.572-.637.632-1.195.632-1.195l.595.475z"/>
    <path d="M39.246 33.173c-.015-.067-.146-.682.452-1.69.148-.25.243-.63.34-1.03.127-.523.274-1.116.59-1.57.513-.747 1.266-1.704 1.602-2.067 1.38-1.502 2.696-1.79 3.755-2.02.3-.068.583-.128.845-.215.106-.035.252-.112.446-.213.884-.458 2.725-1.412 6.28-1.594 9.528-.494 13.29 4.63 13.496 8.195.23 3.927-1.55 6.818-5.442 8.83-1.834.95-4.08 1.475-6.252 1.984-1.357.312-2.76.642-4.07 1.068-1.374.453-2.252 1.19-2.542 2.132-.24.795-.03 1.695.573 2.468.52.664 1.216 1.022 2.247 1.42.537.207 1.034.38 1.516.55.573.2 1.126.395 1.705.627l.34.137c1.14.454 3.05 1.207 4.513 2.31 1.776 1.327 2.688 3.143 2.448 4.86-.232 1.654-1.47 2.99-3.486 3.765-.987.377-1.76.638-2.45.867-.593.198-1.126.377-1.68.595-1.755.688-2.42.98-2.31 1.794.116.844 1.084 1.305 2.305 1.885 2.162 1.032 5.12 2.44 5.005 7.2l-.05 1.95-.543-1.873c-.927-3.182-3.287-4.065-5.574-4.92l-.2-.073c-2.143-.803-4.154-1.815-4.38-3.77-.22-1.977.142-3.986 4.263-5.322 2.288-.743 4.722-1.627 4.63-2.723-.11-1.352-2.955-2.25-5.967-3.198-.86-.27-1.756-.555-2.64-.86-3.027-1.05-4.512-2.49-5.118-4.967-.943-3.813.783-7.155 4.614-8.943 1.345-.628 3.574-1.13 5.547-1.577 1.092-.246 2.122-.48 2.91-.714 3.693-1.085 4.99-3.366 4.972-4.99-.022-2.087-1.81-3.755-4.778-4.46-.066-.015-6.527-1.497-9.44 2.563-.768 1.068-3.392 2.67-4.89 3.524-2.395 1.375-3.158.72-3.285.577l-.266-.425-.034-.087z"/>
    <path d="M39.246 33.173c-.015-.067-.146-.682.452-1.69.148-.25.243-.63.34-1.03.127-.523.274-1.116.59-1.57.513-.747 1.266-1.704 1.602-2.067 1.38-1.502 2.696-1.79 3.755-2.02.3-.068.583-.128.845-.215.106-.035.252-.112.446-.213.884-.458 2.725-1.412 6.28-1.594 9.528-.494 13.29 4.63 13.496 8.195.23 3.927-1.55 6.818-5.442 8.83-1.834.95-4.08 1.475-6.252 1.984-1.357.312-2.76.642-4.07 1.068-1.374.453-2.252 1.19-2.542 2.132-.24.795-.03 1.695.573 2.468.52.664 1.216 1.022 2.247 1.42.537.207 1.034.38 1.516.55.573.2 1.126.395 1.705.627l.34.137c1.14.454 3.05 1.207 4.513 2.31 1.776 1.327 2.688 3.143 2.448 4.86-.232 1.654-1.47 2.99-3.486 3.765-.987.377-1.76.638-2.45.867-.593.198-1.126.377-1.68.595-1.755.688-2.42.98-2.31 1.794.116.844 1.084 1.305 2.305 1.885 2.162 1.032 5.12 2.44 5.005 7.2l-.05 1.95-.543-1.873c-.927-3.182-3.287-4.065-5.574-4.92l-.2-.073c-2.143-.803-4.154-1.815-4.38-3.77-.22-1.977.142-3.986 4.263-5.322 2.288-.743 4.722-1.627 4.63-2.723-.11-1.352-2.955-2.25-5.967-3.198-.86-.27-1.756-.555-2.64-.86-3.027-1.05-4.512-2.49-5.118-4.967-.943-3.813.783-7.155 4.614-8.943 1.345-.628 3.574-1.13 5.547-1.577 1.092-.246 2.122-.48 2.91-.714 3.693-1.085 4.99-3.366 4.972-4.99-.022-2.087-1.81-3.755-4.778-4.46-.066-.015-6.527-1.497-9.44 2.563-.768 1.068-3.392 2.67-4.89 3.524-2.395 1.375-3.158.72-3.285.577l-.266-.425-.034-.087z"/>
    <path d="M53.344 58.982c.52-.156.928-.318 1.22-.43l.162-.063.168-.064.022-.18c.01-.07.037-1.71.158-10.783.033-2.61.062-4.713.065-4.9l.007-.357-.35.052c-.623.09-2.51.6-3.018.794l-.195.076.004.212.237 15.75.004.423.398-.143s.565-.203 1.116-.388z"/>
    <path d="M53.344 58.982c.52-.156.928-.318 1.22-.43l.162-.063.168-.064.022-.18c.01-.07.037-1.71.158-10.783.033-2.61.062-4.713.065-4.9l.007-.357-.35.052c-.623.09-2.51.6-3.018.794l-.195.076.004.212.237 15.75.004.423.398-.143s.565-.203 1.116-.388zM54.897 63.227c0 .54-.438 15.328-.5 16.213-.17 2.513-.774 2.517-.973 2.52-.55 0-.903-.897-1.05-2.677-.098-1.168-.43-13.792-.383-14.37.094-1.08 1.397-1.624 2.514-1.976l.393-.122v.412z"/>
    <path d="M54.897 63.227c0 .54-.438 15.328-.5 16.213-.17 2.513-.774 2.517-.973 2.52-.55 0-.903-.897-1.05-2.677-.098-1.168-.43-13.792-.383-14.37.094-1.08 1.397-1.624 2.514-1.976l.393-.122v.412zM51.317 37.104c0-1.495-.213-16.74-.334-17.462-.042-.24-.104-.55-.173-.9-.4-1.942-1.064-5.196.244-6.802.51-.624 1.26-.938 2.237-.938 1.006 0 1.773.305 2.278.91 1.154 1.382.672 4.023.327 5.95-.112.622-.212 1.173-.243 1.587-.05.742-.417 15.58-.417 16.884v.212l-.198.075c-.535.19-1.19.316-1.83.436-.528.1-1.053.2-1.503.337l-.388.12v-.41z"/>
    <path d="M51.317 37.104c0-1.495-.213-16.74-.334-17.462-.042-.24-.104-.55-.173-.9-.4-1.942-1.064-5.196.244-6.802.51-.624 1.26-.938 2.237-.938 1.006 0 1.773.305 2.278.91 1.154 1.382.672 4.023.327 5.95-.112.622-.212 1.173-.243 1.587-.05.742-.417 15.58-.417 16.884v.212l-.198.075c-.535.19-1.19.316-1.83.436-.528.1-1.053.2-1.503.337l-.388.12v-.41zM44.785 28.075l-.986.073-1.198 1.138-.14.62.694.117 1.302-1.41.327-.538"/>
    <path d="M67.087 41.11v-.362l-.21.27.062.328.147-.237zm-.15 1.73l.15.09.18-.267.266-.478-.146.027-.24.12-.12-.687-.15.12.122.42-.15.325-.207-.06-.27.18.028.447.538-.236zm.806-1.642l.36.27.417-.09-.33-.09-.087-.357v-.27l-.18-.33-.24.092-.12-.09-.357.328.57.3-.033.238zm2.926-2.656l.3.296.15-.03.238.15-.062-.18-.596-.42-.39-.357.184.542h.175zm-4.897 5.046l.148-.3-.655.03-.297.207.327.122.478-.06zm6.96.06l.27.477-.092.18.238.806.21.06v-.865l-.238-.3-.09-.897-.415-1.082-.087.192.112.624.092.805zm-1.735-4.27l.48.746.298.146-.508-.862-.27-.03zm1.346 2.09l.178.09-.446-.898-.24-.06.24.39.268.478zm-5.17-6.54c-.023.062-.045.128-.07.19l.224.167.237-.09-.392-.267zM27.423 66.11l-.03-.288-.323-.388-.19.067.353.448-.033.13.288.32.194.417.16-.063-.16-.353-.257-.29zM68.02 26.848l.332.242.793.273.27.488h.215l-.06-.52-.245-.182.062-.273-.486-.21-.18.182-.247-.122.12-.275-.574.398zM58.276 73.54l.027.015c-.004-.014-.01-.027-.012-.044l-.015.03zm24.4-10.374c-1.59 3.753-3.856 7.128-6.744 10.03l-4.176-4.178c2.343-2.36 4.187-5.103 5.48-8.155 1.297-3.067 1.97-6.322 2.022-9.672h5.903c-.048 4.15-.88 8.177-2.485 11.976zm-11.77 5.004l.033-.215.297-.268-.268-1.346.06-.355-.3-.567-.18-.18.18-.03-.236-.327-.57-.028v.446l-.208.178.15.36-.24.687-.182.118.07.14-2.314-2.317c3.532-3.57 5.512-8.265 5.613-13.27h5.997c-.102 6.61-2.71 12.81-7.37 17.508l-.534-.53zm-4.22 4.293l.01-.028.21-.358-.21-.537.78-.656-.06-.45-.567-.297.566-1.104.656-1.077-.775-.957-.273.09-.354-.09-.327-.717-.15.06.18-.685.113-.52c.13-.122.264-.238.39-.362l2.588 2.587.014.026.016.003 1.623 1.622c-1.36 1.323-2.848 2.473-4.43 3.448zm-.674-10.333l-.993.785-.143.11-.09-.146h-.478l-.687.146-.657-.268h-.33l-.507-.387-.33.03-.298-.27-.478-.03-.238-.327-.208-.08.044-.03.285.05v-.147l.684.12.24.147.746.12.06.177h.6l.808.242.228.38.488-.023.356-.39.3-.596.445-1.168-.086-.206.208-.21.18-.716-.12-.297.15-.242-.21-.268-.06-.718-.507.116-.3.424-.446-.03.057.534-.356.45-.3-.15-.27.24-.685.06-.025-.026c.148-.167.29-.335.436-.51h.307l.332-.063.325-.356.06-.285.328-.014.63-.928.506-1.075 1.342-.624-.027-.36-.182-.177.09-.12.416.207.897.18.72-.3 1.163-.237-.298-.837-.508-.507-.627-.03-.81-1.942-.118.09-.297-.238.237-.15-.012-.07h4.362c-.097 4.89-2.035 9.47-5.482 12.955l-.13-.13.037-.153.15-.745-.15-1.164-.27-.688-.177.18-.33.477v.205h.003zm-3.795-16.84l.507-.18-.562-.39.327-.387-.062-.21.538-.238-.507-.597-.6.537-.09.39-.386-.183-.42.062-.12-.27-.005-.002.97-.967.078.103.836.03.287-.34c.4.473.77.976 1.098 1.507l-.008-.002-.42.896-.654-.36-.18.028.18.36.208.15-.208.51-.092-.245-.716-.204zm-.01-2.83l.334-.334c.123.126.242.257.357.392l-.382.323-.327-.03-.122-.12.27-.178-.13-.053zm4.842-4.84c.447.462.867.946 1.263 1.446l-.24.132-.268.06.418.12.196-.17c.187.242.365.485.542.737h-.203v.12l.21.06.626.984.175.086c.074.123.145.254.216.38v.398l-.42.448-.117-.33-.36-.06.148.39-.268.268.656.24.27.388.536.15.03.238.478.12.09.746.285-.044c.17.486.314.974.445 1.475l-.014.003-.3.505-.418.213-.3.864-.776.448-.268-.478.238-1.134.358-.27-1.195-.926-.626.33-.568 1.164-.597-.33-.18-.476.327-.15.15.21.266-.087-.085-.358-.39-.124.03.237h-.27l-.297-.443-.688-.688-.808-.57-.748-.058-.076.103c-.478-.785-1.038-1.516-1.673-2.184l4.197-4.183zm2.992 3.07l-.012.07-.075-.12.087.05zm-1.192 8.242l.836-.535 1.015-.09.27-.568.327-.18.45-.776.11-.4c.035.146.062.294.1.442l-.18.464.058.123-.237.476.027.236-.474.66.088.416.18.03.48-.747v-.448l.236-.06.028-.037c.137.92.21 1.854.212 2.802H67.86l-.116-.08.032-.357.388-.145.298-.42.716-.092v-.298l-.328-.418zm-1.47-11.647l.514.567.27-.833-.42-.063v-.032l1.307-1.308.856.888.825-.06.272.458.09.7 1.648.975.456-.06 1.098 1.25.242.637.763.795.883-.032.393-.83c1.46 3.23 2.235 6.757 2.24 10.403h-5.994c-.004-1.137-.11-2.26-.302-3.357l.27-.42h.152l.327-1.404-.24-.064.063-.233-.6.027-.12-.15-.12.27.36.297-.27.094-.102.267c-.143-.575-.31-1.143-.504-1.7l.338-.51-.093-.595-.296-.06-.117-.656.18-.15-.33-.45-.57.06-.187-.123c-.123-.242-.256-.478-.39-.712h.577l-.116-.296.388-.123v-.296l-.27-.03-.39.298-.118-.122.33-.508-.27-.178-.326.476-.396-.196c-.317-.483-.66-.953-1.02-1.41l.01-.122-.05.067c-.392-.493-.81-.97-1.25-1.428l.013-.017zm8.72-8.717c2.807 2.862 5.02 6.174 6.578 9.854 1.65 3.9 2.49 8.046 2.497 12.318H79.27c-.01-3.475-.692-6.844-2.034-10.017-.13-.308-.27-.61-.412-.912l.154-.32.333.214.124-.364-1.98-3.23-.426-.12-2.93-3.353v-.067l4.002-4.002zM24.115 63.166c-1.607-3.8-2.438-7.826-2.49-11.975h5.907c.04 2.617.464 5.172 1.267 7.63l-.443.295-1.157-.64-.257.257-.32-.16-.194.16.127.418-.672-.034-.39-.226.037-.353-.095-.286h-.194l.03.32-.03.192-.16-.065-.482.227.324.255-.418-.096-.194.226.226.096h-.29v.48l.132.257.158.127h-.258l.13.42.255.095.092.16.168.29.095.255-.578-.353.224.61-.385-.836v.547l.354.834.292.706.896 1.768-.093-.354-.71-1.7v-.64l.353-.58 1.155 1.38.162-.127-.192-.867.225.16.35.612.582.156.25.386.23.033-.193-.48.193-.257.19.673.415.672.39-.063 1.025 1.733.576.16.162-.705.224.287.866 1.252 1.085.288c.61.772 1.258 1.516 1.962 2.223l-4.18 4.177c-2.886-2.9-5.152-6.27-6.735-10.02zm0-24.743c1.552-3.675 3.762-6.982 6.562-9.843l4.178 4.177c-2.26 2.318-4.043 4.994-5.302 7.968-1.34 3.173-2.023 6.542-2.027 10.017h-5.91c.01-4.273.846-8.418 2.5-12.32zM33.98 51.19c.015.913.1 1.814.24 2.7l-.313-.166v.42l-.225-.1-.192-.32-.45.192-.065.386-1.026 1.574-.29.062-.125 2.632-.74.354-.225-.098-.352.158-.835-.06-.09-.04c-.82-2.453-1.27-5.04-1.31-7.693h5.996zm5.753-13.557l4.186 4.188c-.966 1.018-1.77 2.19-2.37 3.478l-.23-.042.19-.256-.482.414-.38.26-.098-.163-.676.257.032.258.354-.222.608-.036.54-.145c-.027.063-.06.133-.087.198l-.708.493-.16-.16-.837.608-.734-.126-.48.577-.738 1.636.127.452-.61.8-.1.613-.007.03h-2.655c.014-4.93 1.898-9.568 5.315-13.107zm2.097 8.14c.038-.08.073-.167.11-.247l.114-.016-.127.256-.097.006zm.805 7.727l.606.256.42.514.192-.125.707.446.255.324-.48-.196-.095.196.414.224.45.353v-.225l-.097-.35.192-.324.223-.126-.448-.547.516.26.322.414.222.577.454.098-.97.16.357.77.318.032.063-.32-.095-.385.417-.032.32-.545.13-.8.226-.1.2-.317c.306.618.698 1.186 1.174 1.673L44.4 59.628c-1.84-1.875-3.1-4.323-3.485-7.046l.24.022.802.803.678.095zm-4.49-3.24l.158-1.06.865-.448 1.027.256.214.39c-.047.44-.072.89-.076 1.344h-1.58l-.004-.13-.606-.352zm1.754 13.872c-.37-.376-.722-.765-1.06-1.167h.006l.195-.674-.03-.77-.61-1.058V59.37l-.225-.707.158-.286-.64-1.155.062-.418-.354-.674-.352-.096.58-.097-.162-.223-.387-.837-.673-.193.16-.54-.257-.87.32-.736.804-.065.226-.385-.083-.897h.508l.312.094.383.194-.01-.287h1.57c.013.405.045.804.092 1.197l-.016.024-.35-.033-.517.577.447.096.485-.29c.422 2.773 1.716 5.267 3.6 7.186L39.9 64.132zm-.422.42l-.244-.47c.117.123.23.248.348.367l-.104.103zm-1.562-1.587l-.062-.16.32.05c.063.082.124.16.19.24l-.448-.13zm-1.893-8.47l-.675.16-.287-.287-.19-.13-.18-.234c-.152-.924-.245-1.86-.263-2.812h2.528l-.033.13-.354.61-.227.03-.413 1.347.385.607-.29.578zm-.68 14.193c-.45-.45-.874-.92-1.284-1.398l.394.168.385-.224 1.058.674.174.05-.73.73zm47.75-30.44c-1.622-3.834-3.947-7.283-6.908-10.244-2.957-2.96-6.406-5.284-10.243-6.905-3.038-1.287-6.22-2.084-9.494-2.388-.025.16-.047.308-.062.443 3.233.302 6.378 1.085 9.38 2.355 3.75 1.588 7.123 3.853 10.02 6.73l-3.705 3.71-.01-.26-.306.032-.364-.182-.552-.155.764-.123-.15-.21h-.43l.122-.337-.366-.915-.972-1.186-.947-.61-.518-.304-.397.092v-.244l-.912-.398-.36.34c.67 1.14 1.016 2.314 1.073 3.36.05.807.01 1.572-.106 2.304l.306-.183.98 1.77-.673.06.477.493-1.133 1.132-.58-.72.057-.54c-.156.37-.337.732-.545 1.077l.072.148.718.09.07.156-.346.345c-.2-.197-.406-.388-.61-.576-.082.127-.17.252-.258.38.187.167.372.338.55.515l-4.19 4.187c-.34-.337-.702-.652-1.08-.953-.157.07-.312.143-.47.206.437.33.85.684 1.238 1.066l-.54.537-.01-.01.09-.298-.416.12-.448-.06v-.357l-.48.297-.51.478.243.15.505-.33.508.18v.092l.343-.086-1.176 1.17-1.376.284-.393.51-.266.18-.03.27.21-.03.206.178-.042.3-.1.1-.334-.07-.793.123c-.15-.117-.31-.227-.47-.33l-.054-.062-.222-.102c-.278-.16-.568-.292-.87-.41l-.02 1.7c-.01.536-.02 1.045-.027 1.535l.185-.093.162.154-.354.354c-.002.22-.006.433-.01.645l.672-.668-.142.472.197.066.143.718.377.38-.893-.48-.073.34c1.17.48 2.765 1.182 4.063 2.153 1.962 1.47 2.97 3.51 2.697 5.46-.194 1.407-1.01 2.608-2.338 3.482l.04.15-.272.326-.476.062-.18.3-.93.388-.835-.03-.236.36.15.237-.007.004c-.11.042-.224.077-.335.115l-.587.062-.147-.24-.658.09-.01-.003c-.12.043-.237.082-.358.126l-.002.462c0 .14-.025 1.195-.07 2.705 2.124 1.064 4.752 2.81 4.643 7.44 0 0-.05.84-.29 1.45l.003.004.92.27c-1.803.544-3.674.894-5.587 1.028l-.014.45c2.013-.137 3.982-.508 5.894-1.105l.398.134.416.357.516-.195.8-.193.328-.296.897-.39.895-.627 1.016-1.016.048-.12c1.815-1.062 3.494-2.336 5.017-3.818l4.18 4.176c-2.863 2.8-6.17 5.013-9.85 6.568-3.915 1.655-8.077 2.497-12.366 2.497-4.292 0-8.454-.842-12.373-2.497-3.68-1.558-6.992-3.773-9.856-6.578l4.177-4.176c2.32 2.26 5.003 4.05 7.98 5.31 2.67 1.13 5.478 1.787 8.37 1.974-.003-.147-.007-.3-.013-.453-6.033-.4-11.656-2.898-16.02-7.148l.89-.893.755.658 1.573-.124.64-.644.866.032.802.096.418-.32-.034-.385-.447-.512-.546-1.06-.546-.226-.345-.66.21-.206c3.19 3.08 7.248 4.947 11.615 5.368-.004-.153-.006-.304-.008-.454-4.246-.416-8.188-2.237-11.29-5.234l4.188-4.187c1.104 1.048 2.388 1.906 3.803 2.52.033-.15.073-.295.122-.445-1.34-.59-2.56-1.4-3.605-2.39l4.23-4.23c.655.598 1.438 1.06 2.295 1.354l-.006-.475c-.732-.276-1.4-.683-1.977-1.197l.278-.28.15-.006.255-.254.563.072.328-.185.364-.038-.01-.75-1.29-.42-.048.043-.53.09-.38.528-.166.675.006.043c-.52-.59-.938-1.27-1.21-2.02l.04-.197c-.386-.175-.742-.36-1.073-.562l-.29.143-.318-.19-.48.19-.26-.222.29-.29.384-.074c-1.324-.98-2.125-2.242-2.537-3.913-.246-1.004-.322-1.977-.236-2.906l-.594.222-.374.042c.39-.777.86-1.503 1.396-2.177.193-.52.44-1.023.747-1.5-.017.01-.03.022-.042.034l-4.186-4.184c2.923-2.896 6.62-4.724 10.627-5.3-.002-.147-.002-.298-.006-.45-4.124.577-7.934 2.452-10.938 5.433l-1.017-1.015c0 .006-.006.006-.006.01-.08.165-.14.308-.192.428l.9.898c-3.5 3.627-5.432 8.376-5.443 13.428h-6c.015-6.65 2.572-12.91 7.2-17.667l1.65 1.648c.112.014.24.02.376.008.08-.003.158-.015.236-.03l-1.948-1.946c1.306-1.297 2.73-2.427 4.243-3.394.08-.255.197-.508.34-.747-1.77 1.066-3.415 2.345-4.9 3.823L30.99 28.26c2.903-2.89 6.28-5.16 10.033-6.75 2.985-1.262 6.108-2.045 9.323-2.35l-.065-.442c-3.252.306-6.417 1.103-9.43 2.38-3.842 1.622-7.286 3.947-10.245 6.906-2.962 2.96-5.286 6.41-6.91 10.244-1.68 3.973-2.532 8.194-2.532 12.545 0 4.353.852 8.57 2.53 12.544 1.626 3.84 3.95 7.285 6.912 10.243 2.96 2.96 6.403 5.285 10.245 6.91 3.972 1.68 8.19 2.533 12.544 2.533 4.347 0 8.57-.854 12.544-2.534 3.838-1.625 7.287-3.95 10.244-6.91 2.96-2.958 5.286-6.403 6.907-10.243 1.68-3.974 2.534-8.19 2.534-12.544 0-4.35-.853-8.572-2.532-12.545zM70.97 53.41l-.836.3.206.328.6.06.03-.687zm-22.86-.504c-.09-.034-.18-.072-.265-.107l-.045.57.31-.464zm.406.156c-.133-.048-.266-.1-.393-.148l.03.362.363-.214zm-10.37-17.015c.03-.202.064-.375.112-.525l-.265-.262c-.193.042-.392.065-.584.054l.737.733zm12.318 9.4l-.025-.083c.007-.008.02-.016.032-.02l-.008.103zm-.033-.802l.038.202c-.396.198-.765.44-1.113.71-.002.468.18.97.535 1.42.152.197.328.363.553.522l.636-.276-.048-2.73-.215.02.063-.315.143-.222-.006-.275-.137.11-.287.448-.162.385zm4.98 25.45v.017c.01-.002.02-.002.03-.002l-.03-.016zM39.106 54.976l-.13.096-.094.127-.228-.48-.096.098.096.416.13.258-.095.158.254.32.164.355.128-.032.03-.545-.127-.29-.03-.48zm-.258-2.888l.26.674-.164.222.067.354-.095.514-.194.13.322.833.095-.033-.095-.737.255-1.253-.19-.64-.26-.065zm17.427 4.158l.018.004c-.01.004-.022.012-.034.018l.016-.022zm-.355.986l.056.24-.025.106c.975-.476 1.11-.75 1.1-.88-.034-.383-.6-.778-1.416-1.163-.006.293-.01.55-.012.783l.163.175c-.056.023-.11.043-.17.06 0 .18-.007.342-.01.482.096-.03.193-.062.286-.1l.03.297zM59.5 43.05h.45l.09-.18-.39-.09-.15-.236-.476.027.24.33v.39l.236-.24zm-.684.538l-.212.147-.088-.12-.57.958.51-.09.03-.358.39-.39.297-.266-.18-.242-.177.36zm-2.09-.39l-.6.03-.18.297h-.12l-.013.97.614-.278.3-1.018zm4.237-10.304c-1.565-.66-3.22-1.11-4.924-1.342l-.01.452c1.62.224 3.198.653 4.692 1.277.09-.127.172-.256.24-.386zM42.976 95.963l2.36.238s3.016-6.627 10.6-6.944c4.87-.204 9.13 2.232 14.315 2.608 6.232.45 10.487-.864 14.05-4.257-3.77 2.074-8.216 1.18-13.357 0-3.342-.77-6.77-1.09-9.312-1.064-11.798.115-18.654 9.42-18.654 9.42M78.58 74.086c-1.102 1.104-2.584 2.557-4.018 5.644-1.396 2.998-1.41 4.204-2.77 6.385 3.088-1.153 5.37 1.07 13.145-1.808 3.6-1.33 6.16-4.72 7.343-7.664-2.766 2.503-5.004 3.773-8.298 4.26-3.245.48-5.323.69-8.037 2.29 1.702-1.812 2.34-2.823 3.246-5.218.97-2.568.815-4.777 1.914-6.76-.79 1.002-1.417 1.768-2.523 2.87"/>
    <path d="M82.503 70.25c-.81 4.217-.572 7.738-2.725 10.44 2.87-2.387 5.667-2.373 9.523-4.102 4.602-2.262 7.03-6.218 8.304-11.974-1.02 2.54-3.635 4.94-6.545 6.76-2.484 1.55-5.136 2.31-6.972 4.578 1.062-1.28 1.343-1.9 1.58-3.326.75-3.904-.494-6.117.095-10.19-.6 1.686-2.737 5.1-3.26 7.814"/>
    <path d="M86.872 57.865c-.296 6.61 2.408 7.965.462 14.04 1.702-2.447 3.72-3.183 6.333-5.48 3.254-2.874 5.94-7.22 5.693-13.09-.614 1.642-2.553 4.788-4.684 7.025-2.127 2.233-3.918 4.913-4.842 6.755 2.125-7.3-1.677-10.08-2.135-14.457-.123 1.654-.722 4.11-.828 5.207"/>
    <path d="M88.14 50.36c-.58-2.142-.332-3.42-.83-5.822.876 2.146 5.984 5.948 5.45 13.266.29-1.343 1.337-5.406 2.823-8.247 1.17-2.234 2.36-4.466 2.075-7.77 1.346 4.356 1.276 6.865.69 9.05-.585 2.178-2.044 3.853-3.3 5.585-.824 1.14-2.572 3.36-3.406 5.43.066-4.482-2.746-8.686-3.503-11.493"/>
    <path d="M86.51 40.588c-.958-1.836-1.33-3.352-2.575-5.678.77.998 1.436 1.53 3.346 3.152 2.633 2.23 4.632 4.737 5.675 8.907.076-2.598.395-4.153.926-7.047.477-2.608.355-5.59-.85-8.888 2.322 2.812 4.323 8.353 3.19 12.078-.894 3.54-2.423 5.328-2.873 7.825-1.558-4.993-5.52-7.84-6.836-10.35"/>
    <path d="M87.772 35.962c-1.164-.936-4.083-2.757-5.51-4.43-1.422-1.677-2.145-3.273-3.15-4.747 2.105 1.934 3.252 2.51 5.4 3.825 1.947 1.113 4.577 2.607 5.64 4.96-.638-1.768-.956-4.105-1.168-6.076-.318-2.937-1.518-4.72-2.396-5.8 2.868 2.308 4.607 4.254 5.375 8.406s-.108 7.292.187 9.53c-1.522-3.02-3.217-4.733-4.378-5.668"/>
    <path d="M88.29 31.623c-1.276-3.83-2.61-6.117-5.214-8.3-3.41-2.867-7.028-4.21-8.464-4.898 2.793 1.99 2.646 3.71 6.36 7.212 2.905 2.737 4.946 2.95 7.32 5.986M63.814 95.963l-2.362.238s-3.013-6.627-10.598-6.944c-4.87-.204-9.13 2.232-14.314 2.608-6.233.45-10.484-.864-14.053-4.257 3.772 2.074 8.218 1.18 13.363 0 3.342-.77 6.767-1.09 9.312-1.064 11.797.115 18.652 9.42 18.652 9.42M28.208 74.086c1.104 1.104 2.584 2.557 4.022 5.644 1.393 2.998 1.408 4.204 2.766 6.385-3.084-1.153-5.37 1.07-13.146-1.808-3.598-1.33-6.157-4.72-7.342-7.664 2.767 2.503 5.005 3.773 8.303 4.26 3.246.48 5.322.69 8.036 2.29-1.704-1.812-2.343-2.823-3.246-5.218-.972-2.568-.812-4.777-1.915-6.76.793 1.002 1.42 1.768 2.523 2.87"/>
    <path d="M24.287 70.25c.807 4.217.57 7.738 2.726 10.44-2.872-2.387-5.67-2.373-9.523-4.102-4.603-2.262-7.03-6.218-8.3-11.974 1.018 2.54 3.632 4.94 6.542 6.76 2.483 1.55 5.133 2.31 6.973 4.578-1.066-1.28-1.345-1.9-1.586-3.326-.748-3.904.496-6.117-.094-10.19.6 1.686 2.74 5.1 3.26 7.814"/>
    <path d="M19.92 57.865c.297 6.61-2.41 7.965-.465 14.04-1.702-2.447-3.716-3.183-6.33-5.48-3.253-2.874-5.94-7.22-5.694-13.09.613 1.642 2.556 4.788 4.683 7.025 2.128 2.233 3.922 4.913 4.842 6.755-2.126-7.3 1.68-10.08 2.14-14.457.115 1.654.72 4.11.826 5.207"/>
    <path d="M18.652 50.36c.575-2.142.33-3.42.83-5.822-.877 2.146-5.987 5.948-5.456 13.266-.283-1.343-1.33-5.406-2.82-8.247-1.17-2.234-2.356-4.466-2.075-7.77-1.34 4.356-1.275 6.865-.688 9.05.58 2.178 2.04 3.853 3.296 5.585.824 1.14 2.574 3.36 3.407 5.43-.066-4.482 2.75-8.686 3.507-11.493"/>
    <path d="M19.83 41.268c1.228-1.812 1.78-4.03 3.024-6.357-.77 1-1.436 1.532-3.346 3.153-2.628 2.23-4.63 4.737-5.67 8.907-.076-2.597-.397-4.152-.93-7.046-.477-2.608-.352-5.59.854-8.888-2.323 2.812-4.326 8.353-3.193 12.078.896 3.54 2.424 5.328 2.873 7.825 1.557-4.995 4.784-7.304 6.386-9.672"/>
    <path d="M19.017 35.962c1.164-.936 4.08-2.757 5.507-4.43 1.425-1.677 2.15-3.273 3.15-4.747-2.103 1.934-3.252 2.51-5.397 3.825-1.947 1.113-4.575 2.607-5.64 4.96.638-1.768.957-4.105 1.17-6.076.317-2.937 1.518-4.72 2.394-5.8-2.87 2.308-4.607 4.254-5.373 8.406-.764 4.152.108 7.292-.188 9.53 1.523-3.02 3.214-4.733 4.377-5.668"/>
    <path d="M18.496 31.623c1.277-3.83 2.612-6.117 5.217-8.3 3.41-2.867 7.03-4.21 8.462-4.898-2.79 1.99-2.645 3.71-6.36 7.212-2.903 2.737-4.947 2.95-7.32 5.986"/>
  </g>
</svg>
