<svg xmlns="http://www.w3.org/2000/svg" width="150" height="108.667" viewBox="0 0 150 108.667">
  <g fill="#FFF">
    <path d="M16.74 89.74c-.607-.362-1.183-.513-1.92-.513-1.804 0-2.976 1.322-2.976 3.35 0 1.977 1.256 3.372 3.034 3.372.713 0 1.276-.19 1.956-.645l.023 1.042c-.656.188-1.324.293-2.016.293-2.376 0-4.016-1.604-4.016-3.924 0-2.39 1.85-4.193 4.31-4.193.61 0 1.148.105 1.652.295l-.045.923zM19.527 93.77l-.62 1.5c-.117.26-.163.527-.163.773 0 .152.01.258.07.443h-1.43c.2-.338.374-.7.574-1.157l3.058-7.076 3.148 7.155c.247.56.365.785.562 1.076h-1.464c.048-.186.07-.316.07-.42 0-.176-.07-.422-.2-.737l-.665-1.56h-2.94zm1.466-3.466l-1.208 2.847h2.412l-1.204-2.846zM27.14 95.34c0 .62.048.81.235 1.148H25.97c.198-.34.234-.527.234-1.136v-6.045h-.13c-.877 0-1.346.094-2.13.41l.41-1.03h5.222l-.372 1.03c-.494-.305-1.01-.41-2.063-.41v6.034zM31.92 92.785v2.554c0 .62.034.807.234 1.148h-1.406c.187-.342.233-.527.233-1.136v-5.53c0-.597-.046-.793-.232-1.135h1.406c-.2.342-.234.538-.234 1.134v2.334h3.713V89.82c0-.595-.048-.79-.236-1.133h1.405c-.2.342-.232.538-.232 1.134v5.52c0 .62.033.807.232 1.148h-1.405c.188-.342.236-.527.236-1.136v-2.567H31.92zM41.804 96.64c-2.25 0-3.817-1.615-3.817-3.946 0-2.413 1.756-4.17 4.18-4.17 2.25 0 3.76 1.58 3.76 3.912 0 2.47-1.71 4.203-4.123 4.203m.152-7.414c-1.757 0-2.952 1.3-2.952 3.21 0 1.98 1.336 3.514 3.068 3.514 1.65 0 2.847-1.358 2.847-3.244 0-2.014-1.242-3.48-2.964-3.48M46.886 96.488c.188-.34.236-.53.236-1.136v-5.53c0-.597-.05-.795-.236-1.135h1.405c-.198.34-.232.538-.232 1.136v6.032h.948c.866.012 1.394-.105 2.155-.49l-.503 1.123h-3.77zM52.285 96.488c.187-.34.234-.53.234-1.136v-5.53c0-.597-.05-.795-.235-1.135h1.405c-.2.352-.233.538-.233 1.136v5.518c0 .62.034.797.233 1.148h-1.405zM60.905 89.74c-.61-.362-1.185-.513-1.922-.513-1.802 0-2.976 1.322-2.976 3.35 0 1.977 1.254 3.372 3.034 3.372.716 0 1.278-.19 1.958-.645l.022 1.042c-.656.188-1.32.293-2.015.293-2.377 0-4.017-1.604-4.017-3.924 0-2.39 1.852-4.193 4.31-4.193.61 0 1.147.105 1.65.295l-.043.923zM66.586 95.353c0 .608.046.784.232 1.136h-1.404c.2-.34.233-.528.233-1.137v-5.53c0-.595-.034-.795-.233-1.135h1.522c1.008 0 1.604.152 2.144.528.515.373.796.9.796 1.5 0 .958-.69 1.73-1.955 2.177l.2.256c1.02 1.336 1.86 2.355 2.48 2.987.05.047.117.105.213.197-.224.13-.4.178-.55.178-.317 0-.834-.422-1.69-1.382l-1.988-2.237v2.46zm2.282-4.57c0-.702-.445-1.23-1.148-1.382-.338-.08-.514-.093-1.04-.093h-.094v3.187c1.358-.012 2.282-.703 2.282-1.71M75.333 92.12l-.552.96c-.42-.293-.77-.375-1.52-.375h-.714v3.16h1.09c.89 0 1.357-.08 2.154-.36l-.457.983h-3.957c.186-.34.223-.527.223-1.136v-5.53c0-.595-.038-.795-.236-1.135h4.31l-.525.925c-.33-.223-.764-.305-1.572-.305h-1.042v2.812h2.797zM76.915 96.488c.186-.34.233-.53.233-1.136v-5.53c0-.597-.048-.795-.233-1.135h1.406c-.198.34-.234.538-.234 1.136v6.032h.947c.867.012 1.396-.105 2.155-.49l-.502 1.123h-3.77zM82.255 96.488c.188-.34.235-.53.235-1.136v-5.53c0-.597-.048-.795-.235-1.135h1.405c-.2.352-.234.538-.234 1.136v5.518c0 .62.035.797.234 1.148h-1.405zM89.023 92.12l-.55.96c-.423-.293-.774-.375-1.522-.375h-.714v3.16h1.09c.89 0 1.357-.08 2.154-.36l-.458.983h-3.957c.187-.34.222-.527.222-1.136v-5.53c0-.595-.035-.795-.234-1.135h4.31l-.525.925c-.33-.223-.762-.305-1.57-.305h-1.042v2.812h2.797zM91.834 95.34c0 .62.035.81.235 1.148h-1.406c.187-.34.235-.527.235-1.136v-5.53c0-.595-.05-.795-.236-1.135h4.31l-.55.995c-.364-.27-.762-.375-1.358-.375h-1.23v2.882h2.728l-.527.925c-.28-.21-.63-.293-1.206-.293h-.995v2.52zM102.608 89.718c-.514-.34-.948-.49-1.475-.49-.773 0-1.264.455-1.264 1.17 0 .316.103.633.29.855.223.28.47.48 1.114.89.69.422.9.574 1.135.82.35.362.55.866.55 1.382 0 1.3-1.113 2.294-2.565 2.294-.504 0-.938-.093-1.452-.292V95.2c.61.55 1.043.747 1.63.747.818 0 1.463-.653 1.463-1.51 0-.68-.164-.878-1.348-1.64-.62-.41-.925-.644-1.195-.937-.36-.375-.56-.83-.56-1.3 0-1.195 1.018-2.036 2.47-2.036.423 0 .82.057 1.205.162v1.032zM108.055 92.12l-.55.96c-.42-.293-.772-.375-1.522-.375h-.715v3.16h1.09c.888 0 1.356-.08 2.154-.36l-.458.983h-3.958c.188-.34.223-.527.223-1.136v-5.53c0-.595-.035-.795-.233-1.135h4.308l-.526.925c-.33-.223-.763-.305-1.57-.305h-1.042v2.812h2.797zM110.737 95.353c0 .608.047.784.234 1.136h-1.404c.198-.34.233-.528.233-1.137v-5.53c0-.595-.036-.795-.234-1.135h1.52c1.01 0 1.61.152 2.146.528.518.373.797.9.797 1.5 0 .958-.692 1.73-1.956 2.177l.198.256c1.018 1.336 1.86 2.355 2.482 2.987.048.047.12.105.212.197-.223.13-.398.178-.55.178-.315 0-.834-.422-1.687-1.382l-1.993-2.237v2.46zm2.284-4.57c0-.702-.443-1.23-1.146-1.382-.34-.08-.515-.093-1.043-.093h-.092v3.187c1.36-.012 2.283-.703 2.283-1.71M117.342 96.488l-2.317-6.288c-.258-.682-.457-1.104-.727-1.513h1.382c-.013.13-.013.178-.013.258 0 .306.07.644.27 1.17l1.79 5.015 1.758-4.93c.153-.4.224-.764.224-1.043 0-.163-.014-.257-.06-.47h1.348c-.235.386-.4.772-.703 1.58L118 96.488h-.658zM121.875 96.488c.188-.34.234-.53.234-1.136v-5.53c0-.597-.048-.795-.235-1.135h1.405c-.2.352-.234.538-.234 1.136v5.518c0 .62.035.797.234 1.148h-1.405zM130.2 89.74c-.608-.362-1.18-.513-1.92-.513-1.804 0-2.975 1.322-2.975 3.35 0 1.977 1.254 3.372 3.033 3.372.716 0 1.277-.19 1.957-.645l.023 1.042c-.655.188-1.324.293-2.016.293-2.378 0-4.016-1.604-4.016-3.924 0-2.39 1.85-4.193 4.31-4.193.608 0 1.147.105 1.65.295l-.045.923zM135.272 92.12l-.55.96c-.422-.293-.772-.375-1.522-.375h-.715v3.16h1.09c.89 0 1.358-.08 2.155-.36l-.458.983h-3.96c.19-.34.224-.527.224-1.136v-5.53c0-.595-.034-.795-.233-1.135h4.31l-.526.925c-.328-.223-.762-.305-1.57-.305h-1.042v2.812h2.797zM140.31 89.718c-.516-.34-.95-.49-1.476-.49-.773 0-1.266.455-1.266 1.17 0 .316.104.633.293.855.223.28.47.48 1.113.89.69.422.9.574 1.136.82.35.362.55.866.55 1.382 0 1.3-1.113 2.294-2.564 2.294-.504 0-.938-.093-1.453-.292V95.2c.61.55 1.043.747 1.628.747.82 0 1.465-.653 1.465-1.51 0-.68-.164-.878-1.347-1.64-.62-.41-.926-.644-1.194-.937-.362-.375-.562-.83-.562-1.3 0-1.195 1.02-2.036 2.47-2.036.422 0 .82.057 1.207.162v1.032zM91.983 50.33c-3.08-1.72-6.104-2.442-9.84-2.442-9.126 0-14.9 6.274-14.9 15.896 0 9.39 6.188 16.003 15.2 16.003 3.61 0 6.517-.89 9.956-3.056v4.946c-3.315.89-6.64 1.39-10.14 1.39-12.028 0-20.325-7.62-20.325-18.618 0-11.342 9.36-19.896 21.812-19.896 3.08 0 5.69.5 8.235 1.387v4.39zM100.715 63.39V48.27h.47c2.672 0 3.56.057 5.277.452 3.557.717 5.812 3.22 5.812 6.552 0 4.784-4.684 8.062-11.56 8.117m13.924 11.522c-4.193-4.33-7.167-9.63-7.167-9.63 6.404-2.11 9.9-5.78 9.9-10.34 0-2.83-1.428-5.337-4.03-7.11-2.727-1.783-5.75-2.502-10.852-2.502h-7.7c1.007 1.61 1.18 2.56 1.18 5.392v26.234c0 2.888-.173 3.777-1.18 5.39h7.112c-.95-1.665-1.186-2.502-1.186-5.39V65.282s7.02 8.893 8.61 10.59c2.895 3.104 8.513 8.35 18.156 7.716 7.333-.492 12.98-4.725 12.98-10.89 0-2.448-1.004-4.837-2.787-6.556-1.184-1.177-2.25-1.895-5.748-3.894-3.26-1.945-4.502-2.888-5.63-4.226-.95-1.056-1.484-2.562-1.484-4.06 0-3.387 2.495-5.55 6.407-5.55 2.664 0 4.854.717 7.464 2.322V45.85c-1.958-.5-3.972-.78-6.103-.78-7.345 0-12.502 4-12.502 9.67 0 2.226 1.004 4.39 2.84 6.17 1.366 1.393 2.854 2.574 6.05 4.444 5.512 3.23 6.803 4.395 6.812 7.787.02 3.55-3.285 7.08-7.41 7.487-5.11.516-9.486-1.33-13.73-5.715M53.14 11.92c-.208.137-.715.332-1.397.705-1.83.998-4.134 2.46-8.098 5.75-8.516 7.078-20.245 19.258-21.998 36.02-1.734 16.553 3.07 22.638 7.98 23.81 4.856 1.155 15.192-3.228 20.26-12.982 5.56-10.706 3.123-24.138 2.17-28.042-.772-3.164-1.433-5.147-1.62-8.25-.28-4.602 2.552-10.835 4.135-13.03.855-1.19 2.498-1.666 3.258.648 3.31 10.102 5.56 31.905-4.557 48.6-9.997 16.52-22.367 20.08-30.376 18.195-6.86-1.617-13.194-8.74-11.59-22.71C12.922 46.626 19.672 37.16 24.396 31.7 37.04 17.094 51.093 11.886 52.977 11.647c.27-.04.328.16.163.274"/>
    <path d="M37.035 61.53c-4.49 1.005-6.817 3.45-7.708 4.51-2.1 2.5-3.414 6.724-.734 9.006 2.556 2.176 5.883.462 7.982-1.133 1.746-1.328 4.232-4.22 6.223-8.025 1.636-3.128 2.79-5.738 3.143-7.167.146-.593.2-1.073.105-1.373-.158-.5-.637-.536-1.098-.037-.146.16-.293.354-.468.57-1.072 1.35-3.002 2.653-7.445 3.65M140.83 81.915c0 .457-.16.842-.48 1.16-.32.32-.707.48-1.157.48-.456 0-.844-.16-1.164-.48-.322-.318-.48-.703-.48-1.16 0-.456.158-.846.48-1.168.32-.32.707-.483 1.163-.483.45 0 .837.162 1.158.483.32.322.48.712.48 1.168m-.388.002c0-.346-.123-.647-.37-.908-.245-.26-.542-.39-.885-.39-.347 0-.643.13-.886.39-.24.26-.363.56-.363.907 0 .344.122.645.364.906.244.26.54.388.887.388.343 0 .64-.128.885-.387.247-.26.37-.562.37-.906m-1.048.86v-.31c0-.127-.024-.233-.07-.322-.05-.09-.112-.134-.193-.134h-.118v.77h-.422v-1.764h.684c.183 0 .323.036.412.108.092.07.138.162.138.273v.152c0 .097-.025.177-.077.237-.052.062-.12.104-.2.12.125.065.21.153.255.265.046.11.068.215.068.316v.29h-.476zm.04-1.21V81.5c0-.056-.017-.103-.048-.142-.032-.04-.073-.06-.122-.06h-.253v.476h.254c.06 0 .103-.018.13-.05.025-.034.04-.084.04-.157"/>
  </g>
</svg>
