<svg xmlns="http://www.w3.org/2000/svg" width="90" height="99.333" viewBox="0 0 90 99.333">
  <g fill="#FFF">
    <path d="M62.69 53.61c-1.687 0-2.17 2.057-2.208 2.057h4.32c-.242-1-.82-2.057-2.113-2.057zM41.958 53.61c-1.684 0-2.168 2.057-2.207 2.057h4.323c-.243-1-.825-2.057-2.115-2.057z"/>
    <path d="M9.667 7.667v85h72v-85h-72zm53.1 44.23c3.29 0 4.88 2.77 4.69 5.77h-6.976c.08 2 .9 2.35 2.38 2.35 1.062 0 1.92-.35 2.094-1.35h2.336c-.748 2-2.336 3.322-4.523 3.322-3.05 0-4.94-2.05-4.94-5.04 0-2.898 2.003-5.054 4.94-5.054zm-11.1-.23h1v-2h3v2h2v2h-2v5.022c0 .895.25 1.12 1.148 1.12.28 0 .852-.018.852-.074v2.074c0 .075-1.23.095-1.753.095-1.625 0-3.247-.375-3.247-2.3v-5.938h-1v-2zm-4-2h3v12h-3v-12zm-5.628 2.23c3.286 0 4.876 2.77 4.687 5.77h-6.975c.078 2 .896 2.35 2.38 2.35 1.06 0 1.92-.35 2.095-1.35h2.334c-.745 2-2.333 3.322-4.52 3.322-3.05 0-4.94-2.05-4.94-5.04-.003-2.898 2-5.054 4.94-5.054zm-21.84 5.65c-1.532-.337-3.065-.88-3.065-2.578 0-2.47 2.13-3.247 4.21-3.247 2.112 0 4.054.944 4.26 2.944H23.08c-.074-1-.855-1.168-1.812-1.168-.6 0-1.48.182-1.48.966 0 .955 1.497 1.12 3.01 1.477 1.556.353 3.07.933 3.07 2.73 0 2.54-2.208 3.382-4.413 3.382-2.246 0-4.432-.388-4.545-3.388h2.52c.022 1 .993 1.618 2.044 1.618.768 0 1.74-.302 1.74-1.237 0-.805-1.105-1.088-3.013-1.5zm10.85 25.84c-1.314.94-3.03 1.28-4.766 1.28h-9.618v-20h9.426c1.7 0 3.38.36 4.668 1.28 1.29.915 2.156 2.37 2.148 4.332.016 1.77-.682 3.283-2.01 4.226 1.547.938 2.363 2.543 2.344 4.478.01 2-.873 3.467-2.192 4.403zm.796-29.43c-1.443 0-2.18.804-2.18 2.77v4.94h-2v-12h2v4h-.006c.674-1 2.155-1.705 3.147-1.705 2.826 0 3.86 1.49 3.86 3.884v5.82h-3V56.33c0-1.587-.59-2.373-1.82-2.373zM45.533 85.4c-5.912 0-10.705-4.794-10.705-10.706S39.62 63.99 45.533 63.99s10.705 4.792 10.705 10.704S51.445 85.4 45.533 85.4zm23.045-.733l-3.95-6.256-4.026 6.257h-5.94l7.073-10.455-6.533-9.545h6.078l3.52 5.73 3.645-5.73h5.81l-6.51 9.568 7.044 10.432h-6.212zm6.09-30.24c0-.06-.355-.096-.67-.096-1.946 0-2.33 1.403-2.33 3.107v4.23h-3v-10h3v2h-.55c.49-1 1.738-1.93 3.027-1.93.19 0 .522.162.522.217v2.472z"/>
  </g>
  <path fill="#FFF" d="M45.957 68.764c.11.01.215.017.324.023v.01l.11.006v.01c.145.025.303.038.434.084.273.038.494.12.744.208.25.068.46.203.672.303.123.035.217.112.334.17.926.54 1.762 1.434 2.244 2.376 0 .073.053.125.086.186-.002.05-.02.094.012.094.018.02.008.046.01.07h-.06c.005-.02-.01-.038-.032-.03-.03-.014-.03.02-.045.03-.01.04.028.043.044.062.1-.028.12.01.186.056.05.06.078.15.094.247.01.012.04.037.03.076-.056.007-.046-.04-.04-.077-.09-.01-.025-.136-.115-.133-.005-.02.01-.055-.024-.048l-.094-.023-.006.01c-.045.058.016.09.006.154.03.02.05.052.04.1-.005.01-.013.006-.022.01.027-.09-.086-.028-.07-.103-.107-.048-.104-.19-.217-.225.012-.03-.02-.023-.02-.046h-.026c-.03-.09-.064-.174-.14-.23-.003-.065-.05-.095-.077-.142.016-.06-.027-.07-.02-.122-.052.013-.046-.09-.08-.032-.07.013-.093-.062-.145-.078.006-.07-.094-.034-.078-.108.006.003.016-.007.016-.014-.027-.054-.086-.086-.156-.094v-.066c.04.01.07.05.12.032.046.04.114.058.165.093.088-.016.053.088.12.084.04.02.038-.04.06-.063v-.054c.03.003.01-.03.016-.045-.002-.094-.12-.07-.146-.14-.03.004-.035.02-.07.014-.01-.038-.04-.044-.078-.044.004-.01-.006-.02-.016-.018h-.023c-.012.026-.006.062-.006.094-.114.045-.09-.074-.17-.076-.034-.088-.155-.078-.165-.188-.088.014-.113-.06-.21-.045-.024-.086-.16-.022-.177-.11-.037 0-.02.033-.037.056.017.023.028.053.038.094l.023.046c-.02 0-.038-.006-.032-.04-.04-.016-.062.017-.092.04v.016c-.043.007-.016-.04-.045-.045-.02-.016-.026-.047-.06-.04.017-.087-.087-.075-.093-.146-.05-.003-.125-.032-.14.022.015.055.032.12.1.122.085.016.056.135.132.158-.013.028.022.02.022.044.045-.02.006.042.04.04.065.02.044.105.093.138.04.055.105.07.12.142.052-.01.028.055.07.055.015-.026.007-.058.01-.088.036.004.052.026.08.04.03.02-.015.12.06.108.035.062.045.167.137.17.008.03-.012.074.018.084-.006.05-.064.12 0 .156.07.07.146.13.164.237.025.022-.03.123.05.094.08.03-.013.088.02.14-.01 0-.02.01-.02.016.007.05.054.06.08.103.034.003.024-.038.063-.025.05.068.02.158.082.218-.017.06.07.046.038.117-.02.016-.016.083-.06.055-.01-.02-.015-.026-.034-.032-.074 0-.03.074-.045.126-.03.006-.01.044-.017.066.01.017.033.007.05.01v.094h-.01c.042.125-.13.125-.046.238l-.016.064.022.076c-.04-.006-.055-.032-.04-.076-.044-.05-.046-.143-.138-.133-.016.036-.123-.016-.086.068.016.028.062.028.05.07-.036-.01-.05.017-.065.033.004.032-.01.086.03.09.01.055-.01.122.02.157-.024-.01-.04.01-.034.03.028.025.01.082.015.125h-.006c-.026.03.015.066-.01.1.048-.008.036.058.085.038-.008.02-.018.064.008.07.006.014.02.004.03.007v.048c-.02.026-.024.062-.054.077-.08.084.067.074.077.145-.02.007-.045.02-.055.048.027.01.055.01.06.04-.02.006-.073-.018-.06.032.006.044.066.03.086.066 0 .036-.047.03-.064.04-.05-.037-.05-.123-.105-.156-.003.046.038.084.015.148-.006.045.025.06.04.084.05 0 .046.055.083.077.012.073.064.124.076.2.014.005.025-.002.023-.015-.006-.02.016-.017.025-.022-.004.052-.03.096.006.154.045.038-.016.074-.02.125-.02-.132-.062-.254-.134-.34-.076-.033-.03-.16-.125-.18l-.007-.085c-.014-.02-.004-.067-.04-.07-.032.02-.065.024-.09.054.013.04.03.08.042.117-.006-.003-.008.004-.012.01.006.026.02.036.012.067-.04.022.02.03.01.064.06-.003.047.064.068.1-.006.03.01.058.03.07.07-.03.06.052.11.045v.046h-.06c-.032-.052-.065.038-.093-.014-.043.016-.078.032-.133.038-.043.007-.06-.052-.088-.01v.023h.087c.016.035.06.067.066.108-.006.035-.047.062-.02.11-.036.038-.073-.05-.085.02-.004.014.012.022.006.033-.057-.028-.066.043-.076.077-.014.004-.006.02-.006.03h-.033c-.003-.026.005-.056-.007-.078h-.016c-.018.022-.008.052-.01.077-.078-.01-.04.084-.1.093h-.033c-.006.046-.006.09-.045.11-.03-.008-.085.02-.087-.024v-.053c.02.002.016-.02.016-.033.01-.02-.01-.038-.03-.028h-.025l-.006.105c-.007 0-.01.003-.017.008-.008.014.01.03.02.023h.026c.003.058-.013.132.013.17h-.03c0-.02-.02-.016-.03-.016-.064-.006-.04.084-.102.078-.052.024.01.06-.005.102-.074 0-.11-.03-.186-.03l-.01.043v-.044c.01-.053-.04-.053-.024-.1.074-.018.193.037.22-.05v-.01h.02c.027-.064-.016-.106-.02-.162-.103-.028-.165-.095-.26-.13l-.067.006c0-.007 0-.017-.01-.022h-.02c.02-.05-.037-.052-.033-.084-.016-.02-.055.004-.06-.025l-.013-.045c.018-.004.043.006.04-.017.017-.028-.022-.02-.022-.044-.01-.004-.027 0-.023.014v.016c-.063-.022-.097.048-.165.016-.012.007-.004.022-.006.032h-.034c.004-.01-.002-.012-.006-.016-.037.02-.098.016-.115.062h-.05c.005-.007 0-.01-.005-.017-.037.02-.03.09-.107.087-.023.038-.062.042-.068.07.012.042-.023.052-.033.077-.06.042-.197.025-.17.155-.086.03-.135.103-.225.138.016.006.035-.004.047 0-.002.025-.016.037-.047.037-.06 0-.13.03-.178.033-.04.046-.15.007-.155.084-.01.025-.045.035-.03.077-.01.004-.026-.006-.034.01.005.007 0 .017.01.022h.02c.017.05-.093.033-.02.062.02.062-.073.077-.015.11-.006.058-.13.01-.084.1.017.057.095.03.146.037.043-.04.133 0 .148-.075h.03c-.026.074-.07.14-.083.218-.03.05-.07.084-.03.155.004.01.02.073-.016.067-.068.016-.064-.017-.088-.022-.023.022-.086.013-.082.07l.055.046-.034.046c.03-.006.06-.01.045-.037.015-.07.085-.05.105-.09.02.02-.002.037-.01.065.025.016.07-.007.086.023.005-.113.18.02.194-.11l.018-.006c.03-.07.06-.094.06-.148.032-.013.06-.038.1-.032l.017-.067h.01c.056.014.03-.055.077-.065-.06-.024-.023-.117-.033-.176.025-.045.074-.077.078-.138.012-.056.102-.02.098-.077.066-.053.18-.078.18-.19.07-.046.074.06.133 0l.055.024c-.04.073-.105.138-.18.177-.05.042-.084.1-.068.187-.012.02-.043.02-.03.056v.022c-.022-.007-.04.01-.034.032 0 .052.064.032.064.082.06.007.123-.003.178-.022.04.04.09-.003.12-.022.044.052.103.016.095.062-.002.016-.055 0-.037.038h-.172c-.025-.02-.066.01-.115 0-.036.01-.07.042-.056.094h-.006c.018.025-.043.096.02.093v.032c-.01-.004-.015.01-.015.022-.02.048-.03.123-.094.133.015-.052-.02-.09-.03-.126-.078.013-.11.093-.14.154.015.052-.02.066-.03.103-.03-.012-.078-.012-.107 0l.016.04c-.034.003-.063.055-.097.016-.006-.05-.04-.073-.1-.064-.04.04-.092.055-.162.05.003-.01-.007-.02-.015-.017-.014 0-.033-.004-.03.016.01.02-.015.017-.022.023.01-.046-.05-.062-.043-.11-.04-.054-.197.088-.158-.045-.02-.047-.037-.086 0-.093l-.008-.055c.05.02.014-.045.045-.045.032.003.044-.016.06-.032l-.053-.07-.04.032c-.065-.008-.052.062-.077.093.018.067-.023.094-.03.147h-.03c.004-.01-.004-.013-.008-.015-.027-.008-.02.024-.053.015v-.038c-.067.002-.09-.038-.155-.025-.098 0-.09.058-.143.07v.022c-.018-.007-.04.01-.03.032v.023c-.02-.015-.056-.015-.075 0v.014c-.05-.058-.094.014-.158 0-.073.02-.146.08-.237.07-.027.027-.068.01-.104.014-.02-.022-.028-.077-.024-.105-.09-.013-.035.168-.115.093-.02-.02-.063-.022-.044-.07-.055 0-.068-.103-.11-.032-.04.042.007.08.024.115.033-.01.03.037.037.054-.03.008-.008.048-.016.07-.015-.003-.013.02-.013.033-.006.038.078.07.014.105-.06.094-.177.12-.253.193.02-.116-.135-.032-.125-.145-.033-.01-.05-.045-.1-.032-.004-.098-.115-.098-.14-.178-.015-.064-.095.027-.093-.048l-.056-.022c-.03.048.03.055.008.11-.088.028-.084.125-.172.153-.047.022-.086.048-.145.045-.016.017-.006.042-.01.064-.04.003-.035.06-.082.062l-.023.055c.06.033.113.076.162.13.02.094-.072.11-.033.2-.017.054-.065-.007-.1.022-.206.122-.386-.1-.573.016-.016.097-.143.003-.193.055-.084-.025-.176-.052-.285-.045-.02-.044-.065-.042-.095-.064-.068-.02-.123.112-.154.01-.14-.058-.192.08-.34.04v-.01c-.08.015-.15-.065-.202.01.047.047-.027.065-.018.12-.066-.01-.053.058-.098.078-.07.035-.12.083-.227.064.004-.01-.006-.02-.016-.017-.042 0-.04.043-.062.07v.038H42.3c0-.016.008-.035-.006-.05l-.07.04c.006.077.05.132.07.192-.033.065.055.062.04.12.01.016.044.02.03.05-.016.02-.03.063-.05.078.028.058.007.154.08.17.02.06.034.12.093.142.012.078.094.093.13.154.056.01.095.045.165.033.08.037.13.106.215.138-.012.028.023.023.023.045.045-.02.01.04.04.04.06.047.124.102.218.102.03.016.06.03.092.045.047-.003.033.07.094.048.035.013.068.035.107.038.083.06.208.068.28.14-.014.055.02.096.06.1.046-.017.036.05.087.03.047.018.094.033.14.057h.038c.033 0 .047.025.057.06l-.062-.015-.033-.008c-.064.004-.13-.012-.176-.037-.45-.107-.88-.3-1.253-.506-1.094-.55-2.068-1.62-2.557-2.706l-.03-.12c.038 0 .042.03.063.05-.023.073.057.07.06.122.036.01.042.08.077.038-.01-.174-.12-.265-.125-.44-.05-.026-.025-.122-.076-.148-.054-.116-.083-.272-.14-.386.04-.138-.018-.257-.023-.386.018-.073-.066-.077-.047-.157h-.023l.01-.045c-.02-.006-.045.004-.064 0-.006-.044.04-.03.07-.03.008-.068-.002-.143-.016-.194.03.005.05.022.05.05.044.028.02-.04.044-.05.03-.038.01-.107.017-.16h.006l.01-.38c-.062-.04-.01-.183-.05-.247-.013-.076.1-.115.024-.18.006-.038.05-.045.055-.083.03-.074.01-.18.016-.273.03-.007.01-.045.018-.067.018-.004.03.013.055.006l.017-.054c.01.01.03.01.045.01.012-.01.006-.027.006-.04h-.05c-.02-.073.056-.118.06-.202-.01-.045-.004-.094-.016-.132.004-.03-.035-.038-.02-.076h.02c.006-.056.012-.11.055-.132-.02-.036-.04-.062-.033-.116.014.004.02-.013.016-.023.018-.062.027-.144.078-.18 0-.012.004-.03-.016-.027h-.023c.042-.055-.005-.09 0-.154l-.056.005c-.004-.035.004-.07.023-.1l.102-.01c0 .01-.003.02.007.023.025-.004.045-.014.04-.046-.01-.083-.14-.025-.15-.108.056.016.075-.02.087-.055-.016-.033.033-.027.016-.063-.016-.014-.04-.004-.06-.006.034-.096-.103-.125.005-.17.045-.038.04-.115.086-.155.034.005-.003-.05.038-.03.025-.068-.014-.124-.006-.188h.006l.01-.06c-.045.03-.105.053-.11.113.04.026.056.078.05.126-.03.074-.084.136-.143.183-.012.02-.006.064-.027.08-.037 0-.068.023-.088.046l-.006-.07c.006.003.016-.008.016-.017l-.025-.116c.07-.248.195-.42.303-.645.656-1.177 1.822-2.135 3.045-2.603.057.014.076-.024.12-.044l.28-.077c.04-.044.135-.006.17-.062.113-.025.238-.04.342-.077.145-.037.312-.04.455-.07.357-.07.775-.026 1.162-.04v.007z" opacity=".5"/>
  <path fill="#FFF" d="M48.056 70.204c-.033.046-.082.042-.094.017.002-.045.08-.054.094-.016zM43.988 71.14c-.006 0-.016.01-.012.016-.016.032.02.032.03.05-.04.042.06.096-.01.137-.026.048-.026.112-.1.116-.06-.02-.034.057-.062.085-.092.036-.246-.022-.248.107-.064 0 .016.08-.055.064.007.035-.044.038-.017.077-.07-.01-.08.077-.17.045.006-.02.014-.04.01-.062.03-.007.055-.007.062-.038-.037-.013-.05.02-.094.007-.026-.056-.124-.018-.13-.094.04-.02.12-.013.115-.083.002-.035-.05-.025-.03-.07.052-.017.052.032.093.032.008.098.082.002.14.02.013-.038.106-.015.07-.083h-.026c0-.014.004-.036-.012-.032h-.027c.04-.052-.03-.038-.043-.06h-.055c-.03-.05-.04.02-.086 0-.058.008-.09-.017-.116-.04-.03-.055.053-.055.045-.103.063.014.16-.026.192.032.084-.008.107.07.182.054v-.02h.045c.005.043.02.085.015.137-.023.028-.084.038-.055.094.01 0 .02 0 .02-.01-.005-.023.026-.02.04-.023.03-.02.04-.06.05-.094-.024-.067.08-.05.054-.138h.03c-.005.006 0 .01.01.016h.01l.01-.108c.032-.004-.003-.058.03-.06.027-.013.123-.05.094.028zM47.166 71.413c-.023.045-.023.058-.05.055-.003-.026 0-.06.05-.055zM43.115 71.605c-.027.053.03.07.023.115.047.05.002.127.016.194-.094-.01-.068-.13-.14-.17-.026-.09.036-.14.1-.14zM41.607 71.706c0 .032.004.06-.025.07h-.04c0-.03.03-.064.065-.07zM45.933 71.798l-.01-.044.034.006M45.87 71.86l-.028.016c.015-.042.02-.035.03-.017zM43.26 71.94c-.01.038-.044.058-.03.115-.035.007.006.032 0 .052-.037.02.018.106-.045.087.002-.016-.002-.042-.02-.032h-.026c.017-.048-.034-.048-.015-.1.006-.03.068-.032.045-.084.006 0 .014-.007.016-.01-.04-.04.01-.083.016-.12.04.006.04.06.06.092zM42.326 72.062c.04.022.043.045.014.045l-.014-.045zM47.45 72.667c.026-.013.046-.008.046.022l-.045-.008c-.065 0-.05-.032-.054-.048.03-.003.025.03.055.033zM47.527 72.696l.084.01c-.007.06.08.006.09.038 0 .028-.04.032-.024.07-.018.026-.025.068-.055.084-.022-.007-.05-.02-.036-.055.006.002.016-.007.014-.016.002-.014 0-.04-.023-.03-.023.007-.023-.01-.03-.02l.04-.017c-.01-.032-.05-.03-.058-.064zM47.69 73.092h-.007c-.014.025-.008.063-.008.093-.05-.003-.096.01-.13.016-.01-.044.04-.034.044-.07.02.01.044-.01.036-.028v-.025c.047.02.018-.045.062-.022v.037zM47.28 74.493h-.048c0-.04.014-.062.04-.062-.015.028.028.014.01.063zM50.058 74.593l.01.05c.016.054.05.114.105.146 0 .03-.04.03-.066.02-.023-.025-.02-.073-.064-.076l.01-.088-.05-.028c-.002-.038.036-.02.055-.025zM50.052 75.47c.01.014.016.068-.016.068-.008.01-.018.006-.023.01-.012-.042.02-.052.04-.077zM47.535 76.862c.01.106-.125.04-.148.11-.035 0-.016-.036-.02-.055.03.012.03-.023.046-.033v-.022c.047.027.087-.063.122 0zM50.058 73.782l.033.045c-.026 0-.038-.012-.032-.045zM47.28 77.155c-.02-.003.003-.05-.032-.04l.033.04zM47.14 77c.06.007.086.017.102 0 .01-.026-.025-.013-.025-.038l-.077.04zM45.933 71.798l-.037.062c-.014-.036.016-.042.037-.062zM49.546 78.056c.01.038-.008.06-.045.06-.005.03.028.024.02.056-.028.007-.073-.013-.08.016-.01.03.017.033.04.03h.02v.054c.07.022.144-.017.19.022.005.03-.02.032-.028.05-.016.002-.037-.008-.05.005v.025c-.036-.014-.05.013-.065.028-.047.103.11.036.05.132-.01.052-.046.087-.034.154-.018.002-.03-.014-.053-.007-.043.063-.094.13-.193.122-.06.006-.006-.084-.045-.1.004-.068.05-.104.076-.154 0-.054-.08-.032-.064-.092-.016-.036-.037-.065-.027-.116.035-.094.105-.158.17-.23.047-.012.065-.06.12-.056zM46.15 78.232l.008-.008.232-.01c.02.03.066.01.094.033.016.094-.004.13.006.216h.023c.037.057.025.142.092.17.057.05.016.12.094.142v.045c-.028-.014-.038.02-.032.04v.02c-.06-.006-.01.065-.068.07.03.07.05-.024.084-.015v-.023c.05.014.064-.02.094-.032.018-.044-.03-.044-.018-.09.04-.005.05-.022.094-.016.02.02.025.05.055.062.013-.02.005-.045.01-.07-.07.006-.026-.1-.095-.084.012-.035-.03-.033-.016-.07.01.006.022-.007.026-.018-.025-.02-.037-.05-.076-.06-.01-.04-.04-.063-.027-.116h.006c.015-.022.007-.053.01-.077.056 0 .134-.013.13.062h.023c-.023.052.03.04.045.062-.023.093.102.047.1.125.03.002.035.05.07.06v.033c-.01.002-.025-.007-.03.006v.02c-.077-.016-.046.065-.08.095.06.034.02.147.04.202h.025v.045h-.037c-.018.03-.01.063-.012.093-.01.004-.025-.006-.03.01-.003.01 0 .026.015.022.01-.003.026.008.032-.007v-.015c.03.02.062.038.1.054.03-.036-.03-.025-.008-.065.02-.003.06.014.06-.016v-.023c.054.046.054-.052.112-.006.04-.035-.008-.08-.016-.115-.03-.03-.01-.087-.018-.132.064-.014.06.074.125.076h.14l-.01.055c-.01-.01-.03-.01-.046-.01-.01.007-.005.016-.005.025l.043.014-.037.054c-.015-.003-.034-.028-.054-.005.027.005.006.082.055.053.056-.013.022.055.065.062.06.036.105.11.19.07 0-.038.063-.002.048-.054.102-.038.127.073.23.022.045-.03.084.03.14.006.02.08-.075.055-.075.125-.02.023-.02.072-.064.072v.02c-.05 0-.02.07-.076.067.016.042-.04.017-.045.048-.06-.003-.096.04-.17.023-.02-.036-.068.004-.096 0h-.03c-.026-.032-.052.013-.09.01-.03.003-.042.028-.08.028-.07.035-.095-.032-.173-.022-.018-.028-.068-.003-.082-.045-.03.002-.068.055-.1.012-.01-.038-.06-.048-.094-.055-.104-.08-.254-.01-.373 0-.02.033-.012.095-.076.08v.023h-.03v-.01c-.025-.007-.06.004-.08-.022-.027-.067-.127-.07-.184-.1-.064-.026.033-.125-.064-.116-.025-.03-.035-.074-.094-.063-.006-.034-.066.002-.076-.03-.037-.042-.05-.105-.105-.126V79.1c.062.01.088-.027.154-.023-.005-.035-.054-.048-.048-.087.04-.006.104.02.11-.02-.02-.02-.067.005-.08-.023v-.056c-.118.037-.218-.02-.3-.07-.05.01-.06-.047-.11-.044-.155-.1-.368-.128-.56-.154-.013-.042-.07-.05-.095-.056-.033-.01-.123-.006-.13-.063h-.024c-.035-.032-.025-.055-.04-.067-.04.013-.017-.045-.046-.048l-.008-.067c.05.02.142-.016.17.03.054.048.15.05.216.07.045-.032.12-.07.19-.045.02-.014.03-.036.028-.065.096-.032.205-.07.324-.076v.01c.055.006.145.02.184-.018.006-.034.04-.047.047-.085.127-.036.186.06.27.092zM48.255 78.464c-.01.02-.016.063.01.07.074.025.074-.084.154-.076.06-.01.124-.056.17.006-.02.05.044.015.044.047.025.01.035.047.076.03.023.04.078.052.062.11-.037.01-.068.04-.076.076-.098-.006-.14.07-.232.07v.017c-.05-.01-.09-.04-.123-.054h-.03c-.004-.01.006-.026-.008-.034-.027.008-.035.023-.07.017 0-.028-.03-.01-.05-.017-.097.014-.163.06-.245.104-.04-.017-.088 0-.1-.05.02.006.025-.03.02-.054.038-.002 0-.058.034-.06.08-.114.187-.232.333-.265l.032.064zM49.24 79.315c-.04.064-.123.118-.195.154-.03-.14.082-.146.14-.2-.008.045.04.017.055.045zM47.974 80.083c-.09.053-.127.09-.215.106-.017-.113-.097-.2-.024-.26 0-.02-.033-.06 0-.07v-.1c.035.014.088-.04.107.012-.008.06.07.11.01.164.014.002.03-.007.04.006.024.03.015.094.005.132l.076.01z"/>
  <path fill="#FFF" d="M44.642 69.19c.035.05.092-.045.113.03.053-.03.14-.01.21-.017v.01c.054.026.17-.032.17.063.15-.03.136.137.25.153.06.024.124.072.17.107.108-.003.16.098.253.07h.088v.008c.06.02.137-.01.13.077.065.026.114.05.194.038v.01c.03.003.064-.007.066.04.043-.04.09.002.12.02l.028.084c.02-.038.125.022.115-.05-.048.002-.022-.04-.052-.05-.016-.028-.04-.044-.043-.084.043-.016.043.026.072.023-.008.047.06.003.06.038l.017.062.03.05c-.005.012-.03.042.026.012h.07l-.01.056c.033.042.082-.006.133.01.01.08.125.017.125.1.1.042.248 0 .287.116.03-.006.035-.023.07-.017-.008.062.076.01.09.048.07-.01.205-.03.24.044.018.008.03-.006.023-.02-.02-.047.043-.01.04-.04.044-.013.056-.062.114-.048.02.038.025.083.055.108.066-.044.004-.093.025-.17.023-.067.146.006.17-.06.05-.03.104-.01.172-.017.01.058-.082.048-.104.076-.014.02-.055.02-.04.063l-.036.064c.13-.023.166.108.268.062.004.046.03.092.01.124.025-.026.076-.023.102 0 .01.02-.02.076.02.076l.09.023v-.06c.024.02.083.018.075.065l-.056.01.006.052c-.02.028-.012.07-.045.093v.025c-.057.033-.068-.1-.092-.01-.004.05.06.035.06.07.052 0 .077.027.12.04-.01.055.043.087.045.138.014 0 .008.022.008.032h-.046c-.03-.007-.06-.058-.094-.017.02.034.02.078.062.095.045-.017.04.026.064.038-.023.03-.016.09-.082.078.004.01 0 .02.012.022h.014c.018.068-.086-.002-.07.064h-.03c-.017-.073-.073.007-.124-.01-.04.003.018.084-.05.056-.01-.06-.06-.068-.097-.11-.027.013-.023-.02-.04-.02l-.108-.008c.004-.013-.01-.02-.02-.016h-.024c-.012-.042-.068-.05-.11-.056-.046.01-.075-.05-.114-.006h-.07v-.025c-.04.018-.1-.028-.134.01-.014.01-.004.03-.008.046h-.043c-.043-.052-.03.05-.088.016l-.04.017h.04c.018.015.006.04.01.06h-.064l.01-.055c-.016-.013-.035-.003-.047-.006-.014.02-.004.053-.008.082-.055-.022-.102-.112-.17-.045-.02.032-.016.094-.086.07-.064.014-.117.036-.193.038v.023h-.085c.01-.032.01-.076 0-.11-.02.023-.06.02-.055.063-.043-.013-.05.023-.076.033v.032H46.7c-.013-.035-.05 0-.07 0 .034.077-.09.096-.013.153.004-.035.02-.042.02-.076.038-.007.054-.023.097-.016.018.048-.04.012-.04.044-.067.004-.03.097-.093.094l-.077-.03c-.03.06-.102.06-.115.123-.02.02-.055.025-.064.055.018.014.043.007.064.007l-.01.054c.018.015.035.006.05.01.02-.022.015-.04.054-.033.014.037.064.053.045.11h-.03v-.01c-.044-.02-.11.01-.14-.022l.006-.054c-.035-.036-.045.024-.082.015-.007.038-.058.076-.017.116.01-.004.025.006.033-.007v-.02c.037-.004.06.047.105.02.065-.015.155-.01.18.056.038.045.14.055.155.132.03 0 .082-.03.082.013.072.02.12.063.143.127-.04.06-.045.105-.11.1-.085-.032-.015-.212-.13-.226-.11-.03-.143.03-.217.01.008-.02-.016-.024-.02-.037-.022.003-.044.028-.065.006-.004-.026.006-.056-.006-.078-.037-.007-.023.032-.033.048h-.038v-.025c-.035-.01-.088-.01-.123 0-.01.017.005.03.02.025.03.004.035.052.072.06v.03c-.04-.003-.09.017-.104-.022.01-.013.006-.028.01-.044-.03-.04-.094-.02-.14-.023 0-.008-.01-.018-.02-.015-.02-.01-.032.01-.026.03-.01.06.08.037.06.102.032.022.065.054.062.106.05.038.074-.04.11.01h.048c0 .038-.043.058-.05.092h-.062c-.004-.01.006-.024-.01-.03-.03-.004-.023.024-.053.016-.002-.01.008-.025-.008-.03-.046.027-.124-.015-.194 0-.03-.033-.072-.072-.072-.133.047-.036.08.04.104-.017-.03-.01-.076-.022-.05-.068.02-.06-.056-.01-.06-.047l-.055-.068c-.04-.034-.115-.025-.084-.114 0-.036.058-.017.044-.064.01 0 .025.005.033-.008-.008-.026-.018-.045-.07-.07-.043-.004-.064.034-.088 0v-.03c.052.014.026-.04.048-.054-.045-.01-.072-.01-.125-.01.012-.05-.016-.064-.045-.077-.092-.096-.188-.19-.326-.215-.016.017-.04.025-.03.06-.083.008-.175-.018-.21.063.04.013.04.025 0 .04-.04.04-.064.062-.11.054-.108.064-.247.11-.298.24-.01.032-.057.03-.08.06-.035-.002-.045.04-.09.024-.033-.006-.05-.048-.102-.023-.006.05-.014.046-.03.018-.07.007-.093.07-.163.07 0-.01-.005-.012-.01-.015-.09.003.01.102-.054.132.084-.04.1.09.178.022h.055v.005c.028.016.065.006.1.01.02-.022.02-.038.052-.032.053.01.027.097.094.094.027.03.004.12.088.093v.07c.012-.013.03-.003.04-.016v-.022h.026c.018.042.027-.02.057 0 .06.006.11-.01.13-.048.032-.017.056-.055.11-.03.035.053.09.084.16.09.033-.015.033-.073.07-.027-.002.013.014.016.023.016.08.016.055.147.146.132 0-.01.004-.02-.006-.025h-.016v-.03c.02-.006.06.014.055-.024v-.022c.028.006.07-.014.077.022.002.045-.027.07-.05.103-.028.002-.054.005-.06.038.007.013.02.003.032.005l.005.062c-.018 0-.04.006-.055-.007-.027.07-.133.048-.14.132-.015-.003-.04 0-.03.022v.023h-.14c0-.01.007-.027-.007-.03-.062-.003-.066.074-.146.046-.002-.01.008-.025-.01-.028-.006 0-.016-.004-.02.006.005.023-.026.02-.04.023-.04 0-.023.036-.04.055l.01.04c-.02.002-.04-.007-.056.01.022.035.02.092.063.114.092.022.193.01.248.066v.032c-.02 0-.03-.012-.054-.006.008.045-.04.032-.045.067-.09-.033-.09.102-.187.07-.014.006-.006.025-.008.038-.02-.003-.045-.017-.06 0v.022c-.046.003-.05-.052-.1-.045.015.052-.028.094-.056.122h-.05c.004-.007-.006-.017-.014-.017-.04-.002-.045.032-.064.05.05.038-.018.057-.02.092-.046.02-.05.09-.08.123l-.044-.013c-.06.03-.03.154-.14.122-.046.022-.062.064-.155.022l-.006.064c-.053-.037-.125-.025-.164-.072-.043.035.055.082-.02.078 0-.013 0-.03-.02-.03-.038.002-.054.034-.044.075 0 .05.06.113.005.143l-.045-.017c-.016.007-.006.026-.01.04l-.13-.018c-.02-.038-.04-.08-.085-.084v-.03c.023-.008.076.016.06-.033v-.022c.08-.03-.04-.07 0-.13-.01-.037-.036-.098-.005-.14h.05c.01.03.075.004.05.055.06-.013.096.048.162.023.062.012.113.03.178.07-.002-.05-.047-.08-.03-.142-.175-.063-.05-.348-.106-.495.04-.043-.018-.088-.03-.117h-.05c.002-.014-.012-.02-.023-.016h-.02c-.033-.04.006-.14-.078-.122.01-.08-.105-.032-.11-.104-.02-.018-.04.008-.06.012.007.112.18.06.147.2.06.05.083.144.06.233-.022.016-.054.03-.087.03.012-.053-.074-.043-.045-.107.006 0 .014-.004.016-.01 0-.01 0-.02-.01-.022-.04.003-.037.052-.06.077-.032.01-.028-.03-.062-.03l-.033.068c.028.014.048.014.038.056l-.055.007c0 .055-.035.077-.02.142-.017-.017-.056.003-.063-.026v-.03c.014.004.04-.002.033-.022l.007-.068c-.06-.004-.045.055-.07.077-.066.06.064.06.01.14.055.015.105.03.146.063-.002.042-.057.017-.086.022l-.006-.006c-.04.02.014.1-.047.093-.02-.04-.027-.094-.025-.155-.098 0-.088-.106-.13-.164.01-.044-.01-.08-.046-.082-.016-.042-.033-.08-.05-.118.013 0 .026.006.034-.008v-.023c.094-.032.084.052.123.084l.01.048c.043-.035.035-.07.037-.102.01 0 .025.006.03-.008-.048-.023-.02-.108-.093-.1-.014-.055-.064-.077-.053-.14-.023-.02.01-.027.006-.056-.03-.007-.047.003-.06-.03.013-.045-.015-.098-.065-.098h-.06c-.03-.046-.05.015-.095.006.03-.094-.05-.116-.03-.202-.01-.04-.054-.064-.09-.056-.028-.015-.056-.022-.08-.045h-.024l.01-.038c-.078.017-.078-.06-.154-.038v-.046c.047-.01.125.02.145-.024l.064.024v-.054h-.063c-.045.017-.064-.09-.084-.01h-.033v-.03c-.018 0-.074-.005-.076.03v.048h-.06c-.03.004-.024.046-.062.03-.014-.04.018-.04.014-.085-.012-.006-.03.004-.047 0-.005-.073-.09-.07-.07-.163-.07-.062 0-.13-.03-.216-.045.02-.006-.04-.04-.038l-.163-.01c-.012.013-.002.03-.006.048-.083-.023-.112.035-.187.04-.03.06-.117.037-.168.076-.02-.014-.053-.006-.078-.006-.035-.098.057-.07.06-.143.046-.025.1-.03.11-.093.07.016.135-.02.186-.03-.002.008.008.018.016.018.03.013.022-.025.044-.025.02-.043.084-.065.11-.116v-.095c.07-.003.097-.063.138-.106.03-.056 0-.155.094-.148-.03-.022-.01-.077-.016-.115.006 0 .012-.004.016-.01 0-.007.004-.017-.006-.023-.025.02-.04.068-.092.055-.004-.11.098-.13.115-.225.07-.014.05-.104.076-.155.015-.003.034.007.044-.007-.03-.022-.01-.08-.016-.118.008.002.018-.007.016-.014.002-.047-.05-.034-.06-.07-.19-.024-.397-.002-.52.1-.104.03-.16.126-.265.155.007.087-.105.064-.087.158-.006-.004-.01.003-.012.006.003.027.02.034.013.068-.03 0-.045.03-.06.046-.013.03.02.036.038.033.04.032.142-.014.1.093-.048.04-.024.128-.077.17-.006.036-.066.046-.045.106-.094.028-.05-.115-.154-.055-.016.017-.04.008-.062.01.006-.037-.037-.047-.053-.06-.01-.02.02-.033 0-.05-.042.005-.026.06-.065.063-.012.022-.002.052-.006.077-.09-.032-.017.08-.073.08l-.006.106c-.02.024-.024.064-.054.077-.01.063-.09.06-.094.125-.04-.003-.146-.02-.176.028-.08-.002-.084.082-.125.12-.034.006.02.103-.054.067.006.063-.06.067-.078.115-.066.07.023.145-.006.24-.047-.02-.016.046-.047.046-.072.026-.027.154-.117.158-.02.058.04.07.04.122-.01-.004-.01.003-.015.01-.01.024.023.022.04.022h.02v.045c-.02.023-.02.046-.03.078-.02.002-.046-.007-.062.01-.003.042.038.012.046.044.033.023.074-.016.094.023-.004.028.014.073-.023.077-.025-.026-.084-.01-.125-.014.006.04-.04.04-.023.084.015.016.042.006.063.01-.025.062.045.09 0 .138.02.02.04.022.03.062-.046.032-.075.07-.062.142-.01.038-.044.058-.032.115.01.016.045.02.033.055-.017-.004-.042 0-.032.02-.037.02.016.11-.043.107.012.063.033.12.037.202-.004.084-.08.13-.06.203h.05c0 .012.006.03-.006.038-.016 0-.035 0-.045-.01l-.015.055c-.023.007-.037-.01-.055-.006-.008.022.012.06-.018.067-.006.094.014.2-.016.274-.006.038-.05.045-.055.083.075.064-.036.104-.022.18.04.064-.014.206.05.248l-.01.38h-.007c-.005.052.015.12-.015.16-.025.01 0 .077-.045.05 0-.03-.02-.046-.05-.05.015.052.024.126.017.193-.03.002-.076-.013-.07.03.02.005.043-.005.064 0l-.01.047h.024c-.02.08.064.084.047.157.007.13.065.248.024.386.057.113.086.27.14.386.05.026.026.122.075.148.003.176.114.267.124.44-.035.042-.04-.028-.076-.038-.004-.052-.084-.05-.06-.123-.022-.02-.026-.047-.065-.047-.035-.04-.055-.105-.078-.155-.066 0 .006-.1-.06-.1-.005-.022.005-.044-.007-.06-.047-.078-.068-.178-.104-.264-.04-.172-.1-.35-.13-.528-.015-.145-.07-.24-.07-.396-.028-.06-.01-.13-.038-.192-.035-.027.03-.032 0-.062.01-.06-.05-.102-.01-.153-.03-.04.004-.126-.03-.164.028-.03.017-.095.01-.133-.01-.14-.02-.315.005-.45-.044-.064.026-.116 0-.2.056-.032-.034-.06.017-.093v-.078c.01.004.012-.002.018-.01-.047-.038.016-.07.004-.114l.01-.107h.007l.025-.187h.006c-.006-.103.05-.208.055-.308.023 0 .014-.026.018-.042.08-.26.142-.523.247-.766-.012-.044.02-.058.03-.083l.038-.064.025.115c0 .01-.01.02-.016.017l.006.07c.02-.02.05-.045.088-.045.02-.016.016-.06.027-.08.06-.048.11-.11.143-.184.006-.048-.01-.1-.05-.126.005-.06.065-.083.11-.114.05-.13.13-.255.217-.363-.012-.046.014-.067.062-.094.033.027.045-.015.068-.022.006-.024.016-.03.03-.047l-.01-.045v-.048c.052.02.017-.042.05-.044.037-.02.13-.018.094-.102v-.023c.048.02.01-.042.044-.046.05-.062.125-.124.14-.214.024-.09.136-.064.155-.157.08-.033.09-.113.17-.147-.01-.11.063-.163.106-.24.055-.026.084-.055.11-.11.083.02.03-.09.108-.083.002-.028.05-.035.06-.07.085-.05.14-.116.226-.154.04-.035.1-.05.115-.11.072-.048.178-.096.264-.077.042-.053.14-.022.177-.077.064.003.09-.06.154-.046.07-.12.255-.08.358-.157.137.052.145-.086.264-.06.02-.065.084-.018.137-.03.046.042.09-.016.12-.032.05.01.082-.012.105-.04-.1-.033-.227.015-.342.034-.035.064-.13.003-.184.044-.067.05-.12-.016-.187.033-.064.024-.11.06-.188.076-.002.013-.03.003-.045.006v-.045c.05.01.062-.025.107-.025.025-.032.096-.022.107-.067.12-.036.266-.022.332-.11.05-.01.084-.044.148-.03v.024c.078.003.16-.007.22-.04.165.007.34-.008.485-.047.114.01.16-.078.294-.046.045-.032.105.004.158.004z"/>
  <path fill="#FFF" d="M47.04 71.336c.017.04-.046.016-.046.045-.05-.01-.04.05-.064.07.025.043.043-.015.078-.008v-.04c.08.033.03-.083.11-.043.003.03.054-.006.054.037l.094.022c-.012-.046.062-.037.03-.085.07-.035.09.077.18.04-.01.07.01.117.038.168.014.01.062.004.06.04-.038.016-.01.11-.085.083-.028-.013-.067-.067-.103-.03-.012.005-.002.022-.006.03-.048-.02-.067-.025-.126-.016v-.06h.012l.006-.054c-.03.02-.055.03-.045.07v.02c-.076-.024-.1.027-.164-.02.025.055-.037.042-.078.055l.033.056c-.064.048-.09-.043-.17-.017-.037-.004-.045-.05-.094-.033-.006.04-.043.05-.078.05l-.076-.027c.004-.052.12-.048.037-.084-.018.022-.09.022-.107 0-.01-.03.047-.062.092-.062h.094c.004.01-.006.026.006.03.062-.02-.014-.045.012-.094.05-.06.062-.157.17-.154.025.042.05-.01.076-.016.03-.003.045.003.06.026zM46.56 72.18c.023.015.045.034.076.02v-.02h.11c.003.034.056-.005.062.03l.084.17.055-.02c.006-.03-.025-.023-.018-.057.013 0 .024.008.032-.01v-.02h.03c.042.01.063.044.118.03.014-.02.045-.024.04-.063h.026c.008.032.05.007.064.032h.012c.04.055.027.062.012.077h-.05l.026-.07c-.016.047-.096-.008-.076.054-.016.044-.125-.025-.094.063h-.01l-.016.145c.03-.025.074-.028.055-.083.07.018.01-.098.085-.063.014.032.004.078.006.116.026.013.05-.006.08.006-.007.08.08.038.114.077.035-.094-.098-.05-.05-.155.005-.028.05-.01.075-.017.003.046.07.036.044.104.117.003.178.077.266.115-.014.08.113.025.076.106h-.03v-.006h-.054c.014.084.17-.017.123.115.04-.017.016.045.047.045.033.05 0 .142 0 .187-.074-.01-.016.12-.11.076-.032.004-.06.05-.038.087.012.017.043.02.03.055-.01.036-.106-.016-.077.062 0 .013-.002.032.018.032.057.006.043-.08.098-.065-.002.022-.008.042-.006.064-.014 0-.03-.004-.03.013.003.012-.01.025.007.032.03-.008.035-.023.068-.018.006.036.06-.004.064.032-.04.12.098.078.094.17-.014.042.03.136-.04.123-.01.03-.02.08.007.094-.05.01-.072-.012-.092-.038.012-.045-.033-.05-.057-.067-.01.032.053.076.012.115.012.013.035.004.053.007 0 .038-.035.038-.04.07.04.004.118-.006.14.03l.008.063c-.06-.013-.07.055-.132.038.023-.093-.092-.05-.145-.064-.045.06-.074.112-.094.187l-.048-.015-.03.103c-.052.007.005-.083-.063-.054-.05.03-.028.115-.056.17l-.04.022c-.024-.028-.015-.045-.028-.055h-.016c-.02.042.004.104-.06.133v.016l-.05.016c-.04-.003-.055-.04-.105-.022-.055.03-.092.062-.11.115-.017.012-.007.035-.01.054-.01 0-.024-.006-.028.006v.022c-.04-.01-.11.026-.115-.038h-.016l.006.048c-.074.036-.217.004-.31-.01.015-.028-.017-.034-.038-.028-.03 0-.027-.046-.06-.048-.054 0-.054-.05-.07-.084.038-.093-.075-.032-.095-.07-.062.01-.106.045-.187.032-.033-.045-.018-.09-.062-.126l.01-.055c-.044-.012-.073-.002-.093-.038l.008-.038c-.014-.014-.035-.008-.055-.008-.014.003-.006.02-.006.028h-.033c0-.016.01-.035-.005-.044-.033.006-.064.054-.094.015-.017.028-.03.077-.085.067l-.055-.03c-.047.1-.084-.038-.133.03h-.012v-.03c-.027-.006-.062 0-.078-.024-.06.016-.104.038-.17.042-.06-.067-.023-.174-.033-.273.004-.032.064.003.047-.045.044-.017.042-.077.063-.116v-.024c.11.02.12-.08.2-.1v-.022c.032-.006.083.02.093-.023.014-.036.125.037.094-.054.04-.02.096-.02.14-.038v-.022c.09.017.126-.055.2-.055.023.026.082.046.078.095.045.04.09-.055.1.02.03-.008.043-.043.088-.03-.006.007.002.013.004.017.03.01.027-.023.027-.046l-.027-.07c-.027.022-.033.058-.053.083-.04.012-.045-.02-.068-.03v-.015c.038-.036.073-.074.083-.126h.033l.004.07.027-.056c.057-.02.03.03.06.065.042-.01.03-.053.03-.082h.047c-.002.01.008.02.018.016.012 0 .03.004.03-.016v-.022c.024.016.073.034.106.016v-.022c.068-.03.197.007.203-.093.052-.01.075-.06.106-.094.043-.07-.008-.16-.012-.232l.045-.008c-.005.014.003.026.015.026.03.003.053-.018.045-.05v-.02c.02-.004.033.013.055.044-.002.032-.025.06 0 .088.025.006.033-.026.04-.04l-.022-.048c.047-.01.047-.067.11-.067 0 .014.03.023.042.007.006.03.014.07.057.07-.016.052.023.06.023.106h.02v.042c.036-.006.09.003.118.022.016-.02-.006-.055.02-.064h.058c-.02-.065-.08-.05-.124-.076-.004-.033.037-.03.02-.068-.015-.016-.04-.006-.06-.01.03-.07-.06-.026-.07-.067-.105-.04-.154-.103-.193-.157-.033-.014-.07-.037-.076-.078l.006-.06c-.03.028-.04.096-.117.07v-.042c-.018-.016-.05-.007-.076-.01-.04-.067.08-.055.016-.105l.01-.055c-.047-.043-.086-.07-.102-.104h-.03v-.006l-.157-.008c.004-.01-.006-.02-.014-.015-.012.003-.025-.007-.03.006 0 .01-.005.02.005.022h.025v.042c.078-.013.156-.004.217.038.057.026.006.064.006.106-.02-.012-.06-.015-.105.01.046 0 .062.03.056.068-.014.017-.045.017-.033.05-.04.03-.043-.033-.086-.04-.078.003-.045.13-.184.106-.014.042-.004.06-.016.055l-.05-.024c0 .04-.056.014-.038.055-.02-.005-.04.01-.028.033v.022c-.016.004-.045-.024-.05.007v.016c-.095.046-.173-.093-.23.023l-.077.033c-.01.044-.045.076-.033.138-.07-.03-.09.026-.145.04-.014.03-.033.067-.07.063.004-.01-.004-.012-.01-.016-.027-.007-.02.025-.05.016-.005-.025.005-.058-.01-.08-.03.003-.03.025-.063.017.018-.017-.002-.055.023-.062.06-.003.01-.115.1-.077.047-.024.074-.044.12-.07-.015-.045.02-.06.028-.093-.074-.02-.123.033-.188.048v.022c-.08-.028-.023.084-.105.056-.057-.014-.07.05-.115.053-.045.062-.074-.03-.143 0 .008-.05.084-.028.088-.085.04-.013.047-.06.094-.077.002-.025-.018-.028-.033-.038-.035.02-.094.025-.094.077-.056-.007-.046.077-.116.048-.006-.046.064-.038.04-.093.048.004.038-.042.054-.06.072-.008.04-.114.115-.12l.094-.013-.008-.038c.013-.004.036.006.044-.01v-.023c.074.04.037-.07.102-.048.037-.064-.078-.133.016-.16V72.3h.03c-.003.015.01.02.024.015.03-.01.03.038.037.056-.027.022-.047.062-.06.094.052.022-.022.1.044.104.04 0 .094-.072.115 0-.002.08-.145.01-.13.114.003.017-.007.04.01.056.01-.03.08-.007.054-.064.03.013.045-.016.06-.03v-.03c.085-.04.146.108.21.016.014-.017.053-.036.078-.017v-.044c.035.005.04.008.045.01.01.004.024 0 .024-.01.004-.05.105 0 .078-.082.023 0 .053.006.076-.007-.06-.034.064-.13-.06-.1-.017-.047.05-.028.044-.077.047.02.012-.044.045-.047.012-.023.035-.055.07-.03l.01-.054.063.007zM47.908 69.957c.023.048-.05.06-.03.115h-.046c-.014-.08-.022-.227.076-.115zM41.38 71.567c.027.1-.05.145-.07.226v.028c-.012.033-.035.06-.037.095-.09.057-.07.196-.178.24v.04c-.02.025-.025.063-.055.076.025.104-.088.106-.07.204l-.023.006-.006-.056h.007c-.002-.082.04-.128.023-.214.035-.032.006-.133.104-.094.037-.02-.004-.103.06-.093.013-.088.075-.14.1-.21.052-.028.022-.128.087-.132.03-.023.017-.082.048-.114l-.033-.07c.03.01.025-.023.025-.04.038.008.052.044.02.11zM43.548 71.605c-.004.043-.023.043-.045.062-.023 0-.045.006-.05-.022.025-.023.047-.05.095-.04zM47.412 71.745c.018.04-.02.066-.03.103.034.022.075-.014.106 0-.006-.03-.02-.036-.014-.07.008-.023.04-.014.076.006v.115h-.076c-.008-.026-.05-.01-.07-.014-.033.042.025.038.037.06.036.033.085.047.077.11-.04.003-.064-.067-.12-.063v-.008c-.03.004-.056-.013-.093-.006.006-.046-.008-.084-.023-.11.105.023.024-.105.07-.13.02 0 .04.007.062.005zM47.597 71.745c.006.028-.008.038-.03.038.01-.038.018-.038.03-.038zM47.753 71.783v.038c-.035.008 0 .06-.03.065-.03.013-.034.1-.09.045-.01.003 0 .022-.013.016-.027-.003-.047-.025-.037-.06.09.02.01-.106.076-.127.03.01.09-.02.093.023zM47.007 71.876v.055c-.01.004-.025-.006-.03.01.017.04.11.01.085.085-.055-.026-.025.06-.084.03-.006-.028-.04-.01-.06-.016-.007-.058-.065-.052-.11-.062.012-.045-.023-.055-.03-.08h-.02v-.028h.05c.027.045.05-.017.094-.01.02-.05.082 0 .105.016zM45.677 71.908c-.01.052.04.048.062.07.032.006.063.023.09.046l-.03.044-.02.01c-.07.017-.07.078-.142.046h-.045c-.064-.01-.03.07-.086.055.004-.03.016-.068.037-.085l.05.013h.044c.016-.01.04.004.04-.022-.005-.067-.11-.052-.108-.122.074.034.066-.046.107-.056zM47.375 72.107c-.035.03-.06-.013-.086-.022 0-.007-.007-.01-.01-.017-.044.014-.038.04-.087.04 0 .044.06.028.078.054l-.017.055c-.02-.02-.072-.016-.076-.06-.047-.024-.066-.046-.066-.102l.067-.01v-.02c.098-.05.12.05.188.06l.01.022zM44.748 72.04l.008.022-.047.006c-.048.004-.046-.006-.046-.013l.045.007c.002-.03.022-.023.038-.023zM47.583 72.046c-.016.05.02.068.043.087h.05v.03c-.056.01-.087-.015-.108-.04-.014-.026-.014-.04-.023-.067.015.006.02-.02.038-.01z"/>
  <path fill="#FFF" d="M47.087 72.172c0 .007-.004.016.008.022.008 0 .018.003.02-.007v-.016c.026 0 .04.014.034.04-.026.028-.085.01-.128.016-.03-.01-.01-.048-.016-.07.04-.03.052.016.08.016zM47.55 72.278c0 .01-.002.02.008.024h.025v.04l-.066-.01v-.007c-.043.025-.057-.052-.113-.023.037.023.037.04.047.056l-.085.014c-.01-.033-.043-.05-.03-.1l.046.006c.062-.026.106-.058.165-.04l.005.04zM46.166 72.54l-.023-.037c.01.006.042-.013.023.038zM47.683 72.54c-.004.018-.025.008-.04.012l-.01-.033c.027 0 .046-.007.05.02zM42.806 72.606l.02.038c-.03.01-.03-.015-.02-.038zM45.18 73h-.06c-.01-.032.014-.027.03-.04h.03V73zM43.757 73.062c.02.11-.035.164-.07.23h-.023c-.016-.105.055-.14.062-.23h.03zM49.5 73.688c.03.027-.03.075.024.078l-.016.03.016.015.016-.044c.06-.04.064 0 .1.016.014-.052-.055-.046-.03-.102.036.006.036-.027.08-.017l-.04.132-.125.03c-.004.027-.023.033-.04.033v-.054c-.03-.02-.03-.036-.03-.056-.043-.014-.025-.062-.03-.1.026.005.07.01.076.04zM43.464 73.904l.05.01c-.01.032-.026.023-.036.038v.023h-.06v-.032h.01v-.045h.036v.006zM47.505 74.377h-.03c0-.016-.01-.035.013-.038h.018v.037zM48.34 74.394c-.01.022.017.035.022.044.023.033.033.035.018-.006.016-.022.035-.022.055-.022 0 .01-.006.026.006.028.01 0 .02.005.024-.006v-.022h.03c0 .007.005.01.007.013.036-.04.065.02.1.01-.024.017 0 .077-.026.094-.037.006-.06-.01-.094-.017-.03.017-.01.052-.016.077.03.003.01.04.01.06l.006.056h-.045l.02-.055c-.003-.03-.015-.058-.036-.066-.038.047-.118.04-.11.12h-.045c0-.046.02-.085.012-.136.086-.042-.066-.04-.012-.127.05.008.026-.063.076-.046zM47.386 74.432l.025.062c-.043.005-.026-.036-.024-.062zM49.5 74.7l-.046.09c.02.043-.04.005-.04.037-.04.042-.048.154-.022.216-.02-.007-.037.01-.03.032.024.02.024.088 0 .105.03.052.054.14.14.125.008.06-.066.04-.06.094h-.032v-.01c-.023-.014-.053-.004-.078-.007v-.032c.02.004.016-.016.016-.028l-.047-.116c-.02-.035.042-.025.01-.055h-.026v-.075h.01l.008-.17c.074.003-.008-.03.01-.064.012-.05.06-.05.066-.105.06-.003.06-.067.078-.11.02-.006.02-.02.047-.016v.09zM46.54 74.95c-.005.035-.03.047-.034.076-.02.007-.05-.013-.055.017.005.09.108.01.1.108h.017c.008.02-.02.034 0 .047h.023v.023c.064-.03.047.054.094.054.01.045-.078.035-.047.103-.018 0-.03-.013-.053-.01-.012.014-.008.032-.008.05H46.5v-.01c-.094-.036-.22-.063-.234-.172.072-.048-.016-.097 0-.154.02-.013.076 0 .076-.037-.004-.02-.025-.02-.02-.046h.038c-.004.008.002.01.008.014h.014c.016-.024.006-.06.01-.09.05.007.03-.073.084-.03l.063.06zM49.316 75.663c.004.022-.004.03-.023.04h-.01v-.04h.033zM46.615 76.383l-.01.056c-.033.01-.113-.027-.105.027 0 .077.135.023.105.125-.018.064-.13 0-.154.055 0 .06-.024.094-.015.178h-.006c-.026.064.02.18-.04.21-.004.027.006.06-.01.082.074-.003.05.058.055.11-.045.02-.086.054-.148.032-.02.023.016.04.012.065-.093.048-.112-.048-.19-.052-.022-.028-.077-.002-.077-.054-.035-.02-.076-.03-.12-.023-.034-.023-.095-.02-.095-.064.078.013.115-.03.2-.017-.005.01.005.02.015.017.012-.004.025.006.033-.007.006-.016-.01-.03-.025-.022-.036-.007-.02-.087-.067-.093v-.03h.045c0 .02.02.015.033.015.09.004.013-.132.1-.125-.01.052.056.04.07.063.01-.015.046-.015.03-.048.016-.003.037.006.05-.006 0-.03-.03-.024-.02-.056.034.013.034-.023.05-.033.002-.036-.03-.04-.05-.06-.026-.006-.065-.013-.083-.038-.002-.036.03-.017.045-.032l.023-.06c.016-.04.033-.04.05-.04.017-.017-.01-.032-.013-.045-.012 0-.002-.023-.004-.033.016-.002.033.008.043-.006-.026-.022-.01-.08-.01-.12h.065v.01c.025.01.082.017.094-.01.02-.105.093.008.125.027z"/>
  <path fill="#FFF" d="M45.988 76.576c.035-.022.045-.064.107-.048.027.054.1.077.086.164.01.063-.07.032-.085.076-.043-.025-.064.01-.094.032.01.026-.013.046-.038.04-.014.002-.004.02-.006.028-.068.013-.115-.014-.156-.04-.008-.05-.102-.012-.113-.066h-.027c-.01-.064.043-.06.08-.087l.092-.016-.008-.085h.078l.01-.06c.045-.01.03.055.076.06zM47.968 76.776h-.055c-.015-.074.06-.04.055 0zM46.21 76.776c0 .024-.01.038-.04.03v-.03h.04zM48.03 76.933h.048v.03h-.05zM48.046 76.994v.045l-.062.01v-.065c.02.006.04.013.062.01zM47.82 77.025c.004.036-.037.036-.02.078l-.063.022c-.02-.066.022-.114.083-.1zM47.535 77.296c-.02 0-.035-.013-.03-.037h.03v.036zM46.36 78.31c.007.048-.015.073-.04.093-.02.025-.05.067-.094.062-.04-.017-.016-.062-.02-.09.048-.023.097-.02.124-.065h.03zM45.648 78.464c-.072.025-.055-.042-.104-.052.006-.046.068-.016.104-.025v.077zM46.236 78.496c.01.057-.045.073-.05.13-.03.015-.028.082-.09.057-.02-.022-.06-.02-.056-.062.064.01.055-.073.055-.11.057.014.09-.02.14-.014zM46.42 78.92v.017c.065.04.12-.048.163.016-.008.035-.068.022-.055.077.004.025-.014.048-.045.038-.018-.01-.018-.04-.05-.028-.003-.064-.07-.068-.104-.103v-.056c.045-.01.07.017.09.04zM48.023 79.3c0-.023.014-.035.04-.04l-.04.04zM46.033 74.377c.004.03-.006.06-.045.045v-.045h.045z"/>
  <path fill="#FFF" d="M49.283 71.172c-.006.033.014.04.033.04l-.023-.047c-.01-.04-.02-.07-.037-.093.016-.022 0-.055.037-.055.018.087.152.023.178.11.097-.017.122.058.21.044.01.11.13.1.164.19.08 0 .057.12.17.075 0-.032-.006-.067.006-.094h.023c.01-.002.02.008.016.02.038 0 .067.005.077.043.035.006.04-.01.07-.014.025.067.145.045.146.14-.006.014.014.047-.016.044v.054c-.02.023-.02.08-.06.062-.067.004-.032-.1-.12-.084-.05-.035-.12-.054-.166-.093-.048.017-.077-.02-.118-.032v.064c.07.008.13.04.156.094 0 .007-.01.017-.016.014-.016.074.084.038.078.108.053.017.074.09.146.078.033-.058.027.045.078.032-.006.05.037.063.02.122.028.047.075.076.077.14.077.06.11.143.142.232h.025c0 .022.033.017.02.046.114.035.11.177.218.225-.016.074.098.013.07.104.01-.006.018 0 .02-.012.01-.048-.007-.08-.038-.1.01-.063-.05-.096-.006-.153l.007-.01.094.022c.034-.007.02.028.024.048.09-.003.025.123.115.132-.007.038-.017.084.038.077.035.052.047.13.07.192.02.09.06.164.076.264.152.586.207 1.27.178 1.95h-.002l-.006.172h-.01c.002.087-.04.138-.023.23h-.005l-.01.11H51.4c.002.068-.04.097-.023.17h-.01c-.264 1.245-.83 2.27-1.666 3.113-.09.038-.124.135-.208.183-.086.064-.15.147-.252.187-.016-.028-.062 0-.055-.045-.06.055-.172.06-.14.2-.108.092-.202.157-.296.218-.097.062-.198.122-.294.186-.086.008-.11.074-.186.094-.064.064-.178.058-.242.122l-.055-.007-.076-.01c.01-.037.02-.102-.006-.13-.01-.014-.024-.005-.038-.007.06-.053-.018-.104-.01-.164-.02-.052-.072.002-.107-.013v.1c-.033.012 0 .05 0 .07-.072.06.008.146.023.26-.086.003-.076.08-.148.064-.072.045-.172.066-.262.1-.33.1-.71.183-1.05.225-.046-.008-.09.044-.128.015-.055-.01-.102.052-.154.006-.04.033-.125 0-.16.033-.03-.024-.094-.02-.133-.01-.14.01-.318.02-.45-.005-.067.044-.118-.023-.202 0-.028-.053-.06.034-.09-.018h-.08c.005-.006-.003-.01-.005-.015-.04.045-.074-.018-.117-.007l-.11-.01v-.007l-.185-.02v-.01c-.08-.003-.19-.014-.252-.062-.01-.035-.022-.06-.056-.06h-.04c-.044-.024-.09-.04-.138-.057-.05.02-.04-.047-.086-.03-.04-.004-.074-.045-.06-.1-.073-.07-.198-.08-.28-.14-.04-.003-.072-.025-.107-.038-.06.022-.047-.05-.094-.048l-.093-.045c-.094 0-.158-.056-.22-.104-.028.002.007-.06-.038-.04 0-.02-.036-.016-.024-.044-.086-.03-.135-.1-.215-.138-.07.012-.108-.022-.163-.033-.037-.06-.12-.075-.13-.153-.06-.02-.075-.08-.095-.14-.072-.018-.05-.114-.078-.172.02-.016.033-.058.05-.077.013-.03-.022-.035-.032-.052.016-.058-.072-.054-.04-.12-.02-.06-.063-.114-.07-.19l.07-.04c.015.014.007.033.007.05h.032v-.036c.02-.027.02-.07.06-.07.01-.004.02.005.017.016.106.02.155-.03.226-.064.045-.02.03-.087.098-.077-.01-.056.064-.074.018-.122.05-.074.123.006.2-.01v.01c.15.04.202-.097.343-.04.03.104.086-.028.154-.01.028.023.075.022.093.065.11-.007.2.02.285.045.05-.052.178.042.193-.055.19-.115.368.106.573-.016.035-.03.084.03.1-.023-.04-.09.055-.106.033-.2-.05-.054-.102-.097-.162-.13l.023-.056c.047-.003.04-.06.082-.062.003-.022-.007-.048.01-.064.058.003.097-.022.144-.045.088-.028.084-.125.172-.154.02-.056-.04-.063-.008-.11l.055.022c-.002.075.078-.017.094.048.023.08.135.08.14.178.05-.013.065.022.1.032-.01.112.144.028.124.145.077-.074.194-.1.255-.193.064-.035-.02-.067-.014-.105 0-.014 0-.036.015-.032.008-.023-.014-.063.016-.07-.005-.018-.003-.065-.036-.056-.018-.036-.064-.074-.023-.116.042-.07.056.03.11.03-.02.05.025.053.045.072.08.075.025-.105.115-.093-.004.028.004.083.023.105.035-.003.076.014.104-.013.092.01.164-.052.236-.07.064.013.11-.06.158 0v-.016c.02-.015.056-.015.077 0v-.024c-.01-.022.012-.04.03-.032v-.024c.052-.013.044-.07.142-.07.065-.013.087.027.153.025v.038c.03.01.025-.022.053-.015.004.002.012.006.008.015h.03c.007-.054.048-.08.03-.147.025-.03.012-.1.078-.093l.04-.032.052.07c-.016.018-.027.036-.06.033-.032 0 .003.064-.046.045l.008.055h.016c-.004-.058.06-.048.082-.07.023.006.02.038.088.022.037.006.02-.06.016-.067-.04-.07 0-.106.03-.155.015-.077.058-.144.085-.218h-.033c-.016.074-.105.035-.148.076-.05-.005-.13.02-.145-.036-.047-.09.078-.042.084-.1-.058-.033.036-.05.017-.11-.074-.028.035-.013.018-.062h-.018c-.01-.006-.006-.016-.01-.022.008-.016.023-.006.033-.01-.014-.04.02-.05.03-.076.005-.077.116-.038.155-.084.05-.004.12-.033.178-.033.03 0 .045-.012.047-.037-.012-.004-.03.006-.047 0 .09-.035.14-.106.225-.138-.027-.13.11-.113.17-.155.01-.025.045-.035.033-.077.007-.028.046-.032.07-.07.075.003.07-.067.106-.087.004.006.01.01.006.017h.05c.017-.046.077-.043.114-.062.004.004.01.006.006.016h.033c.002-.01-.006-.025.006-.032.07.032.103-.038.165-.016V75.6c-.004-.014.014-.018.023-.014 0 .023.04.016.02.045.005.023-.02.014-.038.018l.012.045c.006.03.045.006.06.025-.003.032.054.035.034.084h.02c.01.006.01.016.01.022l.067-.007c.094.036.156.103.258.13.007.057.05.1.022.163h-.02v.016c-.026.087-.146.032-.22.05-.016.047.033.047.023.1h.01c.076 0 .11.03.186.03.015-.04-.046-.077.007-.102.062.006.037-.084.102-.078.01 0 .03-.003.03.017h.03c-.026-.04-.01-.113-.015-.17h-.025c-.012.006-.03-.01-.02-.024.005-.006.01-.01.015-.01l.006-.105h.026c.02-.01.04.01.03.028 0 .013.003.035-.017.033v.053c0 .042.056.016.085.022.04-.02.04-.063.045-.11h.033c.06-.008.02-.102.1-.092.002-.025-.008-.055.01-.077h.016c.01.022.003.052.005.077h.033c0-.01-.008-.025.006-.03.01-.033.02-.104.076-.076.006-.012-.01-.02-.006-.032.012-.07.05.017.084-.02-.025-.05.016-.076.02-.11-.007-.042-.05-.074-.065-.11h-.088v-.022c.03-.042.045.017.088.01.055-.006.09-.022.133-.038.027.052.06-.038.092.013h.06v-.046c-.05.006-.04-.077-.108-.045-.02-.014-.037-.04-.03-.07-.022-.036-.01-.104-.07-.1.013-.035-.05-.043-.01-.065.01-.03-.005-.04-.01-.067.003-.006.005-.013.01-.01-.01-.038-.028-.076-.042-.116.025-.03.06-.034.092-.054.035.003.025.052.04.07l.005.084c.094.02.05.147.125.18.072.087.113.21.133.34.006-.05.066-.086.02-.124-.034-.06-.01-.103-.005-.154-.01.005-.03.002-.025.02.002.014-.01.02-.023.017-.012-.077-.064-.128-.076-.202-.037-.022-.033-.077-.084-.077-.014-.025-.045-.04-.04-.084.024-.064-.017-.103-.015-.148.055.033.055.12.105.155.018-.01.064-.002.064-.038-.02-.035-.08-.022-.086-.066-.014-.05.04-.026.06-.032-.005-.03-.032-.03-.06-.04.01-.028.035-.04.055-.048-.01-.07-.158-.06-.078-.145.03-.015.035-.05.055-.076v-.048c-.01-.003-.025.007-.03-.007-.026-.007-.017-.052-.01-.07-.048.02-.036-.047-.085-.04.025-.032-.016-.067.01-.1h.006c-.005-.042.015-.1-.015-.125-.006-.02.01-.04.033-.03-.03-.034-.01-.102-.018-.156-.04-.005-.027-.06-.03-.09.015-.018.028-.043.063-.033.014-.043-.033-.043-.05-.07-.036-.084.07-.032.087-.068.092-.01.094.083.14.132-.017.044 0 .07.038.076l-.02-.076c.005-.08-.024-.168.044-.21-.004-.074.037-.103.025-.18-.062.03-.06-.05-.05-.083h.01c.02-.04-.015-.114.03-.127.055-.032.05.074.094.016-.003-.043.038-.043.022-.087-.057 0 0-.084-.06-.084-.052-.05-.024-.155-.08-.203-.06.095-.07-.042-.124-.046v-.046h.01c-.03-.065.068-.117-.03-.14h-.024c.023-.186-.12-.257-.203-.38-.028-.07.08-.08.017-.137.03-.065-.045-.046-.06-.07-.042-.056-.052-.12-.1-.172h-.026c.02-.06-.02-.093-.05-.122h-.033c-.012.02-.006.052-.006.078-.058.006-.038-.066-.093-.063-.006-.084-.09-.084-.123-.146-.033-.05-.062-.102-.094-.156-.053 0-.037-.074-.094-.067-.025-.076-.06-.164-.154-.17-.01-.042-.045-.067-.03-.126.08 0 .175-.008.185.07.006.015.02.008.03.008-.015.093.09.084.1.157.05-.008.043-.08.116-.053zm.142 6.938c-.064.073-.135.138-.17.23-.01.052.012.08.027.117-.016.06.064.038.064.093-.027.05-.072.086-.076.153.04.017-.016.106.045.1.1.01.15-.058.193-.12.02-.008.035.008.053.005-.01-.067.024-.103.034-.154.062-.096-.096-.03-.05-.132.017-.016.03-.042.065-.028v-.026c.013-.013.034-.003.05-.006.01-.017.033-.02.027-.05-.045-.038-.12 0-.188-.02v-.056h-.02c-.023.004-.05 0-.04-.03.007-.027.052-.008.08-.015.01-.03-.024-.024-.02-.054.038 0 .056-.022.046-.06-.054-.004-.072.044-.12.054zm-3.547.03c-.006.038-.04.05-.047.085-.038.04-.128.023-.183.018v-.01c-.12.007-.23.044-.324.076.002.028-.01.05-.027.064-.07-.026-.146.013-.19.045-.065-.022-.163-.023-.218-.072-.027-.045-.12-.01-.17-.028l.008.067c.03.003.006.06.047.048.014.013.004.035.04.067h.022c.008.058.098.055.13.063.026.007.083.014.095.056.193.027.406.056.562.155.05-.003.06.055.11.045.08.048.18.106.3.07v.056c.012.028.06.003.078.022-.006.04-.07.016-.11.02-.005.04.044.053.05.088-.066-.004-.092.033-.154.023v.043c.057.02.068.084.105.126.01.03.07-.005.077.028.06-.01.068.034.094.063.1-.008 0 .09.065.118.057.027.156.03.184.1.02.025.054.015.08.022v.01h.028v-.023c.064.014.055-.048.076-.08.12-.01.27-.08.373 0 .035.006.084.016.094.054.032.044.07-.01.1-.012.015.042.065.017.083.045.078-.01.102.058.172.022.04 0 .05-.025.08-.028.04.003.064-.042.092-.01h.03c.026.004.075-.036.095 0 .074.016.11-.026.17-.023.004-.03.06-.006.045-.048.055.004.025-.067.076-.067v-.022c.045 0 .043-.05.064-.072 0-.07.094-.044.076-.125-.057.024-.096-.036-.14-.005-.105.05-.13-.06-.23-.022.015.052-.048.016-.048.054-.086.04-.133-.034-.19-.07-.044-.007-.01-.074-.065-.062-.05.03-.027-.048-.055-.053.02-.023.04.002.055.005l.037-.054-.043-.013c0-.01-.004-.02.006-.025.016 0 .035 0 .047.01l.008-.056h-.14c-.063-.003-.06-.09-.124-.077.01.045-.013.103.02.132.007.036.056.08.015.116-.06-.045-.06.053-.11.007v.022c-.003.028-.042.012-.062.015-.02.04.04.03.008.064-.036-.017-.07-.036-.1-.055v.015c-.005.015-.02.004-.032.007-.014.004-.018-.012-.014-.02.004-.018.02-.008.03-.012 0-.03-.007-.063.01-.093h.038v-.045h-.025c-.02-.055.02-.168-.04-.202.034-.03.003-.11.08-.094v-.02c.005-.014.02-.005.03-.007v-.033c-.035-.01-.04-.058-.07-.06.002-.08-.123-.033-.1-.126-.014-.022-.068-.01-.045-.062h-.023c.003-.074-.075-.06-.132-.06-.002.023.006.054-.01.076h-.006c-.014.054.018.077.027.115.038.01.05.042.075.06-.004.012-.016.024-.027.018-.016.04.027.037.016.072.068-.017.025.09.094.083-.004.026.004.05-.01.07-.03-.01-.035-.04-.055-.06-.043-.008-.055.01-.094.016-.015.046.034.046.017.09-.03.014-.045.046-.094.032v.023c-.035-.01-.055.084-.084.016.058-.005.01-.076.067-.07v-.02c-.006-.022.004-.054.03-.04v-.045c-.077-.022-.036-.093-.093-.143-.066-.027-.055-.112-.092-.17h-.022c-.01-.086.01-.12-.006-.215-.027-.023-.074-.003-.094-.032l-.232.01-.008.007c-.084-.032-.143-.128-.272-.092zm2.346.262c-.146.032-.254.15-.332.264-.033.003.004.06-.033.06.003.024 0 .06-.022.056.012.05.06.032.1.05.082-.044.148-.09.246-.105.018.008.05-.012.05.017.034.007.042-.01.07-.017.013.008.003.023.007.033h.032c.033.013.074.045.123.054v-.016c.092 0 .135-.077.232-.07.008-.036.04-.067.076-.078.016-.058-.04-.07-.062-.108-.04.016-.05-.02-.075-.03 0-.032-.064.004-.045-.047-.045-.062-.11-.017-.17-.006-.08-.01-.08.1-.154.075-.025-.007-.02-.05-.01-.07l-.032-.063zm.96.87c-.058.054-.17.06-.14.198.072-.036.156-.09.195-.154-.016-.03-.063 0-.055-.045zm-1.286.802c.01-.038.02-.103-.006-.132-.01-.013-.025-.004-.04-.006.062-.053-.017-.104-.01-.164-.02-.052-.07.002-.106-.013v.1c-.033.012 0 .05 0 .07-.072.06.008.146.023.26.087-.017.124-.055.214-.107l-.076-.01zM21.453 76.658h3.953c.803 0 1.422.177 1.816.505.39.328.637.818.643 1.668-.012.85-.275 1.256-.695 1.55-.424.288-1.088.42-1.84.417h-3.877v-4.14zM25.148 68.605c.738-.003 1.387.126 1.803.41.41.285.67.685.68 1.515-.005.833-.245 1.312-.628 1.633-.387.32-.992.496-1.78.495h-3.87v-4.053h3.796z"/>
</svg>
