<svg xmlns="http://www.w3.org/2000/svg" width="638.254" height="204.973" viewBox="0 0 638.254 204.973">
  <g fill="#FFF">
    <path d="M136.945 54.35c1.165.74 2.525 1.168 4.373 1.168 2.444 0 4.46-1.25 4.46-4.065 0-3.89-9.09-4.37-9.09-9.57 0-3.186 2.782-5.17 6.28-5.17.962 0 2.527.143 3.89.653l-.312 1.79c-.883-.487-2.273-.74-3.61-.74-2.045 0-4.288.853-4.288 3.407 0 3.978 9.09 4.005 9.09 9.8 0 4.006-3.435 5.6-6.506 5.6-1.93 0-3.434-.397-4.485-.854l.198-2.02zM163.134 44.324c-.966-.427-2.133-.74-3.097-.74-3.49 0-5.455 2.53-5.455 6.054 0 3.294 1.988 6.048 5.258 6.048 1.133 0 2.185-.256 3.265-.65l.173 1.674c-1.225.43-2.358.513-3.722.513-4.662 0-6.933-3.555-6.933-7.583 0-4.463 2.87-7.583 7.16-7.583 1.732 0 2.98.392 3.494.566l-.143 1.7zM168.532 35.574h1.786v9.26h.058c.768-1.588 2.387-2.78 4.52-2.78 3.89 0 4.94 2.584 4.94 6.16v8.667h-1.79v-8.634c0-2.5-.482-4.66-3.438-4.66-3.18 0-4.29 3.01-4.29 5.54v7.756h-1.786V35.574zM201.422 56.88h-2.157l-3.95-12.526h-.058L191.31 56.88h-2.16l-4.654-14.486h1.96l3.803 12.524h.056l4.033-12.524h2.158l3.833 12.524h.06l4.004-12.524h1.79M219.686 48.61c0-2.52-1.022-5.024-3.69-5.024-2.643 0-4.26 2.643-4.26 5.025h7.95zm.88 7.815c-1.25.513-2.868.797-4.2.797-4.804 0-6.595-3.242-6.595-7.59 0-4.428 2.444-7.577 6.108-7.577 4.09 0 5.767 3.294 5.767 7.184v.906h-9.91c0 3.07 1.644 5.54 4.768 5.54 1.308 0 3.21-.54 4.063-1.08v1.82zM227.272 42.394h1.787v14.483h-1.788V42.394zm1.787-3.865h-1.788v-2.387h1.787v2.386zM234.458 55.373l8.72-11.444h-8.38v-1.536h10.454v1.535l-8.72 11.416h8.72v1.53h-10.794M259.453 48.61c0-2.52-1.022-5.024-3.693-5.024-2.644 0-4.263 2.643-4.263 5.025h7.956zm.88 7.815c-1.25.513-2.873.797-4.204.797-4.802 0-6.592-3.242-6.592-7.59 0-4.428 2.443-7.577 6.107-7.577 4.09 0 5.767 3.294 5.767 7.184v.906h-9.916c0 3.07 1.646 5.54 4.773 5.54 1.306 0 3.21-.54 4.062-1.08v1.82zM267.04 45.632c0-1.592 0-2.187-.118-3.238h1.79v2.778h.056c.655-1.614 1.875-3.117 3.72-3.117.427 0 .94.08 1.252.168v1.875c-.37-.113-.85-.173-1.306-.173-2.84 0-3.61 3.183-3.61 5.797v7.16h-1.785V45.63zM278.71 42.394h1.792v14.483h-1.79V42.394zm1.79-3.865h-1.792v-2.387h1.79v2.386zM286.126 54.78c1.075.538 2.386.91 3.776.91 1.706 0 3.208-.943 3.208-2.59 0-3.436-6.958-2.896-6.958-7.1 0-2.87 2.33-3.95 4.715-3.95.768 0 2.302.172 3.583.655l-.173 1.56c-.94-.43-2.217-.68-3.208-.68-1.848 0-3.126.567-3.126 2.414 0 2.7 7.13 2.357 7.13 7.1 0 3.07-2.87 4.122-5.06 4.122-1.39 0-2.78-.173-4.062-.685l.174-1.758zM309.927 44.324c-.967-.427-2.134-.74-3.097-.74-3.492 0-5.45 2.53-5.45 6.054 0 3.294 1.986 6.048 5.252 6.048 1.137 0 2.188-.256 3.265-.65l.17 1.674c-1.218.43-2.354.513-3.72.513-4.655 0-6.932-3.555-6.932-7.583 0-4.463 2.87-7.583 7.16-7.583 1.733 0 2.98.392 3.492.566l-.14 1.7zM315.32 35.574h1.79v9.26h.062c.766-1.588 2.386-2.78 4.514-2.78 3.893 0 4.943 2.584 4.943 6.16v8.667h-1.792v-8.634c0-2.5-.482-4.66-3.438-4.66-3.183 0-4.29 3.01-4.29 5.54v7.756h-1.79V35.574zM342.167 48.61c0-2.52-1.022-5.024-3.697-5.024-2.638 0-4.257 2.643-4.257 5.025h7.954zm.88 7.815c-1.25.513-2.87.797-4.202.797-4.8 0-6.59-3.242-6.59-7.59 0-4.428 2.44-7.577 6.103-7.577 4.094 0 5.77 3.294 5.77 7.184v.906h-9.914c0 3.07 1.646 5.54 4.77 5.54 1.306 0 3.212-.54 4.063-1.08v1.82zM360.06 37.054h9.718v1.702h-7.758v7.076h7.355v1.702h-7.355v7.64h8.094v1.706H360.06M376.282 42.394h1.787v14.483h-1.788V42.394zm1.787-3.865h-1.788v-2.387h1.787v2.386zM390.2 55.69c3.18 0 4.285-3.414 4.285-6.057 0-2.638-1.105-6.048-4.285-6.048-3.412 0-4.29 3.237-4.29 6.048 0 2.815.878 6.057 4.29 6.057m6.078 1.19h-1.793v-2.302h-.055c-.965 1.847-2.443 2.644-4.518 2.644-3.977 0-5.965-3.296-5.965-7.59 0-4.395 1.703-7.582 5.965-7.582 2.842 0 4.262 2.074 4.518 2.786h.055v-9.262h1.793V56.88zM408.094 55.346c3.234 0 4.398-3.07 4.398-5.708 0-3.498-1.02-6.053-4.283-6.053-3.413 0-4.294 3.237-4.294 6.053 0 2.84 1.13 5.708 4.178 5.708m6.188.34c0 4.033-1.814 7.328-6.783 7.328-1.907 0-3.636-.536-4.378-.77l.145-1.79c1.105.57 2.697 1.026 4.258 1.026 4.604 0 4.996-3.35 4.996-7.443h-.052c-.967 2.104-2.56 2.84-4.404 2.84-4.625 0-6.104-4.035-6.104-7.24 0-4.405 1.703-7.588 5.963-7.588 1.932 0 3.184.255 4.52 1.985h.053V42.39h1.79v13.295h-.004zM429.653 48.61c0-2.52-1.023-5.024-3.693-5.024-2.64 0-4.258 2.643-4.258 5.025h7.95zm.88 7.815c-1.253.513-2.866.797-4.202.797-4.8 0-6.59-3.242-6.59-7.59 0-4.428 2.442-7.577 6.104-7.577 4.094 0 5.766 3.294 5.766 7.184v.906h-9.908c0 3.07 1.643 5.54 4.77 5.54 1.305 0 3.21-.54 4.06-1.08v1.82zM437.237 45.8c0-1.104 0-2.242-.113-3.406h1.73v2.586h.06c.595-1.312 1.675-2.93 4.687-2.93 3.577 0 4.94 2.39 4.94 5.568v9.26h-1.79v-8.804c0-2.726-.964-4.49-3.437-4.49-3.27 0-4.29 2.867-4.29 5.29v8.003h-1.786V45.8zM460.9 55.69c3.124 0 4.8-2.702 4.8-6.057 0-3.346-1.676-6.048-4.8-6.048-3.128 0-4.804 2.702-4.804 6.048 0 3.355 1.676 6.057 4.803 6.057m0-13.64c4.685 0 6.76 3.638 6.76 7.583 0 3.954-2.075 7.59-6.76 7.59-4.69 0-6.763-3.636-6.763-7.59 0-3.945 2.074-7.583 6.762-7.583M472.143 54.78c1.082.538 2.387.91 3.78.91 1.702 0 3.208-.943 3.208-2.59 0-3.436-6.956-2.896-6.956-7.1 0-2.87 2.326-3.95 4.713-3.95.768 0 2.303.172 3.578.655l-.168 1.56c-.938-.43-2.217-.68-3.205-.68-1.852 0-3.127.567-3.127 2.414 0 2.7 7.13 2.357 7.13 7.1 0 3.07-2.872 4.122-5.056 4.122-1.396 0-2.788-.173-4.065-.685l.168-1.758zM485.41 54.78c1.08.538 2.388.91 3.778.91 1.703 0 3.207-.943 3.207-2.59 0-3.436-6.96-2.896-6.96-7.1 0-2.87 2.33-3.95 4.716-3.95.77 0 2.308.172 3.58.655l-.17 1.56c-.94-.43-2.214-.68-3.206-.68-1.852 0-3.127.567-3.127 2.414 0 2.7 7.13 2.357 7.13 7.1 0 3.07-2.872 4.122-5.054 4.122-1.396 0-2.787-.173-4.062-.685l.17-1.758zM508.614 48.61c0-2.52-1.02-5.024-3.688-5.024-2.646 0-4.264 2.643-4.264 5.025h7.952zm.883 7.815c-1.25.513-2.873.797-4.203.797-4.805 0-6.592-3.242-6.592-7.59 0-4.428 2.443-7.577 6.107-7.577 4.09 0 5.765 3.294 5.765 7.184v.906h-9.912c0 3.07 1.646 5.54 4.77 5.54 1.308 0 3.21-.54 4.063-1.08v1.82zM516.198 45.8c0-1.104 0-2.242-.105-3.406h1.727v2.586h.06c.595-1.312 1.675-2.93 4.687-2.93 3.58 0 4.943 2.39 4.943 5.568v9.26h-1.79v-8.804c0-2.726-.964-4.49-3.435-4.49-3.27 0-4.295 2.867-4.295 5.29v8.003h-1.79V45.8h-.002zM533.1 54.78c1.082.538 2.387.91 3.78.91 1.704 0 3.206-.943 3.206-2.59 0-3.436-6.955-2.896-6.955-7.1 0-2.87 2.327-3.95 4.716-3.95.768 0 2.297.172 3.576.655l-.17 1.56c-.934-.43-2.213-.68-3.207-.68-1.848 0-3.127.567-3.127 2.414 0 2.7 7.13 2.357 7.13 7.1 0 3.07-2.866 4.122-5.056 4.122-1.39 0-2.783-.173-4.06-.685l.168-1.758zM556.903 44.324c-.96-.427-2.133-.74-3.092-.74-3.5 0-5.458 2.53-5.458 6.054 0 3.294 1.988 6.048 5.26 6.048 1.135 0 2.184-.256 3.264-.65l.168 1.674c-1.223.43-2.35.513-3.717.513-4.662 0-6.932-3.555-6.932-7.583 0-4.463 2.865-7.583 7.156-7.583 1.733 0 2.98.392 3.493.566l-.14 1.7zM562.297 35.574h1.79v9.26h.058c.77-1.588 2.39-2.78 4.52-2.78 3.89 0 4.94 2.584 4.94 6.16v8.667h-1.79v-8.634c0-2.5-.48-4.66-3.436-4.66-3.187 0-4.292 3.01-4.292 5.54v7.756h-1.79V35.574zM588.463 49.58h-.518c-3.088 0-6.785.31-6.785 3.49 0 1.908 1.363 2.615 3.012 2.615 4.203 0 4.29-3.665 4.29-5.226v-.88zm.17 4.97h-.06c-.796 1.73-2.808 2.672-4.6 2.672-4.12 0-4.772-2.787-4.772-4.09 0-4.86 5.17-5.086 8.92-5.086h.343v-.738c0-2.475-.883-3.722-3.295-3.722-1.506 0-2.928.34-4.264 1.195v-1.734c1.11-.536 2.984-.99 4.264-.99 3.578 0 5.082 1.614 5.082 5.396v6.388c0 1.164 0 2.046.145 3.042h-1.762V54.55zM597.95 43.93h-2.928v-1.536h2.928v-1.052c0-3.037.11-6.11 3.836-6.11.564 0 1.332.087 1.68.287l-.12 1.56c-.364-.2-.903-.31-1.42-.31-2.442 0-2.185 2.638-2.185 4.373v1.25h3.265v1.535h-3.264v12.948h-1.79V43.93zM614.653 43.93h-3.297v9.37c0 1.307.482 2.386 1.932 2.386.682 0 1.135-.144 1.646-.34l.12 1.48c-.43.167-1.31.395-2.192.395-3.178 0-3.293-2.187-3.293-4.83v-8.463h-2.843v-1.534h2.842V38.9l1.788-.624v4.117h3.295v1.536zM151.09 78.467c-1.25-.655-3.04-.854-4.434-.854-5.137 0-8.033 3.638-8.033 8.55 0 4.998 2.81 8.552 8.033 8.552 1.31 0 3.3-.172 4.433-.854l.113 1.707c-1.08.65-3.294.854-4.546.854-6.247 0-9.996-4.12-9.996-10.256 0-6.02 3.86-10.254 9.997-10.254 1.167 0 3.524.2 4.546.736l-.114 1.82zM164.1 94.884c3.12 0 4.8-2.7 4.8-6.052 0-3.35-1.68-6.052-4.8-6.052-3.123 0-4.803 2.702-4.803 6.052 0 3.35 1.68 6.052 4.803 6.052m0-13.635c4.685 0 6.76 3.633 6.76 7.582s-2.075 7.583-6.76 7.583c-4.688 0-6.762-3.634-6.762-7.583s2.074-7.583 6.762-7.583M176.456 84.995c0-1.104 0-2.242-.112-3.403h1.73v2.583h.057c.597-1.31 1.677-2.93 4.688-2.93 3.583 0 4.942 2.39 4.942 5.573v9.258h-1.788v-8.803c0-2.73-.964-4.49-3.438-4.49-3.266 0-4.29 2.868-4.29 5.286v8.006h-1.788v-11.08zM195.686 83.124h-2.924v-1.532h2.924v-1.05c0-3.043.11-6.11 3.834-6.11.57 0 1.333.082 1.68.285l-.115 1.56c-.373-.195-.914-.31-1.423-.31-2.443 0-2.19 2.643-2.19 4.373v1.254h3.27v1.532h-3.27v12.952h-1.786V83.124zM211.987 75.996h2.247l-3.58 4.086h-1.307l2.64-4.086zm2.986 11.814c0-2.526-1.023-5.03-3.693-5.03-2.64 0-4.263 2.644-4.263 5.03h7.956zm.88 7.81c-1.25.516-2.867.796-4.203.796-4.8 0-6.592-3.237-6.592-7.583 0-4.434 2.445-7.583 6.108-7.583 4.09 0 5.766 3.294 5.766 7.185v.907h-9.915c0 3.073 1.646 5.54 4.773 5.54 1.306 0 3.208-.536 4.063-1.08v1.818zM227.952 94.884c3.182 0 4.288-3.413 4.288-6.052s-1.106-6.052-4.288-6.052c-3.408 0-4.29 3.242-4.29 6.052 0 2.812.883 6.052 4.29 6.052m6.08 1.192h-1.792v-2.298h-.056c-.964 1.843-2.443 2.64-4.514 2.64-3.98 0-5.967-3.295-5.967-7.584 0-4.4 1.703-7.583 5.967-7.583 2.838 0 4.258 2.076 4.514 2.784h.056v-9.26h1.79v21.302zM246.415 75.996h2.245l-3.58 4.086h-1.304l2.64-4.086zM249.4 87.81c0-2.526-1.023-5.03-3.693-5.03-2.64 0-4.263 2.644-4.263 5.03h7.956zm.878 7.81c-1.25.516-2.867.796-4.202.796-4.8 0-6.592-3.237-6.592-7.583 0-4.434 2.445-7.583 6.11-7.583 4.088 0 5.764 3.294 5.764 7.185v.907h-9.914c0 3.073 1.646 5.54 4.773 5.54 1.306 0 3.208-.536 4.062-1.08l-.002 1.818zM256.982 84.827c0-1.59 0-2.187-.11-3.238h1.787v2.782h.057c.65-1.62 1.873-3.123 3.72-3.123.427 0 .937.083 1.252.167v1.878c-.37-.114-.854-.175-1.31-.175-2.838 0-3.607 3.186-3.607 5.796v7.16h-1.79v-11.25zM276.81 88.777h-.512c-3.097 0-6.79.31-6.79 3.494 0 1.9 1.363 2.61 3.01 2.61 4.203 0 4.292-3.66 4.292-5.224v-.88zm.17 4.972h-.058c-.797 1.728-2.814 2.666-4.604 2.666-4.117 0-4.768-2.783-4.768-4.09 0-4.855 5.17-5.084 8.916-5.084h.343v-.74c0-2.47-.883-3.72-3.298-3.72-1.504 0-2.924.343-4.26 1.194v-1.73c1.105-.54 2.982-.996 4.26-.996 3.578 0 5.083 1.62 5.083 5.397v6.392c0 1.163 0 2.045.145 3.037h-1.762V93.75h.002zM291.32 83.124h-3.293v9.374c0 1.304.485 2.386 1.93 2.386.683 0 1.138-.144 1.648-.343l.115 1.477c-.427.172-1.308.402-2.19.402-3.177 0-3.294-2.19-3.294-4.83v-8.466h-2.84v-1.532h2.84v-3.496l1.79-.624v4.12h3.295v1.532zM296.748 81.592h1.792V96.08h-1.792V81.59zm1.792-3.863h-1.792v-2.39h1.792v2.39zM310.92 94.884c3.125 0 4.8-2.7 4.8-6.052 0-3.35-1.675-6.052-4.8-6.052-3.12 0-4.796 2.702-4.796 6.052 0 3.35 1.675 6.052 4.796 6.052m0-13.635c4.688 0 6.762 3.633 6.762 7.582s-2.073 7.583-6.762 7.583c-4.687 0-6.757-3.634-6.757-7.583 0-3.95 2.07-7.583 6.757-7.583M323.28 84.995c0-1.104 0-2.242-.116-3.403h1.735v2.583h.056c.595-1.31 1.674-2.93 4.684-2.93 3.578 0 4.945 2.39 4.945 5.573v9.258h-1.79v-8.803c0-2.73-.965-4.49-3.44-4.49-3.27 0-4.284 2.868-4.284 5.286v8.006h-1.79v-11.08zM350.29 93.974c1.08.543 2.39.91 3.777.91 1.703 0 3.21-.938 3.21-2.586 0-3.434-6.956-2.897-6.956-7.104 0-2.87 2.325-3.946 4.712-3.946.768 0 2.303.168 3.582.652l-.17 1.562c-.94-.427-2.22-.683-3.21-.683-1.847 0-3.124.57-3.124 2.414 0 2.702 7.127 2.357 7.127 7.104 0 3.066-2.87 4.118-5.057 4.118-1.393 0-2.78-.172-4.062-.68l.173-1.762zM375.97 92.666c0 1.11 0 2.243.108 3.41h-1.73V93.49h-.056c-.596 1.31-1.678 2.926-4.688 2.926-3.58 0-4.94-2.387-4.94-5.568v-9.26h1.786v8.81c0 2.726.97 4.483 3.438 4.483 3.268 0 4.29-2.865 4.29-5.28v-8.01h1.792v11.076zM382.67 81.592h1.787V96.08h-1.787V81.59zm1.79-3.863h-1.784v-2.39h1.783v2.39zM390.084 93.974c1.08.543 2.387.91 3.78.91 1.7 0 3.206-.938 3.206-2.586 0-3.434-6.957-2.897-6.957-7.104 0-2.87 2.334-3.946 4.713-3.946.77 0 2.303.168 3.582.652l-.172 1.562c-.938-.427-2.22-.683-3.207-.683-1.853 0-3.126.57-3.126 2.414 0 2.702 7.13 2.357 7.13 7.104 0 3.066-2.872 4.118-5.06 4.118-1.393 0-2.78-.172-4.06-.68l.17-1.762zM403.348 93.974c1.08.543 2.39.91 3.777.91 1.707 0 3.21-.938 3.21-2.586 0-3.434-6.954-2.897-6.954-7.104 0-2.87 2.327-3.946 4.71-3.946.77 0 2.3.168 3.582.652l-.17 1.562c-.938-.427-2.217-.683-3.213-.683-1.843 0-3.122.57-3.122 2.414 0 2.702 7.127 2.357 7.127 7.104 0 3.066-2.87 4.118-5.057 4.118-1.39 0-2.783-.172-4.062-.68l.172-1.762zM426.56 87.81c0-2.526-1.024-5.03-3.692-5.03-2.646 0-4.264 2.644-4.264 5.03h7.955zm.876 7.81c-1.248.516-2.867.796-4.203.796-4.803 0-6.59-3.237-6.59-7.583 0-4.434 2.443-7.583 6.105-7.583 4.09 0 5.77 3.294 5.77 7.185v.907h-9.914c0 3.073 1.645 5.54 4.77 5.54 1.31 0 3.213-.536 4.062-1.08v1.818zM151.09 117.666c-1.25-.65-3.04-.854-4.434-.854-5.137 0-8.033 3.64-8.033 8.55 0 5 2.81 8.556 8.033 8.556 1.31 0 3.3-.173 4.433-.854l.113 1.703c-1.08.654-3.294.854-4.546.854-6.247 0-9.996-4.117-9.996-10.257 0-6.02 3.86-10.25 9.997-10.25 1.167 0 3.524.196 4.546.736l-.114 1.816zM164.1 134.084c3.12 0 4.8-2.703 4.8-6.053 0-3.345-1.68-6.05-4.8-6.05-3.123 0-4.803 2.705-4.803 6.05 0 3.35 1.68 6.054 4.803 6.054m0-13.636c4.685 0 6.76 3.64 6.76 7.584 0 3.95-2.075 7.588-6.76 7.588-4.688 0-6.762-3.638-6.762-7.588 0-3.946 2.074-7.584 6.762-7.584M176.456 124.2c0-1.106 0-2.245-.112-3.408h1.73v2.583h.057c.597-1.308 1.677-2.928 4.688-2.928 3.583 0 4.942 2.39 4.942 5.57v9.258h-1.788v-8.804c0-2.726-.964-4.488-3.438-4.488-3.266 0-4.29 2.867-4.29 5.285v8.008h-1.788V124.2zM195.686 122.323h-2.924v-1.53h2.924v-1.053c0-3.038.11-6.11 3.834-6.11.57 0 1.333.087 1.68.286l-.115 1.562c-.373-.2-.914-.314-1.423-.314-2.443 0-2.19 2.644-2.19 4.377v1.252h3.27v1.53h-3.27v12.953h-1.786v-12.952zM214.973 127.01c0-2.528-1.023-5.026-3.693-5.026-2.64 0-4.263 2.64-4.263 5.025h7.956zm.88 7.813c-1.25.512-2.867.797-4.203.797-4.8 0-6.592-3.242-6.592-7.588 0-4.43 2.445-7.584 6.108-7.584 4.09 0 5.766 3.296 5.766 7.185v.91h-9.915c0 3.07 1.646 5.542 4.773 5.542 1.306 0 3.208-.54 4.063-1.083v1.82zM227.952 134.084c3.182 0 4.288-3.41 4.288-6.053s-1.106-6.05-4.288-6.05c-3.408 0-4.29 3.24-4.29 6.05 0 2.817.883 6.054 4.29 6.054m6.08 1.192h-1.792v-2.3h-.056c-.964 1.845-2.443 2.644-4.514 2.644-3.98 0-5.967-3.295-5.967-7.588 0-4.398 1.703-7.584 5.967-7.584 2.838 0 4.258 2.076 4.514 2.787h.056v-9.262h1.79v21.303zM249.4 127.01c0-2.528-1.023-5.026-3.693-5.026-2.64 0-4.263 2.64-4.263 5.025h7.956zm.878 7.813c-1.25.512-2.867.797-4.202.797-4.8 0-6.592-3.242-6.592-7.588 0-4.43 2.445-7.584 6.11-7.584 4.088 0 5.764 3.296 5.764 7.185v.91h-9.914c0 3.07 1.646 5.542 4.773 5.542 1.306 0 3.208-.54 4.062-1.083l-.002 1.82zM256.982 124.026c0-1.587 0-2.183-.11-3.233h1.787v2.778h.057c.65-1.617 1.873-3.122 3.72-3.122.427 0 .937.085 1.252.174v1.873c-.37-.115-.854-.17-1.31-.17-2.838 0-3.607 3.18-3.607 5.795v7.16h-1.79v-11.254zM276.81 127.98h-.512c-3.097 0-6.79.31-6.79 3.49 0 1.906 1.363 2.614 3.01 2.614 4.203 0 4.292-3.666 4.292-5.225v-.88zm.17 4.97h-.058c-.797 1.73-2.814 2.67-4.604 2.67-4.117 0-4.768-2.788-4.768-4.09 0-4.86 5.17-5.087 8.916-5.087h.343v-.74c0-2.472-.883-3.72-3.298-3.72-1.504 0-2.924.34-4.26 1.193v-1.733c1.105-.54 2.982-.996 4.26-.996 3.578 0 5.083 1.62 5.083 5.402v6.387c0 1.163 0 2.046.145 3.04h-1.762v-2.328h.002zM283.738 133.773l8.72-11.45h-8.378v-1.53h10.453v1.53l-8.72 11.42h8.72v1.533h-10.795M299.902 120.792h1.787v14.486H299.9v-14.486zm1.787-3.866H299.9v-2.386h1.787v2.386zM314.073 134.084c3.122 0 4.8-2.703 4.8-6.053 0-3.345-1.678-6.05-4.8-6.05-3.123 0-4.8 2.705-4.8 6.05 0 3.35 1.677 6.054 4.8 6.054m0-13.636c4.688 0 6.76 3.64 6.76 7.584 0 3.95-2.07 7.588-6.76 7.588-4.686 0-6.76-3.638-6.76-7.588 0-3.946 2.075-7.584 6.76-7.584M326.43 124.2c0-1.106 0-2.245-.107-3.408h1.728v2.583h.06c.598-1.308 1.675-2.928 4.687-2.928 3.58 0 4.94 2.39 4.94 5.57v9.258h-1.79v-8.804c0-2.726-.963-4.488-3.435-4.488-3.266 0-4.293 2.867-4.293 5.285v8.008h-1.787V124.2h-.003zM353.274 127.01c0-2.528-1.02-5.026-3.69-5.026-2.646 0-4.265 2.64-4.265 5.025h7.954zm.88 7.813c-1.25.512-2.872.797-4.204.797-4.8 0-6.59-3.242-6.59-7.588 0-4.43 2.44-7.584 6.106-7.584 4.09 0 5.77 3.296 5.77 7.185v.91h-9.92c0 3.07 1.647 5.542 4.774 5.542 1.31 0 3.213-.54 4.062-1.083v1.82zM370.63 132.748c1.16.74 2.524 1.168 4.372 1.168 2.443 0 4.46-1.256 4.46-4.062 0-3.896-9.09-4.378-9.09-9.574 0-3.187 2.782-5.17 6.276-5.17.965 0 2.525.142 3.893.647l-.31 1.792c-.885-.484-2.273-.74-3.61-.74-2.046 0-4.288.854-4.288 3.41 0 3.978 9.09 4.006 9.09 9.8 0 4.007-3.436 5.6-6.508 5.6-1.93 0-3.434-.397-4.484-.855l.2-2.017zM392.415 135.276h-2.098l-4.916-14.484h1.96l4.006 12.525h.054l4.205-12.525h1.875M402.213 120.792H404v14.486h-1.787v-14.486zm1.787-3.866h-1.787v-2.386H404v2.386zM409.403 133.773l8.717-11.45h-8.38v-1.53h10.454v1.53l-8.723 11.42h8.724v1.533h-10.79M424.225 133.773l8.72-11.45h-8.376v-1.53h10.452v1.53l-8.723 11.42h8.722v1.533h-10.797M449.225 127.01c0-2.528-1.027-5.026-3.697-5.026-2.64 0-4.258 2.64-4.258 5.025h7.955zm.88 7.813c-1.25.512-2.872.797-4.206.797-4.802 0-6.59-3.242-6.59-7.588 0-4.43 2.442-7.584 6.108-7.584 4.09 0 5.766 3.296 5.766 7.185v.91h-9.914c0 3.07 1.646 5.542 4.773 5.542 1.305 0 3.205-.54 4.06-1.083v1.82zM456.807 124.026c0-1.587 0-2.183-.11-3.233h1.786v2.778h.057c.652-1.617 1.875-3.122 3.72-3.122.43 0 .94.085 1.253.174v1.873c-.37-.115-.854-.17-1.31-.17-2.837 0-3.603 3.18-3.603 5.795v7.16h-1.79v-11.254h-.003zM476.637 127.98h-.52c-3.092 0-6.787.31-6.787 3.49 0 1.906 1.363 2.614 3.012 2.614 4.207 0 4.295-3.666 4.295-5.225v-.88zm.166 4.97h-.06c-.792 1.73-2.808 2.67-4.6 2.67-4.118 0-4.77-2.788-4.77-4.09 0-4.86 5.168-5.087 8.92-5.087h.344v-.74c0-2.472-.885-3.72-3.297-3.72-1.51 0-2.93.34-4.266 1.193v-1.733c1.107-.54 2.982-.996 4.266-.996 3.574 0 5.08 1.62 5.08 5.402v6.387c0 1.163 0 2.046.143 3.04h-1.76v-2.328zM151.09 156.862c-1.25-.652-3.04-.853-4.434-.853-5.137 0-8.033 3.64-8.033 8.55 0 5 2.81 8.552 8.033 8.552 1.31 0 3.3-.172 4.433-.854l.113 1.704c-1.08.65-3.294.852-4.546.852-6.247 0-9.996-4.116-9.996-10.253 0-6.02 3.86-10.253 9.997-10.253 1.167 0 3.524.2 4.546.735l-.114 1.82zM164.1 173.282c3.12 0 4.8-2.702 4.8-6.056 0-3.347-1.68-6.047-4.8-6.047-3.123 0-4.803 2.7-4.803 6.046 0 3.354 1.68 6.056 4.803 6.056m0-13.633c4.685 0 6.76 3.632 6.76 7.577 0 3.954-2.075 7.587-6.76 7.587-4.688 0-6.762-3.633-6.762-7.587 0-3.946 2.074-7.578 6.762-7.578M176.456 163.395c0-1.104 0-2.247-.112-3.407h1.73v2.583h.057c.597-1.305 1.677-2.924 4.688-2.924 3.583 0 4.942 2.39 4.942 5.567v9.26h-1.788v-8.805c0-2.73-.964-4.487-3.438-4.487-3.266 0-4.29 2.87-4.29 5.284v8.008h-1.788v-11.077zM195.686 161.52h-2.924v-1.532h2.924v-1.05c0-3.038.11-6.108 3.834-6.108.57 0 1.333.087 1.68.284l-.115 1.562c-.373-.196-.914-.312-1.423-.312-2.443 0-2.19 2.64-2.19 4.377v1.247h3.27v1.533h-3.27v12.95h-1.786v-12.95zM214.973 166.208c0-2.53-1.023-5.025-3.693-5.025-2.64 0-4.263 2.637-4.263 5.025h7.956zm.88 7.813c-1.25.513-2.867.8-4.203.8-4.8 0-6.592-3.242-6.592-7.588 0-4.435 2.445-7.586 6.108-7.586 4.09 0 5.766 3.293 5.766 7.184v.91h-9.915c0 3.07 1.646 5.54 4.773 5.54 1.306 0 3.208-.538 4.063-1.08v1.82zM227.952 173.28c3.182 0 4.288-3.41 4.288-6.05 0-2.643-1.106-6.05-4.288-6.05-3.408 0-4.29 3.24-4.29 6.05 0 2.812.883 6.05 4.29 6.05m6.08 1.192h-1.792v-2.3h-.056c-.964 1.85-2.443 2.646-4.514 2.646-3.98 0-5.967-3.302-5.967-7.588 0-4.405 1.703-7.586 5.967-7.586 2.838 0 4.258 2.073 4.514 2.785h.056v-9.26h1.79v21.302zM249.4 166.208c0-2.53-1.023-5.025-3.693-5.025-2.64 0-4.263 2.637-4.263 5.025h7.956zm.878 7.813c-1.25.513-2.867.8-4.202.8-4.8 0-6.592-3.242-6.592-7.588 0-4.435 2.445-7.586 6.11-7.586 4.088 0 5.764 3.293 5.764 7.184v.91h-9.914c0 3.07 1.646 5.54 4.773 5.54 1.306 0 3.208-.538 4.062-1.08l-.002 1.82zM256.982 163.228c0-1.593 0-2.188-.11-3.24h1.787v2.783h.057c.65-1.618 1.873-3.12 3.72-3.12.427 0 .937.082 1.252.167v1.87c-.37-.107-.854-.166-1.31-.166-2.838 0-3.607 3.183-3.607 5.796v7.156h-1.79v-11.244zM276.81 167.176h-.512c-3.097 0-6.79.308-6.79 3.488 0 1.907 1.363 2.615 3.01 2.615 4.203 0 4.292-3.666 4.292-5.227v-.877zm.17 4.97h-.058c-.797 1.73-2.814 2.67-4.604 2.67-4.117 0-4.768-2.783-4.768-4.09 0-4.857 5.17-5.084 8.916-5.084h.343v-.74c0-2.476-.883-3.72-3.298-3.72-1.504 0-2.924.34-4.26 1.192v-1.734c1.105-.54 2.982-.99 4.26-.99 3.578 0 5.083 1.617 5.083 5.396v6.394c0 1.163 0 2.043.145 3.034h-1.762v-2.328h.002zM283.738 172.972l8.72-11.45h-8.378v-1.535h10.453v1.534l-8.72 11.423h8.72v1.533h-10.795M299.902 159.987h1.787v14.484H299.9v-14.483zm1.787-3.865H299.9v-2.386h1.787v2.386zM319.727 171.065c0 1.106 0 2.246.11 3.406h-1.728v-2.577h-.06c-.598 1.303-1.676 2.92-4.686 2.92-3.578 0-4.945-2.386-4.945-5.566v-9.26h1.79v8.805c0 2.73.964 4.488 3.437 4.488 3.267 0 4.285-2.866 4.285-5.277v-8.016h1.792v11.078h.003zM326.43 163.395c0-1.104 0-2.247-.107-3.407h1.728v2.583h.06c.598-1.305 1.675-2.924 4.687-2.924 3.58 0 4.94 2.39 4.94 5.567v9.26h-1.79v-8.805c0-2.73-.963-4.487-3.435-4.487-3.266 0-4.293 2.87-4.293 5.284v8.008h-1.787v-11.077h-.003zM353.444 172.37c1.08.537 2.39.912 3.777.912 1.704 0 3.214-.938 3.214-2.585 0-3.437-6.963-2.9-6.963-7.104 0-2.868 2.333-3.943 4.716-3.943.768 0 2.303.167 3.582.65l-.174 1.562c-.934-.427-2.217-.683-3.207-.683-1.85 0-3.125.568-3.125 2.41 0 2.703 7.133 2.36 7.133 7.105 0 3.066-2.87 4.116-5.06 4.116-1.394 0-2.784-.17-4.06-.68l.17-1.76zM372.844 174.472h-2.1l-4.915-14.485h1.958l4.004 12.526h.056l4.207-12.526h1.873M382.643 159.987h1.79v14.484h-1.79v-14.483zm1.79-3.865h-1.79v-2.386h1.79v2.386zM389.83 172.972l8.717-11.45h-8.377v-1.535h10.452v1.534l-8.717 11.423h8.717v1.533H389.83M405.99 163.228c0-1.593 0-2.188-.114-3.24h1.79v2.783h.058c.654-1.618 1.873-3.12 3.72-3.12.427 0 .94.082 1.253.167v1.87c-.37-.107-.854-.166-1.31-.166-2.84 0-3.606 3.183-3.606 5.796v7.156h-1.786v-11.244h-.003zM425.82 167.176h-.513c-3.098 0-6.79.308-6.79 3.488 0 1.907 1.362 2.615 3.013 2.615 4.203 0 4.29-3.666 4.29-5.227v-.877zm.167 4.97h-.057c-.795 1.73-2.81 2.67-4.602 2.67-4.117 0-4.773-2.783-4.773-4.09 0-4.857 5.174-5.084 8.92-5.084h.344v-.74c0-2.476-.884-3.72-3.3-3.72-1.504 0-2.924.34-4.258 1.192v-1.734c1.107-.54 2.982-.99 4.258-.99 3.58 0 5.086 1.617 5.086 5.396v6.394c0 1.163 0 2.043.145 3.034h-1.763v-2.33zM104.16 36.716s-15.11-6.562-40.405-6.562h-.007c-25.296 0-40.407 6.562-40.407 6.562s-1.352 29.06 4.383 45.486c10.13 28.89 36.02 37.01 36.02 37.01h.02s25.882-8.12 36.017-37.01c5.733-16.427 4.38-45.486 4.38-45.486zm-13.554 41.06H71.77v18.68H55.63v-18.68H36.796v-16.01H55.63V43.09h16.136l.004 18.676h18.836v16.01z"/>
  </g>
</svg>
