<svg xmlns="http://www.w3.org/2000/svg" width="28.784" height="32.844" viewBox="0 0 28.784 32.844">
  <path fill="none" stroke="#72052F" stroke-width=".2" stroke-linecap="round" stroke-linejoin="round" d="M6.737 19.713h-.031l-.16-.16v-.046l.016-.034.033-.03.064-.017h.048l.048.096.017.016.017.096-.017.03-.033.05zm1.22-3.307l-.098.03.016-.08.207-.19H8.1l.03.016.017.016.05.018.03.096.08.016-.03.03-.32.048zM19.56.546l.483.193.062.047.05.032.208.382v.096l-.03.063-.082.065-.11.065-.097.064-.08.11v.017l-.16.08-.13.033-.288.08-.19.064-.097.048-.37.063-.208.32-.258.48-.206.16h-.066l-.24.063-.032.017-.096.175-.178.272-.143.24-.19.35-.05.065-.143.206v.032l-.017.16-.05.447-.03.064-.047.16-.017.175-.03.27-.145.305-.063.096-.257.287-.224.35-.033.113.064.016.24-.016.113-.048.03-.048.257-.16.065.08.047.128-.016.03.143.113.21.08.08.32.144.528.467.495h.032l.03.032.03.063.065.352.033.127-.017.048-.03.033h-.08l-.144.24-.016.51v.32l.097.143.032.033h.014l.146.016.112.015.208.112-.017.08v.048l.032.127.03.047.034.063.046.064.05.08h.016l.128.096.13.016.096.03h.08l.062-.03.192-.08.112-.033.08.016.097.016.128.03.048.017h.257l.127.064.16.05.306-.033.032-.016.063-.03.13-.08.047-.05.05-.015.08-.016.19-.017.32.08.21.08.11.063.05.032.03.016.05.017.047.017.065-.016.03-.03.05-.017.127-.016h.064l.77.942.58.718.046-.032.063-.016.11-.017.033.048.065.065.048.016.096-.03.08-.08.063-.08.064-.033.048-.032h.063l.386.048.145.032.08.032.05.032h.096l.176-.05.146-.047h.112l.08.016.11.015.05-.016.128-.033.064-.032.08-.016.032-.017.063.016.064.015.065.016.08-.015.062-.016.082-.032.175-.144.256.032.114.017.144.03.063.05.066.063.047.032h.032l-.063.064v.063l.017.048.03.063.065.048.03.096-.017.032-.063.032-.032.032-.112.096-.126.127-.032.063-.048.127-.018.096v.048l.018.08.016.064.032.064-.065.128-.063.063-.112.064-.05.016-.062.048-.097.145.05.35.016.065.03.112v.128l-.017.272v.047l-.01.13-.066.35.146.432-.033.064-.016.05v.08l.05.126.11.16.032.08.032.143.032.098.08.238.05.08.03.032.032.016.08-.016h.05l.046.033.096.143.032.08.064.176.016.047.05.034.03.016.065.016.033.11-.098.16-.047.017-.13.11-.126.114-.305.287-.337.336.015.096.112-.016.258.047.048.016.03.064.113.16.096.05.32.35.08.063.05.016.08.033.048.046.032.11-.016.034-.05.047-.015.033.017.062.017.064.048.11.03.032.097.21.24.638.13.463.046.335.017.064.033.046h.016-.032l-.288.08-.08.016-.016-.03-.017-.146v-.03l.016-.192.016-.064.014-.05.017-.157-.03-.193-.082-.223-.095-.16-.096-.11-.033-.034-.08-.096-.08-.176-.016-.046-.016-.05-.03-.046-.162-.064-.16.08-.112.064-.048.03-.16.16-.016.065-.017.03-.162.208-.08.065-.128.05-.08.03h-.047l-.05-.016h-.046l-.033-.034-.05-.064-.062-.096-.017-.047-.03-.097-.034-.05-.03-.03-.096-.016h-.05l-.062.08-.017.047-.03.11.047.146h.032l.063.016.05.08H23.792l-.06-.03-.113-.032-.178-.033-.29.065-.158.08-.13-.016.018.03v1.215h.238l.21-.018.337.08.11-.047.08-.033.146.08.08.064.16.272-.032.207.066.206-.16.064-.162-.016-.08-.064-.255-.16-.435.113-.13.096-.078.06h-.37l-.13.034v.527l-.015.32v.591l.063.08.177.192.37.303h.046l.064.016.112.05.05.047.062.225-.016.062-.033.064-.033.05v.06l.178.337.08.05.095.08-.015.03.015.05.033.175.047.223.017.176-.017.08-.128.286-.127.75-.146.768-.033.143-.03.176-.018.113-.305 1.707-.176.96-.13.558-.017.05v-.05l-.063-.06-.065-.05-.03-.016-.16-.127-.033-.05-.016-.03-.018-.05-.016-.063-.047-.078-.097-.13-.176-.126-.033-.018-.05-.016-.08.033-.03.03-.113.064-.03.016h-.064l-.146-.064-.24-.096.11-.16.08-.127.13-.176.225-.367.064-.096.673-1.037-.05-.113h-.047l-.144-.11-.034-.065-.016-.08-.145-.128-.08-.016-.05.016-.03.016-.37-.03-.03-.02-.145-.157v-.08l-.4-.255-.225.096-.256.065-.162.096-.337-.032-.095-.127-.226-.08h-.097l-.192-.015-.03-.064.016-.046-.033-.05-.047.034-.178.127-.11.176-.05.112h-.08l-.096-.016-.176.08-.305.176-.144-.016-.048-.018-.24-.078-.268-.06-.178.064-.256.096-.145.03-.03-.11-.064-.096h-.08l-.05.016-.143-.08-.063-.048-.016-.03-.032-.16.064-.032.048-.05.032-.11-.064-.432-.08-.143-.128-.08-.08.08-.112.047-.24-.11-.145-.097-.032-.03.048-.177.016-.05.048-.046-.05-.11-.08-.114-.046-.047-.018-.063-.016-.11-.19-.177-.114-.016-.08.016-.176-.05-.05-.095-.4-.27-.27-.063-.05-.05-.03-.048-.05-.11.032-.065.033-.08-.08-.095-.05-.05-.047-.144-.048-.142-.017-.11-.015-.02-.032-.046-.32-.24-.097-.062-.048.03-.145-.08-.016-.046v-.05l-.017-.046-.016-.05-.032-.046-.048-.064-.032-.016-.048.016-.048.03-.05.017-.144-.062-.047-.05-.113-.095-.225-.143-.144-.018-.017.05-.016.063-.064.047h-.064l-.016-.047-.048-.018-.048-.016-.096-.016-.08-.03-.16-.097-.113-.08-.224-.016-.064.016-.063-.033-.306-.223-.128-.176-.08-.128-.033-.03-.207-.065-.193-.047h-.305l-.016.238-.08.05-.192.046h-.045l-.032-.016-.048-.062-.21-.05-.015.05-.08.017-.08.016h-.113l-.336-.128-.08-.098-.224.05-.048-.017-.177-.05-.128-.046-.096-.048-.048-.24v-.096l.017-.062-.05-.064-.047-.03-.048.015-.032.016-.063-.05-.033-.016-.08-.047-.047-.033-.018-.047-.016-.064.017-.047-.047-.05-.032-.015-.16.032-.065.033-.08-.016-.063-.02-.08-.095-.145-.062-.063.016-.064-.017-.064-.016-.145-.113-.113-.094-.032-.016-.063-.016-.05-.016-.047-.016-.048-.033-.16-.158-.033-.05-.016-.03-.145-.033-.048.018-.063-.08-.082-.048-.048-.016-.03-.03-.26-.29-.095-.207-.13-.065-.046-.016H5.04l-.096-.032-.033-.064.144-.225.193-.144.063-.018.16.033.063.017.21.08h.063l.08-.225v-.062l-.096-.19-.05-.034-.063-.062-.047-.176-.018-.08.097-.176.11-.223.033-.05.017.08.03-.064.034-.03.11-.017.032-.112h.05l.08.047.03.05.05.03.16-.16.224.064h.05l.27-.065.064-.062.016-.096.017-.08.064.08.017.062.063.032.145-.018.08-.078-.03-.064-.033-.225.128-.207.29-.352.03-.033.26-.383.016-.047-.033-.033-.08-.047.033-.064.176-.095.24-.303.064-.016.13-.176.03-.08v-.11l.177-.287-.097.016-.048.03-.097.05-.046.046h-.16l-.032-.016-.032-.128.03-.064.05-.033.08-.016.064-.177-.05-.03-.094-.032-.064.063-.032.05-.032.095-.03.08-.05.047-.112-.143-.018-.064v-.225l.018-.062.176-.08.112.017.063-.064v-.03l-.08-.017h-.094l-.096-.146.08-.19v-.017l.016-.033.048-.142v-.21l-.017-.126-.03-.192-.017-.048-.017-.048L8.227 15l-.016-.287v-.128l.05-.095v-.08l-.017-.11-.063-.305-.16-.096-.113-.017.064-.128.16-.08.08.016.033.017.063-.016.16-.175.018-.096-.017-.064-.177-.384-.13-.175-.095-.112-.03-.047L8 12.59l.034-.19.127.08.05-.08.064-.21.03-.334-.126-.24-.078-.05h-.033l-.384-.318.015-.192v-.048l-.047-.112-.208-.19-.192-.145.16-.478h.063l.064-.016.032-.032.016-.064-.015-.064-.048-.08v-.159l.017-.047.158.08.08.144.018.08.03.046.033.016.48-.335v-.047l-.064-.096.112-.208.032-.033.145-.063.047-.128-.03-.16-.066-.112-.048-.112-.048-.032-.096-.096-.032-.03v-.16l-.016-.064-.065-.097-.03-.047H8.1l-.017-.096.05-.064.014-.016.145-.16v-.064l.048.032.08.16.03.128.08.096.05.032.03.016.065.016.064.048.03.048.064.112.225.176.015.096.018.048.11.08.097-.016h.017v.08l-.016.126-.062-.032-.032-.016-.05.032-.03.08.016.096.097.063h.11l.11-.016.02-.03.03-.208-.016-.096-.015-.208-.034-.27-.016-.145-.08-.144-.112-.065-.097-.032V7.99l.08-.11.13-.018.288-.08.465-.383.017-.065h.048l.048-.016.112-.033.097-.112.175-.383.017-.08.112-.16.046-.032.033-.016.304-.16.19-.032.178.048.063.016.064-.032.048-.048.03-.032.034-.112.016-.032.016-.08v-.047l-.016-.048-.016-.063-.05-.064-.062-.112.05-.127.08-.257.015-.048.016-.128v-.081l.018-.096.08-.08v-.11l-.032-.352.13-.048v-.095l-.036-.113.05-.08.128-.127.24-.128.048.016.017.032.047-.048-.016-.064-.03.032-.035-.015.016-.096h.08l.353-.19.015-.064.017-.064.192-.19.096-.097.017-.017.048.048.64.208.05.017.048.016H14.097l.064-.015h.05l.047-.017-.017.032-.047.016h-.05l-.127.017-.08-.017-.258.174-.03.112.03.08.145-.064.096.096.015.048h.13l.03-.032.033-.048.047-.16.08-.19.064-.097.063-.208-.016-.144v-.08l.048-.063.048-.08.064-.032.225-.047h.048l.08.032.032.032.16.064.16.047h.225l.08-.016H16.002l.08-.017.05-.016.064-.017.03-.016.13-.08.016-.048.096-.096.21-.16.512-.352.08-.032.4-.16h.115l.077-.016.257-.16.05-.016.047-.048.176-.368V.994L18.342.98 18.36.93l.03-.016L18.6.9l.128.015-.032.048-.048.064.048.064.032.017.05-.016.143-.095.112-.192.225-.112.113-.11-.05-.032-.095.016-.064.032.034-.048.062-.032.05-.016.19.032.065.015zM.117.293L.1.276V.18L.116.148.132.116.164.1H.18L.164.212.13.26.117.292z"/>
</svg>
