<svg xmlns="http://www.w3.org/2000/svg" width="30.296" height="32.715" viewBox="0 0 30.296 32.715">
  <path opacity=".6" fill="none" stroke="#FFF" stroke-width=".3" stroke-linecap="round" stroke-linejoin="round" d="M28.43 5.04l.815 2.753.256.367.4.545.194 1.76-.098 1.41-.19.43-.61.85-1.406.512-.732.13-.61.015-.43.19-.946.945-.688.8-1.022.977-.53.128-.653-.032-1.795.384-1.102.385-.912.414-1.01 1.455-.366.688-.19.623-.193.34-.86.333-1.267-.447-.513-.207-.384.24.433.35-.018.656 1.148.8.53.032 1.07-.43-.304-.515.447-.4.672-.207 1.824-.48.69-.16.206.08h.463l.8-.08 1.375.08.16.018 1.586.16.69.016 1.407 1.505.254.354-.43.7-.354.607-.35.513-1.44 2.224-.768 1.153-1.598 2.463-.4.61-.176.335-.96.37-1.456-.114-.354-.175-.414-.463-.176-.656-.21-.35-1.948-.355-.593.113-1.937.51-2.592.818-1.054.145-2.354.19-.83.018-.833.416-1.105.593-.496.047-.944-.145-.4-.062-.656-.145-.815-.225-.528-.225-.337-.416.21-.433.03-1.25.08-1.28.097-1.65-.32-2.253L0 22.1l.688-2.4.576-1.89L2.4 17.2l1.04-.782L4.815 14.4l.607-.91 1.248-2.1.77-.864 1.567-2.32.656-.56.304-.273.304-.928.258-.705.48-.607.607-.737L12.64 3.31l.51.145.304.096.625.225.94.673.578.67.524.593.897.64.925-.43 1.25-1.07-.19-.785.03-.672 2.158-1.825L24.656 0l.53.928.524.736.516.625 1.457 1.66.525.225.192.08.03.783v.002z"/>
  <path fill="#FFF" d="M27.2 18.452c0 2.033-2.21 4.146-2.21 4.146-.314.294-.49.27-.786 0 0 0-2.188-2.114-2.188-4.146 0-1.487 1.164-2.71 2.59-2.71 1.43 0 2.594 1.223 2.595 2.71zm-1.362-.118c0-.677-.553-1.23-1.23-1.23-.678 0-1.222.554-1.222 1.23s.546 1.224 1.223 1.224 1.228-.546 1.228-1.224z"/>
</svg>
