<svg xmlns="http://www.w3.org/2000/svg" width="28.785" height="32.844" viewBox="0 0 28.785 32.844">
  <path fill="none" stroke="#72052F" stroke-width=".2" stroke-linecap="round" stroke-linejoin="round" d="M27.6 3.646h-.017V3.63l-.016-.017h.033v.018l.014.017v.032h-.032l-.03.016v-.018h-.017v-.016h.049v-.016l.018.016v-.016zm-.063-.015l.016-.017h.016l-.032-.016h-.018v.034l.018-.017v.018zm-4.432-2.048h-.018l-.016.016v.017h-.015v.015l.016.017v.016h-.015l.016.016v.015l.017.018.018.03h.014l.015.017.016.016h.02v.016h.015l.018-.016h.016l.015-.016v-.018h.016v-.015l.017-.016V1.68l-.016-.03v-.034h-.015l-.016-.017-.017-.016-.018.017-.016-.016h-.02v-.014h-.016l-.016-.016-.014.016v.016zm-.242-.27h.018v.015h.017v.08l.016.032v.033l.033.03V1.555h.016l.016-.017-.018-.02.016-.03V1.39l-.016-.016h.016v-.048l-.016-.032-.016-.016h-.018l.018.016v.017h-.05l-.014-.032h-.018v.016h.018l-.017.017zM27.2 4.59V4.56l-.017.03h.018zm.24-.16v-.016h-.017v.016h.016zm.032-.032v-.015h.034l-.018-.017-.033.017V4.4h.017zM22.4 4.366V4.35l-.016.017h.016zm5.328-.32h-.018.018zm-.24-.448h.018l-.05-.016.017.016h.015zm-4.176-.832h.016V2.72l-.016.015-.016.015v.016h.016zm.11-.032l.017-.016h-.047v.016h.03zm2.308 25.408l.014.017v.048h.016v.017h.016v-.033l-.016-.015v-.034h-.016v-.016h.016v-.017h-.016v.016h-.014l-.018-.017v.016l.018.016zm.062-.56h-.034v.016h.016v.033h.034v-.016h.016v-.032h-.016v-.032h-.05v.016h.016l.018.016zm-.033-.064h.015v.017h.034v-.033h-.035l-.016-.016v.032zm-2.593-4.688h.034v-.016h-.017l-.016-.017v.033zm-.736-3.792h-.013l-.017-.017-.016-.015-.018-.016-.016.015-.016.016v.033l.016.017.016.016h.018v.048h.034l.014.017h.016l.016.017v-.048h.018v-.05l-.033-.017h-.017v-.015zm-.27-1.024l.016-.03-.016-.018-.018-.017v-.017l-.03.016v.049h.031l.017.014zm-.368-1.328v.08l.014.016v.017h.018l.016.017.018.016h.016l.016-.016v.016h.016v-.016l.016-.017-.016-.017.016-.016h-.016v-.034l-.016-.048v-.015h-.05l-.016-.016h-.018l-.014.016v.016zm.833-1.167l.016-.018v-.016h-.033v.016h.018v.017zm-8.305-.594v.017h.032l.016-.017v.017h.032v-.017h-.016l-.033-.03h-.03l-.016.015h.016v.016zm0-.16l.016.017h-.032l-.033.016v.015h-.015v.049h.033v.018l.018.016.016-.016-.015-.018-.018-.016v-.035h.034v.033h.017v.016h.032v-.032h.017l-.018-.017v-.016h.017v-.016l.016.017v-.016l.016-.016.015-.016H14.383l-.018.016v-.014h-.032v.016h-.014zm.08.064l-.016.016h.016v.016h-.016v.033h.016v-.016h.032v-.035l.016.016v-.015h.018l.016-.016h-.034l.018-.018v-.016l-.018-.016h-.032l-.016.018h-.016v.016h.016v.016zm.207-.35h-.016l-.015.015h.016l-.015.016h-.015v.017h-.016v.034l-.018-.017v.067h.018l-.018.016h.018l-.018.016v.016h.034v.017l.016.016h.016v.034h.05v-.017l.016.017v-.017l.016.017h.048l-.014-.017h.014l-.014-.016v-.02l.014-.017v.033l.018-.016h.016v-.033l.016-.016-.016-.016v-.014h.016v-.016l-.016-.016h-.016v-.018h.016l-.016-.016h-.018v-.014h-.014l-.018-.016h-.016l-.016-.016v-.017h-.018v.018h-.016v.016l-.017-.015zm6.002-2.85v.017h-.017l-.018.03v.033h-.015v.018h-.016l-.016.016-.018.016v.016h-.016l-.014.014-.016.016-.016.032h-.018v.032l-.014.033h-.02v.016l-.014.015v.017h-.018v.032l-.016.017v.066h-.016l.016.016v.049l.016.018h.018l.033-.05v-.015h.014l.017.016h.016v.016h.016v.016l-.017.032v.016h-.033v.016l-.014.018v.098h-.02v.016h-.048l-.016.016v.033l.03.016h.02l.013-.016h.02l.014-.017h.064l.016-.016.02-.016.015-.016.016-.018.017-.016h.018l.016-.016.015-.016.033-.03.016-.02v-.046l.018-.017.016-.032.014-.03v-.018l.018-.047v-.033l-.018-.016-.014.016-.016.016h-.034l-.016.017h-.018l-.03-.017v.033h-.017v-.047h.018v-.08l.016-.018v-.016l.015-.017v-.016l.018-.032.016-.017v-.127l.015-.016v-.017h-.016V11.6h-.02l-.018.017-.013.013zm.813-4.61h.016v.02h.033l.016-.02-.017-.015h-.018l-.016-.015-.017.016v.015zm.13-1.038l-.017.016h-.034l-.016.016v.016l-.016.032v.032l.016.016v.099l.016.016.016.017v-.018h.018l.016-.016.016-.017.016-.017.016-.064v-.016l-.016-.016v-.016l.016-.017V6.03l.016-.017v-.015l.018-.016V5.95l-.018.016-.016.017v-.017l-.016.017h-.032zm3.232 24.975l.014-.016h.017v-.015h.016l.016-.016-.017-.018v-.016H24.8v.016h-.015v.017l-.018.015v.05l.018-.017zm-.065-.943l.016-.016-.016-.016v-.018l-.018.018v.032h.018zm1.055-1.664l-.016-.016v.016h.015zm.064-.016v-.016h-.017v.016h.016zm.033-.032h-.018v.017l.018-.018zm-.08-.08h-.02l.02.017v-.018zm-.034-.576v-.016h-.017v.017h.016zm.064 0l-.016-.017v.016h.016zm-.08-.112v-.017h-.014v.017h.014zm.015-.048v-.016h.015v-.018l-.016-.016h.015l-.016-.016v.032h-.017v.034h.016zm-.08-.767h-.035l.018.014.016-.015zm-3.263-6.706h.014l-.013-.03h-.033l.016.03h.017zm-.128-.944v-.033h-.02v.033h.02zM22 17.726h.064l.016-.032v-.049l-.016-.016-.018-.018h-.03L22 17.63h-.017v.032l-.016.03.016.033H22zm-.432-.176l.016-.017v-.016h.032V17.5l-.016-.03-.03-.017-.017.016v.048l-.016.016.016.017h.015zm.08-.193h.016v-.031h-.016v.016h-.016v.017h.016zm.08-.03v-.097h.016v-.034l-.016-.016v.016l-.016.017-.016.017v.03l-.018.017v.034l.018.017.016.016.016-.017zm.016-.273l-.016-.016h-.016l-.016.016.016.017.032-.016zm.382-1.2h-.014v.016l.014-.016zm-.03-.08h-.016l.018.016v-.017zm.017-.08l-.016-.017v.017h.016zm.047 0v-.017h-.018v.017h.018zm.32 0l-.018-.017v.017h.018zm-.338-.016l-.016-.016v.016h.016zm.05 0l.015-.016v-.016h-.014l-.018.016v.016h.018zm.032-.032l.016-.016h-.016l-.018.016h.018zm.03-.015v-.017l-.015.018v.017l.015-.016zm-.03 0v-.017h-.018v.018h.018zm.016-.017v-.016h-.016v.016h.016zm.064-.127h-.016v.016l.016-.016zm-.033-.015h-.015v.017l.016-.016zm.02.016v-.016l-.02.016h.02zm-.035-.033v-.016h-.015v.016l.016.018v-.017zm.016-.015h.02l-.02-.016-.015.016.016.016v-.016zm.192-.064l-.016-.017v.017h.016zm-7.966-.528l-.016-.016v.016h.016zm.015-.048v-.016l-.015.016.016.016v-.016zm4.353-2.464h-.016v.016l.016-.016zm1.842-.368v-.016l-.016.016h.015zm-.096-.336v-.017l-.017.017h.016zm.862-.192l.016-.032.016-.017v-.033h-.016l-.016.03v.018h-.018v.034h.018zm.32-1.088v-.016h.014v-.016h-.014l-.018.016v.016h.018zm-.673-2.608v-.016h-.015v.017h.014zm.833-.512v-.015h-.018v.015h.018zM1.743 30.734v.016l.017.016h-.016v-.016h-.016l.016-.016h-.032v.03h-.017l.018.017h-.018v.033h.018v.018h-.018v.049l-.016-.018v-.016h-.032l-.016-.033v.035l.016.016h-.016v-.016l-.017-.017-.016.016.015.016h-.033v.017l.016.03h.048l.016-.016.03.017.02.017h.03l.016.016h.033l.033.032h.032v-.032h.018l.016.016v-.05l.016-.032.016.016v-.016h.016l-.016-.017h.016v-.015l.016-.016h-.02l-.017-.02v-.014h-.032l-.016-.017v-.017h-.049v-.013h-.018v.016H1.79v.016l-.015-.016.016-.016v-.016h-.015v-.017H1.76V30.7h-.032v.017h.016v.017zm.383.176v.016l.034-.016v-.017h-.016v-.016l-.018.016v.017zM2 30.894h.032v-.016h-.017v-.017L2 30.847h-.016v.016h-.018v.017H2v.014zm.447-.32l-.016.016v.033l-.015.032v.016H2.4v-.015h-.016l-.017.015-.016.016v.016h-.015v.033h-.11V30.685H2.19l.017.016-.016.017v.016h-.015v-.017h-.031v.016h-.018v.016l.018.016.03-.016.017.016.017.016h.018v.017l-.018.03h-.031v.016l.016.016.017.017.033.03h.032l.016-.017.018-.016.016.016h.032v-.016l.016-.017v-.094l.018-.016h-.02v-.017l.017-.017.03-.017v-.03h.017l.016-.032v-.016h.018l.016-.017v-.015h.016l.016-.016-.016-.016.016-.018h-.018l-.016-.015-.016.016-.017.034zm-1.79-.015l.015.015h.064l.016.016.016-.015h.018v-.016l-.018-.02H.75v-.015H.688l-.016.016-.014.02zm3.102-.29l.015.032v.032H3.76v.03l-.017.034h-.015l.016.03.016.016h-.016v-.016h-.016v.049l.016.016h.032v.016h.066v-.016h.03l.065.016h.033l.016.016v-.018l-.016-.016v-.017l-.018-.016H3.92v-.016l-.016-.014-.018-.016h-.03l-.03-.032v-.032h-.017v-.032h-.016v-.047h-.017v-.03H3.76v-.018l-.017.017.016.03zm-.768.128h.016v-.017l-.016-.016h-.016v.017h.016v.018zm.623-.048h.018l.016.016h.031v-.048h-.016V30.3l-.03-.016h-.02v.066zm8.08-1.024h.033v-.016h.016v-.017h-.05v-.016h-.016v.016l.017.033zm-3.822-1.553h-.018v-.016h-.032v.03l-.016.034-.018.017v.016l-.016.016-.016.015-.016.018-.03.016h-.017v.031H7.68v.018l-.032.016-.018.014-.014.016.03.016v.016H7.63v-.016h-.013l-.018.016-.017.018h-.046l-.018.016h-.017l-.016-.016-.016-.018v-.032l.017-.016v-.017H7.44l.015-.015H7.44l-.017-.017-.03.017h-.034l-.017-.017v.017h-.015v.016l.016.033-.016.016h-.032v.015l.016.018v-.018h.016v.018l.016.016v.015l.016.016h.018v-.015h.016l.016.016.016.018h.016l.016.016-.016.048h-.02l-.015.016-.016-.016v.016h-.014v.017h-.034v.017h-.047l-.018.016v-.016l-.016.016v.016h-.014v.016h-.016v.017h-.016v.017l-.016.016h-.017l-.016-.016-.016.016H7.12l-.017-.016h-.016v.03l.016.017v.034l.016.016v.065l.017.016v.033l-.018.032H7.07l-.016.017-.016.03v.017h-.017v.033h.018v.016h-.017v-.017h-.016v-.017h-.031v.033l.016.03v.017h.016v.064l-.016.018v.033h.05l.015-.016.016.017.03-.03.017-.018.018-.016h.032v-.026l.033-.017h.016v-.049H7.182v.016h-.016v.017L7.15 28.7v-.03h-.014v-.016l.03-.033v-.015l.017-.03H7.2l.017-.018v-.033h.016v-.014h.016v-.032h.031l.05.047.016.016.016-.015h-.02v-.015H7.33l-.016-.03-.016-.034v-.032l-.018-.016-.016-.016h-.014v-.048h.016l.016-.016h.065l.016.016h.035v-.016h.016V28.3h.049v-.016h.017v-.03h.016l.016-.016.015.016v-.016h.018v-.033l-.018-.016.05.016h.015v.017h.016v-.016h.018l.03-.016h.017v-.049H7.65v-.017h.032v-.033h.113l.05-.05v-.015l.015-.016v-.017h.018v-.033l.03-.017v-.016l.017-.016v-.033l-.016-.016.016-.015v-.016h-.02v-.05h-.03v-.007zm-1.346.88v-.049H6.51v.016l-.015.017h.016l.017.017zm0-.08l.018.017h.015v-.016h.032l-.016-.017H6.56v-.017l-.016.017-.017.017zm.896-.11h-.031v.016l.016.015v-.016l.03-.018.017-.017H7.44v-.015h-.017v.032zm-1.63-.145v.016l.015.016h.032l.016.016.016.033.018.015v.016h.032v-.066h.016v-.015l-.016-.016v-.016h-.018l-.016-.033H5.87l-.03.017h-.032v.017h-.016zm1.71-.273h.016v-.016l-.017-.017v-.016l-.016.016v.031l.016-.016v.015zm-.255-.096h.016v-.017h.016l-.016-.016-.016-.016h-.064v.017h-.016l.016.016h.035l.03.016zm.16-.32v.017l.016.016h.016l.016-.016v-.034H7.44v-.016h-.017l-.016.016v.017zm.816-.575v.03l.016.017v.016l.03.017h.035l.016-.017.032-.03h.016l.018-.017.03-.048h.017l.016-.016h.017v-.016h-.02l-.062.016-.033.016h-.065l-.016.016-.015-.016H8.24l-.016.016v.017zm.512-.593v.016l-.016.016.016.016v.016h.016l-.016.032v.017l-.016.015v.016l.03.016v.049h.017v.016H8.8l.016-.016h.016l.016-.017.016-.032.016-.016.018-.016v-.015l.016-.017v-.032l-.036-.015v-.016l-.03-.032H8.83v-.081h.016l-.016-.03H8.75l-.015.016v.049H8.72v.033h.016v.015zm.447-.288v-.032h-.016l-.016.017v.032h.017v-.017l.016.017h.033v.016h.016v-.035h-.016v-.016H9.2v.016h-.017zm.05-.096v.032l.015.017h.016v-.033h.05v.016l-.016.017h.032v-.017l.016-.016v-.016l-.016-.017h-.018v.018l-.016-.017-.018-.015v.034h-.015v-.032l-.016.016v-.015l-.016.016v.018zm-.034-.113l.017-.016-.018-.017-.017.016-.016-.017h-.015v.016h-.016v.032l.016.017v.015h.032v.017h-.017l.016.016-.016.016h.016v.017l-.016.017v.016h.016v-.016l.016-.016h.017v-.016h.016v-.016l.016-.016v-.017l-.018.015-.016.016v-.016h.016v-.017h.016v-.033h-.016v.017h-.05v-.017l-.016-.017.03-.016v.018zm.575-.383v.049H9.76v.018h-.032v.016l-.018-.018.018-.017v-.018H9.71v.017h-.015l-.016.03v-.03h.015v-.033l.016-.016v-.015h-.03v.016h-.016l-.016.017h-.016v-.016h-.017v.017H9.6v.016h-.017v.017l-.016.017v.016h.016l-.016.016-.016.015v-.033h-.013l-.018.016v-.033h-.017v.032h-.015v.015h-.016l-.018-.016h-.032v.015h.016v.017l-.017.017v-.02h-.015l-.016.017-.017-.017h-.033l-.016.017h-.015v.032h-.05l-.016.015h-.015l-.016.016H9.2v.017l.017.018.016.016h.016v-.015h.031l.02.016H9.262v.017h-.031v.017l-.016-.017v-.016h-.034v.017h-.016v-.016h-.031l-.018.017h-.031l.016.017h.033v.032H9.2l.018.017v.016l.016-.017v-.017l.016-.016v.033l.03-.017v.017h-.017l-.016.016v.031l.016-.015v.016h.016v.018h-.017v.017l.016.016h.017l.016.033v-.023l.016.016v-.016h.015v.016h.016v.033h.017v-.034l-.016-.032v-.016h-.017v-.017h.016l.015.018h.034v.016l.015-.032-.016-.017h.031l.017-.016.018.015.016-.016.017-.017v-.016h-.035l-.018-.017-.016-.016h-.015v-.014h.016v.016h.033v-.016h.016v-.049h.064l.047-.017v-.032h.034l.047-.062.032-.032h.066l.018-.016h.032v-.016l.016-.05v-.015l-.016-.017h-.02v-.061l-.033.016v.017H9.76v.034l.015.014zm.32.288l.018.016h.032l.016-.016v-.017l.017-.016.016-.016v-.017h.016v-.016h.033v-.03l-.016-.017h-.018l-.017.016-.016.016-.016.016h-.015l-.018.016h-.03l-.017.018v.032h.016v.016zm-.912-.048v-.034h-.031v.016h.016l.015.018zm.56-1.664l.017.016v.016h.034v-.032h-.02l-.015-.017v.018h-.016zm.16-.192h.017l.033-.048.016-.032v-.017h-.035l-.016.016h-.016l-.018.017v.016l.018.015-.018.016h.018v.016zm.192-.384v.032l.018.017.014.033h.065l-.016-.016v-.017l-.016-.032h.016l-.016-.016h-.034l-.014-.016v.016h-.017zm-.367-.05h.032v-.015h-.016V23.5H9.71v.017l.018.016zm1.217-.75l-.018.016v.017h-.016v.016h-.015v.017l-.016.016-.02.017-.015-.017-.016.017h-.017v.049l.016.047v.017h.015v.063h.016v.016l.02.017.015.016h.05v.016h.063l.03-.016h.02l.015-.016h.016l.016-.017.033-.048.016-.016.016-.017V22.942l.015-.03h-.016l-.017-.017-.033-.033h-.032l-.016-.016h-.016v-.017h-.018v-.016h-.032l-.016-.017h-.016l-.016-.017v.017l-.013-.016zm.463.048l.016.03v.018l-.016.063.016.033h.016l.033-.017.016-.016h.045v-.016l.02-.016h.015v-.016l-.016-.017.016-.017-.016-.016v-.012h-.018v-.016h.018v-.034l.016-.016v-.03l.016-.017.016-.018v-.017h.016l.018-.016.016-.03.016-.018V22.6l.016-.03-.016-.017v-.018l.016-.016V22.495l.016-.017v-.095l.018-.016v-.014l-.018-.016v-.049h-.016l-.016.017h-.016v.017l-.016.015-.018.016v.05l-.016.016v.032h-.016l-.016.017-.016.032h-.018V22.658l-.03.047-.017.033-.017.016-.016.016-.018.016-.017.033-.016-.016V22.83zm-.848-.08v.016h.032v.049h.016l.018.016v-.016h.016V22.8h.016l.016.016V22.8l-.016-.018v-.016h-.018l-.016-.016h-.018v-.016l-.016.016-.016-.016h-.014v-.016l-.016.016.016.016zm.352-.448l.016-.017-.016-.016h-.032l-.018.015h.05v.017zm.56 9.104h-.016l.016.016v-.016zm-9.777-.144h.033v-.016h.016l-.016-.017H1.68l-.017.016v.016h.032zm.224-.224h-.016l.016.016v-.016zm.11 0h.02v-.032H2v.016l.016.018h.015zm-.08-.017v-.015h-.015v.016h.016zm-.255-.208l-.016-.015h-.016l.016.015v.018l.015-.018zm-.016-.03h-.032l.016.016.015-.017zm.126-.128H1.79l.017.016v-.016zm1.17-.113h.032v-.015h.018v-.015l-.018-.016h-.05l-.015.016v.016l.016.016h.016zm.736-.046v-.017h-.017v.017h.017zm-.113-.16l-.017-.016v.032l.03.016-.014-.032zm.144-.128l-.016-.017h-.016l.016.016h.016zm7.888-.72l.016-.018v-.016l.016-.016-.016-.032H11.6v.017l-.017.017v.032l.016.016h.032zm-4.336-.736l.03-.017v-.016l-.03.016-.017.017h.016zm-4.32-.032h-.018l.018.016v-.016zm3.63-.032v-.032l.02-.017.015-.017-.015-.03h-.018v.032H6.59v.081l.017-.018zm-.142-.016v-.033h-.017v.033h.017zm.272-.032v-.032l-.016.015v.018h.016zm-.225-.017l-.015-.015v.016h.016zm.05 0v-.015l-.016.016h.016zm.816 0v-.015H7.36v.016h.016zm-.896-.015v-.015h-.016v.016h.016zm.928-.08v-.015h-.016v.016h.016zm.047-.11h.018l-.018-.017-.016.016.015.016v-.016zm-1.47-.05h.047l.018-.016H6l-.016.015h-.018v.018l.018-.018zm.382.018v-.033H6.35v.034h.017zm1.04-.05h-.015v.017l.016-.016zm-.91-.255l.015-.016v-.018l-.016-.016-.016.017h-.016v.018l.016.016h.016zm.766-.033v-.016h-.015v.015h.015zm.256-.08v-.016l-.017.016.016.016v-.016zm-.097-.415v-.016h-.015v.016h.015zm.672 0h.016v-.048l-.03-.016h-.016v.016h-.018v.016h-.013l.014.017.018.016h.03zm-.64-.032v-.016h.018l.016-.016h.015l.016-.033.02-.016v-.016h-.02l-.017.017-.03.033h-.018l-.016.03v.034l.015-.016zm.45-1.2v-.016l-.017-.018v.034l.016.016v-.016zm1.198-.128v-.05h.016v-.033h-.017v.017h-.016v.016l-.016.017v.033h.033zm.033-.144H9.12v.016l.016-.016zm.623-.416v-.032l-.017.016v.017h.016zm0-.032v-.016l-.017.016h.016zm-.8-.545v-.016h-.017v.016l.017.017v-.017zm.016-.047H8.96v.016l.016-.016zm.287-.416v-.033h-.03l.015.032h.015zm.145-.11v-.018l-.016.017h.016zm.302-.626v-.032h-.015v.032h.015zm.53-.368v-.033l-.016-.032-.018-.015v.016h-.016v.034l.016.017.018.017h.016zm.304-.752v-.016h-.018v.016h.018zm.88-.304h.015v-.049h-.017l-.016.018v.032h.016zm-.704-.112h.048V22.3l-.016-.016-.03.017h-.02v.018h.018zm-.656-1.344l-.016.032h-.018v.032h.018v.016h.016l.016-.016v.016l.016.018v-.034h.018v-.016h.014l-.014-.016v-.016l.014-.017v-.016l.018-.017h.016l.016-.016.016-.032v-.017h.016v-.046h-.016v.032l-.016.016v.017h-.018v.017h-.066v.016h-.014v.016h-.016v.017h.016l-.016.014zm.16-.16v.016l.016.016.016-.016.016-.016h-.016l.016-.017h-.032v.017h-.016zm.047-.08h.02v.016h-.02v.016h.02v.033h.015v.016h.016l.017-.017h.032v-.066h-.017v.032l-.016-.016-.016-.016-.015-.016-.033-.018h-.016v.018l-.016.016v.03h.016v-.03l.016-.016v.016zm-1.743-.37l.018-.015v-.017l-.018.017-.016-.016v.016l.017.015zm2.017-.046v-.033l-.018-.016-.016.016v.035l.016-.017.018.018zm.24-.13h.016v-.031h.016v-.017h.016l-.016-.016v-.017l-.016.02h-.016v.015h-.018l-.016.032v.016h.016v-.016l.02.015zm-.224-.32h-.016v.034l-.033.016v.033l-.015.018h.016l-.015.016h-.015v.032l-.016.016v.033l.016.016h.016v.032l.016-.016h.016l.018.016v-.016h.016l.016.016h.016l-.016.017v.017h-.018v-.032h-.016v.034l-.018-.032h-.016v.017h-.016v.016h-.014l-.016.017-.018.03h.034l.016.017h.016v.017l-.016.016-.016.016v.016l.016-.016v.016l.016-.016v.016h.016v-.032h.018v.016h.016v-.016l.016.016.016-.016v-.035l.016.017.018-.018v-.016h-.018l.018-.016h.016l.016-.032h.032l.016-.016-.016-.017h-.016V20.1h.016l.016-.017v.031h.034l.016-.016v-.017h.016l-.016-.016.016-.017v-.017h.018v-.016h-.018v-.031l-.016.016v-.031h.016V19.932l-.016-.016v-.032l.016-.017v-.016h-.016v-.093h-.104v.016h-.014l-.016.017h-.018l-.016.018h-.03v.016l.016.016-.016.016v.013zm.336.226h.016v.016h-.032l-.018.017h.048l.017-.017.018-.016v-.016h.016v-.016h-.049l-.015.016h.016l-.014.016zm-.033-.048l.018.017v.016h.017v-.017h.016v-.017h-.016v-.017h-.017v.016h-.017zm.16-.224h-.016l-.016.016-.015-.016h-.015v-.016h-.016l-.018.016-.016-.016-.016.016-.016.016h-.018v.016l-.047.016-.013.016h-.016l-.018.017v.031l.018.017h.016v.032l-.016.016h.032v-.015l.016-.016.016.015V20l.016-.015.018.016.016-.015h.032v.049l.018-.016h.032V20h.016v-.015l.016-.016h-.016v-.02l.016.017.016-.017h-.016l.016-.032.016-.016v-.017l.018-.017v-.016h.016v-.03h-.016v-.017h-.018v.016h-.02zm-.016-.112v.016h.016v.033h-.016v.015h.016l.016.017.017-.017v-.016l.016-.017v-.017l-.016-.016h.016v-.033h-.016l-.018.016v-.016h-.017v.016l-.016.017zm1.73 0h.015v-.017l-.016-.016-.016.016h.016v.017zm-3.68-.384l-.02.016v.016h.02v.016l-.02.018v-.034l-.015-.016v.016h-.015v.016l-.016.018v-.018l.017-.016h-.015l-.016.016h-.033l.018-.016v-.016h-.017l-.016-.016-.016-.016v.016h-.014l-.018.016h.018v.082l-.018.016h.018v.033h.016v.033l-.016-.016v.016h-.018v.016l-.016.017h.034v-.018l.016.017h-.016l-.018.01h.018l-.018.016v-.016h-.015l-.016-.016v-.017h.016v-.046l-.016.017v.016h-.015v.032l-.016.014h.032v.016l.016.017h.034v-.017h.096v.032l.016.016h.017l.016-.016h.018v-.033h-.02l-.017-.015.016-.032h.048v.017h.096v-.017h-.017v-.032l-.03-.016v-.033h-.018v-.03h.017v-.035H9.12v-.016h-.017v-.016h-.016v-.032h-.015v.032l-.016-.014zm.24.08l.015-.016h.016v-.05l-.016-.016v.048H9.28v.018h.017v.016zm-.16-.13v.034h-.018v.016h.017v.016h.016v.016h.03v-.016l.034-.03v-.018H9.2v-.017h-.017v.017h-.016l.016.017h-.031v-.016h.016v-.017h.016v-.016l-.016-.015v.016h-.016l-.016-.015-.018.016h.018v.017zm.11-.03l-.015-.016v-.017l-.016-.016H9.2v.016h-.033l.016.017h.033v.016h.016v.032h-.017l.016.017h.016v-.017l.016.033v-.049l.016.017v-.046l-.016-.032v.033l-.016-.016h-.016l.016.017v.016zm.096-.064v.017h-.015v-.034h.016v.016zm.016-.032v-.017H9.31v.049h-.016v.032h.032l.016.017v.016h.016V19.197h.016l-.016-.017h.016v-.016H9.36v-.014zm.015-.144H9.36v.016h.033l.016.017H9.39v.015h.016v.017h-.016l-.018.016v-.018l-.016-.017v.017h-.03v.016h.016v.016h-.016v.017h.016l.016-.018v.017h.034v.015h-.02v.017h.02l.015.016h.015l-.016.016v.017H9.39v.049l-.018.015.018.016-.018.018h.033v-.068h.016l.016.016.015-.016v-.017H9.44v-.049h.015v-.031l.018.017v-.033l-.018-.017h.018l.016.017v.016l.015-.016v.016l.016-.032h.02l.015-.015h.016v-.015h-.018v-.017l.016-.016h-.066v.016h-.015l-.016.017v-.017l-.017.017v-.05l.018-.016v-.014h-.018v.016H9.44l-.017-.032h-.015v.017h-.016v.017h-.017zm.64.064h.016l.02-.017h.015l-.016-.016h.048l.018-.017v-.03h-.035l-.016.016-.016.016v.017h-.018l-.016.015h.016l-.015.015zm-.527-.16h-.016l-.018.016v.017l-.016.016.016.015H9.44l.015.017.018-.017v-.016h.016v-.034l.015-.016v-.032h-.033v.017h.016v.015zm.512-.015l.016-.017v-.017h-.048v.018h.016l.016.017zm.048-.37h-.034v.034H10v-.034l-.016.017v.017h-.081v.081h-.018l-.016.017-.015.013v.016h.016l-.015.016h.033v.033l-.016-.017H9.84v.016l-.016.014v.016h.016v.016h.016l-.016.017h-.032v-.034h-.016v.033l.016.015h.03l.017-.016.016-.018h.017l.018-.016h.016l.017-.03.018-.018V18.7h.016v-.015h.017l-.02-.015-.015-.016h.032v-.016h.032v-.018H10v-.03h.032v-.016h.018l.016-.016-.016-.017.016-.016-.016-.016v-.032h-.018v.016h-.016v.016h.016l.016.017zm-.64.21v.015h.016v.016h.016v-.016l.016.016h.018v-.016h-.02l.02-.016h.015l-.017-.017v.017H9.44l-.017-.017v.017h-.015zm.095-.114h-.015l-.033.02v.015h.018l.016.016v.017h.031l.02-.016.015-.015V18.62h-.018l.016-.015h-.016l-.018.016h-.017zm.848-.095v.065l.017-.015v-.016l.018.015v-.016l.016.015.017-.016v-.018h-.033v-.032h-.018v-.016h-.032l.016.016v.015zm-.48.034h.035v-.115h.016l-.016-.014-.018.016v.034l-.015.03v.016l-.015.017h.016v.016zm.42-.115v.017h-.02l-.015.017.016.015h.02l.015-.016v-.018l.016.017h.017v-.018h-.017v-.032l-.016-.016h-.016v.016h.016l-.015.015zm-.29-.063h.016l.033.017.015-.018v.017h.016v-.018l.017-.016-.016-.016-.015.016v-.033h-.016v.017h-.02l-.015.016-.015.016zm.304-.097l.016-.016h.016l-.016-.017h-.032v.016h.016v.015zm-.08-.415v.017l.016.03v.017h-.016v-.016h-.018v.049h.018v.017h-.018l-.016-.017v.049h.016V18h.018v.016h.016l-.016.016.016.017v.015h.016l.016.017v-.017l.018-.016v-.018h.063l.016-.016v-.032h-.05v-.017h.048l-.03-.017v-.016h-.034l.016-.016h.016v-.032h.016v-.016h-.063v-.017h-.05v.017h-.016zm-.416-.688l-.016-.016v.016h-.017v-.016l-.016.016h-.032l.016-.016v-.016l-.016-.017H9.71v.017l-.016.03v.068H9.68v.016l.015.016H9.68v.064l-.017.016v.033l-.016.017.016.03h.016v.018h.03v.016l-.016.016h.016v-.02h.018v-.016l.016.016v-.016h.016v-.033h.034l-.018-.015h.018v-.032l.016.017v-.064h.016v-.016h-.018l.016-.018v.017h.016v-.018h.016v-.017H9.84v-.016l.015-.017v-.013h.016l.017-.017v.017l.018-.017h.016l.017-.017v-.016h-.034v.016H9.87l-.015-.016v.016H9.84l-.017.017v-.033h.016v-.016h-.016v-.014l-.016.016v.016zm.207-.56H10v.017h.016v.015h-.032v.016l-.016.017v.017h-.015v-.017l-.018.017v-.017H9.92l-.017.017v-.017h-.017v.017l-.016.016v.016l-.015.014v.016l-.016.016v.033l.015-.017v.016h.016v.016h.017v.016h.018l-.018.016-.016-.016v.016h-.015l-.016.017v.033l-.032.03h.016v.036l.016-.017.016-.016v.017H9.84v.033l-.017-.016h-.015v.064l-.016.016h.016v.017h-.016v.016h-.017l-.016-.02v.016h-.016v.016h.066v.033l.016-.015v-.018l-.016-.016h.016v-.033l.016.017v-.017h.016l-.02.017-.015.016h.016v.034h.015v-.034h.033v.016l-.016.018h.017v.032H9.87l-.015-.017-.016.015.015.016v.016l.016-.016v.016h.035v-.016h.016v-.016h-.016v-.017h.016l.016.017v-.017l-.016-.015h.016v-.048H9.92l.015-.017H9.92l-.016.017v-.017h.016v-.016l.016-.017-.016-.016v-.014h.016l-.016-.016h.016v-.017h.018v-.017l.016-.016v-.014H10l.016-.017v-.016h.016v-.017l.018-.016v-.014h.016v-.08h-.05v-.017h.016v-.016l.018.032.016-.018v-.016h.016V16.7h-.016v-.017h.016l.016-.016h-.018v-.016h-.016v-.015h.016l-.016-.018h-.016V16.6h-.018v.017h-.015zm2.033.017h.032v-.02h-.016v-.015h-.016l-.018.016.018.02zm-1.777 5.598h.035l.016-.017v-.016l-.015-.016H10.27l-.015.016v.035h.016zm-.51-.576l.015-.018h-.032v.018h.015zm.015-.032v-.017H9.76v.032l.015-.015zm1.488 0h-.016l.016.015v-.015zm-1.455-.017h-.016l.016.017v-.017zm.817-.143h-.018l.018.017v-.017zm.046-.08l-.015-.016v.034l.016-.016zm1.474-.08h-.018v.017l.018-.016zm.03.016v-.032l-.015.017v.017h.015zm-1.92-.48h-.014v.016l.015-.016zm-1.774-.45v-.015h-.016v.017h.016zm.03-.03v-.016h-.014v.016h.015zm2.24-.112v-.016l-.015-.017-.016.018.015.016h.016zm-.047-.032v-.017l.018-.016v-.017l-.017.016v.015h-.016v.017h.016zm-.032-.048v-.033l-.015.018v.016h.016zm.257-.145h-.016l.017.016v-.017zm.096 0v-.033h-.016v.048l.016-.017zm.096-.144v-.017h-.017v.016h.016zm-.56-.096h.016l-.016-.017h-.034l.018.017.016.017v-.017zm.527-.017l-.016.017.017.017v-.034zm-.064.017l-.016-.017v.017h.016zm.05-.017h-.017v.017l.016-.017zm.014 0h.016v-.048h-.016v.017h-.016l.017.017-.016.016h.017zm-.832-.047h.016v-.016h-.03v.033l.015-.017zm-1.072-.08v-.016l-.016.016h.016zm3.697-.016v-.017h-.016v.017h.016zm-3.76-.032v-.016h-.017v.016h.016zm1.12-.033h-.016v.017l.016-.017zm.05-.015h.015v-.016h.016v-.017h-.015l-.016.017h-.02v.016h.02zm2.575 0v-.016h-.018v.016h.018zm-2.594-.016l-.015-.017v.017h.016zm.24-.064l-.015-.017v.017h.016zm2.417-.017h-.016l.017.017v-.017zm-3.728 0v-.016h-.017v.016H9.2zm-.368-.047v-.016l.016-.018h-.016l-.016.018v.016h.016zm.447-.033v-.032h-.017v.033h.016zm3.712-.047h.032l.018-.016-.018-.017h-.016v.017h-.016l-.016.016.016.016v-.016zm-.112-.08l.016-.016-.016-.017.016-.016h-.016v.033h-.016v.016h.016zm-3.568-.016v-.017l-.016.017h.016zm.768-.032l.016-.017-.016-.015h-.032l.016.032h.016zm.752-.016h-.016v.017l.016-.018zm-1.424 0v-.016l-.016.016h.016zm-.13-.032l-.015-.017h-.015l.016.017v.016l.015-.016zm.018-.016v-.016H9.28v.033l.016-.016zm.032-.032v-.016h-.016v.016h.016zm.447-.048v-.033l-.016.018v.033l.015-.016zm-.143 0h.016v-.016l.016-.017h-.032l-.018.018v.016h.018zm-.05-.016v-.017H9.57v.018h.015zm3.394-.048v-.017h-.018v.017h.018zm-3.488-.13l.016-.03h-.016v.016h-.016v.016l.016.017v-.02zm.592-.014v-.049h-.016v.049h.016zm-.577-.033v-.016l-.016.016v.017l.016-.017zm3.44 0h-.032l.017.017.016-.017zm-3.55-.015v-.017h-.018v.018h.017zm.126-.017l.017-.015v-.015l-.018-.016h-.017l.016.03-.017.017.016.018v-.017zm-.177-.014v-.016l-.016.016h.016zm.05-.032v-.017l-.02.017h.02zm.062-.033H9.44l.015.018V18.7zm0-.03v-.016H9.44v.016l.015.016v-.016zm.56-.225l.016-.016v-.017l-.015.016-.015.015h.015zm.56-.11v-.017h-.015v.033l.016-.016zm-.11-.032v-.018l-.02.018v.016l.02-.017zm.206-.018h-.015v.018l.016-.018zm-.223-.047h-.016v.016l.017-.016zm.53 0v-.033h-.017V18.255l.016-.016zm-.546 0v-.033l-.015.033h.016zm2.16-.08v-.017h-.015v.034l.016-.016zm.035.016v-.016h.016l-.015-.017h-.018l-.016.018.017.016h.018zm.35-.065h.017l.016-.017-.03-.016-.02.016v.016h.018zm-2.8-.064v-.017h-.015v.016h.015zm1.088-.176v-.017l-.016.017h.016zm-.03-.016v-.016h-.017v.016h.016zm-1.425-.688v-.033l-.016.017v.016h.016zm.03-.016l-.015-.017v.017h.016zm.115-.03h-.018l.018.014v-.015zm0-.066v-.032l-.018.017v.032l.018-.018zm2.095-.464h-.018l.018.016v-.016zm1.55 2.704h.035l.016.017h-.017l-.018-.016v.017H13.6v-.016h-.017l-.016-.017h.032v.017zm.562.063l-.016-.016v-.015l.016.032zm2.08-1.248h-.018v-.017h.018v.016zm-.657-.8h-.016v.017l-.018-.016-.017-.016v.066h-.016v-.017h-.098l-.017-.016v-.016l-.016.017v-.016l-.016-.016-.017.017v-.016l-.016-.017v.034l-.016-.016v.017h-.015v-.016h-.016v.049l-.02.016v.016h-.015l-.03.017v-.016l.015-.016.016-.016v-.016h-.016v.016l-.016.016v-.016h.016l-.016-.016-.016.016v.048l-.018.017h-.016l-.016.016-.016.016h-.016v.016h-.016v.016h-.018l-.016.016-.03.017v.016h-.02l-.015-.015h.017v-.017l-.016.017h-.048l-.016-.017v-.018h-.035l-.016-.016-.016.016h.017v.016l.016.017h.016l.017.016.016.015h.016v.017l.015.017-.016.015.015.016-.016.017v.132l-.017.016v.017H14.942v.017h-.016l-.016.016-.016.017-.018.03-.016.018-.016.017H14.8l-.016-.017h-.018l-.016-.017h-.048l-.05.018-.015-.017v-.015l-.016.016v-.015h-.017v.016h-.03v.018l-.017-.017-.016.018h-.018v.032h-.03l-.032.016h-.034v.016h-.016l-.01.007-.016-.017v.016l-.018-.017-.016-.016-.016-.016-.016-.015h-.016v-.062l-.018-.018-.016-.016v-.017l-.016-.017v-.033l-.03-.032v-.015h-.02v-.016h-.015v-.018h-.016v-.012l-.015-.017v.032H14.104l-.016.017h.049v.03l-.017.033h-.034l-.017.017-.016-.017v.017l-.018.016h-.017l-.016.017H14l-.016.016-.016.017h-.034l.016.017v.016l-.016.05v.03l-.016.016v.016h-.016v.017l-.016-.018h-.018v.017l-.016.016.016.016v.016l-.016.016v.017l-.016.033.016.016h-.016l.016.03v.034l-.016.016-.03.048-.017.017v.016l-.034.017-.016.016h-.016l-.05.033h-.03l-.016.016h-.018l-.03.017-.017.015-.016.016v.018h-.018v.016h-.017v.032h-.016l-.016.017v.017h-.033l-.016.016h-.015l-.016.016h-.017l-.016.016h-.018l-.017.017h-.016l-.016.017v.016l-.015.016v-.032h-.018v.016h-.016v.016h-.015v-.016h-.016v.016l-.017-.016-.018.016.018.016h-.034v.016h.015v.018h-.016l-.017-.018-.016.018v-.018h-.016l-.017.018-.016.016h-.016v.016h-.015l-.03.016-.02.032v.017l.02-.016h.015v-.017l.016-.016h.016l.03-.015h.02v.016h-.02v.017H13.154V18.7h.016v-.046h.015l.018-.016h.031v-.018h.033l.018-.016h.016v-.014h.033v-.032h.016l.017.016.016-.016h.031v-.017H13.4l.015-.016v.017h.016v.034h.068l-.016.016h-.015l-.018.016h.034v.016h-.015l-.018.018h.018v.016h-.018l.018.016h-.018l-.016.016h.017v.033l.018-.016.016-.016h.017l-.016.016v.035h-.015l-.018.016h-.016v.032h.035v.017h.033v-.017h.016v.017h.033v-.017h.032v.017h.015v-.017l.016.017h-.015v.016h-.016l-.017.016-.016.016v.033l.016-.017v-.016h.016v.016H13.63v.017h-.02v.017h.02v.016h.015v.016l-.016-.016h-.02v-.016l-.015.016.016.016h.02l-.02.017-.015-.016v.017h-.016v.017h-.017l.016.016h.015V19l-.016.016h-.033l.016-.016v-.017l-.016.017-.018-.017v-.032l-.017.017-.016-.016-.016-.016v.017l.017.017.016.016.016.017h-.033v.016h-.016v.016h.017l.016.017v.015l.016-.016.017.015v-.016h.016l.016.015v.017h-.033l-.018-.017-.017.017h.016v.016h.017v.033h-.018v.017h.017l.016.017-.016.016v-.03H13.496v.032h.049v.049h.032v.032h-.017v.016h-.034v.017h.017v.017h.03l-.015.016-.016.016v-.016h-.018v.016l.018.016v.034h.048v-.018h.016v-.016h-.016l-.016.016h-.016v-.016h.016l.016-.016h-.016v-.016h.032v.016h.018l.03.016-.015-.016-.016-.016h.032v.016h.015v.016h.018v.016h.03l.017-.016h.032v.016l.018-.016.016.016v.018h.016v-.034h.016l-.016.016.016.018v.016h-.016l.016.016h-.032l-.016.016-.018.016h-.016v.017h.016v.017h-.016v.016h-.016v.016l.016.017h-.032v.016h.016v.015h-.016l.016.017h-.016v.016l.016-.016.016-.017h.05v-.025h.032v.016l.016.017.016.03h.018V19.6l.016.016h.048v-.016h.018l.016-.016.014-.017h.016v.032h.016v-.032h.05v.017l.016-.016h.016v.017h-.016l.016.017.018-.016v.017h-.018v.016h.018l.016.017-.016.016h.032l.016.017h.016v-.081l-.016-.017h-.02l-.016-.016-.016-.017-.018-.017h.018v-.032l-.018-.017.018-.017h.032l.016.017v-.017l.016-.016v-.048l-.016-.018.016-.016h-.016l.016-.016h-.016v-.016l.016-.032-.016-.017.016-.015.016-.016v-.01l.018-.017h.048l.016.017h.018v-.033l.016-.032.016-.016.016-.018.016-.016V19.1l.018-.017v-.03l.03-.016.017-.017v.033h.034v-.016h-.017l.018-.017-.017-.016v-.014h.035v-.033h.016v-.046l.016-.016v-.034h-.017v.017l-.016-.017.016-.016v-.014h.016l-.017-.017-.016-.016h.016l.016-.017h.015l-.016-.016v-.014l.015-.016h.018v-.017l.016-.017h-.017l.016-.016v.033l.015.017v-.017h.016l.017-.017H14.668l.016-.016h.047l.02-.016h.015v-.016l-.016-.016v.016h-.033v-.016l-.018.016v.016h-.076l.016-.016h.048v-.016h.018l.014.016v-.016l.018-.018.016.018v-.018h.034v-.016h-.018v-.012l.018.016.094-.03.018-.017v-.018h.016l.064-.017h.032l.016-.016h.081v.032h.095l.018.017h.03l.017.015h.034v.016h.032v.017h.016l-.016.016.016.018.033.032h.016v.016h.033l.016.016v.017l.015.018-.016.016.015.016.018.016h.016v.017l.015.016.016.016.017.016v.016h.034l.017.033.018.017v.016l.014.017v-.017l.015-.016v-.087l.018-.05v-.015l.016-.03V18.7l.032-.047v-.033h.016v-.016l.016-.016.016-.03.016-.018h-.016l.016-.017v-.013h.034v-.016l-.018-.016v-.017H15.844l.014-.016.016-.016v-.016h.016v-.016h-.032l.016-.017h.016v-.017h.018v-.016h.048v-.017h.016l.028-.012v-.016h.016l.033-.033h.015v-.033h.033l.016-.017-.016-.017h.016v-.016h.035v-.016h.032l.017-.015.014-.017h.034l.016-.017.033-.015-.018-.016v-.017h-.084v-.033l-.018.032h-.014l.016-.017v-.016h.018l.014-.018h.016l.018-.016v-.016h.016v-.033h-.036v-.017l.033-.016h-.015l-.018-.016-.016-.016-.014-.032v-.017h-.018v.034h-.03v-.024h-.016v-.016h.016v-.016h-.016v-.016h-.018l.018-.016h-.034l.016-.016.018.016v-.016l.016-.017-.033-.016v-.018l.02.017h.015v-.018l-.016-.015v-.018h.015l.016-.032-.015-.017h.033v-.01l.018-.017v-.016h-.018l-.016-.016h.017v-.03l.018-.017h-.035v.017l-.016.017h-.016v-.017h.016v-.017h.016V17.5h-.016l-.016.017-.018.016-.016.017-.016-.017h-.05l-.015.017H16l-.016.017h-.016l-.033-.017-.016-.017v-.016h-.017V17.5l-.016-.016h-.018v.017h-.017v-.016h-.03l-.018-.016-.016-.016-.02.016-.015-.016v-.017l-.016.017v-.017l-.017-.016.016-.017v-.046h-.017l-.016.016-.016-.016-.017-.016v.017h-.032v.016l-.01.017v-.017h-.016v-.047l.016-.016v-.018h-.016l-.014-.017h-.018l-.016.017h.016v.02zm3.65-3.392l-.017-.016h.016v.016zm.32-.208h-.02l-.015-.017h.034v.017zm-6.466 4.192v-.016h.016l-.016.016zm4.96.016l-.015-.016-.018.016h-.032v-.016l.018.016v-.016h.046v.016zm5.072-10.992v.017l.015.016v.015l-.016.015-.015.016v.034h-.018v.016l-.015.014v.016h-.016v.095l-.018.017v.03l-.016.016.016.016-.016.017v.048h-.016l.016.03-.016.034v.095h.016v.016h.034l.016-.016.016-.017.018-.017h.03l.016-.016H23.204l.016-.03.016-.017h.032l.033.016h.032l.016-.016v-.016h.016l.018-.017h.016v-.015l.016-.016V7.31l.016-.048h.032l.018.017.016.015.033.032.028.048v.032l.018.03v.017l-.026.016v.017h-.016V7.648l-.014.016v.016l-.016.047-.018.048-.033.05-.016.015-.016.017h-.031l-.017-.017-.03-.05h-.032l-.015-.017h-.05l.016-.016v-.015l-.016-.017-.014-.015-.016-.016h-.033l-.033-.032h-.032l.016.016v.017l-.015.015h.015l-.016.016v.017l-.015.016h.03v.063h-.017l.016.016h-.016v.03h-.014v.016h-.018l-.016.017v.016h-.016l-.018.015-.016-.016-.016.015v-.017l-.016.016-.016-.016-.012-.016-.015-.032-.018-.032v-.016l-.015-.032-.016-.128-.016-.03-.018-.05V7.47l.018-.017-.018-.016v-.015l-.016-.016-.016-.016h-.03l-.016-.017h-.018l-.016.017h-.016v.016l-.014.016-.03.016h-.035l-.015-.016-.016-.016-.018-.016v-.016h-.016l-.016-.017-.014-.015h-.034l.018.016-.018.017v.112l-.014.016v.017h-.066v.016h.033l.013.016.02.032h.014v.193l-.014.063v.062l-.02.03-.013.05-.018.016v.016l-.03.016H22.4v.017h-.016l-.018.017-.016.016h-.016v.016h-.014v-.018l-.03-.016-.02-.017-.03.017h-.016v.016l-.018.016h-.014l-.018.032v.017l-.014.015v.016l-.018.03h-.016v.035h-.03l-.016.014-.016.032h-.018v.033h.018v.015h.034l.016-.016h.014v.015l.016.016-.016.017h.016v.017l.018.032v.093l-.018.016.018.017h-.018l.018.016v.016h.016l.018.016.014.016.018.017h.016v.017l.016.016v.064l-.016.08v.076l-.016.017v.015l-.018.063v.032l-.014.016-.018.065-.018.033-.033.048-.047.03-.016.018h-.018l-.015.016h-.015v-.016h-.031l-.016-.017h-.033l-.016-.016.016-.015h-.016l-.016.016v.017l.017.017v.016h.016v.016h-.016v.033l.016.016.018.016.017.03v.018l.016.016H22v-.018h.031l.017.016.018-.016h.033V9.31h.111v.017l.048.032.016.03.018.032v.016l.016.017.016.048v.031l.016.064V9.852l-.02.113-.016.063-.016.032v.047l-.033.048-.016.016h-.035v.016h-.014v.05l-.017.063.018.017v.016l-.017.03v.018h-.013v.017l.016.017h-.016v.066l-.018.016h.018v.031l-.018.034-.016.063v.017l-.014.03-.016.033h.016l.014.017v.016h-.014l-.016-.016-.018.047v.066l-.033.08-.016.016-.048.05v.03h-.016v.016h-.016l-.018.017-.016.016-.016.018-.03.03v.034l-.017.017v.031h-.018v.033h-.016v.017l-.02.016.02.016-.02.05-.013.015v.016l-.018.032v.016l-.017.018-.016.016h.016l-.016.017v.033h-.016V11.63l-.015.016.016.017v.016l-.015.015v.016h.016v.017l-.015.05v.032l-.033.047v.016l-.047.064-.018.032-.047.047-.016.032-.033.014h-.015l-.016.018-.017.016h.016v.016h-.017v-.016h-.018l-.016.016-.048.017h-.034v.017h-.032l-.014.017-.018.016h-.016l-.018.016-.062.05-.05.03-.015.016-.018.016-.014.018-.017.016-.05.048-.013.016v.017l-.016.03v.032l-.018.018v.016h.018v.015l-.018.048v.016l-.016.016v.017l-.016.016v.032l-.018.016-.014.017v.03l-.033.033-.03.032v.017l-.034.03v.034l-.018.033-.014.016-.018.03-.016.033-.016.016h-.018l-.03.015v.016h-.017l-.017.017h-.013l-.018.017h-.014l-.064.08-.033.032-.046.048-.047.032v.016h-.02l-.047.032v-.016l-.03.016h-.068l-.016-.016h-.016v.016l-.015.016h-.018v.017h-.016v.016l-.03.032h-.034l-.014.017-.018.016-.016.016h-.016v.017h-.018l-.016.017h-.03l-.017.016h-.017l-.016.017h-.014l-.016.016H19.844l-.03.016-.032.016-.03.018-.034.016h-.01l-.062.016-.018.016h-.063l-.033.017-.03.017-.05.032h.018l.016.015-.033-.016v.015l-.014.016.015.018v.033h-.014v.033l-.017.033v.016l-.016.016-.03.016v.017h-.017v.017h-.05v.017l-.064-.017h-.016l-.03.017h-.035v-.017H19.13l-.013-.016h-.033l-.016-.016h-.031v-.016l-.05-.048-.032-.032v-.016l-.016-.016h.016v-.056h.018l.017-.032.018-.016v-.032l.014-.016.017-.017-.018-.016.017-.015-.018-.016v-.05l.017-.048-.018-.016v-.034h.017v-.016h-.018l-.015.016-.018.016-.016.016v.032h-.065l.018-.016h-.034v-.033h-.044v.016l-.016.016h-.016l-.014-.014.016-.017v-.015H18.8l.016-.016h.016l.016-.034-.016-.016v.016l-.016-.016.016-.016.016-.017v-.03h.016v-.018h.018v-.017h-.018v-.013h.018v-.017l.016.017.016-.017v.033l.018.016h.03v.017l.018.015.016-.016h.018v-.018l.014-.016h.018v-.016l.016-.032.016-.017v-.03h.016l.018-.017h.016l.014-.017h.082v.017l.016-.017.017-.016v-.016h.016v-.014h.018l-.017-.017v-.017h-.016v-.016l-.016-.016v-.014h.017v-.049l.016-.015h.018l.017-.016.03.015h.017l.018-.016h.016v-.034l-.016-.016v-.046l-.018-.016h-.063l-.017-.017-.03.018v.016h-.033v.016h-.068l-.03.016h-.017v.017l-.03.016-.017.016v.016h-.032v.016l-.018.016-.016-.016-.018.016h-.016l-.014.018h-.018l-.016.016h-.02v.016h-.034v-.016h-.062l-.018.016-.016.016h-.03v.016h-.018l-.014.016h-.018l.018.017h-.034v.016l-.016.016v.03h.016l-.016.018h.016v.033l-.016.016v.016h-.018v.033h-.014v.015h-.018v.114h.018l.014-.016h.018v.017l.016.017-.016.017h.016v.017l-.016.016v.033l.016.016v.017l.016.015v.033l.018.018h.014v.049l-.014.032-.018.016v.018h.018l.014.016v.016l-.014.08v.017l-.033.063-.033.064-.014.03-.018.02v.015l-.016.015v.034h-.014v.016l-.016.016-.018.017-.016.016v.016h.016v.015l-.016-.016-.016.015-.016.033-.05.048-.015.032-.013-.004-.016.016-.018.016v.018l-.03.047-.017.017-.017.033-.064.063-.034.017v.016h-.046v.016l-.016.016v.016h-.018l-.016.033h-.014l-.016.013-.016.016-.03.017v.016h-.084l.018.015v.017l.016.016h-.016v.033l-.018.033-.016.016-.03.03-.034.017v.033l-.03.016.015.018h-.016v.046h-.017l.016.018h-.017l-.016.016-.016.032h-.015v.016l-.018.016.018.018.016.03.017.017v.065l.016.03.064.064h.016l.018.047v.018l.015.017v.033h-.014v.049l-.017.017v.016h.018v.015h-.017v.018l-.016.016h-.018v-.017h-.017v-.018h-.016l.016-.016h.016l-.017-.017h.016l-.017-.017V15.374l-.016-.017h.016l-.016-.016v-.015l-.016.016-.015.017-.016.017h-.017v.016h-.018v.033h.018v-.017l.016.017v.031l-.017.018v.016l.016.015v.032h-.017l-.018-.016v.017h-.016l-.02.016h-.013v-.016h-.016v.016H17.64v-.016h-.01v-.016h-.016l-.014.017h.014v.033h.016v.016h.016v.016h-.016v.016h-.03v-.016h-.018v.034h.018v.016l.014.016H17.6l-.018.016v-.016l-.016.016v-.032h-.016l-.018-.016v.016h-.016v-.034h-.048v.018h-.016v.016h.016l.016.016-.016.016.016.017v-.016h.016v-.016h.016v.048l-.016.016h-.016v.017h-.016v-.018h-.066v.017h-.03l-.02-.018v.017l-.032-.018H17.374l.016-.016V15.7h-.017v-.017h.016l.015-.016.016.016v-.032h-.031v.017h-.017l-.018.016-.016.017-.02.016-.013.016h-.016l-.015-.016v.016h-.018l-.016-.016-.013-.016h.014v-.049h-.013v.033h-.034v-.032l.014-.015h-.014v-.018h-.034V15.6h.015v-.031h-.016v.015h-.017v.016h-.016v.017h-.016v.018h-.049v.016h-.033v.033h.018v.017h-.018l.018.016h.03V15.7h.017v.016h.018l-.018.016v.017h-.016v-.018h-.03l-.02.017v.015h-.015v.016l-.013.018v-.032l.014-.016v-.018l.017-.016-.016-.016v-.017h-.013v.017h-.033v-.017h-.018v-.016h-.03v-.016l.015-.015h.017v-.018h-.016l-.015-.016.016-.015v-.016l-.015.015-.014.016v.017h-.02V15.668h-.016v-.049l.016-.03.016-.017.018-.017.014-.016v-.016l.03-.047h.02l.015.016V15.438h.018v-.017h-.033v-.049h-.018v-.017h-.017v-.016h-.016v-.015h-.014v-.015h-.018v.017h-.031l-.018.016H16.8v.016h-.066v.032h-.018v.016H16.7v.017h-.014l-.018.016h-.016l-.018-.015v.016h-.014l-.016.017-.016.018v.016h-.018l-.018.017h-.014l-.018-.016-.014.017h-.018l.018-.016-.018-.015h-.008v.016h-.018v.017h-.016v-.016h-.016l-.016-.015h-.046v-.018l-.018.018h-.048v.016h-.016v-.015h-.018v.016l-.016-.015v.016h-.012v-.015l-.018.016h-.016v.017h-.014v-.016h-.032v-.015h-.016v.016l-.016-.015v.016l-.018-.015-.016-.018-.016.018h-.032v.016h-.018l-.016.017-.012.012h-.016V15.5l-.016.017h-.018v.015h-.048v.016h-.05v.018h-.048v.016l-.016.016h-.02l.02.016h-.02l-.03.018h-.032l-.016.016h-.082l-.047.016h-.076v-.016l-.016-.016-.017.016v.016h-.032v-.016l-.015.016h-.016l-.017.016H15.068l-.017-.016h-.049v-.016h-.016l-.016-.016-.016.016h-.064l-.02.016h-.015l-.016.016h-.015l-.016.017h-.01v.015h-.016v.016l-.018.018h-.049v-.017h-.047l-.047-.015V15.7l-.033-.018-.016-.03V15.6h.03l.02-.015h.046v-.016h-.046v-.02l-.018.017v-.017l-.016.017h-.03v-.017h-.016v.017h-.034v.016l-.016-.016v.016l-.016-.016v.016h-.016l-.018-.016v-.017h-.016l-.016-.016v-.016h-.028l.016.016v.016h-.05v.049l-.016-.017h-.014v.031l-.016-.016-.018.015V15.6h-.032v.049h-.014v-.017l-.016.016-.033-.017-.03.016h-.08v.015l-.033.016-.047.014h-.03l.015.016H14v.016h-.032l-.033.017v-.017h-.033l-.016.017H13.836v.031h.032l.017.017h.016v.065l-.016.05-.018.015-.017.016-.016.016-.016.017H13.77l-.015.018-.03.016-.017.016v.016h-.016l-.018.018v-.018h-.016v.018h-.016v.016h-.016v.016h-.018l-.016.016h-.016v.017h-.016v.031h-.016l-.018.018h.018l-.018.016v.016h-.016l-.016.016h-.016v.018l-.016.016v.016h-.018v.016l-.016.017h-.016l-.016.015h-.032l-.033.017-.015.016-.016.016-.017.016-.018.018h-.016v.016h-.017l-.03.016h-.02v.032h-.015l-.016.017v.016h-.016v.032l-.016.017h-.018v-.035l-.016.017h-.016v.015l-.016.018-.016.016v.016h-.016l-.018.016-.016.016v.018h-.016v.016h-.05v.016l-.016.016h-.016v.049h-.016v.016l-.03.016h-.02l-.015.016h-.035l-.016.017h-.049.01-.016l-.018-.017v.017h-.016v.017h-.03l-.016-.017h-.018l-.016.017v.016h-.016v.016h.016v.016h-.046l-.016.017v.049l-.018.016-.016.017h-.014v.016h-.016v.016h-.034v-.016h-.016v.032H12.4v.016h.016v.034h-.032l.016.003h-.016v.016l-.018.016h-.016l.016.018h-.016v.015h-.016v.017h-.08v.032h-.014l-.016.016h-.016l-.018-.016h-.016v.016h-.014l-.016-.016h-.018v.016h-.016l-.016-.016v-.016h.016v-.018l.016-.017h.034v-.015h-.034l-.016.015h-.03v-.015h-.016v.032l.016.016.016.016h-.016v.016h-.05v-.016h-.016v-.032H12l-.03-.017h-.02v-.015h-.015v.015h-.065v-.015h-.017l-.016-.018v-.016l-.016.016v.018l-.017-.018v.033l.018.017H11.872l.017.016.016.016v.016h-.081l-.017.017h-.032v.017h-.015v-.017l-.016-.017-.017.017v.065h-.016v.017l-.018.017.032.03v.017l.016.017.016.017-.016.032h.016v.064l-.016.017h-.016l-.016.016h.016l-.016.016h-.018v-.017h-.016v.08h.016v.034h.018l.016.016v.034h-.016v.016h.016v.067l-.016.03v.017h-.018v.017h.018v.032h.016l.016-.016-.016-.016h.016v-.017h.016v-.027h.016v-.016l.03-.017h.02v-.016l.015-.016h-.016l.015-.032.016.018v-.018l.02-.016v-.016h.015v.016h.016l.017.016.016-.016.016.016.017.032.016.017H12l.016-.03v.015l-.016.017h.016v.016l.016-.016v.049l-.016.017.033.032v-.017h.015v.016h.016l.017-.017v.016h-.017v.015h.016v.017l.03-.017h.02v-.016h.032l.016-.017h.035l.016-.017h.016l-.02-.016.016-.016.016-.032v-.032h.016v-.033h.018l.016-.016v.032h-.016v.033h.016v.017l-.016.016h.016v-.016l.016-.017v.017h.016l-.016.032h.05v-.017h-.018v-.016l.018.017h.012v-.016h.016l-.016-.014v-.015l.016.016.016-.015v.016h.016v.017l-.016.016h.034l.016.016v-.017h.016l.016-.017h.018v-.032l.016-.017v.034l.016.017.016-.017v-.015h.066v-.017h.016v.018h.016v-.017h.034v-.016h.032v.016h-.024v.018h.016v-.017h.048v.018h.016l.018.016v.017l-.018.016h-.016v.016h-.016v.016l-.016.016h.032v-.018h.016l.018-.016.016-.017h.016l.018.017v.016h.016l.03.032h.017v.032h.033l.018.017.017.018.05.03h.061v.017h.017l.018.016.016.018h.015v.017h-.016v.03h-.017L13.125 18l-.016-.016v.032h.015v.016h-.016v.017h-.017v.015h-.016v.017h-.016v.016h.033v-.016l.016-.017.015-.016v-.018h.065l.017-.016h.018v-.032h-.018v-.017h-.016v-.049l-.015-.016.016-.016-.015-.017v-.018h.08l.017-.03v-.018l.017-.016.018-.016V17.72l-.018-.015v-.033l-.016-.064h.035v-.03l.016.03.017-.03v-.017h-.016l.017-.017-.016-.032h.017v-.016l-.016-.017h.017l-.016-.015-.015-.016h.016v-.018l.017-.016h.016V17.4h.016v-.01h.017v-.017l.03-.016v-.016l.017-.015v-.016l.016-.018h.016v-.017h.034l.016-.016h.032l.018-.017-.018.03h.018l.016.018v-.016h.016v-.016h.016v.016h-.016v.017h.032v-.016h.018l.016-.016v.016h.016l.016.017h-.016v.018h-.016l-.016-.017v.034h.016l-.016.03h.016v.017l.016.034-.016.016v.016h.016v.017h.034l.016.016h-.016v.015h-.018v.033h-.016l-.016.016h-.016v.033h-.018l.018.03h.016l-.016.017h-.018l-.016.017h-.016v.017h-.016v.033h.066v-.016h.016v.016l.016-.016.016.016v.034h.018v-.034l.016-.016v-.017l.016.017.016-.017h-.016v-.017h-.016l-.016.016h-.018v-.016l.018-.017v-.016h-.018l-.016-.016v-.015l.016.016v-.015l.018-.017v-.017l.016-.015.03-.016v-.018h.033v.017h.018v.015h.033V17.5h.031v-.018h.016v-.012h.082v-.016h.018v-.017h-.034l.016-.016v-.015h.018v.016h.016v-.015L14 17.373v-.016l.016.016v-.016h.032v.032h.034l.016-.018v-.016h.016l.018-.016h.016v.016h.016v-.016h.016l.016-.016v.016h.048v.016h.016l.017-.016h.016l.018-.016h.017v.016l.016-.016.016-.032-.017-.017-.016-.016h.032l.032.015h.008l.016-.016.05-.017h.015l.017-.016v.016h-.017l-.016.016h-.018v.015l-.016-.016v.015l-.016.017h.032v.017h.05v-.018l.016-.017v-.016h.016v-.017h-.016l.016-.016h-.016v-.017h.016v-.017h.034v.017l.016.017h-.018v.016h-.016l-.018.016.018.015.016-.016h.016l.016.015h.016l.018.017v-.017l.016.017h.016v.017h.016v-.018h.034v-.017l.014-.016v-.017h-.014v-.013h.014l.018.016v-.016l-.018-.017v-.017l.018.017.03.017v-.017l-.015-.017-.016-.016h.031v-.03h.02v.016h.01v.016l.016-.016v-.016l-.016-.016h.016v-.015l.016-.02v.02l.016-.02v.02h.016v.031h.016v.017h.066v-.034h.034l.016-.015h.016l.016-.018h.016v-.016l.018.033.016-.018h-.016v-.017h.016v-.03h.016v.017l.016.016-.016.016v.065h.034v-.032h-.018l.018-.015.016-.018v.05h.016v.016h.016v.032l.016.017h.016l.018.017v-.017l-.018-.032h.018l.016-.016h.016l.03.015h.02v.016h.046v-.015l.016.016V17.15h.02v-.017l.015.017v-.017l-.016-.015.015-.018v-.016h.033l.016-.016v-.017h.016v.018l.017-.017v-.032h.016v-.028h-.095l-.017.03v.034h-.017v-.033h-.016v-.03l.016.016.018-.016v-.016l.017.016.016-.016h.081v.016l.016-.016h.016l-.016.016v.016h.032v.016l.033-.016h.016v-.016h.02v-.016h.013v-.017l.016.017v.016h.017l.016-.016h-.016v-.034l.016-.016h-.016v-.014h.016l.016-.017v-.016h.017v-.017h.032l.015-.016h-.016v-.014h-.033v-.016H15.7v-.017h.033l.016.017.03.016v-.016l.016-.017h.018l-.018.017v.032l.018-.016v.016l.016-.016v.016h.018v-.016l-.018-.016v-.017l.018.017.014-.017h.032v-.033l.018.032h.032v.017h.016v-.017h.016v-.034h.018v-.013h.016v-.017l-.01-.015v.033l.016.017v-.017h.05v-.017h.016v.017h.082v-.017l.016.017.018-.017v.017h.014v-.017l.016-.016v.033h.034l.016-.017h.018l.016.017h.032v.032l.016-.016v.016l.033.017h-.016l.016.016.016-.017v.047h.03l.016-.016.016.017.018.016h.016l.018.032h.032l.03.032.034.016h.048v.017h.08l.016-.017H16.8v-.016h.048v-.05h.05v-.017h.048v-.016h.016v-.014h.066v-.016l.016.016h.018v.032h.048l.018-.016h.016v.016h-.016v.017h.032l-.03.015h.015v.017h-.016v.016l.03-.016v-.017h.016v.017h-.016l-.016.016h.016v.016h.016v-.016h.016v.016h-.016v.035l.016-.017v.018h-.048v.016h.032l.016.016-.03-.016v.016h-.017v.016h.033v.033h-.016v-.017l-.015-.017v.017H17.11v.016h.02v.016h.015v.016h-.016v-.022l-.02.016v.016h.035v-.016h.016v.016h-.015v.018H17.11l.02.015h-.035v.033h-.016v.032h-.017v.017h-.018v.017h-.016v.016h-.015v.032h-.018l-.033.017v.016l-.016.016h-.016l-.014.016-.033.03h-.016l-.02.018h-.05v.017h-.05l-.033.016v.015H16.7v.066h.035l.016.017h.017l.016.016v.034h.017v.016h-.018v.016h.05v.032h.016v.016l.018.017h-.018l-.03.016v-.015H16.8l-.018.016h-.016l.016.017-.016.018v-.018l-.016.018v.032h-.016v.016h-.018v.017h.066v.016h.018v.016h.016v.017l.016-.018v.017h-.016v.015h-.034v.034h-.032v.017l-.016-.017v.017h-.018v.033H16.7l.016.016h.018v-.016h.016v.016h-.016l-.018.016v.049h-.03v.031h.063l.015-.015.016.016.02.018.015.016v.034h.016v.032h.017l.018.016h.016v.017h.017v.031h.018l.014-.016.015.015h.033v.016h.016l.018.018v.017h.03v.016h.017l.015.017h.016v.034h-.015v.017H17.04v-.016l-.015.017v.016l-.014.017.03.016h.033v.016l.016.017v.031h-.017v.017l.016.017v.017h.033v.017h.016l.015.016.016.016.017-.017v.016h.032v.016h.02v.017H17.268v.016h.048v.015h.048l.018-.016.016.015.016.016h.016l.016.017.018-.016.016.017h.064l.018.018.016-.018v-.016l.016-.015h.018v-.016h.03v-.017h.015l.017-.017h.016l.018-.017.017-.017h.014l-.013-.016h.014l-.013-.016h.034v-.016l-.02-.017.02-.016.015-.015v-.016h-.016v-.018h.015v-.016h.034v-.016l-.017-.017h.016l.015-.016v-.033l.016-.016-.015-.016h.033v-.015l.016-.033.016-.047.017-.033.033-.063v-.017l.03-.017v-.016l.017.016h.016v-.016h.018l-.017-.016h.018v-.016h-.017v-.017h.018l.015.018v.016h.018v-.016h.014v-.017h-.014l.014-.016h.018v.017h.016v-.016h.02v-.016l-.02-.016v-.016l-.015.016.016-.03-.015-.018h.016l.02.017.013.017h-.014v.016h.046v-.03h-.018v-.043h.017v-.017h-.018l.032-.016-.016-.016h-.034v-.046h-.047v-.017H18.12v-.047h.013l.016-.02h.017v.02l-.033.014.016.017v-.016h.018l-.018.017.018.017v-.016h.032l.016-.03H18.2v-.018l-.016.018v-.034h-.016l.016-.016v-.017h.016v-.03h.05l-.018-.016h.018v-.031h.016v.033h.016l.033-.03v.015h.016v-.016h.033v-.016h.03l-.013-.017h.014l-.014-.016h.014v.016l.018.017H18.4l.016-.017H18.4v-.016h.016v-.046h.016v.016l.016-.016h.018v.049h.016l-.016-.017h.016v-.033l.016-.016v.016h.016v.032h.016l.033-.032h.016v-.016h.015l.018-.017v-.016h.014l-.014-.015v.016h-.034l.015-.015h.018v-.015h.014l-.014-.017h.032l-.018.017v.017h.018v-.017l.016-.032v.032l.017-.017h.018v.017h-.033v.017h-.022v.032l-.018.016h.034v-.017h.066v-.017h.016v.032h.032v-.017h.018l-.018-.017v-.016l.018.016h.012v.016h.032v.016h-.016l-.03-.017v.016h.014v.016h.032l-.016.016h-.032v-.018h-.082l.018.016.016.017.016-.017.016.017h.048l.016.016v-.034h.032v-.016h.034l-.016-.016v-.048h-.018v-.032l.018-.016-.018-.016v.017l-.016.016v-.032l-.016.017v-.016h-.016v.017H18.8v-.016h.016v-.015h.016v.016h.016l.016-.015v-.016h.018v.015h.016v-.034l.016-.017.018-.016h-.018v-.047h-.034v.017h-.018l.018.016h-.018v-.033h-.016v-.017l.016-.016h-.032v.016h-.016v-.016l.016-.016-.016-.016v-.017H18.8v.034h-.016v-.031h-.095l-.018-.015h.018v.015l.014-.015-.014-.018-.018.018h-.016l.016-.018v-.016l-.016.016v-.016l-.014-.014h-.03v-.017l-.02-.032h-.015v-.015h-.065l-.015-.016-.016.015v-.015h-.035v-.016h.018v-.064l.016-.017-.017-.016v.016h-.018l-.016-.016v-.047l.015-.016v-.034l.018-.016.016-.032v-.016l.015-.016.016-.032.034-.03.016-.02.016-.03v-.032h.016v-.046l.018-.016h-.018v.016h-.016l-.016-.016v-.016h-.016l.016-.017h.032l-.016-.016h.034v-.03h.014l.018-.016v-.016l.016.016v-.048l.016.016v.018h.018v-.034l-.018-.016h.018v.016l.014.016h.018v-.016l.016.033v-.018h.016l.016-.016.018-.017h.01v-.063l.016.017v.049h.016l.016-.016v-.017h.016v-.016h.018v.016l-.018.017h-.016v.032h.016v-.016l.018-.016v.016l-.018.016.018.016h-.034l-.016.018v.016l-.016.016h.016v.016l-.032.028v.064l-.016.032.03.046v.016l.017.018v.096l-.015.017v.03h.016v.018l.032.018.018.016h.016v.032l.016-.016v.016h.032l-.014-.016h.03V16.814l-.047-.033-.016-.03v-.017l.016-.016V16.7l.018-.03-.017-.032v-.018h.033v-.016l-.014-.016h.031v-.016l.02-.016v.03h-.02v.033l.02.017-.02.016h.02l.015.016.018-.017v.048h.014v.016h.018l-.018.016.033.017.016-.016h.016l.018.017.016-.016h.082v.034l.016-.016.016-.016v-.03h.016v-.018h.016v-.016l.018.016h.016v.017h.032v-.017h.016l.018.017.016.016v.015h.032v.017h-.03v.049h.018l.016.018h-.048l-.016.03.016.017v.017l-.016-.017v.017h-.018v-.017h.018v-.048h-.034v.032l-.03.016-.017.017h-.035v.016h-.016l-.017.016h-.066v.016h.016v.016h-.034l-.03-.016-.017-.016-.016.016-.03.096h-.02v.017h.035l.05-.017h.076v-.016h.02l.03-.016h.016l.05-.016.03-.017.033-.017h.016l.03-.016.112-.032h.066l.03-.016h.095l-.013-.017h.032v.017l.11.016h.034l.016.017v-.017h.018v.017l.016.016.014-.015v-.017h.016v.017l-.016.016h.034l-.018-.015h.018v.016l.033-.015.046-.017h.016v-.016l-.016.016-.018-.016-.016.016v-.016h.05l.016.016h.095l.065.017h.03l.05.03h.03l.017.018.03.017H20.45v.016h.016l.016-.016h-.016l-.016-.017-.018-.032v-.07h.018v-.046l.016-.033.03-.015.017-.016h.035v-.018l.016-.03v-.018l.017-.016.018-.016v-.034l-.018-.016v-.03l.033-.017v-.032l.014-.017h.034v-.016h.016l.018-.016h.03v-.017h.032l.016-.032h.018l.014-.016.018-.017v-.034h-.018v.017h-.014v.032h-.018V16.348l.018-.016.014-.016h.018l.016-.017v-.047h.018l.016-.016.03-.016h.066l.03-.017v-.016h.034l.015.016h.033l.064.018.047.032v.016h.017v.017h.016l.016.032h.015l-.016.016.015.016h-.049l-.018.015v-.015h-.08v.034l-.018.03h.018v.017l-.018-.015v.05l.018.017v.017l.014.016-.014.017-.018.015-.016.018.016.016v.015h.018v.016h-.018v.117h.018l-.018.032v.016h-.016v.066h.016l.018.03h.032l-.018.018-.014.016h.014v.017h.018v.017h.016v.016h.016l.016.017h.018v-.017l.016.017v-.017l.016-.016h.016v-.027h.034v-.032h.016l.018-.017.014-.015v.034h.032v-.08l.018-.017v-.016l.016-.032h.018v-.016h.03V16.7l.016-.032v-.016l.018-.016v-.046l.016-.016h.016v-.016h.016l.018-.018v-.062h.016l-.016-.05v.017l-.018-.016v-.017h-.032l-.016-.03v-.02h.016v-.043l-.016-.018h-.018v-.064l.018-.016v-.018l.016-.03h.016v-.017h.016v.016h.034l-.016-.016-.018-.017.018-.016-.018-.016v-.062h.018l.016-.034.03-.015.065-.05h.016l.08-.015.048-.016h.048l.018-.016.047.016h.017l.05.016.015-.016.018.016.014.016v.017l.016.017v.016h.016l.018.016v.033h.034v.016l-.018-.015v.016l-.016.017h.016l.018.016h-.038l.018.017v.016h-.018v.016l-.016.017h.016v.015h.018v-.016h.064v-.034h-.018v-.016h-.016v-.017l.016-.016.018-.016h.016l.018-.015v-.018h.014v-.016l.018-.015v-.016l-.018-.018v.017h-.014l-.018-.018h-.018l-.018-.032v-.016h-.016v.032h-.014v-.016h-.016v-.016h.016v-.016l.014-.017h-.03v-.032h.016v-.032l-.016-.016h.016v-.01l-.016.017h-.016l.018-.017h-.018v-.017l.033-.016.014.016h.016v-.032h.018l-.017-.016h-.016l-.014-.016h-.033v-.032h.018l.03-.016.015-.016h.018v.016l.017-.016v-.016h.018l.014-.018.017-.016v-.016h.016v.016l.016.016h.015v-.016l-.016-.016v-.016l-.02-.012h.016v.017l.016.016v-.033l-.016-.016h-.032v-.016h.03V15.5h-.014l-.016-.048v-.049h.016v.017l.016-.017v.017h.016v-.017h.018v-.013l.016.016v.032l.016-.016-.016-.017v-.015l.016.016v-.032h.016v.048l.016.016v-.016l.016-.017v-.015h.018v.033h-.018v.031h.03v-.016h.032v-.017l-.014-.017v-.016h.014l.016-.016h-.016l.016-.017h.016v.017h.018v-.017h.014v.049l.02-.016h.014v.016l.033.017.047.05v-.02l.018.02h.016v.015l.016.016h-.02l.016.017h-.03v.017h.03v.016l-.03-.016v.016l.015.017h-.015l-.018-.017v.017h-.016v-.02l-.015.017-.016.03h.015l-.016.017v-.016l-.017.016.016.018h-.017v.032l-.018-.016-.014.016v.016l-.02-.016-.013.016v.017h.014l-.01.013h-.048l-.032.032h.018l-.018.016.018.016v.017l-.018.017v.032l-.016-.017h-.018l-.03-.016v.016l.015.016-.015.015h.016l-.015.016v.018h-.015l-.016.017h-.033l.05.016h.016l.016.017v.033l.016.017.018.016v.031h-.034l-.016.033h-.016v.064l.016.016.016.017-.016.016v.033h.016v.035h-.016v.016l.016.032h-.032l.016.016h.016l.016.018.018.016v.016l-.018.016h-.03l-.017.018h-.064v.032h.034l.03.016h.017v.016h.016v.034l.016.016.017-.016h.075l.018-.017.014-.017.02-.03v-.08h.014v-.017l.018-.017.047-.048h.049v-.016h.016l.015-.017V16.2l.018-.017v-.016h.014v.016h.018v-.016h.049v.016h.018l.017-.016h.014l.02-.017h.015v-.016l.016.016.02-.016v-.024h.015l.016.016h.017v-.032l.018-.03h.033l.016-.017.016-.05v-.096l.015-.016-.016-.032-.017-.016v-.016l-.016-.05.016-.015v-.08l.016-.016.015-.065.033-.063.016-.016.016-.032.047-.05.082-.08.063-.047h.016l.03-.017h.016l.016.017h.018l.062-.032h.049l.02.016h.015v-.015l.014-.016v-.017l-.015-.016H23.5v-.017l-.015-.016-.033-.032-.03-.05-.032-.046-.033-.08-.016-.016-.015.016-.016.016.015.016h-.016v-.016l-.017-.016h-.018v-.016l.018.016h.016l.015-.016v-.033l-.016-.017-.017-.016v-.016l-.018-.016h-.016v-.033l-.017-.033-.016-.016-.016-.03-.017-.065-.033-.08-.016-.08-.016-.047v-.048l.016-.017h.016v-.016l.018-.016h-.028l.018-.015.016-.018v-.007l.018-.016-.018-.016v-.016h-.016v-.129l.016-.016v-.016l.018-.032v-.016l.016-.032v-.016l.016-.032v-.016l.016-.016v-.033l.016-.016v-.015h.018v-.078l.016-.03v-.066l.016-.016v-.016l.016-.032h.032v-.033l-.016-.016v-.034l.016-.016v-.032h.018v.016l.016-.016h.016v-.018h.016v-.016h.032v-.016h.018l.016.016.018-.016v-.016h.016l.014-.017v-.016h.016v-.18l.018-.016v-.048l.016-.016h-.016v-.098l.016-.016-.016-.016.016-.033v-.112l.018-.016v-.033l-.018-.032V12.676l-.016-.064v-.08l-.028-.02v-.066h-.016v-.11l-.014-.016-.016-.016v-.018h-.018v-.062h-.016v-.016h-.018v-.018l-.016-.016v-.048h-.016v-.047l-.016-.08-.016.016v-.016h.016v-.065h-.03v-.016h.03v-.049l.016-.063.017-.032v-.016h-.016v-.016h.017v-.034h.016l.018-.03.017-.05.018-.016.016-.016h-.015v.016h-.018l.018-.016h-.018v-.016h.065v-.016l.02-.016h.015v-.017l-.016-.018H23.533v.017h-.014l.014-.018v-.016h-.014v-.016h.014l.016-.016v-.033h.018l.016-.016v.017h.05v.016h.016v-.015l.016.033v-.032l.016-.016.05-.032h.015l.016-.016h.129v.033h.033v-.01l.014-.016v.016h.017v.017h.034v.016h-.015v.017h-.018v.015h.034v.018l.01-.02v.018h.016l-.016.016-.016.016H24v.016l.016-.016v.016l.016-.016.018.016.016.033.016.017v-.065l.016-.015h-.018v-.033h-.016v-.03h-.05v-.017h.034v-.015h.016l.016.017v-.033h-.032v-.016l-.018-.017v.018l-.016.016v.016H24v-.049l-.016-.015-.016-.016h.016l.016.016h.032v-.033l-.016-.017h.016v-.046h-.016L24 11.214h.032l.018.017v.017h.016l.016-.016-.016-.016h.016v-.016l-.016-.017v-.03l-.016.016-.018.016h-.016v-.032h-.032v-.034h.032V11.1h.016v-.016l.018-.032v-.016l-.018-.017-.016.016H24v-.017h-.05l.018-.017-.018-.016h.034v-.016l.016.02h.016v-.016H24l.016-.017v.017l.016-.017.018-.032h-.018l.018-.016v.015h.016l.016.016v-.062l-.016.016-.016-.016v-.018h-.018v-.046l.018-.017h.016l.016-.016h.016v-.016h.016v-.014h-.016v-.08l-.016-.016v-.016h.016v.016l.016.016h.016v.016h-.016l.016.017h-.016v.017h.016v.016l.018.016v-.082h.016l.016.032h.018v-.017l-.018-.016h.018l-.018-.017-.016-.016v-.063l-.016.016v-.048l-.018-.017v-.015l.018-.016h.016v.016l.016-.016h.018v.016h-.018v.033h.018v.017h.016v.016l.016.016v-.016h.014v-.033h-.014v-.033h.032l-.018-.03-.014-.018.014-.016v-.016l-.014-.016h.014l-.014-.016h.014v.032l.018.017h-.018v.016H24.296v-.016l.016.016v-.033h.016v.032h.032l.018-.016h.016l-.016-.017-.018-.017h-.016l.05-.016h.006v-.017h-.064v-.046H24.386v.016h.015v.016h.016v-.016l.016-.016h.016l-.016-.016H24.4l-.016-.017h.016l-.016-.015h-.016l-.018-.017h.066v-.016h.016l.016-.016v-.016H24.4v-.018h-.016v-.016l.016.016h.016l-.016-.013h.03v-.017h.017v-.016h.018v.016h.016v-.016l-.015-.016.03-.015h-.049l-.016.016v-.015h-.016v-.018H24.4v-.016h.032l.016.017v-.016l-.016-.015v-.016H24.4v-.017h.048l.018-.017h.032v-.028l.018-.016h-.018v.016h-.034l-.018.016v-.016l-.016.016h-.03v-.016h.016v-.016h.05v-.015l.014-.017v-.016l-.016.016h-.018v-.016l.018-.03.016-.017V9.87h.016v.017h.032V9.87l.018.017.014-.017v-.016l-.014-.016h.014l.018-.032-.018-.017h-.014l-.018.016-.014.017-.018.016-.016.014v-.016h-.016v-.016h-.018v-.016h.018V9.79h.05v-.017l.013-.016v-.015l.018-.017h.014V9.71h.017v-.032l-.018-.016v-.016h-.032v-.048h-.014v-.065l-.018.017-.016.016-.033.08-.016-.016.017-.017v-.047h.018v-.048h.016v-.032h-.032l.018-.016v-.032l.016-.03-.016-.017.016-.016v-.016h-.016v-.062h-.018V9.23l-.016-.017-.016-.017v-.014l-.016-.016v-.033h.016v-.048l-.016-.032v-.016l-.016.016v-.016h-.034l-.016-.032-.014-.016h-.016l-.016-.017-.018-.016V8.94h-.016l.016-.015-.015-.015v-.015h.016v-.017l.02-.017h.015v-.014l-.016-.016v-.016h-.02l-.015-.016h-.032V8.75h.032V8.72l-.018-.017v-.017l-.013-.016v-.016l-.016-.016v-.016h-.016v-.017l-.018-.03-.014-.017v-.016l-.05-.048V8.46h-.015v-.016h-.015l-.016-.032h-.016l-.018-.016v-.016h-.016v-.017H24V8.35h-.016v-.016h-.016v-.016h-.018v-.016l-.016-.016-.014.016v.017h-.034l-.033-.018v-.016l-.03-.063-.032-.064-.032-.097v-.017l-.03-.128V7.87l-.017-.048V7.79l-.017-.032h.018l-.017-.032v-.401l.018-.064v-.096h.017v-.048l.016-.016v-.016l-.015-.016h.016V7.02l-.016.02-.033.03-.016.032-.065.048h-.094l-.032-.032-.033-.016-.032-.032h-.016v-.03h-.016l-.015-.02v-.014h-.018l-.014-.016h-.03v-.016h-.095v-.016H23.2l-.018-.016v-.016l-.015-.016h-.017l-.016-.017v.017l-.015.016zm-.896 8.576h-.018l.018-.016v.016zm5.63-11.408v.016l-.015.016h-.015l.014-.016-.015-.032v-.016l.03.032zm-.51.352v.016h-.017V4.43h.016v.016zM23.825 1.15h-.02v.016l-.014.016v.064l-.033.048-.032.017h-.066l-.016.017H23.6v-.032l-.02-.016-.015-.017-.015.018v.064l.018.032v.049l-.018.032-.016.032v.016l-.014.032-.016.032v.048l.016.048.03.08.05.096.03.064h.017l.047.128.018.032v.016l.016.048.016.048.016.064v.065l.016.08.018.03v.082l-.02.015v.016l-.015.033v.015l.015.048v.032l-.016.048v.017l-.016.03-.016.016v.017l-.016.016v.015l-.018.032v.033h-.016l-.016.016v.014l.016.032v.064l.016.064v.128l.018.048v.065l-.018.032v.064h-.016l.016.016-.016.016v.016l-.016.017v.016l-.016.015v.017h-.034v.016l-.01.012-.02-.016-.014.016-.018.016-.016.016h-.014l-.033.016-.033.016-.016.018v.016l-.016.016v.016l-.014.03-.016.032v.032l.016.033.016.016v.047l.016.018.016.03.018.017-.02.015-.015.063v.032h.015v.033l.018.015.016.032.017.016.016.048v.05l.014.032h-.014v.064l-.018.014v.017l-.018.017-.016.016-.048.08-.016.016-.03.014-.018.016-.047.033-.015.015-.014.015h-.017l-.016-.016h-.016l-.03-.016-.033-.016h-.049l-.014-.018v-.03l.014-.016h-.014v-.016h-.048v.017h-.05v.03h-.062v.016h-.018l-.03.018h-.016l-.018-.018h-.016v-.032h-.016l-.018-.016H22.8l-.016-.017h-.018l-.03-.015H22.7V4.43l.018-.016h-.018l-.014-.016h-.034v-.015h-.014l-.016-.017-.017-.016-.016-.016-.015-.016h-.015v-.016h-.048v.032l-.032.03h-.018l-.015-.015v.017H22.4v.063h-.016l.016.016-.016.016v.081l.016.03h.018l.03.03.015.017.03.02.02.015v.015l.015.016v.032l.033.017v.015h.017v.016l.016.016h.016v.064h-.017l-.016.018-.017.014h-.016l-.03.032h-.02v.016l-.014.015-.018.02v.015l-.015.015v.016l-.016.032h-.013v.016l-.017.016-.016.016v.08h-.064v-.03h-.016v-.018h-.016L22.27 5.1h-.016l-.014.05-.016.016v.032l-.018.016h-.032v.016h-.014l-.018.03-.016.017-.014.017h-.082v.017l-.016-.016L22 5.31h-.033v.017h-.016l-.017.016-.016.016v.015l-.016.018v.016h-.015v.06h.016v.047l.017.034V5.71l-.016.032v-.015l-.015.03v.018h-.016v.015h-.017v.048l-.018.016.018.018v.016l.016.016v.016h-.017l.016.048.015.017h.065l.016.016v.017l.016.017.018.016v.017l.014.016V6.1l.016.015h.083v.016h.014l.033.034.016.03.018.018v.016h.014v.017h.018v.025l.016.016.016.017v.032l.016.048v.081h-.016v.097H22.206v.067l-.014.015v.028h-.018v.016h-.014v.016l-.018.033v.031l-.016.032h.016l-.016.017v.111l.016.032.033.063v.05l.03.016.02.017.015.016h.032l.018-.017h.032l.016.016.016.015.016.017h.018v-.018h.012v-.016l.018-.032V7.07l.014-.016V7.02l.03-.015.052-.016h.014v-.016h.034l.03-.016.017-.016.017-.032v-.016h-.018V6.75l.017-.016V6.72l.016-.02h.049l.014-.015.013-.015.03-.016.017-.016h.018v-.033l.015-.015v-.065l.03-.017h.033l.018.016h.017v.016h.016v.047h-.016v-.016l-.017.016v.034h.032V6.59h.016l.018-.016h.03l.048.016h.033l.03.016.048.018.016.016.02.016h.049l.015-.016H23.286v-.035h.016V6.59l.017-.016.016-.016v-.016h.049l.016-.016.015-.017v-.016l-.016-.016h-.017l-.018-.016.018-.018-.024-.014h-.033l-.016-.016-.015-.016H23.26l-.015-.017-.016.018-.017-.017h-.016l-.047-.014V6.35l-.016-.016-.016-.016v-.016l-.014-.017-.017-.015v-.016l-.03-.016h-.02v-.016l-.015-.016h-.016l-.016-.017v-.016h-.016v-.031h-.03v-.018l-.018-.016v-.016l-.03-.016-.016-.016h-.034v.016h-.062l-.018.016h-.016l-.016.016-.014-.016h-.032l-.033-.016v-.016l-.015-.016h-.016l-.017-.016-.016-.017h-.015v-.015h-.015v-.016h-.016l-.018-.017-.014-.017h-.032l-.018-.016h-.045v-.014l-.017-.03v-.081l.018-.08v-.033l.03-.08.046-.08.05-.063.017-.016.017-.017v-.015h.016l.016.016v-.016l.017.016v-.016h.032l.032.032h.014v-.016h.018l.03-.016h.083v.016h.016l.016.017.033.016v.018h.017v.016l.016.016h-.016v.016h.034v.018h.017v.016h.016v.016h.031v.016l.016.017.017.015.018.048V5.71h.016l.017.017h.032l.015.016v-.016l.016.016v.032h-.015l-.016-.017-.015-.017v.016h-.018l.018.03h.014v.017h.066v-.049h.018v-.016h.016v-.015l.015-.017.03-.048.05-.048v-.016h.03l.017-.016h.018l.03-.03.017-.034h.016l.016-.016.032-.032.018-.016h.016l.014-.017.033-.03h.016l.017-.017.094-.05.034-.015.016-.016.05-.018h.078l.05.017h.063l.064.03h.016l.016.016h.016v.016h.016v.018l-.016-.018v.018l.05.016.032.03h.016l.016.018.014.016.018.017h.033l.017.016h.03l.05.016h.013l.03.015.034.033.03.03.02.018.044.03.035.018.016.016h.015l.014.016.032.017h.03l.02.017.03.03h.016l.018.018.047.016h.033l.016.016.016.017h.033l.03.03h.033v.02h.033l.018.015h.031l.016.016.032.016h.034l.03.016h.05v.016l.016-.016h.034v.016l.016.017.03.017.032.016.05.032h.03l.016.016h.018v.017l.03.032v.016l.017.016.033.033h.016l.016.016h.018v-.058l.016-.047v-.016h.016l.014-.017V6.03l.018-.017v-.16l.016-.03V5.79l-.016-.016v-.016l-.018-.03V5.63l.018-.048.016-.05.05-.095.046-.096.018-.03.03-.033.032-.08.018-.016.03-.046.02-.017.03-.048.016-.018.022-.046.018-.016.016-.016.03-.016.034-.05.03-.047.032-.03.033-.03.014-.02.016-.015.05-.03.032-.033.03-.032.032-.016.033-.015h.018l.014-.034.048-.016.08-.016.033-.016h.047l.016.016h.016v.016h-.016v.016h.05v.016h.048v.018h.046l.018-.018h.064v-.017h.096l.016.016h.114v-.015l-.02-.015h-.017l-.03-.016v-.032l.03-.064.017-.018v-.016h.081v-.048h.017l-.016.016h.065v.016h.03v.033l-.015.017h-.066v-.018h-.031v.047l.017-.016.016.016.018.016v.018l.017-.018h.081l.03-.016h.016l.016-.016V4.48h-.016l.016-.018h.018l.016-.016.016-.017v-.016h.016l-.016-.016h.016v-.015h.016v-.017l-.016-.032v-.016l.016-.017.016-.015h.018l.016-.016.018.015h.032l.03-.032.034-.016.014-.016h.016v.017l.018-.016h.016v-.014h.034l.062-.017h.067v.016h.014l-.015.017H27.864v-.017l-.016-.017v-.016l.015.016v-.048H27.9v-.016h-.02v-.048l.02-.016-.02-.017h.02V4.03h.017v.016l.016-.017v-.032l.03-.016h.05v-.016h.016l.013-.016.018.016V3.95h.017l.016-.017h.016v-.015h.015l-.016-.016h.015l.018-.016h-.018l.018-.018h-.064v-.014l-.016.016h-.034l-.03.018-.032-.018h-.018v.018l-.016.016v.016h-.014l-.016.016-.016.014v.016l-.018.017h-.016V4h-.016v.015l-.014.016v.018l-.018.017h-.016l-.018.016v-.018l-.047-.017v.017h.016l.017.016h-.094l-.016-.016h-.016v.016h-.016v-.016H27.6V4.03h.014l.016.016V4.03l-.03-.017h-.064l-.018-.016h.034l-.032-.016v-.014h.065l.018.017V4h.015l.016.015v-.017l.02.016h.015v.016h.034L27.65 4l-.047-.033-.033-.048V3.9l-.03-.05v-.03l-.02-.03v-.034l-.013-.032V3.71l-.018-.032v-.016l-.017-.016V3.63h-.018l-.016-.017v-.031h.015l-.03-.016h-.032V3.55h-.016l-.018-.016-.017-.032-.016-.03-.017-.018-.014-.017v-.03l-.016-.033v-.032l.016-.03v-.13l.014-.016v-.032l.018-.016v-.016l.016-.016V3.07l.016-.016.018-.016.016-.033h.016l.016-.03V2.86l.016-.017.016-.016.018-.033v-.015h.016v-.048l.018-.016v-.032l.014-.016v-.032h-.014v-.033h-.018V2.54h-.016l-.018.02v.03h-.016v.016l-.016.017v.016h-.016v.016l-.018.014v.016h-.016l-.018.05v.014l-.016.016v.017l-.032.015-.014.016-.015.016-.017.016-.016.017h-.016v.017l-.015.016-.014.014-.017.016-.016.017v.016h-.016v.016h-.015v.014l-.016.016v.016l-.017-.016v.034l-.018.016-.016.03h-.017v.017l-.033.017-.014.016v.014l-.018.016h-.016v.016h-.012l-.018.017-.047.015H26.622l-.08-.016-.047-.018-.03-.032-.02-.017-.015-.016v-.015h-.014v-.016L26.4 3.07l.018-.016-.018-.015v-.02l-.016-.046-.017.016h-.094l-.05-.016h-.031l-.096-.017h-.016L26 2.942l-.078-.017-.018-.015v.016h-.016V2.91l-.08-.016-.05-.016-.028-.016h-.018l-.05-.017-.016-.015h-.014l-.016-.017H25.6l-.113-.048-.015-.015h-.018l-.016-.016V2.7l-.016-.017-.03-.015-.033-.016-.063-.032v-.017l-.016-.015h-.017l-.05-.03-.077-.05-.018-.016h-.014V2.48h-.034l-.016-.017-.03-.033-.015-.03-.02-.017h-.015v-.017h-.018l.018-.017h-.018l-.03-.032-.017-.016-.016-.017-.03-.032h-.02l-.015-.016h-.017l-.018-.032-.01-.015-.033-.032-.032-.032-.017-.016v-.016h-.014v-.016h-.02l-.015-.016-.017-.032v-.016l-.014-.016-.016-.016-.033-.033v-.032l-.018-.016.018-.017h-.032V1.87l-.018-.017-.014-.016v-.015l-.017-.016V1.79h-.013v-.017l-.016-.016h-.018l-.03-.03-.048-.05-.018-.016-.047-.047-.033-.032-.016-.015-.047-.05-.016-.03-.03-.014-.016-.03-.05-.065-.014-.018-.03-.016-.034-.015L24 1.31l-.016-.016h-.016l-.018-.016V1.23h-.016l-.03-.017-.017-.017-.016-.046h-.015v-.016l-.016.016h-.014zm-13.09 18.223h-.016l.016-.016v.016zm2.13-.062h-.02v-.016h.02v.017zm-1.298-1.472h-.016l-.033-.016-.032-.017h-.032v.017h-.034v.032l-.016.017h-.032l-.033.018h-.015l-.016-.017h-.02v-.016l-.03.017v.018h-.016v.016l-.03.016-.02-.016v.047l-.015.018h-.033v.05h.032v.033l-.017.032-.016.016h-.033v.016l-.016.016-.016.017-.015.017H11.03l-.015.016H11v.016h.015l.016.016v-.016l.02-.016h.03v-.016h.016l.016-.017v.017l.018.016v.016h-.018l-.016.016v.049h-.016v.016h-.016l-.016.016v-.024h-.018v.016h-.016v-.016h-.046v.016H10.925v-.016l.018-.016-.018-.016h-.032l-.016-.017v-.016l.016-.016-.016-.016-.018-.016h-.016v.016l.016.016h-.016l-.03.016H10.8l-.016.017.016.018-.016.016-.018.016h-.016l-.016-.016-.014.016h-.018v.016h.018v.018l.016-.018h.016v.018l-.016.016v.016l.016-.016h.034v-.016h.014v.016l-.016.016-.018.017h-.016v.031h-.03v-.016l-.018.015h-.03v.017h-.017l-.015.028v.016l-.016.017h-.033l-.015-.017v.017h-.015v-.017h-.016v-.016l.016-.016-.016-.016v.016l-.018.016-.016-.016v-.016h.016v-.017h.018l.016-.015h-.016v-.034h-.034v-.016h-.016V18.3h-.014l-.016.016v.032h-.018v-.032h-.016V18.3h-.016v.031H10.4v.018l-.016.016.016.016v.017l-.016.016h.032v.031h-.032l.016-.015-.016-.016v-.016h-.034v.032h-.016v.016l.03.017v.017h.02v.016l.016.014h.032v.016h-.016v.017l.016.017-.032.014v.016h-.016l.016.016h-.016v.016h.016l-.016.018h-.018v.016h.018l.016.014v.016l-.016-.016h-.018v-.016l-.016-.016v-.018l-.016-.016v-.046h-.03v.016l-.016-.016h-.018l-.016.016h-.014l-.016.016v-.016h-.034v-.063l-.016.016v.017h-.014v.017h-.034v-.017h-.032v-.017h-.014l-.016.017v.047h-.016v.017l.016.033.016-.018v.018l.016-.018h.018v.018h-.018l-.016.016v.03h-.016l-.016.017v.017h-.018v.017l.018.016h-.018v.016h.05v.015l.016-.016v.015h.018v.017h.014V18.75h.018v.081h.016v.016h.016v.016l.016.017v.018h-.05v.016l.016.016v.017l.016-.017-.016-.02h.016v.016l.016-.016.016.016v-.082h.034v.016h-.016l.016.017h-.016v.017h.032v-.017h.016v.017l.018-.017h.016v.017h-.034l.018.016h-.018v.016l-.016-.016v.033h-.018v.03h.016l-.016.017h.03v.016h.02v-.016l-.02-.017v-.016h.02v.016h.031v.017h.033v.032l-.016.017h.016l.016-.018.017-.016H10.416l.016.016v.017l.016.015h.018l.016.017v.083l-.016.016v.065h.016l.016.016-.016.017h.032l-.016.016v.017h.016v.017l.016.016h.034l-.016.016h-.034v-.017h-.016v-.016l-.016-.017h-.05v-.017H10.4v.017h-.016v.033l-.018-.016v.016l-.016.016v-.017l-.016-.016-.016-.017h-.016v-.017h-.016v-.016h.016l.016-.016h-.016v-.02h-.016v-.066h.016v.049l.016-.016v-.017h.016l-.016-.016v-.014l.016-.017v-.016h-.014v-.033l-.016-.016-.016.016v-.014l-.018-.017v.017l-.016.016h-.014v.016l-.016-.016h.016v-.033l.016-.016.016-.017-.016-.016h-.016v.016h-.016v-.016h.016v-.031h-.016v.017l-.018-.017h.018l-.018-.016-.03-.016h-.016v.017h.016l-.03.016h.015l-.015.017v.032h-.018v.049l.018.016h-.018v.016l-.014-.016v.016l-.018.017.018.017h-.018v.017l.018.016v.016l.014.017v.016l.018.03v.033l.016.017v.017l.017.016h.016v.016l.016.015.017.016v-.031h.047l-.016.03v.018h.015v.016l.018.016v.016h.016v.033l.015-.018v.049l.016-.016v.016l.017-.016v-.026l.016-.017.018.017h-.017v.017h-.016v.032l-.016.016h-.02v.016h-.016v.033l-.016.016v.017l-.018.017v.016h-.016v.017l-.03.016h-.02v.016h-.015l.015.016V19.7h.065l.02-.017.03-.032h.016l-.016-.02.016-.017h.03l.02-.016h.014v-.016l.016-.016v-.014l.016-.016h-.016l.016-.017h.016l.018-.016v-.015h.016v-.015l-.016-.017h.016v-.016l.016.016h.098v-.016h.016v-.016h.033l.016-.015.032.016h.016v-.015h.018v.016h.03l.017.017v.016h-.016v.017h.034v.049l-.032.016-.016.016-.016.016-.018.017v-.017l-.016.017v.048l.016.016.033.016v.016l-.015.016.016.017.017-.017h.016l-.016-.016h.016l.018.016v-.016h.01l.016-.016h.016v-.017l.016-.017h.049l.016-.017h.016l.017-.016.016-.016v-.034l.016-.016v-.017h.015v-.063l.016-.016h-.015v-.016l-.016-.03-.017-.033v-.031h-.016l-.018-.016-.017-.018h-.033l-.018.017-.016-.018-.016.017h-.016v.015H10.8l-.016.016h-.082l-.03-.03h-.017v.016h-.015l.016-.016.016-.017v-.017h.016l.016-.016h.05v-.016h.016l.018-.016h.012v-.049h.016l.016-.016h-.016v-.012l-.016-.016h-.016v-.048l-.018-.016v-.034h-.016l-.016-.032-.014-.014v-.017h-.018l.018-.016v-.032l.016.017v.017h.016l.033-.032.015-.015.03-.032v-.032h-.015l.016-.016h.017v.015h.016v-.015h.018v.016l.017.032h.016v.017l.016.016.017.017h.016v-.033l.016.016v.016h.015v-.016l.016.016h.017l-.016.032.017.016h.016v.017h.035v.017l-.016.016h.017l.016.017v.032h-.016v.032h-.016v.034h.017v.113h.016l.064.048.016.017h.016l.015-.033v.033l-.016.016v.016l.048.016v-.016h.016v.016l-.016.016.016.018.016.016v.016h.016v.032l.016.017h-.032v.08l.03.016h-.015l-.016-.016-.017.016-.03.017h-.02l-.015.016v.015h-.016l-.016.017h-.016l-.018.016-.03.017h-.017v.016l.016.017h.017l-.016.017h.017v.016h.016l-.016.017h.016l.018-.017v-.047h.017l.016-.016h.127l.018-.016.016.017v.016l-.016.032.016.017h-.016l-.018-.017h-.032v.017h-.016v.016h-.016l-.016.016-.018.017h-.016v.034l.016.016.018.016h.016v.016h-.066v.017h.05v.016h-.018v.049l-.03.017v.016l-.017.016-.016.016h-.017v.016l-.016.017h-.016l.017.017-.016.016v.032l-.015-.016v.048h.016v.017h-.031l.015.016h-.016v-.016h-.02v.032h-.015v.015l-.016.017h.031l-.015.017-.016-.018-.017.017h-.016v.015h-.017v.016l-.016.017v.017h-.018l.018.017h-.018v.049h-.016l-.016.016-.016.016h-.05v.017l-.016.015v-.016l.016-.018v-.016h-.016v.016l-.012-.03-.033-.017-.016.017h-.03l-.018.016v-.048h.034v-.032h-.016v-.033l.016-.016-.016-.016v-.033h-.018l-.016.016h-.016v.016l-.016-.016h-.03v.016h.016l-.016.016h-.018v.016l.018.033v.047l.016.017v.016h.016l.016.017v.016l.016-.015v.034h.016l.018-.017v.018l.016.015v.035h-.018v.016l-.018.016-.016.016v.033h.016l.018.015v.016l.016.034h-.016l.016.03V20.727h-.016v.016l-.018.017v.032h.018l.016.016h.016v.017h-.016v-.017h-.016l-.018-.017h-.016v.016l-.016.032v.032l.016.032v.032h.034l.016.032h.032V21h.018l.016.015.016.03v.017h.016v.018l.016.016v.127l-.016.032v.032l-.016.032-.018.006-.016.016v.016l-.018.017v.017h-.032v.016h-.032v.032h-.016v-.016h-.016v-.016h-.016l-.016-.016v-.017l-.016-.017-.018.017-.016.017-.016-.017h-.012v.017h.016l.016.016.016.016v.016h.018v.017l.016.016.016.017.016.016v.016h-.05l.016.016h.048v.017l-.016.017h-.016v.016h.032v.016h-.016l.016.016h-.016v.017h.066l.016.015v-.022l.016-.017h.018l.012.017h.03l.017.015h.081l.018.018.016-.018h.016l.016.018.016.016.03.03v.017l-.015.016.016.017v.016h.035l.016-.016.05.032v-.033h.047l.016-.018v-.016h-.016v-.016h.033v-.049l.016-.017-.016-.015h-.034l-.016-.017v-.015h-.016l-.016-.016-.018-.017v-.013l-.016-.017v-.063l.016-.016v-.017l-.016-.016h-.016l-.016-.015v-.032l-.016-.048v-.016l.03-.05.017-.016v-.014h.016v-.05l.017-.016v-.014l.016-.017h.016v-.016h.015V21.1l.016-.03v-.05l.02-.016.015-.016h.016l.017-.017h.032l.017.018h.016l.016.016h.033l.016.016h.031v.032h.017v.05l-.016.03-.015.018v.032H11.4v.017l-.017.015-.018.017h-.049l.016-.017h-.016v-.066l-.018-.017h-.017v-.016h-.063l-.02.016v.017h-.015v.016h-.016v.033h.015l.016.03.02.017h.015l.016-.016h.017l.016.017v-.017h.016v.03l-.017.018v.08h.016v.016l.032.017.016.017v.016l.016.016.018.03v.034l.016.016v.016l.016.017-.016.017v.077l-.016.02v.015l-.018.016v.033h-.032l.016.033v.032l-.016.032-.033.03h-.017l-.016.018-.016.016-.015.018h-.016v.016l.015.016v.05h-.016l-.02.03v.018h.02l.015-.017h.016v-.015l.017-.016h.016v-.018l.016-.017h.048v-.016h.033v-.017h.017l.016-.016h.064l.016-.017h.03l.017-.016v-.017l.05-.016h.016l.016-.015-.016-.017h.016l.018-.016.016-.017v-.032l.016-.016h.016l.016-.016.018.017h.016v-.017l.016-.017.016-.016h.016v-.016h.03v-.017h-.063v-.013l.016-.017.015-.016v-.031h-.033l-.016-.017h-.016l-.017-.017h-.032l.017-.046v-.014l.016-.016.033-.032v-.016l.03-.016.017-.017h.031l.018.017h.016l.015.016h.065v.032h.017l.016.017v.05l.018.016H12l.016-.016h.016v.032h.018v.017h.016l.016-.017-.016-.016v-.016l.016-.016v-.018h.016l.016-.016v-.033h-.016v-.031h.032V21.338l-.016-.017.016-.016.018-.017-.018-.016v-.017h.018l.016-.016h.016V21.214l.016-.016.033-.017.015-.016-.016-.016h.015v-.032h-.016v-.017h.015v-.061l.016-.03v-.017l.017-.017v-.033h-.016v-.03h-.02v-.034h-.016v-.016h.016v-.046l.016-.018v-.08l.016-.018.033-.08.016-.048h-.049v-.017h.017l.018.017v-.017h.016l.017-.016.016-.064v-.018h.016v-.065l.017-.015v-.028l.016-.03.016-.018v-.032l.015-.048.016-.017v-.03l.02-.017v-.017l.015.018v-.049h.016v-.046h.017v-.018h.034v-.017l.017-.016v-.015h-.016l-.015.016v-.015h.016v-.016l-.015.015v-.033l.016-.017h.017v.017h.016l.016-.017h.015v-.017h.018v-.017h-.018v-.016h-.033v-.017l-.016-.017v-.016l.03-.03V19.8h.017v-.01l-.016.017h-.016l-.022-.017h.032l-.016-.032h.016l.016.016h-.016l.016.017h.033l.017-.016.016-.016v-.065h.016v-.016l.017.016v-.016l.016-.016.016-.016h.015l.016.017.017-.016-.016-.016.017-.017v-.015h.033v-.016l-.018-.018.018-.016-.018-.016h.018v-.017l.016.032v-.05l.016.016.018.017v-.018l.016.017.016-.018v-.016h.016v.016h.016v-.016l.016-.016h.016l.018-.017v-.017h-.018l-.016-.016-.016.016.016.017h-.016l-.016.017v-.049l.03-.015h-.015l.016-.016v.015l.015-.016v-.017h.018v-.018h-.034v-.033h.015v.016h.018v-.033l-.018-.016h.018v-.033l-.018.017v.017h-.016v-.033l-.017.017h-.016v-.017l-.016.017v-.017h-.02v-.016h-.016l-.018-.015v-.005h.018v-.033l.016-.017v-.03h.114v-.017l-.016-.016v-.033h-.018v.049l-.016-.016h-.032v-.047l-.016.016v.033h-.016l-.016-.018h-.034l.016.017h-.016V19.1h-.034v-.016h.018l.016-.016.016-.017h.018l.016-.016h-.016v-.017l-.018.017h-.016l-.016-.017v.017h-.081l.016-.017.015-.016v-.031l.016-.016.017-.016h.034v-.016l-.015-.016.016-.016h.017l-.016-.017v-.017h.035v-.028h-.034v.032l-.015-.016h-.018l-.016.016h-.111l-.016-.016-.03-.016.015.016-.017.016v-.032l-.018-.017-.016.017v-.017h-.03l-.016.017h-.016v-.017h-.018v.033h-.03l-.016-.016h-.034l-.016-.017H12.4v-.016l-.016-.017.016-.016-.016-.048v-.032h.016l.016-.016h.016l.016.03h.066V18.67h.05v-.016h.016l-.016-.016v-.018l-.016-.016h.016v-.014h.032v.032h.05v-.032l.016-.016.016-.016v-.017l.016-.016v-.014l-.016-.03.016-.034.018-.016h-.018v-.064l-.016-.016v-.017h-.016l-.016-.03v-.02h-.016v-.013l-.018-.016v-.016h-.032v-.017H12.528v-.016h-.034v.017l-.016-.016v.017h-.05v.018h-.016v-.017l-.012.018v.032h-.016v.016l-.018.018h-.016l-.016.016v.033h-.014v-.017h-.016v.017l.016.016v.015h-.016v-.016h-.034l-.016-.017-.016.016h-.032v-.017h-.08l-.016-.017v-.016h-.03l-.016-.016-.016-.018-.018.018-.016.016v-.016l.016-.018h-.114l-.016-.03h-.015l.016-.017h-.015v-.035l-.016-.016v-.017h-.02v-.016l-.015-.017v-.097l-.016-.032.015-.016H11.8v.016h-.015l-.016-.03v-.018h.015v-.017h.016v-.016h-.015v-.017l.016-.03v-.013h.02v-.017h.015l-.016-.016h.015v-.016h.016v-.03h-.066l-.016.016-.017.017-.016.016v.015l-.016.033h-.049v-.018h-.015v-.017h.016v.017h.035l-.05-.064-.015.017-.016.016-.018.015v.017l-.016.017v.015h-.016v-.016l-.03.015h-.035v-.016h.048l.016-.018h.016l.016-.017v-.05h.018v-.032l-.018.016h-.016l-.047.016-.018.017h.034v.015zm2.047 1.792l.018.016v.017h-.018v.016l.018-.017h.016v-.05h-.017v-.016h-.018v.033zm-.574-.304h.033v-.016h-.016v-.017l-.016.017v.016zm.415-.16v.033h-.033v.015h.031V19.2h.018v-.034h.016v.016l.015-.016-.016-.016h-.017v-.017h-.018v.033zm-.143-.176h.016v-.017l-.016.017v-.017l-.016-.016v.033h.016zm.143-.016h.034v-.016h-.017v-.016h-.018v.032zm4.113-.288v-.016l-.016-.016h-.034v.032h.016v-.016h.018l.016.016zm0-.047v.015h.033l.015.016.016-.015.017-.016h-.017v-.02h-.048v.02h-.014zm-4.32-.578h-.016l-.016.017.016.015.016-.016.016.015.016.016h.034l.016.017.016-.016h-.016v-.015l-.016-.016h-.016v-.018h-.018l-.016-.016v.016h-.016zm.015-.192v-.017h-.016v.034h-.016v.047l.017.016.016.018V18l.016-.015v-.017h.049v.017h.031l-.015-.017v-.017h.016v-.015h.02l-.02.016H13.412v.018h.017l-.016.017V18h.066l-.018-.015h.017l-.018-.017v-.017l.017-.015v-.016h.032v.015l.015-.016h.016v-.017h.035v-.016h-.016v-.017h-.035l-.016.017v.016H13.458v.016h-.017l.016.015h-.049v-.016h-.015v-.017l-.016-.016v-.017l-.02-.017v.017h-.015l-.016-.017-.017-.016h-.016v.016l-.018-.016v.016l-.017.017zm.56.096v.017h-.015V18h.032V17.948h.016v-.033h-.016v.016h-.016l-.016.016h.016v.016zm-1.025-.112h-.016v.017h.016l.018.018.016-.017.016-.016h.018v-.016h-.018l-.016.016v-.016h-.016v.016h-.018zm.64.033h.017v-.017l-.016-.017-.017.017h.016v.017zm.37 0h.016l.016-.017h-.016l.016-.017h-.032v.034zm-.08-.017v.017l.016.016v-.016h.016v-.017h.034v-.017h-.018l.018-.016h.016l-.016-.016v-.016l.016-.016h-.016l-.018.016v.017h-.016l-.016.017h-.016v.033zm.543-.272v.016l-.015-.016-.015.032h.016l-.016.016h.016l-.016.017h.016l.016.016v-.017h.016v-.017l.018-.016.016-.017h.016v-.016h.016l.016-.016v-.015l-.016.016h-.034v-.03l-.05-.017v.017l-.015.017v.016h.016v.015zm-.767-.016v.016l.016-.016h.015v-.032l-.016.017v-.017h-.033v.017l.016.015zm.385-.064h-.034v.033h.034l.016.018h.016v.016h.05l.016-.016v-.018h-.016l-.018.017v-.034h-.032l-.016-.016v.016l-.016-.015zm-.29-.064l.017.016-.016.032v-.017l-.017-.016-.016.015v-.015l-.016-.016v-.017l-.017-.016h-.047v.017l.016.017v.032l.017.017.016.016v.015l.018.017v-.017l.017-.016v.015h.016v.017h-.016v.065h.016l.016-.016h.015V17.55H13.6v-.017h.015v-.016l.018-.048v-.064l-.018-.017h-.063v.017l.016.016-.016.017.016.017.016-.017.015.017zm.417.096l-.015.016v.032h.032l.016-.016.018-.016h.016v-.016h-.016l-.018-.017-.016.017h-.017zm2.543-.496l-.014.017-.018.017-.03.016-.017.018-.02.016-.015.017-.016.03v.017h-.03l-.016.017-.016.017-.018.03v.017l-.016.018v.017l-.018.016-.014.032v.032h-.016l-.018.017v-.02h-.016l-.016.017-.018.03h-.016v.018h.016l-.016.016h.016v.017l.018.017.016.016h.016v-.016h.018v.016h-.018v.033h.018l.016.017v.032l.014-.016h.068l.016-.016.016-.017.03-.017.034-.016.033-.016h.03v-.017h.015l.018-.016h-.018v-.015l.018.016v-.015l-.018-.017-.014-.016-.018-.016v-.033h-.032v-.112l.018-.015v-.015l.03-.033h.015l.018-.03.018-.017.03-.03v-.035l.015-.016.018-.018v-.033h-.018v-.03h-.014l-.016.016-.016.016-.034.032zm-2.75.496v.017h.016l.016-.017.016-.017h-.016l.016-.016h-.016l-.016.016-.016.017zm.416-.08v.032l-.018-.017v.017l-.016-.017v.017h-.016v.016h-.014v.016h.016v.017h.016l.033-.016.03-.016.017.016.016-.016h.018v.016h.016l.016.017.016-.016v.017h.034l-.018-.016h.018v-.016h-.018v-.033h-.032v.017l-.016-.017-.016.017v-.048h-.018l-.016-.032v-.016l-.016-.017h-.016l-.016.016h-.018l.018.016-.018.016h-.016v.017h.033v.015zm-.13 0l-.015-.016-.017.016h-.018v.048h.1v-.033h-.016l.015-.016.016-.033v-.031l-.015.016v.017h-.016l-.02.017v-.017h-.015v.033zm.322.015l.016.017v-.048l-.016-.017v-.016l-.03.017v.047l.014-.015h.016v.015zm0-.095l.016.017h.016v.016l.018.016h.016l-.016-.017.016-.016h-.016v-.017h.016v-.033l-.016-.016v.017h-.018l.018-.016-.018-.015v-.016H14.4v.048l.016.033zm.64 0h-.018l-.016-.017.016.033.018-.016zm-.736 0h.016l-.016.032v.033h.032l.016-.017.018-.016h.03v-.032l-.016-.017h-.034v.017h-.016v-.017h-.016v-.032l-.016.017-.016.016.018.017zm.03-.048v.016l.017.016.018-.016v-.032l-.018-.016-.016.016h.017l-.016.016zm.722 0l.016-.016h.016v-.049h-.016l-.016.017h-.016v.034h.016v.015zm-.48-.016v.016l.032-.016h.016l.016-.016-.016-.017v.017h-.016v-.017h-.018l-.016.017v.016zm-.048-.015h.016l.016-.016h-.016v-.017h-.016v.034zm.334 0h.034v-.016h-.016v-.033h-.018v.017h-.016l-.016.017h.016l.016.017zm.258 0h.016l.03-.016v-.017h-.046v.017h.016l-.014.017zm.272-.113l.016.017h.016v-.017h-.016v-.016l-.016-.015h-.016v.016h.016v.017zm.384-.127h-.033v-.017h-.017l-.016.017v.016l-.016.016v-.016l-.015.016h-.064v.018h-.016l.016.015v.017h.018l.016.016h.05v.049h-.016l.016.017-.016.016h.016v.016h.016V17.23l.016-.017v-.017l.016-.016h.016l.018-.016h.016v.032h.018v.034h.014v-.034l.016-.016v-.016h-.016v-.014h.016v-.113l-.016.016-.014-.016-.018.016-.02.017zm-.93.127l.017-.016h-.017v-.015l-.016-.016v.015h-.016v.016h-.015l-.015.017h.032l.016-.016.015.017zm.753 0l.016-.016v-.015h.02l-.02-.015h-.016l-.014.016v.016h.014v.015zm-.096-.015v.016h.015v-.016l.016-.016v-.016l-.015-.017h-.033v.017h-.032l.017.016h.016l.016.016zm3.343 0l.018-.016h.017v-.033l-.017.017h-.018l-.016.016h.016v.016zm-.016-.08v.018h-.016v.015h.033v-.015h.035v-.018h-.017l.016-.016h-.016l-.018.016h-.015zm-2.863-.176l.016.015.016-.015.016.016v-.03H16v-.017h-.016v.033zm-.145-.08h.015l-.016-.03-.015.015h.014v.016zm2.945-.463h.015l.016-.018H18.8v-.015h-.016l-.018.016.02.017zm.062-3.026h.016v.017h.018l.017.032v.016l.016-.016h.033v-.016l.016-.017v.017H19.014l.014-.017v-.049l-.014-.017-.018.017v.016h-.016v.016l-.034-.016-.014-.016v.016h-.034l-.016.016v-.016h-.018v-.016h-.016v.033zm5.168-1.775h.016l.02.016v-.016l-.02-.016-.015-.016H24v.016h.016v.016zm.08-.08l.016.032h.017v.017h.018v-.048h-.018v-.016l-.016.016h-.015zm-.48 0h.049v-.016l-.016-.016v.016h-.017v-.016h-.018v.032zm.45-.176l.015-.016h-.016v-.017l-.016-.017v.034l.016.016zm.976 20.367l-.017-.016-.014.016.013.017.018-.017zM13.73 19.583v-.018l-.016.017h.016zm-.16-.05v-.016h-.016v.017h.016zm-.05-.207v-.016h-.015v.016h.016zm-.446-.032v-.033h-.016v.034h.016zm.416-.208h-.016v.016l.016-.016zm-.13-.065l-.015-.015h-.016l.016.016h.016zm-.015-.03v-.017l-.016.017h.016zm.08-.032v-.016h.016v-.017h-.017v.017h-.016v.016l.016.016v-.016zm1.168-.208v-.016l-.015.016v.016l.016-.016zm-1.167-.05v-.015h-.016v.016h.016zm-.015-.03h-.016l.016.016v-.016zm4.37-.208v-.017l-.02.017v.017l.02-.018zm-1.763-.08L16 18.366l-.016.016.016.016.015-.016zm-2.832-.177v-.016h.016l-.017-.032h.016v-.033h-.017V18.175h-.016v.032h.016zm.416-.03h-.017v.015l.016-.016zm-2.624 0h.016v-.017l-.016-.017h-.016v.034h.016zm-.08-.033v-.017h-.016v.017h.016zm5.488-.064h-.016v.016l.016-.016zm-3.056-.016v-.016l-.016.016v.017l.016-.018zm.175 0h-.016v.017l.016-.018zm2.704 0v-.016l-.014.016h.014zm-2.543-.048h-.016v.016l.016-.016zm2.736 0v-.016h-.016v.032l.016-.016zm-2.928 0l-.033-.016.015.016h.017zm-.43-.016v-.016h-.035l.016.016h.018zm.06-.016v-.034h-.015v.034h.016zm3.616-.016h-.016v.017l.016-.017zm-.463-.017h-.015l.016.016v-.017zm-3.168 0v-.017h-.016v.016h.017zm.496-.032l-.016-.016v.016h.016zm.08 0l.034-.016h-.05v.016h.016zm-.67-.016v-.016h-.017v.016h.016zm.24-.032h-.017v.017l.016-.017zm-2.08-.016l.015-.016-.016-.016h-.034v.03l.018.018.016-.016zm1.518 0h-.015v.017l.016-.016zm.93 0h-.017l.016.017v-.016zm.255 0h-.016l.015.017v-.016zm2.88.016h.017l-.016-.017-.018.017h.018zm-3.92-.032H12.8v.016l.018-.016zm.64.016l-.016-.016v.016h.015zm.177 0v-.016l-.018.016h.018zm.047 0l.017-.016v-.016h-.035v.032h.016zm-.815-.032h.016l-.015-.017v-.015l-.018.016v.017h-.016l.017.016.018-.018zm.767.016h.016l.016-.016h-.032l-.018.016h.018zm1.04 0v-.016l-.017.016h.016zm-1.874-.016h.018v-.017h-.034v.017h.016zm-.093-.016v-.016h-.018v.016h.018zm-.194-.032h.035v-.033h-.016l-.02.017h-.015v.017l.016.016v-.016zm.177 0v-.064l-.016.014V17.775l.017.016v-.016zm.848.016v-.016l-.016-.017h-.017l.016.017v.016h.015zm-1.87-.016l-.017-.017v.017h.016zm1.95-.016v-.016l-.016.016h.015zm-2-.032l-.016-.015v.016l.015.017v-.017zm1.105.016l.016-.017h.016l.016-.015h-.016l-.016.015h-.032v.017h.016zm.96-.03l-.017-.02v.05l.016-.03zm.784-.066h-.018v.017l.018-.017zm.414.016v-.017h-.016v.017h.016zm1.538-.016v-.033H16.4v.033h.016zm1.79 0l-.015-.016v.016h.017zm-4.638-.048h-.016v.016l.016-.016zm.672.015v-.016h-.016v.016h.016zm-.272-.015v-.016l-.018.016h.018zm-2.385-.016h.016l-.017-.016v-.016h-.016v.032h.016zm2.145 0v-.016l-.016.016h.016zm.367-.032h.016l-.015-.017h-.031l.016.017.016.017v-.017zm.065 0l-.016-.017v.017h-.016l.03.017v-.017zm.175.016v-.016l-.016.017h.015zm.225 0v-.016h-.016v.017h.016zm-.545-.016v-.017H14v.017h.015zm.113 0v-.017l-.018.017h.018zm-.72-.017h.016l-.016-.016h-.016v.016h.016zm.992-.015h-.016l.016.016v-.016zm.16.015v-.016l-.016.016h.016zm1.633 0v-.016.016zm2.238-.015l-.015-.016.016.03v-.014zm-2.208 0h.018v-.016h-.018l-.016.016h.016zm-1.758-.033v-.015h-.018v.032l.018-.017zm.032-.015h-.016v.016l.016-.016zm.496 0v-.033l-.016-.016v.05h.016zm1.646 0v-.016h-.014v.016h.014zm-3.262-.016l.03-.017.017-.016.016-.015h.015v-.032l-.016-.016h-.017v.016h-.016l-.016.017h-.015v.033h-.018v.032h.02zm.72 0l-.017-.017v.017h.015zm.368 0l-.018-.017v-.016h-.016v.017l.016.017h.018zm.032 0h.016v-.048l-.016.016-.016.017v.017h.016zm.527-.016h-.016v.017l.016-.017zm1.666 0h-.02v.017l.02-.017zM14 17.422h.016v-.016H14v.016h-.016l.016.016v-.016zm.144 0v-.032h-.016v.033h.016zm-.656-.016v-.016l-.016.017h.016zm1.39 0v-.016h-.016v.017h.016zm-.638-.016l-.016-.017v.017h.016zm-.688-.017h.016v-.016l.016-.016h-.032v.017l-.018.016h.018zm.623-.016h-.015l.016.016v-.016zm.817.016v-.016l-.016-.03v.047h.016zm-.416-.03v-.017h-.032l.016.016.016.016v-.016zm.27.014v-.016h-.015v.017h.017zm4.05-.015h-.016v.016l.016-.016zm-4.13 0v-.016l-.015.016h.017zm.16 0l.017-.016v-.016l-.016.016h-.016v.016h.017zm-.51-.048H14.4v.017l.016-.016zm.527.017v-.016l-.016.017h.016zm.08-.016h-.016v.017l.016-.016zm.465.017l.016-.016v-.033h-.016v.033h-.016v.017h.016zm-.45-.033v-.031l-.015.016v.017l.016.017v-.017zm.178 0h-.018l.018.017v-.017zm-.353-.015v-.016l-.016.016v.016l.016-.016zm.705.015v-.016h-.018v.017h.018zm-.545-.015v-.016l-.016.016h.016zm.144-.032h-.016v.016l.017-.016zm.032 0h-.017l.016.016v-.016zm-3.52 0v-.017h.033v-.017l-.018-.016v.016l-.016.017h-.017v.017h.016zm3.167 0l.016-.017h-.016l-.016.017h.017zm.945-.016v-.017h-.018v.017h.018zm-4-.048h.015v-.033l-.016.017-.015.016h.016zm3.663-.016v-.03h-.016v.031l.015.017v-.017zm-3.28 0l-.016-.017v.017h.015zm3.233-.03h-.016l.016.014v-.015zm3.312 0h-.018l.018.014v-.015zm-6.37-.018l-.015-.016v.016l.016.018v-.018zm3.09 0h-.017l.016.018v-.018zm0-.016h-.017v.016l.016-.016zm3.552-.016h-.016v.016l.016-.016zm-6.625-.032v-.017l-.016-.015-.015.016v.018l.016.016.017-.016zm-.16-.017h.017v-.015h-.034v.034l.018-.017zm.128-.014v-.016l-.016.016h.015zm4.817-.048v-.017h-.032v.018l.016.017.016-.017zm-1.104-.032h-.018l.018.016v-.016zm.08 0l.016-.016v-.017h-.034v.032h.018zm-.097-.032h-.015v.017l.016-.016zm.065.016l-.016-.017.015-.016h-.047l.016.016.016.017h.015zm.785 0h.016v-.017h-.032v.017h.016zm-1.168-.016h.016l.016-.016h.016l-.016-.017-.016.018h-.016l-.016.016h.016zm.768-.016v-.017h-.018v.018h.018zm-.72-.032h-.017v.016l.016-.016zm.032 0h-.018l.018.016v-.016zm.655.015h.016v-.015h-.016l-.016.016h.017zm.545-.014v-.016l-.016.016h.016zm-.992-.08v-.016h-.016v.016H16zm.128 0v-.016l-.018.016h.018zm-3.248-.207h-.016l.016.015v-.016zm5.952-.195v-.015h-.016v.016l.016.018v-.02zm-1.598-.72v-.015l-.02.016h.02zm-2.707-.095h-.016v.017l.017-.017zm3.088-.03L17.6 15.5v.017h.015zm5.89-3.282h-.018l.018.016v-.016zm.463-.704l-.018-.017-.016.017.016.017.018-.016zm.08 0v-.017l-.018.017h.018zm-.097-.016h.02l-.02-.016-.015.016h.016zm-.367-.016h.018l-.017-.016-.016.016h.016zm.065-.03v-.02l-.016.02h.016zm1.97-5.283l-.017-.017v.016h.017zm2.317-2.08h-.014l.015.016V4.11z"/>
</svg>
