<svg xmlns="http://www.w3.org/2000/svg" width="35.862" height="20.055" viewBox="-3.539 6.394 35.862 20.055">
  <path fill="none" stroke="#72052F" stroke-width=".2" stroke-linecap="round" stroke-linejoin="round" d="M3.97 6.67l.336.143.19-.063.417.08.688.144.16 1.055.096.255.21-.015.83.32.77.592.224.27.527.53.4.335.16-.128.383.112.098.048.176.175.256.017.19-.05h.114l.287.257.417.447.112.113-.017.143.016.112.143.24.576.88.24.113h.095l.05-.016.142.03.08-.094.033-.113.096-.11.144-.08.688-.226.27-.032.61.176.288.256v.128l-.098.128.018.128.336.383-.032.384.016.274.03.032.353.208.272.032.078.08.114.176.11.256.13.128.367.095.288.05.305.256-.016.224.528.27.095.034h.434l.367-.304.097-.145.082-.048.157.033.385.223-.067.288-.19.337-.097.336-.047.385.048.048.114.063.43.08.21.032.4.032.096-.017.063-.063.097-.113h.097l.543.082.61.015.095.177.158.176.178.095.13.065.093.03.08.08.29.674.11.496.128.128.29-.016.08-.016.206-.224-.062-.224-.08-.224-.05-.288.433-.368.08.224-.063.208.112.288.576.32.43.16.29-.16.08-.096.016-.32.11-.368.082-.065h.462l.163.047.11.08v.128l.034.13.623.287.192.112.384-.096.24.192.047.16.192.224.24.095.496.016.097-.032.338-.112h.558l.24.127h.16l.143-.08.274.112.13-.048.126-.064.113-.096.077-.128.098-.208.11-.03.448.11.13.015.095-.015.11-.048.177.032.225.112.046.016.16.064v.32l-.142.512-.113.352-.126.112-.145.272-.032.192-.033 1.04-.08.304-.016.145.015.208-.063.192.192.304.16.096.222.224.258.512.11.576-.014.16-.033.208-.033.096-.206.496-.082.176.034.208-.065.272-.303.336-.335-.16-.098-.096-.08-.112-.066-.112-.463.064-.446.176-.16.144-.033.032-.4-.048-.11-.064-.194-.08-.143.016-.24.08-.13.08-.43.144-.448-.112-.4-.416-.352-.224-.176.048-.08-.016-.21.144-.03.112-.305.208-.382.096-.336-.176-.832-.416-.625-.287-.577.096-.095-.095-.192.032-.16-.08-.062-.064-.113-.095-.144-.05-.287.08-.065.097-.4.29-.48-.354-.11-.145-.017-.158v-.128l.016-.272-.095-.144-.353-.24-.272.112-.13.08-.14.08-.24.13-.497.254h-.05l-.08-.016-.382-.112-.097-.048-.08-.112-.96-.672-.495-.288-.24-.096-.096.016-.113.016-.208-.064-.24-.096-.034-.096.063-.16.083-.208.017-.352-.017-.128-.11-.288-.082-.095-.174-.145-.432-.08-.465-.048-.29-.05-.127-.062-.672-.592-.415.288-.144.048-.366-.032-.05-.016-.222.048v.27l-.064.178-.145-.096-.11-.064-.097-.064-.13-.064-.51-.256-.112-.048-.29-.016h-.542l-.113.304-.066.175-.078.097-.08.064-.144.033-.16-.048-.047-.13-.05-.097-.32-.27-.21-.017H9.41l-.255-.064-.896-.224-.096-.256.017-.128-.063-.288-.064-.24-.065-.112-.19.016-.177.048-.08.032-.13.032-.4.048H6.9l-.114-.016-.096-.08-.43-.336-.112-.096-.577-.432-.352-.256-.096-.016-.193-.016-.128.032-.145.128-.16.16-.527-.288-.225-.224-.527-.32-.545-.335-.447-.417-.336.015-.32-.8-.112-.208-.033-.015-.08-.032-.127-.048-.192-.048-.273-.065-.432-.223-.975-.672-.496-.385-.193-.16-.095.064-.065.082.016.16-.176.16-.352-.193-.304-.336-.27-.29-.432-.238-.385-.192-.03-.336.03-.128.064-.112.576-.865.223-.175.176-.192.082-.368.015-.144-.08-.064-.194-.513.225-.288.112-.064.145-.113.273-.383.047-.193-.08-.11-.065-.098-.015-.29.175-.222.114-.048h.176l.24-.225.16-.32.11-.192.13-.063h.143l.08-.032.29-.224.575-.593.303-.19.35-.096.083.127.112.24.095.226.096.32.175-.05.16.066.145.032.095-.08-.03-.13.142-.062.08-.048.37-.448.046-.464v-.24l.08-.304.08-.048.096.048.08.095.112.08.223.048.015-.127.05-.127.304-.192.11.03z"/>
</svg>
